<svg enable-background="new 0 0 550 550" viewBox="0 0 550 550" xmlns="http://www.w3.org/2000/svg"><g id="_x32_12_-_Dashboard"><g><g><g><path d="m402.067 530.665h-254.134c-4.418 0-8-3.582-8-8v-15.391c0-15.041 12.236-27.278 27.278-27.278h39.607c4.748 0 9.031-2.718 10.91-6.924 4.203-9.388 3.797-18.54-1.239-27.985-4.311-8.106-6.588-17.556-6.588-27.336v-17.61c0-4.418 3.581-8 8-8s8 3.582 8 8v17.61c0 7.17 1.629 14.022 4.71 19.817 7.408 13.893 7.988 28.038 1.722 42.035-4.448 9.956-14.464 16.392-25.516 16.392h-39.607c-6.219 0-11.278 5.059-11.278 11.278v7.391h238.134v-7.391c0-6.219-5.059-11.278-11.278-11.278h-39.607c-11.052 0-21.069-6.436-25.518-16.398-6.263-13.99-5.683-28.135 1.728-42.037 3.078-5.788 4.707-12.641 4.707-19.809v-17.61c0-4.418 3.582-8 8-8s8 3.582 8 8v17.61c0 9.778-2.276 19.228-6.584 27.328-5.04 9.453-5.446 18.605-1.245 27.986 1.881 4.213 6.163 6.93 10.912 6.93h39.607c15.041 0 27.278 12.237 27.278 27.278v15.391c.001 4.419-3.581 8.001-7.999 8.001z"/></g><g><path d="m509.415 408.14h-468.831c-16.308 0-29.576-15.038-29.576-33.521v-329.342c0-14.304 11.637-25.942 25.942-25.942h476.1c14.304 0 25.942 11.638 25.942 25.942v329.342c0 18.483-13.269 33.521-29.577 33.521zm-472.465-372.805c-5.482 0-9.942 4.46-9.942 9.943v329.342c0 9.661 6.09 17.521 13.576 17.521h468.831c7.486 0 13.577-7.86 13.577-17.521v-329.343c0-5.482-4.46-9.943-9.942-9.943h-476.1z"/></g></g><g><path d="m530.992 363.456h-511.984c-4.418 0-8-3.582-8-8s3.581-8 8-8h511.984c4.418 0 8 3.582 8 8s-3.582 8-8 8z"/></g><g><g><path d="m228.544 137.699h-27.999c-4.418 0-8-3.581-8-8 0-18.504-15.055-33.559-33.559-33.559-4.418 0-8-3.581-8-8v-27.999c0-4.418 3.581-8 8-8 42.765 0 77.558 34.792 77.558 77.558 0 4.418-3.582 8-8 8zm-20.645-16h12.127c-3.591-27.561-25.48-49.45-53.041-53.041v12.127c20.934 3.411 37.504 19.98 40.914 40.914z"/></g><g><path d="m126.377 239.866c-42.765 0-77.558-34.792-77.558-77.558s34.792-77.558 77.558-77.558c4.418 0 8 3.581 8 8v27.999c0 4.418-3.581 8-8 8-18.504 0-33.559 15.055-33.559 33.559s15.055 33.559 33.559 33.559 33.559-15.055 33.559-33.559c0-4.418 3.581-8 8-8h27.999c4.418 0 8 3.581 8 8 0 42.765-34.793 77.558-77.558 77.558zm-8-138.599c-30.179 3.932-53.559 29.807-53.559 61.041 0 33.943 27.615 61.558 61.558 61.558 31.233 0 57.109-23.38 61.041-53.559h-12.127c-3.835 23.538-24.309 41.559-48.914 41.559-27.327 0-49.559-22.232-49.559-49.559 0-24.605 18.021-45.079 41.559-48.914v-12.126z"/></g></g><g><g><path d="m238.342 267.6c-2.697 0-5.329-1.364-6.837-3.834-2.301-3.772-1.109-8.695 2.663-10.996l59.561-36.338c3.773-2.302 8.695-1.109 10.996 2.663 2.302 3.772 1.109 8.695-2.662 10.996l-59.563 36.337c-1.3.794-2.738 1.172-4.158 1.172z"/></g><g><path d="m398.866 149.587c-2.2 0-4.391-.902-5.971-2.673-2.941-3.296-2.654-8.353.642-11.295l63.073-56.297c3.296-2.943 8.352-2.655 11.296.641 2.941 3.296 2.654 8.353-.642 11.295l-63.073 56.297c-1.527 1.362-3.43 2.032-5.325 2.032z"/></g><g><path d="m318.546 216.49c-2.307 0-4.594-.991-6.176-2.909-2.811-3.408-2.328-8.45 1.08-11.262l61.055-50.366c3.408-2.813 8.449-2.328 11.261 1.081 2.811 3.408 2.328 8.45-1.08 11.262l-61.055 50.366c-1.49 1.229-3.293 1.828-5.085 1.828z"/></g><g><path d="m227.495 286.917c-11.415 0-20.701-9.286-20.701-20.701 0-11.414 9.286-20.701 20.701-20.701 11.414 0 20.701 9.286 20.701 20.701s-9.286 20.701-20.701 20.701zm0-25.402c-2.592 0-4.702 2.109-4.702 4.701s2.109 4.701 4.702 4.701 4.701-2.109 4.701-4.701-2.108-4.701-4.701-4.701z"/></g><g><path d="m243.956 363.455h-32.921c-4.418 0-8-3.582-8-8v-50.831c0-4.418 3.581-8 8-8h32.921c4.418 0 8 3.582 8 8v50.831c0 4.418-3.582 8-8 8zm-24.922-16h16.922v-34.831h-16.922z"/></g><g><path d="m324.887 363.455h-32.921c-4.418 0-8-3.582-8-8v-93.811c0-4.418 3.582-8 8-8h32.921c4.418 0 8 3.581 8 8v93.811c0 4.418-3.582 8-8 8zm-24.921-16h16.921v-77.811h-16.921z"/></g><g><path d="m405.819 363.455h-32.921c-4.418 0-8-3.582-8-8v-157.824c0-4.418 3.582-8 8-8h32.921c4.418 0 8 3.581 8 8v157.824c-.001 4.418-3.583 8-8 8zm-24.922-16h16.921v-141.825h-16.921z"/></g><g><path d="m486.748 363.456h-32.92c-4.418 0-8-3.582-8-8v-185.363h-3.754c-2.858 0-5.499-1.524-6.928-3.999-1.43-2.475-1.43-5.524-.001-7.999l28.211-48.877c1.429-2.476 4.069-4 6.928-4.001 2.858 0 5.5 1.524 6.929 3.999l28.223 48.877c1.43 2.475 1.43 5.525.001 8-1.43 2.475-4.07 4-6.929 4h-3.761v185.362c.001 4.419-3.581 8.001-7.999 8.001zm-24.92-16h16.92v-185.363c0-3.743 2.57-6.886 6.043-7.759l-14.504-25.117-14.498 25.118c3.47.874 6.039 4.016 6.039 7.758z"/></g><g><path d="m308.427 236.86c-11.415 0-20.702-9.286-20.702-20.701s9.287-20.701 20.702-20.701 20.701 9.286 20.701 20.701c-.001 11.415-9.286 20.701-20.701 20.701zm0-25.402c-2.593 0-4.702 2.109-4.702 4.702s2.109 4.701 4.702 4.701c2.592 0 4.701-2.109 4.701-4.701s-2.109-4.702-4.701-4.702z"/></g><g><path d="m389.358 170.704c-11.415 0-20.702-9.286-20.702-20.701s9.287-20.701 20.702-20.701 20.701 9.286 20.701 20.701-9.286 20.701-20.701 20.701zm0-25.403c-2.593 0-4.702 2.109-4.702 4.702s2.109 4.702 4.702 4.702c2.592 0 4.701-2.109 4.701-4.702s-2.109-4.702-4.701-4.702z"/></g><g><path d="m470.289 96.426c-11.415 0-20.702-9.286-20.702-20.701s9.287-20.701 20.702-20.701 20.701 9.286 20.701 20.701-9.286 20.701-20.701 20.701zm0-25.402c-2.593 0-4.702 2.109-4.702 4.702 0 2.592 2.109 4.701 4.702 4.701 2.592 0 4.701-2.109 4.701-4.701.001-2.592-2.109-4.702-4.701-4.702z"/></g></g><g><path d="m418.911 71.024h-165.961c-4.418 0-8-3.581-8-8s3.581-8 8-8h165.961c4.418 0 8 3.581 8 8s-3.582 8-8 8z"/></g><g><g><path d="m388.912 113.293h-135.962c-4.418 0-8-3.581-8-8s3.581-8 8-8h135.962c4.418 0 8 3.581 8 8s-3.582 8-8 8z"/></g></g><g><g><path d="m338.913 155.561h-85.963c-4.418 0-8-3.581-8-8s3.581-8 8-8h85.963c4.418 0 8 3.581 8 8s-3.582 8-8 8z"/></g></g></g></g><g id="Layer_1"/></svg>