<?xml version="1.0" encoding="UTF-8"?>
<svg id="Layer_1" xmlns="http://www.w3.org/2000/svg" version="1.1" viewBox="0 0 100 125">
  <!-- Generator: Adobe Illustrator 29.8.2, SVG Export Plug-In . SVG Version: 2.1.1 Build 3)  -->
  <defs>
    <style>
      .st0 {
        stroke: #000;
        stroke-miterlimit: 10;
        stroke-width: .75px;
      }
    </style>
  </defs>
  <path class="st0" d="M91.51,21.96h-17.6c-2.07-3.65-5.99-6.12-10.47-6.12s-8.41,2.47-10.47,6.12h-5.44v-4.97c0-.64-.52-1.16-1.16-1.16h-21.36c-.64,0-1.16.52-1.16,1.16v4.97h-15.36c-2.18,0-3.94,1.77-3.94,3.94v63.38c0,2.18,1.77,3.94,3.94,3.94h31.19v6.1l-4.38,2.28c-.13.07-.26.13-.39.2-1.23.62-2.92,1.48-2.92,3.52s1.73,3.85,3.85,3.85h28.34c2.12,0,3.85-1.73,3.85-3.85s-1.69-2.89-2.92-3.52c-.13-.07-.26-.13-.39-.2l-4.38-2.28v-6.1h31.19c2.18,0,3.94-1.77,3.94-3.94V25.91c-.01-2.18-1.78-3.95-3.96-3.95ZM73.15,27.87c0,4.96-3.74,9.06-8.55,9.64v-9.17l6.38-6.58c1.35,1.68,2.17,3.8,2.17,6.11ZM63.44,18.16c2.21,0,4.24.74,5.87,1.98l-6.29,6.48-8.92-1.42c1.16-4.05,4.91-7.04,9.34-7.04ZM54.18,50.12h1.79l-5.97,9.1-5.97-9.09h1.79c.64,0,1.16-.52,1.16-1.16v-10.5h6.03v10.5c.01.63.53,1.15,1.17,1.15ZM26.18,18.15h19.02v18.17c-.33.21-.54.57-.54.98v6.08h-18.48v-25.23ZM58.63,101.07l5.01,2.6c.14.07.27.14.41.21,1.26.63,1.65.92,1.65,1.44,0,.84-.68,1.52-1.52,1.52h-28.35c-.84,0-1.52-.68-1.52-1.52,0-.53.39-.81,1.65-1.44.14-.07.27-.14.41-.21l5.01-2.6c.38-.2.63-.6.63-1.03v-6.81h16v6.81c-.01.43.23.83.62,1.03ZM91.51,90.91H8.49c-.89,0-1.62-.73-1.62-1.62v-7.57h23.99c.64,0,1.16-.52,1.16-1.16s-.52-1.16-1.16-1.16H6.87V25.91c0-.89.73-1.62,1.62-1.62h15.37v20.26c0,.64.52,1.16,1.16,1.16h19.64v2.09h-2.78c-.43,0-.82.23-1.02.61s-.18.83.05,1.19l8.12,12.37c.21.33.58.52.97.52s.76-.2.97-.52l8.12-12.37c.23-.36.25-.81.05-1.19-.2-.38-.6-.61-1.02-.61h-2.78v-10.5c0-.64-.52-1.16-1.16-1.16h-6.65v-11.85h4.42c-.35,1.13-.55,2.34-.55,3.59,0,1.87.42,3.67,1.24,5.33.28.57.98.81,1.56.53.58-.28.81-.98.53-1.56-.67-1.34-1-2.79-1-4.3,0-.12,0-.24,0-.36l8.54,1.36v8.65c-1.51-.18-2.96-.71-4.23-1.57-.53-.36-1.26-.21-1.61.32-.36.53-.21,1.25.32,1.61,1.98,1.33,4.29,2.03,6.69,2.03,6.64,0,12.03-5.4,12.03-12.03,0-1.25-.19-2.45-.55-3.59h16.59c.89,0,1.62.73,1.62,1.62v53.48h-24c-.64,0-1.16.52-1.16,1.16s.52,1.16,1.16,1.16h23.99v7.57c0,.89-.72,1.62-1.62,1.62ZM40.19,66.15c0-1.96.57-3.85,1.66-5.47.36-.53,1.08-.67,1.61-.32.53.36.67,1.08.32,1.61-.83,1.23-1.27,2.68-1.27,4.17,0,4.13,3.36,7.49,7.49,7.49s7.49-3.36,7.49-7.49c0-1.49-.44-2.94-1.27-4.17-.36-.53-.22-1.25.32-1.61.53-.36,1.25-.22,1.61.32,1.09,1.62,1.66,3.51,1.66,5.46,0,5.41-4.4,9.81-9.81,9.81s-9.81-4.39-9.81-9.8ZM67.05,70.3h-.63c-1.08,0-1.97.6-2.38,1.6l-.05.11c-.42,1-.21,2.05.55,2.82l.45.45c.37.37.57.86.57,1.39s-.2,1.02-.57,1.39l-3.09,3.09c-.77.77-2.01.77-2.78,0l-.45-.45c-.77-.77-1.82-.97-2.82-.55l-.11.05c-1,.41-1.6,1.3-1.6,2.38v.63c0,1.08-.88,1.96-1.96,1.96h-4.37c-1.08,0-1.96-.88-1.96-1.96v-.63c0-1.08-.6-1.97-1.6-2.38l-.11-.04c-1-.42-2.06-.21-2.82.55l-.45.45c-.37.37-.86.57-1.39.57s-1.02-.2-1.39-.57l-3.09-3.09c-.37-.37-.57-.86-.57-1.39s.2-1.02.57-1.39l.45-.45c.77-.77.97-1.82.55-2.82l-.04-.11c-.41-1-1.3-1.6-2.38-1.6h-.63c-1.08,0-1.96-.88-1.96-1.96v-4.37c0-1.08.88-1.96,1.96-1.96h.63c1.08,0,1.97-.6,2.38-1.6l.05-.11c.42-1,.21-2.05-.55-2.82l-.45-.45c-.37-.37-.57-.86-.57-1.39s.2-1.02.57-1.39l3.09-3.09c.45-.45,1.19-.45,1.64,0s.45,1.19,0,1.64l-2.84,2.84.19.19c1.43,1.43,1.84,3.49,1.05,5.36l-.04.09c-.77,1.88-2.51,3.04-4.53,3.04h-.27v3.65h.27c2.03,0,3.76,1.17,4.53,3.04l.04.09c.78,1.87.38,3.92-1.05,5.36l-.19.19,2.58,2.58.19-.19c1.43-1.43,3.49-1.84,5.36-1.05l.09.04c1.88.77,3.04,2.51,3.04,4.53v.27h3.65v-.27c0-2.03,1.17-3.76,3.04-4.53l.09-.04c1.87-.78,3.93-.38,5.36,1.05l.19.19,2.58-2.58-.19-.19c-1.43-1.43-1.84-3.49-1.05-5.36l.04-.1c.77-1.87,2.51-3.04,4.53-3.04h.27v-3.65h-.27c-2.03,0-3.76-1.17-4.53-3.04l-.04-.1c-.78-1.87-.38-3.92,1.06-5.36l.19-.19-2.84-2.84c-.45-.45-.45-1.19,0-1.64s1.19-.45,1.64,0l3.09,3.09c.37.37.57.86.57,1.39s-.2,1.02-.57,1.39l-.45.45c-.77.77-.97,1.82-.55,2.82l.04.11c.41,1,1.3,1.6,2.38,1.6h.63c1.08,0,1.96.88,1.96,1.96v4.37c.03,1.09-.85,1.97-1.93,1.97ZM28.21,24.61c0-.64.52-1.16,1.16-1.16h12.64c.64,0,1.16.52,1.16,1.16s-.52,1.16-1.16,1.16h-12.64c-.64,0-1.16-.52-1.16-1.16ZM43.17,30.72c0,.64-.52,1.16-1.16,1.16h-12.64c-.64,0-1.16-.52-1.16-1.16s.52-1.16,1.16-1.16h12.64c.64,0,1.16.52,1.16,1.16ZM43.17,36.83c0,.64-.52,1.16-1.16,1.16h-12.64c-.64,0-1.16-.52-1.16-1.16s.52-1.16,1.16-1.16h12.64c.64,0,1.16.52,1.16,1.16ZM69.63,55.11c0-.64.52-1.16,1.16-1.16h14.21l3.41-3.87c.42-.48,1.16-.53,1.64-.1.48.42.53,1.16.1,1.64l-3.76,4.26c-.22.25-.54.39-.87.39h-14.73c-.64,0-1.16-.52-1.16-1.16ZM29.32,55.11c0,.64-.52,1.16-1.16,1.16h-13.69c-.33,0-.65-.14-.87-.39l-3.76-4.26c-.42-.48-.38-1.22.1-1.64.48-.42,1.22-.38,1.64.1l3.42,3.87h13.16c.64,0,1.16.52,1.16,1.16ZM90.71,61.33c0,.64-.52,1.16-1.16,1.16h-15.21c-.64,0-1.16-.52-1.16-1.16s.52-1.16,1.16-1.16h15.21c.64,0,1.16.52,1.16,1.16ZM26.83,61.33c0,.64-.52,1.16-1.16,1.16h-15.21c-.64,0-1.16-.52-1.16-1.16s.52-1.16,1.16-1.16h15.21c.64,0,1.16.52,1.16,1.16ZM26.83,67.44c0,.64-.52,1.16-1.16,1.16h-10.67l-3.41,3.87c-.23.26-.55.39-.87.39-.27,0-.55-.1-.77-.29-.48-.42-.53-1.16-.1-1.64l3.76-4.26c.22-.25.54-.39.87-.39h11.19c.64,0,1.16.52,1.16,1.16ZM90.16,70.94c.42.48.38,1.22-.1,1.64-.22.19-.49.29-.77.29-.32,0-.64-.13-.87-.39l-3.42-3.87h-10.66c-.64,0-1.16-.52-1.16-1.16s.52-1.16,1.16-1.16h11.19c.33,0,.65.14.87.39l3.76,4.26Z"/>
</svg>