<svg viewBox="0 -3 446.814 446" xmlns="http://www.w3.org/2000/svg"><path d="m179.054688 351.824219h35.074218v12h-35.074218zm0 0"/><path d="m159.164062 180.972656c10.378907 0 18.820313-8.441406 18.820313-18.820312 0-10.375-8.441406-18.816406-18.820313-18.816406-4.816406 0-9.203124 1.835937-12.539062 4.824218l-28.5-12.894531c.371094-1.472656.589844-3.003906.589844-4.589844 0-10.378906-8.441406-18.820312-18.820313-18.820312-10.375 0-18.816406 8.441406-18.816406 18.820312 0 2.796875.632813 5.449219 1.734375 7.839844l-31.394531 30.328125c-2.121094-.832031-4.429688-1.304688-6.84375-1.304688-10.378907 0-18.820313 8.441407-18.820313 18.816407s8.441406 18.816406 18.820313 18.816406c10.375 0 18.816406-8.441406 18.816406-18.816406 0-3.566407-1.015625-6.894531-2.746094-9.738281l30.382813-29.355469c2.644531 1.421875 5.660156 2.230469 8.867187 2.230469 4.386719 0 8.417969-1.519532 11.621094-4.042969l29.171875 13.199219c-.214844 1.136718-.339844 2.308593-.339844 3.507812 0 10.375 8.441406 18.816406 18.816406 18.816406zm0-25.636718c3.761719 0 6.820313 3.058593 6.820313 6.816406 0 3.757812-3.058594 6.820312-6.820313 6.820312-3.757812 0-6.816406-3.058594-6.816406-6.820312 0-3.761719 3.058594-6.816406 6.816406-6.816406zm-114.589843 37.835937c-3.761719 0-6.820313-3.058594-6.820313-6.816406 0-3.757813 3.058594-6.816407 6.820313-6.816407 3.757812 0 6.816406 3.058594 6.816406 6.816407 0 3.757812-3.058594 6.816406-6.816406 6.816406zm55.320312-55.679687c-3.757812 0-6.816406-3.058594-6.816406-6.816407 0-3.761719 3.058594-6.820312 6.816406-6.820312 3.757813 0 6.820313 3.058593 6.820313 6.820312 0 3.757813-3.058594 6.816407-6.820313 6.816407zm0 0"/><path d="m446.8125 97.703125v-88.992187h-229v289.054687h163.375v33.695313h-29.875v12h29.875v28.613281h-369.1875v-28.613281h320.3125v-12h-320.3125v-14.847657h13.753906v.222657h38v-.222657h19.117188v.222657h38v-.222657h19.113281v.222657h38v-.222657h30.796875v-12h-30.796875v-115.882812h-38v115.882812h-19.113281v-88.785156h-38v88.785156h-19.117188v-71.550781h-38v71.550781h-13.753906v-200.910156h191.40625v-12h-13.585938c.199219-2.351563.308594-4.710937.308594-7.0625 0-3.53125-.222656-7.101563-.671875-10.589844l-.46875-3.601562-21.070312-7.339844c-.878907-2.550781-1.929688-5.039063-3.140625-7.460937l9.589844-19.757813-2.257813-2.851563c-4.441406-5.597656-9.59375-10.648437-15.3125-14.980468l-2.917969-2.230469-20.183594 9.402344c-2.457031-1.191407-5.007812-2.222657-7.609374-3.089844l-7.5-20.632813-3.667969-.449218c-7.152344-.867188-14.5-.867188-21.632813 0l-3.679687.449218-7.488281 20.632813c-2.609376.867187-5.160157 1.898437-7.628907 3.089844l-20.171875-9.402344-2.921875 2.230469c-1.507812 1.140625-2.976562 2.339844-4.40625 3.589844-3.550781 3.070312-6.84375 6.429687-9.800781 10.050781-.390625.441406-.742188.878906-1.089844 1.339843l-2.28125 2.851563 9.601563 19.757813c-1.199219 2.421874-2.261719 4.910156-3.160157 7.460937l-21.070312 7.339844-.449219 3.601562c-.460937 3.488281-.679687 7.058594-.679687 10.589844 0 2.351563.105468 4.710937.308594 7.0625h-18.367188v292.371094h172.871094c-1.523438 13.484375-12.703125 23.988281-26.230469 23.988281h-45.382813c-8.871093 0-16.09375 7.21875-16.09375 16.089844 0 8.875 7.222657 16.089844 16.09375 16.089844h191.136719c8.871094 0 16.089844-7.214844 16.089844-16.089844 0-8.871094-7.21875-16.089844-16.089844-16.089844h-45.855469c-13.523437 0-24.703124-10.503906-26.226562-23.988281h172.875v-86.308594h53.625v-186.367187h-12v135.523437h-205v-188.71875h205v39.5zm-294.828125 103.027344h14v103.882812h-14zm-57.113281 27.097656h14v76.785156h-14zm-57.117188 17.234375h14v59.550781h-14zm-7.457031-165.992188 19.699219-6.839843.863281-2.882813c1.117187-3.769531 2.65625-7.378906 4.539063-10.757812l1.480468-2.648438-8.972656-18.460937c.820312-.929688 1.671875-1.851563 2.539062-2.742188 1.730469-1.789062 3.570313-3.5 5.5-5.128906l18.859376 8.789063 2.691406-1.4375c1.320312-.710938 2.6875-1.382813 4.089844-1.972657 2.230468-.980469 4.519531-1.796875 6.890624-2.480469l2.949219-.839843 7-19.277344c3.769531-.292969 7.5625-.292969 11.339844 0l7.011719 19.277344 2.949218.839843c3.828126 1.101563 7.519532 2.613282 10.96875 4.453126l2.699219 1.4375 18.863281-8.789063c2.878907 2.429687 5.558594 5.050781 8.027344 7.871094l-8.96875 18.46875 1.46875 2.640625c1.898438 3.378906 3.429688 6.988281 4.539063 10.757812l.871093 2.882813 19.691407 6.839843c.140625 1.859376.21875 3.710938.21875 5.570313 0 1.839844-.078125 3.699219-.21875 5.550781l-4.351563 1.511719h-33.859375c1.800781-8.230469.546875-17.011719-3.765625-24.429687l-10.375 6.027343c3.246094 5.589844 3.816406 12.378907 1.699219 18.402344h-41.609375c-.230469-.652344-.4375-1.3125-.601562-1.980469-1.894532-7.570312.398437-15.667968 5.984374-21.128906 6.050782-5.921875 15.097657-7.867188 23.050782-4.957031l4.125-11.269531c-12.273438-4.488282-26.238282-1.488282-35.566406 7.648437-8.394532 8.207031-11.953126 20.277344-9.4375 31.6875h-38.527344l-4.355469-1.511719c-.140625-1.851562-.210937-3.710937-.210937-5.550781.003906-1.859375.070312-3.710937.210937-5.570313zm154.621094 305.003907h23.347656c.730469 9.28125 4.644531 17.65625 10.636719 23.988281h-44.621094c5.988281-6.332031 9.90625-14.707031 10.636719-23.988281zm107.472656 35.988281c2.257813 0 4.09375 1.835938 4.09375 4.089844 0 2.257812-1.835937 4.089844-4.09375 4.089844h-191.132813c-2.257812 0-4.09375-1.832032-4.09375-4.089844 0-2.253906 1.835938-4.089844 4.09375-4.089844zm142.421875-161.140625v26.84375h-205v-26.84375zm-205-212.71875v-25.492187h205v25.492187zm0 0"/><path d="m368.679688 189.347656.242187-.011718c13.207031-.9375 23.949219-9.40625 26.734375-21.074219l11.550781-48.414063h-122.550781c-2.6875-10.765625-12.4375-18.761718-24.019531-18.761718h-3.429688v12h3.429688c5.515625 0 10.214843 3.527343 11.992187 8.441406l11.261719 70.289062v.40625c0 4.578125 1.511719 8.84375 4.097656 12.410156-5.527343 2.738282-9.34375 8.421876-9.34375 14.992188 0 9.230469 7.507813 16.734375 16.734375 16.734375 9.226563 0 16.734375-7.507813 16.734375-16.734375 0-1.644531-.25-3.230469-.691406-4.734375h45.28125c-.445313 1.503906-.695313 3.089844-.695313 4.734375 0 9.230469 7.507813 16.734375 16.734376 16.734375 9.226562 0 16.734374-7.507813 16.734374-16.734375 0-1.644531-.246093-3.230469-.691406-4.734375h4.273438v-12h-84.148438c-7.179687 0-13.019531-4.785156-13.019531-10.667969v-.648437zm4.0625 25.542969c2.613281 0 4.734374 2.125 4.734374 4.734375 0 2.613281-2.121093 4.734375-4.734374 4.734375-2.609376 0-4.734376-2.121094-4.734376-4.734375 0-2.609375 2.125-4.734375 4.734376-4.734375zm-72.628907 4.734375c0 2.613281-2.125 4.734375-4.734375 4.734375-2.613281 0-4.734375-2.121094-4.734375-4.734375 0-2.609375 2.121094-4.734375 4.734375-4.734375 2.609375 0 4.734375 2.125 4.734375 4.734375zm-6.023437-40-7.652344-47.777344h105.574219l-8.027344 33.628906c-1.527344 6.414063-8.015625 11.285157-15.796875 11.882813zm0 0"/><path d="m424.90625 66.953125h-60.5v29.277344h60.5zm-12 17.277344h-36.5v-5.277344h36.5zm0 0"/><path d="m402.742188 326.066406h12v16.164063h-12zm0 0"/><path d="m402.742188 393.734375h-75.332032v12h87.332032v-50.503906h-12zm0 0"/></svg>