<svg id="Layer_5" enable-background="new 0 0 62 62" height="512" viewBox="0 0 62 62" width="512" xmlns="http://www.w3.org/2000/svg"><g><path d="m26 52.708v-5.708h18v-28h-28v15h2v-13h24v24h-16.829l-.998-.352c-.062-.158-.127-.315-.196-.471l.836-1.749-5.244-5.242-1.748.836c-.157-.069-.314-.135-.471-.196l-.642-1.826h-7.416l-.645 1.826c-.157.062-.314.127-.471.196l-1.746-.835-5.244 5.242.836 1.749c-.069.155-.134.313-.196.471l-1.826.643v7.416l1.826.644c.062.158.127.315.196.471l-.836 1.749 5.244 5.242 1.748-.836c.157.069.314.135.471.196l.643 1.826h7.415l.645-1.826c.157-.062.314-.127.471-.196l1.748.836 5.244-5.242-.836-1.749c.069-.155.134-.313.196-.471zm-2-1.416-1.392.491-.157.458c-.132.385-.292.771-.477 1.146l-.214.436.638 1.335-3.242 3.242-1.334-.639-.435.214c-.381.187-.766.347-1.146.477l-.458.156-.491 1.392h-4.585l-.491-1.393-.458-.156c-.38-.13-.765-.29-1.146-.477l-.435-.214-1.334.639-3.242-3.242.638-1.335-.214-.436c-.185-.375-.345-.761-.477-1.146l-.157-.458-1.391-.49v-4.584l1.392-.491.157-.458c.132-.385.292-.771.477-1.146l.214-.436-.638-1.335 3.242-3.242 1.334.639.435-.214c.381-.187.766-.347 1.146-.477l.458-.156.491-1.392h4.585l.491 1.393.458.156c.38.13.765.29 1.146.477l.435.214 1.334-.639 3.242 3.242-.638 1.335.214.436c.185.375.345.761.477 1.146l.157.458 1.391.49z"/><path d="m5.72 48h14.56v2h-14.56z" transform="matrix(.275 -.962 .962 .275 -37.686 48.052)"/><path d="m16.293 46.707 2.293 2.293-2.293 2.293 1.414 1.414 3.707-3.707-3.707-3.707z"/><path d="m8.293 45.293-3.707 3.707 3.707 3.707 1.414-1.414-2.293-2.293 2.293-2.293z"/><path d="m54.293 51.707 3.293 3.293h-18.008c8.479-3.706 14.422-12.17 14.422-22 0-13.233-10.767-24-24-24-.04 0-.079.003-.119.003 2.481-4.298 7.073-7.003 12.119-7.003 7.72 0 14 6.28 14 14v.586l-2.293-2.293-1.414 1.414 4.707 4.707 4.707-4.707-1.414-1.414-2.293 2.293v-.586c0-8.822-7.178-16-16-16-6.194 0-11.79 3.565-14.439 9.123-11.215 1.137-20.17 10.03-21.41 21.215l-2.37-2.963-1.562 1.249 4.698 5.873 5.79-5.79-1.414-1.414-3.138 3.138c1.277-10.924 10.584-19.431 21.845-19.431 12.131 0 22 9.869 22 22s-9.869 22-22 22h-3v2h30.586l-3.293 3.293 1.414 1.414 5.707-5.707-5.707-5.707z"/><path d="m56 23v6h6v-6zm4 4h-2v-2h2z"/><path d="m56 37h6v-6h-6zm2-4h2v2h-2z"/><path d="m56 45h6v-6h-6zm2-4h2v2h-2z"/><path d="m20 23h2v2h-2z"/><path d="m24 23h16v2h-16z"/><path d="m26 27h14v2h-14z"/><path d="m20 27h4v2h-4z"/><path d="m20 31h20v2h-20z"/><path d="m40 43v-8h-14v8zm-12-6h10v4h-10z"/></g></svg>