<svg clip-rule="evenodd" fill-rule="evenodd" stroke-linejoin="round" stroke-miterlimit="2" viewBox="0 0 510 510" xmlns="http://www.w3.org/2000/svg"><path d="m58.137 288.927c1.175 2.963 1.822 6.193 1.822 9.573 0 14.349-11.651 26-26 26-14.35 0-26-11.651-26-26 0-14.35 11.65-26 26-26 5.123 0 9.902 1.485 13.93 4.047l10.422-10.422c1.501-1.501 3.536-2.344 5.657-2.344h30.786v-55.791h-19.401c-3.377 10.44-13.185 18-24.744 18-14.35 0-26-11.651-26-26 0-14.35 11.65-26 26-26 11.559 0 21.367 7.559 24.744 18h19.401v-55.792h-30.786c-2.121 0-4.156-.843-5.657-2.344l-9.223-9.223c-3.552 1.821-7.576 2.848-11.838 2.848-14.35 0-26-11.65-26-26 0-14.349 11.65-26 26-26s26 11.651 26 26c0 4.263-1.028 8.287-2.849 11.838l6.881 6.881h27.472v-1.394c0-15.065 12.231-27.296 27.296-27.296h1.394v-27.472l-6.91-6.91c-3.522 1.784-7.504 2.789-11.719 2.789-14.35 0-26-11.651-26-26 0-14.35 11.65-26 26-26s26 11.65 26 26c0 4.309-1.051 8.375-2.91 11.955l9.195 9.195c1.501 1.501 2.344 3.536 2.344 5.657v30.786h55.792v-19.341c-10.395-3.404-17.911-13.188-17.911-24.714 0-14.35 11.65-26 26-26s26 11.65 26 26c0 11.592-7.603 21.422-18.089 24.772v19.283h55.792v-30.786c0-2.121.842-4.156 2.343-5.657l9.195-9.195c-1.859-3.58-2.91-7.646-2.91-11.955 0-14.35 11.65-26 26-26s26 11.65 26 26c0 14.349-11.65 26-26 26-4.215 0-8.196-1.005-11.719-2.789l-6.909 6.91v27.472h1.393c15.065 0 27.297 12.231 27.297 27.296v1.394h27.471l6.852-6.853c-1.859-3.58-2.909-7.646-2.909-11.955 0-14.35 11.65-26 26-26 14.349 0 26 11.65 26 26s-11.651 26-26 26c-4.215 0-8.197-1.005-11.719-2.789l-9.253 9.253c-1.501 1.501-3.535 2.344-5.657 2.344h-30.785v55.792h19.34c3.404-10.395 13.188-17.911 24.714-17.911 14.35 0 26 11.65 26 26s-11.65 26-26 26c-11.592 0-21.422-7.603-24.772-18.089h-19.282v15.017c2.84-.248 5.715-.375 8.62-.375 53.983 0 97.751 43.768 97.751 97.751 0 19.875-5.932 38.364-16.123 53.795l14.433 14.433c6.014-1.321 12.572.345 17.229 5.001l62.972 62.972c7.255 7.256 7.255 19.105 0 26.36l-13.701 13.701c-7.258 7.258-19.136 7.249-26.36 0l-62.972-62.972c-4.66-4.659-6.327-11.214-5.002-17.229l-14.432-14.432c-15.431 10.19-33.921 16.122-53.795 16.122-41.612 0-77.154-26.005-91.259-62.65-1.43 13.003-12.463 23.132-25.843 23.132-14.35 0-26-11.65-26-26 0-11.559 7.559-21.367 18-24.744v-19.4h-55.792v30.785c0 2.122-.843 4.156-2.344 5.657l-9.223 9.224c1.821 3.551 2.848 7.575 2.848 11.837 0 14.35-11.65 26-26 26-14.349 0-26-11.65-26-26s11.651-26 26-26c4.263 0 8.287 1.028 11.838 2.849l6.881-6.881v-27.471h-1.394c-15.065 0-27.296-12.232-27.296-27.297v-1.394h-27.472zm165.168 19.545h-12.069v19.4c5.131 1.66 9.566 4.873 12.75 9.083-.92-5.386-1.399-10.923-1.399-16.572 0-4.032.244-8.007.718-11.911zm74.413-83.209v-106.459c0-7.339-5.958-13.296-13.297-13.296h-162.371c-7.339 0-13.296 5.957-13.296 13.296v162.371c0 7.339 5.957 13.297 13.296 13.297h104.008c2.767-10.089 7.11-19.526 12.747-28.029-6.826-2.305-14.886 2.553-14.886 10.724 0 6.882-5.564 12.424-12.425 12.424h-16.517c-6.86 0-12.425-5.542-12.425-12.424 0-10.049-12.156-15.082-19.26-7.978-4.85 4.851-12.718 4.851-17.566.002l-11.69-11.68c-4.847-4.847-4.847-12.731 0-17.578 7.098-7.098 2.065-19.26-7.978-19.26-6.86 0-12.424-5.564-12.424-12.425v-16.517c0-6.86 5.564-12.425 12.424-12.425 10.043 0 15.076-12.162 7.978-19.26-4.85-4.85-4.85-12.718 0-17.568l11.688-11.688c4.85-4.85 12.718-4.85 17.568 0 7.098 7.098 19.26 2.065 19.26-7.978 0-6.86 5.565-12.424 12.425-12.424h16.517c6.861 0 12.425 5.564 12.425 12.424 0 10.043 12.162 15.076 19.26 7.978 4.847-4.847 12.731-4.847 17.578 0l11.678 11.688c4.851 4.85 4.851 12.718 0 17.568-7.098 7.098-2.059 19.26 7.978 19.26 6.882 0 12.424 5.565 12.424 12.425v16.517c0 6.861-5.542 12.425-12.424 12.425-8.562 0-13.488 8.851-10.343 15.859 8.467-5.087 17.767-8.928 27.648-11.269zm95.64 160.106c-2.521 2.831-5.204 5.514-8.034 8.035l11.076 11.076 8.034-8.035zm-342.749-197.379c-6.623 0-12 5.377-12 12s5.377 12 12 12 12-5.377 12-12-5.377-12-12-12zm305.163.089c-6.623 0-12 5.377-12 12s5.377 12 12 12 12-5.377 12-12-5.377-12-12-12zm47.694 229.134c-1.806 1.805-1.806 4.755 0 6.561l62.977 62.976.004.005c1.797 1.803 4.749 1.794 6.552-.009l13.701-13.701c1.806-1.806 1.806-4.755 0-6.561l-62.972-62.973c-1.803-1.803-4.755-1.812-6.556-.004zm-34.334-327.823c-6.623 0-12 5.377-12 12s5.377 12 12 12 12-5.377 12-12-5.377-12-12-12zm-48.794 147.242c-46.252 0-83.751 37.499-83.751 83.751s37.499 83.751 83.751 83.751 83.751-37.499 83.751-83.751-37.499-83.751-83.751-83.751zm0 159.479c-41.704 0-75.728-34.006-75.728-75.728 0-41.704 34.024-75.728 75.728-75.728 41.721 0 75.728 34.024 75.728 75.728 0 41.722-34.007 75.728-75.728 75.728zm0-14c34.008 0 61.728-27.719 61.728-61.728 0-33.994-27.72-61.728-61.728-61.728-33.994 0-61.728 27.734-61.728 61.728 0 34.009 27.734 61.728 61.728 61.728zm0-12.801c-5.927 0-10.739-4.812-10.739-10.739s4.812-10.738 10.739-10.738 10.738 4.811 10.738 10.738-4.811 10.739-10.738 10.739zm-8.599-89.277c0-4.745 3.853-8.598 8.599-8.598 4.758 0 8.598 3.853 8.598 8.598v47.766c0 4.758-3.84 8.611-8.598 8.611-4.746 0-8.599-3.853-8.599-8.611zm-10.083-258.118c-6.623 0-12 5.377-12 12s5.377 12 12 12 12-5.377 12-12-5.377-12-12-12zm-196.841 0c-6.623 0-12 5.377-12 12s5.377 12 12 12 12-5.377 12-12-5.377-12-12-12zm142.785 233.166c3.363-3.744 7.011-7.226 10.909-10.413-9.218-15.583 1.127-36.842 20.328-37.95v-13.457c-20.914-1.206-31.322-26.322-17.384-41.968l-9.517-9.524c-15.645 13.944-40.766 3.548-41.972-17.381h-13.457c-1.206 20.927-26.322 31.323-41.967 17.385l-9.521 9.521c13.938 15.645 3.542 40.761-17.385 41.967v13.457c20.929 1.206 31.325 26.327 17.381 41.972l9.524 9.517c15.658-13.953 40.764-3.556 41.968 17.384h13.457c1.1-19.072 22.083-29.407 37.636-20.51zm-44.36-8.398c-25.72 0-46.688-20.98-46.688-46.689 0-25.72 20.968-46.688 46.688-46.688 25.709 0 46.689 20.968 46.689 46.688 0 25.709-20.98 46.689-46.689 46.689zm0-14c18 0 32.689-14.689 32.689-32.689 0-18.007-14.689-32.688-32.689-32.688-18.007 0-32.688 14.681-32.688 32.688 0 18 14.681 32.689 32.688 32.689zm-165.99-143.204c-6.623 0-12 5.377-12 12s5.377 12 12 12 12-5.377 12-12-5.377-12-12-12zm166.075-54.026c-6.623 0-12 5.377-12 12s5.377 12 12 12 12-5.377 12-12-5.377-12-12-12zm-.089 305.163c-6.623 0-12 5.377-12 12s5.377 12 12 12 12-5.377 12-12-5.377-12-12-12zm-98.511 13.359c-6.623 0-12 5.377-12 12s5.377 12 12 12 12-5.377 12-12-5.377-12-12-12zm-70.766-67.475c-6.623 0-12 5.377-12 12s5.377 12 12 12 12-5.377 12-12-5.377-12-12-12z"/></svg>