<svg id="Layer_1" height="512" viewBox="0 0 512 512" width="512" xmlns="http://www.w3.org/2000/svg" data-name="Layer 1"><path d="m466.703 354.015c4.912 4.684 11.307 7.241 18.069 7.241.213 0 .426-.002.64-.007 6.999-.166 13.514-3.048 18.346-8.114 4.831-5.066 7.4-11.711 7.234-18.709-.166-6.999-3.048-13.514-8.114-18.346-5.067-4.832-11.729-7.389-18.709-7.235-1.709.041-3.389.246-5.023.603l-27.997-48.492c-1.429-2.476-4.069-4-6.928-4h-27.375v-25.282h29.346c3.265 10.81 13.315 18.642 25.08 18.642.209 0 .42-.002.63-.007 14.447-.344 25.922-12.377 25.58-26.825-.167-6.998-3.049-13.514-8.115-18.345-5.067-4.831-11.705-7.395-18.709-7.234-11.281.268-20.75 7.662-24.196 17.77h-29.618v-65.775h27.375c2.858 0 5.499-1.524 6.928-4l28-48.499c1.622.357 3.298.568 5.019.609.213.005.425.007.638.007 6.763 0 13.159-2.558 18.071-7.242 5.066-4.832 7.948-11.347 8.114-18.345.166-6.999-2.403-13.644-7.234-18.71-4.832-5.066-11.347-7.948-18.345-8.114-7.015-.172-13.645 2.403-18.71 7.234-5.066 4.832-7.948 11.347-8.114 18.345-.166 6.957 2.415 13.349 6.742 18.151l-25.729 44.564h-22.756v-14.115c0-27.727-22.558-50.284-50.284-50.284h-221.123c-27.727 0-50.284 22.558-50.284 50.284v14.115h-22.755l-25.73-44.564c4.327-4.802 6.907-11.194 6.743-18.151-.339-14.237-12.027-25.586-26.192-25.586-.209 0-.421.002-.632.007-6.999.166-13.514 3.048-18.346 8.114-4.831 5.066-7.4 11.711-7.234 18.709.166 6.999 3.048 13.514 8.114 18.346 4.912 4.685 11.308 7.242 18.071 7.242.213 0 .425-.002.638-.007 1.721-.041 3.397-.252 5.019-.609l28.001 48.499c1.429 2.476 4.069 4 6.928 4h27.374v65.775h-29.618c-3.446-10.107-12.915-17.502-24.195-17.77-7.013-.16-13.645 2.403-18.71 7.234-5.066 4.831-7.948 11.347-8.115 18.346-.342 14.447 11.133 26.48 25.58 26.824.211.005.42.007.63.007 11.764 0 21.814-7.832 25.08-18.642h29.347v25.282h-27.374c-2.858 0-5.499 1.524-6.928 4l-28.001 48.498c-1.621-.357-3.298-.568-5.019-.609-6.989-.163-13.643 2.403-18.709 7.235s-7.948 11.347-8.114 18.345c-.166 6.999 2.403 13.644 7.234 18.71 4.832 5.066 11.347 7.948 18.345 8.114.214.005.427.007.64.007 6.763 0 13.159-2.558 18.07-7.241 5.066-4.831 7.948-11.347 8.115-18.346.165-6.956-2.416-13.348-6.743-18.15l25.73-44.563h22.755v55.473c0 .789.023 1.572.06 2.353h-21.973c-3.063 0-5.858 1.75-7.196 4.506l-28.163 57.993c-1.01-.144-2.038-.236-3.083-.261-6.982-.183-13.643 2.403-18.709 7.235-5.066 4.831-7.948 11.347-8.114 18.345-.166 6.999 2.403 13.644 7.234 18.71 4.832 5.066 11.347 7.948 18.346 8.114.211.005.42.007.63.007 14.165 0 25.855-11.351 26.194-25.587.181-7.663-2.962-14.646-8.109-19.566l25.978-53.495h20.387c7.349 18.674 25.55 31.933 46.801 31.933h55.528v32.656c0 30.345 24.688 55.032 55.033 55.032s55.033-24.688 55.033-55.032v-32.656h55.528c21.251 0 39.452-13.258 46.801-31.933h20.387l25.979 53.496c-5.147 4.92-8.291 11.904-8.109 19.567.339 14.236 12.028 25.586 26.194 25.586.209 0 .42-.002.63-.007 6.999-.166 13.514-3.048 18.346-8.114 4.831-5.066 7.4-11.711 7.234-18.709-.166-6.999-3.048-13.515-8.114-18.346-5.066-4.832-11.737-7.396-18.709-7.235-1.045.025-2.072.118-3.083.261l-28.163-57.993c-1.338-2.756-4.133-4.506-7.196-4.506h-21.973c.036-.78.06-1.563.06-2.353v-55.473h22.756l25.723 44.553c-4.505 4.993-6.896 11.41-6.736 18.16.166 6.999 3.048 13.515 8.114 18.346zm4.336-140.115c.083-.002.166-.003.249-.003 2.634 0 5.125.996 7.038 2.82 1.974 1.882 3.097 4.42 3.161 7.146.134 5.628-4.337 10.315-9.965 10.449-5.626.15-10.314-4.337-10.448-9.964-.134-5.628 4.336-10.315 9.965-10.448zm6.706-149.482c1.974-1.882 4.565-2.886 7.288-2.817 2.726.064 5.264 1.187 7.146 3.16s2.883 4.562 2.817 7.288c-.134 5.627-4.813 10.09-10.447 9.964-5.628-.134-10.099-4.821-9.964-10.449.064-2.726 1.187-5.264 3.16-7.146zm-450.294 17.595c-.082.002-.163.003-.244.003-5.519 0-10.072-4.421-10.203-9.968-.065-2.726.936-5.313 2.817-7.287s4.42-3.096 7.146-3.16c.083-.002.166-.003.249-.003 2.634 0 5.125.996 7.038 2.82 1.974 1.882 3.097 4.42 3.161 7.146.134 5.628-4.337 10.315-9.965 10.449zm13.027 152.299c-5.628-.134-10.099-4.821-9.965-10.448.064-2.727 1.188-5.265 3.161-7.146s4.566-2.889 7.288-2.817c5.628.133 10.098 4.82 9.964 10.447-.134 5.628-4.85 10.064-10.448 9.965zm-6.223 108.124c-1.974 1.882-4.568 2.871-7.288 2.817-2.726-.064-5.264-1.187-7.146-3.16s-2.883-4.562-2.817-7.288c.131-5.546 4.685-9.967 10.203-9.967.081 0 .163 0 .244.003 5.628.134 10.099 4.821 9.965 10.448-.064 2.727-1.188 5.265-3.161 7.146zm-.074 86.994c-.081 0-.163 0-.245-.003-2.726-.064-5.264-1.187-7.146-3.16s-2.883-4.562-2.817-7.288c.064-2.727 1.187-5.265 3.16-7.146 1.913-1.824 4.404-2.82 7.039-2.82.083 0 .166 0 .249.003 5.628.133 10.098 4.82 9.964 10.448-.132 5.546-4.686 9.968-10.204 9.967zm453.846-10.451c.065 2.726-.936 5.313-2.817 7.287s-4.42 3.096-7.146 3.16c-5.624.146-10.314-4.336-10.449-9.963-.134-5.629 4.336-10.316 9.964-10.449.083-.002.166-.003.249-.003 2.634 0 5.126.996 7.039 2.82 1.974 1.882 3.096 4.42 3.16 7.147zm-192.994-7.609c0 3.935-.591 7.734-1.679 11.318l-74.76-.184c-1.053-3.531-1.627-7.266-1.627-11.134v-1.245l78.066.172zm-39.033 39.032c-10.975 0-20.899-4.559-27.998-11.875l55.865.137c-7.089 7.236-16.96 11.738-27.867 11.738zm39.033-56.105-78.066-.172v-15.411h78.066zm71.529-31.583h-221.123c-15.944 0-29.381-10.941-33.198-25.71-.002-.011-.006-.023-.009-.034-.703-2.731-1.077-5.593-1.077-8.541v-208.646c0-18.904 15.38-34.284 34.284-34.284h221.123c18.904 0 34.284 15.38 34.284 34.284v208.646c0 2.948-.374 5.81-1.077 8.541-.003.011-.006.023-.009.034-3.817 14.769-17.254 25.71-33.198 25.71zm117.987-37.873c.082-.002.163-.003.244-.003 5.519 0 10.072 4.421 10.203 9.968.065 2.726-.936 5.313-2.817 7.287s-4.42 3.096-7.146 3.16c-2.725.054-5.313-.936-7.287-2.817s-3.096-4.42-3.16-7.146c-.135-5.627 4.336-10.314 9.964-10.448zm-105.017-129.35h-14.321c-2.601-9.971-6.538-19.472-11.76-28.369l10.133-10.132c3.124-3.125 3.124-8.189 0-11.313l-29.152-29.154c-3.124-3.122-8.189-3.123-11.313 0l-10.134 10.133c-8.903-5.224-18.403-9.162-28.37-11.761v-14.32c0-4.418-3.582-8-8-8h-41.229c-4.418 0-8 3.582-8 8v14.32c-9.971 2.6-19.471 6.538-28.371 11.76l-10.131-10.132c-3.124-3.122-8.189-3.123-11.313 0l-29.154 29.152c-1.501 1.501-2.344 3.535-2.344 5.657s.843 4.156 2.343 5.657l10.133 10.132c-5.224 8.903-9.162 18.404-11.761 28.37h-14.318c-4.418 0-8 3.582-8 8v41.229c0 4.418 3.582 8 8 8h14.318c2.6 9.972 6.538 19.472 11.761 28.372l-10.131 10.13c-1.501 1.501-2.344 3.535-2.344 5.657s.843 4.156 2.343 5.657l29.153 29.154c1.501 1.5 3.535 2.343 5.657 2.343s4.157-.843 5.657-2.344l10.131-10.132c8.902 5.224 18.402 9.162 28.371 11.761v14.318c0 4.418 3.582 8 8 8h41.229c4.418 0 8-3.582 8-8v-14.318c9.97-2.6 19.472-6.538 28.371-11.761l10.131 10.132c3.125 3.122 8.189 3.124 11.314 0l29.153-29.153c3.124-3.124 3.124-8.189 0-11.313l-10.132-10.133c5.223-8.902 9.161-18.402 11.76-28.37h14.32c4.418 0 8-3.582 8-8v-41.229c0-4.418-3.582-8-8-8zm-8 41.23h-12.687c-3.815 0-7.1 2.694-7.846 6.436-2.477 12.422-7.309 24.079-14.361 34.648-2.117 3.173-1.7 7.399.997 10.097l8.978 8.979-17.84 17.84-8.977-8.978c-2.697-2.696-6.924-3.114-10.099-.997-10.565 7.052-22.223 11.884-34.648 14.361-3.741.746-6.436 4.03-6.436 7.846v12.686h-25.229v-12.686c0-3.815-2.694-7.1-6.437-7.846-12.422-2.476-24.079-7.308-34.647-14.361-3.177-2.119-7.402-1.7-10.099.998l-8.977 8.978-17.84-17.841 8.977-8.976c2.698-2.698 3.115-6.925.998-10.099-7.052-10.563-11.884-22.222-14.362-34.649-.746-3.742-4.03-6.436-7.846-6.436h-12.685v-25.229h12.686c3.815 0 7.1-2.694 7.846-6.437 2.476-12.419 7.308-24.076 14.361-34.647 2.117-3.173 1.7-7.399-.997-10.098l-8.979-8.978 17.841-17.839 8.977 8.978c2.697 2.696 6.924 3.114 10.099.997 10.564-7.051 22.222-11.883 34.649-14.361 3.741-.747 6.435-4.03 6.435-7.846v-12.687h25.229v12.687c0 3.815 2.694 7.1 6.436 7.846 12.42 2.477 24.077 7.309 34.648 14.362 3.174 2.119 7.399 1.7 10.097-.997l8.979-8.979 17.839 17.84-8.979 8.978c-2.697 2.698-3.114 6.926-.996 10.099 7.05 10.562 11.881 22.218 14.36 34.647.747 3.741 4.031 6.435 7.846 6.435h12.688v25.229zm-115.532-97.544c-46.83 0-84.929 38.1-84.929 84.93s38.099 84.929 84.929 84.929 84.93-38.099 84.93-84.929-38.1-84.93-84.93-84.93zm0 153.858c-38.008 0-68.929-30.921-68.929-68.929s30.921-68.93 68.929-68.93 68.93 30.922 68.93 68.93-30.922 68.929-68.93 68.929zm19.625-119.077c-1.499-1.489-3.526-2.325-5.64-2.325h-49.228c-4.418 0-8 3.582-8 8v88.946c0 4.418 3.582 8 8 8h70.485c4.418 0 8-3.582 8-8v-67.82c0-2.13-.85-4.173-2.36-5.675l-21.258-21.126zm7.618 86.621h-54.485v-72.946h37.929l16.557 16.454v56.492zm-9.916-15.104c0 4.418-3.582 8-8 8h-18.654c-4.418 0-8-3.582-8-8s3.582-8 8-8h18.654c4.418 0 8 3.582 8 8zm-8-50.738c4.418 0 8 3.582 8 8s-3.582 8-8 8h-18.654c-4.418 0-8-3.582-8-8s3.582-8 8-8zm8 29.369c0 4.418-3.582 8-8 8h-18.654c-4.418 0-8-3.582-8-8s3.582-8 8-8h18.654c4.418 0 8 3.582 8 8z"/></svg>