<svg id="Layer_1" enable-background="new 0 0 512 512" viewBox="0 0 512 512" xmlns="http://www.w3.org/2000/svg"><g><path d="m64.2 396.3h47.8c4.4 0 8-3.6 8-8s-3.6-8-8-8h-47.8c-4.4 0-8 3.6-8 8s3.6 8 8 8z"/><path d="m457.4 73.1h-83.8c-4.4 0-8 3.6-8 8s3.6 8 8 8h83.8c14.1 0 25.6 11.5 25.6 25.6v241.1h-454v-241.1c0-14.1 11.5-25.6 25.6-25.6h83.8c4.4 0 8-3.6 8-8s-3.6-8-8-8h-83.8c-22.9 0-41.6 18.6-41.6 41.6v264.4c0 23 18.7 41.6 41.6 41.6h145.8l-7.5 37.4h-27.1c-13.5 0-27.3 10.5-31.4 23.8l-2.1 6.7c-.8 2.4-.3 5.1 1.2 7.1s3.9 3.3 6.4 3.3h232.1c2.5 0 4.9-1.2 6.4-3.3s2-4.7 1.2-7.1l-2.1-6.7c-4.1-13.3-17.9-23.8-31.4-23.8h-27.1l-7.5-37.4h145.8c22.9 0 41.6-18.7 41.6-41.6v-264.4c.1-23-18.6-41.6-41.5-41.6zm-111.2 401c5.2 0 11.2 3.9 14.4 8.9h-209.2c3.2-5 9.1-8.9 14.4-8.9zm-51-53.4 7.5 37.4h-93.5l7.5-37.4zm187.8-41.6c0 14.1-11.5 25.6-25.6 25.6h-402.8c-14.1 0-25.6-11.5-25.6-25.6v-7.2h454z"/><path d="m135 396.3h6.3c4.4 0 8-3.6 8-8s-3.6-8-8-8h-6.3c-4.4 0-8 3.6-8 8s3.6 8 8 8z"/><path d="m201.2 193.5c-4.4 0-8 3.6-8 8s3.6 8 8 8h7.8v5.3h-7.8c-4.4 0-8 3.6-8 8s3.6 8 8 8h7.8v9.6c0 4.4 3.6 8 8 8h9.7v7.8c0 4.4 3.6 8 8 8s8-3.6 8-8v-7.8h5.3v7.8c0 4.4 3.6 8 8 8s8-3.6 8-8v-7.8h5.3v7.8c0 4.4 3.6 8 8 8s8-3.6 8-8v-7.8h9.6c4.4 0 8-3.6 8-8v-9.6h7.8c4.4 0 8-3.6 8-8s-3.6-8-8-8h-7.7v-5.3h7.8c4.4 0 8-3.6 8-8s-3.6-8-8-8h-7.8v-5.3h7.8c4.4 0 8-3.6 8-8s-3.6-8-8-8h-7.8v-9.7c0-4.4-3.6-8-8-8h-9.6v-7.8c0-4.4-3.6-8-8-8s-8 3.6-8 8v7.8h-5.4v-7.8c0-4.4-3.6-8-8-8s-8 3.6-8 8v7.8h-5.3v-7.8c0-4.4-3.6-8-8-8s-8 3.6-8 8v7.8h-9.7c-4.4 0-8 3.6-8 8v9.7h-7.8c-4.4 0-8 3.6-8 8s3.6 8 8 8h7.8v5.3zm23.8-23h62v62h-62z"/><path d="m165.8 116.5c4.4 0 8-3.6 8-8s-3.6-8-8-8h-111.2c-7.7 0-14.2 6.5-14.2 14.2v215.5c0 7.8 6.4 14.2 14.2 14.2h402.8c7.8 0 14.2-6.4 14.2-14.2v-215.5c0-7.8-6.4-14.2-14.2-14.2h-111.2c-4.4 0-8 3.6-8 8s3.6 8 8 8h109.4v211.9h-399.2v-211.9z"/><path d="m270.9 178.6h-29.8c-4.4 0-8 3.6-8 8v29.8c0 4.4 3.6 8 8 8h29.8c4.4 0 8-3.6 8-8v-29.8c0-4.4-3.6-8-8-8zm-8 29.8h-13.8v-13.8h13.8z"/><path d="m162.1 56.9v10.7c0 2.1.8 4.2 2.3 5.7l25.6 25.6v24.6c-33.7 14.3-63.7 39.5-86.5 73.7-1.8 2.7-1.8 6.2 0 8.9 36.3 54.5 90.7 86.1 149.6 87.1h2.8s1.9 0 2.8 0c58.9-1 113.3-32.6 149.7-87.1 1.8-2.7 1.8-6.2 0-8.9-22.8-34.2-52.8-59.4-86.5-73.7v-24.7l25.6-25.6c1.5-1.5 2.3-3.5 2.3-5.7v-10.7c8.6-3.2 14.7-11.5 14.7-21.2 0-12.5-10.2-22.7-22.7-22.7s-22.7 10.2-22.7 22.7c0 9.7 6.1 18 14.7 21.2v7.4l-25.6 25.6c-1.5 1.5-2.3 3.5-2.3 5.7v22.1c-13.6-4.2-27.6-6.7-42-7.4v-53.4c8.6-3.2 14.7-11.5 14.7-21.2 0-12.5-10.2-22.7-22.7-22.7s-22.7 10.2-22.7 22.7c0 9.7 6.1 18 14.7 21.2v53.3c-14.3.7-28.4 3.2-41.9 7.4v-22.1c0-2.1-.8-4.2-2.3-5.7l-25.6-25.6v-7.4c8.6-3.2 14.7-11.5 14.7-21.2 0-12.5-10.2-22.7-22.7-22.7s-22.7 10.2-22.7 22.7c.1 9.8 6.2 18.1 14.7 21.4zm179.8-27.9c3.7 0 6.7 3 6.7 6.7s-3 6.7-6.7 6.7-6.7-3-6.7-6.7 3-6.7 6.7-6.7zm-222 172.5c18-25.6 40.5-45.4 65.5-58.3-13.1 15.8-21 36.2-21 58.3s7.9 42.4 21 58.3c-25-12.9-47.4-32.6-65.5-58.3zm272.2 0c-18 25.6-40.5 45.4-65.5 58.3 13.1-15.8 21-36.2 21-58.3s-7.9-42.4-21-58.3c25 12.9 47.4 32.7 65.5 58.3zm-136.1-172.5c3.7 0 6.7 3 6.7 6.7s-3 6.7-6.7 6.7-6.7-3-6.7-6.7 3-6.7 6.7-6.7zm0 96.9c41.7 0 75.6 33.9 75.6 75.6s-33.9 75.6-75.6 75.6-75.6-33.9-75.6-75.6 33.9-75.6 75.6-75.6zm-85.9-96.9c3.7 0 6.7 3 6.7 6.7s-3 6.7-6.7 6.7-6.7-3-6.7-6.7 3-6.7 6.7-6.7z"/></g></svg>