<svg id="_x33_0" enable-background="new 0 0 64 64" height="512" viewBox="0 0 64 64" width="512" xmlns="http://www.w3.org/2000/svg"><g><path d="m25 53h-6c-1.103 0-2 .897-2 2v2c0 1.103.897 2 2 2h6c1.103 0 2-.897 2-2v-2c0-1.103-.897-2-2-2zm-6 4v-2h6l.002 2z"/><path d="m16 5h12v2h-12z"/><path d="m22 23c-6.617 0-12 5.383-12 12s5.383 12 12 12 12-5.383 12-12-5.383-12-12-12zm0 22c-5.176 0-9.446-3.954-9.949-9h1.949v-2h-1.949c.2-2.008.998-3.842 2.211-5.324l1.374 1.374 1.414-1.414-1.374-1.374c1.482-1.213 3.316-2.011 5.324-2.211v1.949h2v-1.949c2.008.2 3.842.998 5.324 2.211l-1.374 1.374 1.414 1.414 1.374-1.374c1.213 1.482 2.011 3.316 2.211 5.324h-1.949v2h1.949c-.503 5.046-4.773 9-9.949 9z"/><path d="m16 13h-6v6h6zm-2 4h-2v-2h2z"/><path d="m18 15h13v2h-13z"/><path d="m18 19h10v2h-10z"/><path d="m24.052 28.684-2.107 6.322c-1.629.03-2.945 1.359-2.945 2.994 0 1.654 1.346 3 3 3s3-1.346 3-3c0-.958-.46-1.804-1.162-2.353l2.11-6.33zm-2.052 10.316c-.552 0-1-.448-1-1s.448-1 1-1 1 .448 1 1-.448 1-1 1z"/><path d="m59 14h-17v-8c0-2.757-2.243-5-5-5h-30c-2.757 0-5 2.243-5 5v52c0 2.757 2.243 5 5 5h30c2.757 0 5-2.243 5-5v-24h17c1.654 0 3-1.346 3-3v-14c0-1.654-1.346-3-3-3zm-19 44c0 1.654-1.346 3-3 3h-30c-1.654 0-3-1.346-3-3v-52c0-1.654 1.346-3 3-3h30c1.654 0 3 1.346 3 3v8h-1c-.352 0-.686.072-1 .184v-3.184c0-1.103-.897-2-2-2h-28c-1.103 0-2 .897-2 2v38c0 1.103.897 2 2 2h28c1.103 0 2-.897 2-2v-15.184c.314.112.648.184 1 .184h1zm-4-30v3 18h-28v-38h28v6 2zm24 3c0 .552-.448 1-1 1h-20c-.552 0-1-.448-1-1v-3-9-2c0-.552.448-1 1-1h20c.552 0 1 .448 1 1z"/><path d="m56 22h-2v6h-2v-10h-2v10h-2v-8h-2v8h-2v-4h-2v4h-2v2h18v-2h-2z"/></g></svg>