<svg id="Layer_5" enable-background="new 0 0 62 62" height="512" viewBox="0 0 62 62" width="512" xmlns="http://www.w3.org/2000/svg"><g><path d="m22 52h-6c-1.103 0-2 .897-2 2v2c0 1.103.897 2 2 2h6c1.103 0 2-.897 2-2v-2c0-1.103-.897-2-2-2zm-6 4v-2h6l.002 2z"/><circle cx="19" cy="5" r="1"/><path d="m55 42c-2.008 0-3.816.855-5.093 2.214l-3.907-2.735v-5.479h5c3.859 0 7-3.141 7-7s-3.141-7-7-7c-.389 0-.778.033-1.164.1-.915-5.752-5.898-10.1-11.836-10.1v-7c0-2.757-2.243-5-5-5h-28c-2.757 0-5 2.243-5 5v52c0 2.757 2.243 5 5 5h28c2.757 0 5-2.243 5-5v-.026c.838.635 1.87 1.026 3 1.026 2.757 0 5-2.243 5-5 0-2.414-1.721-4.434-4-4.899v-12.101h2v6.521l4.757 3.33c-.48.947-.757 2.015-.757 3.149 0 3.859 3.141 7 7 7s7-3.141 7-7-3.141-7-7-7zm-7.03-18.582.077 1.336 1.259-.452c.556-.2 1.127-.302 1.694-.302 2.757 0 5 2.243 5 5s-2.243 5-5 5h-24c-2.757 0-5-2.243-5-5 0-2.756 2.241-4.999 4.993-4.999h.002l.965.054.087-.962c.466-5.184 4.745-9.093 9.953-9.093 5.286 0 9.665 4.137 9.97 9.418zm-15.97 23.582c0 1.654-1.346 3-3 3s-3-1.346-3-3 1.346-3 3-3 3 1.346 3 3zm-1.449-4.729c-.492-.162-1.006-.271-1.551-.271-2.757 0-5 2.243-5 5 0 .342.035.677.101 1h-18.101v-38h26v3.592c-2.709 1.555-4.746 4.141-5.579 7.273l-1.67-1.67-.693.521c-.378.283-.845.34-1.278.161-.436-.181-.723-.552-.789-1.018l-.124-.859h-5.734l-.123.858c-.066.466-.354.837-.789 1.018-.434.179-.9.122-1.278-.161l-.693-.521-4.055 4.055.521.693c.282.377.341.843.161 1.278-.181.436-.552.723-1.018.789l-.859.124v5.734l.858.123c.466.066.837.354 1.018.789.18.436.121.901-.161 1.278l-.521.693 4.055 4.055.693-.521c.378-.283.845-.34 1.278-.161.436.181.723.552.789 1.018l.124.859h5.734l.123-.858c.066-.466.354-.837.789-1.018.434-.179.9-.122 1.278.161l.693.521 2.807-2.806h4.443v3.734zm-14.551-37.271v-3h6v3c0 1.654-1.346 3-3 3s-3-1.346-3-3zm4.497 21.416c-.442-.258-.949-.416-1.497-.416-1.654 0-3 1.346-3 3s1.346 3 3 3c.549 0 1.057-.159 1.5-.417.25.627.588 1.208.999 1.731-.757.442-1.615.686-2.499.686-2.757 0-5-2.243-5-5s2.243-5 5-5c.884 0 1.742.244 2.498.686-.411.523-.751 1.103-1.001 1.73zm-.497 2.584c0 .552-.448 1-1 1s-1-.448-1-1 .448-1 1-1 1 .448 1 1zm2.996-5.731c-1.17-.82-2.559-1.269-3.996-1.269-3.859 0-7 3.141-7 7s3.141 7 7 7c1.435 0 2.823-.449 3.994-1.268.611.428 1.292.761 2.024.978l-.539.539c-.785-.31-1.66-.307-2.466.027-.807.335-1.427.951-1.762 1.724h-2.504c-.335-.772-.955-1.389-1.762-1.724-.807-.334-1.681-.335-2.466-.027l-1.77-1.77c.31-.783.307-1.658-.027-2.466-.335-.807-.951-1.427-1.724-1.762v-2.504c.772-.335 1.389-.955 1.724-1.762.334-.808.337-1.683.027-2.466l1.77-1.77c.785.311 1.659.307 2.466-.027.807-.335 1.427-.951 1.762-1.724h2.504c.335.772.955 1.389 1.762 1.724.806.334 1.681.338 2.466.027l.539.539c-.731.219-1.411.553-2.022.981zm13.004-18.269v7.17c-.689.114-1.356.287-2 .512v-2.682c0-1.103-.897-2-2-2h-9.026c.635-.838 1.026-1.87 1.026-3v-3h9c1.654 0 3 1.346 3 3zm0 52c0 1.654-1.346 3-3 3h-28c-1.654 0-3-1.346-3-3v-52c0-1.654 1.346-3 3-3h9v3c0 1.13.391 2.162 1.026 3h-9.026c-1.103 0-2 .897-2 2v38c0 1.103.897 2 2 2h19.026c.914 1.207 2.348 2 3.974 2 2.757 0 5-2.243 5-5 0-1.493-.671-2.82-1.713-3.737l1.713-2.997v-4.266h2zm8-4c0 1.654-1.346 3-3 3s-3-1.346-3-3 1.346-3 3-3 3 1.346 3 3zm-4-4.899c-.743.152-1.416.482-2 .924v-13.025h2zm15 5.899c-2.757 0-5-2.243-5-5s2.243-5 5-5 5 2.243 5 5-2.243 5-5 5z"/><path d="m55 46c-1.654 0-3 1.346-3 3s1.346 3 3 3 3-1.346 3-3-1.346-3-3-3zm0 4c-.552 0-1-.448-1-1s.448-1 1-1 1 .448 1 1-.448 1-1 1z"/><path d="m38 18c3.309 0 6 2.691 6 6h2c0-4.411-3.589-8-8-8z"/><path d="m8 44h2v2h-2z"/><path d="m16 44h2v2h-2z"/><path d="m12 44h2v2h-2z"/><path d="m43 30h2v2h-2z"/><path d="m51 30h2v2h-2z"/><path d="m47 30h2v2h-2z"/></g></svg>