<svg id="Layer_1" enable-background="new 0 0 512 512" viewBox="0 0 512 512" xmlns="http://www.w3.org/2000/svg"><path d="m93.12 436.86c-4.42 0-7.99-3.57-7.99-7.99s3.57-7.99 7.99-7.99h52.67c4.42 0 8.02 3.57 8.02 7.99s-3.6 7.99-8.02 7.99zm-14.49 26.33c-4.39 0-7.99-3.57-7.99-7.99s3.6-7.99 7.99-7.99h81.64c4.42 0 8.02 3.57 8.02 7.99s-3.6 7.99-8.02 7.99zm238.03-195.13c-2.41 3.69-7.37 4.71-11.06 2.27-3.66-2.44-4.68-7.4-2.24-11.05l24.24-36.54c2.41-3.63 7.23-4.65 10.89-2.38l16.24 10.15 15.02-20.47-4.42-.34c-4.42-.31-7.74-4.11-7.43-8.53.31-4.39 4.14-7.71 8.53-7.4l18.85 1.39c3.32.23 6.01 2.47 7.03 5.41l6.94 16.55c1.73 4.05-.17 8.73-4.22 10.43-4.08 1.73-8.73-.17-10.46-4.22l-1.73-4.14-19.47 26.53c-2.38 3.49-7.17 4.54-10.8 2.27l-15.96-9.98zm114.09 65.31-25.23 16.13c-.37.23-.54.96-.28 1.39l32.31 50.46c.57.68 1.56-.06 1.87-.26l24.6-15.73c.43-.26.54-.99.28-1.39l-32.17-50.31c-.24-.44-.98-.55-1.38-.29zm-27.83-1.14 12.19-7.77-8.7-13.61c-2.15-3.34-1.45-7.71 1.47-10.26 15-13.12 25.46-30.61 29.82-50.46 5.56-25.28.37-50.46-12.56-70.64-16.1-25.23-43.65-41.73-74.83-43.17-19.73-.91-38.75 4.48-54.68 14.68-20.21 12.9-35.46 33.53-41.05 58.85-5.56 25.31-.37 50.49 12.56 70.67 24.77 38.75 74.58 54.14 117.13 35.15 3.77-1.67 8.14-.23 10.15 3.26zm26.53-14.88c6.29-.71 12.61 2.21 16.13 7.74l32.17 50.31c5.07 7.91 2.75 18.34-5.16 23.39l-25.23 16.13c-7.88 5.05-18.31 2.78-23.39-5.16l-32.17-50.31c-3.23-5.07-3.51-11.31-.96-16.53l-6.43-10.06c-8.19 3.03-16.81 5.13-25.63 6.18v146.98c0 4.42-3.6 7.99-8.02 7.99h-322.07c-4.42 0-8.02-3.57-8.02-7.99v-389.23c0-4.42 3.6-7.99 8.02-7.99h90.45c0-17.46 14.09-30.64 30.93-30.64h5.56c2.66-27.64 37.56-40.37 58.2-20.49 5.56 5.36 9.21 12.53 9.98 20.49h5.58c16.84 0 30.93 13.18 30.93 30.64h90.45c4.42 0 8.02 3.57 8.02 7.99v24.21c33.73 3.94 62.45 22.82 79.8 49.92 15.14 23.7 21.23 53.12 14.74 82.69-4.59 20.81-15 39.54-29.91 54.31zm-69.36-150.18-.26-.06c-17.35-3.77-34.55-.2-48.39 8.65-29.82 19.08-38.64 59.13-19.56 88.95s59.13 38.61 88.95 19.56c29.82-19.08 38.61-59.13 19.56-88.95-8.84-13.83-22.96-24.29-40.3-28.15zm-57.21-4.85c17.32-11.08 38.86-15.56 60.49-10.8 42.8 9.16 70.64 51.85 61.26 95.73-9.16 42.8-51.85 70.64-95.73 61.26-42.83-9.16-70.64-51.87-61.26-95.73 4.6-21.54 18.01-39.46 35.24-50.46zm39.89 177.4c-36.99-1.13-69.9-20.61-89.06-50.63-15.14-23.67-21.26-53.09-14.74-82.66 10.91-49.58 54.26-84.61 103.8-86.12v-15.53h-83c-2.81 14.14-15.68 24.46-30.39 24.46h-79.31c-14.74 0-27.58-10.32-30.39-24.46h-83v373.24h306.09zm-180.03-80.08c-4.42 0-7.99-3.57-7.99-7.99s3.57-7.99 7.99-7.99h38.47c4.42 0 7.99 3.57 7.99 7.99s-3.57 7.99-7.99 7.99zm0 29.34c-4.42 0-7.99-3.57-7.99-7.99s3.57-7.99 7.99-7.99h66.02c4.42 0 8.02 3.57 8.02 7.99s-3.6 7.99-8.02 7.99zm0-127.87c-4.42 0-7.99-3.57-7.99-7.99s3.57-7.99 7.99-7.99h38.47c4.42 0 7.99 3.57 7.99 7.99s-3.57 7.99-7.99 7.99zm0 29.33c-4.42 0-7.99-3.57-7.99-7.99s3.57-7.99 7.99-7.99h66.02c4.42 0 8.02 3.57 8.02 7.99s-3.6 7.99-8.02 7.99zm89.06 231.42c19.84 5.98 26.39 31.21 11.54 46.03-17.38 17.38-47.2 4.99-47.2-19.56 0-12.36 8.14-23.02 19.64-26.48v-21.74h-24.41c-4.42 0-7.99-3.57-7.99-7.99v-19.28h-61.11v19.28c0 4.42-3.57 7.99-7.99 7.99h-64.83c-4.42 0-7.99-3.57-7.99-7.99v-54.57c0-4.42 3.57-7.99 7.99-7.99h24.41v-27.98h-24.41c-4.42 0-7.99-3.57-7.99-7.99v-54.57c0-4.42 3.57-7.99 7.99-7.99h24.41v-27.98h-24.41c-4.42 0-7.99-3.57-7.99-7.99v-54.56c0-4.39 3.57-7.99 7.99-7.99h64.83c4.42 0 7.99 3.6 7.99 7.99v54.57c0 4.42-3.57 7.99-7.99 7.99h-24.41v27.98h24.41c4.42 0 7.99 3.57 7.99 7.99v54.57c0 4.42-3.57 7.99-7.99 7.99h-24.41v27.98h24.41c4.42 0 7.99 3.57 7.99 7.99v19.28h61.11v-19.28c0-4.42 3.57-7.99 7.99-7.99h64.83c4.42 0 7.99 3.57 7.99 7.99v54.57c0 4.42-3.57 7.99-7.99 7.99h-24.4zm.23 18.23c-7.31-7.31-19.9-2.1-19.9 8.25s12.59 15.56 19.9 8.25c4.56-4.57 4.56-11.94 0-16.5zm16.19-94.51h-48.84v38.52h48.84zm-141.94-197.06h-48.84v38.55h48.84zm0 197.06c-16.3 0-32.57 0-48.84 0v38.52h48.84zm0-98.53h-48.84v38.55h48.84zm37.71-172.88h-13.92c-8.02 0-14.91 6.12-14.91 14.09v10.91c0 7.97 6.89 14.09 14.91 14.09h79.31c8.02 0 14.91-6.12 14.91-14.09v-10.92c0-7.97-6.89-14.09-14.91-14.09h-13.92v-.03c-4.96 0-8.79-4.59-7.8-9.52 2.15-10.71-6.46-20.61-17.94-20.61-10.63 0-19.22 8.65-18.17 18.96l.43 3.2c0 4.43-3.6 8.01-7.99 8.01z"/></svg>