<svg id="Layer_1" enable-background="new 0 0 98 98" height="512" viewBox="0 0 98 98" width="512" xmlns="http://www.w3.org/2000/svg"><g><path d="m27.0576 4.2368c-7.415 0-13.4478 6.0327-13.4478 13.4478s6.0327 13.4478 13.4478 13.4478 13.4478-6.0327 13.4478-13.4478-6.0327-13.4478-13.4478-13.4478zm0 24.8955c-6.3125 0-11.4478-5.1353-11.4478-11.4478s5.1353-11.4477 11.4478-11.4477 11.4478 5.1353 11.4478 11.4478-5.1353 11.4477-11.4478 11.4477z"/><path d="m27.0576 13.188c.96 0 1.7407.7808 1.7407 1.7402h2c0-1.7139-1.1655-3.1467-2.7407-3.5873v-2.0865h-2v2.0865c-1.5752.4406-2.7407 1.8734-2.7407 3.5873 0 2.0625 1.6782 3.7407 3.7407 3.7407.96 0 1.7407.7808 1.7407 1.7407s-.7808 1.7407-1.7407 1.7407-1.7407-.7808-1.7407-1.7407h-2c0 1.7139 1.1655 3.147 2.7407 3.5877v2.1174h2v-2.1174c1.5752-.4407 2.7407-1.8738 2.7407-3.5877 0-2.0625-1.6782-3.7407-3.7407-3.7407-.96 0-1.7407-.7808-1.7407-1.7407 0-.9594.7808-1.7402 1.7407-1.7402z"/><path d="m49.6982 1h-45.2812c-1.8843 0-3.417 1.5327-3.417 3.417v34.584c0 1.8843 1.5327 3.417 3.417 3.417h17.489l-4.0366 7.5894h-4.946v2h28.2686v-2h-4.946l-4.0366-7.5894h17.489c1.8843 0 3.417-1.5327 3.417-3.417v-17.5913h20.1986v14.2949l-1.9824-1.9824-1.4141 1.4141 4.3965 4.3965 4.396-4.3965-1.4141-1.4141-1.9819 1.9822v-16.2947h-22.1988v-14.9927c0-1.8843-1.5327-3.417-3.417-3.417zm-15.7177 49.0073h-13.8457l4.0361-7.5894h5.7734zm17.1347-11.0063c0 .7813-.6357 1.417-1.417 1.417-15.0719 0-28.5664 0-45.2813 0-.7812 0-1.4169-.6358-1.4169-1.417v-3.5718h48.1152zm0-5.5718h-48.1152v-29.0122c0-.7813.6357-1.417 1.417-1.417h45.2813c.7813 0 1.417.6357 1.417 1.417v29.0122z"/><path d="m24.317 36.923h5.481v2h-5.481z"/><path d="m93.583 45.9932h-45.2812c-1.8843 0-3.417 1.5327-3.417 3.417v25.5669h-19.523v-14.1536l1.9824 1.9821 1.4141-1.4141-4.3965-4.396-4.396 4.396 1.4141 1.4141 1.9819-1.9819v16.1533h21.5229v7.0166c0 1.8843 1.5327 3.417 3.417 3.417h17.489l-4.0365 7.5894h-4.946v2h28.2686v-2h-4.9458l-4.0369-7.5894h17.4889c1.8843 0 3.417-1.5327 3.417-3.417v-34.5834c0-1.8843-1.5327-3.417-3.417-3.417zm-15.7173 49.0068h-13.8462l4.0361-7.5894h5.7734zm17.1343-11.0063c0 .7813-.6357 1.417-1.417 1.417-9.0798 0-35.4756 0-45.2813 0-.7813 0-1.417-.6357-1.417-1.417v-3.5713h48.1153zm0-5.5713h-48.1152v-29.0122c0-.7813.6357-1.417 1.417-1.417h45.2812c.7813 0 1.417.6357 1.417 1.417z"/><path d="m68.202 81.917h5.481v2h-5.481z"/><path d="m87.6074 57.4473c0-2.0991-1.708-3.8066-3.8071-3.8066h-27.3018c-2.0991 0-3.8066 1.7075-3.8066 3.8066s1.7075 3.8071 3.8066 3.8071h.3046l1.9064 11.0957c.2202 1.2808 1.3223 2.2104 2.6216 2.2104h17.6367c1.2988 0 2.4014-.9292 2.6216-2.21l1.9064-11.0962h.3046c2.099.0001 3.807-1.7079 3.807-3.807zm-26.2763 15.1132c-.3223 0-.5957-.2305-.6504-.5488l-1.8481-10.7573h4.5576l2.1919 11.3062h-4.251zm11.3486 0h-5.0605l-2.1919-11.3062h9.4443zm6.939-.5493c-.0547.3184-.3286.5493-.6509.5493h-4.251l2.1919-11.3062h4.5576zm4.1816-12.7568c-11.6612 0-15.8077 0-27.3018 0-.9961 0-1.8066-.8105-1.8066-1.8071 0-.9961.8105-1.8066 1.8066-1.8066h27.3018c.9966 0 1.8071.8105 1.8071 1.8066 0 .9965-.8105 1.8071-1.8071 1.8071z"/><path d="m90.688 74.4258h-5.6543v2h7.6543v-5.3443h-2z"/><path d="m90.688 67.681h2v1.828h-2z"/><path d="m5.378 10.421h2v1.767h-2z"/><path d="m5.3779 9.2544h2v-2.0386h4.5479v-2h-6.5479z"/><path d="m74.942 8.254h2v2h-2z"/><path d="m70.942 8.254h2v2h-2z"/><path d="m78.942 8.254h2v2h-2z"/><path d="m83.056 25.115h11.71v2h-11.71z"/><path d="m2.698 74.977h2v2h-2z"/><path d="m10.698 74.977h2v2h-2z"/><path d="m6.698 74.977h2v2h-2z"/><path d="m14.812 91.838h11.71v2h-11.71z"/></g></svg>