<svg id="Layer_1" enable-background="new 0 0 512 512" height="512" viewBox="0 0 512 512" width="512" xmlns="http://www.w3.org/2000/svg"><path d="m108.937 367.91c-1.57 2.11-3.982 3.225-6.425 3.225-1.66 0-3.334-.515-4.769-1.582-24.934-18.552-42.964-44.093-52.143-73.863-8.22-26.661-8.644-54.901-1.227-81.668 5.443-19.645 14.891-37.828 27.676-53.467l-1.331.213c-4.363.699-8.464-2.275-9.161-6.639-.696-4.363 2.276-8.464 6.639-9.161l25.073-4.002c2.429-.385 4.901.363 6.703 2.036 1.803 1.673 2.736 4.082 2.53 6.533l-2.124 25.302c-.35 4.175-3.848 7.332-7.963 7.332-.224 0-.45-.009-.678-.029-4.403-.369-7.672-4.238-7.303-8.641l.259-3.084c-27.258 33.293-36.65 78.893-23.803 120.562 8.17 26.499 24.216 49.231 46.404 65.74 3.545 2.637 4.281 7.648 1.643 11.193zm305.32-225.463c-3.546-2.637-8.557-1.902-11.194 1.643-2.637 3.544-1.902 8.556 1.643 11.194 22.188 16.508 38.234 39.241 46.404 65.74 12.847 41.669 3.455 87.271-23.803 120.563l.259-3.085c.37-4.403-2.9-8.271-7.303-8.641-4.399-.376-8.271 2.9-8.641 7.303l-2.124 25.302c-.206 2.451.727 4.86 2.53 6.533 1.49 1.383 3.438 2.136 5.442 2.136.419 0 .841-.033 1.261-.1l25.073-4.002c4.363-.696 7.335-4.798 6.639-9.161-.697-4.364-4.799-7.341-9.161-6.639l-1.331.212c12.784-15.639 22.232-33.822 27.675-53.467 7.417-26.768 6.993-55.008-1.227-81.668-9.178-29.769-27.209-55.311-52.142-73.863zm89.743-106.447c0 15.439-12.561 28-28 28-12.66 0-23.379-8.448-26.83-20h-71.927l-1.49 104.172 8.671 8.671c2.34 2.34 2.998 5.879 1.654 8.904l-9.347 21.044c5.929 10.319 10.486 21.313 13.589 32.78l21.477 8.267c3.088 1.189 5.126 4.156 5.126 7.466v41.391c0 3.31-2.038 6.277-5.126 7.466l-21.482 8.269c-3.102 11.46-7.659 22.451-13.586 32.769l9.351 21.053c1.343 3.024.686 6.564-1.655 8.904l-29.268 29.269c-2.34 2.34-5.879 2.998-8.904 1.654l-21.044-9.347c-1.288.74-2.588 1.459-3.897 2.156l52.249 40.806c1.941 1.516 3.076 3.842 3.076 6.305v23.171c11.552 3.451 20 14.17 20 26.829 0 15.439-12.561 28-28 28s-28-12.561-28-28c0-12.659 8.448-23.378 20-26.829v-19.268l-55.801-43.58c-4.066 1.524-8.203 2.861-12.406 3.998l-8.266 21.477c-1.188 3.089-4.156 5.126-7.466 5.126h-12.698v32.247c11.552 3.451 20 14.17 20 26.829 0 15.439-12.561 28-28 28s-28-12.561-28-28c0-12.66 8.448-23.378 20-26.829v-32.247h-12.695c-3.31 0-6.277-2.038-7.466-5.126l-8.269-21.482c-4.2-1.137-8.336-2.473-12.399-3.997l-55.807 43.585v19.268c11.552 3.451 20 14.17 20 26.829 0 15.439-12.561 28-28 28s-28-12.561-28-28c0-12.659 8.448-23.378 20-26.829v-23.171c0-2.463 1.135-4.789 3.076-6.305l52.256-40.811c-1.308-.697-2.606-1.415-3.894-2.155l-21.054 9.351c-3.024 1.343-6.564.686-8.904-1.655l-29.269-29.269c-2.34-2.34-2.998-5.879-1.654-8.904l9.347-21.044c-5.928-10.318-10.484-21.31-13.588-32.78l-21.477-8.267c-3.089-1.188-5.126-4.156-5.126-7.466v-41.391c0-3.309 2.038-6.277 5.126-7.466l21.48-8.269c3.103-11.463 7.659-22.454 13.587-32.772l-9.349-21.05c-1.343-3.024-.686-6.564 1.655-8.904l8.671-8.671-1.491-104.172h-71.926c-3.451 11.552-14.17 20-26.83 20-15.439 0-28-12.561-28-28s12.561-28 28-28c12.66 0 23.379 8.448 26.83 20h79.813c4.374 0 7.937 3.512 7.999 7.886l1.381 96.511 4.822-4.822c2.34-2.339 5.879-2.997 8.904-1.655l21.053 9.35c10.318-5.927 21.309-10.484 32.769-13.586l8.27-21.483c1.189-3.088 4.157-5.126 7.466-5.126h2.205l-.189-24.636-21.26-13.384c-4.93 4.319-11.377 6.945-18.429 6.945-15.439 0-28-12.561-28-28s12.561-28 28-28 28 12.561 28 28c0 2.606-.366 5.128-1.035 7.523l24.951 15.708c2.308 1.453 3.717 3.981 3.737 6.708l.224 29.135h4.979l.224-29.135c.021-2.727 1.43-5.255 3.737-6.708l24.95-15.708c-.669-2.396-1.035-4.917-1.035-7.524 0-15.439 12.561-28 28-28s28 12.561 28 28-12.561 28-28 28c-7.052 0-13.499-2.626-18.427-6.945l-21.26 13.384-.189 24.636h2.206c3.31 0 6.277 2.038 7.466 5.126l8.269 21.483c11.46 3.102 22.451 7.659 32.769 13.586l21.053-9.35c3.025-1.343 6.564-.686 8.904 1.655l4.822 4.821 1.381-96.511c.062-4.374 3.625-7.886 7.999-7.886h79.813c3.451-11.552 14.17-20 26.83-20 15.437.002 27.998 12.563 27.998 28.002zm-201.634 0c0 6.617 5.383 12 12 12s12-5.383 12-12-5.383-12-12-12-12 5.383-12 12zm-92.732 0c0-6.617-5.383-12-12-12s-12 5.383-12 12 5.383 12 12 12 12-5.383 12-12zm-161.634 0c0-6.617-5.383-12-12-12s-12 5.383-12 12 5.383 12 12 12 12-5.383 12-12zm95.364 428c-6.617 0-12 5.383-12 12s5.383 12 12 12 12-5.383 12-12-5.384-12-12-12zm112.636 0c-6.617 0-12 5.383-12 12s5.383 12 12 12 12-5.383 12-12-5.383-12-12-12zm112.636 0c-6.617 0-12 5.383-12 12s5.383 12 12 12 12-5.383 12-12-5.383-12-12-12zm7.17-236.597c-3.017-12.682-8.021-24.755-14.875-35.883-1.384-2.247-1.571-5.031-.5-7.443l8.796-19.805-21.5-21.5-19.813 8.8c-2.412 1.069-5.195.883-7.441-.5-11.13-6.853-23.2-11.857-35.874-14.873-2.566-.611-4.667-2.447-5.614-4.909l-7.781-20.216h-30.405l-7.782 20.216c-.948 2.461-3.048 4.298-5.614 4.909-12.675 3.016-24.744 8.02-35.874 14.873-2.247 1.383-5.03 1.569-7.441.5l-19.813-8.799-21.501 21.5 8.799 19.811c1.071 2.411.884 5.195-.5 7.442-6.852 11.127-11.856 23.198-14.874 35.876-.611 2.566-2.447 4.666-4.909 5.614l-20.213 7.781v30.406l20.209 7.779c2.462.947 4.298 3.047 4.909 5.614 3.019 12.685 8.023 24.758 14.875 35.883 1.384 2.247 1.571 5.031.5 7.443l-8.796 19.805 21.5 21.5 19.814-8.8c2.41-1.07 5.195-.884 7.441.5 11.129 6.852 23.199 11.856 35.874 14.873 2.566.611 4.667 2.447 5.614 4.909l7.781 20.215h30.406l7.779-20.209c.947-2.462 3.048-4.298 5.614-4.909 12.684-3.018 24.757-8.023 35.883-14.875 2.247-1.384 5.031-1.571 7.443-.5l19.805 8.796 21.5-21.5-8.8-19.813c-1.071-2.411-.884-5.195.5-7.441 6.852-11.129 11.856-23.199 14.873-35.874.611-2.566 2.447-4.667 4.909-5.614l20.215-7.781v-30.406l-20.21-7.779c-2.463-.949-4.299-3.049-4.909-5.616zm112.194-191.403c0-6.617-5.383-12-12-12s-12 5.383-12 12 5.383 12 12 12 12-5.383 12-12zm-161.524 178.895c0 18.296-5.75 28.124-11.311 37.627-6.069 10.372-12.343 21.1-13.861 46.411v9.885c0 7.135-4.149 13.305-10.152 16.269v4.036c0 7.238-4.269 13.482-10.412 16.395v3.911c0 10.009-8.143 18.152-18.152 18.152h-13.176c-10.009 0-18.152-8.143-18.152-18.152v-3.911c-6.143-2.913-10.412-9.156-10.412-16.395v-4.035c-6.003-2.964-10.152-9.134-10.152-16.269v-9.892c-1.518-25.306-7.792-36.032-13.86-46.403-5.561-9.503-11.311-19.331-11.311-37.627 0-38.86 31.615-70.475 70.476-70.475 38.859-.002 70.475 31.613 70.475 70.473zm-89.265.46c0-3.594-2.924-6.518-6.518-6.518s-6.519 2.924-6.519 6.518 2.924 6.518 6.519 6.518h6.518zm21.578 22.518h-5.578v52.791h5.578zm-32.093 68.791v2.153c0 1.167.985 2.152 2.152 2.152h54.304c1.166 0 2.151-.985 2.151-2.152v-2.153zm48.456 22.458v-2.153h-38.303v2.153c0 1.167.986 2.152 2.153 2.152h33.998c1.167 0 2.152-.985 2.152-2.152zm-10.412 20.306v-2.153h-17.48v2.153c0 1.167.985 2.152 2.152 2.152h13.176c1.166 0 2.152-.986 2.152-2.152zm45.736-134.533c0-30.038-24.438-54.475-54.475-54.475-30.038 0-54.476 24.438-54.476 54.475 0 13.959 3.826 20.498 9.121 29.547 5.804 9.919 12.9 22.048 15.427 46.222h11.139v-52.791h-6.518c-12.417 0-22.519-10.102-22.519-22.518s10.102-22.518 22.519-22.518c12.416 0 22.518 10.102 22.518 22.518v6.518h5.578v-6.518c0-12.417 10.102-22.518 22.518-22.518s22.518 10.102 22.518 22.518-10.102 22.518-22.518 22.518h-6.518v52.791h11.139c2.527-24.174 9.623-36.303 15.427-46.222 5.294-9.049 9.12-15.588 9.12-29.547zm-29.169 6.978c3.594 0 6.518-2.924 6.518-6.518s-2.924-6.518-6.518-6.518-6.518 2.924-6.518 6.518v6.518z"/></svg>