<svg id="Layer_1" enable-background="new 0 0 512 512" height="512" viewBox="0 0 512 512" width="512" xmlns="http://www.w3.org/2000/svg"><g id="_x32_26_x2C__computer_x2C__projector_x2C__pie"><g><circle cx="446" cy="386" r="10"/><circle cx="416" cy="386" r="10"/><circle cx="386" cy="386" r="10"/><circle cx="225.999" cy="216" r="10"/><circle cx="366" cy="85.999" r="10"/><circle cx="105.998" cy="286" r="10"/><circle cx="135.999" cy="286" r="10"/><circle cx="165.999" cy="286" r="10"/><circle cx="195.999" cy="286" r="10"/><circle cx="225.999" cy="286" r="10"/><circle cx="285.999" cy="286" r="10"/><circle cx="315.999" cy="286" r="10"/><circle cx="346" cy="286" r="10"/><circle cx="376" cy="286" r="10"/><circle cx="406" cy="286" r="10"/><circle cx="386" cy="446" r="10"/><circle cx="125.999" cy="446" r="10"/><path d="m462.499 75.999h-46.499v-10h5c13.784 0 25-11.216 25-25 0-13.789-11.216-25-25-25h-330.002c-13.784 0-25 11.211-25 25 0 13.784 11.216 25 25 25h5v10h-46.499c-18.474 0-33.501 15.029-33.501 33.496v283.004c0 18.472 15.027 33.501 33.501 33.501h157.068l-35.715 50.001h-24.854c-5.522 0-10 4.479-10 10 0 5.522 4.478 10 10 10h220.001c5.522 0 10-4.478 10-10 0-5.521-4.478-10-10-10h-24.854l-35.712-50.001h157.066c18.472 0 33.501-15.029 33.501-33.501v-283.004c0-18.467-15.029-33.496-33.501-33.496zm-376.501-35c0-2.759 2.244-5 5-5h330.002c2.759 0 5 2.241 5 5 0 2.754-2.241 5-5 5-23.237 0-315.422 0-330.002 0-2.756 0-5-2.247-5-5zm310.002 25v180.001h-280.002v-180.001zm-346.501 30h46.499v160c0 5.522 4.478 10 10 10h140.001v50c0 5.522 4.478 10 10 10s10-4.478 10-10v-50h140.001c5.522 0 10-4.478 10-10v-160h46.499c7.446 0 13.501 6.055 13.501 13.496v236.505h-440.002v-236.505c0-7.441 6.057-13.496 13.501-13.496zm267.066 380.002h-121.135l35.716-50.001h49.708zm145.934-70.001c-12.886 0-400.141 0-413 0-7.444 0-13.501-6.055-13.501-13.501v-26.499h440.002v26.499c0 7.446-6.055 13.501-13.501 13.501z"/><path d="m75.998 436c-16.543 0-30 13.458-30 30.001s13.457 30 30 30 30-13.457 30-30-13.457-30.001-30-30.001zm0 40.001c-5.515 0-10-4.487-10-10s4.485-10 10-10 10 4.487 10 10-4.485 10-10 10z"/><path d="m446 436c-16.543 0-30 13.458-30 30.001s13.457 30 30 30 30-13.457 30-30-13.457-30.001-30-30.001zm0 40.001c-5.513 0-10-4.487-10-10s4.487-10 10-10 10 4.487 10 10-4.487 10-10 10z"/><path d="m315.999 236c38.599 0 70.001-31.401 70.001-70s-31.402-70-70.001-70-70 31.401-70 70c0 38.598 31.401 70 70 70zm0-20c-24.146 0-44.351-17.207-48.994-40 55.205 0 48.501 0 49.131-.01 1.626-.02 3.346-.454 4.894-1.357.443-.254 33.441-20.059 42.12-25.259 1.84 5.205 2.852 10.796 2.852 16.626-.002 27.568-22.435 50-50.003 50zm36.841-83.766-26.841 16.104v-31.333c10.518 2.143 19.845 7.598 26.841 15.229zm-46.841-15.229v38.994h-38.994c3.989-19.561 19.433-35.01 38.994-38.994z"/><path d="m155.999 95.999h20v60h-20z"/><path d="m125.999 125.999h20v30h-20z"/><path d="m185.999 105.999h20v50h-20z"/><path d="m215.999 95.999h20v60h-20z"/><path d="m195.999 206h-50c-5.522 0-10 4.478-10 10s4.478 10 10 10h50c5.522 0 10-4.478 10-10s-4.478-10-10-10z"/><path d="m195.999 175.999h-50c-5.522 0-10 4.478-10 10s4.478 10 10 10h50c5.522 0 10-4.478 10-10s-4.478-10-10-10z"/></g></g></svg>