<svg id="Layer_5" enable-background="new 0 0 64 64" height="512" viewBox="0 0 64 64" width="512" xmlns="http://www.w3.org/2000/svg"><g><path d="m38 43h-12c-1.654 0-3 1.346-3 3v2c0 .771.301 1.468.78 2-.48.532-.78 1.229-.78 2v2c0 .771.301 1.468.78 2-.48.532-.78 1.229-.78 2v2c0 1.654 1.346 3 3 3h12c1.654 0 3-1.346 3-3v-2c0-.771-.301-1.468-.78-2 .48-.532.78-1.229.78-2v-2c0-.771-.301-1.468-.78-2 .48-.532.78-1.229.78-2v-2c0-1.654-1.346-3-3-3zm-13 3c0-.552.449-1 1-1h12c.551 0 1 .448 1 1v2c0 .552-.449 1-1 1h-12c-.551 0-1-.448-1-1zm14 6v2c0 .552-.449 1-1 1h-12c-.551 0-1-.448-1-1v-2c0-.552.449-1 1-1h12c.551 0 1 .448 1 1zm0 8c0 .552-.449 1-1 1h-12c-.551 0-1-.448-1-1v-2c0-.552.449-1 1-1h12c.551 0 1 .448 1 1z"/><path d="m16 31h-12c-1.654 0-3 1.346-3 3v2c0 .771.301 1.468.78 2-.479.532-.78 1.229-.78 2v2c0 .771.301 1.468.78 2-.479.532-.78 1.229-.78 2v2c0 1.654 1.346 3 3 3h12c1.654 0 3-1.346 3-3v-2c0-.771-.301-1.468-.78-2 .48-.532.78-1.229.78-2v-2c0-.771-.301-1.468-.78-2 .48-.532.78-1.229.78-2v-2c0-1.654-1.346-3-3-3zm-13 3c0-.552.449-1 1-1h12c.551 0 1 .448 1 1v2c0 .552-.449 1-1 1h-12c-.551 0-1-.448-1-1zm14 6v2c0 .552-.449 1-1 1h-12c-.551 0-1-.448-1-1v-2c0-.552.449-1 1-1h12c.551 0 1 .448 1 1zm0 8c0 .552-.449 1-1 1h-12c-.551 0-1-.448-1-1v-2c0-.552.449-1 1-1h12c.551 0 1 .448 1 1z"/><path d="m60 31h-12c-1.654 0-3 1.346-3 3v2c0 .771.301 1.468.78 2-.48.532-.78 1.229-.78 2v2c0 .771.301 1.468.78 2-.48.532-.78 1.229-.78 2v2c0 1.654 1.346 3 3 3h12c1.654 0 3-1.346 3-3v-2c0-.771-.301-1.468-.78-2 .48-.532.78-1.229.78-2v-2c0-.771-.301-1.468-.78-2 .48-.532.78-1.229.78-2v-2c0-1.654-1.346-3-3-3zm-13 3c0-.552.449-1 1-1h12c.551 0 1 .448 1 1v2c0 .552-.449 1-1 1h-12c-.551 0-1-.448-1-1zm14 6v2c0 .552-.449 1-1 1h-12c-.551 0-1-.448-1-1v-2c0-.552.449-1 1-1h12c.551 0 1 .448 1 1zm0 8c0 .552-.449 1-1 1h-12c-.551 0-1-.448-1-1v-2c0-.552.449-1 1-1h12c.551 0 1 .448 1 1z"/><path d="m10 29h13v-2h-2v-1.498c0-.465.297-.875.739-1.021.873-.286 1.561-.932 1.887-1.772.042-.107.086-.214.131-.318.356-.82.325-1.757-.087-2.572-.21-.415-.13-.916.199-1.245l.704-.704c.33-.33.828-.41 1.245-.199.815.412 1.753.443 2.571.087.106-.046.213-.09.32-.131.839-.327 1.485-1.015 1.772-1.887.145-.443.556-.74 1.021-.74h.996c.465 0 .875.297 1.021.74.287.872.932 1.56 1.771 1.886.107.042.214.086.319.131.818.356 1.757.324 2.572-.087.415-.211.916-.13 1.245.199l.704.704c.329.329.409.83.199 1.245-.412.815-.443 1.752-.087 2.571.045.105.089.212.132.321.326.839 1.014 1.484 1.887 1.771.442.145.739.556.739 1.021v1.498h-1.967v2h13.967c4.411 0 8-3.589 8-8s-3.589-8-8-8c-.548 0-1.095.058-1.636.173-1.626-4.86-6.161-8.173-11.364-8.173-2.657 0-5.173.881-7.225 2.434-2.566-3.995-6.971-6.434-11.775-6.434-6.253 0-11.657 4.076-13.409 10.009-4.774.215-8.591 4.166-8.591 8.991 0 4.962 4.038 9 9 9zm0-16c.054 0 .106.004.159.008l.982.046.19-.807c1.28-5.445 6.079-9.247 11.669-9.247 4.229 0 8.1 2.205 10.27 5.796-.481.513-.936 1.055-1.329 1.657l1.676 1.093c1.856-2.846 4.99-4.546 8.383-4.546 4.625 0 8.616 3.141 9.707 7.638l.26 1.074 1.043-.367c.653-.229 1.322-.345 1.99-.345 3.309 0 6 2.691 6 6s-2.691 6-6 6h-10v-1.498c0-1.331-.85-2.505-2.116-2.921-.302-.099-.538-.316-.646-.594-.051-.132-.104-.263-.161-.393-.118-.273-.104-.591.038-.873.601-1.188.372-2.62-.57-3.561l-.704-.704c-.941-.942-2.373-1.17-3.561-.57-.281.143-.599.157-.874.038-.128-.056-.259-.109-.39-.161-.279-.108-.497-.345-.596-.648-.417-1.265-1.591-2.115-2.922-2.115h-.996c-1.331 0-2.505.85-2.921 2.116-.099.302-.316.538-.596.646-.131.051-.261.104-.391.161-.273.118-.591.105-.873-.038-1.189-.6-2.619-.372-3.561.57l-.704.704c-.942.941-1.171 2.373-.57 3.561.143.282.156.6.038.874-.056.129-.11.26-.161.39-.108.28-.345.497-.648.596-1.265.417-2.115 1.591-2.115 2.922v1.498h-9c-3.86 0-7-3.14-7-7s3.14-7 7-7z"/><path d="m37 26h2c0-3.86-3.14-7-7-7s-7 3.14-7 7h2c0-2.757 2.243-5 5-5s5 2.243 5 5z"/><path d="m35 26c0-1.654-1.346-3-3-3s-3 1.346-3 3 1.346 3 3 3 3-1.346 3-3zm-3 1c-.551 0-1-.449-1-1s.449-1 1-1 1 .449 1 1-.449 1-1 1z"/><path d="m39 38v-10h-2v10c0 1.654 1.346 3 3 3h3v-2h-3c-.551 0-1-.448-1-1z"/><path d="m31 31h2v10h-2z"/><path d="m27 38v-10h-2v10c0 .552-.449 1-1 1h-3v2h3c1.654 0 3-1.346 3-3z"/><path d="m23 7c1.249 0 2.445.28 3.556.831l.89-1.791c-1.39-.69-2.885-1.04-4.446-1.04-4.703 0-8.713 3.199-9.752 7.779l1.95.442c.831-3.663 4.039-6.221 7.802-6.221z"/><path d="m10 25v-2c-1.654 0-3-1.346-3-3h-2c0 2.757 2.243 5 5 5z"/></g></svg>