<svg id="Layer_5" enable-background="new 0 0 64 64" height="512" viewBox="0 0 64 64" width="512" xmlns="http://www.w3.org/2000/svg"><g><path d="m21 53c-1.654 0-3 1.346-3 3s1.346 3 3 3 3-1.346 3-3-1.346-3-3-3zm0 4c-.552 0-1-.449-1-1s.448-1 1-1 1 .449 1 1-.448 1-1 1z"/><path d="m21 7c-7.72 0-14 6.28-14 14s6.28 14 14 14 14-6.28 14-14-6.28-14-14-14zm1 13h2v12.605c-.648.168-1.315.287-2 .344zm4 4h2v6.727c-.625.451-1.293.842-2 1.168zm-6 8.949c-.685-.057-1.352-.176-2-.344v-17.605h2zm-4-1.054c-.707-.326-1.375-.717-2-1.168v-8.727h2zm14-2.984v-6.911h-4v-4h-4v-5h-6v7h-4v8.911c-1.861-2.115-3-4.879-3-7.911 0-6.617 5.383-12 12-12s12 5.383 12 12c0 3.032-1.139 5.796-3 7.911z"/><path d="m55 13c-.074 0-.149.001-.226.004-.914-4.055-4.527-7.004-8.774-7.004-1.162 0-2.315.227-3.386.661-1.927-3.47-5.598-5.661-9.614-5.661-2.65 0-5.166.954-7.165 2.68-.082-.023-.163-.052-.245-.074l-.869-2.606h-7.441l-.87 2.606c-1.561.411-3.057 1.032-4.46 1.851l-2.461-1.23-5.262 5.262 1.231 2.461c-.819 1.403-1.44 2.899-1.852 4.46l-2.606.869v7.441l2.606.869c.411 1.561 1.032 3.057 1.852 4.46l-1.231 2.461 5.263 5.262 2.461-1.23c1.403.819 2.899 1.44 4.46 1.851l.557 1.671-2.832 14.158c-.09.451-.136.913-.136 1.372v.406c0 3.86 3.141 7 7 7s7-3.14 7-7v-.406c0-.459-.046-.921-.136-1.373l-2.832-14.157.557-1.671c1.561-.411 3.057-1.032 4.46-1.851l2.461 1.23 5.263-5.262-1.231-2.461c.201-.344.389-.694.566-1.049h17.892c4.411 0 8-3.589 8-8s-3.589-8-8-8zm-29 42.594v.406c0 2.757-2.243 5-5 5s-5-2.243-5-5v-.406c0-.328.032-.659.097-.98l2.723-13.614h4.361l2.723 13.613c.064.323.096.653.096.981zm6.116-20.255-2.167-1.083-.477.298c-1.514.949-3.156 1.63-4.881 2.026l-.548.125-.764 2.295h-4.559l-.765-2.294-.548-.125c-1.725-.396-3.367-1.078-4.881-2.026l-.477-.298-2.167 1.083-3.222-3.224 1.084-2.168-.298-.476c-.948-1.514-1.63-3.156-2.026-4.881l-.126-.547-2.294-.765v-4.559l2.294-.765.126-.547c.396-1.725 1.078-3.367 2.026-4.881l.298-.476-1.084-2.167 3.224-3.223 2.167 1.083.477-.298c1.514-.949 3.156-1.63 4.881-2.026l.548-.125.764-2.295h4.559l.765 2.294.548.125c1.725.396 3.367 1.078 4.881 2.026l.477.298 2.167-1.083 3.224 3.223-1.084 2.168.298.476c.948 1.514 1.63 3.156 2.026 4.881l.126.547 2.292.766v4.559l-2.294.765-.126.547c-.396 1.725-1.078 3.367-2.026 4.881l-.298.476 1.084 2.168zm22.884-8.339h-17.049c.165-.464.317-.933.443-1.411l2.606-.868v-7.441l-2.606-.869c-.411-1.561-1.032-3.057-1.852-4.46l1.231-2.461-5.263-5.262-2.461 1.23c-.637-.372-1.295-.697-1.968-.986 1.455-.956 3.153-1.472 4.919-1.472 3.567 0 6.802 2.115 8.24 5.387l.439 1 .957-.526c1.026-.563 2.189-.861 3.364-.861 3.561 0 6.549 2.666 6.951 6.201l.117 1.031 1.025-.155c.346-.053.634-.077.907-.077 3.309 0 6 2.691 6 6s-2.691 6-6 6z"/><path d="m55 23h-2v2h2c2.206 0 4-1.794 4-4h-2c0 1.103-.897 2-2 2z"/><path d="m49 23h2v2h-2z"/><path d="m45 23h2v2h-2z"/><path d="m39 35h14v2h-14z"/><path d="m39 39h2v2h-2z"/><path d="m43 39h10v2h-10z"/><path d="m39 43h14v2h-14z"/><path d="m43 47h2v2h-2z"/><path d="m51 47h2v2h-2z"/><path d="m39 47h2v2h-2z"/><path d="m47 47h2v2h-2z"/></g></svg>