<svg id="Layer_1" enable-background="new 0 0 512 512" viewBox="0 0 512 512" xmlns="http://www.w3.org/2000/svg"><path d="m178.29 440.32h-9.68l7.44-29.77c4.8-19.28 1.82-37.58-8.87-54.4l-65.86-103.24 6.81-44.63c1.21-7.97-.76-15.96-5.56-22.49-4.81-6.54-11.85-10.82-19.82-12.03-.45-.07-.9-.12-1.36-.17l1.37-8.96c1.21-7.96-.77-15.95-5.59-22.5-4.82-6.56-11.86-10.84-19.83-12.05s-15.96.77-22.5 5.58-10.81 11.86-12.02 19.84c-3.62 23.73-7.24 47.45-10.86 71.18-3.7 24.26-7.41 48.53-11.11 72.79-2.63 17.18.79 33.34 10.15 48.04l59.24 92.82h-8.44c-7.64 0-13.85 6.21-13.85 13.85v36.03c0 7.63 6.21 13.85 13.85 13.85h116.48c7.64 0 13.85-6.21 13.85-13.85v-36.03c.01-7.65-6.21-13.86-13.84-13.86zm-97.95-250.73c3.75.57 7.06 2.58 9.33 5.68 2.27 3.09 3.21 6.85 2.64 10.6l-5.24 34.33c-2.11-.92-4.32-1.61-6.61-2.03-2.94-.54-5.93-.64-8.85-.31l7.38-48.39c.44.01.9.05 1.35.12zm-55.82 149.3c-7.32-11.48-9.88-23.59-7.82-37.01 3.7-24.26 7.4-48.52 11.11-72.78 3.62-23.73 7.25-47.46 10.86-71.19.57-3.75 2.59-7.07 5.68-9.35s6.85-3.22 10.59-2.65 7.05 2.59 9.34 5.7c2.28 3.11 3.23 6.87 2.66 10.6l-2.83 18.54c-.05.24-.09.48-.11.72l-9.82 64.39c-4.41 4.14-7.47 9.5-8.81 15.56-1.75 7.92-.32 16.04 4.02 22.84l39.91 62.56c1.53 2.39 4.11 3.7 6.76 3.7 1.47 0 2.96-.41 4.3-1.26 3.73-2.38 4.82-7.33 2.44-11.06l-39.91-62.56c-4.11-6.44-2.39-14.93 3.75-19.32 3.17-2.26 7.03-3.12 10.91-2.41 3.61.67 6.72 2.61 8.86 5.5.04.05.07.1.11.15.16.22.33.44.48.67l66.66 104.5c8.24 12.97 10.54 27.07 6.84 41.92l-8.41 33.65h-62.84zm151.6 149.14h-112.14v-31.69h20.87.02.01 91.24zm335.02-188.56c-7.31-47.99-14.63-95.98-21.97-143.97-1.21-7.98-5.48-15.03-12.01-19.84s-14.53-6.8-22.52-5.58c-7.95 1.21-14.99 5.49-19.82 12.05s-6.82 14.55-5.6 22.5l1.37 8.96c-.45.05-.89.1-1.34.17-7.98 1.21-15.03 5.48-19.83 12.03-4.8 6.54-6.78 14.52-5.56 22.5l6.81 44.63-65.87 103.25c-10.69 16.83-13.67 35.13-8.84 54.39l7.41 29.77h-9.68c-7.64 0-13.85 6.21-13.85 13.85v36.03c0 7.63 6.21 13.85 13.85 13.85h116.48c7.64 0 13.85-6.21 13.85-13.85v-36.03c0-7.64-6.21-13.85-13.85-13.85h-8.41l32.56-51.04c2.38-3.73 1.29-8.68-2.44-11.06s-8.68-1.28-11.06 2.44l-38.06 59.65h-62.89l-8.38-33.65c-3.72-14.84-1.43-28.94 6.81-41.91l66.67-104.51c.15-.24.32-.45.48-.68.04-.05.08-.11.11-.16 2.15-2.89 5.26-4.84 8.88-5.5 3.89-.71 7.76.15 10.92 2.43 2.85 2.05 4.84 5.04 5.61 8.53.83 3.75.16 7.57-1.89 10.78l-39.91 62.56c-2.38 3.73-1.28 8.68 2.44 11.06 1.33.85 2.83 1.26 4.3 1.26 2.64 0 5.23-1.31 6.76-3.7l39.91-62.56c7.96-12.47 5.62-28.61-4.79-38.39l-9.79-64.39c-.03-.27-.07-.55-.12-.81l-2.82-18.46c-.57-3.72.38-7.49 2.67-10.6s5.6-5.14 9.33-5.71c3.75-.57 7.52.37 10.61 2.64 3.09 2.28 5.1 5.6 5.67 9.36 7.34 47.99 14.66 95.98 21.97 143.97 2.05 13.42-.51 25.53-7.82 37l-14.83 23.22c-2.38 3.73-1.29 8.68 2.44 11.06s8.68 1.29 11.06-2.44l14.83-23.22c9.36-14.69 12.78-30.85 10.15-48.03zm-63.12 188.56h-112.14v-31.69h91.27.01.02 20.84zm-16.45-249.87c-2.3.42-4.52 1.12-6.64 2.04l-5.24-34.33c-.57-3.75.37-7.51 2.64-10.6s5.58-5.11 9.34-5.68c.45-.07.9-.11 1.34-.13l7.38 48.39c-2.91-.32-5.88-.23-8.82.31zm-129.86 19.07c10.5 0 19.03-8.54 19.03-19.03v-5.2h24.72v18.14c-7.29 3.12-12.42 10.36-12.42 18.78 0 11.28 9.16 20.45 20.42 20.45s20.42-9.17 20.42-20.45c0-8.42-5.12-15.66-12.42-18.78v-26.15c0-4.42-3.58-8.01-8.01-8.01h-32.73v-7.62h25.75c36.88 0 66.88-30.02 66.88-66.91 0-32.08-22.77-59.4-53.76-65.57-8.71-24.45-31.99-41.11-58.36-41.11-8.39 0-16.68 1.71-24.36 4.99-14.04-20.41-37.27-32.8-62.32-32.8-40.86 0-74.25 32.58-75.57 73.12-22.23 9.61-37.73 30.61-40.09 54.96-.43 4.4 2.8 8.32 7.2 8.74s8.32-2.8 8.74-7.2c1.93-20.01 15.55-37.05 34.69-43.4 3.35-1.11 5.58-4.3 5.48-7.83-.03-.92-.05-1.83-.05-2.77 0-32.86 26.74-59.6 59.6-59.6 21.79 0 41.84 11.91 52.33 31.07 1.04 1.9 2.8 3.3 4.89 3.87 2.09.58 4.32.29 6.19-.81 7.06-4.14 15.1-6.33 23.27-6.33 20.88 0 39.16 14.08 44.44 34.25.83 3.18 3.53 5.54 6.8 5.92 25.58 3.04 44.87 24.75 44.87 50.5 0 28.06-22.82 50.9-50.87 50.9h-25.75v-32.9c0-10.5-8.54-19.03-19.03-19.03h-6v-28.56c0-21.89-17.81-39.7-39.7-39.7-21.91 0-39.73 17.81-39.73 39.7v28.56h-5.97c-10.51 0-19.06 8.54-19.06 19.03v32.9h-25.73c-22.48 0-42.57-15.12-48.86-36.77-1.23-4.25-5.68-6.68-9.92-5.46-4.25 1.23-6.69 5.68-5.46 9.92 8.27 28.45 34.68 48.32 64.24 48.32h25.75v7.62h-32.73c-4.42 0-8.01 3.58-8.01 8.01v26.15c-7.29 3.12-12.42 10.36-12.42 18.78 0 11.28 9.16 20.45 20.42 20.45s20.42-9.17 20.42-20.45c0-8.42-5.12-15.66-12.42-18.78v-18.14h24.72v5.2c0 10.5 8.55 19.03 19.06 19.03h10.19v42.85c-7.29 3.12-12.42 10.36-12.42 18.78 0 11.26 9.16 20.42 20.42 20.42 11.28 0 20.45-9.16 20.45-20.42 0-8.42-5.14-15.67-12.44-18.79v-42.85h38.95v42.85c-7.31 3.12-12.44 10.37-12.44 18.79 0 11.26 9.17 20.42 20.45 20.42 11.26 0 20.42-9.16 20.42-20.42 0-8.42-5.12-15.66-12.42-18.78v-42.85zm51.76 17.12c-2.43 0-4.41-1.99-4.41-4.44 0-2.43 1.98-4.41 4.41-4.41s4.41 1.98 4.41 4.41c0 2.45-1.98 4.44-4.41 4.44zm-194.94 0c-2.43 0-4.41-1.99-4.41-4.44 0-2.43 1.98-4.41 4.41-4.41s4.41 1.98 4.41 4.41c0 2.45-1.98 4.44-4.41 4.44zm69.99 48.93c-2.43 0-4.41-1.98-4.41-4.41s1.98-4.41 4.41-4.41c2.45 0 4.44 1.98 4.44 4.41s-2 4.41-4.44 4.41zm54.96 0c-2.45 0-4.44-1.98-4.44-4.41s1.99-4.41 4.44-4.41c2.43 0 4.41 1.98 4.41 4.41s-1.98 4.41-4.41 4.41zm-51.18-210.43c0-13.06 10.64-23.68 23.71-23.68 13.06 0 23.68 10.62 23.68 23.68v28.56h-47.4v-28.56zm-25.03 125.35v-77.75c0-1.64 1.4-3.02 3.05-3.02h91.39c1.64 0 3.02 1.38 3.02 3.02v77.75c0 1.64-1.38 3.02-3.02 3.02h-91.39c-1.65 0-3.05-1.39-3.05-3.02zm40.74-30.59v12.5c0 4.42 3.58 8.01 8.01 8.01 4.42 0 8.01-3.58 8.01-8.01v-12.51c6.71-3.06 11.4-9.81 11.4-17.65 0-10.71-8.7-19.43-19.4-19.43-10.71 0-19.43 8.72-19.43 19.43-.02 7.85 4.68 14.61 11.41 17.66zm8-21.07c1.84 0 3.39 1.56 3.39 3.42 0 1.87-1.52 3.39-3.39 3.39-1.88 0-3.42-1.52-3.42-3.39.01-1.89 1.54-3.42 3.42-3.42z"/></svg>