<svg id="Layer_5" enable-background="new 0 0 64 64" height="512" viewBox="0 0 64 64" width="512" xmlns="http://www.w3.org/2000/svg"><path d="m49 49h2v2h-2z"/><path d="m45 49h2v2h-2z"/><path d="m41 49h2v2h-2z"/><path d="m63 23c0-5.514-4.486-10-10-10-.436 0-.867.038-1.294.094-1.367-6.962-7.506-12.094-14.706-12.094-5.317 0-10.151 2.76-12.858 7.271-1.538-.81-3.286-1.271-5.142-1.271-5.749 0-10.474 4.435-10.953 10.062-3.963.473-7.047 3.85-7.047 7.938 0 4.411 3.589 8 8 8v17c0 2.757 2.243 5 5 5h10v2h-1c-2.757 0-5 2.243-5 5v1h28v-1c0-2.757-2.243-5-5-5h-1v-2h10c2.757 0 5-2.243 5-5v-17.202c4.619-.932 8-4.996 8-9.798zm-60 2c0-3.309 2.691-6 6-6 1.96 0 3.801.961 4.925 2.572l1.641-1.145c-1.295-1.856-3.307-3.061-5.518-3.354.465-4.528 4.302-8.073 8.952-8.073 4.647 0 8.497 3.482 8.956 8.099l1.99-.197c-.307-3.087-1.858-5.752-4.125-7.539 2.34-3.946 6.548-6.363 11.179-6.363 6.263 0 11.599 4.481 12.757 10.549-1.601.55-3.059 1.497-4.211 2.784l1.49 1.334c1.518-1.695 3.692-2.667 5.964-2.667 4.411 0 8 3.589 8 8 0 3.702-2.513 6.847-6 7.74v-2.74c0-2.757-2.243-5-5-5h-36c-2.757 0-5 2.243-5 5v3c-3.309 0-6-2.691-6-6zm32.403 16.888c-.587-.328-1.226-.574-1.901-.722l9.719-9.071c.463-.433 1.014-.747 1.608-.925-.178.595-.492 1.145-.925 1.609zm-4.807-.746c-2.868.586-5.095 2.935-5.516 5.858h-2.021c.5-4.493 4.317-8 8.941-8 .278 0 .551.036.826.061zm1.404 1.858c2.414 0 4.434 1.721 4.899 4h-9.798c.465-2.279 2.485-4 4.899-4zm6.679 2.906c-.334-1.064-.918-2.018-1.68-2.797l1.367-1.464c.947.949 1.667 2.098 2.113 3.355h-.893zm3.901-.906c-.516-1.82-1.5-3.483-2.849-4.818l5.635-6.037c1.054-1.129 1.634-2.601 1.634-4.145v-1h-1c-1.544 0-3.016.58-4.144 1.634l-7.18 6.701c-.872-.219-1.769-.335-2.676-.335-5.728 0-10.442 4.402-10.949 10h-10.051v-19c0-1.654 1.346-3 3-3h36c1.654 0 3 1.346 3 3v17zm1.249 16h-23.658c.413-1.164 1.525-2 2.829-2h18c1.304 0 2.416.836 2.829 2zm-5.829-4h-12v-2h12zm12-4h-36c-1.654 0-3-1.346-3-3v-1h27.414l2-2h12.586v3c0 1.654-1.346 3-3 3z"/><path d="m13 27h14v2h-14z"/><path d="m13 31h14v2h-14z"/><path d="m13 35h14v2h-14z"/><path d="m13 39h2v2h-2z"/><path d="m17 39h2v2h-2z"/><path d="m21 39h2v2h-2z"/><path d="m49 41h2v2h-2z"/><path d="m49 37h2v2h-2z"/><path d="m49 33h2v2h-2z"/><path d="m37 7v-2c-3.493 0-6.7 1.604-8.8 4.399l1.6 1.201c1.718-2.288 4.343-3.6 7.2-3.6z"/><path d="m24 18h2c0-3.86-3.14-7-7-7v2c2.757 0 5 2.243 5 5z"/><path d="m57 23h2c0-3.309-2.691-6-6-6v2c2.206 0 4 1.794 4 4z"/><path d="m61 57.184v-16.184h-2v16.184c-1.161.414-2 1.514-2 2.816 0 1.654 1.346 3 3 3s3-1.346 3-3c0-1.302-.839-2.402-2-2.816zm-1 3.816c-.551 0-1-.448-1-1s.449-1 1-1 1 .448 1 1-.449 1-1 1z"/><path d="m59 37h2v2h-2z"/><path d="m59 33h2v2h-2z"/><path d="m5 57.184v-16.184h-2v16.184c-1.161.414-2 1.514-2 2.816 0 1.654 1.346 3 3 3s3-1.346 3-3c0-1.302-.839-2.402-2-2.816zm-1 3.816c-.551 0-1-.448-1-1s.449-1 1-1 1 .448 1 1-.449 1-1 1z"/><path d="m3 37h2v2h-2z"/><path d="m3 33h2v2h-2z"/></svg>