<svg clip-rule="evenodd" fill-rule="evenodd" stroke-linejoin="round" stroke-miterlimit="2" viewBox="0 0 32 32" xmlns="http://www.w3.org/2000/svg"><g transform="translate(-432 -48)"><g transform="matrix(1.223 0 0 .796 314.618 -23.591)"><path d="m104.135 105.689-.821-2.197c-.073-.196-.208-.316-.355-.316h-3.172c-.225 0-.409-.281-.409-.628s.184-.629.409-.629h3.172c.439 0 .845.361 1.064.946l.745 1.996 2.24.001c-.351-1.409-.551-2.95-.551-4.399 0-4.976 2.262-7.97 5.041-7.97s5.042 2.994 5.042 7.97c0 1.451-.201 2.995-.553 4.407l1.5.001c.371 0 .721.258.954.702s.322 1.025.244 1.583l-1.154 8.184c-.191 1.349-.931 2.349-1.826 2.465 0 0-7.596.987-7.603.988l-2.568.333c-.057.008-.112-.003-.164-.03-.252.147-.429.522-.429.957v.004c0 .396.102.776.284 1.056.183.28.43.438.688.437l11.729-.024c.225 0 .409.281.409.628s-.182.629-.408.629l-11.729.024c-.475.001-.93-.288-1.266-.804s-.525-1.216-.525-1.946v-.004c0-.95.38-1.772.924-2.112zm3.238.43-2.383-.001.865 11.627 2.197-.207 7.584-.985c.537-.07.981-.67 1.096-1.479l1.154-8.185c.026-.186-.004-.379-.081-.527-.078-.148-.195-.234-.318-.234l-1.866-.002c-.465 1.38-1.081 2.536-1.792 3.205-.018.104-.068.402-.088.656-.045.58-.058 1.316-.059 1.987v.002c0 .258.001.505.004.731 0 .024 0 .048-.002.071-.058.936-.567 1.652-1.177 1.661-.6.049-1.408.049-2.006.049-.631-.001-1.159-.739-1.22-1.705-.002-.031-.002-.062-.001-.092.027-.813.032-1.909-.027-2.707-.018-.253-.068-.549-.086-.653-.712-.67-1.329-1.829-1.794-3.212zm7.748-1.25c.383-1.381.601-2.951.601-4.406 0-4.181-1.889-6.713-4.224-6.713s-4.224 2.532-4.224 6.713c0 1.452.217 3.021.6 4.4.122.442.261.864.416 1.257.371.944.831 1.718 1.354 2.185l.109.127.103.2c.022.056.044.123.064.2h3.156c.02-.077.042-.144.065-.2l.103-.2.108-.127c.523-.466.981-1.238 1.352-2.18.155-.392.295-.815.417-1.256zm-5.019 7.734c-.001.034-.002.069-.003.102.032.301.202.526.403.526.587 0 1.384 0 1.971-.048h.022c.187 0 .345-.212.373-.493 0-.029-.001-.058-.001-.087zm-.021-2.514c.021.388.032.823.034 1.257h2.755c.006-.433.02-.868.043-1.257zm1.417-8.426c-1.141 0-2.039-1.274-2.039-2.782 0-1.323.691-2.466 1.63-2.727v-.659c0-.346.184-.628.409-.628.226 0 .409.282.409.628v.659c.939.261 1.63 1.404 1.63 2.727 0 .346-.183.628-.409.628-.225 0-.409-.282-.409-.628 0-.871-.562-1.526-1.221-1.526-.658 0-1.221.655-1.221 1.526 0 .87.563 1.525 1.221 1.525 1.141 0 2.039 1.275 2.039 2.783 0 .624-.154 1.208-.415 1.678-.292.527-.719.911-1.215 1.049v.658c0 .347-.183.629-.409.629-.225 0-.409-.282-.409-.629v-.658c-.497-.138-.924-.523-1.216-1.051-.261-.47-.414-1.053-.414-1.676 0-.347.184-.628.409-.628.226 0 .409.281.409.628 0 .871.563 1.526 1.221 1.526.659 0 1.221-.655 1.221-1.526 0-.87-.562-1.526-1.221-1.526zm2.847 21.179c.869 0 1.575 1.085 1.575 2.422 0 1.336-.706 2.421-1.575 2.421-.87 0-1.575-1.085-1.575-2.421 0-1.337.705-2.422 1.575-2.422zm0 1.257c-.418 0-.758.522-.758 1.165 0 .642.34 1.164.758 1.164s.757-.522.757-1.164c0-.643-.339-1.165-.757-1.165zm-7.434-1.257c.869 0 1.575 1.085 1.575 2.422 0 1.336-.706 2.421-1.575 2.421s-1.575-1.085-1.575-2.421c0-1.337.706-2.422 1.575-2.422zm0 1.257c-.418 0-.757.522-.757 1.165 0 .642.339 1.164.757 1.164s.757-.522.757-1.164c0-.643-.339-1.165-.757-1.165z"/></g></g></svg>