<svg id="Layer_1" viewBox="0 0 512 512" xmlns="http://www.w3.org/2000/svg" data-name="Layer 1"><path d="m339.509 308.165-10.31 12.026 10.31 12.026c2.517 2.936 2.178 7.355-.759 9.872-1.32 1.132-2.94 1.687-4.554 1.687-1.973 0-3.934-.829-5.318-2.445l-8.9-10.382-8.9 10.382c-1.385 1.615-3.346 2.445-5.318 2.445-1.613 0-3.233-.555-4.554-1.687-2.937-2.517-3.275-6.937-.759-9.872l10.31-12.026-10.31-12.026c-2.517-2.936-2.178-7.355.759-9.872 2.934-2.517 7.354-2.179 9.872.759l8.9 10.382 8.9-10.382c2.518-2.936 6.938-3.274 9.872-.759 2.937 2.517 3.275 6.937.759 9.872zm74.764-237.536v394.384c0 7.706-6.257 13.976-13.947 13.976h-254.384c-6.327 14.132-20.521 24.009-36.989 24.009-22.336 0-40.508-18.159-40.508-40.479v-32.995c0-3.867 3.135-7.002 7.002-7.002h3.43v-57.883c-40.432-12.569-69.874-50.334-69.874-94.847 0-46.062 31.509-84.896 74.098-96.082v-103.081c0-7.69 6.257-13.947 13.947-13.947h75.486v-3.231c0-7.189 5.85-13.039 13.039-13.039h25.357c3.3-17.848 18.981-31.408 37.771-31.408s34.471 13.561 37.771 31.408h25.329c7.205 0 13.067 5.85 13.067 13.039v3.231h75.458c7.69 0 13.947 6.257 13.947 13.947zm-227.735 37.445h124.326v-53.659h-30.755c-3.867 0-7.002-3.135-7.002-7.002 0-13.458-10.948-24.406-24.406-24.406s-24.406 10.948-24.406 24.406c0 3.867-3.135 7.002-7.002 7.002h-30.755zm-89.438 63.026c3.678-.415 7.414-.636 11.201-.636s7.54.222 11.226.638v-71.391c0-4.361 3.548-7.909 7.909-7.909h45.099v-21.117h-75.486l.052 100.415zm38.357 265.425h-53.008v25.993c0 14.599 11.89 26.475 26.504 26.475s26.504-11.876 26.504-26.475zm-10.403-14.004v-54.852c-5.448.929-11.044 1.42-16.753 1.42-5.244 0-10.393-.412-15.42-1.199v54.632h32.173zm68.57-152.73c0-47.047-38.275-85.322-85.323-85.322s-85.294 38.275-85.294 85.322 38.263 85.294 85.294 85.294 85.323-38.263 85.323-85.294zm-14.72-69.79h148.288v-47.564h-156.982v39.742c3.049 2.437 5.953 5.049 8.694 7.822zm-39.847 222.521h3.401c3.867 0 7.002 3.135 7.002 7.002v.34h214.411v-324.057h-39.004v3.203c0 7.206-5.862 13.068-13.067 13.068h-126.228c-7.189 0-13.039-5.862-13.039-13.068v-3.203h-39.004v67.909c7.995 2.101 15.597 5.177 22.676 9.091v-37.371c0-3.867 3.135-7.002 7.002-7.002h170.986c3.867 0 7.002 3.135 7.002 7.002v61.568c0 3.867-3.135 7.002-7.002 7.002h-143.755c10.842 15.913 17.188 35.121 17.188 55.786 0 44.025-28.811 81.443-68.57 94.419v58.312zm261.269 42.463-.057-394.355-75.401.052v21.122h45.1c4.36 0 7.908 3.548 7.908 7.909v336.246c0 4.361-3.548 7.909-7.908 7.909h-220.507v18.651c0 .829-.033 1.649-.082 2.466h250.948zm-116.028-200.503 17.547 11.85c1.195.808 2.561 1.199 3.914 1.199 1.982 0 3.942-.84 5.317-2.442l28.432-33.138c2.519-2.936 2.181-7.355-.754-9.873-2.936-2.52-7.355-2.18-9.873.754l-24.37 28.403-12.377-8.358c-3.206-2.164-7.557-1.32-9.721 1.885-2.164 3.204-1.32 7.557 1.885 9.721zm-121.09 148.998h104.315c3.867 0 7.002-3.135 7.002-7.002s-3.135-7.002-7.002-7.002h-104.315c-3.867 0-7.002 3.135-7.002 7.002s3.135 7.002 7.002 7.002zm104.315-146.438h-42.889c-3.867 0-7.002 3.135-7.002 7.002s3.135 7.002 7.002 7.002h42.889c3.867 0 7.002-3.135 7.002-7.002s-3.135-7.002-7.002-7.002zm-50.91 52.47h50.91c3.867 0 7.002-3.135 7.002-7.002s-3.135-7.002-7.002-7.002h-50.91c-3.867 0-7.002 3.135-7.002 7.002s3.135 7.002 7.002 7.002zm-15.647 27.751h66.558c3.867 0 7.002-3.135 7.002-7.002s-3.135-7.002-7.002-7.002h-66.558c-3.867 0-7.002 3.135-7.002 7.002s3.135 7.002 7.002 7.002zm83.332 49.683 17.547 11.85c1.195.808 2.561 1.199 3.914 1.199 1.983 0 3.944-.841 5.319-2.445l28.432-33.166c2.517-2.936 2.177-7.355-.759-9.872-2.935-2.515-7.354-2.178-9.872.759l-24.37 28.428-12.375-8.357c-3.205-2.165-7.557-1.319-9.721 1.885s-1.32 7.557 1.885 9.721zm-121.09-11.216h104.315c3.867 0 7.002-3.135 7.002-7.002s-3.135-7.002-7.002-7.002h-104.315c-3.867 0-7.002 3.135-7.002 7.002s3.135 7.002 7.002 7.002zm59.131-132.435h45.185c3.867 0 7.002-3.135 7.002-7.002s-3.135-7.002-7.002-7.002h-45.185c-3.867 0-7.002 3.135-7.002 7.002s3.135 7.002 7.002 7.002zm280.659-134.138v253.56c0 1.252-.336 2.48-.972 3.558l-27.865 47.226c-1.259 2.134-3.552 3.443-6.028 3.444-2.478 0-4.771-1.309-6.03-3.441l-27.893-47.226c-.638-1.078-.974-2.308-.974-3.561v-253.56c0-19.225 15.653-34.866 34.895-34.866s34.867 15.642 34.867 34.866zm-19.263 260.562h-31.229l15.622 26.451zm5.26-202.507h-41.754v188.503h41.754zm0-25.994h-41.754v11.99h41.754zm0-32.061c0-11.504-9.359-20.862-20.863-20.862s-20.891 9.358-20.891 20.862v18.057h41.754zm-349.15 125.844c-2.934-2.516-7.354-2.177-9.872.759l-29.3 34.178-15.405-10.419c-3.206-2.168-7.556-1.324-9.723 1.877-2.166 3.203-1.326 7.557 1.877 9.723l20.579 13.918c1.197.81 2.563 1.202 3.919 1.202 1.983 0 3.944-.841 5.319-2.445l33.364-38.92c2.517-2.936 2.178-7.355-.759-9.872zm23.359 56.471c-8.46 14.667-22.127 25.16-38.482 29.546-5.466 1.466-11.014 2.191-16.523 2.191-10.979 0-21.812-2.879-31.573-8.514-30.278-17.493-40.698-56.346-23.228-86.609 8.477-14.673 22.154-25.165 38.513-29.547 16.36-4.384 33.444-2.128 48.102 6.351 14.667 8.457 25.162 22.127 29.544 38.488 4.381 16.356 2.125 33.437-6.352 48.094zm-7.175-44.471c-3.414-12.745-11.589-23.394-23.021-29.985-7.613-4.403-16.063-6.652-24.625-6.652-4.286 0-8.599.563-12.851 1.702-12.747 3.414-23.404 11.591-30.01 23.023-13.61 23.577-5.488 53.85 18.105 67.48 11.417 6.591 24.725 8.341 37.465 4.923 12.745-3.418 23.394-11.594 29.984-23.023.002-.002.003-.005.005-.007 6.602-11.417 8.358-24.721 4.946-37.461z"/></svg>