<svg id="outline" height="512" viewBox="0 0 512 512" width="512" xmlns="http://www.w3.org/2000/svg"><g><path d="m473 80h-9v-46c0-9.925-8.075-18-18-18h-380c-9.925 0-18 8.075-18 18v46h-9c-12.683 0-23 10.318-23 23v290c0 12.682 10.317 23 23 23h168.57l-10.667 32h-33.241c-19.664 0-35.662 15.998-35.662 35.663 0 6.803 5.534 12.337 12.337 12.337h231.326c6.803 0 12.337-5.535 12.337-12.337 0-19.665-15.998-35.663-35.662-35.663h-33.241l-10.667-32h76.095l30.792 62.193c5.577 11.263 16.938 17.798 28.729 17.798 4.763 0 9.597-1.067 14.146-3.319 15.812-7.829 22.308-27.063 14.479-42.876l-16.732-33.796h21.061c12.683 0 23-10.318 23-23v-290c0-12.682-10.317-23-23-23zm-249-48h222c1.103 0 2 .897 2 2v30h-224zm-160 2c0-1.103.897-2 2-2h142v32h-144zm0 46h384v238c0 1.103-.897 2-2 2h-14.119c4.737-10.796 7.373-22.715 7.373-35.24 0-48.523-39.477-88-88-88-45.171 0-82.495 34.212-87.438 78.084-2.669-41.717-37.438-74.844-79.816-74.844-4.418 0-8 3.582-8 8v72c0 4.418 3.582 8 8 8h72c3.232 0 6.01-1.921 7.272-4.68-.008.48-.018.959-.018 1.44 0 12.525 2.636 24.444 7.373 35.24h-32.246c1.067-5.246 1.619-10.595 1.619-16 0-4.418-3.582-8-8-8h-64v-64c0-4.418-3.582-8-8-8-44.112 0-80 35.888-80 80 0 5.405.552 10.754 1.619 16h-15.619c-1.103 0-2-.897-2-2zm183.503 192h-55.503v-55.502c28.905 3.621 51.881 26.597 55.503 55.502zm-87.503 40h63.504c-.337 2.699-.845 5.368-1.522 8h-123.963c-1.341-5.209-2.019-10.569-2.019-16 0-32.58 24.473-59.553 56-63.502v63.502c0 4.418 3.582 8 8 8zm-128-209c0-3.86 3.141-7 7-7h9v222c0 9.925 8.075 18 18 18h213.753c4.258 5.925 9.235 11.3 14.8 16h-262.553zm316.338 361c9.591 0 17.6 6.902 19.32 16h-223.316c1.721-9.098 9.729-16 19.32-16zm-134.568-16 10.667-32h63.127l10.667 32zm162.121-59.389c-1.901.941-3.351 2.6-4.029 4.61-.68 2.01-.531 4.208.41 6.109l.332.67h-79.407c-.011 0-.022 0-.033 0h-254.164c-3.859 0-7-3.14-7-7v-25h290.696c8.959 3.082 18.566 4.76 28.558 4.76 5.485 0 10.852-.509 16.062-1.474zm-24.637-31.851c-39.701 0-72-32.299-72-72s32.299-72 72-72 72 32.299 72 72-32.299 72-72 72zm46.041 2.964 7.275 14.687-14.339 7.099-7.26-14.667c5.011-1.943 9.802-4.332 14.324-7.119zm57.038 97.171c3.915 7.907.667 17.524-7.239 21.438-7.905 3.914-17.522.667-21.438-7.24l-35.497-71.693 28.678-14.198zm25.667-63.895c0 3.86-3.141 7-7 7h-28.982l-14.392-29.067c-.598-1.208-1.463-2.195-2.485-2.933h52.859zm0-41h-68.677l-1.017-2.052c4.623-4.192 8.798-8.869 12.448-13.948h23.246c9.925 0 18-8.075 18-18v-222h9c3.859 0 7 3.14 7 7z"/><path d="m288 376h-64c-4.418 0-8 3.582-8 8s3.582 8 8 8h64c4.418 0 8-3.582 8-8s-3.582-8-8-8z"/><path d="m336 376h-16c-4.418 0-8 3.582-8 8s3.582 8 8 8h16c4.418 0 8-3.582 8-8s-3.582-8-8-8z"/><path d="m192 376h-16c-4.418 0-8 3.582-8 8s3.582 8 8 8h16c4.418 0 8-3.582 8-8s-3.582-8-8-8z"/><path d="m88 56h16c4.418 0 8-3.582 8-8s-3.582-8-8-8h-16c-4.418 0-8 3.582-8 8s3.582 8 8 8z"/><path d="m128 56h16c4.418 0 8-3.582 8-8s-3.582-8-8-8h-16c-4.418 0-8 3.582-8 8s3.582 8 8 8z"/><path d="m168 56h16c4.418 0 8-3.582 8-8s-3.582-8-8-8h-16c-4.418 0-8 3.582-8 8s3.582 8 8 8z"/><path d="m232 192c4.418 0 8-3.582 8-8s-3.582-8-8-8h-8v-80c0-3.236-1.949-6.153-4.938-7.391-2.991-1.239-6.43-.553-8.719 1.734l-26.343 26.344-10.343-10.343c-3.125-3.124-8.189-3.124-11.314 0l-26.343 26.343-10.343-10.343c-3.125-3.124-8.189-3.124-11.314 0l-18.343 18.342v-36.686c0-4.418-3.582-8-8-8s-8 3.582-8 8v56 24c0 4.418 3.582 8 8 8h128zm-136-16v-12.687l24-24 10.343 10.343c3.125 3.124 8.189 3.124 11.314 0l26.343-26.343 10.343 10.343c3.125 3.124 8.189 3.124 11.314 0l18.343-18.343v60.687z"/><path d="m296 192h32 32 32 32c4.418 0 8-3.582 8-8v-88c0-4.418-3.582-8-8-8h-32c-4.418 0-8 3.582-8 8v16h-16v-8c0-4.418-3.582-8-8-8h-32c-4.418 0-8 3.582-8 8v24h-24c-4.418 0-8 3.582-8 8v48c0 4.418 3.582 8 8 8zm104-88h16v72h-16v-56zm-16 24v48h-16v-48zm-48-16h16v8 56h-16v-40zm-32 32h16v32h-16z"/><path d="m405.657 250.343c-3.125-3.124-8.189-3.124-11.314 0l-58.343 58.344-26.343-26.343c-3.125-3.124-8.189-3.124-11.314 0-3.124 3.124-3.124 8.189 0 11.313l32 32c1.562 1.562 3.609 2.343 5.657 2.343s4.095-.781 5.657-2.343l64-64c3.124-3.124 3.124-8.19 0-11.314z"/><path d="m240 56h24c4.418 0 8-3.582 8-8s-3.582-8-8-8h-24c-4.418 0-8 3.582-8 8s3.582 8 8 8z"/><path d="m296 56h88c4.418 0 8-3.582 8-8s-3.582-8-8-8h-88c-4.418 0-8 3.582-8 8s3.582 8 8 8z"/><path d="m416 56h16c4.418 0 8-3.582 8-8s-3.582-8-8-8h-16c-4.418 0-8 3.582-8 8s3.582 8 8 8z"/></g></svg>