<svg id="Line" viewBox="0 0 64 64" xmlns="http://www.w3.org/2000/svg"><path d="m43.08 34.21v-4.42a.73.73 0 0 0 -.73-.73h-3.26l2.3-2.3a.72.72 0 0 0 0-1l-3.12-3.12a.72.72 0 0 0 -1 0l-2.3 2.3v-3.29a.73.73 0 0 0 -.73-.73h-4.45a.73.73 0 0 0 -.73.73v3.26l-2.3-2.3a.74.74 0 0 0 -1 0l-3.12 3.12a.72.72 0 0 0 0 1l2.3 2.3h-3.29a.73.73 0 0 0 -.73.73v4.42a.73.73 0 0 0 .73.73h3.26l-2.3 2.3a.72.72 0 0 0 0 1l3.12 3.13a.74.74 0 0 0 1 0l2.3-2.3v3.25a.73.73 0 0 0 .73.73h4.42a.73.73 0 0 0 .73-.73v-3.19l2.3 2.3a.76.76 0 0 0 1 0l3.12-3.13a.72.72 0 0 0 0-1l-2.3-2.3h3.26a.73.73 0 0 0 .79-.76zm-1.46-.73h-3.62a.73.73 0 0 0 -.69.48c-.16.4-.4.88 0 1.24l2.56 2.56-2.09 2.09-2.58-2.56a.72.72 0 0 0 -.82-.14c-.41.15-.92.32-.9.85v3.62h-3v-3.62a.73.73 0 0 0 -.48-.69c-.4-.16-.88-.4-1.24 0l-2.55 2.56-2.1-2.09 2.56-2.56a.75.75 0 0 0 .15-.82c-.16-.41-.33-.92-.86-.9h-3.58v-3h3.62a.73.73 0 0 0 .69-.48c.16-.4.4-.88 0-1.24l-2.56-2.55 2.1-2.1 2.55 2.56a.74.74 0 0 0 .82.15c.41-.16.92-.33.9-.86v-3.6h3v3.62a.74.74 0 0 0 .47.69c.41.17.89.4 1.25 0l2.56-2.56 2.09 2.1-2.58 2.57c-.38.36-.14.84 0 1.24a.73.73 0 0 0 .69.48h3.62z"/><path d="m32 28.18a3.83 3.83 0 0 0 0 7.65 3.83 3.83 0 0 0 0-7.65zm0 6.19a2.37 2.37 0 0 1 0-4.73 2.37 2.37 0 0 1 0 4.73z"/><path d="m41.09 18.94a2.7 2.7 0 0 0 1.7 2.32l2.27.93.41 2.75a.73.73 0 0 0 .72.62h6.63a.73.73 0 0 0 .72-.62l.4-2.65 2.27-1a2.74 2.74 0 0 0 1.71-2.29l.24-2.81a2.72 2.72 0 0 0 -1.47-2.68l-3.57-1.93a4.27 4.27 0 1 0 -7.89-2.25 4.21 4.21 0 0 0 .66 2.25l-3.56 1.92a2.76 2.76 0 0 0 -1.49 2.69zm11.1 5.16h-5.37l-.63-4.2h6.63zm-2.69-17.64a2.82 2.82 0 0 1 0 5.64 2.82 2.82 0 0 1 0-5.64zm-6.5 8.28 3.88-2.09a4.18 4.18 0 0 0 5.21 0l3.9 2.1a1.3 1.3 0 0 1 .7 1.27l-.24 2.8c0 1-1.55 1.37-2.28 1.75.05-.69.63-2.05-.52-2.13h-8.31a.73.73 0 0 0 -.55.25c-.37.35 0 1.4 0 1.82-.74-.36-2.26-.61-2.27-1.69l-.22-2.82a1.3 1.3 0 0 1 .7-1.26z"/><path d="m49 23.78a.74.74 0 0 0 1 0l1.26-1.27a.72.72 0 0 0 0-1l-1.26-1.29a.76.76 0 0 0 -1 0l-1.26 1.26a.72.72 0 0 0 0 1zm.51-2 .24.23-.24.23-.24-.24z"/><path d="m56.69 46.9-3.57-1.9a4.27 4.27 0 1 0 -7.23 0l-3.56 1.9a2.75 2.75 0 0 0 -1.49 2.68l.25 2.8a2.7 2.7 0 0 0 1.7 2.32l2.27.94.41 2.74a.72.72 0 0 0 .72.62h6.63a.72.72 0 0 0 .72-.62l.4-2.65 2.27-1a2.74 2.74 0 0 0 1.71-2.32l.24-2.81a2.73 2.73 0 0 0 -1.47-2.7zm-7.19-7a2.82 2.82 0 0 1 0 5.64 2.82 2.82 0 0 1 0-5.64zm2.69 17.64h-5.37l-.63-4.2h6.63zm4.28-5.27c0 1-1.55 1.36-2.28 1.75.05-.69.63-2.06-.52-2.14h-8.33a.74.74 0 0 0 -.72.84l.19 1.28c-.74-.37-2.26-.62-2.27-1.7l-.24-2.81a1.28 1.28 0 0 1 .7-1.3l3.88-2.1a4.18 4.18 0 0 0 5.21 0l3.9 2.1a1.3 1.3 0 0 1 .7 1.27z"/><path d="m49 57.22a.74.74 0 0 0 1 0l1.28-1.22a.72.72 0 0 0 0-1l-1.28-1.34a.76.76 0 0 0 -1 0l-1.26 1.27a.72.72 0 0 0 0 1zm.51-2 .24.23-.24.23-.23-.23z"/><path d="m6.08 18.94a2.69 2.69 0 0 0 1.71 2.32l2.26.93.41 2.75a.74.74 0 0 0 .72.62h6.63a.75.75 0 0 0 .73-.62l.39-2.65 2.27-1a2.74 2.74 0 0 0 1.71-2.29l.25-2.81a2.74 2.74 0 0 0 -1.48-2.68l-3.56-1.93a4.27 4.27 0 1 0 -7.9-2.25 4.21 4.21 0 0 0 .66 2.25l-3.55 1.87a2.74 2.74 0 0 0 -1.49 2.69zm11.1 5.16h-5.37l-.63-4.2h6.63zm-2.68-17.64a2.82 2.82 0 0 1 0 5.64 2.82 2.82 0 0 1 0-5.64zm-6.5 8.28 3.88-2.09a4.18 4.18 0 0 0 5.21 0l3.9 2.1a1.29 1.29 0 0 1 .71 1.25l-.24 2.8c0 1-1.55 1.37-2.27 1.75 0-.69.62-2.05-.53-2.13h-8.32a.75.75 0 0 0 -.56.25c-.37.35 0 1.4 0 1.82-.74-.36-2.26-.61-2.26-1.69l-.23-2.8a1.32 1.32 0 0 1 .71-1.26z"/><path d="m14 23.78a.74.74 0 0 0 1 0l1.27-1.27a.74.74 0 0 0 0-1l-1.27-1.29a.76.76 0 0 0 -1 0l-1.26 1.26a.74.74 0 0 0 0 1zm.52-2 .23.23-.23.23-.25-.24z"/><path d="m21.68 46.9-3.56-1.9a4.27 4.27 0 1 0 -7.24 0l-3.55 1.9a2.73 2.73 0 0 0 -1.49 2.68l.24 2.8a2.69 2.69 0 0 0 1.71 2.32l2.26.94.41 2.74a.73.73 0 0 0 .72.62h6.63a.74.74 0 0 0 .73-.62l.39-2.65 2.27-1a2.74 2.74 0 0 0 1.71-2.32l.25-2.81a2.75 2.75 0 0 0 -1.48-2.7zm-7.18-7a2.82 2.82 0 0 1 0 5.64 2.82 2.82 0 0 1 0-5.64zm2.68 17.64h-5.37l-.63-4.2h6.63zm4.28-5.27c0 1-1.55 1.36-2.27 1.75 0-.69.62-2.06-.53-2.14h-8.32a.73.73 0 0 0 -.72.84l.18 1.28c-.74-.37-2.26-.62-2.26-1.7l-.25-2.81a1.29 1.29 0 0 1 .71-1.3l3.88-2.1a4.18 4.18 0 0 0 5.21 0l3.9 2.1a1.29 1.29 0 0 1 .7 1.27z"/><path d="m14 57.22a.74.74 0 0 0 1 0l1.28-1.22a.74.74 0 0 0 0-1l-1.28-1.34a.76.76 0 0 0 -1 0l-1.26 1.27a.74.74 0 0 0 0 1zm.52-2 .23.23-.23.23-.23-.23z"/><path d="m32.73 45.02h-1.46v6.67h-7.05v1.46h15.56v-1.46h-7.05z"/><path d="m31.27 14.07h1.46v-1.76h7.05v-1.46h-15.56v1.46h7.05z"/><path d="m31.27 16.78h1.46v2.2h-1.46z"/><path d="m31.22 14.74h1.56v1.56h-1.56z"/></svg>