<svg id="Layer_1" enable-background="new 0 0 512 512" viewBox="0 0 512 512" xmlns="http://www.w3.org/2000/svg"><path clip-rule="evenodd" d="m428.239 110.377c-7.532-46.054-47.276-80.151-94.529-80.151-9.443 0-18.728 1.363-27.666 4.058-19.241-16.987-43.763-26.286-69.583-26.286-58.037 0-105.253 47.216-105.253 105.253 0 .184.001.369.002.555-23.132 11.712-37.792 35.244-37.792 61.409 0 37.965 30.887 68.853 68.853 68.853h46.557c-.032.105-.071.208-.102.314l-9.766 3.759c-3.088 1.189-5.126 4.157-5.126 7.466v22.157c0 3.31 2.038 6.277 5.126 7.466l9.764 3.758c1.539 5.181 3.611 10.179 6.191 14.935l-4.249 9.567c-1.343 3.024-.686 6.563 1.654 8.904l15.667 15.667c2.341 2.34 5.879 2.998 8.904 1.655l9.572-4.251c4.756 2.58 9.752 4.651 14.929 6.189l3.76 9.767c1.188 3.089 4.156 5.126 7.466 5.126h22.157c3.31 0 6.277-2.038 7.466-5.126l3.758-9.764c5.181-1.539 10.18-3.611 14.936-6.191l9.566 4.249c3.025 1.345 6.564.686 8.904-1.654l15.668-15.668c2.34-2.34 2.997-5.879 1.654-8.904l-4.251-9.572c2.579-4.754 4.65-9.751 6.189-14.929l9.767-3.759c3.088-1.188 5.126-4.156 5.126-7.466v-22.158c0-3.31-2.038-6.277-5.126-7.466l-9.763-3.758c-.032-.106-.071-.209-.103-.315h46.555c37.966 0 68.853-30.887 68.853-68.853.001-29.171-18.555-55.106-45.735-64.836zm-70.68 161.893-8.439 3.249c-2.461.947-4.298 3.047-4.908 5.613-1.524 6.401-4.052 12.497-7.512 18.116-1.383 2.247-1.569 5.03-.499 7.441l3.675 8.273-7.899 7.9-8.27-3.672c-2.409-1.071-5.194-.885-7.442.5-5.619 3.46-11.715 5.988-18.119 7.511-2.566.61-4.667 2.447-5.614 4.909l-3.248 8.437h-11.171l-3.249-8.439c-.947-2.462-3.048-4.298-5.613-4.909-6.4-1.523-12.496-4.05-18.116-7.51-2.248-1.384-5.032-1.568-7.441-.5l-8.273 3.675-7.899-7.9 3.673-8.27c1.071-2.412.884-5.196-.5-7.442-3.46-5.618-5.987-11.714-7.513-18.12-.61-2.566-2.446-4.666-4.908-5.613l-8.437-3.248v-11.172l8.438-3.249c2.461-.947 4.298-3.047 4.908-5.613 1.524-6.403 4.052-12.499 7.512-18.116 1.384-2.247 1.57-5.031.5-7.442l-3.674-8.272 7.899-7.9 8.273 3.675c2.409 1.07 5.195.885 7.441-.5 5.621-3.461 11.716-5.988 18.115-7.51 2.566-.61 4.667-2.447 5.614-4.909l3.249-8.439h11.171l3.249 8.439c.947 2.462 3.048 4.298 5.614 4.909 6.399 1.522 12.494 4.049 18.114 7.51 2.246 1.384 5.031 1.569 7.441.5l8.274-3.675 7.899 7.9-3.673 8.269c-1.07 2.411-.884 5.195.5 7.442 3.461 5.621 5.988 11.718 7.511 18.12.611 2.567 2.447 4.667 4.909 5.615l8.437 3.247v11.17zm47.563-44.203h-52.031l3.636-8.187c1.343-3.024.686-6.564-1.654-8.904l-15.668-15.668c-2.34-2.34-5.879-2.998-8.904-1.655l-9.572 4.251c-4.755-2.58-9.751-4.651-14.928-6.189l-3.76-9.767c-1.188-3.089-4.156-5.126-7.466-5.126h-22.157c-3.31 0-6.277 2.038-7.466 5.126l-3.76 9.766c-5.178 1.538-10.173 3.609-14.929 6.19l-9.572-4.251c-3.023-1.343-6.564-.686-8.904 1.655l-15.667 15.668c-2.34 2.34-2.997 5.879-1.654 8.904l3.636 8.187h-52.031c-29.143 0-52.853-23.709-52.853-52.853 0-21.528 12.948-40.741 32.986-48.947 3.16-1.294 5.151-4.452 4.956-7.861-.102-1.76-.152-3.495-.152-5.156 0-49.214 40.039-89.253 89.253-89.253 23.281 0 45.318 8.916 62.051 25.106 2.189 2.119 5.392 2.808 8.264 1.781 8.619-3.091 17.682-4.659 26.935-4.659 40.84 0 74.946 30.573 79.334 71.115.354 3.273 2.677 5.995 5.854 6.859 23.008 6.258 39.077 27.236 39.077 51.014-.001 29.144-23.711 52.854-52.854 52.854zm-56.381 126.07-67.165 39.121c-1.771 1.031-3.562 1.895-5.384 2.592.417-1.06.781-2.165 1.089-3.314 3.714-13.864-4.492-28.327-18.682-32.928-.343-.11-.692-.198-1.047-.263-19.135-3.451-38.097-10.307-53.334-15.815-5.334-1.929-10.373-3.75-14.677-5.146-17.962-5.828-34.004 1.277-47.331 8.993l-48.187 27.899-3.697-6.532c-2.348-4.148-6.181-7.138-10.793-8.416-4.61-1.278-9.437-.689-13.586 1.659l-18.846 10.666c-4.148 2.348-7.138 6.181-8.416 10.793s-.689 9.437 1.659 13.586l55.404 97.896c3.287 5.809 9.356 9.074 15.598 9.074 2.983 0 6.005-.746 8.781-2.317l18.846-10.666c4.148-2.348 7.138-6.181 8.416-10.793s.689-9.437-1.659-13.586l-4.716-8.333 8.908-5.143 85.209 22.831c4.927 1.32 9.83 1.977 14.652 1.977 9.759 0 19.187-2.688 27.807-7.994l121.89-75.055c12.01-7.395 15.858-25.963 8.076-38.958-3.758-6.276-19.109-24.953-58.815-1.828zm-216.769 121.815c-.079.286-.298.814-.878 1.143l-18.846 10.666c-.579.326-1.145.244-1.432.164-.286-.079-.814-.298-1.143-.878l-55.403-97.896c-.328-.579-.244-1.146-.164-1.432.079-.286.298-.814.878-1.143l18.846-10.666c.285-.161.6-.237.912-.237.664 0 1.318.345 1.662.951l55.404 97.896c.327.58.244 1.146.164 1.432zm259.12-94.654-121.89 75.055c-9.168 5.645-19.236 7.053-29.929 4.188l-88.41-23.688c-2.047-.549-4.232-.262-6.07.799l-11.659 6.731-31.229-55.18 48.324-27.978c14.76-8.545 24.721-10.753 34.377-7.621 4.051 1.313 8.742 3.009 14.174 4.973 15.648 5.657 35.087 12.685 55.336 16.405 5.906 2.138 9.208 7.825 7.711 13.413-1.594 5.943-6.053 8.533-13.259 7.721-9.771-2.015-19.097-4.675-28.96-7.492-4.728-1.351-9.616-2.746-14.648-4.095-4.264-1.14-8.654 1.39-9.798 5.657s1.39 8.654 5.657 9.798c4.906 1.314 9.729 2.691 14.396 4.024 10.288 2.938 20.005 5.713 30.508 7.859.05.01.259.049.316.059l8.357 1.359c12.98 2.078 24.502.046 35.232-6.202l67.166-39.121c17.971-10.467 32.161-11.915 37.036-3.777 3.28 5.478 1.873 14.274-2.738 17.113zm-312.8 11.745c.538 3.677-2.007 7.093-5.684 7.631-3.677.537-7.093-2.007-7.631-5.684-.537-3.677 2.007-7.093 5.685-7.631 3.676-.537 7.092 2.007 7.63 5.684zm205.404-173.001c-25.718 0-46.642 20.923-46.642 46.642s20.924 46.642 46.642 46.642c25.719 0 46.643-20.923 46.643-46.642s-20.924-46.642-46.643-46.642zm0 77.285c-16.896 0-30.642-13.746-30.642-30.642s13.746-30.642 30.642-30.642 30.643 13.746 30.643 30.642-13.746 30.642-30.643 30.642zm34.279-168.341c2.979 3.262 2.752 8.322-.51 11.302-3.261 2.98-8.321 2.752-11.303-.509-6.045-6.616-14.023-10.26-22.466-10.26s-16.422 3.644-22.466 10.259c-1.578 1.727-3.739 2.604-5.908 2.604-1.927 0-3.859-.692-5.394-2.094-3.263-2.98-3.491-8.041-.511-11.302 9.112-9.974 21.286-15.467 34.278-15.467 12.993.001 25.165 5.494 34.28 15.467zm18.343-20.077c2.98 3.262 2.752 8.322-.51 11.302-1.535 1.402-3.468 2.094-5.395 2.094-2.169 0-4.33-.876-5.908-2.604-10.943-11.978-25.437-18.575-40.81-18.575-15.374 0-29.866 6.597-40.81 18.575-2.98 3.261-8.041 3.489-11.302.51-3.263-2.98-3.491-8.04-.511-11.302 14.011-15.336 32.699-23.783 52.622-23.783 19.924 0 38.612 8.447 52.624 23.783zm18.343-20.076c2.979 3.262 2.752 8.322-.51 11.302-1.535 1.402-3.468 2.094-5.395 2.094-2.168 0-4.33-.876-5.908-2.604-15.844-17.341-36.852-26.891-59.152-26.891s-43.309 9.55-59.152 26.891c-2.981 3.263-8.041 3.489-11.303.51-3.262-2.98-3.489-8.04-.51-11.302 18.913-20.699 44.115-32.099 70.965-32.099s52.052 11.399 70.965 32.099zm-58.658 67.908c0 6.796-5.51 12.307-12.307 12.307s-12.307-5.51-12.307-12.307 5.51-12.307 12.307-12.307 12.307 5.51 12.307 12.307z" fill-rule="evenodd"/></svg>