<svg clip-rule="evenodd" fill-rule="evenodd" height="512" image-rendering="optimizeQuality" shape-rendering="geometricPrecision" text-rendering="geometricPrecision" viewBox="0 0 1707 1707" width="512" xmlns="http://www.w3.org/2000/svg"><g id="Layer_x0020_1"><path d="m755 1320c-14 0-26-12-26-26v-110c0-33 52-33 52 0v110c0 14-12 26-26 26zm780 58v-756c0-114-81-207-180-207h-476c20 85 25 186 2 303 36 34 105 123 90 293-2 24-35 32-48 11 0 0-50-77-116-91-16 12-36 22-58 29v99c0 27-25 26-44 26v26c0 38-31 69-69 69s-69-31-69-69v-26c-19 0-43 1-43-26v-99c-23-7-42-17-58-29-66 14-116 91-117 92-13 20-45 12-47-12-15-170 54-259 89-293-22-117-17-218 2-303h-41c-100 0-180 93-180 207v756h529c15-1 26 12 26 25v61h252v-61c0-14 13-25 27-25zm-711-975c-3-4-4-8-4-13-10-34-23-65-37-93-81 79-212 79-293 0-19 37-36 85-46 128h385c-2-8-3-15-5-22zm41-39h490c128 0 232 116 232 258v756h94c14 0 26 11 26 25 0 135-129 245-288 245h-1131c-159 0-288-110-288-245 0-14 12-25 26-25h94v-756c0-142 104-258 232-258h56c20-63 44-111 77-161 56-82 131-144 151-144 21 0 95 62 151 144 30 44 58 97 78 161zm-189 1065h-622c15 94 114 167 234 167h1131c119 0 218-73 234-167h-622v61c0 14-12 26-26 26h-304c-14 0-25-12-25-26zm-39-452c-21 0-42-2-61-5v62h121v-62c-19 3-39 5-60 5zm-199-92c-13-36-24-71-33-105-23 30-48 81-53 160 23-22 52-44 86-55zm429-105c-8 34-19 69-33 105 35 11 64 33 87 55-5-79-31-130-54-160zm-372 108c49 40 153 44 223 28 24-7 45-16 60-28 19-49 34-96 44-141-125 31-264 28-371 2 10 44 25 90 44 139zm339-198c4-27 7-53 9-79h-413c1 26 4 53 9 81 68 20 217 49 395-2zm11-130c-1-29-3-57-6-83h-405c-3 26-6 54-6 83zm-88-310c-47-74-99-118-121-135-22 17-73 61-120 135 63 73 178 73 241 0zm-103 835h-35c0 15-5 43 17 43s18-28 18-43zm598 100c-70 0-128-57-128-128s58-128 128-128c71 0 129 57 129 128s-58 128-129 128zm0-205c-42 0-76 35-76 77s34 76 76 76c43 0 77-34 77-76s-34-77-77-77zm36 326c-95 0-97 10-97-55-28-8-54-24-76-44-56 33-49 26-96-57-15-25 16-39 34-49-6-29-6-59 0-88-55-32-46-29 2-111 15-26 42-6 60 4 22-20 48-35 76-44 0-64 2-54 97-54 30 0 26 34 26 54 28 9 54 24 76 44 56-32 48-25 96 57 15 26-17 40-34 50 6 29 6 59 0 88 55 32 46 28-2 111-15 26-42 6-60-5-22 20-48 36-76 45 0 20 4 54-26 54zm-45-52h19c0-18-3-43 21-48 76-15 83-72 116-53l19 11 10-17c-16-9-39-19-31-42 25-74-21-108 12-127l19-11-10-17c-16 9-36 24-52 6-51-59-104-36-104-74v-22h-19c0 18 2 43-21 48-76 15-83 72-116 53l-19-11-10 17c16 9 38 19 31 42-25 74 21 108-12 127l-19 11 10 17c15-9 35-24 51-6 52 58 105 36 105 74zm138-679h-334c-34 0-34-52 0-52h334c33 0 33 52 0 52zm0 122h-334c-34 0-34-51 0-51h334c33 0 33 51 0 51zm-885 623c-14 0-26-12-26-26v-110c0-33 52-33 52 0v110c0 14-12 26-26 26zm129 23c-14 0-25-11-25-26v-64c0-33 51-33 51 0v64c0 15-11 26-26 26z" fill="rgb(0,0,0)"/></g></svg>