<svg clip-rule="evenodd" fill-rule="evenodd" stroke-linejoin="round" stroke-miterlimit="2" viewBox="0 0 48 48" xmlns="http://www.w3.org/2000/svg"><path id="path368" d="m12 3c-.552 0-1 .448-1 1v9c0 .552.448 1 1 1s1-.448 1-1v-8h4.383l1.722 3.447c.168.339.517.553.895.553h8c.378 0 .727-.214.895-.553l1.722-3.447h4.383v5c0 .552.448 1 1 1s1-.448 1-1v-6c0-.552-.448-1-1-1zm7.617 2h8.766l-1 2h-6.766zm16.383 8c-.532 0-1.066.038-1.594.115-.387.057-.704.334-.814.709l-.313 1.074c-.621.186-1.221.435-1.791.743l-.98-.537c-.343-.188-.764-.16-1.078.074-.856.637-1.615 1.396-2.252 2.252-.234.314-.262.735-.074 1.078l.537.98c-.308.57-.558 1.17-.743 1.791l-1.074.313c-.375.11-.652.427-.709.814-.155 1.056-.155 2.132 0 3.188.057.387.334.704.709.814l1.074.313c.186.621.435 1.221.743 1.791l-.537.98c-.188.343-.16.764.074 1.078.637.856 1.396 1.615 2.252 2.252.314.234.735.262 1.078.074l.98-.537c.57.308 1.17.558 1.791.743l.313 1.074c.11.375.427.652.814.709 1.056.155 2.132.155 3.188 0 .387-.057.704-.334.814-.709l.313-1.074c.621-.186 1.221-.435 1.791-.743l.98.537c.343.188.764.16 1.078-.074.856-.637 1.615-1.396 2.252-2.252.234-.314.262-.735.074-1.078l-.537-.98c.308-.57.558-1.17.743-1.791l1.074-.313c.375-.11.652-.427.709-.814.155-1.056.155-2.132 0-3.188-.057-.387-.334-.704-.709-.814l-1.074-.313c-.186-.621-.435-1.221-.743-1.791l.537-.98c.188-.343.16-.764-.074-1.078-.637-.856-1.396-1.615-2.252-2.252-.314-.234-.735-.262-1.078-.074l-.98.537c-.57-.308-1.17-.558-1.791-.743l-.313-1.074c-.11-.375-.427-.652-.814-.709-.528-.077-1.062-.115-1.594-.115zm0 2c.225 0 .449.009.674.025h.002l.283.975c.102.347.381.611.734.693.805.186 1.575.507 2.276.944.307.191.693.2 1.01.027l.89-.486c.342.294.659.612.953.953l-.486.89c-.173.317-.164.703.027 1.01.437.701.758 1.471.944 2.276.082.353.346.632.693.734l.975.283c.033.45.033.903 0 1.352l-.975.283c-.347.102-.611.381-.693.734-.186.805-.507 1.575-.944 2.276-.191.307-.2.693-.027 1.01l.486.89c-.294.342-.612.659-.953.953l-.89-.486c-.317-.173-.703-.164-1.01.027-.701.437-1.471.758-2.276.944-.353.082-.632.346-.734.693l-.283.975c-.45.033-.903.033-1.352 0l-.283-.975c-.102-.347-.381-.611-.734-.693-.805-.186-1.575-.507-2.276-.944-.307-.191-.693-.2-1.01-.027l-.89.486c-.342-.294-.659-.612-.953-.953l.486-.89c.173-.317.164-.703-.027-1.01-.437-.701-.758-1.471-.944-2.276-.082-.353-.346-.632-.693-.734l-.975-.283c-.033-.45-.033-.903 0-1.352l.975-.283c.347-.102.611-.381.693-.734.186-.805.507-1.575.944-2.276.191-.307.2-.693.027-1.01l-.486-.89c.294-.342.612-.659.953-.953l.89.486c.317.173.703.164 1.01-.027.701-.437 1.471-.758 2.276-.944.353-.082.632-.346.734-.693l.283-.975c.225-.016.451-.025.676-.025zm-34 1c-.553 0-1 .448-1 1v14c0 .552.447 1 1 1h20c.553 0 1-.448 1-1v-14c0-.552-.447-1-1-1zm1 2h18v12h-18zm33 1c-2.76 0-5 2.24-5 5s2.24 5 5 5 5-2.24 5-5-2.24-5-5-5zm-28 1c-.256 0-.512.098-.707.293l-3 3c-.391.39-.391 1.024 0 1.414l3 3c.39.39 1.024.39 1.414 0s.39-1.024 0-1.414l-2.293-2.293 2.293-2.293c.39-.39.39-1.024 0-1.414-.195-.195-.451-.293-.707-.293zm8 0c-.256 0-.512.098-.707.293-.39.39-.39 1.024 0 1.414l2.293 2.293-2.293 2.293c-.39.39-.39 1.024 0 1.414s1.024.39 1.414 0l3-3c.391-.39.391-1.024 0-1.414l-3-3c-.195-.195-.451-.293-.707-.293zm20 1c1.656 0 3 1.344 3 3s-1.344 3-3 3-3-1.344-3-3 1.344-3 3-3zm-23.006.5c-.321.002-.635.158-.826.445l-2 3c-.306.46-.182 1.081.277 1.387.46.306 1.081.182 1.387-.277l2-3c.306-.46.182-1.081-.277-1.387-.173-.115-.368-.169-.561-.168zm-.994 12.5c-.552 0-1 .448-1 1v9c0 .552.448 1 1 1h24c.552 0 1-.448 1-1v-6c0-.552-.448-1-1-1s-1 .448-1 1v1h-22v-4c0-.552-.448-1-1-1zm1 7h22v2h-22z"/></svg>