<svg id="Layer_1" enable-background="new 0 0 512 512" viewBox="0 0 512 512" xmlns="http://www.w3.org/2000/svg"><path d="m355.42 35.43c-11.23 0-16.87 13.63-8.93 21.57s21.6 2.3 21.6-8.93c0-7-5.66-12.64-12.67-12.64zm-18.82-6.21c16.75-16.75 45.47-4.82 45.47 18.85 0 23.64-28.71 35.57-45.47 18.82-10.4-10.4-10.4-27.26 0-37.67zm-78.01 407.12v17.97c0 3.85-3.15 7-7 7-3.86 0-7-3.15-7-7v-17.97c-13.55-5.05-17.46-22.54-7.14-32.85 12.59-12.59 34.13-3.63 34.13 14.14-.01 8.44-5.28 15.84-12.99 18.71zm-2.75-22.97c-3.77-3.77-10.23-1.08-10.23 4.25s6.46 7.99 10.23 4.22c2.33-2.31 2.33-6.11 0-8.47zm-211.55-165.68c20.49 0 30.84 24.89 16.33 39.43-14.51 14.51-39.43 4.17-39.43-16.36 0-12.72 10.35-23.07 23.1-23.07zm6.44 16.67c-5.73-5.73-15.53-1.67-15.53 6.41 0 8.11 9.81 12.16 15.53 6.43 3.54-3.55 3.54-9.3 0-12.84zm411.36-16.67c20.49 0 30.84 24.89 16.33 39.43-14.51 14.51-39.43 4.17-39.43-16.36 0-12.72 10.35-23.07 23.1-23.07zm6.44 16.67c-5.73-5.73-15.53-1.67-15.53 6.41 0 8.11 9.81 12.16 15.53 6.43 3.54-3.55 3.54-9.3 0-12.84zm-243.53 116.25h7.63v-22.54c0-16.75 20.38-25.4 32.37-13.41 3.43 3.43 5.56 8.16 5.56 13.41v22.54h7.68v-25.09c0-13.78-11.28-25.09-25.06-25.09h-3.18c-13.78 0-25.06 11.31-25.06 25.09h-.03zm21.63 0h9.92v-22.54c0-4.34-5.27-6.69-8.48-3.52-.91.91-1.45 2.15-1.45 3.52v22.54zm58.2 7.37c2.47 3.17 3.91 7.17 3.91 11.51v14.51c87.31-52.44 86.66-83.93 83.99-214.16-.28-13.83-.6-28.8-.82-45.1-53.69-9.89-103.15-36.37-140.31-76.03-37.16 39.66-86.63 66.13-140.32 76.03-.23 16.3-.54 31.27-.82 45.1-2.66 130.22-3.32 161.72 83.99 214.16v-14.51c0-4.34 1.47-8.33 3.91-11.51-70.7-43.03-70.16-69.31-68-174.42.25-12.02.51-25.09.68-39.17.06-3.46 2.61-6.29 5.9-6.83 42.32-6.83 81.16-27.75 109.42-59.84 2.81-3.2 7.77-3.15 10.54.03 27.92 31.95 67.35 53.09 109.36 59.81 3.49.57 5.95 3.6 5.9 7.03.17 14 .43 27.01.68 38.98 2.14 105.1 2.68 131.38-68.01 174.41zm3.91 42.23v29.25c0 10.38-8.48 18.88-18.88 18.88h-76.54c-10.4 0-18.88-8.5-18.88-18.88v-29.25c-41.02-23.92-65.37-43.23-79.6-67.07l-23.53 17.72v35.6c0 3.85-3.12 7-6.97 7-3.88 0-7-3.15-7-7v-39.06c0-2.13.96-4.22 2.78-5.58l28.29-21.32c-8.33-19.45-11.51-42.35-12.42-72.74h-18.05c-3.86 0-7-3.12-7-7 0-3.85 3.15-6.97 7-6.97h17.8c-.31-33.73 1.22-77.07 1.67-115.03.03-3.43 2.58-6.26 5.87-6.8 11.93-1.93 23.58-4.71 34.95-8.28l-28.8-28.01c-2.58-2.49-2.78-6.52-.62-9.3l15.48-20.95c2.3-3.09 6.66-3.74 9.78-1.45 3.09 2.3 3.74 6.66 1.45 9.75l-11.96 16.19 29.4 28.6c35.89-13.83 67.95-35.89 93.4-64.83 2.81-3.17 7.77-3.12 10.54.06 25.09 28.69 57.54 50.91 93.06 64.69l29.68-28.91-11.68-15.79c-2.3-3.09-1.64-7.46 1.47-9.75 3.09-2.3 7.46-1.64 9.75 1.45l15.19 20.58c2.15 2.75 1.96 6.77-.62 9.3l-29.11 28.29c11.45 3.63 23.24 6.43 35.26 8.36 3.49.57 5.95 3.6 5.87 7.03.23 18.23.6 35.09.91 50.6.51 24.46.94 45.64.77 64.21h20.98c3.88 0 7 3.12 7 6.97 0 3.88-3.12 7-7 7h-21.23c-.91 30.39-4.08 53.29-12.42 72.74l28.29 21.32c1.81 1.36 2.78 3.46 2.78 5.58v39.06c0 3.85-3.12 7-6.97 7-3.88 0-7-3.15-7-7v-35.6l-23.53-17.72c-14.25 23.83-38.6 43.14-79.61 67.06zm-18.88-35.63h-76.54c-2.69 0-4.88 2.21-4.88 4.9v59.98c0 2.66 2.21 4.88 4.88 4.88h76.54c2.69 0 4.88-2.21 4.88-4.88v-59.98c-.01-2.69-2.19-4.9-4.88-4.9zm-78.8-15.31-.08-23.75h-.03c0-21.52 17.57-39.09 39.06-39.09h3.17c21.49 0 39.06 17.57 39.06 39.09v23.7c69.19-40.96 68.71-64.4 66.64-165.4-.2-10.29-.43-21.4-.62-33.51-40.68-7.77-78.21-27.81-106.67-57.63-28.46 29.82-65.99 49.86-106.67 57.63-.2 12.1-.43 23.22-.62 33.51-2.07 101.05-2.55 124.46 66.76 165.45zm36.99-176.79c-.28.06-.57.11-.85.11-7.68 1.22-14.2 5.36-18.57 11.14-9.52 12.7-6.97 30.78 5.73 40.34 12.67 9.55 30.78 7 40.34-5.7 9.52-12.7 6.97-30.78-5.73-40.34-5.76-4.33-13.18-6.52-20.92-5.55zm-2.36-13.78c23.44-3.32 45.21 13.27 48.3 36.4 3.2 23.73-13.32 45.21-36.37 48.3-11.68 1.64-22.9-1.59-31.66-8.16-18.88-14.2-22.71-40.96-8.48-59.87 6.61-8.79 16.51-15 28.21-16.67zm-10.65-35.89 10.72-1.53c6.92-.96 13.38 3.91 14.37 10.86l.45 3.2c4.99.68 10.26 2.04 14.97 3.85 2.83-3.77 4.93-6.8 10.37-7.57 3.2-.45 6.58.34 9.38 2.44l8.67 6.52c5.58 4.2 6.75 12.16 2.52 17.8l-1.98 2.61c3.17 4.17 5.75 8.53 7.88 13.29 4.65-.65 8.25-1.33 12.64 1.98 2.61 1.96 4.48 4.93 4.99 8.42.4 3.54.99 7.17 1.5 10.71.99 6.92-3.91 13.38-10.83 14.37l-3.2.45c-.68 4.96-2.07 10.26-3.88 14.97 3.8 2.83 6.8 4.93 7.57 10.35.45 3.2-.31 6.6-2.41 9.41-2.04 2.83-4.37 5.9-6.52 8.65-4.34 5.67-12.19 6.75-17.8 2.52l-2.64-1.96c-4.14 3.17-8.5 5.75-13.29 7.85.68 4.68 1.33 8.28-1.98 12.67-1.96 2.61-4.9 4.48-8.39 4.96l-10.71 1.53c-6.92.96-13.38-3.91-14.37-10.86l-.45-3.2c-4.99-.68-10.26-2.04-14.97-3.86-2.83 3.77-4.93 6.8-10.37 7.57-3.2.45-6.58-.31-9.38-2.44-2.86-2.21-5.81-4.31-8.67-6.52-5.61-4.28-6.75-12.16-2.52-17.8l1.98-2.61c-3.17-4.17-5.75-8.53-7.88-13.29-4.65.65-8.25 1.33-12.64-1.98-2.61-1.96-4.48-4.93-4.99-8.39l-1.5-10.74c-.99-6.92 3.91-13.38 10.83-14.34l3.2-.45c.71-4.99 2.07-10.29 3.88-14.97-3.77-2.86-6.8-4.93-7.57-10.38-.45-3.2.31-6.6 2.41-9.41 2.21-2.83 4.34-5.78 6.52-8.65 4.25-5.61 12.16-6.77 17.8-2.52l2.64 1.96c4.17-3.17 8.5-5.75 13.29-7.85-.68-4.68-1.33-8.25 1.98-12.67 1.94-2.59 4.89-4.46 8.38-4.95zm11.42 12.51-8.25 1.16c.57 4.05 1.16 6.97-1.11 10.97-2.83 5.05-6.86 5.39-12.22 8.56-5.41 3.17-7.68 6.52-13.41 6.58-4.56.06-6.86-1.9-10.15-4.37l-5.02 6.69c3.29 2.47 5.78 4.14 7.03 8.56 1.53 5.56-1.11 8.7-2.64 14.65-1.53 5.92-.71 9.98-4.82 14.15-3.17 3.26-6.18 3.52-10.23 4.08l1.16 8.28c4.05-.57 6.97-1.16 11 1.11 5.02 2.83 5.39 6.86 8.53 12.22 3.2 5.39 6.52 7.65 6.58 13.41.06 4.56-1.9 6.86-4.34 10.12l6.69 5.05c2.47-3.29 4.14-5.81 8.53-7.03 5.58-1.56 8.73 1.11 14.68 2.64 5.9 1.5 9.95.71 14.15 4.79 3.23 3.2 3.51 6.21 4.08 10.26l8.25-1.19c-.57-4.05-1.16-6.94 1.11-10.97 2.83-5.02 6.86-5.39 12.22-8.56 5.41-3.17 7.68-6.52 13.41-6.58 4.56-.06 6.86 1.9 10.15 4.37l5.02-6.69c-3.29-2.47-5.78-4.14-7-8.56-1.56-5.56 1.08-8.7 2.61-14.66 1.53-5.92.71-9.98 4.82-14.15 3.17-3.26 6.18-3.51 10.23-4.08l-1.16-8.28c-4.05.57-6.97 1.16-10.97-1.11-5.05-2.83-5.41-6.86-8.56-12.22-3.2-5.39-6.52-7.65-6.58-13.38-.06-4.59 1.9-6.89 4.34-10.15l-6.69-5.05c-2.47 3.29-4.14 5.81-8.53 7.03-5.58 1.56-8.73-1.11-14.68-2.64-5.9-1.5-9.95-.71-14.12-4.79-3.26-3.2-3.54-6.17-4.11-10.22zm172.18 262.77c24.09 0 36.26 29.28 19.19 46.35-17.06 17.06-46.35 4.9-46.35-19.19 0-15 12.16-27.16 27.16-27.16zm9.29 17.85c-8.28-8.28-22.45-2.38-22.45 9.3s14.17 17.55 22.45 9.3c5.13-5.13 5.13-13.46 0-18.6zm-343.38-2.46c-10.43 0-15.68 12.7-8.31 20.07 7.4 7.4 20.07 2.13 20.07-8.31 0-6.49-5.25-11.76-11.76-11.76zm-18.2-6.46c16.19-16.19 43.97-4.65 43.97 18.23 0 22.85-27.78 34.38-43.97 18.2-10.07-10.07-10.07-26.37 0-36.43zm82.68-401.59c-11.23 0-16.87 13.63-8.93 21.57s21.57 2.3 21.57-8.93c.01-7-5.64-12.64-12.64-12.64zm-18.82-6.21c16.72-16.75 45.47-4.82 45.47 18.85 0 23.64-28.74 35.57-45.47 18.82-10.43-10.4-10.43-27.26 0-37.67z"/></svg>