<?xml version="1.0"?>
<svg xmlns="http://www.w3.org/2000/svg" id="Layer_1" data-name="Layer 1" viewBox="0 0 512 512"><path d="M487.649,292.142a24.362,24.362,0,0,0-23.289,17.319H432.814L418.185,270.2a7,7,0,0,0-6.561-4.557H368.967A270.681,270.681,0,0,0,379.8,235.449h68.144a24.347,24.347,0,1,0,0-14H383.583q3.55-14.458,6.021-30.189h22.02a7,7,0,0,0,6.561-4.558l14.629-39.266H464.36a24.344,24.344,0,1,0,0-14H427.951a7,7,0,0,0-6.56,4.558l-14.63,39.266h-15.2c1.865-15.134,3.062-31.115,3.585-48.03a7,7,0,0,0-5.151-6.97C342.559,109.28,300.121,88.1,260.263,57.517a7,7,0,0,0-8.526,0c-39.849,30.58-82.3,51.755-129.765,64.735a7,7,0,0,0-5.151,6.97c.522,16.915,1.72,32.895,3.586,48.03H105.236l-14.657-39.27a7,7,0,0,0-6.559-4.554H47.641a24.327,24.327,0,1,0,0,14H79.159L93.816,186.7a7,7,0,0,0,6.56,4.554H122.37q2.475,15.739,6.024,30.189H64.055a24.325,24.325,0,1,0,0,14h68.124a270.562,270.562,0,0,0,10.842,30.189H100.376a7,7,0,0,0-6.56,4.553l-14.657,39.27H47.638a24.346,24.346,0,1,0,0,14H84.02a7,7,0,0,0,6.559-4.554l14.657-39.27h44.343a219.393,219.393,0,0,0,19.865,32.039L113.019,329.4a7,7,0,0,0-4.581,4.578L95.827,374.042a24.461,24.461,0,0,0-6.61.827,24.341,24.341,0,0,0,6.239,47.851,24.388,24.388,0,0,0,23.562-30.647,24.072,24.072,0,0,0-9.839-13.807l11.52-36.6L178.852,323.4q4.491,5.195,9.325,10.107l-40.6,70.325a34.725,34.725,0,0,0,30.069,52.094h156.7a34.724,34.724,0,0,0,30.072-52.086l-40.6-70.333q4.827-4.913,9.319-10.1l58.16,18.256,11.517,36.594a24.312,24.312,0,0,0,7.359,43.613,24.445,24.445,0,0,0,6.358.847,24.336,24.336,0,1,0-.361-48.669l-12.612-40.072a7,7,0,0,0-4.582-4.579l-56.432-17.714a219.356,219.356,0,0,0,19.862-32.044h44.351l14.63,39.266a7,7,0,0,0,6.56,4.558h36.406a24.334,24.334,0,1,0,23.292-31.324ZM471.237,218.1a10.332,10.332,0,1,1-10.318,10.346A10.357,10.357,0,0,1,471.237,218.1Zm16.412-88.017a10.332,10.332,0,1,1-10.317,10.346A10.358,10.358,0,0,1,487.649,130.084ZM24.322,150.748A10.332,10.332,0,1,1,34.667,140.43,10.329,10.329,0,0,1,24.322,150.748Zm16.44,88.016a10.332,10.332,0,1,1,10.319-10.317A10.342,10.342,0,0,1,40.762,238.764ZM24.322,326.81a10.332,10.332,0,1,1,10.345-10.346A10.343,10.343,0,0,1,24.322,326.81ZM98.2,408.345l-.015,0a10.329,10.329,0,1,1-5.36-19.951,10.464,10.464,0,0,1,2.692-.356,10.326,10.326,0,0,1,5.165,1.391,10.2,10.2,0,0,1,4.8,6.245A10.348,10.348,0,0,1,98.2,408.345Zm308.309-12.661a10.33,10.33,0,1,1,19.948,5.376,10.315,10.315,0,0,1-12.642,7.29l-.02,0a10.3,10.3,0,0,1-7.286-12.661ZM286.069,268.112a34.726,34.726,0,0,0-60.143.007l-16.434,28.469c-29.615-34.353-45.838-80.254-50.693-143.206a413.708,413.708,0,0,0,97.2-48.82,413.723,413.723,0,0,0,97.2,48.819c-4.883,62.955-21.1,108.856-50.693,143.2ZM352.3,431.56a20.024,20.024,0,0,1-17.948,10.366h-156.7A20.721,20.721,0,0,1,159.7,410.844l78.356-135.731a20.722,20.722,0,0,1,35.886.006L352.3,410.851A19.945,19.945,0,0,1,352.3,431.56ZM325.518,310.713c-.055.062-.108.126-.16.19q-4.242,5.139-8.829,9.974l-6.64-11.5c34.579-38.09,52.941-89.251,57.668-160.43a7,7,0,0,0-4.79-7.112A399.618,399.618,0,0,1,260,90.318a7,7,0,0,0-7.994,0,399.64,399.64,0,0,1-102.771,51.515,7,7,0,0,0-4.79,7.109c4.695,71.174,23.057,122.337,57.667,160.434l-6.64,11.5c-40.489-42.836-61.089-102.525-64.458-186.62A382.42,382.42,0,0,0,256,71.856a382.358,382.358,0,0,0,124.96,62.4C377.849,211.907,360.069,268.749,325.518,310.713Zm162.131,16.1A10.332,10.332,0,1,1,498,316.464,10.342,10.342,0,0,1,487.649,326.81ZM256,394.162A18.327,18.327,0,1,0,274.312,412.5,18.346,18.346,0,0,0,256,394.162Zm0,22.65a4.323,4.323,0,1,1,4.308-4.309A4.314,4.314,0,0,1,256,416.812Zm8.872-121.722H247.127a12.24,12.24,0,0,0-8.857,3.789,11.2,11.2,0,0,0-3.124,8.355L238.856,381a11.976,11.976,0,0,0,11.985,11.491h10.318a12.036,12.036,0,0,0,11.982-11.441l3.715-73.866a11.288,11.288,0,0,0-3.191-8.35A12.23,12.23,0,0,0,264.872,295.09Zm-5.624,83.4h-6.5l-3.49-69.392h13.478Z"/></svg>
