<svg id="Layer_1" height="512" viewBox="0 0 48 48" width="512" xmlns="http://www.w3.org/2000/svg"><g><g><path d="m11.8 1h2v5.3h-2z"/></g><g><path d="m11.8 19.4h2v5.3h-2z"/></g><g><path d="m1 11.9h5.3v2h-5.3z"/></g><g><g><path d="m18.4 3.7h2v5.2h-2z" transform="matrix(.707 .707 -.707 .707 10.158 -11.823)"/></g></g><g><g><path d="m16.7 18.4h5.2v2h-5.2z" transform="matrix(.707 .707 -.707 .707 19.35 -8.015)"/></g></g><g><g><g><path d="m10.7 48h-6.6v-11.5h6.6zm-4.6-2h2.6v-7.5h-2.6z"/></g><g><path d="m15.2 48h-6.6v-18.3h6.6zm-4.6-2h2.6v-14.3h-2.6z"/></g></g><g><g><path d="m25 48h-6.6v-11.5h6.6zm-4.6-2h2.6v-7.5h-2.6z"/></g><g><path d="m29.6 48h-6.6v-18.3h6.6zm-4.6-2h2.6v-14.3h-2.6z"/></g></g><g><g><path d="m39.4 48h-6.6v-11.5h6.6zm-4.6-2h2.6v-7.5h-2.6z"/></g><g><path d="m44 48h-6.6v-18.3h6.6zm-4.6-2h2.6v-14.3h-2.6z"/></g></g></g><g><path d="m0 46h48v2h-48z"/></g><g><path d="m12.8 25.7c-7.1 0-12.8-5.7-12.8-12.8s5.7-12.9 12.8-12.9 12.9 5.8 12.9 12.9-5.8 12.8-12.9 12.8zm0-23.7c-6 0-10.8 4.9-10.8 10.9s4.8 10.8 10.8 10.8 10.9-4.8 10.9-10.8-4.9-10.9-10.9-10.9zm0 18.4c-4.2 0-7.6-3.4-7.6-7.6s3.4-7.6 7.6-7.6 7.6 3.4 7.6 7.6c0 4.3-3.3 7.6-7.6 7.6zm0-13.2c-3.1 0-5.6 2.5-5.6 5.6s2.5 5.6 5.6 5.6 5.6-2.5 5.6-5.6-2.5-5.6-5.6-5.6z"/></g><g><g><g><path d="m35.5 0h12.5v2h-12.5z"/></g><g><path d="m35.5 4.9h12.5v2h-12.5z"/></g></g><g><g><path d="m35.4 9.8h2.5v2h-2.5z"/></g><g><path d="m40.5 9.8h2.4v2h-2.4z"/></g><g><path d="m45.5 9.8h2.5v2h-2.5z"/></g></g></g><g><path d="m23.6 27.4-1.4-1.4 6.5-6.5 3.4 3.4 7.4-7.4 3.6 3.6 4.1-4.1 1.4 1.4-5.5 5.5-3.6-3.6-7.4 7.4-3.4-3.4z"/></g></g></svg>