<svg id="Layer_1" viewBox="0 0 512 512" xmlns="http://www.w3.org/2000/svg" data-name="Layer 1"><path d="m120.99 441.33h-8.21v-46.89c0-7.43-6.05-13.48-13.48-13.48h-61.62c-7.43 0-13.48 6.05-13.48 13.48v19.16h-8.2c-4.42 0-8 3.58-8 8v58.88c0 12.97 10.55 23.52 23.52 23.52h73.95c12.97 0 23.52-10.55 23.52-23.52v-31.15c0-4.42-3.58-8-8-8zm-80.78-44.37h56.58v44.37h-2.72l-25.39-25.39c-1.5-1.5-3.54-2.34-5.66-2.34h-22.81zm72.78 83.52c0 4.15-3.37 7.52-7.52 7.52h-73.95c-4.15 0-7.52-3.37-7.52-7.52v-50.88h35.7l25.39 25.39c1.5 1.5 3.54 2.34 5.66 2.34h22.24zm195.51-39.15h-8.21v-46.89c0-7.43-6.05-13.48-13.48-13.48h-61.62c-7.43 0-13.48 6.05-13.48 13.48v19.16h-8.21c-4.42 0-8 3.58-8 8v58.88c0 12.97 10.55 23.52 23.52 23.52h73.95c12.97 0 23.52-10.55 23.52-23.52v-31.15c0-4.42-3.58-8-8-8zm-80.78-44.37h56.58v44.37h-2.72l-25.39-25.39c-1.5-1.5-3.54-2.34-5.66-2.34h-22.81zm72.78 83.52c0 4.15-3.37 7.52-7.52 7.52h-73.95c-4.15 0-7.52-3.37-7.52-7.52v-50.88h35.7l25.39 25.39c1.5 1.5 3.54 2.34 5.66 2.34h22.24zm135.01-123.77c0 4.42 3.58 8 8 8s8-3.58 8-8v-45.57c0-4.42-3.58-8-8-8h-105.57v-27.84h73.92c.58.01 1.16.02 1.73.02 7.88 0 15.76-1.04 23.43-3.09 23.31-6.25 42.79-21.19 54.86-42.09s15.27-45.25 9.03-68.55c-6.25-23.31-21.2-42.79-42.09-54.86-20.9-12.07-45.25-15.27-68.55-9.03-2.89.77-5.74 1.69-8.54 2.75-.12-.47-.24-.95-.37-1.42-7.64-28.52-24.44-52.17-48.57-68.38-21.72-14.59-48.98-22.63-76.77-22.63-27.79 0-55.05 8.04-76.77 22.63-24.13 16.22-40.93 39.86-48.57 68.38-.13.47-.25.94-.37 1.42-2.8-1.06-5.65-1.97-8.54-2.75-23.31-6.24-47.66-3.04-68.55 9.03-20.9 12.07-35.85 31.55-42.09 54.86-6.25 23.31-3.04 47.66 9.03 68.55 12.07 20.9 31.55 35.85 54.86 42.09 8.23 2.21 16.7 3.24 25.16 3.08h73.92v27.84h-105.61c-4.42 0-8 3.58-8 8v45.57c0 4.42 3.58 8 8 8s8-3.58 8-8v-37.57h105.57c4.42 0 8-3.58 8-8v-35.84h57.93v62.67c0 4.42 3.58 8 8 8s8-3.58 8-8v-62.67h57.93v35.84c0 4.42 3.58 8 8 8h105.57v37.57zm-171.51-97.41v-38.64c0-4.42-3.58-8-8-8s-8 3.58-8 8v38.64h-57.93v-38.64c0-4.42-3.58-8-8-8s-8 3.58-8 8v38.64h-74.01c-.05 0-.11 0-.16 0-6.97.13-13.97-.71-20.78-2.54-19.18-5.14-35.21-17.44-45.14-34.64s-12.57-37.23-7.43-56.41 17.44-35.21 34.64-45.14 37.23-12.57 56.41-7.43c5.11 1.37 10.09 3.29 14.79 5.7 25.52 13.39 42.01 39.33 42.01 66.11 0 4.42 3.58 8 8 8s8-3.58 8-8c0-30.77-17.63-60.52-45.38-77.33.33-1.5.69-3 1.09-4.46 15.65-58.43 68.98-79.16 109.89-79.16s94.23 20.73 109.88 79.16c.86 3.21 1.59 6.55 2.15 9.91.42 2.52 2.02 4.68 4.3 5.82s4.97 1.13 7.24-.04c4.71-2.42 9.69-4.34 14.81-5.71 19.18-5.14 39.22-2.5 56.41 7.43 17.2 9.93 29.5 25.96 34.64 45.14s2.5 39.22-7.43 56.41c-9.93 17.2-25.96 29.5-45.14 34.64-6.81 1.82-13.79 2.67-20.78 2.54-.05 0-.11 0-.16 0h-74.01v-38.64c0-4.42-3.58-8-8-8s-8 3.58-8 8v38.64h-57.93zm57.05-134.05-7.78-4.49c.19-2.7.19-5.41 0-8.11l7.79-4.5c3.83-2.21 5.14-7.1 2.93-10.93l-17.12-29.66c-1.06-1.84-2.81-3.18-4.86-3.73s-4.23-.26-6.07.8l-7.79 4.49c-2.24-1.51-4.58-2.87-7.02-4.05v-8.99c0-4.42-3.58-8-8-8h-34.25c-4.42 0-8 3.58-8 8v8.99c-2.44 1.18-4.78 2.54-7.02 4.05l-7.78-4.49c-3.83-2.21-8.72-.9-10.93 2.93l-17.12 29.66c-1.06 1.84-1.35 4.02-.8 6.07s1.89 3.8 3.73 4.86l7.78 4.49c-.19 2.7-.19 5.4 0 8.1l-7.79 4.5c-1.84 1.06-3.18 2.81-3.73 4.86s-.26 4.23.8 6.07l17.12 29.66c2.21 3.83 7.1 5.14 10.93 2.93l7.79-4.5c2.24 1.51 4.58 2.87 7.02 4.05v8.99c0 4.42 3.58 8 8 8h34.25c4.42 0 8-3.58 8-8v-8.99c2.44-1.18 4.78-2.54 7.02-4.05l7.78 4.49c3.83 2.21 8.72.9 10.93-2.93l17.12-29.66c2.21-3.83.9-8.72-2.93-10.93zm-24.24-15.54c.8 4.65.8 9.35 0 13.98-.57 3.3.98 6.6 3.88 8.28l5.42 3.13-9.12 15.8-5.42-3.13c-2.9-1.67-6.54-1.37-9.11.77-3.62 3-7.69 5.35-12.11 6.99-3.14 1.16-5.23 4.15-5.23 7.5v6.27h-18.25v-6.26c0-3.35-2.08-6.34-5.22-7.5-4.42-1.64-8.5-3.99-12.12-7-2.58-2.14-6.21-2.44-9.11-.77l-5.42 3.13-9.12-15.8 5.43-3.13c2.9-1.67 4.45-4.98 3.88-8.28-.8-4.65-.8-9.35 0-13.98.57-3.3-.98-6.6-3.88-8.28l-5.42-3.13 9.12-15.8 5.42 3.13c2.9 1.67 6.53 1.37 9.11-.77 3.62-3 7.69-5.35 12.11-6.99 3.14-1.16 5.23-4.15 5.23-7.5v-6.27h18.25v6.26c0 3.35 2.08 6.34 5.22 7.5 4.42 1.64 8.5 3.99 12.12 7 2.58 2.14 6.21 2.44 9.11.77l5.42-3.13 9.12 15.8-5.43 3.13c-2.9 1.67-4.45 4.98-3.88 8.28zm-40.81-22.79c-16.42 0-29.78 13.36-29.78 29.78s13.36 29.78 29.78 29.78 29.78-13.36 29.78-29.78-13.36-29.78-29.78-29.78zm0 43.56c-7.6 0-13.78-6.18-13.78-13.78s6.18-13.78 13.78-13.78 13.78 6.18 13.78 13.78-6.18 13.78-13.78 13.78zm95.53 29.28c0-4.42 3.58-8 8-8h17.09c4.42 0 8 3.58 8 8s-3.58 8-8 8h-17.09c-4.42 0-8-3.58-8-8zm0 42.47c0-4.42 3.58-8 8-8h87.36c4.42 0 8 3.58 8 8s-3.58 8-8 8h-87.36c-4.42 0-8-3.58-8-8zm53.38-42.47c0-4.42 3.58-8 8-8h38.17c4.42 0 8 3.58 8 8s-3.58 8-8 8h-38.17c-4.42 0-8-3.58-8-8zm-313.77 42.47c0 4.42-3.58 8-8 8h-21.06c-4.42 0-8-3.58-8-8s3.58-8 8-8h21.06c4.42 0 8 3.58 8 8zm38.78-34.47h-67.83c-4.42 0-8-3.58-8-8s3.58-8 8-8h67.84c4.42 0 8 3.58 8 8s-3.58 8-8 8zm14.15 34.47c0 4.42-3.58 8-8 8h-21.06c-4.42 0-8-3.58-8-8s3.58-8 8-8h21.06c4.42 0 8 3.58 8 8zm351.93 239.1h-8.21v-46.89c0-7.43-6.05-13.48-13.48-13.48h-61.62c-7.43 0-13.48 6.05-13.48 13.48v19.16h-8.21c-4.42 0-8 3.58-8 8v58.88c0 12.97 10.55 23.52 23.52 23.52h73.95c12.97 0 23.52-10.55 23.52-23.52v-31.15c0-4.42-3.58-8-8-8zm-80.78-44.37h56.58v44.37h-2.72l-25.39-25.39c-1.5-1.5-3.54-2.34-5.66-2.34h-22.81zm72.78 83.52c0 4.15-3.37 7.52-7.52 7.52h-73.95c-4.15 0-7.52-3.37-7.52-7.52v-50.88h35.7l25.39 25.39c1.5 1.5 3.54 2.34 5.66 2.34h22.24z"/></svg>