<svg enable-background="new 0 0 512 512" height="512" viewBox="0 0 512 512" width="512" xmlns="http://www.w3.org/2000/svg"><g id="_x33_63_x2C__Data_x2C__Data_Warehouse_x2C__Network"><g><path d="m256 66c-27.57 0-50 22.43-50 50s22.43 50 50 50 50-22.43 50-50-22.43-50-50-50zm0 80c-16.542 0-30-13.458-30-30s13.458-30 30-30 30 13.458 30 30-13.458 30-30 30z"/><path d="m386 387.72v-21.72c0-5.522-4.478-10-10-10h-110v-20h90c5.522 0 10-4.478 10-10v-41.72c11.639-4.129 20-15.244 20-28.28 0-16.542-13.458-30-30-30s-30 13.458-30 30c0 13.036 8.361 24.151 20 28.28v31.72h-80v-50c0-7.104-3.451-20.499-26.563-30.405-29.857-12.795-76.998-12.803-106.873 0-23.113 9.906-26.564 23.301-26.564 30.405v150c0 7.104 3.451 20.499 26.563 30.404 29.852 12.795 76.997 12.806 106.873 0 23.113-9.905 26.564-23.3 26.564-30.404v-40h100v11.72c-11.639 4.129-20 15.244-20 28.28 0 16.542 13.458 30 30 30s30-13.458 30-30c0-13.036-8.361-24.151-20-28.28zm-30-141.72c5.514 0 10 4.486 10 10s-4.486 10-10 10-10-4.486-10-10 4.486-10 10-10zm-110 70c0 7.051-22.78 20-60 20s-60-12.949-60-20v-22.781c31.077 17.031 88.878 17.056 120 0zm-120 27.219c31.035 17.008 88.842 17.075 120 0v22.781c0 7.051-22.78 20-60 20s-60-12.949-60-20zm60-97.219c37.22 0 60 12.949 60 20s-22.78 20-60 20-60-12.949-60-20 22.78-20 60-20zm0 190c-37.22 0-60-12.949-60-20v-22.781c31.035 17.008 88.842 17.075 120 0v22.781c0 7.051-22.78 20-60 20zm190-10c-5.514 0-10-4.486-10-10s4.486-10 10-10 10 4.486 10 10-4.486 10-10 10z"/><path d="m446 96c22.056 0 40-17.944 40-40s-17.944-40-40-40-40 17.944-40 40 17.944 40 40 40zm0-60c11.028 0 20 8.972 20 20s-8.972 20-20 20-20-8.972-20-20 8.972-20 20-20z"/><path d="m46 106c16.542 0 30-13.458 30-30s-13.458-30-30-30-30 13.458-30 30 13.458 30 30 30zm0-40c5.514 0 10 4.486 10 10s-4.486 10-10 10-10-4.486-10-10 4.486-10 10-10z"/><path d="m486 476h-40v-332.338l34.855 20.913c4.739 2.845 10.881 1.301 13.72-3.43 2.841-4.736 1.306-10.878-3.431-13.72-10.747-6.446-49.277-29.575-50.172-30.092-.93-.533-141.585-78.667-180.116-100.075-3.02-1.677-6.692-1.677-9.713 0l-95.143 52.858v-24.116c0-5.523-4.477-10-10-10h-40c-5.523 0-10.005 4.484-10 10.01l.057 57.408c-.302.168-24.945 13.854-25.202 14.007l-50 30c-4.736 2.841-6.271 8.984-3.43 13.72 2.837 4.729 8.978 6.275 13.72 3.43l34.855-20.913v332.338h-40c-5.523 0-10 4.478-10 10s4.477 10 10 10h460c5.522 0 10-4.478 10-10s-4.478-10-10-10zm-369.99-420h19.99v25.227l-19.954 11.085zm-30.01 150h290c5.522 0 10-4.477 10-10s-4.478-10-10-10h-290v-54.116c2.521-1.4 166.758-92.644 170-94.445l170 94.445v344.116h-340z"/><path d="m286 276h20v20h-20z"/><path d="m286 236h20v20h-20z"/><path d="m286 436h20v20h-20z"/><path d="m286 396h20v20h-20z"/></g></g></svg>