<svg height="496pt" viewBox="0 0 496 496" width="496pt" xmlns="http://www.w3.org/2000/svg"><path d="m472 176h-21.128906c17.992187-18.703125 29.128906-44.054688 29.128906-72 0-57.34375-46.65625-104-104-104s-104 46.65625-104 104c0 27.945312 11.136719 53.296875 29.128906 72h-45.128906v-120c0-2.214844-.902344-4.214844-2.351562-5.664062l-47.976563-47.976563c-1.457031-1.457031-3.457031-2.359375-5.671875-2.359375h-192c-4.425781 0-8 3.574219-8 8v304c0 4.425781 3.574219 8 8 8h56v72c0 13.230469 10.769531 24 24 24h160v32h-40c-22.054688 0-40 17.945312-40 40 0 4.425781 3.574219 8 8 8h208c4.425781 0 8-3.574219 8-8 0-22.054688-17.945312-40-40-40h-40v-32h160c13.230469 0 24-10.769531 24-24v-192c0-13.230469-10.769531-24-24-24zm-96-160c48.519531 0 88 39.480469 88 88s-39.480469 88-88 88-88-39.480469-88-88 39.480469-88 88-88zm-16 256h32v80c0 8.824219-7.175781 16-16 16s-16-7.175781-16-16zm0-16v-16h32v16zm32-32h-32v-17.359375c5.230469.816406 10.542969 1.359375 16 1.359375s10.769531-.550781 16-1.359375zm-71.167969-32c7.191407 4.527344 14.9375 8.238281 23.167969 10.910156v5.089844h-88v-16zm-112.832031-164.6875 20.6875 20.6875h-20.6875zm-192-11.3125h176v40c0 4.425781 3.574219 8 8 8h40v240h-224zm358.632812 464h-189.265624c3.304687-9.3125 12.199218-16 22.632812-16h144c10.433594 0 19.328125 6.6875 22.632812 16zm-78.632812-32h-32v-32h32zm184-56c0 4.414062-3.585938 8-8 8h-384c-4.414062 0-8-3.585938-8-8v-72h16v56c0 4.425781 3.574219 8 8 8h224v-16h-216v-48h136c4.425781 0 8-3.574219 8-8v-88h88v32h-16v16h16v80c0 17.648438 14.351562 32 32 32s32-14.351562 32-32v-80h16v-16h-16v-32h40v144h-24v16h32c4.425781 0 8-3.574219 8-8v-160c0-4.425781-3.574219-8-8-8h-48v-5.089844c8.230469-2.671875 15.976562-6.382812 23.167969-10.910156h40.832031c4.414062 0 8 3.585938 8 8zm0 0"/><path d="m128 96c-52.9375 0-96 43.0625-96 96s43.0625 96 96 96 96-43.0625 96-96-43.0625-96-96-96zm0 144c-26.472656 0-48-21.527344-48-48s21.527344-48 48-48 48 21.527344 48 48-21.527344 48-48 48zm-8-111.449219c-11.664062 1.464844-22.335938 6.074219-31.183594 12.953125l-11.417968-11.414062c11.859374-9.707032 26.53125-16.089844 42.59375-17.691406v16.152343zm47.183594 12.953125c-8.847656-6.878906-19.519532-11.488281-31.183594-12.953125v-16.152343c16.0625 1.601562 30.734375 7.984374 42.59375 17.691406zm-101.085938-.097656 11.414063 11.417969c-8.441407 10.839843-13.511719 24.40625-13.511719 39.175781s5.070312 28.335938 13.503906 39.183594l-11.414062 11.417968c-11.289063-13.808593-18.089844-31.425781-18.089844-50.601562s6.800781-36.792969 18.097656-50.59375zm11.308594 112.496094 11.417969-11.414063c10.839843 8.441407 24.40625 13.511719 39.175781 13.511719s28.335938-5.070312 39.183594-13.503906l11.417968 11.414062c-13.808593 11.289063-31.425781 18.089844-50.601562 18.089844s-36.792969-6.800781-50.59375-18.097656zm112.496094-11.308594-11.414063-11.417969c8.441407-10.839843 13.511719-24.40625 13.511719-39.175781s-5.070312-28.335938-13.503906-39.183594l11.414062-11.417968c11.289063 13.808593 18.089844 31.425781 18.089844 50.601562s-6.800781 36.792969-18.097656 50.59375zm0 0"/><path d="m376 48v-16c-39.703125 0-72 32.296875-72 72h16c0-30.871094 25.128906-56 56-56zm0 0"/><path d="m376 176c39.703125 0 72-32.296875 72-72h-16c0 30.871094-25.128906 56-56 56zm0 0"/><path d="m32 32h64v16h-64zm0 0"/><path d="m32 64h64v16h-64zm0 0"/></svg>