<svg height="512" viewBox="0 0 48 48" width="512" xmlns="http://www.w3.org/2000/svg"><g id="_31-Planning" data-name="31-Planning"><path d="m17 34h2v4h-2z"/><path d="m27 34h2v4h-2z"/><path d="m7 34h2v4h-2z"/><path d="m37 39h-35a2 2 0 0 1 -2-2v-6a2 2 0 0 1 2-2h35v2h-35v6h35z"/><path d="m22 33h2v5h-2z"/><path d="m32 33h2v5h-2z"/><path d="m12 33h2v5h-2z"/><path d="m23 27h-12a1 1 0 0 1 -1-1v-10a1 1 0 0 1 1-1h12a1 1 0 0 1 1 1v10a1 1 0 0 1 -1 1zm-11-2h10v-8h-10z"/><path d="m37 27h-10a1 1 0 0 1 -1-1v-10a1 1 0 0 1 1-1h10v2h-9v8h9z"/><path d="m10 6h10v2h-10z"/><path d="m10 10h2v2h-2z"/><path d="m14 10h2v2h-2z"/><path d="m6 27h-2v-24a3 3 0 0 1 3-3h26a1 1 0 0 1 .71.29l3 3-1.42 1.42-2.7-2.71h-25.59a1 1 0 0 0 -1 1z"/><path d="m36 48h-29a3 3 0 0 1 -3-3v-4h2v4a1 1 0 0 0 1 1h29z"/><path d="m36 10h-1a3 3 0 0 1 -3-3v-6h2v6a1 1 0 0 0 1 1h1z"/><path d="m40 39h4v2h-4z"/><path d="m44 48h-4a1 1 0 0 1 -1-1v-41a1 1 0 0 1 .17-.55l2-3a1 1 0 0 1 1.66 0l2 3a1 1 0 0 1 .17.55v41a1 1 0 0 1 -1 1zm-3-2h2v-39.7l-1-1.5-1 1.5z"/><path d="m47 44h-3v-2h2v-17h2v18a1 1 0 0 1 -1 1z"/></g></svg>