<svg id="Layer_1" enable-background="new 0 0 66 66" viewBox="0 0 66 66" xmlns="http://www.w3.org/2000/svg"><g><g><path d="m2 46.5c-.6 0-1-.4-1-1v-32.5c0-3.8 3.1-6.9 6.9-6.9h.7c.6 0 1 .4 1 1v32.5c0 .6-.4 1-1 1h-.7c-1.3 0-2.6.5-3.5 1.4s-1.4 2.1-1.4 3.5c0 .5-.4 1-1 1zm5.7-38.4c-2.6.1-4.7 2.3-4.7 4.9v27.6c1.2-1.2 2.9-2 4.6-2v-30.5z"/></g><g><path d="m60.1 52.4h-52.2c-3.8 0-6.9-3.1-6.9-6.9s3.1-6.9 6.9-6.9h.7c.6 0 1 .4 1 1s-.4 1-1 1h-.7c-2.7 0-4.9 2.2-4.9 4.9s2.2 4.9 4.9 4.9h52.2c1.6 0 2.9-1.3 2.9-2.9v-28.6c0-1.6-1.3-2.9-2.9-2.9-.6 0-1-.4-1-1s.4-1 1-1c2.7 0 4.9 2.2 4.9 4.9v28.7c0 2.6-2.2 4.8-4.9 4.8z"/></g><g><path d="m42.1 16h-9.7c-.6 0-1-.4-1-1s.4-1 1-1h9.7c.6 0 1 .4 1 1s-.4 1-1 1z"/></g><g><path d="m26.5 16h-17.8c-.6 0-1-.4-1-1s.4-1 1-1h17.8c.6 0 1 .4 1 1s-.4 1-1 1z"/></g><g><g><path d="m58.5 64.6h-44.8c-.6 0-1-.4-1-1v-8c0-.6.4-1 1-1h44.8c.6 0 1 .4 1 1v8c0 .6-.5 1-1 1zm-43.8-2h42.8v-6h-42.8z"/></g><g><path d="m18 60c-.6 0-1-.4-1-1v-3.4c0-.6.4-1 1-1s1 .4 1 1v3.4c0 .5-.5 1-1 1z"/></g><g><path d="m22.5 58.9c-.6 0-1-.4-1-1v-2.3c0-.6.4-1 1-1s1 .4 1 1v2.3c0 .6-.5 1-1 1z"/></g><g><path d="m27 60c-.6 0-1-.4-1-1v-3.4c0-.6.4-1 1-1s1 .4 1 1v3.4c0 .5-.4 1-1 1z"/></g><g><path d="m31.5 58.9c-.6 0-1-.4-1-1v-2.3c0-.6.4-1 1-1s1 .4 1 1v2.3c0 .6-.4 1-1 1z"/></g><g><path d="m36.1 60c-.6 0-1-.4-1-1v-3.4c0-.6.4-1 1-1s1 .4 1 1v3.4c0 .5-.5 1-1 1z"/></g><g><path d="m40.6 58.9c-.6 0-1-.4-1-1v-2.3c0-.6.4-1 1-1s1 .4 1 1v2.3c0 .6-.4 1-1 1z"/></g><g><path d="m45.1 60c-.6 0-1-.4-1-1v-3.4c0-.6.4-1 1-1s1 .4 1 1v3.4c0 .5-.4 1-1 1z"/></g><g><path d="m49.7 58.9c-.6 0-1-.4-1-1v-2.3c0-.6.4-1 1-1s1 .4 1 1v2.3c0 .6-.5 1-1 1z"/></g><g><path d="m54.2 60c-.6 0-1-.4-1-1v-3.4c0-.6.4-1 1-1s1 .4 1 1v3.4c0 .5-.5 1-1 1z"/></g></g><g><g><g><path d="m40.6 35.2c-.2 0-.4-.1-.6-.2l-5-3.5c-.5-.3-.6-.9-.2-1.4.3-.5.9-.6 1.4-.2l3.3 2.3-.4-4c0-.5.4-1 .9-1.1.6 0 1 .4 1.1.9l.5 6.1c0 .4-.2.8-.5 1-.2.1-.4.1-.5.1z"/></g><g><path d="m35.5 31.7c-.1 0-.2 0-.3 0-.3-.1-.5-.2-.6-.5l-14.2-24.8c-.5-.8-.4-1.9.2-2.7.9-1.1 2.1-1.8 3.6-2.1 1-.2 1.9.3 2.4 1.2l14.3 24.8c.3.5.1 1.1-.4 1.4l-4.5 2.5c-.1.1-.3.2-.5.2zm-10.9-28.1c-.1 0-.1 0 0 0-1 .2-1.8.6-2.4 1.4-.1.1-.1.3 0 .4l13.8 23.9 2.8-1.6-13.9-23.9c-.1-.1-.2-.2-.3-.2z"/></g><g><path d="m22.4 9c-.3 0-.7-.2-.9-.5-.3-.5-.1-1.1.4-1.4l4.5-2.6c.5-.3 1.1-.1 1.4.4s.1 1.1-.4 1.4l-4.5 2.6c-.1 0-.3.1-.5.1z"/></g></g></g><g><g><path d="m55.1 26.9h-7.9c-.6 0-1-.4-1-1v-.7c0-2.2-.9-4.3-2.6-6-2-2-3-4.7-3-7.5.1-5.5 4.6-10.1 10.1-10.3 2.9-.1 5.6.9 7.7 2.9s3.2 4.7 3.2 7.6c0 2.8-1.1 5.5-3.1 7.5-1.6 1.6-2.4 3.5-2.4 5.5v1c0 .5-.4 1-1 1zm-6.9-2h5.9c0-2.6 1.1-5 3-7 1.6-1.6 2.5-3.8 2.5-6 0-2.3-.9-4.5-2.6-6.1s-3.9-2.5-6.2-2.4c-4.4.2-8.1 3.9-8.2 8.3 0 2.3.8 4.4 2.4 6.1 2 2 3.1 4.5 3.2 7.1z"/></g><g><path d="m51.1 33.7c-2.3 0-4.1-1.9-4.1-4.1 0-.6.4-1 1-1s1 .4 1 1c0 1.2 1 2.1 2.1 2.1s2.1-1 2.1-2.1c0-.6.4-1 1-1s1 .4 1 1c.1 2.3-1.8 4.1-4.1 4.1z"/></g><g><path d="m51.1 20.2c-.3 0-.6-.1-.8-.4l-2.6-3.1c-.4-.4-.3-1.1.1-1.4.4-.4 1.1-.3 1.4.1l2.6 3.1c.4.4.3 1.1-.1 1.4-.1.2-.4.3-.6.3z"/></g><g><path d="m51.1 26.5c-.6 0-1-.4-1-1v-6.3c0-.2.1-.5.2-.6l2.7-3.1c.4-.4 1-.5 1.4-.1s.5 1 .1 1.4l-2.4 2.9v5.9c0 .4-.4.9-1 .9z"/></g><g><path d="m54.7 30.6h-7.2c-1.6 0-2.8-1.3-2.8-2.8 0-1.6 1.3-2.9 2.8-2.9h7.2c1.6 0 2.8 1.3 2.8 2.8.1 1.6-1.2 2.9-2.8 2.9zm-7.2-3.7c-.5 0-.8.4-.8.8 0 .5.4.9.8.9h7.2c.5 0 .8-.4.8-.8 0-.5-.4-.9-.8-.9z"/></g></g><g><g><path d="m24.9 47.7c-.4 0-.8-.3-1-.7-.2-.6-.5-1-.9-1s-.7.4-.9 1c-.1.5-.6.8-1.1.7-1.5-.3-3-.9-4.3-1.8-.4-.3-.6-.8-.3-1.3s.3-1.1.1-1.3-.8-.2-1.3.1c-.5.2-1 .1-1.3-.3-.9-1.3-1.5-2.7-1.8-4.3-.1-.5.2-1 .7-1.1.6-.2 1-.5 1-.9 0-.3-.4-.7-1-.9-.5-.1-.8-.6-.7-1.1.3-1.5.9-3 1.8-4.3.3-.4.8-.6 1.3-.3s1.1.3 1.3.1.2-.8-.1-1.3c-.2-.4-.1-1 .3-1.3 1.3-.9 2.7-1.5 4.3-1.8.5-.1 1 .2 1.1.7.2.6.5 1 .9 1s.7-.4.9-1c.1-.5.6-.8 1.1-.7 1.5.3 3 .9 4.3 1.8.4.3.6.8.3 1.3s-.3 1.1-.1 1.3.8.2 1.3-.1c.5-.2 1-.1 1.3.3.9 1.3 1.5 2.7 1.8 4.3.1.5-.2 1-.7 1.1-.6.2-1 .5-1 .9 0 .3.4.7 1 .9.5.1.8.6.7 1.1-.3 1.5-.9 3-1.8 4.3-.3.4-.8.6-1.3.3s-1.1-.3-1.3-.1-.2.8.1 1.3c.2.4.1 1-.3 1.3-1.3.9-2.7 1.5-4.3 1.8 0 0 0 0-.1 0zm-1.8-3.7c1 0 1.9.6 2.4 1.5.7-.2 1.4-.5 2.1-.9-.3-1.1-.1-2.1.6-2.8s1.7-.9 2.8-.6c.4-.7.7-1.4.9-2.1-1-.6-1.5-1.4-1.5-2.4s.6-1.9 1.5-2.4c-.2-.7-.5-1.4-.9-2.1-1.1.3-2.1.1-2.8-.6s-.9-1.7-.6-2.8c-.7-.4-1.4-.7-2.1-.9-.6 1-1.4 1.5-2.4 1.5s-1.9-.6-2.4-1.5c-.7.2-1.4.5-2.1.9.3 1.1.1 2.1-.6 2.8s-1.7.9-2.8.6c-.4.7-.7 1.4-.9 2.1 1 .6 1.5 1.4 1.5 2.4s-.6 1.9-1.5 2.4c.2.7.5 1.4.9 2.1 1.1-.3 2.1-.1 2.8.6s.9 1.7.6 2.8c.7.4 1.4.7 2.1.9.5-.9 1.4-1.5 2.4-1.5z"/></g><g><path d="m23.1 41.8c-2.8 0-5.1-2.3-5.1-5.1s2.3-5.1 5.1-5.1 5.1 2.3 5.1 5.1-2.3 5.1-5.1 5.1zm0-8.1c-1.7 0-3.1 1.4-3.1 3.1s1.4 3.1 3.1 3.1 3.1-1.4 3.1-3.1-1.4-3.1-3.1-3.1z"/></g></g><g><path d="m49.5 39.8h-8.9c-.6 0-1-.4-1-1s.4-1 1-1h8.9c.6 0 1 .4 1 1s-.5 1-1 1z"/></g><g><path d="m58.4 43.7h-17.8c-.6 0-1-.4-1-1s.4-1 1-1h17.8c.6 0 1 .4 1 1s-.4 1-1 1z"/></g><g><path d="m58.4 47.7h-17.8c-.6 0-1-.4-1-1s.4-1 1-1h17.8c.6 0 1 .4 1 1s-.4 1-1 1z"/></g></g></svg>