<svg height="512" viewBox="0 0 512 512" width="512" xmlns="http://www.w3.org/2000/svg"><g id="Layer_44" data-name="Layer 44"><path d="m448 40h-16a8 8 0 0 0 0 16h16a24.027 24.027 0 0 1 24 24v232h-368a8 8 0 0 0 0 16h368v40a24.027 24.027 0 0 1 -24 24h-384a24.027 24.027 0 0 1 -24-24v-40h32a8 8 0 0 0 0-16h-32v-232a24.027 24.027 0 0 1 24-24h16a8 8 0 0 0 0-16h-16a40.047 40.047 0 0 0 -40 40v288a40.047 40.047 0 0 0 40 40h119.531a128.078 128.078 0 0 1 -12.551 48h-2.98a32.034 32.034 0 0 0 -32 32v8a8 8 0 0 0 8 8h160a8 8 0 0 0 0-16h-152a16.019 16.019 0 0 1 16-16h176a16.019 16.019 0 0 1 16 16h-24a8 8 0 0 0 0 16h32a8 8 0 0 0 8-8v-8a32.034 32.034 0 0 0 -32-32h-2.98a128.078 128.078 0 0 1 -12.551-48h119.531a40.047 40.047 0 0 0 40-40v-288a40.047 40.047 0 0 0 -40-40zm-124.6 416h-134.8a144.636 144.636 0 0 0 11.164-48h112.47a144.636 144.636 0 0 0 11.166 48z"/><path d="m280 368a8 8 0 0 0 0-16h-48a8 8 0 0 0 0 16z"/><path d="m112 280h48a8 8 0 0 0 8-8v-16h176v16a8 8 0 0 0 8 8h48a8 8 0 0 0 8-8v-48a8 8 0 0 0 -8-8h-16v-144h16a8 8 0 0 0 8-8v-48a8 8 0 0 0 -8-8h-48a8 8 0 0 0 -8 8v16h-176v-16a8 8 0 0 0 -8-8h-48a8 8 0 0 0 -8 8v48a8 8 0 0 0 8 8h16v144h-16a8 8 0 0 0 -8 8v48a8 8 0 0 0 8 8zm280-16h-32v-32h32zm-32-240h32v32h-32zm-240 0h32v32h-32zm24 48h16a8 8 0 0 0 8-8v-16h176v16a8 8 0 0 0 8 8h16v144h-16a8 8 0 0 0 -8 8v16h-176v-16a8 8 0 0 0 -8-8h-16zm-24 160h32v32h-32z"/><path d="m184 160h24v24a8 8 0 0 0 8 8h24v24a8 8 0 0 0 8 8h80a8 8 0 0 0 8-8v-80a8 8 0 0 0 -8-8h-24v-24a8 8 0 0 0 -8-8h-24v-24a8 8 0 0 0 -8-8h-80a8 8 0 0 0 -8 8v80a8 8 0 0 0 8 8zm120 24v-40h16v64h-64v-16h40a8 8 0 0 0 8-8zm-32-32v-40h16v64h-64v-16h40a8 8 0 0 0 8-8zm-80-72h64v64h-64z"/></g></svg>