<svg id="Layer_1" enable-background="new 0 0 512 512" viewBox="0 0 512 512" xmlns="http://www.w3.org/2000/svg"><path d="m98.923 62.703c0-5.497 4.457-9.954 9.954-9.954s9.954 4.457 9.954 9.954c0 5.498-4.457 9.954-9.954 9.954s-9.954-4.456-9.954-9.954zm48.164 9.955c5.498 0 9.954-4.457 9.954-9.954s-4.457-9.954-9.954-9.954-9.954 4.457-9.954 9.954c.001 5.497 4.457 9.954 9.954 9.954zm38.211 0c5.497 0 9.954-4.457 9.954-9.954s-4.457-9.954-9.954-9.954-9.954 4.457-9.954 9.954 4.457 9.954 9.954 9.954zm35.206 228.244c0 42.209-34.34 76.549-76.549 76.549s-76.549-34.34-76.549-76.549c0-42.21 34.34-76.55 76.549-76.55s76.549 34.34 76.549 76.55zm-16 0c0-33.388-27.162-60.55-60.549-60.55s-60.549 27.162-60.549 60.55c0 33.387 27.162 60.549 60.549 60.549s60.549-27.162 60.549-60.549zm299.496 66.679v27.203c0 3.31-2.038 6.277-5.126 7.466l-12.833 4.939c-1.957 6.826-4.682 13.397-8.134 19.619l5.585 12.576c1.343 3.024.686 6.563-1.655 8.904l-19.235 19.235c-2.34 2.341-5.879 2.998-8.904 1.654l-12.571-5.583c-6.222 3.453-12.794 6.178-19.626 8.136l-4.938 12.828c-1.188 3.088-4.156 5.126-7.466 5.126h-27.203c-3.31 0-6.277-2.038-7.466-5.126l-4.939-12.832c-6.828-1.958-13.398-4.683-19.62-8.135l-12.575 5.586c-3.023 1.342-6.563.687-8.904-1.654l-19.236-19.235c-2.34-2.341-2.998-5.88-1.654-8.904l5.583-12.57c-3.453-6.223-6.177-12.795-8.136-19.627l-12.828-4.938c-3.089-1.188-5.126-4.156-5.126-7.466v-27.203c0-3.31 2.038-6.277 5.126-7.466l12.831-4.938c.493-1.72 1.035-3.423 1.625-5.108h-55.638c-1.377 2.991-2.873 5.932-4.504 8.808l7.555 17.012c1.344 3.024.686 6.563-1.654 8.903l-24.489 24.49c-2.34 2.341-5.879 2.999-8.904 1.655l-17.005-7.553c-8.371 4.747-17.26 8.432-26.519 10.993l-6.68 17.354c-1.188 3.088-4.156 5.126-7.466 5.126h-34.633c-3.31 0-6.277-2.038-7.466-5.126l-6.682-17.358c-9.256-2.562-18.141-6.246-26.51-10.991l-17.012 7.556c-3.023 1.342-6.563.686-8.904-1.654l-24.49-24.489c-2.34-2.341-2.998-5.88-1.654-8.904l7.553-17.005c-4.746-8.368-8.431-17.258-10.994-26.52l-17.354-6.68c-3.088-1.189-5.125-4.157-5.125-7.467v-34.633c0-3.31 2.038-6.277 5.126-7.466l17.357-6.681c2.562-9.257 6.246-18.144 10.992-26.514l-7.554-17.009c-1.344-3.024-.686-6.563 1.654-8.904l10.676-10.676v-158.988c0-13.803 11.229-25.032 25.032-25.032h377.373c13.803 0 25.032 11.229 25.032 25.032v258.578l8.15 8.15c2.34 2.341 2.998 5.88 1.655 8.904l-5.583 12.571c3.453 6.222 6.178 12.795 8.136 19.626l12.828 4.938c3.089 1.189 5.126 4.157 5.126 7.467zm-441.749-320.234v39.745h395.437v-39.745c0-4.98-4.052-9.032-9.032-9.032h-377.373c-4.981 0-9.032 4.052-9.032 9.032zm185.581 271.567 16.078-6.188v-23.646l-16.073-6.188c-2.462-.947-4.298-3.048-4.909-5.614-2.493-10.477-6.626-20.449-12.288-29.641-1.384-2.246-1.571-5.031-.5-7.442l6.996-15.753-16.722-16.721-15.759 6.999c-2.411 1.071-5.195.884-7.441-.499-9.194-5.661-19.164-9.795-29.634-12.287-2.566-.61-4.667-2.446-5.614-4.908l-6.188-16.078h-23.647l-6.189 16.078c-.948 2.462-3.048 4.298-5.614 4.908-10.47 2.492-20.44 6.626-29.634 12.287-2.247 1.383-5.031 1.57-7.441.499l-15.758-6.999-16.722 16.722 6.998 15.757c1.071 2.411.884 5.195-.5 7.442-5.661 9.191-9.794 19.162-12.287 29.635-.611 2.566-2.447 4.667-4.909 5.614l-16.075 6.188v23.646l16.073 6.188c2.461.947 4.298 3.047 4.908 5.613 2.495 10.481 6.63 20.454 12.289 29.642 1.384 2.246 1.571 5.031.5 7.442l-6.996 15.753 16.722 16.721 15.759-6.999c2.412-1.071 5.196-.884 7.442.499 9.191 5.66 19.161 9.794 29.634 12.287 2.566.61 4.666 2.447 5.613 4.908l6.188 16.077h23.647l6.187-16.073c.948-2.462 3.048-4.299 5.615-4.909 10.476-2.491 20.448-6.625 29.641-12.286 2.247-1.384 5.03-1.572 7.442-.5l15.752 6.996 16.721-16.722-6.999-15.759c-1.071-2.411-.884-5.195.499-7.441 5.661-9.194 9.794-19.164 12.286-29.634.61-2.567 2.447-4.667 4.909-5.614zm9.093 15.154h55.5l-4.924-11.087c-1.344-3.024-.686-6.563 1.654-8.904l19.236-19.236c2.34-2.34 5.879-2.995 8.904-1.654l12.575 5.586c6.221-3.452 12.792-6.177 19.62-8.135l4.94-12.832c1.189-3.088 4.157-5.126 7.466-5.126h27.203c3.31 0 6.277 2.038 7.466 5.126l4.939 12.832c6.828 1.958 13.398 4.683 19.619 8.135l12.575-5.586c1.282-.568 2.654-.757 3.99-.632v-189.463h-395.437v87.895c2.078-1.002 4.53-1.092 6.718-.119l17.011 7.556c8.371-4.746 17.257-8.431 26.51-10.991l6.683-17.359c1.189-3.088 4.157-5.126 7.466-5.126h34.633c3.31 0 6.277 2.038 7.466 5.126l6.682 17.359c9.253 2.561 18.14 6.245 26.51 10.991l17.011-7.556c3.024-1.342 6.563-.686 8.904 1.654l24.49 24.489c2.34 2.341 2.998 5.88 1.654 8.904l-7.553 17.005c4.747 8.371 8.432 17.26 10.994 26.52l17.354 6.68c3.088 1.188 5.126 4.156 5.126 7.466v34.633c0 3.31-2.038 6.277-5.126 7.466l-17.358 6.682c-.159.569-.335 1.133-.501 1.701zm231.075 39.006-11.525-4.437c-2.462-.947-4.298-3.048-4.909-5.614-1.916-8.052-5.093-15.715-9.443-22.778-1.384-2.246-1.571-5.031-.5-7.442l5.017-11.297-11.467-11.467-11.301 5.02c-2.412 1.068-5.196.885-7.442-.5-7.063-4.35-14.725-7.526-22.773-9.442-2.566-.61-4.666-2.447-5.613-4.908l-4.438-11.528h-16.217l-4.438 11.528c-.947 2.462-3.047 4.298-5.613 4.908-8.048 1.916-15.711 5.093-22.774 9.442-2.246 1.385-5.031 1.57-7.442.5l-11.3-5.02-11.468 11.468 5.018 11.3c1.071 2.411.884 5.195-.5 7.442-4.35 7.063-7.527 14.726-9.442 22.774-.611 2.565-2.447 4.666-4.909 5.613l-11.527 4.438v16.217l11.525 4.437c2.462.947 4.298 3.048 4.909 5.613 1.917 8.053 5.093 15.718 9.443 22.78 1.383 2.247 1.57 5.031.499 7.442l-5.017 11.296 11.468 11.467 11.301-5.02c2.412-1.069 5.195-.885 7.442.5 7.063 4.35 14.726 7.526 22.774 9.442 2.566.61 4.666 2.447 5.613 4.908l4.438 11.528h16.217l4.436-11.524c.947-2.462 3.048-4.298 5.614-4.908 8.053-1.917 15.717-5.094 22.779-9.443 2.247-1.384 5.03-1.572 7.442-.5l11.296 5.017 11.468-11.467-5.02-11.302c-1.071-2.411-.884-5.195.5-7.441 4.35-7.065 7.527-14.728 9.441-22.773.611-2.566 2.447-4.667 4.909-5.614l11.529-4.438zm-32.239 8.109c0 33.229-27.035 60.264-60.265 60.264s-60.264-27.034-60.264-60.264 27.034-60.266 60.264-60.266c33.231 0 60.265 27.036 60.265 60.266zm-16 0c0-24.408-19.857-44.266-44.265-44.266-24.407 0-44.264 19.857-44.264 44.266 0 24.407 19.857 44.264 44.264 44.264 24.408 0 44.265-19.857 44.265-44.264zm-92.2-150.743c.958 3.574 4.19 5.932 7.723 5.932.685 0 1.382-.089 2.076-.274 4.268-1.144 6.8-5.53 5.657-9.798l-25.277-94.335c-1.144-4.268-5.525-6.798-9.798-5.657-4.268 1.144-6.8 5.53-5.657 9.798zm-46.871-22.565-29.511-24.868 29.511-24.869c3.378-2.847 3.809-7.894.962-11.272-2.847-3.38-7.894-3.81-11.272-.962l-36.77 30.986c-1.804 1.52-2.845 3.759-2.845 6.117 0 2.359 1.041 4.598 2.845 6.117l36.77 30.985c1.501 1.266 3.331 1.883 5.151 1.883 2.277 0 4.539-.968 6.122-2.845 2.846-3.378 2.415-8.425-.963-11.272zm83.293 11.273c1.583 1.878 3.844 2.845 6.122 2.845 1.82 0 3.65-.618 5.151-1.883l36.771-30.985c1.804-1.52 2.845-3.758 2.845-6.117 0-2.358-1.041-4.598-2.845-6.117l-36.771-30.986c-3.378-2.848-8.425-2.417-11.273.962-2.847 3.379-2.416 8.426.962 11.272l29.511 24.869-29.511 24.868c-3.378 2.846-3.81 7.893-.962 11.272z"/></svg>