<svg id="Layer_1" enable-background="new 0 0 68 68" height="512" viewBox="0 0 68 68" width="512" xmlns="http://www.w3.org/2000/svg"><g id="_x31_67"><path d="m66 4.9c0-1.7-1.3-3-3-3h-37.7c-1.7 0-3 1.3-3 3v22.6c0 .6.4 1 1 1s1-.4 1-1v-13.8h39.7v26.7c0 .6-.4 1-1 1h-13.8l.5-2.1c.9-.4 1.7-.9 2.5-1.5l3.1 1c.4.1.9 0 1.2-.5l2.1-3.6c.2-.4.2-.9-.2-1.2l-2.6-2.3c.1-1 .1-1.9-.1-2.8l2.5-2.2c.3-.3.4-.8.2-1.2l-2.1-3.6c-.2-.4-.7-.6-1.2-.5l-3.6 1.1c-.6-.4-1.1-.7-1.8-1l-.7-3.4c-.1-.5-.5-.8-1-.8h-4.1c-.5 0-.9.3-1 .8l-.7 3.3c-.8.3-1.5.7-2.1 1.2l-3.4-1.1c-.4-.1-.9 0-1.2.5l-2.1 3.5c-.2.4-.2.9.2 1.2l2.4 2.2c-.1.6-.1 1.1-.1 1.7s.4 1 1 1 1-.4 1-1 .1-1.2.2-1.8c.1-.4 0-.7-.3-1l-2.3-2.1 1.3-2.2 3.1 1c.3.1.7 0 .9-.2.7-.6 1.6-1 2.5-1.3.3-.1.6-.4.7-.7l.7-3h2.5l.7 3.1c.1.3.3.6.6.7.8.3 1.5.7 2.2 1.2.3.2.6.3.9.2l3.3-1 1.3 2.2-2.3 2.1c-.3.2-.4.6-.3 1 .2 1 .3 2.1.1 3.2-.1.3.1.7.3.9l2.4 2.1-1.3 2.2-2.8-.9c-.3-.1-.7 0-1 .2-.8.8-1.7 1.3-2.8 1.7-.3.1-.6.4-.6.7l-.7 3.1h-1.3v-5.5c3.2 0 5.8-2.7 5.8-5.9s-2.6-5.9-5.9-5.9-5.9 2.6-5.9 5.9c0 .5.1.9.2 1.4h-35.1c-1.6 0-2.9 1.3-2.9 2.9v8.6c0 1.6 1.3 2.9 2.9 2.9h5.5v2.6h-5.5c-1.6 0-2.9 1.3-2.9 2.9v8.6c0 1.7 1.3 3 2.9 3h6.7v2c0 .6.4 1 1 1s1-.4 1-1v-2h11.3c.6 0 1-.4 1-1s-.4-1-1-1h-20c-.5 0-.9-.4-.9-.9v-8.6c0-.5.4-.9.9-.9h38c.5 0 .9.4.9.9v8.6c0 .5-.4.9-.9.9h-13.4c-.6 0-1 .4-1 1s.4 1 1 1h4.7v2c0 .6.4 1 1 1s1-.4 1-1v-2h6.7c1.6 0 2.9-1.3 2.9-2.9v-8.6c0-1.6-1.3-2.9-2.9-2.9h-5.5v-2.6h5.5c1.5 0 2.7-1.1 2.9-2.5h17.2c1.7 0 3-1.3 3-3v-35.6zm-24.1 25.2c0-2.1 1.7-3.9 3.9-3.9s3.9 1.7 3.9 3.9c0 2.1-1.7 3.9-3.9 3.9-.2-1.4-1.4-2.5-2.9-2.5h-.7c-.2-.4-.3-.9-.3-1.4zm-6.5 18.5h-22.9v-2.6h22.9zm8.5-5.6c0 .5-.4.9-.9.9h-38c-.5 0-.9-.4-.9-.9v-8.6c0-.5.4-.9.9-.9h38c.5 0 .9.4.9.9zm-19.6-31.3v-6.8c0-.6.4-1 1-1h37.7c.6 0 1 .4 1 1v6.8z"/><path d="m29.8 6.8c-.5 0-1 .4-1 1 0 .5.4 1 1 1s1-.5 1-1-.4-1-1-1z"/><path d="m35.9 6.8c-.5 0-1 .4-1 1 0 .5.4 1 1 1s1-.5 1-1-.4-1-1-1z"/><path d="m42 6.8c-.6 0-1 .5-1 1s.4 1 1 1 1-.5 1-1-.4-1-1-1z"/><path d="m9.3 37.7h-1.1c-.6 0-1 .4-1 1s.4 1 1 1h1.1c.6 0 1-.4 1-1s-.4-1-1-1z"/><path d="m14.6 37.7h-1.1c-.6 0-1 .4-1 1s.4 1 1 1h1.1c.6 0 1-.4 1-1s-.4-1-1-1z"/><path d="m20 37.7h-1.1c-.6 0-1 .4-1 1s.4 1 1 1h1.1c.6 0 1-.4 1-1s-.5-1-1-1z"/><path d="m8.2 54.8c-.6 0-1 .4-1 1s.4 1 1 1h1.1c.6 0 1-.4 1-1s-.4-1-1-1z"/><path d="m13.5 54.8c-.6 0-1 .4-1 1s.4 1 1 1h1.1c.6 0 1-.4 1-1s-.4-1-1-1z"/><path d="m18.8 54.8c-.6 0-1 .4-1 1s.4 1 1 1h1.2c.6 0 1-.4 1-1s-.4-1-1-1z"/><path d="m65.4 47.3c-.2-.8-.6-1.5-.9-2.2-.2-.4-.7-.6-1.2-.5s-.7.6-.7 1.1c.6 4.9-2.2 9.6-6.7 11.4l-.5-1.5c-.2-.8-1.3-1-1.8-.2l-4.1 6.4c-.3.5-.1 1.2.5 1.5l7 2.9c.8.3 1.6-.4 1.3-1.2l-.5-1.6c6.2-2.7 9.6-9.6 7.6-16.1zm-9.2 14.3c-.5.2-.8.7-.7 1.3l.2.5-3.9-1.6 2.3-3.6.2.5c.2.5.7.8 1.3.7 4.1-1.3 7.1-4.4 8.4-8.2 0 4.5-2.9 8.9-7.8 10.4z"/><path d="m3.5 23.1c.2.4.7.6 1.2.5s.7-.6.7-1.1c-.6-4.9 2.2-9.6 6.7-11.4l.5 1.5c.3.8 1.3 1 1.8.2l4.1-6.4c.3-.5.1-1.2-.5-1.4l-7-2.9c-.8-.3-1.6.4-1.3 1.2l.5 1.6c-7.2 2.9-10.3 11.4-6.7 18.2zm8.2-16.6c.5-.2.8-.7.7-1.3l-.2-.5 3.9 1.6-2.3 3.7-.2-.5c-.2-.5-.7-.8-1.3-.7-4 1.3-7 4.4-8.3 8.2 0-4.7 3-9 7.7-10.5z"/></g></svg>