<svg clip-rule="evenodd" fill-rule="evenodd" stroke-linejoin="round" stroke-miterlimit="2" viewBox="0 0 510 510" xmlns="http://www.w3.org/2000/svg"><path d="m146.468 460.045 4.133 7.302c.004.007.008.014.011.02 4.647 8.265 1.698 18.811-6.518 23.451l-17.571 9.959c-.008.005-.016.009-.024.014-8.265 4.646-18.81 1.698-23.454-6.523l-51.668-91.297c-4.689-8.273-1.74-18.83 6.488-23.478l17.591-9.959.007-.003c8.223-4.645 18.774-1.728 23.457 6.496l.01.019 3.178 5.616 44.464-25.743c14.286-8.262 28.905-13.534 44.596-8.439 14.74 4.78 38.799 15.094 63.358 19.532.352.063.7.151 1.041.261 13.343 4.32 21.415 17.832 17.771 31.38-.18.672-.379 1.329-.597 1.97 1.287-.544 2.56-1.182 3.823-1.918l62.651-36.488c23.534-13.711 39.261-11.932 48.142-5.973 7.87 5.28 11.552 14.277 11.317 23.127-.238 8.958-4.561 17.487-11.586 21.814l-113.682 69.992c-12.389 7.647-25.959 9.448-40.017 5.698l-.009-.003-79.264-21.243zm-9.801 15.166-51.653-91.269-.007-.013c-.342-.58-1.089-.798-1.675-.467l-17.585 9.955-.007.004c-.581.328-.774 1.076-.444 1.66l.003.005 51.671 91.301.003.006c.332.588 1.089.783 1.681.453l17.55-9.947.011-.006c.588-.332.782-1.09.452-1.682zm1.921-29.091 10.397-6.004c1.838-1.061 4.022-1.349 6.071-.799l82.459 22.099c9.654 2.575 18.98 1.397 27.488-3.854l.007-.005 113.688-69.996c2.699-1.662 3.89-5.173 3.981-8.615.282-10.599-10.433-17.455-35.411-2.904l-62.649 36.487c-10.414 6.069-21.327 7.76-33.223 5.866-.009-.001-.018-.003-.027-.004l-7.765-1.264c-.003 0-.007-.001-.01-.001-.108-.018-.216-.038-.323-.06-.004-.001-.008-.001-.012-.002-14.172-2.91-27.318-7.188-41.903-11.108-4.264-1.146-6.796-5.538-5.65-9.802s5.538-6.796 9.802-5.65c14.149 3.802 26.905 7.974 40.637 10.818 5.946.632 10.371-1.714 11.741-6.819l.001-.004c1.377-5.118-1.865-10.035-6.811-11.853-25.147-4.638-49.748-15.052-64.846-19.947l-.003-.001c-11.209-3.64-21.438 1.169-31.644 7.071l-44.594 25.818zm-58.625-53.453c3.988-.594 7.691 2.16 8.284 6.148.57 3.988-2.184 7.714-6.171 8.284-3.988.594-7.691-2.184-8.285-6.172-.569-3.987 2.184-7.69 6.172-8.26zm82.007-176.235c-24.795-8.255-42.794-31.727-42.794-59.188 0-24.015 13.757-44.972 33.772-55.386.019-52.387 42.482-94.858 94.874-94.858 23.87 0 45.698 8.821 62.378 23.39 7.766-2.291 15.984-3.523 24.495-3.523 42.765 0 78.249 31.045 85.196 71.824 24.311 8.918 40.969 32.28 40.969 58.553 0 27.461-17.999 50.933-42.794 59.188v22.089c0 3.31-2.038 6.278-5.127 7.467 0 0-16.048 6.176-16.048 6.175-2.39 8.553-5.814 16.777-10.167 24.519l6.974 15.745c1.339 3.023.68 6.559-1.658 8.897l-22.963 22.963c-2.338 2.338-5.873 2.996-8.896 1.657 0 0-15.731-6.968-15.731-6.968-7.73 4.369-15.974 7.777-24.533 10.163l-6.176 16.047c-1.188 3.088-4.156 5.126-7.466 5.126h-32.482c-3.309 0-6.277-2.038-7.466-5.126 0 0-6.175-16.045-6.174-16.045-8.576-2.391-16.807-5.816-24.553-10.171l-15.745 6.974c-3.023 1.339-6.558.681-8.897-1.657l-22.962-22.963c-2.341-2.341-2.999-5.882-1.654-8.907 0 0 6.993-15.727 6.993-15.726-4.366-7.727-7.776-15.968-10.18-24.523l-16.059-6.18c-3.088-1.189-5.126-4.157-5.126-7.467zm253.661-16.14c17.083-6.852 29.229-23.602 29.229-43.048 0-20.883-14.163-39.283-34.291-44.746-3.179-.862-5.505-3.586-5.859-6.86-3.816-35.299-33.697-62.771-70.015-62.771-8.342 0-16.339 1.449-23.766 4.109-2.869 1.028-6.073.336-8.262-1.783-14.196-13.742-33.543-22.193-54.845-22.193-43.567 0-78.874 35.326-78.874 78.893 0 1.518.034 3.035.121 4.536.199 3.41-1.79 6.569-4.95 7.865-16.917 6.942-28.943 23.604-28.943 42.95 0 19.446 12.146 36.196 29.229 43.048.757-.733 1.667-1.324 2.691-1.718 0 0 16.056-6.179 16.055-6.179 2.406-8.576 5.817-16.806 10.186-24.551l-6.995-15.732c-1.345-3.025-.687-6.566 1.654-8.907l22.962-22.963c2.341-2.341 5.882-2.998 8.908-1.653 0 0 15.731 6.995 15.731 6.995 7.745-4.369 15.972-7.777 24.526-10.163l6.207-16.085c1.19-3.085 4.157-5.12 7.463-5.12h32.482c3.311 0 6.28 2.04 7.468 5.131l6.177 16.076c8.552 2.386 16.776 5.793 24.518 10.161l15.732-6.995c3.025-1.345 6.566-.688 8.907 1.653l22.963 22.963c2.338 2.338 2.997 5.873 1.658 8.897 0 0-6.97 15.736-6.971 15.735 4.372 7.749 7.782 15.983 10.169 24.562l16.043 6.175c1.025.394 1.935.985 2.692 1.718zm-109.169-75.286s-5.683-14.79-5.683-14.79h-21.498l-5.711 14.801c-.949 2.46-3.049 4.294-5.614 4.903-9.769 2.322-19.085 6.181-27.648 11.458-2.248 1.385-5.035 1.572-7.447.499l-14.475-6.436s-15.191 15.192-15.191 15.192l6.436 14.474c1.072 2.413.886 5.199-.499 7.447-5.281 8.569-9.141 17.893-11.495 27.699-.614 2.559-2.449 4.653-4.905 5.599l-14.762 5.681v21.495l14.762 5.682c2.455.944 4.288 3.036 4.904 5.593 2.353 9.773 6.21 19.125 11.489 27.661 1.391 2.249 1.58 5.041.506 7.458 0 0-6.436 14.474-6.436 14.474l15.197 15.197 14.479-6.413c2.404-1.065 5.177-.881 7.419.493 8.568 5.249 17.889 9.144 27.694 11.467 2.569.609 4.673 2.446 5.621 4.911l5.682 14.761h21.495l5.681-14.761c.948-2.463 3.049-4.3 5.617-4.91 9.765-2.321 19.108-6.177 27.638-11.451 2.246-1.389 5.032-1.58 7.447-.51l14.479 6.413 15.203-15.203-6.414-14.479c-1.064-2.403-.88-5.177.493-7.419 5.25-8.569 9.145-17.89 11.469-27.666.61-2.567 2.447-4.669 4.909-5.616l14.762-5.682v-21.495l-14.762-5.681c-2.464-.949-4.302-3.053-4.911-5.622-2.321-9.798-6.18-19.114-11.456-27.676-1.383-2.245-1.571-5.026-.504-7.437l6.414-14.478s-15.197-15.198-15.197-15.198l-14.475 6.436c-2.412 1.073-5.199.886-7.447-.499-8.563-5.277-17.879-9.136-27.648-11.458-2.569-.61-4.671-2.449-5.618-4.914zm-16.449 14.253c45.859 0 83.043 37.14 83.043 83 0 45.858-37.185 83.043-83.043 83.043-45.86 0-83.001-37.183-83.001-83.043 0-45.861 37.14-83 83.001-83zm0 16c-37.021 0-67.001 29.98-67.001 67 0 37.022 29.979 67.043 67.001 67.043 37.023 0 67.043-30.02 67.043-67.043 0-37.022-30.022-67-67.043-67zm-24.167 79.525c2.595 3.572 1.802 8.579-1.77 11.175-3.572 2.595-8.579 1.802-11.174-1.77l-12.513-17.222c-2.037-2.804-2.037-6.601 0-9.405l12.513-17.222c2.595-3.572 7.602-4.365 11.174-1.77s4.365 7.602 1.77 11.174l-9.096 12.52zm61.288 9.405c-2.595 3.572-7.602 4.365-11.174 1.77-3.572-2.596-4.365-7.603-1.77-11.175l9.096-12.52-9.096-12.52c-2.595-3.572-1.802-8.579 1.77-11.174s8.579-1.802 11.174 1.77l12.513 17.222c2.037 2.804 2.037 6.601 0 9.405zm-38.101-1.015c-2.035 3.918-6.868 5.447-10.787 3.412-3.918-2.035-5.447-6.869-3.411-10.787l16.168-31.127c2.035-3.919 6.868-5.447 10.787-3.412 3.918 2.035 5.447 6.869 3.411 10.787z"/></svg>