<?xml version="1.0" encoding="UTF-8" standalone="no"?>
<!-- Created with Inkscape (http://www.inkscape.org/) -->

<svg
   version="1.1"
   id="svg3024"
   xml:space="preserve"
   width="682.66669"
   height="682.66669"
   viewBox="0 0 682.66669 682.66669"
   xmlns="http://www.w3.org/2000/svg"
   xmlns:svg="http://www.w3.org/2000/svg"><defs
     id="defs3028"><clipPath
       clipPathUnits="userSpaceOnUse"
       id="clipPath3038"><path
         d="M 0,512 H 512 V 0 H 0 Z"
         id="path3036" /></clipPath></defs><g
     id="g3030"
     transform="matrix(1.3333333,0,0,-1.3333333,0,682.66667)"><g
       id="g3032"><g
         id="g3034"
         clip-path="url(#clipPath3038)"><g
           id="g3040"
           transform="translate(290.1133,343.5283)"><path
             d="m 0,0 c 8.739,-13.844 13.797,-30.243 13.797,-47.823 0,-23.96 -9.401,-45.73 -24.7,-61.83 l 20.96,-19.869 h 40.679 c 0.92,2.229 1.991,4.419 3.231,6.559 13.769,23.86 42.859,33.34 67.67,23.18 4.349,16.59 6.67,34 6.67,51.96 0,17.85 -2.3,35.17 -6.6,51.67 -24.82,-10.18 -53.961,-0.71 -67.74,23.15 -13.8,23.88 -7.42,53.88 13.84,70.25 -24.6,24.39 -55.38,42.54 -89.79,51.94 -3.51,-26.64 -26.31,-47.2 -53.93,-47.2 -27.601,0 -50.41,20.56 -53.92,47.2 -34.41,-9.4 -65.181,-27.55 -89.78,-51.94 21.25,-16.38 27.63,-46.37 13.84,-70.25 -13.78,-23.86 -42.93,-33.33 -67.741,-23.15 -4.299,-16.5 -6.599,-33.82 -6.599,-51.67 0,-17.96 2.32,-35.37 6.67,-51.96 24.799,10.16 53.9,0.68 67.67,-23.18 13.75,-23.82 7.45,-53.7 -13.67,-70.11 24.58,-24.31 55.32,-42.409 89.65,-51.78 3.64,26.49 26.39,46.91 53.88,46.91 h 0.01 v 34.69 c 0,10.85 5.12,20.5 13.07,26.67 -4.271,-0.63 -8.641,-0.95 -13.08,-0.95 -49.54,0 -89.7,40.16 -89.7,89.71 0,49.54 40.16,89.71 89.7,89.71"
             style="fill:none;stroke:#000000;stroke-width:20;stroke-linecap:round;stroke-linejoin:round;stroke-miterlimit:10;stroke-dasharray:none;stroke-opacity:1"
             id="path3042" /></g><g
           id="g3044"
           transform="translate(468.2715,214.0068)"><path
             d="m 0,0 h -168.104 l -52.229,49.511 V 0 c -18.628,0 -33.729,-15.101 -33.729,-33.728 v -127.515 c 0,-18.628 15.101,-33.729 33.729,-33.729 H 0 c 18.628,0 33.729,15.101 33.729,33.729 V -33.728 C 33.729,-15.101 18.628,0 0,0 Z"
             style="fill:none;stroke:#000000;stroke-width:20;stroke-linecap:round;stroke-linejoin:round;stroke-miterlimit:10;stroke-dasharray:none;stroke-opacity:1"
             id="path3046" /></g><g
           id="g3048"
           transform="translate(393.1543,492.9648)"><path
             d="M 0,0 C 52.521,-46.974 85.578,-115.26 85.578,-191.268"
             style="fill:none;stroke:#000000;stroke-width:20;stroke-linecap:round;stroke-linejoin:round;stroke-miterlimit:10;stroke-dasharray:none;stroke-opacity:1"
             id="path3050" /></g><g
           id="g3052"
           transform="translate(161.5186,35.8809)"><path
             d="M 0,0 C -52.188,8.955 -98.987,33.676 -135.323,69.084"
             style="fill:none;stroke:#000000;stroke-width:20;stroke-linecap:round;stroke-linejoin:round;stroke-miterlimit:10;stroke-dasharray:none;stroke-opacity:1"
             id="path3054" /></g><g
           id="g3056"
           transform="translate(26.1953,74.9639)"><path
             d="M 0,0 V 30.001 L 29.077,34.94"
             style="fill:none;stroke:#000000;stroke-width:20;stroke-linecap:round;stroke-linejoin:round;stroke-miterlimit:10;stroke-dasharray:none;stroke-opacity:1"
             id="path3058" /></g><g
           id="g3060"
           transform="translate(456.0684,313.8037)"><path
             d="M 0,0 22.664,-20.292 44.347,-0.316"
             style="fill:none;stroke:#000000;stroke-width:20;stroke-linecap:round;stroke-linejoin:round;stroke-miterlimit:10;stroke-dasharray:none;stroke-opacity:1"
             id="path3062" /></g><g
           id="g3064"
           transform="translate(300.167,152.3945)"><path
             d="M 0,0 -37.332,-33.124 0,-70.981"
             style="fill:none;stroke:#000000;stroke-width:20;stroke-linecap:round;stroke-linejoin:round;stroke-miterlimit:10;stroke-dasharray:none;stroke-opacity:1"
             id="path3066" /></g><g
           id="g3068"
           transform="translate(417.8555,152.3945)"><path
             d="M 0,0 37.333,-33.124 0,-70.981"
             style="fill:none;stroke:#000000;stroke-width:20;stroke-linecap:round;stroke-linejoin:round;stroke-miterlimit:10;stroke-dasharray:none;stroke-opacity:1"
             id="path3070" /></g><g
           id="g3072"
           transform="translate(391.7607,174.2305)"><path
             d="M 0,0 -63.615,-114.653"
             style="fill:none;stroke:#000000;stroke-width:20;stroke-linecap:round;stroke-linejoin:round;stroke-miterlimit:10;stroke-dasharray:none;stroke-opacity:1"
             id="path3074" /></g><g
           id="g3076"
           transform="translate(258.0195,374.6797)"><path
             d="M 0,0 V 0"
             style="fill:none;stroke:#000000;stroke-width:20;stroke-linecap:round;stroke-linejoin:round;stroke-miterlimit:10;stroke-dasharray:none;stroke-opacity:1"
             id="path3078" /></g></g></g></g></svg>
