<svg id="Layer_1" enable-background="new 0 0 512 512" height="512" viewBox="0 0 512 512" width="512" xmlns="http://www.w3.org/2000/svg"><path d="m449.341 192.153c3.099 11.664 13.746 20.286 26.372 20.286 15.046 0 27.287-12.24 27.287-27.286s-12.241-27.287-27.287-27.287c-12.626 0-23.273 8.622-26.372 20.287h-14.788c-3.866 0-7 3.134-7 7v63.846h-29.115v-145.711h50.904c3.099 11.665 13.746 20.287 26.372 20.287 15.046 0 27.287-12.241 27.287-27.287s-12.241-27.286-27.287-27.286c-12.626 0-23.273 8.622-26.372 20.286h-57.904c-3.866 0-7 3.134-7 7v152.712h-11.153c-3.866 0-7 3.134-7 7 0 60.811-49.473 110.284-110.284 110.284s-110.284-49.474-110.284-110.285c0-3.866-3.134-7-7-7h-11.154v-152.711c0-3.866-3.134-7-7-7h-57.904c-3.099-11.664-13.746-20.286-26.372-20.286-15.046 0-27.287 12.24-27.287 27.286s12.241 27.287 27.287 27.287c12.626 0 23.273-8.622 26.372-20.287h50.904v145.711h-29.116v-63.846c0-3.866-3.134-7-7-7h-14.788c-3.099-11.665-13.746-20.287-26.372-20.287-15.046 0-27.287 12.241-27.287 27.287s12.241 27.286 27.287 27.286c12.626 0 23.273-8.622 26.372-20.286h7.788v56.846h-54.447c-3.866 0-7 3.134-7 7v24c0 12.553 10.212 22.765 22.765 22.765 18.979 0 35.29 10.914 42.567 28.484 7.278 17.569 3.462 36.821-9.958 50.241-4.299 4.299-6.667 10.017-6.667 16.098 0 6.082 2.368 11.799 6.667 16.099l33.94 33.939c4.3 4.3 10.017 6.668 16.098 6.668s11.798-2.368 16.098-6.667c13.44-13.44 32.698-17.27 50.258-9.995 17.56 7.273 28.468 23.598 28.468 42.604 0 12.553 10.212 22.765 22.765 22.765h47.998c12.552 0 22.765-10.212 22.765-22.765 0-5.597.917-10.976 2.726-15.988 1.312-3.637-.572-7.648-4.209-8.961-3.636-1.311-7.648.572-8.96 4.209-2.36 6.541-3.557 13.52-3.557 20.74 0 4.833-3.932 8.765-8.765 8.765h-47.998c-4.833 0-8.765-3.932-8.765-8.765 0-24.775-14.22-46.057-37.11-55.538-22.891-9.481-47.995-4.489-65.516 13.03-1.655 1.655-3.856 2.566-6.198 2.566s-4.543-.911-6.198-2.567l-33.941-33.94c-1.655-1.654-2.566-3.855-2.566-6.198 0-2.342.912-4.544 2.566-6.198 17.5-17.5 22.479-42.598 12.993-65.499-9.485-22.9-30.752-37.126-55.501-37.126-4.833 0-8.765-3.932-8.765-8.765v-17h108.911c3.645 65.284 57.909 117.284 124.089 117.284 20.281 0 39.44-4.891 56.369-13.544-4.702 11.516-7.301 24.105-7.301 37.293 0 54.57 44.396 98.967 98.966 98.967s98.967-44.396 98.967-98.967-44.396-98.966-98.967-98.966c-13.187 0-25.777 2.599-37.293 7.302 7.651-14.969 12.362-31.679 13.349-49.369l108.91-.001v17c0 4.833-3.932 8.765-8.765 8.765-7.221 0-14.199 1.196-20.74 3.556-3.637 1.312-5.521 5.323-4.21 8.96 1.312 3.637 5.325 5.517 8.96 4.21 5.014-1.809 10.393-2.726 15.99-2.726 12.552 0 22.765-10.212 22.765-22.765v-24c0-1.856-.737-3.637-2.05-4.95-1.313-1.312-3.093-2.05-4.95-2.05h-54.448v-56.846zm26.372-20.287c7.327 0 13.287 5.961 13.287 13.287s-5.96 13.286-13.287 13.286c-7.326 0-13.287-5.96-13.287-13.286s5.961-13.287 13.287-13.287zm0-88.864c7.327 0 13.287 5.96 13.287 13.286s-5.96 13.287-13.287 13.287c-7.326 0-13.287-5.961-13.287-13.287s5.961-13.286 13.287-13.286zm-439.426 26.573c-7.327 0-13.287-5.961-13.287-13.287s5.96-13.286 13.287-13.286 13.287 5.96 13.287 13.286-5.961 13.287-13.287 13.287zm0 88.864c-7.326 0-13.287-5.96-13.287-13.286s5.96-13.287 13.287-13.287 13.287 5.961 13.287 13.287-5.961 13.286-13.287 13.286zm452.713 205.594c0 46.851-38.116 84.967-84.967 84.967s-84.966-38.116-84.966-84.967 38.115-84.966 84.966-84.966 84.967 38.115 84.967 84.966zm-233-56.758c50.33 0 91.276-40.946 91.276-91.275 0-3.866-3.134-7-7-7h-168.552c-3.866 0-7 3.134-7 7 0 50.329 40.946 91.275 91.276 91.275zm76.962-84.275c-3.548 39.343-36.711 70.275-76.962 70.275s-73.414-30.932-76.962-70.275zm-154.364-172.504 29.184.001v133.353c0 3.866 3.134 7 7 7h82.438c3.866 0 7-3.134 7-7v-133.353l29.182-.001c2.918 0 5.531-1.811 6.555-4.544 1.024-2.732.246-5.813-1.954-7.731l-77.402-67.496c-2.637-2.299-6.564-2.299-9.201 0l-77.402 67.495c-2.2 1.918-2.979 4.999-1.954 7.731 1.023 2.734 3.636 4.545 6.554 4.545zm77.402-65.208 58.724 51.209h-17.504c-3.866 0-7 3.134-7 7v133.353h-68.438v-133.353c0-3.866-3.134-7-7-7h-17.506zm141.489 356.861v47.637c0 3.866-3.134 7-7 7s-7-3.134-7-7v-47.637c0-3.866 3.134-7 7-7s7 3.134 7 7zm27.09 0v47.637c0 3.866-3.134 7-7 7s-7-3.134-7-7v-47.637c0-3.866 3.134-7 7-7s7 3.134 7 7zm-35.213 86.322c0 3.855-3.144 7-7 7-3.855 0-7-3.145-7-7s3.145-7 7-7c3.856-.001 7 3.144 7 7zm43.309 0c0 3.855-3.144 7-7 7-3.855 0-7-3.145-7-7s3.145-7 7-7c3.855-.001 7 3.144 7 7zm-59.398-9.284h61.513c6.881 0 12.48-5.599 12.48-12.479v-81.48c0-6.882-5.599-12.48-12.48-12.48h-8.922v-11.132c0-7.477-6.083-13.56-13.56-13.56h-16.549c-7.477 0-13.56 6.083-13.56 13.56v11.132h-8.921c-6.882 0-12.48 5.599-12.48 12.48v81.48c-.001 6.881 5.598 12.479 12.479 12.479zm22.922-117.132h15.669v10.691h-15.669zm-21.402 24.692h58.473v78.44h-58.473z"/></svg>