<svg id="Layer_1" enable-background="new 0 0 512 512" viewBox="0 0 512 512" xmlns="http://www.w3.org/2000/svg"><path d="m234.002 320.327c27.759 19.438 61.521 30.863 97.906 30.863 16.12 0 32.055-2.244 47.404-6.66 7.82 5.48 17.328 8.709 27.581 8.709 26.57 0 48.187-21.616 48.187-48.187 0-1.979-.134-3.926-.367-5.843 31.15-32.095 48.292-74.323 48.292-119.118 0-94.343-76.754-171.097-171.098-171.097-44.807 0-87.29 17.394-119.083 48.245v-30.128c0-9.99-8.127-18.117-18.117-18.117h-167.584c-9.99 0-18.117 8.127-18.117 18.117v106.115c0 9.99 8.127 18.117 18.117 18.117h59.724c.959 4.934 2.992 11.975 7.296 19.259 7.141 12.089 22.081 27.303 52.698 31.13.289.036.576.054.862.054 2.559 0 4.936-1.419 6.164-3.719 1.366-2.557 1-5.708-.898-7.899-.547-.631-12.49-14.768-9.106-38.825h19.363c-1.599 9.46-2.415 19.095-2.415 28.75 0 36.385 11.425 70.147 30.863 97.906l-31.771 31.771c-2.86-.962-5.89-1.469-9.003-1.469-7.508 0-14.551 2.908-19.832 8.188l-113.873 113.872c-10.935 10.935-10.935 28.729 0 39.663l24.78 24.781c5.468 5.467 12.649 8.2 19.831 8.2s14.365-2.734 19.833-8.201l113.873-113.873c7.786-7.786 10.023-19.047 6.721-28.836zm172.892 18.912c-18.851 0-34.187-15.336-34.187-34.187 0-18.848 15.336-34.181 34.187-34.181s34.187 15.333 34.187 34.181c0 18.851-15.337 34.187-34.187 34.187zm-45.567-49.826c-9.547 2.562-19.431 3.876-29.419 3.876-62.417 0-113.197-50.78-113.197-113.197s50.78-113.197 113.197-113.197 113.197 50.78 113.197 113.197c0 28.95-10.847 56.336-30.591 77.389-2.483-.396-5.027-.608-7.621-.608-21.095-.001-39.055 13.629-45.566 32.54zm-29.419-266.418c86.624 0 157.098 70.474 157.098 157.097 0 38.474-13.774 74.884-38.962 103.549-4.566-9.161-11.962-16.667-21.04-21.375 19.473-22.949 30.102-51.796 30.102-82.173 0-70.137-57.061-127.197-127.197-127.197-54.651 0-101.358 34.646-119.322 83.127.143-.914.239-1.843.239-2.797v-55.58c29.922-34.758 73.172-54.651 119.082-54.651zm-193.869 114.347c-3.27 0-6.104 2.264-6.827 5.453-4.044 17.848-1.141 32.104 2.733 41.854-32.604-10.662-33.914-39.122-33.956-40.452-.079-3.809-3.189-6.855-6.999-6.855h-65.867c-2.27 0-4.117-1.847-4.117-4.117v-106.114c0-2.27 1.847-4.117 4.117-4.117h167.586c2.27 0 4.117 1.847 4.117 4.117v47.903.005 58.207c0 2.27-1.847 4.117-4.117 4.117h-22.875c-.007 0-.014 0-.022 0h-33.773zm39.408 14h17.261c6.797 0 12.724-3.766 15.823-9.317-3.779 12.024-5.821 24.811-5.821 38.067 0 70.137 57.061 127.197 127.197 127.197 9.054 0 18.04-.957 26.814-2.839-.003.201-.015.4-.015.602 0 10.444 3.351 20.115 9.019 28.016-11.688 2.725-23.692 4.122-35.817 4.122-86.624 0-157.098-70.475-157.098-157.099.001-9.669.894-19.313 2.637-28.749zm45.323 160.418-28.383 28.383-22.53-22.529 28.384-28.384c6.797 8.188 14.342 15.732 22.529 22.53zm-37.158 59.272-113.872 113.873c-5.477 5.475-14.388 5.476-19.865.001l-24.78-24.78c-5.477-5.478-5.477-14.389 0-19.865l113.873-113.872c2.637-2.638 6.164-4.089 9.933-4.089 3.768 0 7.295 1.451 9.932 4.089l24.78 24.779v-.001c5.476 5.478 5.476 14.389-.001 19.865zm200.022-126.374 10.84-10.84c4.691-4.692 4.691-12.327 0-17.02-4.359-4.358-2.746-9.409-2.147-10.853.598-1.444 3.028-6.155 9.192-6.155 6.636 0 12.035-5.398 12.035-12.034v-15.329c0-6.636-5.399-12.035-12.035-12.035-6.164 0-8.594-4.711-9.192-6.155s-2.211-6.495 2.147-10.854c4.691-4.691 4.691-12.326 0-17.02l-10.839-10.839c-2.272-2.273-5.295-3.525-8.51-3.525s-6.237 1.251-8.51 3.524c-4.359 4.359-9.41 2.746-10.854 2.147s-6.155-3.029-6.155-9.192c0-6.636-5.398-12.035-12.034-12.035h-15.329c-6.636 0-12.035 5.399-12.035 12.035 0 6.164-4.711 8.594-6.155 9.192-1.445.598-6.495 2.209-10.853-2.147-4.692-4.692-12.328-4.691-17.02 0l-10.84 10.84c-2.272 2.273-3.524 5.295-3.524 8.51s1.252 6.237 3.524 8.509c4.359 4.359 2.746 9.409 2.147 10.853-.598 1.444-3.029 6.155-9.192 6.155-6.636 0-12.035 5.399-12.035 12.035v15.329c0 6.636 5.399 12.034 12.035 12.034 6.164 0 8.594 4.711 9.192 6.155s2.211 6.495-2.147 10.853c-4.692 4.692-4.692 12.328 0 17.02l10.839 10.839c4.693 4.693 12.329 4.692 17.02 0 2.948-2.947 7.008-3.754 10.857-2.16 3.851 1.595 6.15 5.036 6.15 9.204 0 6.636 5.399 12.035 12.035 12.035h15.329c6.636 0 12.034-5.399 12.034-12.035 0-6.163 4.711-8.594 6.155-9.192s6.495-2.211 10.854 2.147c2.273 2.273 5.295 3.524 8.51 3.524 3.217.005 6.239-1.247 8.511-3.52zm-33.23-15.081c-8.515 3.527-14.021 11.144-14.721 20.161h-11.549c-.7-9.026-6.204-16.647-14.717-20.173-8.514-3.527-17.794-2.03-24.671 3.858l-8.167-8.167c5.882-6.872 7.374-16.15 3.846-24.667-3.527-8.516-11.144-14.022-20.161-14.722v-11.55c9.018-.7 16.634-6.206 20.161-14.721 3.527-8.516 2.036-17.794-3.846-24.667l8.167-8.168c6.872 5.883 16.152 7.374 24.667 3.846 8.515-3.527 14.021-11.143 14.721-20.161h11.55c.7 9.018 6.206 16.634 14.721 20.161 8.516 3.529 17.795 2.037 24.667-3.846l8.168 8.167c-5.882 6.872-7.374 16.151-3.846 24.667 3.527 8.515 11.144 14.021 20.161 14.721v11.55c-9.018.7-16.634 6.207-20.162 14.722-3.527 8.517-2.035 17.796 3.847 24.667l-8.168 8.167c-6.874-5.881-16.153-7.373-24.668-3.845zm-20.496-93.312c-24.166 0-43.827 19.661-43.827 43.827s19.661 43.827 43.827 43.827 43.827-19.661 43.827-43.827-19.661-43.827-43.827-43.827zm0 73.653c-16.447 0-29.827-13.38-29.827-29.827s13.38-29.827 29.827-29.827 29.827 13.38 29.827 29.827-13.38 29.827-29.827 29.827zm19.485-46.349c2.822 2.642 2.969 7.072.327 9.894l-21.365 22.825c-1.325 1.416-3.176 2.216-5.11 2.216-.052 0-.105 0-.157-.002-1.991-.044-3.869-.936-5.163-2.449l-11.682-13.662c-2.512-2.938-2.167-7.357.771-9.87s7.356-2.167 9.869.771l6.597 7.716 16.019-17.113c2.641-2.822 7.071-2.969 9.894-.326zm104.489 212.818c-3.218-1.911-7.371-.95-9.424 2.177l-19.371 29.498-1.906-14.221c.744-1.073 1.35-2.262 1.769-3.554l3.106-9.559c1.34-4.124.624-8.674-1.917-12.17-2.54-3.496-6.646-5.584-10.982-5.584h-20.527c-4.336 0-8.442 2.087-10.982 5.583-2.54 3.497-3.257 8.046-1.917 12.171l3.106 9.559c.42 1.292 1.025 2.48 1.77 3.553l-1.907 14.221-19.37-29.497c-2.054-3.127-6.205-4.087-9.424-2.177-29.068 17.254-47.125 48.941-47.125 82.696 0 10.179 5.626 24.383 32.429 34.251 16.917 6.229 39.533 9.658 63.683 9.658 47.84 0 96.112-13.577 96.112-43.909.001-33.756-18.056-65.443-47.123-82.696zm-39.326.588-2.822 8.685h-13.681l-2.822-8.685zm-14.605 22.684h9.884l3.521 26.265-8.463 12.888-8.463-12.888zm4.943 89.334c-46.044 0-82.112-13.138-82.112-29.909 0-26.605 13.131-51.707 34.669-67.013l41.592 63.337c1.294 1.971 3.493 3.157 5.851 3.157s4.557-1.187 5.851-3.157l41.593-63.338c21.537 15.305 34.668 40.407 34.668 67.014 0 16.771-36.068 29.909-82.112 29.909zm-236.777-369.207h-118.402c-3.866 0-7-3.134-7-7s3.134-7 7-7h118.402c3.866 0 7 3.134 7 7s-3.134 7-7 7zm-125.402-39.618c0-3.866 3.134-7 7-7h118.402c3.866 0 7 3.134 7 7s-3.134 7-7 7h-118.402c-3.866 0-7-3.133-7-7zm0-32.618c0-3.866 3.134-7 7-7h118.402c3.866 0 7 3.134 7 7s-3.134 7-7 7h-118.402c-3.866 0-7-3.133-7-7z"/></svg>