<?xml version="1.0"?>
<svg xmlns="http://www.w3.org/2000/svg" viewBox="0 0 64 64"><g id="Outline"><g id="_14-Key_copy_2" data-name="14-Key copy 2"><path d="M61.7422,24.4473a1,1,0,0,1-1.3418.4472l-2-1a1,1,0,1,1,.8945-1.789l2,1A1,1,0,0,1,61.7422,24.4473ZM56,17.1807c0,2.7356-1.5128,5.6872-2.4546,7.2612a2.9806,2.9806,0,0,1-.7665,5.4426l-.6817,2.2722A3.62,3.62,0,0,1,48.7783,35H48V54h3a1,1,0,0,1,1,1v2a5.0059,5.0059,0,0,1-5,5H12a4.0042,4.0042,0,0,1-4-4V55.3715l-.7529.9928a2.9829,2.9829,0,0,1-1.9956,1.1582A2.96,2.96,0,0,1,3.04,56.9316a2.9834,2.9834,0,0,1-.581-4.19L7.56,46.0278a10.9888,10.9888,0,0,1,.0285-13.2646c.13-.1715.2734-.3269.4116-.4885V27H5a3.0033,3.0033,0,0,1-3-3V16a4.004,4.004,0,0,1,3.3955-3.95A3.115,3.115,0,0,1,6,12H39.4807A8.8008,8.8008,0,0,1,47,8,8.8921,8.8921,0,0,1,56,17.1807ZM8,25V16a2.0038,2.0038,0,0,0-2-2,1.32,1.32,0,0,0-.2622.02A2.0091,2.0091,0,0,0,4,16v8a1.0013,1.0013,0,0,0,1,1Zm2.9038,21.583a8.999,8.999,0,1,0-3.4731-5.9473A8.9437,8.9437,0,0,0,10.9038,46.583Zm-.386,2.1588c-.2809-.1762-.5567-.363-.824-.566s-.52-.419-.7653-.6421L4.0562,53.9453A.995.995,0,0,0,3.85,54.54a1.0168,1.0168,0,0,0,.4092.8067.9794.9794,0,0,0,.729.1933.9982.9982,0,0,0,.6665-.3857ZM15,54H46V34.9794a3.6647,3.6647,0,0,1-3.0972-2.8232L42.2558,30H42a2.9916,2.9916,0,0,1-1.5454-5.5581C39.5128,22.8679,38,19.9163,38,17.1807A9.832,9.832,0,0,1,38.5254,14H9.4454A3.9573,3.9573,0,0,1,10,16V30.4348a10.9951,10.9951,0,1,1,6.3252,19.9841,10.8735,10.8735,0,0,1-3.99-.7636L10,52.7346V58a2,2,0,0,0,4,0V55A1,1,0,0,1,15,54Zm32,2H16v2a3.9577,3.9577,0,0,1-.5546,2H47a3.0033,3.0033,0,0,0,3-3V56Zm3.6558-26H44.3444l.4744,1.5815C45.0728,32.43,45.6367,33,46.2217,33h2.5566c.585,0,1.1489-.57,1.4029-1.418ZM53,27a1.0013,1.0013,0,0,0-1-1H42a1,1,0,0,0,0,2H52A1.0013,1.0013,0,0,0,53,27Zm1-9.8193a7.0023,7.0023,0,1,0-14,0C40,19.8026,41.8237,22.894,42.535,24h8.93C52.1763,22.894,54,19.8026,54,17.1807ZM10.7734,35.1836a6.9955,6.9955,0,1,1,1.34,9.8086A6.9545,6.9545,0,0,1,10.7734,35.1836Zm2.55,8.2158a5,5,0,1,0,3.0352-8.9834,5.0967,5.0967,0,0,0-.6875.0469,5.0007,5.0007,0,0,0-2.3477,8.9365ZM58.5547,6.293a1,1,0,0,0-1.4141,0l-2,2a1,1,0,1,0,1.4141,1.414l2-2A1,1,0,0,0,58.5547,6.293ZM58,17a1,1,0,0,0,1,1h2a1,1,0,0,0,0-2H59A1,1,0,0,0,58,17ZM37.1406,9.707a1,1,0,1,0,1.4141-1.414l-2-2a1,1,0,0,0-1.4141,1.414ZM47,6a1,1,0,0,0,1-1V3a1,1,0,0,0-2,0V5A1,1,0,0,0,47,6ZM41,36H31a1,1,0,0,0,0,2H41a1,1,0,0,0,0-2ZM28,25a1,1,0,0,0-1-1H15a1,1,0,0,0,0,2H27A1,1,0,0,0,28,25ZM41,48H27a1,1,0,0,0,0,2H41a1,1,0,0,0,0-2Zm0-6H31a1,1,0,0,0,0,2H41a1,1,0,0,0,0-2ZM29,32h7a1,1,0,0,0,0-2H29a1,1,0,0,0,0,2Zm3.8486-7a.9957.9957,0,0,0,.4463-.1055l2-1a1,1,0,1,0-.8945-1.789l-2,1A1,1,0,0,0,32.8486,25ZM15,20H27a1,1,0,0,0,0-2H15a1,1,0,0,0,0,2Zm18-2h2a1,1,0,0,0,0-2H33a1,1,0,0,0,0,2Z"/></g></g></svg>
