<svg height="461pt" viewBox="-10 0 461 461.60187" width="461pt" xmlns="http://www.w3.org/2000/svg"><path d="m220.390625 382.625c-21.808594 0-39.488281 17.679688-39.488281 39.488281 0 21.808594 17.679687 39.488281 39.488281 39.488281s39.484375-17.679687 39.484375-39.488281c-.023438-21.796875-17.6875-39.460937-39.484375-39.488281zm0 62.976562c-12.972656 0-23.488281-10.515624-23.488281-23.488281 0-12.972656 10.515625-23.488281 23.488281-23.488281 12.96875 0 23.484375 10.515625 23.484375 23.488281-.011719 12.96875-10.519531 23.476563-23.484375 23.488281zm0 0"/><path d="m400.988281 382.625c-21.808593 0-39.488281 17.679688-39.488281 39.488281 0 21.808594 17.679688 39.488281 39.488281 39.488281 21.808594 0 39.488281-17.679687 39.488281-39.488281-.023437-21.796875-17.6875-39.460937-39.488281-39.488281zm0 62.976562c-12.972656 0-23.488281-10.515624-23.488281-23.488281 0-12.972656 10.515625-23.488281 23.488281-23.488281 12.972657 0 23.488281 10.515625 23.488281 23.488281-.015624 12.96875-10.519531 23.476563-23.488281 23.488281zm0 0"/><path d="m39.789062 382.625c-21.808593 0-39.488281 17.679688-39.488281 39.488281 0 21.808594 17.679688 39.488281 39.488281 39.488281 21.808594 0 39.488282-17.679687 39.488282-39.488281-.023438-21.796875-17.691406-39.460937-39.488282-39.488281zm0 62.976562c-12.972656 0-23.488281-10.515624-23.488281-23.488281 0-12.972656 10.515625-23.488281 23.488281-23.488281 12.972657 0 23.488282 10.515625 23.488282 23.488281-.015625 12.96875-10.523438 23.476563-23.488282 23.488281zm0 0"/><path d="m106.675781 269.804688h105.714844v44h-148.433594c-15.667969 0-28.566406 12.339843-28.566406 28.003906v23.316406c0 4.421875 3.578125 8 8 8 4.417969 0 8-3.578125 8-8v-23.316406c0-6.84375 5.722656-12 12.566406-12h148.433594v35.324218c0 4.417969 3.578125 8 8 8 4.417969 0 8-3.582031 8-8v-35.328124h148.21875c6.839844 0 12.78125 5.160156 12.78125 12v23.316406c0 4.417968 3.578125 8 8 8 4.417969 0 8-3.582032 8-8v-23.3125c0-15.664063-13.117187-28-28.78125-28h-148.21875v-44.003906h105.710937c46.761719-.03125 84.671876-37.917969 84.726563-84.679688 0-.617188-.070313-1.234375-.21875-1.835938-.976563-40.058593-33.671875-72.058593-73.746094-72.171874-1.578125 0-3.199219.023437-4.851562.085937-3.597657-56.71875-46.886719-102.929687-103.25-110.222656-56.363281-7.289063-109.988281 26.386719-127.898438 80.324219-50.234375 8.542968-86.96875 52.101562-86.914062 103.058593v.269531.210938c-.003907.113281-.007813.171875-.007813.28125.058594 46.765625 37.972656 84.652344 84.734375 84.679688zm-68.726562-85c0-45 33.53125-82.933594 78-88.132813 3.226562-.421875 5.886719-2.734375 6.761719-5.867187 13.957031-49.320313 62.140624-80.804688 112.910156-73.773438 50.773437 7.027344 88.589844 50.414062 88.621094 101.671875 0 .40625 0 .789063-.007813 1.199219-.054687 2.429687.992187 4.75 2.851563 6.3125 1.859374 1.5625 4.328124 2.195312 6.710937 1.71875 16.960937-2.839844 34.320313 1.851562 47.542969 12.847656 13.21875 10.996094 20.996094 27.207031 21.292968 44.402344 0 .542968.058594 1.085937.175782 1.621094-.953125 37.261718-31.429688 66.980468-68.707032 67h-227.425781c-37.769531-.019532-68.457031-30.5-68.726562-68.273438.007812-.078125.011719-.160156.011719-.238281.003906-.164063-.003907-.328125-.027344-.488281zm0 0"/><path d="m140.609375 167.375 12.308594 1.195312c1.433593 4.878907 3.410156 9.582032 5.886719 14.023438l-7.828126 9.421875c-2.308593 2.78125-2.121093 6.867187.4375 9.421875l16.398438 16.375c2.558594 2.546875 6.632812 2.734375 9.414062.433594l9.464844-7.847656c4.445313 2.46875 9.144532 4.453124 14.015625 5.917968l1.191407 12.242188c.355468 3.570312 3.378906 6.28125 6.96875 6.246094h23.242187c3.589844.035156 6.613281-2.675782 6.96875-6.246094l1.191406-12.277344c4.886719-1.429688 9.601563-3.402344 14.050781-5.878906l9.429688 7.832031c2.78125 2.308594 6.859375 2.121094 9.414062-.429687l16.402344-16.367188c2.558594-2.554688 2.75-6.640625.441406-9.421875l-7.835937-9.449219c2.46875-4.441406 4.453125-9.136718 5.917969-14l12.078125-1.195312c3.570312-.355469 6.269531-3.382813 6.222656-6.96875v-23.199219c.046875-3.585937-2.65625-6.609375-6.222656-6.96875l-12.308594-1.195313c-1.433594-4.875-3.40625-9.582031-5.886719-14.019531l7.828125-9.425781c2.300781-2.769531 2.125-6.832031-.40625-9.390625l-16.199219-16.375c-2.554687-2.574219-6.648437-2.777344-9.441406-.464844l-9.464844 7.847657c-4.445312-2.46875-9.144531-4.453126-14.015624-5.917969l-1.195313-12.238281c-.351563-3.578126-3.378906-6.289063-6.96875-6.25h-23.242187c-3.585938-.039063-6.609376 2.671874-6.964844 6.246093l-1.195313 12.273438c-4.886719 1.429687-9.597656 3.402343-14.050781 5.878906l-9.429688-7.832031c-2.777343-2.304688-6.855468-2.121094-9.414062.429687l-16.398438 16.367188c-2.558593 2.554687-2.753906 6.640625-.445312 9.421875l7.835938 9.449218c-2.464844 4.441407-4.449219 9.132813-5.914063 13.996094l-12.273437 1.199219c-3.570313.355469-6.277344 3.382813-6.226563 6.96875v23.199219c-.050781 3.585937 2.652344 6.613281 6.21875 6.972656zm7.78125-23.820312 10.808594-1.054688c3.003906-.296875 5.472656-2.496094 6.105469-5.449219 1.492187-6.707031 4.183593-13.085937 7.941406-18.839843 1.671875-2.570313 1.472656-5.929688-.488282-8.285157l-6.9375-8.359375 7.375-7.363281 8.367188 6.9375c2.375 1.96875 5.757812 2.152344 8.328125.453125 5.710937-3.789062 12.082031-6.46875 18.78125-7.902344 2.972656-.601562 5.203125-3.074218 5.5-6.089844l1.054687-10.800781h10.53125l1.054688 10.800781c.296875 3.03125 2.53125 5.511719 5.507812 6.132813 6.710938 1.480469 13.097657 4.164063 18.851563 7.925781 2.566406 1.644532 5.90625 1.4375 8.25-.511718l8.335937-6.917969 7.234376 7.304687-6.957032 8.386719c-1.96875 2.378906-2.148437 5.769531-.4375 8.34375 3.789063 5.699219 6.476563 12.0625 7.925782 18.753906.597656 2.957031 3.058593 5.179688 6.058593 5.476563l10.808594 1.058594v10.5l-10.617187 1.046874c-3 .300782-5.464844 2.5-6.101563 5.449219-1.492187 6.707031-4.183594 13.085938-7.941406 18.839844-1.671875 2.570313-1.472657 5.929687.488281 8.285156l6.9375 8.359375-7.375 7.363282-8.367188-6.9375c-2.371093-1.96875-5.753906-2.152344-8.328124-.449219-5.710938 3.785156-12.082032 6.464843-18.78125 7.898437-2.96875.605469-5.199219 3.074219-5.5 6.089844l-1.050782 10.804688h-10.53125l-1.054687-10.800782c-.296875-3.03125-2.527344-5.515625-5.507813-6.132812-6.710937-1.480469-13.097656-4.164063-18.847656-7.925782-2.570312-1.644531-5.90625-1.4375-8.253906.511719l-8.367188 6.941407-7.375-7.359376 6.929688-8.355468c1.972656-2.378906 2.148437-5.769532.4375-8.34375-3.789063-5.703125-6.476563-12.0625-7.921875-18.753906-.601563-2.957032-3.058594-5.179688-6.0625-5.476563l-10.808594-1.058594zm0 0"/><path d="m220.390625 197.324219c26.789063-.03125 48.480469-21.773438 48.460937-48.5625-.023437-26.789063-21.753906-48.492188-48.546874-48.480469-26.789063.011719-48.5 21.730469-48.5 48.523438.046874 26.800781 21.78125 48.507812 48.585937 48.519531zm0-83.042969c19.058594.03125 34.480469 15.503906 34.460937 34.5625-.023437 19.058594-15.488281 34.492188-34.546874 34.480469-19.058594-.011719-34.5-15.464844-34.5-34.519531.039062-19.078126 15.507812-34.519532 34.585937-34.523438zm0 0"/></svg>