<svg id="Layer_1" enable-background="new 0 0 512 512" height="512" viewBox="0 0 512 512" width="512" xmlns="http://www.w3.org/2000/svg"><path d="m454.8 251.4c-2.5-2.9-2.2-7.3.7-9.9 2.9-2.5 7.3-2.2 9.8.7 20.4 23.3 31.5 52.5 32.6 82.3 1.1 29.2-7.5 59-26.4 84.3-19 25.2-45.2 41.8-73.6 48.9-23.9 6-49.3 5.4-73.2-2.4l3.4 5.2c2.1 3.2 1.2 7.5-2 9.7-3.2 2.1-7.6 1.2-9.7-2l-16.2-24.5c-3-4.5 0-10.5 5.5-10.8l29.3-1.9c7.9-.5 10.3 10.7 2.9 13.5 45.4 10.9 93.7-5.8 122.4-44.1 17-22.6 24.6-49.2 23.6-75.4-.9-26.7-10.9-52.8-29.1-73.6zm-51.8-53.3c-2.1-3.2-1.2-7.6 2-9.7s7.5-1.2 9.7 2l16.2 24.5c2.9 4.5-.1 10.5-5.5 10.8l-29.3 1.8c-7.9.5-10.3-10.6-2.9-13.5-51.6-12.3-104.9 10.8-131 57.4-.1.1-.1.3-.2.4-10.7 19.3-15.5 40.7-14.8 61.8 1 26.6 10.9 52.8 29.1 73.6 2.6 2.9 2.2 7.3-.7 9.8-2.9 2.6-7.3 2.2-9.8-.7-20.4-23.3-31.5-52.5-32.6-82.3-.7-20 3-40.2 11.5-59h-9.8c-3.9 0-7-3.1-7-7v-35.3c0-3.9 3.1-7 7-7 11.5 0 17.3-13.9 9.2-22.1-2.4-2.3-5.6-3.8-9.2-3.8-3.9 0-7-3.1-7-7v-27.9h-31.4c-4.7 0-8.9-4.9-6.1-10.5 2.2-4.5 1-11.2-2.9-15.1-9.7-9.7-26-.5-23 12.7.2 1 .6 2 1 2.8 2.2 4.7-1.3 10-6.3 10h-34.5c-3.9 0-7-3.1-7-7v-110.1c0-3.9 3.1-7 7-7h220.3c3.9 0 7 3.1 7 7v149.8c18.2-1.8 36.7.1 54.4 5.8zm-138.1 45.1c19.6-23 45.4-37.6 73.1-43.5v-34.8h-13.4l.3 3.8c0 8.5-3.6 16.7-9.8 22.5-.1.1-.2.1-.3.2-.1.1-.2.2-.3.3-2.6 2.3-8.1 5.7-10.5 6.1-1 .2-3.9 1.4-7.1 1.5-4.3.2-3 .1-7-.2-3.1-.2-10-2.7-12.3-4.5-2.2-1.6-2.7-1.8-4.6-3.6-2.8-2.7-5.2-6-6.8-9.6-.1-.1-.1-.2-.2-.3l-.9-2.4c0-.1-.1-.2-.1-.4-.1-.1-.1-.2-.1-.3 0-.1-.1-.3-.1-.4 0-.1-.1-.2-.1-.4 0-.1-.1-.2-.1-.4l-.3-1.1c0-.1-.1-.2-.1-.4-.7-3.3-.9-7.1-.5-10.4h-21.9v21.9c19.9 5.3 26.8 30.4 12 45.1-3.3 3.3-7.4 5.7-12 7v22.1h10.2c3.8-6.3 8.1-12.2 12.9-17.8zm100.6 41.4c24.7 0 44.7 20 44.7 44.6 0 24.7-20 44.7-44.7 44.7s-44.6-20-44.6-44.7c0-24.6 20-44.6 44.6-44.6zm21.7 23c-12-12-31.4-12-43.4 0s-12 31.4 0 43.4 31.4 12 43.4 0 12-31.4 0-43.4zm-34-66.3h24.7c3.9 0 7 3.1 7 7v10.6c5.8 1.6 11.5 3.9 16.7 6.9l7.5-7.5c2.7-2.7 7.2-2.7 9.9 0l17.5 17.5c2.7 2.7 2.7 7.1 0 9.9l-7.5 7.5c3 5.2 5.3 10.9 6.9 16.7h10.6c3.9 0 7 3.1 7 7v24.7c0 4-3.2 7.2-7.6 7h-9.9c-1.6 5.8-3.9 11.5-6.9 16.7l7.5 7.5c2.7 2.7 2.7 7.2 0 9.9l-17.6 17.5c-2.7 2.7-7.2 2.7-9.9 0l-7.5-7.5c-5.2 3-10.9 5.3-16.7 6.9v10.6c0 3.9-3.1 7-7 7h-24.7c-3.9 0-7-3.1-7-7v-10.6c-5.8-1.6-11.5-3.9-16.7-6.9l-7.5 7.5c-2.7 2.7-7.2 2.7-9.9 0l-17.5-17.5c-2.7-2.7-2.7-7.2 0-9.9l7.5-7.5c-3-5.2-5.3-10.9-6.9-16.7h-10.6c-3.9 0-7-3.1-7-7v-24.7c0-3.9 3.1-7 7-7h10.6c1.6-5.8 3.9-11.5 6.9-16.7l-7.5-7.5c-2.7-2.7-2.7-7.2 0-9.9l17.5-17.5c2.7-2.7 7.1-2.7 9.9 0l7.5 7.5c5.2-3 10.9-5.3 16.7-6.9v-10.6c0-3.9 3.1-7 7-7zm17.7 14h-10.8v8.7c.2 3.5-2.2 6.6-5.7 7.3-7.1 1.3-15.9 4.7-21.7 8.9-2.7 2.1-6.7 1.9-9.2-.6l-6.5-6.4-7.6 7.6 6.4 6.5c2.3 2.3 2.7 6.1.8 8.9-4 5.9-7.9 14.6-9 21.6-.4 3.5-3.4 6.2-7 6.2h-9.1v10.7h9.1c3.3 0 6.2 2.3 6.9 5.7 1.3 7.1 4.7 15.9 8.9 21.7 2.1 2.8 1.9 6.7-.6 9.2l-6.4 6.4 7.6 7.6 6.5-6.5c2.3-2.3 6.1-2.7 8.9-.8 5.9 4 14.6 7.9 21.6 9.1 3.5.4 6.2 3.4 6.2 6.9v9.1h10.7v-9.1c0-3.3 2.3-6.2 5.7-6.9 7.1-1.3 15.9-4.7 21.7-8.9 2.7-2.1 6.7-1.9 9.2.6l6.4 6.5 7.6-7.6-6.5-6.4c-2.3-2.3-2.7-6-.8-8.9 4.5-6.7 7.7-14.1 9.2-22.1.6-3.3 3.5-5.7 6.9-5.7h9.1v-10.8h-9.1c-3.3 0-6.2-2.4-6.9-5.7-1.3-7.1-4.7-15.9-8.9-21.7-2.1-2.8-1.9-6.7.6-9.2l6.5-6.5-7.6-7.6-6.4 6.4c-2.3 2.3-6 2.7-8.9.8-5.9-4-14.6-7.9-21.6-9-3.5-.4-6.2-3.4-6.2-7zm-262.8 158.6h-63.5v29.1h63.5zm-70.5-14h3.1c-2.4-17.5-7-27.6-12.9-40.4-3.1-6.7-6.5-14.2-9.9-23.2-3-7.9-4.2-12.8-3.8-17.5.5-5.1 2.6-8.7 6.2-14.1 6.8-10.2 18.6-23.2 30.2-35.9 2.9-3.2 5.8-6.3 8.7-9.6v-44.3c0-3.9 3.1-7 7-7h28.9c-1.7-17.3 12-32.6 29.6-32.6s31.4 15.2 29.6 32.6h33.2c3.9 0 7 3.1 7 7v36.9c21.7 5.4 29.5 32.6 13.5 48.6-3.7 3.7-8.3 6.3-13.5 7.7v28.2c0 3.9-3.1 7-7 7h-57.6c.2 3 .3 6 .3 8.9 0 1.6-.9 4-2.4 7.9-2.9 7.7-8.5 22.8-12.5 39.8 3.7.1 6.7 3.2 6.7 7v43.1c0 3.9-3.1 7-7 7h-77.4c-3.9 0-7-3.1-7-7v-43.1c0-3.9 3.1-7 7-7zm17.2 0h46.2c4.2-19.1 10.6-36.2 13.7-44.7.9-2.4 1.4-2.2 1.4-3 0-17.8-4-37.2-6.2-54.9-1.5-12.1-13-11.2-13-.1v39.1c0 3.9-3.1 7-7 7h-23.7c-3.9 0-7-3.1-7-7v-56.3c-8.1 8.9-30.5 33.4-31.2 40-.5 5.7 10.5 29.2 12.5 33.7 6.5 14.3 11.7 25.6 14.3 46.2zm28.3-70.6v-32.1c0-28.3 37.3-31.2 40.9-1.5 1.3 11.2 3.3 22.4 4.7 33.7h51.9v-27.4c0-3.9 3.1-7 7-7 13.3 0 20-16.2 10.6-25.6-2.7-2.7-6.5-4.4-10.6-4.4-3.9 0-7-3.1-7-7v-36.1h-35.3c-4.7 0-8.9-4.9-6-10.5.8-1.7 1.3-4.3 1.3-6.3 0-14-17-21.1-26.9-11.1-4.7 4.7-6 12-3.1 17.9 2.2 4.6-1.3 10-6.3 10h-31v107.4zm194.5-162c.1 3.4 0 5.2 1.4 8.3 1.4 3.2 3.9 5.9 6.9 7.6 7.5 4.3 17.1 2 21.9-4.8 1.4-2 2.4-4.3 2.8-6.7.1-.3.1-.7.1-1 .8-7-2.1-8-2.5-12.7 0-3.8 3.1-7 7-7h22.8v-96.3h-96.2v14.4c21.9-4.8 42.7 11.8 42.7 34.3 0 22.4-20.8 39.1-42.7 34.2v13.3h31.3.4l2.5.6 2.1 1.4c1.7 2.1 2.7 4.6 1.5 7.7-1 2.6-1.7 3.2-2 6.7zm-49.7-112.6h-96.2v96.2h18.6c-1.2-15.9 11.5-29.6 27.6-29.6 16 0 28.7 13.7 27.6 29.6h22.4v-23.5c0-5.4 5.9-8.8 10.6-6 13.8 8.4 32.1-1.4 32.1-18.1 0-14.1-13.5-24.1-26.8-20.4-4.8 1.3-5.6 3.3-8.8 3.3-3.9 0-7-3.1-7-7v-24.5z"/></svg>