<svg id="Layer_1" viewBox="0 0 512 512" xmlns="http://www.w3.org/2000/svg" data-name="Layer 1"><path d="m500.75 366.758c-.786-5.376-4.933-9.475-10.317-10.198l-14.104-1.895c-1.671-5.269-3.794-10.39-6.345-15.299l8.633-11.312c3.297-4.318 3.332-10.147.088-14.506-6.892-9.258-15.078-17.444-24.333-24.333-4.357-3.244-10.185-3.208-14.503.086l-11.322 8.64c-4.912-2.552-10.03-4.675-15.291-6.343l-1.896-14.11c-.724-5.384-4.822-9.53-10.199-10.317-11.412-1.668-22.987-1.669-34.404 0-.529.077-1.041.196-1.542.336l3.711-4.862c2.806-3.677 2.834-8.639.073-12.346-4.951-6.652-10.834-12.536-17.487-17.488-3.709-2.76-8.671-2.73-12.346.075l-7.077 5.4c-2.899-1.446-5.893-2.688-8.957-3.715l-1.185-8.821c-.616-4.584-4.105-8.114-8.681-8.783-8.201-1.2-16.518-1.2-24.722 0-4.576.669-8.065 4.198-8.681 8.783l-1.186 8.821c-3.066 1.028-6.06 2.27-8.957 3.715l-7.076-5.4c-3.677-2.806-8.639-2.834-12.346-.074-6.655 4.954-12.539 10.837-17.488 17.487-2.76 3.708-2.73 8.669.075 12.346l5.399 7.075c-1.447 2.898-2.688 5.893-3.716 8.958l-8.819 1.185c-4.584.616-8.114 4.105-8.783 8.682-1.199 8.204-1.199 16.521 0 24.721.669 4.577 4.198 8.066 8.783 8.682l8.816 1.185c1.028 3.068 2.271 6.064 3.717 8.962l-5.397 7.072c-2.805 3.675-2.835 8.636-.074 12.347 4.953 6.654 10.836 12.538 17.487 17.487 1.837 1.367 3.981 2.05 6.125 2.05 2.184 0 4.366-.709 6.221-2.125l4.862-3.71c-.14.502-.259 1.015-.337 1.544-1.668 11.414-1.668 22.988 0 34.402.786 5.376 4.933 9.475 10.318 10.198l14.103 1.895c1.67 5.268 3.794 10.39 6.345 15.3l-8.634 11.313c-3.295 4.318-3.33 10.147-.086 14.504 6.892 9.259 15.079 17.446 24.334 24.334 4.357 3.243 10.185 3.207 14.502-.088l11.321-8.639c4.914 2.552 10.033 4.676 15.292 6.343l1.895 14.109c.724 5.386 4.823 9.532 10.199 10.317 5.71.834 11.459 1.252 17.207 1.252s11.492-.417 17.196-1.251c5.375-.787 9.474-4.933 10.198-10.318l1.895-14.109c5.262-1.668 10.38-3.792 15.292-6.342l11.32 8.639c4.317 3.295 10.146 3.33 14.504.086 9.257-6.892 17.444-15.078 24.334-24.333 3.242-4.357 3.207-10.186-.088-14.503l-8.638-11.319c2.552-4.912 4.675-10.031 6.344-15.294l14.106-1.895c5.386-.724 9.532-4.822 10.318-10.199 1.669-11.414 1.669-22.989 0-34.403zm-244.329-8.176c-4.942-3.817-9.371-8.246-13.189-13.189l6.933-9.085c1.465-1.92 1.637-4.531.435-6.625-2.445-4.263-4.336-8.823-5.622-13.555-.632-2.33-2.599-4.053-4.991-4.374l-11.322-1.521c-.793-6.193-.793-12.456 0-18.652l11.325-1.521c2.392-.321 4.359-2.045 4.992-4.374 1.283-4.726 3.174-9.285 5.621-13.552 1.201-2.095 1.029-4.705-.436-6.625l-6.936-9.088c3.816-4.941 8.245-9.37 13.189-13.189l9.089 6.936c1.92 1.466 4.531 1.637 6.625.435 4.263-2.445 8.822-4.335 13.551-5.62 2.329-.632 4.052-2.599 4.374-4.991l1.522-11.327c6.195-.792 12.458-.793 18.651 0l1.521 11.327c.322 2.392 2.045 4.359 4.375 4.992 4.722 1.282 9.281 3.172 13.55 5.62 2.094 1.201 4.705 1.03 6.625-.436l9.09-6.937c4.942 3.818 9.37 8.246 13.189 13.19l-6.933 9.084c-1.465 1.92-1.637 4.531-.435 6.625 1.903 3.316 3.455 6.831 4.662 10.453l-1.211 9.015c-4.258 1.35-8.413 3.012-12.447 4.941-2.189-20.861-19.88-37.175-41.311-37.175-22.906 0-41.542 18.636-41.542 41.542 0 21.431 16.313 39.121 37.174 41.311-1.931 4.036-3.593 8.192-4.942 12.448l-9.003 1.209c-3.619-1.207-7.136-2.76-10.459-4.665-2.094-1.201-4.704-1.03-6.624.436l-9.089 6.937zm32.882-30.529.013.017c-10.539-4.519-17.951-14.991-17.951-27.163 0-16.29 13.252-29.542 29.542-29.542 12.181 0 22.661 7.411 27.174 17.96l-.028-.021c-4.318-3.296-10.147-3.331-14.504-.087-9.26 6.892-17.447 15.079-24.333 24.333-3.243 4.357-3.208 10.186.087 14.504zm199.531 71.414-17.964 2.414c-2.393.321-4.359 2.045-4.991 4.375-1.88 6.923-4.65 13.604-8.234 19.854-1.201 2.094-1.029 4.705.436 6.624l11.001 14.474c-6.192 8.319-13.552 15.677-21.933 21.873l-14.415-11.001c-1.921-1.465-4.531-1.636-6.625-.436-6.251 3.583-12.931 6.354-19.854 8.233-2.329.633-4.053 2.6-4.374 4.992l-2.455 18.008c-10.257 1.501-20.664 1.5-30.972-.042l-2.413-17.965c-.322-2.393-2.045-4.359-4.375-4.992-6.917-1.877-13.596-4.647-19.853-8.234-.928-.532-1.958-.794-2.983-.794-1.289 0-2.572.415-3.641 1.23l-14.475 11.001c-8.318-6.191-15.677-13.55-21.872-21.932l10.997-14.409c1.465-1.92 1.637-4.531.435-6.625-3.582-6.244-6.353-12.926-8.236-19.859-.632-2.329-2.599-4.053-4.991-4.374l-18.001-2.455c-1.5-10.262-1.5-20.669.042-30.972l17.963-2.413c2.392-.322 4.359-2.045 4.992-4.375 1.879-6.923 4.65-13.603 8.235-19.854 1.201-2.095 1.029-4.705-.436-6.625l-11-14.474c6.19-8.318 13.549-15.677 21.931-21.871l14.415 11c1.92 1.466 4.532 1.637 6.625.435 6.247-3.583 12.926-6.353 19.853-8.234 2.33-.632 4.053-2.599 4.375-4.991l2.455-18.008c10.264-1.5 20.671-1.501 30.973.042l2.414 17.966c.321 2.392 2.045 4.359 4.374 4.992 6.921 1.879 13.6 4.649 19.852 8.234 2.094 1.201 4.705 1.031 6.624-.436l14.476-11.001c8.318 6.192 15.678 13.551 21.872 21.932l-10.996 14.409c-1.465 1.92-1.637 4.531-.436 6.625 3.582 6.244 6.353 12.925 8.235 19.859.632 2.33 2.599 4.053 4.991 4.374l18.003 2.454c1.5 10.262 1.5 20.669-.043 30.972zm-104.873-72.017c-31.16 0-56.511 25.351-56.511 56.511s25.351 56.511 56.511 56.511 56.511-25.351 56.511-56.511-25.351-56.511-56.511-56.511zm0 101.022c-24.543 0-44.511-19.968-44.511-44.511s19.967-44.511 44.511-44.511 44.511 19.967 44.511 44.511-19.967 44.511-44.511 44.511zm-118.792-317.867h79.573c9.304 0 16.873 7.569 16.873 16.873v21.763l-7.677-7.677c-2.344-2.343-6.143-2.343-8.485 0l-15.012 15.012c-2.343 2.343-2.343 6.142 0 8.485l43.546 43.546c1.125 1.125 2.651 1.758 4.243 1.758s3.117-.632 4.243-1.757l43.547-43.547c1.125-1.125 1.757-2.651 1.757-4.243s-.632-3.118-1.757-4.243l-15.012-15.012c-2.344-2.343-6.143-2.343-8.485 0l-7.677 7.677v-21.763c0-27.627-22.476-50.103-50.103-50.103h-79.573c-3.313 0-6 2.687-6 6v21.23c0 3.313 2.687 6 6 6zm6-21.23h73.573c21.01 0 38.103 17.093 38.103 38.103v36.248c0 2.427 1.462 4.615 3.704 5.543 2.24.927 4.822.415 6.539-1.301l13.677-13.677 6.527 6.526-35.062 35.062-35.061-35.062 6.526-6.526 13.677 13.677c1.716 1.717 4.298 2.229 6.539 1.301 2.242-.929 3.704-3.117 3.704-5.543v-36.248c0-15.92-12.952-28.873-28.873-28.873h-73.573zm-36.148 320.5h-79.573c-9.304 0-16.873-7.569-16.873-16.873v-21.763l7.677 7.677c1.125 1.125 2.651 1.757 4.243 1.757s3.118-.632 4.243-1.757l15.012-15.012c1.125-1.125 1.757-2.651 1.757-4.243s-.632-3.118-1.757-4.243l-43.546-43.546c-2.343-2.343-6.142-2.343-8.485 0l-43.547 43.546c-2.343 2.343-2.343 6.142 0 8.485l15.012 15.012c2.343 2.343 6.143 2.343 8.485 0l7.677-7.677v21.763c0 27.627 22.476 50.103 50.103 50.103h79.573c3.313 0 6-2.687 6-6v-21.23c0-3.313-2.687-6-6-6zm-6 21.23h-73.573c-21.01 0-38.103-17.093-38.103-38.103v-36.248c0-2.427-1.462-4.615-3.704-5.543-.742-.307-1.521-.457-2.294-.457-1.562 0-3.096.61-4.244 1.757l-13.677 13.677-6.527-6.527 35.062-35.061 35.061 35.061-6.526 6.527-13.677-13.677c-1.716-1.716-4.296-2.227-6.539-1.301-2.242.929-3.704 3.117-3.704 5.543v36.248c0 15.92 12.952 28.873 28.873 28.873h73.573v9.23zm-143.12-180.033c.819 2.446 3.11 4.096 5.69 4.096h60.427c2.58 0 4.871-1.649 5.689-4.096.706-2.106 1.665-5.229 2.88-9.181 3.063-9.966 7.693-25.026 11.773-34.863 3.355-8.088 7.71-13.312 12.322-18.843 8.613-10.33 17.519-21.011 17.519-48.138 0-44.332-36.066-80.398-80.397-80.398s-80.398 36.066-80.398 80.398c0 27.127 8.906 37.809 17.52 48.138 4.611 5.531 8.967 10.754 12.322 18.843 4.081 9.839 8.711 24.903 11.775 34.871 1.214 3.949 2.172 7.068 2.877 9.173zm18.415-93.09h-10.165c-5.605 0-10.165-4.56-10.165-10.165s4.56-10.165 10.165-10.165 10.165 4.56 10.165 10.165zm12 12h9.867v73.186h-9.867zm-48.173 10.518c-7.907-9.483-14.736-17.673-14.736-40.454 0-37.715 30.683-68.398 68.398-68.398s68.397 30.683 68.397 68.398c0 22.781-6.829 30.971-14.735 40.453-4.751 5.698-10.136 12.156-14.19 21.931-4.299 10.363-9.029 25.751-12.159 35.935-.534 1.736-1.034 3.362-1.482 4.803h-9.453v-73.186h10.165c12.222 0 22.165-9.943 22.165-22.165s-9.943-22.165-22.165-22.165-22.165 9.943-22.165 22.165v10.165h-9.867v-10.165c0-12.222-9.943-22.165-22.165-22.165s-22.165 9.943-22.165 22.165 9.943 22.165 22.165 22.165h10.165v73.186h-8.342c-.448-1.438-.947-3.062-1.479-4.795-3.13-10.185-7.862-25.576-12.162-35.942-4.054-9.774-9.439-16.232-14.19-21.93zm70.04-22.518v-10.165c0-5.605 4.56-10.165 10.165-10.165s10.165 4.56 10.165 10.165-4.56 10.165-10.165 10.165zm-22.378-114.637v-27.346c0-3.313 2.687-6 6-6s6 2.687 6 6v27.346c0 3.313-2.687 6-6 6s-6-2.687-6-6zm-59.928-10.895c-1.958-2.673-1.377-6.428 1.296-8.385 2.673-1.958 6.428-1.377 8.385 1.296l17.34 23.682c1.958 2.673 1.377 6.428-1.296 8.385-1.068.782-2.31 1.16-3.54 1.16-1.848 0-3.67-.851-4.846-2.456l-17.34-23.682zm-12.33 50.851-30.034-13.672c-3.016-1.373-4.348-4.931-2.975-7.947 1.374-3.017 4.933-4.348 7.947-2.975l30.034 13.672c3.016 1.373 4.348 4.931 2.975 7.947-1.006 2.21-3.186 3.516-5.464 3.516-.832 0-1.676-.174-2.482-.541zm117.167-34.257 17.34-23.682c1.957-2.674 5.711-3.256 8.385-1.296 2.674 1.958 3.254 5.712 1.296 8.385l-17.34 23.682c-1.175 1.605-2.998 2.456-4.846 2.456-1.23 0-2.471-.377-3.54-1.16-2.674-1.958-3.254-5.712-1.296-8.385zm31.405 31.283c-1.373-3.016-.041-6.574 2.975-7.947l30.034-13.672c3.015-1.375 6.573-.042 7.947 2.975 1.373 3.016.041 6.574-2.975 7.947l-30.034 13.672c-.806.367-1.651.541-2.482.541-2.279 0-4.458-1.306-5.464-3.516zm-34.101 184.804c0 3.313-2.687 6-6 6h-60.427c-3.313 0-6-2.687-6-6s2.687-6 6-6h60.427c3.313 0 6 2.687 6 6zm-43.744 39.538h15.062c8.154 0 14.787-6.633 14.787-14.787v-2.788h7.895c3.313 0 6-2.687 6-6s-2.687-6-6-6h-60.427c-3.313 0-6 2.687-6 6s2.687 6 6 6h7.896v2.788c0 8.153 6.633 14.787 14.787 14.787zm17.85-14.787c0 1.511-1.276 2.787-2.787 2.787h-15.062c-1.511 0-2.787-1.276-2.787-2.787v-2.788h20.636z"/></svg>