<?xml version="1.0"?>
<svg xmlns="http://www.w3.org/2000/svg" data-name="Layer 1" id="Layer_1" viewBox="0 0 64 64"><path d="M36,10h1a1,1,0,0,0,.77-1.64l-5-6a1,1,0,0,0-1.54,0l-5,6A1,1,0,0,0,27,10h1v4h2V9a1,1,0,0,0-.87-1L32,4.54,34.87,8A1,1,0,0,0,34,9v5h2Z"/><rect height="2" width="2" x="28" y="15.99"/><rect height="2" width="2" x="34" y="15.99"/><path d="M55.64,28.22A1,1,0,0,0,54,29v1H48v2h7a1,1,0,0,0,1-.87L59.44,34,56,36.86A1,1,0,0,0,55,36H48v2h6v1a1,1,0,0,0,.58.91A1,1,0,0,0,55,40a1,1,0,0,0,.64-.23l6-5a1,1,0,0,0,0-1.54Z"/><path d="M2,34a1,1,0,0,0,.36.77l6,5A1,1,0,0,0,9,40a1,1,0,0,0,.42-.09A1,1,0,0,0,10,39V38h6V36H9a1,1,0,0,0-1,.87L4.56,34,8,31.12A1,1,0,0,0,9,32h7V30H10V29a1,1,0,0,0-1.64-.77l-6,5A1,1,0,0,0,2,34Z"/><rect height="2" width="2" x="16" y="25.99"/><rect height="2" width="2" x="46" y="25.99"/><path d="M39,34a7,7,0,1,0-7,7A7,7,0,0,0,39,34Zm-7,5a5,5,0,1,1,5-5A5,5,0,0,1,32,39Z"/><path d="M61,54H56V51a1,1,0,0,0-1-1H33V48h2a1,1,0,0,0,1-1V45.3a12,12,0,0,0,1.17-.48L38.36,46a1,1,0,0,0,1.42,0L44,41.77a1,1,0,0,0,0-1.41l-1.19-1.2c.17-.38.34-.77.48-1.17H45a1,1,0,0,0,1-1V31a1,1,0,0,0-1-1H43.31c-.14-.4-.31-.79-.48-1.17L44,27.63a1,1,0,0,0,0-1.42l-2-2V14a1,1,0,0,0-.87-1L44,9.55,46.87,13A1,1,0,0,0,46,14V24h2V15h1a1,1,0,0,0,.91-.58,1,1,0,0,0-.14-1.06l-5-6a1,1,0,0,0-1.54,0l-5,6a1,1,0,0,0-.14,1.06A1,1,0,0,0,39,15h1v7.2L39.78,22a1,1,0,0,0-1.42,0l-1.19,1.19A12,12,0,0,0,36,22.68V21a1,1,0,0,0-1-1H29a1,1,0,0,0-1,1v1.69a12,12,0,0,0-1.17.48L25.64,22a1,1,0,0,0-1.42,0l-.22.22V15h1a1,1,0,0,0,.91-.58,1,1,0,0,0-.14-1.06l-5-6a1,1,0,0,0-1.54,0l-5,6a1,1,0,0,0-.14,1.06A1,1,0,0,0,15,15h1v9h2V14a1,1,0,0,0-.87-1L20,9.55,22.87,13A1,1,0,0,0,22,14v10.2l-2,2a1,1,0,0,0,0,1.42l1.19,1.19c-.17.38-.34.77-.48,1.17H19a1,1,0,0,0-1,1v6a1,1,0,0,0,1,1h1.69c.14.4.31.79.48,1.17L20,40.36a1,1,0,0,0,0,1.41L24.22,46a1,1,0,0,0,1.42,0l1.19-1.2A12,12,0,0,0,28,45.3V47a1,1,0,0,0,1,1h2v2H9a1,1,0,0,0-1,1v3H3a1,1,0,0,0-1,1v6a1,1,0,0,0,1,1H15a1,1,0,0,0,1-1V55a1,1,0,0,0-1-1H10V52H31v2H26a1,1,0,0,0-1,1v6a1,1,0,0,0,1,1H38a1,1,0,0,0,1-1V55a1,1,0,0,0-1-1H33V52H54v2H49a1,1,0,0,0-1,1v6a1,1,0,0,0,1,1H61a1,1,0,0,0,1-1V55A1,1,0,0,0,61,54ZM14,56v4H4V56Zm23,0v4H27V56ZM30,46V44.57a1,1,0,0,0-.73-1,9.65,9.65,0,0,1-2.14-.89,1,1,0,0,0-1.2.17l-1,1L22.1,41.07l1-1a1,1,0,0,0,.16-1.2,9.63,9.63,0,0,1-.88-2.14,1,1,0,0,0-1-.73H20V32h1.42a1,1,0,0,0,1-.73,9.83,9.83,0,0,1,.88-2.14,1,1,0,0,0-.16-1.2l-1-1,2.83-2.83,1,1a1,1,0,0,0,1.2.17,9.63,9.63,0,0,1,2.14-.88,1,1,0,0,0,.73-1V22h4v1.42a1,1,0,0,0,.73,1,9.63,9.63,0,0,1,2.14.88,1,1,0,0,0,1.2-.17l1-1,2.83,2.83-1,1a1,1,0,0,0-.16,1.2,9.83,9.83,0,0,1,.88,2.14,1,1,0,0,0,1,.73H44v4H42.58a1,1,0,0,0-1,.73,9.63,9.63,0,0,1-.88,2.14,1,1,0,0,0,.16,1.2l1,1-2.83,2.82-1-1a1,1,0,0,0-1.2-.17,9.65,9.65,0,0,1-2.14.89,1,1,0,0,0-.73,1V46ZM60,60H50V56H60Z"/></svg>
