<svg id="Layer_1" viewBox="0 0 512 512" xmlns="http://www.w3.org/2000/svg" data-name="Layer 1"><path d="m182.521 419.329c4.874-.96 8.412-5.264 8.412-10.232v-18.423c0-4.967-3.537-9.27-8.411-10.232l-6.265-1.235-4.294-10.364 3.558-5.305c2.766-4.125 2.224-9.669-1.289-13.181l-13.027-13.027c-3.512-3.511-9.055-4.054-13.182-1.288l-5.305 3.557-10.363-4.294-1.235-6.266c-.962-4.873-5.265-8.41-10.231-8.41h-18.424c-4.967 0-9.27 3.537-10.231 8.412l-1.235 6.265-10.363 4.294-5.306-3.558c-4.127-2.766-9.669-2.223-13.181 1.289l-13.027 13.027c-3.514 3.514-4.055 9.058-1.287 13.183l3.557 5.304-4.294 10.364-6.266 1.236c-4.873.961-8.41 5.265-8.41 10.231v18.423c0 4.968 3.538 9.271 8.411 10.232l6.265 1.235 4.294 10.364-3.557 5.303c-2.768 4.126-2.227 9.67 1.287 13.183l13.027 13.027c3.511 3.511 9.055 4.054 13.182 1.287l5.305-3.557 10.363 4.293 1.235 6.266c.961 4.874 5.265 8.411 10.231 8.411h18.424c4.967 0 9.271-3.538 10.231-8.412l1.235-6.265 10.364-4.293 5.304 3.557c4.126 2.767 9.671 2.225 13.182-1.287l13.027-13.027c3.514-3.514 4.056-9.059 1.288-13.183l-3.557-5.303 4.294-10.364 6.264-1.235zm-12.65-11.775c-2.297.453-4.216 2.025-5.112 4.188l-7.164 17.291c-.896 2.164-.651 4.633.653 6.578l4.01 5.979-8.875 8.875-5.98-4.01c-1.944-1.305-4.414-1.55-6.577-.653l-17.291 7.164c-2.164.896-3.736 2.815-4.188 5.113l-1.393 7.062h-12.553l-1.392-7.063c-.453-2.297-2.025-4.217-4.189-5.113l-17.291-7.163c-2.163-.898-4.633-.652-6.577.653l-5.98 4.01-8.875-8.875 4.01-5.98c1.305-1.945 1.55-4.414.653-6.578l-7.163-17.291c-.896-2.164-2.815-3.735-5.112-4.188l-7.062-1.393v-12.552l7.062-1.393c2.297-.453 4.216-2.025 5.112-4.188l7.163-17.291c.896-2.164.651-4.632-.653-6.578l-4.01-5.98 8.876-8.875 5.979 4.01c1.944 1.305 4.413 1.549 6.578.653l17.291-7.164c2.163-.896 3.735-2.815 4.188-5.113l1.393-7.062h12.553l1.393 7.062c.452 2.297 2.024 4.216 4.188 5.113l17.291 7.164c2.164.896 4.634.651 6.578-.653l5.979-4.01 8.876 8.875-4.01 5.979c-1.305 1.945-1.55 4.415-.653 6.578l7.164 17.291c.896 2.164 2.815 3.735 5.112 4.188l7.062 1.393v12.552l-7.062 1.393zm-58.194-51.724c-24.292 0-44.055 19.763-44.055 44.055s19.763 44.055 44.055 44.055 44.056-19.763 44.056-44.055-19.764-44.055-44.056-44.055zm0 74.11c-16.572 0-30.055-13.482-30.055-30.055s13.482-30.055 30.055-30.055 30.056 13.482 30.056 30.055-13.482 30.055-30.056 30.055zm254.434-111.155-20.356-13.971c-1.749-1.201-2.859-3.129-3.019-5.244s.647-4.188 2.196-5.638l17.232-16.129c2.821-2.641 7.253-2.496 9.894.327 2.642 2.822 2.495 7.252-.327 9.894l-2.964 2.774c40.451-6.05 76.437-31.199 96.062-67.966 1.819-3.41 6.061-4.698 9.471-2.879 3.411 1.821 4.699 6.061 2.879 9.472-21.795 40.833-61.838 68.718-106.829 75.291l3.683 2.527c3.188 2.188 3.998 6.545 1.811 9.732-1.356 1.977-3.549 3.04-5.777 3.04-1.365 0-2.744-.398-3.955-1.229zm73.054-251.543c-2.808-2.657-2.93-7.087-.272-9.896 2.655-2.808 7.087-2.93 9.896-.272 28.783 27.238 45.291 65.426 45.291 104.773 0 5.699-.338 11.391-1.009 17.035l3.381-2.892c2.938-2.512 7.357-2.167 9.869.771 2.513 2.938 2.168 7.356-.77 9.869l-18.764 16.046c-1.278 1.093-2.896 1.68-4.55 1.68-.432 0-.865-.04-1.297-.122-2.085-.393-3.878-1.71-4.878-3.581l-11.119-20.82c-1.821-3.41-.533-7.65 2.877-9.472 3.412-1.821 7.651-.534 9.473 2.877l1.921 3.598c.575-4.967.865-9.976.865-14.99 0-35.517-14.912-69.999-40.914-94.605zm-208.446 163.21c-3.107 2.302-7.49 1.648-9.792-1.458l-1.572-2.123v173.015c0 59.373-48.304 107.677-107.677 107.677s-107.678-48.304-107.678-107.677c0-25.437 9.127-50.166 25.7-69.634 2.507-2.944 6.924-3.298 9.867-.792 2.944 2.506 3.299 6.924.793 9.868-14.419 16.938-22.36 38.445-22.36 60.559 0 51.654 42.023 93.677 93.677 93.677s93.677-42.023 93.677-93.677v-173.014l-1.571 2.122c-2.301 3.106-6.685 3.76-9.792 1.458-3.106-2.301-3.759-6.685-1.458-9.791l14.196-19.165c1.32-1.782 3.407-2.833 5.625-2.833s4.305 1.051 5.625 2.833l14.197 19.165c2.301 3.106 1.648 7.49-1.458 9.791zm90.545 61.757c3.866 0 7 3.134 7 7s-3.134 7-7 7h-82.318c-3.866 0-7-3.134-7-7s3.134-7 7-7zm-51.008-242.454c-2.081-3.258-1.126-7.586 2.132-9.667 23.154-14.787 49.894-22.604 77.329-22.604 18.339 0 36.612 3.562 53.596 10.384l-1.957-4.097c-1.666-3.488-.189-7.667 3.299-9.333 3.488-1.667 7.666-.19 9.334 3.298l10.643 22.277c.914 1.914.911 4.139-.008 6.051s-2.655 3.303-4.722 3.784l-22.987 5.353c-.534.125-1.068.184-1.594.184-3.182 0-6.06-2.183-6.812-5.414-.877-3.765 1.465-7.528 5.23-8.405l3.871-.901c-15.192-6.033-31.514-9.181-47.894-9.181-24.76 0-48.895 7.055-69.794 20.402-3.258 2.081-7.587 1.126-9.667-2.132zm-78.962 249.454c0 3.866-3.134 7-7 7h-72.616c-12.007 0-23.912 2.34-34.992 6.83l4.685 1.091c3.766.876 6.107 4.64 5.23 8.405-.752 3.231-3.631 5.414-6.812 5.414-.525 0-1.06-.06-1.593-.184l-22.988-5.353c-2.066-.481-3.803-1.873-4.722-3.784s-.922-4.137-.008-6.051l10.644-22.278c1.669-3.488 5.848-4.964 9.334-3.298 3.488 1.667 4.965 5.845 3.299 9.333l-1.653 3.459c12.554-4.987 26.009-7.584 39.576-7.584h72.616c3.866 0 7 3.134 7 7zm14.061-121.618v-15.745c0-31.345 10.188-61.546 28.94-86.468l-4.583.853c-3.808.709-7.455-1.801-8.162-5.602s1.801-7.455 5.602-8.162l24.273-4.515c2.087-.387 4.234.191 5.843 1.573 1.608 1.383 2.504 3.42 2.434 5.54l-.78 23.59c-.127 3.864-3.314 6.895-7.228 6.765-3.864-.128-6.893-3.364-6.765-7.228l.127-3.826c-16.658 22.394-25.701 49.431-25.701 77.48v15.745c0 3.866-3.134 7-7 7s-7-3.134-7-7zm36.624-15.745c0 59.407 48.331 107.738 107.738 107.738s107.738-48.331 107.738-107.738-48.331-107.739-107.738-107.739-107.738 48.332-107.738 107.739zm100.738-91.146v35.422c-9.243-.687-18.26-2.738-26.793-6.035 6.948-15.278 16.35-26.019 26.793-29.388zm-39.486 23.341c-3.541-2.025-6.963-4.28-10.236-6.771 6.66-5.078 14.015-9.286 21.898-12.451-4.368 5.447-8.29 11.914-11.663 19.222zm39.486 26.115v34.691h-38.795c.596-15.114 3.102-29.339 7.016-41.684 10.112 3.9 20.812 6.284 31.778 6.993zm0 48.691v34.691c-10.967.708-21.666 3.093-31.779 6.993-3.914-12.344-6.42-26.57-7.016-41.684zm0 48.724v35.422c-10.443-3.368-19.845-14.11-26.793-29.388 8.533-3.297 17.55-5.347 26.793-6.034zm-27.824 31.303c-7.883-3.166-15.239-7.374-21.898-12.451 3.273-2.491 6.695-4.745 10.236-6.771 3.373 7.308 7.294 13.774 11.662 19.222zm41.824 4.12v-35.422c9.242.687 18.259 2.737 26.792 6.034-6.947 15.278-16.349 26.02-26.792 29.388zm39.485-23.341c3.542 2.025 6.964 4.28 10.237 6.771-6.66 5.078-14.015 9.286-21.899 12.451 4.368-5.447 8.289-11.914 11.663-19.222zm-39.485-26.114v-34.691h38.794c-.596 15.114-3.102 29.339-7.016 41.683-10.112-3.9-20.811-6.284-31.778-6.992zm0-48.691v-34.691c10.967-.708 21.666-3.092 31.778-6.992 3.914 12.344 6.42 26.57 7.016 41.683zm0-48.724v-35.422c10.443 3.368 19.845 14.11 26.792 29.388-8.533 3.297-17.55 5.347-26.792 6.034zm27.822-31.304c7.884 3.166 15.24 7.374 21.899 12.452-3.273 2.491-6.695 4.746-10.236 6.771-3.374-7.308-7.295-13.775-11.663-19.223zm-102.167 21.895c4.944 3.965 10.194 7.464 15.693 10.472-4.656 14.023-7.542 30.208-8.154 47.662h-33.672c1.67-22.509 11.325-42.827 26.133-58.133zm-26.133 72.133h33.672c.612 17.454 3.497 33.639 8.154 47.662-5.499 3.008-10.749 6.506-15.693 10.471-14.808-15.306-24.463-35.625-26.133-58.133zm160.822 58.133c-4.944-3.966-10.195-7.464-15.693-10.472 4.656-14.023 7.542-30.208 8.153-47.661h33.673c-1.67 22.509-11.325 42.827-26.133 58.133zm26.133-72.133h-33.673c-.612-17.454-3.497-33.638-8.153-47.661 5.499-3.008 10.749-6.506 15.693-10.472 14.808 15.306 24.463 35.625 26.133 58.133zm56.397 225.595-6.266-1.235-4.293-10.363 3.558-5.306c2.766-4.125 2.224-9.669-1.289-13.181l-13.027-13.027c-3.511-3.511-9.056-4.054-13.182-1.288l-5.305 3.557-10.363-4.294-1.235-6.266c-.962-4.873-5.265-8.41-10.231-8.41h-18.424c-4.967 0-9.27 3.537-10.231 8.412l-1.235 6.265-10.363 4.294-5.306-3.558c-4.127-2.766-9.669-2.223-13.181 1.289l-13.027 13.027c-3.514 3.514-4.055 9.058-1.287 13.183l3.557 5.304-4.294 10.364-6.265 1.235c-4.874.961-8.411 5.265-8.411 10.232v18.423c0 4.969 3.538 9.272 8.411 10.232l6.265 1.235 4.294 10.364-3.557 5.303c-2.768 4.126-2.227 9.67 1.287 13.183l13.027 13.027c3.512 3.511 9.055 4.054 13.182 1.287l5.305-3.557 10.363 4.293 1.235 6.266c.961 4.874 5.265 8.411 10.231 8.411h18.424c4.967 0 9.271-3.538 10.231-8.412l1.235-6.265 10.364-4.293 5.304 3.557c4.126 2.767 9.671 2.225 13.182-1.287l13.027-13.027c3.513-3.512 4.055-9.056 1.288-13.183l-3.557-5.304 4.293-10.363 6.265-1.235c4.874-.96 8.411-5.264 8.411-10.232v-18.423c0-4.967-3.537-9.27-8.41-10.232zm-5.59 25.72-7.062 1.393c-2.297.453-4.216 2.025-5.112 4.188l-7.163 17.291c-.896 2.164-.651 4.633.653 6.578l4.01 5.979-8.875 8.875-5.98-4.01c-1.944-1.305-4.414-1.55-6.577-.653l-17.291 7.164c-2.164.896-3.736 2.815-4.188 5.113l-1.393 7.062h-12.553l-1.392-7.063c-.453-2.297-2.025-4.217-4.189-5.113l-17.291-7.163c-2.163-.898-4.634-.652-6.577.653l-5.98 4.01-8.875-8.875 4.01-5.98c1.305-1.945 1.55-4.414.653-6.578l-7.163-17.291c-.896-2.164-2.815-3.735-5.112-4.188l-7.062-1.393v-12.552l7.062-1.393c2.297-.453 4.216-2.025 5.112-4.188l7.163-17.291c.896-2.164.651-4.632-.653-6.578l-4.01-5.98 8.876-8.875 5.979 4.01c1.944 1.305 4.413 1.549 6.578.653l17.291-7.164c2.163-.896 3.735-2.815 4.188-5.113l1.393-7.062h12.553l1.393 7.062c.452 2.297 2.024 4.216 4.188 5.113l17.291 7.164c2.164.896 4.634.651 6.578-.653l5.979-4.01 8.876 8.875-4.01 5.979c-1.305 1.945-1.55 4.414-.653 6.578l7.163 17.291c.896 2.164 2.815 3.735 5.112 4.188l7.062 1.393v12.552zm-65.256-50.331c-24.292 0-44.055 19.763-44.055 44.055s19.763 44.055 44.055 44.055 44.055-19.763 44.055-44.055-19.763-44.055-44.055-44.055zm0 74.11c-16.572 0-30.055-13.482-30.055-30.055s13.482-30.055 30.055-30.055 30.055 13.482 30.055 30.055-13.482 30.055-30.055 30.055zm-387.913-326.805 6.265 1.235 4.294 10.364-3.557 5.303c-2.768 4.126-2.227 9.67 1.287 13.183l13.027 13.027c3.511 3.511 9.055 4.055 13.182 1.287l5.305-3.557 10.363 4.293 1.235 6.266c.961 4.874 5.265 8.411 10.231 8.411h18.424c4.967 0 9.271-3.537 10.231-8.412l1.235-6.265 10.364-4.293 5.304 3.557c4.126 2.766 9.671 2.225 13.182-1.287l13.027-13.027c3.514-3.514 4.056-9.059 1.288-13.183l-3.557-5.303 4.294-10.364 6.264-1.235c4.874-.96 8.412-5.264 8.412-10.232v-18.424c0-4.967-3.537-9.27-8.411-10.231l-6.265-1.235-4.294-10.364 3.558-5.305c2.766-4.125 2.224-9.669-1.289-13.181l-13.027-13.027c-3.512-3.511-9.055-4.055-13.182-1.288l-5.305 3.557-10.363-4.294-1.235-6.266c-.962-4.873-5.265-8.41-10.231-8.41h-18.424c-4.967 0-9.27 3.537-10.231 8.412l-1.235 6.265-10.363 4.294-5.306-3.558c-4.127-2.766-9.669-2.223-13.181 1.289l-13.027 13.027c-3.514 3.514-4.055 9.058-1.287 13.183l3.557 5.304-4.294 10.364-6.266 1.236c-4.873.961-8.41 5.264-8.41 10.231v18.424c0 4.968 3.538 9.271 8.411 10.232zm5.589-25.72 7.062-1.393c2.297-.453 4.216-2.025 5.112-4.188l7.163-17.291c.896-2.164.651-4.632-.653-6.578l-4.01-5.98 8.876-8.875 5.979 4.01c1.944 1.305 4.413 1.55 6.578.653l17.291-7.164c2.163-.896 3.735-2.815 4.188-5.113l1.393-7.062h12.553l1.393 7.062c.452 2.297 2.024 4.216 4.188 5.113l17.291 7.164c2.164.896 4.634.651 6.578-.653l5.979-4.01 8.876 8.875-4.01 5.979c-1.305 1.945-1.55 4.415-.653 6.578l7.164 17.291c.896 2.164 2.815 3.735 5.112 4.188l7.062 1.393v12.552l-7.062 1.393c-2.297.453-4.216 2.025-5.112 4.188l-7.164 17.291c-.896 2.164-.651 4.633.653 6.578l4.01 5.979-8.875 8.875-5.98-4.01c-1.944-1.305-4.414-1.55-6.577-.653l-17.291 7.164c-2.164.896-3.736 2.815-4.188 5.113l-1.393 7.062h-12.553l-1.392-7.062c-.453-2.297-2.025-4.217-4.189-5.113l-17.291-7.163c-2.163-.898-4.633-.652-6.577.653l-5.98 4.01-8.875-8.875 4.01-5.98c1.305-1.945 1.55-4.414.653-6.578l-7.163-17.291c-.896-2.164-2.815-3.735-5.112-4.188l-7.062-1.393v-12.552zm65.256 50.331c24.292 0 44.056-19.763 44.056-44.055s-19.764-44.055-44.056-44.055-44.055 19.763-44.055 44.055 19.763 44.055 44.055 44.055zm0-74.11c16.573 0 30.056 13.482 30.056 30.055s-13.482 30.055-30.056 30.055-30.055-13.482-30.055-30.055 13.482-30.055 30.055-30.055zm146.794 346.247c0 3.866-3.134 7-7 7h-14.589c-3.866 0-7-3.134-7-7s3.134-7 7-7h14.589c3.866 0 7 3.134 7 7zm81 0c0 3.866-3.134 7-7 7h-14.589c-3.866 0-7-3.134-7-7s3.134-7 7-7h14.589c3.866 0 7 3.134 7 7zm-40.5 0c0 3.866-3.134 7-7 7h-14.589c-3.866 0-7-3.134-7-7s3.134-7 7-7h14.589c3.866 0 7 3.134 7 7zm-194.294-180.104c0-3.866 3.134-7 7-7s7 3.134 7 7v14.589c0 3.866-3.134 7-7 7s-7-3.134-7-7zm0-25.912v-14.588c0-3.866 3.134-7 7-7s7 3.134 7 7v14.588c0 3.866-3.134 7-7 7s-7-3.134-7-7zm0 66.412c0-3.866 3.134-7 7-7s7 3.134 7 7v14.589c0 3.866-3.134 7-7 7s-7-3.134-7-7z"/></svg>