<?xml version="1.0" encoding="UTF-8"?>
<svg id="Layer_1" xmlns="http://www.w3.org/2000/svg" version="1.1" viewBox="0 0 95 118.75">
  <!-- Generator: Adobe Illustrator 29.8.2, SVG Export Plug-In . SVG Version: 2.1.1 Build 3)  -->
  <defs>
    <style>
      .st0 {
        fill-rule: evenodd;
        stroke: #000;
        stroke-miterlimit: 10;
        stroke-width: .75px;
      }
    </style>
  </defs>
  <path class="st0" d="M76.39,61.31l-.64-3.18h-3.7l-.65,3.24c-.08.38-.36.69-.73.8h0c-.75.22-1.48.53-2.17.9-.34.19-.76.17-1.08-.05h0l-2.76-1.83-2.61,2.61,1.83,2.76c.23.34.23.78.02,1.13-.18.33-.34.66-.48,1.01-.15.36-.28.73-.39,1.11-.12.4-.45.69-.87.75l-3.18.64v3.7l3.24.65c.38.08.69.36.8.73h0c.11.38.24.75.39,1.11.15.36.32.71.51,1.06.19.34.17.76-.05,1.08h0l-1.83,2.76,2.61,2.61,2.76-1.83c.34-.23.78-.23,1.13-.02.33.18.66.34,1.01.48.36.15.73.28,1.11.39.4.12.69.46.75.86l.64,3.18h3.7l.65-3.24c.08-.38.36-.69.73-.8h0c.38-.11.75-.24,1.11-.39.36-.15.71-.32,1.06-.5.34-.19.76-.17,1.08.05h0l2.76,1.83,2.61-2.61-1.83-2.76c-.23-.34-.23-.78-.02-1.13.18-.33.34-.66.48-1.01.15-.36.28-.74.39-1.11.12-.4.45-.69.86-.74l3.18-.64v-3.7l-3.24-.65c-.38-.08-.69-.36-.8-.73h0c-.22-.75-.53-1.48-.9-2.17-.19-.34-.17-.76.05-1.08h0l1.83-2.76-2.61-2.61-2.76,1.83c-.34.23-.78.23-1.13.02-.33-.17-.66-.33-1.01-.48-.36-.15-.73-.28-1.11-.39-.4-.12-.69-.45-.75-.86h0ZM70.76,74.93c-.5-.29-.67-.94-.38-1.44.29-.5.94-.67,1.44-.38l1.55.9,2.23-3.88c.29-.5.93-.68,1.43-.39.5.29.68.93.39,1.43h0l-2.73,4.73-.03.06c-.29.5-.93.67-1.44.38l-2.46-1.42ZM73.9,64.3c4.83,0,8.75,3.92,8.75,8.75,0,4.83-3.92,8.75-8.75,8.75s-8.75-3.92-8.75-8.75c0-2.32.92-4.55,2.56-6.19,1.64-1.64,3.87-2.57,6.19-2.56ZM78.6,68.35c2.59,2.59,2.59,6.8,0,9.39-2.59,2.59-6.8,2.59-9.39,0s-2.59-6.8,0-9.39c1.25-1.25,2.93-1.94,4.7-1.94,1.76,0,3.45.7,4.69,1.94ZM33.21,84.27v-.88c.04-2.37-1.11-4.61-3.08-5.95-12.57-8.87-15.57-26.26-6.7-38.83,8.87-12.57,26.26-15.57,38.83-6.7,7.4,5.22,11.79,13.71,11.8,22.76,0,.37-.01.78-.03,1.24v.09h1.95c.87,0,1.62.61,1.79,1.47l.58,2.86c.24.08.47.17.71.27.23.1.46.2.69.31l2.44-1.62c.72-.48,1.69-.39,2.3.23l2.94,2.94c.61.61.71,1.58.23,2.3l-1.62,2.44c.11.23.21.46.31.69s.19.47.27.71l2.86.58c.85.17,1.46.91,1.46,1.78v4.15c0,.87-.61,1.62-1.47,1.79l-2.86.58c-.08.24-.17.47-.27.71s-.2.46-.31.69l1.62,2.44c.48.72.39,1.69-.23,2.3l-2.94,2.93h0c-.61.62-1.58.71-2.3.23l-2.44-1.62c-.23.11-.46.21-.69.31s-.47.19-.71.27l-.58,2.86c-.17.85-.92,1.47-1.79,1.47h-4.15c-.87,0-1.62-.61-1.79-1.47l-.58-2.86c-.24-.08-.47-.17-.71-.27-.23-.1-.46-.2-.69-.31l-2.44,1.62c-.72.48-1.69.39-2.3-.23l-2.94-2.94c-.61-.61-.71-1.58-.23-2.3l1.62-2.44c-.11-.23-.21-.46-.31-.69l-.03-.07c-.59.55-1.09,1.2-1.46,1.91-.53,1.04-.8,2.2-.79,3.36v.88c2.67.86,4.13,3.73,3.26,6.39-.62,1.91-2.31,3.28-4.31,3.48-1.05,6.6-7.25,11.1-13.85,10.05-5.17-.82-9.23-4.88-10.05-10.05-2.79-.29-4.81-2.78-4.53-5.57.21-2,1.57-3.69,3.48-4.31h0ZM71.92,56.02h-.1c-.87,0-1.62.61-1.79,1.47l-.58,2.86c-.24.08-.47.17-.71.27s-.46.2-.69.31l-2.44-1.62c-.72-.48-1.68-.38-2.29.23h0l-2.94,2.94c-.61.61-.71,1.58-.23,2.3l1.62,2.44c-.11.23-.21.46-.31.69s-.19.47-.27.71l-2.87.58c-.85.16-1.47.91-1.47,1.78v4.15c0,.87.61,1.62,1.47,1.79l1.12.22c-.53.58-.99,1.23-1.35,1.94-.69,1.34-1.04,2.82-1.03,4.33v.63h-7.84v-29.03h2.21c2.36-.01,4.26-1.92,4.28-4.28v-.02h0c0-2.37-1.93-4.3-4.3-4.3h-.02c-2.36.01-4.26,1.92-4.28,4.28h0v.02h0v2.19h-1.86v-2.19h0v-.02h0c0-2.36-1.92-4.27-4.28-4.28h-.02c-2.37,0-4.3,1.93-4.3,4.3s1.93,4.3,4.3,4.3h2.19v29.03h-7.84v-.63c.04-3.06-1.45-5.93-3.97-7.67-11.62-8.2-14.39-24.27-6.19-35.89,8.2-11.62,24.27-14.39,35.89-6.19,6.84,4.83,10.9,12.67,10.9,21.04,0,.43,0,.82-.02,1.15,0,.06,0,.12,0,.18ZM45.27,84.03h1.86v-29.03h-1.86v29.03ZM43.16,52.89v-2.19h0v-.02h0c0-.57-.23-1.12-.63-1.53-.41-.41-.96-.64-1.54-.65h-.01c-1.21-.03-2.21.93-2.24,2.14s.93,2.21,2.14,2.24c.03,0,.06,0,.09,0h2.19ZM49.24,52.89h2.21c.57,0,1.12-.23,1.53-.63.41-.41.64-.96.65-1.54h0s0-.01,0-.01c0-1.21-.98-2.19-2.19-2.19h-.02c-.58,0-1.13.24-1.54.65-.4.41-.63.96-.63,1.53h0v.02h0v2.19ZM87.27,55.44h-5.67c-.58,0-1.06.47-1.06,1.06s.47,1.06,1.06,1.06h5.67c.58,0,1.06-.47,1.06-1.06s-.47-1.06-1.06-1.06ZM81.24,35.05l-4.91,2.83c-.5.29-.67.94-.38,1.44.29.5.94.67,1.44.38h0l4.91-2.84c.5-.29.67-.94.38-1.44-.29-.5-.94-.67-1.44-.38h0ZM65.83,20.4l-2.83,4.91c-.29.5-.12,1.14.39,1.43.5.29,1.14.12,1.43-.39l2.83-4.91c.29-.5.12-1.14-.39-1.43-.5-.29-1.14-.12-1.43.39h0ZM11.16,77.94c-.5.29-1.15.12-1.44-.38-.29-.5-.12-1.15.38-1.44h0l4.91-2.83c.5-.29,1.15-.12,1.44.38s.12,1.15-.38,1.44l-4.91,2.83h0ZM5.13,57.55c-.58,0-1.06-.47-1.06-1.06s.47-1.06,1.06-1.06h5.67c.58,0,1.06.47,1.06,1.06s-.47,1.06-1.06,1.06h-5.67ZM10.1,36.87c-.5-.29-.67-.93-.38-1.44.29-.5.93-.67,1.44-.38l4.91,2.83c.5.29.67.93.38,1.44s-.93.67-1.44.38l-4.91-2.83ZM24.75,21.45l2.83,4.91c.29.5.93.68,1.43.39s.68-.93.39-1.43h0l-2.83-4.91c-.29-.5-.93-.68-1.43-.39-.5.29-.68.93-.39,1.43ZM45.14,15.42c.02-.58.5-1.04,1.09-1.02.56.02,1,.46,1.02,1.02v5.67c.02.58-.44,1.07-1.02,1.09s-1.07-.44-1.09-1.02c0-.02,0-.04,0-.06v-5.67ZM56.01,94.17h-19.62c1.08,5.42,6.34,8.94,11.76,7.86,3.97-.79,7.07-3.89,7.86-7.86ZM57.64,86.14c1.64,0,2.96,1.33,2.96,2.96s-1.33,2.96-2.96,2.96h-22.87c-1.64,0-2.96-1.33-2.96-2.96s1.33-2.96,2.96-2.96h22.87Z"/>
</svg>