<svg id="Layer_5" enable-background="new 0 0 64 64" height="512" viewBox="0 0 64 64" width="512" xmlns="http://www.w3.org/2000/svg"><g><path d="m32 51c-.552 0-1-.448-1-1s.448-1 1-1v-2c-1.654 0-3 1.346-3 3s1.346 3 3 3 3-1.346 3-3h-2c0 .552-.448 1-1 1z"/><path d="m49.979 27.051 1.414 1.414c.944-.944 2.2-1.465 3.535-1.465 1.336 0 2.592.521 3.536 1.465l1.414-1.414c-1.321-1.322-3.079-2.051-4.949-2.051s-3.628.729-4.95 2.051z"/><path d="m53.383 21.126c-1.938-3.807-4.833-7.01-8.437-9.322-.389-3.852-3.059-7.174-6.785-8.347-1.613-1.519-3.777-2.457-6.161-2.457s-4.548.938-6.16 2.456c-3.727 1.173-6.396 4.496-6.785 8.347-3.579 2.297-6.462 5.475-8.4 9.25-.217-.025-.433-.053-.655-.053-2.583 0-4.857 1.666-5.677 4.058-1.885.322-3.323 1.966-3.323 3.942 0 2.206 1.794 4 4 4h3.045c.218 5.205 2.115 10.202 5.426 14.227-.298 1.265-.471 2.573-.471 3.916v.857c0 2.757 2.243 5 5 5h1v1c0 2.757 2.243 5 5 5h16c2.757 0 5-2.243 5-5v-1h1c2.757 0 5-2.243 5-5v-.857c0-1.341-.172-2.648-.47-3.912 2.932-3.561 4.744-7.814 5.284-12.379 1.22-.38 2.115-1.507 2.115-2.851 0-1.654-1.346-3-3-3s-3 1.346-3 3c0 1.258.78 2.334 1.881 2.779-.463 3.68-1.82 7.14-3.996 10.131-2.137-5.466-6.982-9.674-12.969-10.785l-.321-1.603c2.315-.899 4.032-2.992 4.396-5.522h.08c2.206 0 4-1.794 4-4 0-1.085-.437-2.068-1.141-2.789.734-1.4 1.141-2.945 1.141-4.536v-1.418c2.653 1.944 4.824 4.445 6.381 7.345-1.546.525-3 1.39-4.23 2.62l1.414 1.414c3.51-3.51 9.219-3.51 12.729 0l1.414-1.414c-2.539-2.54-6.018-3.563-9.325-3.097zm1.546 9.874c.552 0 1 .448 1 1s-.448 1-1 1-1-.448-1-1 .448-1 1-1zm-20.709-14.367c.273-.471.549-1.014.801-1.633h1.868c-.747.731-1.657 1.293-2.669 1.633zm1.742-7.633c-.053-.712-.164-1.377-.309-2h2.662c.297.622.503 1.294.605 2zm-5.55 4c-.17-.61-.297-1.28-.362-2h3.901c-.065.72-.192 1.39-.362 2zm2.406 2c-.28.564-.567 1.032-.818 1.395-.251-.363-.539-.831-.819-1.395zm-7.738-6c.102-.706.308-1.378.605-2h2.662c-.145.623-.256 1.288-.309 2zm4.969 0c.065-.72.192-1.39.362-2h3.177c.17.61.297 1.28.362 2zm1.133-4c.28-.564.567-1.032.818-1.394.251.362.538.83.818 1.394zm3.839 0c-.252-.619-.529-1.162-.801-1.633 1.012.34 1.922.902 2.67 1.633zm-6.042 0h-1.868c.747-.731 1.657-1.293 2.67-1.633-.273.471-.549 1.014-.802 1.633zm-.941 6c.053.712.164 1.377.309 2h-2.662c-.297-.622-.503-1.294-.605-2zm.941 4c.252.619.529 1.162.801 1.633-1.012-.34-1.922-.902-2.67-1.633zm9.336-2h-2.662c.145-.623.256-1.288.309-2h2.958c-.102.706-.308 1.378-.605 2zm-17.315-.226c0-2.202.949-4.244 2.492-5.685-.314.915-.492 1.892-.492 2.911 0 2.005.667 3.852 1.779 5.349-.914 1.026-1.503 2.292-1.699 3.651h-.08c-.401 0-.78.077-1.145.187-.552-1.086-.855-2.281-.855-3.511zm2 12.226c-1.103 0-2-.897-2-2s.897-2 2-2zm-20 4c0-1.103.897-2 1.913-2.005l1.001.039.166-.827c.374-1.858 2.023-3.207 3.92-3.207s3.546 1.349 3.92 3.207l.166.827.844-.024c.053-.002.104-.007.07-.01 1.103 0 2 .897 2 2s-.897 2-2 2h-10c-1.103 0-2-.897-2-2zm7.045 4h4.955c2.206 0 4-1.794 4-4 0-1.976-1.438-3.62-3.323-3.942-.524-1.529-1.646-2.756-3.061-3.446 1.557-2.903 3.729-5.409 6.384-7.354v1.418c0 1.592.407 3.137 1.142 4.534-.704.721-1.142 1.704-1.142 2.79 0 2.206 1.794 4 4 4h.08c.365 2.529 2.081 4.622 4.396 5.522l-.321 1.603c-5.984 1.111-10.829 5.316-12.966 10.779-2.514-3.468-3.948-7.609-4.144-11.904zm26.288 3.081c.149.026.298.054.445.085l-.564 5.635-2.8-2.801zm6.667 20.919h-22v-11c0-.552.448-1 1-1h20c.552 0 1 .448 1 1zm-8.414-14h-5.172l2.586-2.586zm-6.801-1.199-.564-5.635c.148-.031.296-.059.445-.085l2.92 2.919zm-9.785 13.199c-1.654 0-3-1.346-3-3v-.857c0-6.563 4.251-12.327 10.265-14.442l.63 6.299h-3.895c-1.654 0-3 1.346-3 3v9zm22 6h-16c-1.302 0-2.402-.839-2.816-2h21.631c-.413 1.161-1.513 2-2.815 2zm9-9.857v.857c0 1.654-1.346 3-3 3h-1v-9c0-1.654-1.346-3-3-3h-3.895l.63-6.299c6.014 2.115 10.265 7.879 10.265 14.442zm-14.086-16.472-2.914 2.915-2.914-2.914.34-1.701c.19.015.38.029.574.029h4c.194 0 .384-.014.574-.029zm4.086-8.671c0 2.757-2.243 5-5 5h-4c-2.757 0-5-2.243-5-5v-6c0-1.171.414-2.288 1.147-3.177 1.575 1.353 3.618 2.177 5.853 2.177 1.53 0 2.972-.386 4.235-1.063.282.029.566.063.848.063 1.057 0 1.917.86 1.917 1.917zm-.547-9.74c1.573-1.621 2.547-3.827 2.547-6.26 0-1.02-.178-1.996-.492-2.911 1.543 1.442 2.492 3.484 2.492 5.685v2.901c0 1.23-.303 2.424-.855 3.511-.365-.109-.744-.186-1.145-.186h-.12c-.306-1.266-1.224-2.287-2.427-2.74zm2.547 8.74v-4c1.103 0 2 .897 2 2s-.897 2-2 2z"/><path d="m32 27c-1.103 0-2-.897-2-2h-2c0 2.206 1.794 4 4 4s4-1.794 4-4h-2c0 1.103-.897 2-2 2z"/><circle cx="28" cy="21" r="1"/><circle cx="36" cy="21" r="1"/></g></svg>