<svg id="Layer_1" enable-background="new 0 0 66 66" height="512" viewBox="0 0 66 66" width="512" xmlns="http://www.w3.org/2000/svg"><g><path d="m64 53.9329h-1.9756v-27.5884c0-3.5596-2.8955-6.4551-6.4551-6.4551h-4.9863c-.7924-1.3666-2.1519-2.361-3.7524-2.6509 1.3965-3.5128-1.283-7.7222-5.3467-7.5059-.3025-3.0188-2.9645-5.6167-6.2871-5.6167-2.8062 0-5.2168 1.8535-6.022 4.4263-4.4996-1.8493-9.4918 2.1489-8.5605 6.9771-2.6437.1385-4.8557 1.9338-5.6391 4.3701h-4.5445c-3.5596 0-6.4551 2.8955-6.4551 6.4551v27.5884h-1.9756c-.5522 0-1 .4478-1 1v5.9512c0 .5522.4478 1 1 1h5.9507c.5522 0 1-.4478 1-1v-5.9512c0-.5522-.4478-1-1-1h-1.9751v-27.5884c0-2.4565 1.9985-4.4551 4.4551-4.4551h4.2398c.0309 3.3022 2.6036 6.0009 5.8491 6.2347v4.2726h-5.9658c-2.0977 0-3.8042 1.7065-3.8042 3.8042v5.8945h-1.9747c-.5522 0-1 .4478-1 1v5.9507c0 .5522.4478 1 1 1h5.9512c.5522 0 1-.4478 1-1v-5.9507c0-.5522-.4478-1-1-1h-1.9766v-5.8945c0-.9946.8096-1.8042 1.8042-1.8042h6.9658c.5522 0 1-.4478 1-1v-5.2495h2.9888v9.563h-1.9722c-.5522 0-1 .4478-1 1v5.9512c0 .5522.4478 1 1 1h5.9507c.5522 0 1-.4478 1-1v-5.9512c0-.5522-.4478-1-1-1h-1.9785v-9.563h4.4873v21.6973h-1.9746c-.5522 0-1 .4478-1 1v5.9512c0 .5522.4478 1 1 1h5.9512c.5522 0 1-.4478 1-1v-5.9512c0-.5522-.4478-1-1-1h-1.9766v-21.6973h4.625v9.563h-1.979c-.5522 0-1 .4478-1 1v5.9512c0 .5522.4478 1 1 1h5.9512c.5522 0 1-.4478 1-1v-5.9512c0-.5522-.4478-1-1-1h-1.9722v-9.563h2.8501v5.2495c0 .5522.4478 1 1 1h6.9653c.9946 0 1.8042.8096 1.8042 1.8042v5.8945h-1.9732c-.5522 0-1 .4478-1 1v5.9507c0 .5522.4478 1 1 1h5.9512c.5522 0 1-.4478 1-1v-5.9507c0-.5522-.4478-1-1-1h-1.978v-5.8945c0-2.0977-1.7065-3.8042-3.8042-3.8042h-5.9653v-4.2495h.3613c3.0293 0 5.4937-2.4644 5.4937-5.4937 0-.2608-.0333-.5129-.0684-.7642h4.312c2.4565 0 4.4551 1.9985 4.4551 4.4551v27.5884h-1.9756c-.5522 0-1 .4478-1 1v5.9512c0 .5522.4478 1 1 1h5.9512c.5522 0 1-.4478 1-1v-5.9512c0-.5522-.4478-.9999-1-.9999zm-57.0493 2v3.9512h-3.9507v-3.9512zm6.7754-11.8374v3.9507h-3.9512v-3.9507h1.9673c.0026 0 .0047.0015.0073.0015s.0047-.0015.0073-.0015zm40.5069 0c.0026 0 .0047.0015.0073.0015s.0047-.0015.0073-.0015h1.9708v3.9507h-3.9512v-3.9507zm-25.7462-4.3853v3.9512h-3.9507v-3.9512h1.9576c.0051.0001.0094.0029.0145.0029s.0094-.0029.0145-.0029zm6.4854 12.1343v3.9512h-3.9512v-3.9512h1.965c.0034.0001.0062.002.0096.002s.0062-.0019.0096-.002zm6.6206-12.1343v3.9512h-3.9512v-3.9512h1.9645c.0051.0001.0094.0029.0145.0029s.0094-.0029.0145-.0029zm4.2392-13.563h-24.8574c-2.375 0-4.3071-1.9365-4.3071-4.3174 0-2.681 2.5341-4.7978 5.1362-4.2261.3726.0815.7559-.0557.9937-.3506.2373-.2959.2871-.7007.1284-1.0454-1.8572-4.0237 2.8429-7.8397 6.3945-5.314.2964.2104.6831.2432 1.0098.0879.3271-.1558.5444-.4771.5679-.8389.144-2.2583 2.0327-4.0269 4.2988-4.0269 2.6755 0 4.5832 2.4172 4.2847 4.6543-.0444.332.0806.6636.332.8843s.5962.3013.9199.2134c.3496-.0942.6963-.1421 1.0308-.1421 2.8517 0 4.6097 3.5793 2.5396 5.8296-.2935.3188-.3481.79-.1357 1.1675.2114.3765.6377.5737 1.0679.4902 1.8359-.3618 4.0903 1.0835 4.0898 3.4404-.0001 1.9264-1.5675 3.4938-3.4938 3.4938zm17.168 33.7368h-3.9512v-3.9512h3.9512z"/><path d="m26.5269 16.9685c-.374.4063-.3477 1.0391.0586 1.4131.4072.374 1.0396.3481 1.4131-.0586 3.1139-3.3834 8.1446-3.387 11.2607.001.8848.9614 2.3781-.3688 1.4717-1.3545-3.9062-4.2454-10.2937-4.2489-14.2041-.001z"/><path d="m28.8418 19.4861c-.374.4067-.3477 1.0391.0586 1.4131.4084.3753 1.0406.3462 1.4131-.0586 1.8387-1.9984 4.7904-2.0002 6.6304-.0005.373.4067 1.0068.4326 1.4126.0591.4067-.3735.4331-1.0063.0591-1.4126-2.596-2.8233-6.9104-2.895-9.5738-.0005z"/><path d="m31.2158 23.4163c.4069.3737 1.0391.3468 1.4131-.0596.5439-.5918 1.4551-.5923 2 .0005.3735.4063 1.0059.4331 1.4131.0586.4063-.374.4326-1.0063.0586-1.4131-2.3106-2.5122-6.4224-.0004-4.8848 1.4136z"/></g></svg>