<?xml version="1.0" encoding="UTF-8"?>
<svg xmlns="http://www.w3.org/2000/svg" xmlns:xlink="http://www.w3.org/1999/xlink" version="1.1" id="Capa_1" x="0px" y="0px" viewBox="0 0 512 512" style="enable-background:new 0 0 512 512;" xml:space="preserve" width="512" height="512">
<g>
	<path style="fill-rule:evenodd;clip-rule:evenodd;fill:none;stroke:#000000;stroke-width:15.0001;stroke-miterlimit:22.9256;" d="&#10;&#9;&#9;M370.875,439.749V387.25l-15,0l30-44.999l30,45l-15,0v52.499 M141.124,439.749V387.25l15,0l-30-44.999l-30,45l15,0v52.499"/>
	<path style="fill-rule:evenodd;clip-rule:evenodd;fill:none;stroke:#000000;stroke-width:15.0001;stroke-miterlimit:22.9256;" d="&#10;&#9;&#9;M452,484.749h-15 M422,484.749H22.5c-8.245,0-15-6.75-15-15v-30h497v30c0,8.248-6.752,15-15,15H467"/>
	<path style="fill-rule:evenodd;clip-rule:evenodd;fill:none;stroke:#000000;stroke-width:15.0001;stroke-miterlimit:22.9256;" d="&#10;&#9;&#9;M489.5,439.749v-285c0-8.25-6.75-15-15-15H331 M181,139.749H37.5c-8.249,0-15,6.751-15,15v285 M52.5,439.749v-217.5 M52.5,207.249&#10;&#9;&#9;v-37.5H181 M331,169.749h128.5v269.999"/>
	<path style="fill-rule:evenodd;clip-rule:evenodd;fill:none;stroke:#000000;stroke-width:15.0001;stroke-miterlimit:22.9256;" d="&#10;&#9;&#9;M256,27.25c41.25,0,75,71.254,75,112.499v187.501H181V139.75C181,98.499,214.75,27.25,256,27.25z"/>
	<path style="fill-rule:evenodd;clip-rule:evenodd;fill:none;stroke:#000000;stroke-width:15.0001;stroke-miterlimit:22.9256;" d="&#10;&#9;&#9;M331,199.752l37.5,22.5v82.499H331 M181,199.752l-37.5,22.5v82.499H181"/>
	
		<polyline style="fill-rule:evenodd;clip-rule:evenodd;fill:none;stroke:#000000;stroke-width:15.0001;stroke-miterlimit:22.9256;" points="&#10;&#9;&#9;316,327.251 301,364.751 211,364.751 196,327.251 &#9;"/>
	
		<ellipse transform="matrix(0.9239 -0.3827 0.3827 0.9239 -36.8638 109.1758)" style="fill-rule:evenodd;clip-rule:evenodd;fill:none;stroke:#000000;stroke-width:15.0001;stroke-miterlimit:22.9256;" cx="256" cy="147.251" rx="30" ry="30"/>
	<path style="fill-rule:evenodd;clip-rule:evenodd;fill:none;stroke:#000000;stroke-width:15.0001;stroke-miterlimit:22.9256;" d="&#10;&#9;&#9;M256,214.752c-8.25,0-15,6.751-15,15v67.5h30v-67.5C271,221.502,264.25,214.752,256,214.752z"/>
	<path style="fill-rule:evenodd;clip-rule:evenodd;fill:none;stroke:#000000;stroke-width:15.0001;stroke-miterlimit:22.9256;" d="&#10;&#9;&#9;M184.749,439.749c0-24.853,20.147-45,45-45v-29.998 M327.25,439.749c0-24.853-20.147-45-45-45v-29.998"/>
	<path style="fill-rule:evenodd;clip-rule:evenodd;fill:none;stroke:#000000;stroke-width:15.0001;stroke-miterlimit:22.9256;" d="&#10;&#9;&#9;M278.5,91.677h15 M256,61.677h15"/>
	
		<line style="fill-rule:evenodd;clip-rule:evenodd;fill:none;stroke:#000000;stroke-width:15.0001;stroke-miterlimit:22.9256;" x1="256" y1="439.749" x2="256" y2="417.249"/>
</g>















</svg>
