<svg id="Layer_1" enable-background="new 0 0 66 66" height="512" viewBox="0 0 66 66" width="512" xmlns="http://www.w3.org/2000/svg"><g><path d="m64 56.54h-3.57v-32.92c0-2.69-2.19-4.88-4.88-4.88h-7.82c-.48 0-.88.39-.88.88s.39.88.88.88h7.82c1.72 0 3.13 1.4 3.13 3.13v32.92h-51.36v-32.93c0-1.72 1.4-3.13 3.13-3.13h7.54c.48 0 .88-.39.88-.88s-.39-.88-.88-.88h-7.54c-2.69 0-4.88 2.19-4.88 4.88v32.92h-3.57c-.48 0-.88.39-.88.88 0 4.12 3.35 7.46 7.46 7.46h48.83c4.11 0 7.46-3.35 7.46-7.46.01-.48-.39-.87-.87-.87zm-6.59 6.58h-48.82c-2.85 0-5.22-2.1-5.65-4.84h3.51 53.11 3.5c-.42 2.74-2.79 4.84-5.65 4.84z"/><path d="m35.28 59.83h-4.55c-.48 0-.88.39-.88.88s.39.88.88.88h4.55c.48 0 .88-.39.88-.88s-.4-.88-.88-.88z"/><path d="m33 14.83c-3.36 0-6.1 2.74-6.1 6.1s2.74 6.1 6.1 6.1 6.1-2.74 6.1-6.1-2.74-6.1-6.1-6.1zm0 10.45c-2.4 0-4.35-1.95-4.35-4.35s1.95-4.35 4.35-4.35 4.35 1.95 4.35 4.35-1.95 4.35-4.35 4.35z"/><path d="m21.99 20.2-5.61 5.85c-1.29 1.35-1.64 3.25-.91 4.97s2.35 2.79 4.22 2.79h4.1c.52 1.3 1.13 2.57 1.86 3.81.16.27.44.43.75.43h2.6c-.02.21-.04.43-.06.63-.78.45-1.36 1.17-1.66 2.01-.15-.02-.3-.03-.47-.03-2.11 0-3.99 1.28-4.8 3.2-3.64.06-6.59 3.04-6.59 6.69 0 .67.11 1.34.31 1.98h-4.41v-28.03h2.93c.48 0 .88-.39.88-.88s-.39-.88-.88-.88h-3.81c-.48 0-.88.39-.88.88v29.79c0 .48.39.88.88.88h45.11c.48 0 .88-.39.88-.88v-29.79c0-.48-.39-.88-.88-.88h-3.69c-.48 0-.88.39-.88.88s.39.88.88.88h2.81v28.04h-4.42c.2-.64.31-1.3.31-1.98 0-3.66-2.94-6.64-6.59-6.69-.86-2.06-2.92-3.41-5.26-3.18-.29-.84-.88-1.56-1.66-2.01-.03-.2-.04-.43-.06-.63h2.59c.31 0 .6-.16.75-.43.73-1.24 1.34-2.51 1.86-3.81h4.1c1.87 0 3.49-1.07 4.22-2.79s.38-3.63-.91-4.97l-5.61-5.85c-.42-3.47-1.51-6.89-3.27-10.09-1.8-3.28-4.21-6.23-7.17-8.77-.33-.28-.81-.28-1.14 0-2.95 2.54-5.36 5.49-7.17 8.77-1.74 3.2-2.82 6.62-3.25 10.09zm-2.29 11.85c-1.38 0-2.25-.89-2.61-1.72s-.39-2.08.56-3.08l4.16-4.33c-.07 3.08.38 6.16 1.35 9.13zm15.7 7.33c.04.31.25.57.54.69.7.28 1.19.95 1.24 1.7.02.26.15.5.37.65.21.15.49.2.74.13.34-.09.63-.14.91-.14 1.56 0 2.93 1.07 3.33 2.6.11.42.52.7.95.65l.15-.02c.08-.01.17-.03.25-.03 2.73 0 4.94 2.22 4.94 4.95 0 .68-.14 1.36-.41 1.97h-30.83c-.27-.62-.41-1.29-.41-1.97 0-2.73 2.22-4.95 4.96-4.95.09 0 .17.01.25.03l.13.02c.44.05.85-.22.96-.65.4-1.53 1.77-2.6 3.34-2.6.27 0 .55.04.91.14.25.07.52.02.73-.13s.35-.39.37-.65c.05-.75.54-1.42 1.24-1.7.29-.12.5-.38.54-.69.06-.44.11-.88.16-1.33h4.47c.05.45.1.89.17 1.33zm3.68-3.08h-3.03c-.01 0-.01 0-.02 0h-6.08c-.01 0-.01 0-.02 0h-3.03c-4.37-7.77-4.5-17.01-.36-24.89h12.9c4.15 7.88 4.02 17.11-.36 24.89zm9.27-9.05c.96 1 .92 2.24.56 3.08s-1.23 1.72-2.61 1.72h-3.46c.97-2.97 1.42-6.05 1.35-9.13zm-15.35-24.08c2.15 1.94 3.98 4.11 5.45 6.49h-10.9c1.47-2.38 3.3-4.56 5.45-6.49z"/><path d="m22.78 47.36c-1.67 0-3.03 1.36-3.03 3.03 0 .48.39.88.88.88s.88-.39.88-.88c0-.71.57-1.28 1.28-1.28.48 0 .88-.39.88-.88s-.4-.87-.89-.87z"/><path d="m43.21 49.11c.71 0 1.28.57 1.28 1.28 0 .48.39.88.88.88s.88-.39.88-.88c0-1.67-1.36-3.03-3.03-3.03-.48 0-.88.39-.88.88s.39.87.87.87z"/></g></svg>