<?xml version="1.0"?>
<svg xmlns="http://www.w3.org/2000/svg" id="Layer_1" data-name="Layer 1" viewBox="0 0 512 512"><defs><style>.cls-1{fill-rule:evenodd;}</style></defs><path class="cls-1" d="M354.576,233.282,230.85,246.826l0-.017a7.926,7.926,0,0,1-4.811-1.014A29.952,29.952,0,1,0,236.718,287.2a7.963,7.963,0,0,1,3.956-3.8l113.9-50.123ZM211.035,247.747a24,24,0,1,1-24,24,24,24,0,0,1,24-24Zm0,16a8,8,0,1,1-8,8,8,8,0,0,1,8-8Zm133.278-8.491V292.18a8,8,0,0,1-8,8H322.839A115.851,115.851,0,0,1,310.2,330.7l9.527,9.527a8,8,0,0,1,0,11.312l-28.9,28.9a8,8,0,0,1-11.313,0l-9.526-9.526a115.828,115.828,0,0,1-30.521,12.64v13.475a8,8,0,0,1-8,8H190.6a8,8,0,0,1-8-8V383.551a115.858,115.858,0,0,1-30.52-12.641l-9.527,9.527a8,8,0,0,1-11.313,0l-28.9-28.9a8,8,0,0,1,0-11.312l9.527-9.526a115.8,115.8,0,0,1-12.64-30.522H85.756a8,8,0,0,1-8-8V251.314a8,8,0,0,1,8-8H99.231a115.876,115.876,0,0,1,12.64-30.521l-9.527-9.527a8,8,0,0,1,0-11.312l28.9-28.9a8,8,0,0,1,11.313,0l9.526,9.526a115.876,115.876,0,0,1,30.521-12.64V146.468a8,8,0,0,1,8-8h40.867a8,8,0,0,1,8,8v13.475a115.831,115.831,0,0,1,30.521,12.641l9.526-9.527a8,8,0,0,1,11.313,0l28.9,28.9a8,8,0,0,1,0,11.312l-9.528,9.528,4.711,8.77,89.519-9.8c9.006-.971,12.331,11.607,4.06,15.245l-64.174,28.247ZM297.9,223.427l-31.1,3.4A71.594,71.594,0,1,0,281.8,282.766l46.515-20.47V284.18H316.446a8,8,0,0,0-7.93,6.944,98.08,98.08,0,0,1-15.122,36.242,7.994,7.994,0,0,0,.974,10.12l0,0,8.393,8.393-17.584,17.585-8.393-8.394a8,8,0,0,0-10.428-.764,98.046,98.046,0,0,1-36.383,15,7.987,7.987,0,0,0-6.487,7.843h-.013v11.868H198.6V377.158a8,8,0,0,0-6.943-7.93,98.081,98.081,0,0,1-36.242-15.121,7.992,7.992,0,0,0-10.12.973l0,0-8.393,8.394-17.585-17.585,8.394-8.393a8,8,0,0,0,.764-10.428,98.027,98.027,0,0,1-15-36.383,7.987,7.987,0,0,0-7.843-6.486v-.014H93.756V259.314h11.868a8,8,0,0,0,7.93-6.943,98.05,98.05,0,0,1,15.121-36.243,7.993,7.993,0,0,0-.974-10.12l.006-.005-8.394-8.393L136.9,180.026l8.393,8.393a8,8,0,0,0,10.428.765,97.983,97.983,0,0,1,36.383-15,7.988,7.988,0,0,0,6.486-7.844h.013V154.468h24.867v11.868a8,8,0,0,0,6.943,7.931,98.05,98.05,0,0,1,36.243,15.121,7.994,7.994,0,0,0,10.12-.974l0,.005,8.393-8.393,17.584,17.584L294.363,206a8,8,0,0,0-.765,10.428q2.323,3.46,4.3,7ZM249.339,297.05l13.926-6.128c-13.882,37.945-62.776,48.927-91.554,20.149a55.617,55.617,0,0,1,74.953-82.036l-15.093,1.652a45.916,45.916,0,1,0,17.768,66.363Zm186.739-21.6V478h28.364V275.452ZM420.078,486V267.452a8,8,0,0,1,8-8h44.363a8,8,0,0,1,8,8V486a8,8,0,0,1-8,8H428.078a8,8,0,0,1-8-8ZM190.006,433.637H234.37a8,8,0,0,1,8,8V486a8,8,0,0,1-8,8H190.006a8,8,0,0,1-8-8V441.637a8,8,0,0,1,8-8Zm36.364,16H198.006V478H226.37V449.636ZM348.721,348.51a8,8,0,0,0-8,8V486a8,8,0,0,0,8,8h44.364a8,8,0,0,0,8-8V356.51a8,8,0,0,0-8-8Zm36.364,16H356.72V478h28.365V364.51ZM269.363,400.144a8,8,0,0,0-8,8V486a8,8,0,0,0,8,8h44.364a8,8,0,0,0,8-8V408.144a8,8,0,0,0-8-8Zm36.364,16V478H277.363V416.144ZM204.326,25.508A236.777,236.777,0,0,1,248.7,18.05a8.007,8.007,0,0,1,8.551,7.969h.012V77.487a8,8,0,0,1-9.244,7.9,176.835,176.835,0,0,0-61.869,3.242,7.986,7.986,0,0,1-8.8-3.978l-18.6-32.222a7.982,7.982,0,0,1,3.412-11.176l-.006-.012a240.391,240.391,0,0,1,42.171-15.737Zm24.68,10.957a220.256,220.256,0,0,0-52.07,15.545l11.441,19.816a194.421,194.421,0,0,1,52.89-3.183V34.761q-6.139.676-12.261,1.7ZM156.793,98.113A7.968,7.968,0,0,0,160.606,86.8L145.571,60.76a7.972,7.972,0,0,0-11.693-3.207A234.693,234.693,0,0,0,37.243,307.946l.014,0a7.967,7.967,0,0,0,15.472-3.806l.013,0A178.458,178.458,0,0,1,156.793,98.113ZM83.024,131.039a218.629,218.629,0,0,1,52.792-55.314l6.574,11.388a193.271,193.271,0,0,0-59.366,43.926ZM281.832,18.068a234.3,234.3,0,0,1,86.047,23.215,7.981,7.981,0,0,1,3.175,11.588L337.043,111.78a7.971,7.971,0,0,1-11.632,2.431A181.279,181.279,0,0,0,278.445,91.88a7.98,7.98,0,0,1-5.635-7.625h-.021V26a8,8,0,0,1,9.043-7.932Zm39.715,22.837a217.744,217.744,0,0,0-32.758-6.171V78.463A192.6,192.6,0,0,1,327.4,96.557l25.7-44.514a218.711,218.711,0,0,0-31.554-11.138Zm74.6,16.7-.006.009a7.982,7.982,0,0,0-11.37,2.616L348.1,123.749a7.983,7.983,0,0,0,1.406,9.781,177.4,177.4,0,0,1,38.523,53.784,7.99,7.99,0,0,0,9.533,4.884l78.1-20.926-.006-.02a8.007,8.007,0,0,0,5.287-10.792,233.929,233.929,0,0,0-84.8-102.851Zm37.631,55.459a218.392,218.392,0,0,0-39.554-37.282L365,126.4a192.954,192.954,0,0,1,34.809,48.654l62.684-16.8A216.917,216.917,0,0,0,433.777,113.068Z"/></svg>
