<svg id="Layer_1" enable-background="new 0 0 66 66" viewBox="0 0 66 66" xmlns="http://www.w3.org/2000/svg"><g><g><g><g><path d="m4.4 53.3c-.6 0-1-.4-1-1v-35.3c0-2.7 2.2-4.9 4.9-4.9h16.6c.6 0 1 .4 1 1s-.4 1-1 1h-16.7c-1.6 0-2.9 1.3-2.9 2.9v35.3c.1.5-.4 1-.9 1z"/></g><g><path d="m59.7 53.3c-.6 0-1-.4-1-1v-19.6c0-.6.4-1 1-1s1 .4 1 1v19.6c0 .5-.5 1-1 1z"/></g><g><path d="m57.3 61.3h-50.5c-3.2 0-5.8-2.6-5.8-5.8v-3.3c0-.6.4-1 1-1h60.1c.6 0 1 .4 1 1v3.3c0 3.2-2.6 5.8-5.8 5.8zm-54.3-8v2.3c0 2.1 1.7 3.8 3.8 3.8h50.6c2.1 0 3.8-1.7 3.8-3.8v-2.3z"/></g><g><path d="m37 57.3h-9.9c-1.4 0-2.6-1.2-2.6-2.6v-2.4c0-.6.4-1 1-1s1 .4 1 1v2.4c0 .3.3.6.6.6h9.9c.3 0 .6-.3.6-.6v-2.4c0-.6.4-1 1-1s1 .4 1 1v2.4c0 1.4-1.2 2.6-2.6 2.6z"/></g><g><path d="m60.6 33.4h-35.8c-.6 0-1-.4-1-1s.4-1 1-1h35.8c1.3 0 2.4-1.1 2.4-2.4v-20c0-1.3-1.1-2.4-2.4-2.4h-32.3c-1.3 0-2.4 1.1-2.4 2.4v9.9c0 .6-.4 1-1 1s-1-.4-1-1v-9.8c0-2.4 2-4.4 4.4-4.4h32.4c2.4 0 4.4 2 4.4 4.4v20c-.1 2.4-2.1 4.3-4.5 4.3z"/></g><g><g><path d="m20.4 47.3c-.3 0-.6-.1-.8-.4l-2-2.6c-.2-.2-.2-.5-.2-.7l.6-4.9c.1-.5.6-.9 1.1-.9.5.1.9.6.9 1.1l-.6 4.4 1 1.3 1-1.3-.6-4.4c-.1-.5.3-1 .9-1.1.5-.1 1 .3 1.1.9l.6 4.9c0 .3 0 .5-.2.8l-2.1 2.6c-.1.1-.4.3-.7.3z"/></g><g><g><path d="m26.8 53.1c-.6 0-1-.4-1-1v-7.5c0-.4.2-.7.5-.9s.7-.2 1 0l5.2 3.3c.5.3 1.1.5 1.7.5h3.5c.6 0 1.1-.5 1.1-1.1 0-.3-.1-.6-.3-.8s-.5-.3-.8-.3h-3.5c-.2 0-.4-.1-.6-.2l-6.2-4.7c-.6-.4-1.3-.7-2-.7h-10.9c-1.4 0-2.5 1.1-2.5 2.5v10c0 .6-.4 1-1 1s-1-.4-1-1v-10c0-2.5 2-4.5 4.5-4.5h10.8c1.1 0 2.3.4 3.2 1.1l6 4.5h3.2c.9 0 1.7.3 2.2 1 .6.6.9 1.4.9 2.3 0 1.7-1.4 3-3.1 3h-3.5c-1 0-1.9-.3-2.7-.8l-3.7-2.3v5.7c0 .5-.5.9-1 .9z"/></g><g><path d="m15.7 53.1c-.6 0-1-.5-1-1v-6.5c0-.6.5-1 1-1 .6 0 1 .5 1 1v6.5c0 .6-.4 1-1 1z"/></g><g><path d="m37.9 45c-.1 0-.3 0-.4-.1-.5-.2-.7-.8-.5-1.3l6.1-13.9c.2-.5.8-.7 1.3-.5s.7.8.5 1.3l-6.1 13.9c-.1.4-.5.6-.9.6z"/></g></g><g><path d="m20.3 36.1c-3.5 0-6.3-2.8-6.3-6.3 0-.6.4-1 1-1s1 .4 1 1c0 2.4 1.9 4.3 4.3 4.3s4.3-1.9 4.3-4.3c0-.6.4-1 1-1s1 .4 1 1c0 3.4-2.9 6.3-6.3 6.3z"/></g><g><g><path d="m20.2 30.1c-2.2 0-4.4-.2-6.5-.6-.5-.1-.8-.5-.8-1v-5.7c0-.3.2-.6.4-.8.3-.2.6-.2.9-.1l5.9 2.3 6.2-2.3c.3-.1.7-.1.9.1.3.2.4.5.4.8v5.7c0 .5-.3.9-.8 1-2.2.4-4.4.6-6.6.6zm-5.3-2.4c3.5.6 7.1.6 10.8 0v-3.4l-5.2 2c-.2.1-.5.1-.7 0l-4.9-1.9z"/></g><g><path d="m20.1 26.3c-.1 0-.2 0-.4-.1l-10.3-4.1c-.4-.1-.6-.5-.6-.9s.3-.8.6-.9l10.3-4.1c.2-.1.5-.1.7 0l10.3 4.1c.4.2.6.5.6.9s-.3.8-.6.9l-10.3 4.1s-.1.1-.3.1zm-7.6-5.1 7.6 3 7.6-3-7.6-3z"/></g><g><path d="m9.8 27.8c-.6 0-1-.4-1-1v-5.6c0-.6.4-1 1-1s1 .4 1 1v5.6c0 .6-.5 1-1 1z"/></g></g></g><g><g><path d="m42.1 27.4h-7.5c-.6 0-1-.4-1-1v-3.4c0-.6.4-1 1-1h7.5c.6 0 1 .4 1 1s-.4 1-1 1h-6.5v1.4h6.5c.6 0 1 .4 1 1s-.5 1-1 1z"/></g><g><path d="m49.6 27.4h-7.5c-.6 0-1-.4-1-1v-6.9c0-.6.4-1 1-1h7.5c.6 0 1 .4 1 1s-.4 1-1 1h-6.5v4.9h6.5c.6 0 1 .4 1 1s-.5 1-1 1z"/></g><g><path d="m57.1 27.4h-7.5c-.6 0-1-.4-1-1v-10.8c0-.6.4-1 1-1h7.5c.6 0 1 .4 1 1v10.8c0 .6-.5 1-1 1zm-6.5-2h5.5v-8.8h-5.5z"/></g><g><path d="m40.1 16.8c-.3 0-.6-.1-.8-.4-.3-.4-.3-1 .2-1.4l5.5-4.4c.4-.3 1.1-.3 1.4.1s.3 1.1-.1 1.4l-5.5 4.4c-.3.2-.5.3-.7.3z"/></g><g><path d="m36.2 19.9c-.3 0-.6-.1-.8-.4-.3-.4-.3-1.1.1-1.4l.9-.7c.4-.3 1.1-.3 1.4.1s.3 1.1-.1 1.4l-.9.7c-.1.2-.3.3-.6.3z"/></g><g><path d="m46.7 14.7c-.6 0-1-.4-1-1v-2.5h-2.7c-.6 0-1-.4-1-1s.4-1 1-1h3.7c.6 0 1 .4 1 1v3.5c0 .6-.4 1-1 1z"/></g></g></g><g><g><path d="m49.8 48.9c-.1 0-.3 0-.4-.1l-5.2-2.2c-.4-.2-.6-.5-.6-.9v-6.2c0-.3.2-.7.5-.8s.6-.2.9-.1l5.2 2.2c.4.2.6.5.6.9v6.2c0 .3-.2.7-.5.8-.2.1-.4.2-.5.2zm-4.2-3.9 3.2 1.4v-4l-3.2-1.4z"/></g><g><path d="m49.8 48.9c-.4 0-.8-.2-.9-.6-.2-.5 0-1.1.5-1.3l4.6-2v-4l-3.8 1.6c-.5.2-1.1 0-1.3-.5s0-1.1.5-1.3l5.2-2.2c.3-.1.7-.1.9.1s.5.5.5.8v6.2c0 .4-.2.8-.6.9l-5.2 2.2c-.2.1-.3.1-.4.1z"/></g><g><path d="m54.9 40.4c-.1 0-.3 0-.4-.1l-4.8-2.1-4.7 2.2c-.5.2-1.1 0-1.3-.5s0-1.1.5-1.3l5.2-2.2c.3-.1.5-.1.8 0l5.2 2.2c.5.2.7.8.5 1.3-.2.3-.6.5-1 .5z"/></g></g></g><g><g><g><path d="m4.4 53.3c-.6 0-1-.4-1-1v-35.3c0-2.7 2.2-4.9 4.9-4.9h16.6c.6 0 1 .4 1 1s-.4 1-1 1h-16.7c-1.6 0-2.9 1.3-2.9 2.9v35.3c.1.5-.4 1-.9 1z"/></g><g><path d="m59.7 53.3c-.6 0-1-.4-1-1v-19.6c0-.6.4-1 1-1s1 .4 1 1v19.6c0 .5-.5 1-1 1z"/></g><g><path d="m57.3 61.3h-50.5c-3.2 0-5.8-2.6-5.8-5.8v-3.3c0-.6.4-1 1-1h60.1c.6 0 1 .4 1 1v3.3c0 3.2-2.6 5.8-5.8 5.8zm-54.3-8v2.3c0 2.1 1.7 3.8 3.8 3.8h50.6c2.1 0 3.8-1.7 3.8-3.8v-2.3z"/></g><g><path d="m37 57.3h-9.9c-1.4 0-2.6-1.2-2.6-2.6v-2.4c0-.6.4-1 1-1s1 .4 1 1v2.4c0 .3.3.6.6.6h9.9c.3 0 .6-.3.6-.6v-2.4c0-.6.4-1 1-1s1 .4 1 1v2.4c0 1.4-1.2 2.6-2.6 2.6z"/></g><g><path d="m60.6 33.4h-35.8c-.6 0-1-.4-1-1s.4-1 1-1h35.8c1.3 0 2.4-1.1 2.4-2.4v-20c0-1.3-1.1-2.4-2.4-2.4h-32.3c-1.3 0-2.4 1.1-2.4 2.4v9.9c0 .6-.4 1-1 1s-1-.4-1-1v-9.8c0-2.4 2-4.4 4.4-4.4h32.4c2.4 0 4.4 2 4.4 4.4v20c-.1 2.4-2.1 4.3-4.5 4.3z"/></g><g><g><path d="m20.4 47.3c-.3 0-.6-.1-.8-.4l-2-2.6c-.2-.2-.2-.5-.2-.7l.6-4.9c.1-.5.6-.9 1.1-.9.5.1.9.6.9 1.1l-.6 4.4 1 1.3 1-1.3-.6-4.4c-.1-.5.3-1 .9-1.1.5-.1 1 .3 1.1.9l.6 4.9c0 .3 0 .5-.2.8l-2.1 2.6c-.1.1-.4.3-.7.3z"/></g><g><g><path d="m26.8 53.1c-.6 0-1-.4-1-1v-7.5c0-.4.2-.7.5-.9s.7-.2 1 0l5.2 3.3c.5.3 1.1.5 1.7.5h3.5c.6 0 1.1-.5 1.1-1.1 0-.3-.1-.6-.3-.8s-.5-.3-.8-.3h-3.5c-.2 0-.4-.1-.6-.2l-6.2-4.7c-.6-.4-1.3-.7-2-.7h-10.9c-1.4 0-2.5 1.1-2.5 2.5v10c0 .6-.4 1-1 1s-1-.4-1-1v-10c0-2.5 2-4.5 4.5-4.5h10.8c1.1 0 2.3.4 3.2 1.1l6 4.5h3.2c.9 0 1.7.3 2.2 1 .6.6.9 1.4.9 2.3 0 1.7-1.4 3-3.1 3h-3.5c-1 0-1.9-.3-2.7-.8l-3.7-2.3v5.7c0 .5-.5.9-1 .9z"/></g><g><path d="m15.7 53.1c-.6 0-1-.5-1-1v-6.5c0-.6.5-1 1-1 .6 0 1 .5 1 1v6.5c0 .6-.4 1-1 1z"/></g><g><path d="m37.9 45c-.1 0-.3 0-.4-.1-.5-.2-.7-.8-.5-1.3l6.1-13.9c.2-.5.8-.7 1.3-.5s.7.8.5 1.3l-6.1 13.9c-.1.4-.5.6-.9.6z"/></g></g><g><path d="m20.3 36.1c-3.5 0-6.3-2.8-6.3-6.3 0-.6.4-1 1-1s1 .4 1 1c0 2.4 1.9 4.3 4.3 4.3s4.3-1.9 4.3-4.3c0-.6.4-1 1-1s1 .4 1 1c0 3.4-2.9 6.3-6.3 6.3z"/></g><g><g><path d="m20.2 30.1c-2.2 0-4.4-.2-6.5-.6-.5-.1-.8-.5-.8-1v-5.7c0-.3.2-.6.4-.8.3-.2.6-.2.9-.1l5.9 2.3 6.2-2.3c.3-.1.7-.1.9.1.3.2.4.5.4.8v5.7c0 .5-.3.9-.8 1-2.2.4-4.4.6-6.6.6zm-5.3-2.4c3.5.6 7.1.6 10.8 0v-3.4l-5.2 2c-.2.1-.5.1-.7 0l-4.9-1.9z"/></g><g><path d="m20.1 26.3c-.1 0-.2 0-.4-.1l-10.3-4.1c-.4-.1-.6-.5-.6-.9s.3-.8.6-.9l10.3-4.1c.2-.1.5-.1.7 0l10.3 4.1c.4.2.6.5.6.9s-.3.8-.6.9l-10.3 4.1s-.1.1-.3.1zm-7.6-5.1 7.6 3 7.6-3-7.6-3z"/></g><g><path d="m9.8 27.8c-.6 0-1-.4-1-1v-5.6c0-.6.4-1 1-1s1 .4 1 1v5.6c0 .6-.5 1-1 1z"/></g></g></g><g><g><path d="m42.1 27.4h-7.5c-.6 0-1-.4-1-1v-3.4c0-.6.4-1 1-1h7.5c.6 0 1 .4 1 1s-.4 1-1 1h-6.5v1.4h6.5c.6 0 1 .4 1 1s-.5 1-1 1z"/></g><g><path d="m49.6 27.4h-7.5c-.6 0-1-.4-1-1v-6.9c0-.6.4-1 1-1h7.5c.6 0 1 .4 1 1s-.4 1-1 1h-6.5v4.9h6.5c.6 0 1 .4 1 1s-.5 1-1 1z"/></g><g><path d="m57.1 27.4h-7.5c-.6 0-1-.4-1-1v-10.8c0-.6.4-1 1-1h7.5c.6 0 1 .4 1 1v10.8c0 .6-.5 1-1 1zm-6.5-2h5.5v-8.8h-5.5z"/></g><g><path d="m40.1 16.8c-.3 0-.6-.1-.8-.4-.3-.4-.3-1 .2-1.4l5.5-4.4c.4-.3 1.1-.3 1.4.1s.3 1.1-.1 1.4l-5.5 4.4c-.3.2-.5.3-.7.3z"/></g><g><path d="m36.2 19.9c-.3 0-.6-.1-.8-.4-.3-.4-.3-1.1.1-1.4l.9-.7c.4-.3 1.1-.3 1.4.1s.3 1.1-.1 1.4l-.9.7c-.1.2-.3.3-.6.3z"/></g><g><path d="m46.7 14.7c-.6 0-1-.4-1-1v-2.5h-2.7c-.6 0-1-.4-1-1s.4-1 1-1h3.7c.6 0 1 .4 1 1v3.5c0 .6-.4 1-1 1z"/></g></g></g><g><g><path d="m49.8 48.9c-.1 0-.3 0-.4-.1l-5.2-2.2c-.4-.2-.6-.5-.6-.9v-6.2c0-.3.2-.7.5-.8s.6-.2.9-.1l5.2 2.2c.4.2.6.5.6.9v6.2c0 .3-.2.7-.5.8-.2.1-.4.2-.5.2zm-4.2-3.9 3.2 1.4v-4l-3.2-1.4z"/></g><g><path d="m49.8 48.9c-.4 0-.8-.2-.9-.6-.2-.5 0-1.1.5-1.3l4.6-2v-4l-3.8 1.6c-.5.2-1.1 0-1.3-.5s0-1.1.5-1.3l5.2-2.2c.3-.1.7-.1.9.1s.5.5.5.8v6.2c0 .4-.2.8-.6.9l-5.2 2.2c-.2.1-.3.1-.4.1z"/></g><g><path d="m54.9 40.4c-.1 0-.3 0-.4-.1l-4.8-2.1-4.7 2.2c-.5.2-1.1 0-1.3-.5s0-1.1.5-1.3l5.2-2.2c.3-.1.5-.1.8 0l5.2 2.2c.5.2.7.8.5 1.3-.2.3-.6.5-1 .5z"/></g></g></g></g></svg>