<?xml version="1.0" encoding="UTF-8"?>
<svg xmlns="http://www.w3.org/2000/svg" id="Outline" viewBox="0 0 512 512" width="512" height="512"><circle cx="96" cy="56" r="8"/><circle cx="128" cy="56" r="8"/><circle cx="160" cy="56" r="8"/><path d="M288,128h80a8,8,0,0,0,0-16H288a8,8,0,0,0,0,16Z"/><path d="M288,160h80a8,8,0,0,0,0-16H288a8,8,0,0,0,0,16Z"/><path d="M64,400H181.754l-12,48H144a40.045,40.045,0,0,0-40,40,8,8,0,0,0,8,8H352a8,8,0,0,0,8-8,40.045,40.045,0,0,0-40-40H294.245l-8.008-32.022c.587.008,1.173.022,1.763.022a119.3,119.3,0,0,0,65.309-19.377l27.423,27.423a8,8,0,0,0,.64,10.581l52,52a32,32,0,0,0,45.255-45.255L426.92,389.665A39.86,39.86,0,0,0,440,360V174.806l.115-.143A24,24,0,1,0,440,129.376V120a40.068,40.068,0,0,0-32-39.195V40a24.028,24.028,0,0,0-24-24H80A24.028,24.028,0,0,0,56,40V80.805A40.068,40.068,0,0,0,24,120V360A40.045,40.045,0,0,0,64,400ZM448,144a8,8,0,1,1-8,8A8.009,8.009,0,0,1,448,144ZM320,464a24.042,24.042,0,0,1,22.629,16H121.371A24.042,24.042,0,0,1,144,464ZM186.246,448l12-48h29.938a119.15,119.15,0,0,0,41.2,14.555L277.753,448ZM288,400a104,104,0,1,1,73.846-177.225,23.973,23.973,0,0,0,.5,19.566l-2.665,2.665a87.67,87.67,0,1,0,8.305,14.322l5.674-5.673A23.858,23.858,0,0,0,384,256h.032A103.035,103.035,0,0,1,392,296,104.118,104.118,0,0,1,288,400ZM174.864,256H168V160h16v76.184A119.4,119.4,0,0,0,174.864,256ZM200,214.509V144h16v56.061A120.983,120.983,0,0,0,200,214.509ZM232,189.9V128h16v54.864A119.418,119.418,0,0,0,232,189.9ZM320,272a24.039,24.039,0,0,0-22.624,16H278.624a24,24,0,1,0,0,16h18.752a24,24,0,1,0,44.279-18.341l14.075-14.076a72.249,72.249,0,1,1-7.563-15.063l-17.826,17.825A23.858,23.858,0,0,0,320,272Zm8,24a8,8,0,1,1-8-8A8.009,8.009,0,0,1,328,296Zm-64,0a8,8,0,1,1-8-8A8.009,8.009,0,0,1,264,296Zm112-64a8,8,0,1,1,8,8A8.009,8.009,0,0,1,376,232Zm-9.768,154.918a120.971,120.971,0,0,0,12.686-12.686L404.686,400,392,412.686Zm101.081,65.768a16,16,0,1,1-22.626,22.628l-46.344-46.343,22.628-22.628ZM408,97.376A24.039,24.039,0,0,1,424,120v49.194l-16,20ZM408,296V214.806l16-20V320H405.587A120.077,120.077,0,0,0,408,296Zm-6.864,40H424v24a23.862,23.862,0,0,1-14.589,22.1l-20.788-20.788A119.612,119.612,0,0,0,401.136,336ZM72,40a8.009,8.009,0,0,1,8-8H384a8.009,8.009,0,0,1,8,8V80H72Zm0,56H392V209.194l-.115.143a23.946,23.946,0,0,0-19.3,1.557A119.988,119.988,0,0,0,347.834,192H368a8,8,0,0,0,0-16H288a120.077,120.077,0,0,0-24,2.413V120a8,8,0,0,0-8-8H224a8,8,0,0,0-8,8v8H192a8,8,0,0,0-8,8v8H160a8,8,0,0,0-8,8v8H128a8,8,0,0,0-8,8v8H96a8,8,0,0,0-8,8v80a8,8,0,0,0,8,8h74.413a119.617,119.617,0,0,0-2.14,16H80a8.009,8.009,0,0,1-8-8Zm80,80v80H136V176Zm-32,16v64H104V192ZM40,120A24.039,24.039,0,0,1,56,97.376V280a24.028,24.028,0,0,0,24,24h88.273a119.617,119.617,0,0,0,2.14,16H40Zm0,216H174.864a120.354,120.354,0,0,0,31.645,48H64a24.027,24.027,0,0,1-24-24Z"/></svg>
