<svg id="Layer_1" enable-background="new 0 0 512 512" viewBox="0 0 512 512" xmlns="http://www.w3.org/2000/svg"><path d="m470.525 368.272c-12.066 0-22.252 8.177-25.325 19.278h-15.601v-77.275c0-3.866-3.134-7-7-7h-41.064c4.774-12.634 7.699-26.168 8.428-40.275h61.434c3.073 11.102 13.259 19.278 25.325 19.278 14.489 0 26.278-11.788 26.278-26.278s-11.789-26.278-26.278-26.278c-12.066 0-22.252 8.177-25.325 19.278h-61.434c-.729-14.107-3.654-27.64-8.428-40.274h41.064c3.866 0 7-3.134 7-7v-77.276h15.601c3.073 11.102 13.259 19.278 25.325 19.278 14.49 0 26.278-11.788 26.278-26.278s-11.789-26.28-26.278-26.28c-12.066 0-22.252 8.177-25.325 19.278h-22.601c-3.866 0-7 3.134-7 7v77.276h-40.287c-12.818-24.858-33.179-45.219-58.037-58.037v-40.286h77.276c3.866 0 7-3.134 7-7v-22.602c11.101-3.073 19.278-13.258 19.278-25.324 0-14.49-11.789-26.278-26.278-26.278s-26.278 11.788-26.278 26.278c0 12.066 8.177 22.251 19.278 25.324v15.602h-77.276c-3.866 0-7 3.134-7 7v41.064c-12.634-4.774-26.168-7.699-40.275-8.428v-61.434c11.102-3.073 19.279-13.258 19.279-25.324 0-14.49-11.789-26.279-26.279-26.279s-26.278 11.788-26.278 26.278c0 12.066 8.177 22.251 19.278 25.324v61.434c-14.107.729-27.641 3.655-40.275 8.428v-41.063c0-3.866-3.134-7-7-7h-77.276v-15.602c11.102-3.073 19.279-13.258 19.279-25.324 0-14.49-11.789-26.278-26.279-26.278s-26.278 11.788-26.278 26.278c0 12.066 8.177 22.251 19.278 25.324v22.602c0 3.866 3.134 7 7 7h77.276v40.288c-24.858 12.818-45.218 33.178-58.036 58.037h-40.288v-77.276c0-3.866-3.134-7-7-7h-22.601c-3.073-11.103-13.259-19.28-25.325-19.28-14.49 0-26.278 11.788-26.278 26.278s11.789 26.279 26.278 26.279c12.066 0 22.252-8.177 25.324-19.279h15.602v77.276c0 3.866 3.134 7 7 7h41.064c-4.774 12.634-7.699 26.168-8.428 40.275h-61.434c-3.072-11.102-13.258-19.279-25.325-19.279-14.489.001-26.278 11.789-26.278 26.28s11.789 26.278 26.278 26.278c12.065 0 22.251-8.176 25.324-19.277h61.435c.729 14.107 3.655 27.64 8.428 40.274h-41.064c-3.866 0-7 3.134-7 7v77.276h-15.601c-3.073-11.102-13.259-19.278-25.324-19.278-14.49 0-26.278 11.788-26.278 26.278s11.789 26.278 26.278 26.278c12.066 0 22.252-8.177 25.324-19.278h22.602c3.866 0 7-3.134 7-7v-77.276h40.288c12.818 24.858 33.178 45.218 58.036 58.036v40.288h-77.276c-3.866 0-7 3.134-7 7v22.601c-11.102 3.073-19.279 13.259-19.279 25.325 0 14.49 11.789 26.278 26.279 26.278s26.278-11.788 26.278-26.278c0-12.066-8.177-22.252-19.278-25.325v-15.601h77.276c3.866 0 7-3.134 7-7v-41.065c12.634 4.774 26.168 7.699 40.275 8.428v61.435c-11.102 3.072-19.279 13.258-19.279 25.324-.001 14.49 11.788 26.279 26.278 26.279s26.279-11.788 26.279-26.278c0-12.066-8.177-22.251-19.278-25.324v-61.435c14.107-.729 27.641-3.655 40.275-8.428v41.065c0 3.866 3.134 7 7 7h77.276v15.6c-11.101 3.073-19.278 13.259-19.278 25.325 0 14.49 11.789 26.278 26.278 26.278s26.278-11.788 26.278-26.278c0-12.066-8.177-22.252-19.278-25.325v-22.601c0-3.866-3.134-7-7-7h-77.276v-40.288c24.858-12.818 45.218-33.178 58.036-58.036h40.288v77.275c0 3.866 3.134 7 7 7h22.6c3.073 11.102 13.259 19.278 25.325 19.278 14.49 0 26.278-11.788 26.278-26.278s-11.789-26.278-26.278-26.278zm6.196-124.551c6.771 0 12.278 5.508 12.278 12.278s-5.508 12.278-12.278 12.278-12.278-5.507-12.278-12.277 5.508-12.279 12.278-12.279zm-6.196-138.551c6.771 0 12.278 5.508 12.278 12.278s-5.508 12.278-12.278 12.278-12.279-5.508-12.279-12.278 5.508-12.278 12.279-12.278zm-88.253-63.695c0-6.771 5.508-12.278 12.278-12.278s12.278 5.508 12.278 12.278-5.508 12.278-12.278 12.278-12.278-5.507-12.278-12.278zm-277.102 0c0-6.771 5.508-12.278 12.278-12.278s12.279 5.508 12.279 12.278-5.508 12.278-12.279 12.278-12.278-5.507-12.278-12.278zm-63.695 88.253c-6.771 0-12.278-5.509-12.278-12.279s5.508-12.278 12.278-12.278 12.278 5.508 12.278 12.278-5.507 12.279-12.278 12.279zm-6.196 138.55c-6.771 0-12.279-5.508-12.279-12.278s5.508-12.278 12.278-12.278 12.279 5.507 12.279 12.278-5.508 12.278-12.278 12.278zm6.196 138.552c-6.771 0-12.278-5.508-12.278-12.278s5.508-12.278 12.278-12.278 12.278 5.508 12.278 12.278-5.507 12.278-12.278 12.278zm88.253 63.695c0 6.771-5.508 12.278-12.278 12.278s-12.279-5.508-12.279-12.278 5.508-12.279 12.279-12.279 12.278 5.508 12.278 12.279zm277.101 0c0 6.771-5.508 12.278-12.278 12.278s-12.278-5.508-12.278-12.278 5.508-12.279 12.278-12.279 12.278 5.508 12.278 12.279zm-163.108-435.246c0-6.771 5.508-12.279 12.279-12.279s12.279 5.508 12.279 12.278-5.509 12.279-12.279 12.279-12.279-5.508-12.279-12.278zm24.558 441.442c0 6.771-5.508 12.278-12.279 12.278s-12.278-5.508-12.278-12.278 5.508-12.278 12.278-12.278 12.279 5.508 12.279 12.278zm-12.279-100.577c-66.248 0-120.145-53.896-120.145-120.145s53.897-120.144 120.145-120.144 120.145 53.896 120.145 120.145-53.897 120.144-120.145 120.144zm214.525 30.685c-6.771 0-12.279-5.508-12.279-12.278s5.508-12.278 12.279-12.278 12.278 5.508 12.278 12.278-5.508 12.278-12.278 12.278zm-228.678-78.515c0 4.903-3.975 8.877-8.878 8.877s-8.878-3.974-8.878-8.877 3.974-8.877 8.878-8.877 8.878 3.974 8.878 8.877zm58.228 0c0 4.903-3.975 8.877-8.878 8.877s-8.878-3.974-8.878-8.877 3.975-8.877 8.878-8.877 8.878 3.974 8.878 8.877zm6.746-117.821h-100.466c-1.628-9.253-8.104-16.554-17.244-19.268l-10.534-3.127c-3.708-1.104-7.603 1.013-8.703 4.718-1.1 3.706 1.012 7.603 4.718 8.702l10.534 3.127c4.25 1.262 7.075 4.646 7.558 9.053l8.857 80.836c1.372 12.522 11.907 21.967 24.505 21.967h88.992c3.866 0 7-3.134 7-7s-3.134-7-7-7h-88.992c-5.444 0-9.996-4.08-10.589-9.492l-.154-1.409c29.848-.008 79.711-.055 79.718-.055 8.156 0 14.534-5.55 16.268-14.146l10.846-49.421c.026-.119.049-.239.069-.36.714-4.324-.433-8.639-3.146-11.836-2.894-3.411-7.239-5.289-12.237-5.289zm1.56 14.343c.013.023.049.149.024.385l-4.131 18.823h-21.664l.701-19.552h23.509c1.056.001 1.508.278 1.561.344zm-62.773 33.208h22.492l-.7 19.523c-6.573.005-13.802.011-21.091.016zm-.502-14-.701-19.552h24.899l-.701 19.552zm-14.009 0h-21.005l-2.142-19.552h22.446zm-19.471 14h19.973l.701 19.547c-6.628.004-12.966.007-18.532.008zm85.945 16.556c-.583 2.943-1.862 2.943-2.557 2.943 0 0-5.357.005-13.605.012l.699-19.511h19.094l-3.602 16.416c-.01.046-.02.093-.029.14z"/></svg>