<svg id="Layer_1" viewBox="0 0 64 64" xmlns="http://www.w3.org/2000/svg" data-name="Layer 1"><path d="m45 17c-9.09766 0-16.34082 6.0249-16.64453 6.28125-.22559.18994-.35547.46973-.35547.76416v15.99365c0 4.89502 2.65625 9.29785 6.93164 11.48975l10.4541 5.36084c.14355.07373.2998.11035.45605.11035.1709 0 .3418-.04395.49512-.13135l9.21387-5.24951c3.97754-2.26611 6.44922-6.56885 6.44922-11.229v-16.34473c0-.29443-.12988-.57422-.35547-.76416-.30371-.25635-7.54688-6.28125-16.64453-6.28125zm15 23.39014c0 3.94336-2.08398 7.58008-5.43945 9.49121l-8.74414 4.98193-9.97266-5.11377c-3.60449-1.84863-5.84375-5.56934-5.84375-9.71045v-15.51025c9.61426-7.29932 20.42889-7.2536 30 .00098z"/><path d="m32.36328 26.22852c-.23047.19043-.36328.47314-.36328.77148v12.22412c0 3.69531 2.04688 7.01709 5.34277 8.66943l7.84082 3.93213c.29565.14813.64594.14056.93457-.02051l6.91016-3.85059c3.06641-1.7085 4.97168-4.95508 4.97168-8.47266v-12.48193c0-.29834-.13281-.58105-.36328-.77148-7.78058-6.13275-17.49579-6.13196-25.27344 0zm23.63672 1.26562v11.98779c0 2.79297-1.51172 5.37012-3.94434 6.72559l-6.44824 3.59326-7.36816-3.69531c-2.61523-1.31104-4.23926-3.94775-4.23926-6.88135v-11.72998c7.06665-5.18011 14.96954-5.15387 22 0z"/><path d="m45 44c5.39838.10266 9.4259-5.59454 7.54425-10.63666l1.11395-.97467c.98212-.86603-.33142-2.36212-1.31647-1.50488.00006 0-.72131.63123-.72131.63123-4.35742-6.44495-14.58978-3.39783-14.62042 4.48499 0 4.41113 3.58887 8 8 8zm5.09619-11.15137-3.59619 3.14648-1.79297-1.79297c-.92737-.91998-2.33563.48468-1.414 1.41406-.00006 0 2.45404 2.45459 2.45404 2.45459.19434.19482.4502.29297.70703.29297.23438 0 .46973-.08203.6582-.24756l3.76953-3.29822c1.25232 8.6557-11.40161 9.91699-11.88184 1.18195.00092-6.02441 8.00018-8.22418 11.09619-3.15131z"/><path d="m4.99902 34.00195c1.30145 0 2.40112-.83856 2.815-2h2.23663c.23077 3.63818 1.69666 6.96118 3.98212 9.55316l-1.60785 1.60785c-3.01239-1.388-5.74304 2.43091-3.39459 4.81024 2.34161 2.3573 6.27869-.41486 4.8194-3.40692l1.59155-1.59155c2.59497 2.30017 5.92358 3.76233 9.56067 3.96967v2.2442c-3.1272 1.12079-2.35553 5.78235 1.00104 5.81335 3.35791-.03137 4.12781-4.69543.99896-5.81396v-2.22968c1.6134.11896 1.50775-2.20453-.00195-2.0816v-27.72333c1.1239.33167 2.22168 1.19843 3.15137 2.52191.31836.45166.94141.56055 1.39355.24316.66016-.45642.45172-1.29858-.05627-1.78412.83533.29456 1.99274 1.34552 2.65588.22986.26758-.48334.09277-1.09174-.39062-1.35931-2.12592-1.17639-4.41223-1.83209-6.75391-1.96332v-2.22821c3.1272-1.12079 2.35553-5.78241-1.00104-5.81335-3.35791.03137-4.12781 4.69537-.99896 5.81396v2.24231c-3.64374.22516-6.966 1.68658-9.55463 3.97638l-1.59882-1.59906c1.4223-3.02155-2.41357-5.69476-4.8183-3.40326-2.35907 2.34119.41394 6.27844 3.40643 4.81952l1.60046 1.60071c-2.29028 2.59235-3.75494 5.91455-3.98474 9.55139h-2.237c-1.12134-3.12744-5.78217-2.35553-5.81342 1.00104 0 1.65375 1.3457 2.99896 2.99902 2.99896zm6.8584 12.55616c-.93225.90002-2.3316-.47778-1.41302-1.41217.92566-.92151 2.33521.48645 1.41302 1.41217zm14.1416-37.55811c1.31281.0235 1.31262 1.97473-.00006 1.99805-1.31274-.02356-1.31256-1.97473.00006-1.99805zm1.00293 43.00293c-.0235 1.31281-1.97473 1.31262-1.99805-.00006.0235-1.31281 1.97473-1.31256 1.99805.00006zm-15.14648-35.14551c-.94965.89404-2.3277-.46356-1.41302-1.41266.92584-.91943 2.33185.48389 1.41302 1.41266zm1.74457 20.59278h3.98926c.64325 2.59094 1.65527 4.77979 2.91095 6.40497-2.96332-1.28094-5.4057-3.5611-6.90021-6.40497zm11.39996 7.39617c-2.23846-.65442-4.26495-3.45428-5.34418-7.39618h5.34418zm0-9.39617h-5.78784c-.51971-2.85535-.51965-6.0448-.00012-8.90039h5.78796zm0-18.29297v7.39258h-5.34436c1.07635-3.93097 3.09637-6.72662 5.34436-7.39258zm-4.50702 1.0011c-1.25342 1.62415-2.26196 3.80774-2.90302 6.39148h-3.98779c1.49109-2.83148 3.9256-5.10608 6.89081-6.39148zm-7.74359 8.39147h4.4295c-.47675 2.87109-.47632 6.02942-.00037 8.90039h-4.42981c-.98822-2.77966-.98883-6.12091.00067-8.90039zm-7.75037 3.45411c1.31281.0235 1.31262 1.97473-.00006 1.99805-1.31274-.02356-1.31256-1.97473.00006-1.99805z"/></svg>