<?xml version="1.0" encoding="UTF-8"?>
<svg xmlns="http://www.w3.org/2000/svg" xmlns:xlink="http://www.w3.org/1999/xlink" version="1.1" id="Capa_1" x="0px" y="0px" viewBox="0 0 512 512" style="enable-background:new 0 0 512 512;" xml:space="preserve" width="512" height="512">
<g>
	<g>
		
			<circle style="fill:none;stroke:#000000;stroke-width:15;stroke-linecap:round;stroke-linejoin:round;stroke-miterlimit:10;" cx="431.517" cy="272.297" r="32"/>
		<path style="fill:none;stroke:#000000;stroke-width:15;stroke-linecap:round;stroke-linejoin:round;stroke-miterlimit:10;" d="&#10;&#9;&#9;&#9;M504.5,281.651v-18.709c0-2.024-1.415-3.773-3.394-4.195l-17.239-3.679c-0.681-0.145-1.231-0.636-1.469-1.291&#10;&#9;&#9;&#9;c-0.541-1.486-1.141-2.943-1.803-4.368c-0.294-0.632-0.253-1.367,0.126-1.952l9.584-14.784c1.101-1.698,0.865-3.935-0.566-5.367&#10;&#9;&#9;&#9;l-13.231-13.231c-1.431-1.431-3.668-1.667-5.367-0.566l-14.784,9.584c-0.585,0.379-1.32,0.42-1.952,0.126&#10;&#9;&#9;&#9;c-1.425-0.663-2.882-1.263-4.368-1.803c-0.655-0.238-1.146-0.788-1.291-1.469l-3.679-17.239c-0.422-1.979-2.171-3.394-4.195-3.394&#10;&#9;&#9;&#9;h-18.709c-2.024,0-3.773,1.415-4.195,3.394l-3.679,17.239c-0.145,0.681-0.636,1.231-1.291,1.469&#10;&#9;&#9;&#9;c-1.486,0.541-2.943,1.141-4.368,1.803c-0.632,0.294-1.367,0.253-1.952-0.126l-14.784-9.584c-1.698-1.101-3.935-0.865-5.367,0.566&#10;&#9;&#9;&#9;l-13.231,13.231c-1.431,1.431-1.667,3.668-0.566,5.367l9.584,14.784c0.379,0.585,0.42,1.32,0.126,1.952&#10;&#9;&#9;&#9;c-0.663,1.425-1.263,2.882-1.803,4.368c-0.238,0.654-0.788,1.146-1.469,1.291l-17.239,3.679c-1.979,0.422-3.394,2.171-3.394,4.195&#10;&#9;&#9;&#9;v18.709c0,2.024,1.415,3.773,3.394,4.195l17.239,3.679c0.681,0.145,1.231,0.636,1.469,1.291c0.541,1.486,1.141,2.943,1.803,4.368&#10;&#9;&#9;&#9;c0.294,0.632,0.253,1.367-0.126,1.952l-9.584,14.784c-1.101,1.698-0.865,3.935,0.566,5.367l13.231,13.231&#10;&#9;&#9;&#9;c1.431,1.431,3.668,1.667,5.367,0.566l14.784-9.584c0.585-0.379,1.32-0.42,1.952-0.126c1.425,0.663,2.882,1.263,4.368,1.803&#10;&#9;&#9;&#9;c0.655,0.238,1.146,0.788,1.291,1.469l3.679,17.239c0.422,1.979,2.171,3.394,4.195,3.394h18.709c2.024,0,3.773-1.415,4.195-3.394&#10;&#9;&#9;&#9;l3.679-17.239c0.145-0.681,0.636-1.231,1.291-1.469c1.486-0.541,2.943-1.141,4.368-1.803c0.632-0.294,1.367-0.253,1.952,0.126&#10;&#9;&#9;&#9;l14.784,9.584c1.698,1.101,3.935,0.865,5.367-0.566l13.231-13.231c1.431-1.431,1.667-3.668,0.566-5.367l-9.584-14.784&#10;&#9;&#9;&#9;c-0.379-0.585-0.42-1.32-0.126-1.952c0.663-1.425,1.263-2.882,1.803-4.368c0.238-0.654,0.788-1.146,1.469-1.291l17.239-3.679&#10;&#9;&#9;&#9;C503.085,285.424,504.5,283.675,504.5,281.651z"/>
		
			<line style="fill:none;stroke:#000000;stroke-width:15;stroke-linecap:round;stroke-linejoin:round;stroke-miterlimit:10;" x1="427.064" y1="272.297" x2="437.064" y2="272.297"/>
		<path style="fill:none;stroke:#000000;stroke-width:15;stroke-linecap:round;stroke-linejoin:round;stroke-miterlimit:10;" d="&#10;&#9;&#9;&#9;M39.333,504.5H15.5c-4.418,0-8-3.582-8-8V350.146c0-4.418,3.582-8,8-8h161.333"/>
		<path style="fill:none;stroke:#000000;stroke-width:15;stroke-linecap:round;stroke-linejoin:round;stroke-miterlimit:10;" d="&#10;&#9;&#9;&#9;M269.837,415.333V496.5c0,4.418-3.582,8-8,8H74"/>
		<path style="fill:none;stroke:#000000;stroke-width:15;stroke-linecap:round;stroke-linejoin:round;stroke-miterlimit:10;" d="&#10;&#9;&#9;&#9;M180.5,372.146H73.042c-3.549,0-6.952,1.41-9.461,3.919l-22.162,22.162c-2.509,2.509-3.919,5.912-3.919,9.461v31.27&#10;&#9;&#9;&#9;c0,3.549,1.41,6.952,3.919,9.461l22.162,22.162c2.509,2.509,5.912,3.919,9.461,3.919h131.253c3.549,0,6.952-1.41,9.461-3.919&#10;&#9;&#9;&#9;l22.162-22.162c2.509-2.509,3.919-5.913,3.919-9.461V420.5"/>
		<path style="fill:none;stroke:#000000;stroke-width:15;stroke-linecap:round;stroke-linejoin:round;stroke-miterlimit:10;" d="&#10;&#9;&#9;&#9;M191.274,83.075c3.407,7.996,5.355,16.734,5.508,25.884c0.346,20.711-8.377,39.412-22.496,52.471&#10;&#9;&#9;&#9;c-11.652,10.776-18.124,25.949-18.124,41.731v11.522H95.587v-11.52c0-15.727-6.37-30.912-18.006-41.625&#10;&#9;&#9;&#9;c-13.918-12.814-22.624-31.097-22.624-51.391c0-39.088,32.292-70.712,71.918-70.171c16.133,0.22,31.017,5.85,42.868,15.131"/>
		<path style="fill:none;stroke:#000000;stroke-width:15;stroke-linecap:round;stroke-linejoin:round;stroke-miterlimit:10;" d="&#10;&#9;&#9;&#9;M147.467,250.848h-43.184c-4.803,0-8.696-3.893-8.696-8.696v-27.469h60.575v27.469&#10;&#9;&#9;&#9;C156.163,246.955,152.269,250.848,147.467,250.848z"/>
		<g>
			<g>
				
					<line style="fill:none;stroke:#000000;stroke-width:15;stroke-linecap:round;stroke-linejoin:round;stroke-miterlimit:10;" x1="125.875" y1="7.5" x2="125.875" y2="15"/>
			</g>
			<g>
				
					<line style="fill:none;stroke:#000000;stroke-width:15;stroke-linecap:round;stroke-linejoin:round;stroke-miterlimit:10;" x1="66.688" y1="23.359" x2="70.438" y2="29.854"/>
				
					<line style="fill:none;stroke:#000000;stroke-width:15;stroke-linecap:round;stroke-linejoin:round;stroke-miterlimit:10;" x1="181.312" y1="221.896" x2="185.062" y2="228.391"/>
			</g>
			<g>
				
					<line style="fill:none;stroke:#000000;stroke-width:15;stroke-linecap:round;stroke-linejoin:round;stroke-miterlimit:10;" x1="23.359" y1="66.688" x2="29.854" y2="70.438"/>
				
					<line style="fill:none;stroke:#000000;stroke-width:15;stroke-linecap:round;stroke-linejoin:round;stroke-miterlimit:10;" x1="221.896" y1="181.312" x2="228.391" y2="185.062"/>
			</g>
			<g>
				
					<line style="fill:none;stroke:#000000;stroke-width:15;stroke-linecap:round;stroke-linejoin:round;stroke-miterlimit:10;" x1="7.5" y1="125.875" x2="15" y2="125.875"/>
				
					<line style="fill:none;stroke:#000000;stroke-width:15;stroke-linecap:round;stroke-linejoin:round;stroke-miterlimit:10;" x1="236.75" y1="125.875" x2="244.25" y2="125.875"/>
			</g>
			<g>
				
					<line style="fill:none;stroke:#000000;stroke-width:15;stroke-linecap:round;stroke-linejoin:round;stroke-miterlimit:10;" x1="23.359" y1="185.062" x2="29.854" y2="181.312"/>
				
					<line style="fill:none;stroke:#000000;stroke-width:15;stroke-linecap:round;stroke-linejoin:round;stroke-miterlimit:10;" x1="221.896" y1="70.438" x2="228.391" y2="66.688"/>
			</g>
			<g>
				
					<line style="fill:none;stroke:#000000;stroke-width:15;stroke-linecap:round;stroke-linejoin:round;stroke-miterlimit:10;" x1="66.688" y1="228.391" x2="70.438" y2="221.896"/>
				
					<line style="fill:none;stroke:#000000;stroke-width:15;stroke-linecap:round;stroke-linejoin:round;stroke-miterlimit:10;" x1="181.312" y1="29.854" x2="185.062" y2="23.359"/>
			</g>
		</g>
		<path style="fill:none;stroke:#000000;stroke-width:15;stroke-linecap:round;stroke-linejoin:round;stroke-miterlimit:10;" d="&#10;&#9;&#9;&#9;M126.333,212.265v-52.459c0-6.228-2.325-12.232-6.52-16.836l-19.442-21.337c-4.195-4.604-6.52-10.608-6.52-16.836V93.122&#10;&#9;&#9;&#9;c0-3.381,2.741-6.122,6.122-6.122h42.082c3.755,0,6.798,3.044,6.798,6.798v18.952"/>
		
			<circle style="fill:none;stroke:#000000;stroke-width:15;stroke-linecap:round;stroke-linejoin:round;stroke-miterlimit:10;" cx="244.25" cy="352.712" r="65.232"/>
		
			<circle style="fill:none;stroke:#000000;stroke-width:15;stroke-linecap:round;stroke-linejoin:round;stroke-miterlimit:10;" cx="244.25" cy="352.712" r="35.232"/>
		<g>
			
				<line style="fill:none;stroke:#000000;stroke-width:15;stroke-linecap:round;stroke-linejoin:round;stroke-miterlimit:10;" x1="87.285" y1="446.961" x2="135.285" y2="446.961"/>
			
				<line style="fill:none;stroke:#000000;stroke-width:15;stroke-linecap:round;stroke-linejoin:round;stroke-miterlimit:10;" x1="87.285" y1="421.706" x2="108.494" y2="421.706"/>
		</g>
		<g>
			
				<polyline style="fill:none;stroke:#000000;stroke-width:15;stroke-linecap:round;stroke-linejoin:round;stroke-miterlimit:10;" points="&#10;&#9;&#9;&#9;&#9;291,92 432.064,92 432.064,145.516 &#9;&#9;&#9;"/>
			
				<polyline style="fill:none;stroke:#000000;stroke-width:15;stroke-linecap:round;stroke-linejoin:round;stroke-miterlimit:10;" points="&#10;&#9;&#9;&#9;&#9;431.517,372.146 431.517,434.333 331.333,434.333 &#9;&#9;&#9;"/>
			
				<polyline style="fill:none;stroke:#000000;stroke-width:15;stroke-linecap:round;stroke-linejoin:round;stroke-miterlimit:10;" points="&#10;&#9;&#9;&#9;&#9;405.645,138.195 432.064,159.712 458.482,138.195 &#9;&#9;&#9;"/>
			
				<polyline style="fill:none;stroke:#000000;stroke-width:15;stroke-linecap:round;stroke-linejoin:round;stroke-miterlimit:10;" points="&#10;&#9;&#9;&#9;&#9;338.556,407.915 317.039,434.333 338.556,460.752 &#9;&#9;&#9;"/>
		</g>
	</g>
</g>















</svg>
