<?xml version="1.0"?>
<svg xmlns="http://www.w3.org/2000/svg" data-name="Layer 1" id="Layer_1" viewBox="0 0 128 128"><title/><path d="M1.45453,108.91461A4,4,0,0,0,4.00018,116H123.99957a4,4,0,0,0,2.54559-7.08539l-12.11993-10a3.98656,3.98656,0,0,0-.48413-.33362,3.963,3.963,0,0,0,.05853-.581V69.90448a24.80392,24.80392,0,0,1-4,1.36267V98H18.00012V48h3.99982V92a2,2,0,0,0,4,0V32H84.01337a25.21368,25.21368,0,0,1,3.76544-4H25.99994V18a2.002,2.002,0,0,1,2-2H99.99957a2.002,2.002,0,0,1,2,2v4.08722c.66058-.05261,1.32617-.08722,2.00006-.08722s1.33936.03455,1.99988.08716V18a6.00655,6.00655,0,0,0-5.99994-6H27.99994a6.00656,6.00656,0,0,0-6,6V44H18.00012a4,4,0,0,0-4,4V98a3.963,3.963,0,0,0,.05853.581,3.992,3.992,0,0,0-.48419.33362ZM16.12012,102h95.75952l12.11993,10H4.00018Z"/><path d="M79.99963,20a2,2,0,0,0,0,4h4a2,2,0,0,0,0-4Z"/><path d="M71.99969,59a2,2,0,0,0,4,0,22.99988,22.99988,0,1,0-45.99976,0,2,2,0,1,0,3.99994,0,18.99991,18.99991,0,1,1,37.99982,0Z"/><path d="M52.99982,74a15,15,0,0,0,0-30,2,2,0,0,0,0,4A11,11,0,1,1,41.99988,59a2,2,0,0,0-4,0A15.01666,15.01666,0,0,0,52.99982,74Z"/><path d="M52.99982,56a3.00328,3.00328,0,0,1,3,3,2,2,0,1,0,3.99994,0,7,7,0,1,0-6.99994,7,2,2,0,1,0,0-4,3,3,0,0,1,0-6Z"/><path d="M91.99957,20a2,2,0,0,0,0,4h2.207a24.78262,24.78262,0,0,1,3.63892-1.23151A1.999,1.999,0,0,0,95.99957,20Z"/><path d="M83.16553,60.79565A3.97742,3.97742,0,0,0,82.49976,63V90H78.49982V72a4,4,0,0,0-4-4h-4a4,4,0,0,0-3.99994,4V90h-5V82a4,4,0,0,0-4-4H53.49994a4,4,0,0,0-4,4v8h-.50012a2,2,0,0,0,0,4H93.99957a1.99616,1.99616,0,0,0,.49323-3.9314c.00043-.02344.0069-.0451.0069-.0686V70.10321A24.9583,24.9583,0,0,1,90.49976,68.025V90h-4V64.8042A25.16335,25.16335,0,0,1,83.16553,60.79565ZM57.49988,90H53.49994V82h3.99994Zm16.99994,0h-4V72h4Z"/><path d="M127.13855,22.35547a2.00049,2.00049,0,0,0-2.78314.50586L107.90576,46.62158,102.57819,39.772a2.07145,2.07145,0,0,0-3.15723,0L93.02155,48H87.05023c-.01941-.3327-.05048-.66241-.05048-1a16.97446,16.97446,0,0,1,25.88983-14.47021l2.25635-3.29529a20.98595,20.98595,0,1,0-13.14636,38.66418V84a2,2,0,1,0,3.99994,0V67.89868A20.96591,20.96591,0,0,0,123.215,38.56079l-2.80719,4.05493A16.99266,16.99266,0,0,1,87.74982,52h6.24976a2.00073,2.00073,0,0,0,1.57861-.772l5.42139-6.97021L106.4209,51.228a2,2,0,0,0,1.57861.772l.05566-.001a2.0003,2.0003,0,0,0,1.58887-.86035l18.00037-26A2.00116,2.00116,0,0,0,127.13855,22.35547Z"/></svg>
