<?xml version="1.0" encoding="UTF-8"?>
<svg id="Layer_1" xmlns="http://www.w3.org/2000/svg" version="1.1" viewBox="0 0 110 135">
  <!-- Generator: Adobe Illustrator 29.8.2, SVG Export Plug-In . SVG Version: 2.1.1 Build 3)  -->
  <defs>
    <style>
      .st0 {
        fill-rule: evenodd;
        stroke: #000;
        stroke-miterlimit: 10;
      }
    </style>
  </defs>
  <path class="st0" d="M73.12,113.49h-1.9c-.93,0-1.76-.38-2.37-.98-.61-.61-.98-1.45-.98-2.37v-2.54c-.63-.18-1.25-.4-1.84-.65-.61-.25-1.2-.54-1.77-.85l-1.8,1.8c-.65.65-1.51.98-2.37.98s-1.72-.33-2.37-.98l-2.68-2.68c-.65-.65-.98-1.51-.98-2.37s.33-1.72.98-2.37l1.8-1.8c-.31-.57-.6-1.16-.85-1.77-.25-.6-.46-1.21-.65-1.84h-2.54c-.93,0-1.76-.38-2.37-.98-.61-.61-.98-1.45-.98-2.37v-3.79c0-.93.38-1.76.98-2.37.61-.61,1.45-.98,2.37-.98h2.54c.18-.63.4-1.25.65-1.84.25-.61.54-1.2.85-1.77l-1.8-1.8c-.65-.65-.98-1.51-.98-2.37s.33-1.72.98-2.37l2.68-2.68c.65-.65,1.51-.98,2.37-.98s1.72.33,2.37.98l1.8,1.8c.57-.31,1.16-.6,1.77-.85.6-.25,1.21-.46,1.84-.65v-2.54c0-.93.38-1.76.98-2.37.61-.61,1.45-.98,2.37-.98h3.79c.93,0,1.76.38,2.37.98.61.61.98,1.45.98,2.37v2.54c.63.18,1.24.4,1.84.65.61.25,1.2.54,1.77.85l1.8-1.8c.65-.65,1.51-.98,2.37-.98s1.72.33,2.37.98l2.68,2.68c.65.65.98,1.51.98,2.37s-.33,1.72-.98,2.37l-1.8,1.8c.31.57.6,1.16.85,1.77.25.6.46,1.21.65,1.84h2.54c.93,0,1.76.38,2.37.98.61.61.98,1.45.98,2.37v3.79c0,.93-.38,1.76-.98,2.37-.61.61-1.45.98-2.37.98h-2.54c-.18.63-.4,1.25-.65,1.84-.25.61-.54,1.2-.85,1.77l1.8,1.8c.65.65.98,1.51.98,2.37s-.33,1.72-.98,2.37l-2.68,2.68c-.65.65-1.51.98-2.37.98s-1.72-.33-2.37-.98l-1.8-1.8c-.57.31-1.16.6-1.77.85-.6.25-1.21.46-1.84.65v2.54c0,.93-.38,1.76-.98,2.37-.61.61-1.45.98-2.37.98h-1.89ZM97.97,69.12c.07-.73.13-1.46.17-2.2.04-.77.06-1.51.06-2.21,0-11.93-4.84-22.73-12.65-30.54-7.82-7.82-18.61-12.65-30.54-12.65s-22.73,4.84-30.54,12.65c-7.82,7.82-12.65,18.62-12.65,30.54,0,9.88,3.32,18.98,8.9,26.26,4.77,6.22,11.2,11.1,18.62,14l-15.09,2.84c-.65.12-1.08.75-.96,1.4.12.65.75,1.08,1.4.96l19.61-3.7c.46-.06.87-.4,1-.88.17-.64-.21-1.3-.85-1.46-8.8-2.35-16.44-7.58-21.83-14.6-5.27-6.87-8.41-15.48-8.41-24.81,0-11.27,4.57-21.47,11.95-28.85,7.38-7.39,17.58-11.95,28.85-11.95s21.47,4.57,28.85,11.95c7.38,7.38,11.95,17.58,11.95,28.85,0,.75-.02,1.45-.05,2.1-.04.7-.09,1.39-.16,2.08-.07.66.41,1.24,1.07,1.31.66.06,1.24-.42,1.3-1.08h0ZM43.96,33.68c-.56.27-1.07.63-1.52,1.08l-10.47,10.47c-.54.54-.95,1.15-1.23,1.82-.28.67-.42,1.39-.42,2.15v36.23c0,1.55.63,2.96,1.65,3.97.93.93,2.19,1.54,3.59,1.64.1,1.39.7,2.65,1.64,3.59,1.02,1.02,2.43,1.65,3.97,1.65h0s5.54-.01,5.54-.01c.66,0,1.2-.54,1.2-1.2s-.54-1.2-1.2-1.2h-5.54s0,0,0,0c-.89,0-1.7-.36-2.28-.95-.5-.5-.83-1.15-.92-1.88h7.87c.66-.01,1.2-.55,1.2-1.21s-.54-1.2-1.2-1.2h-9.09s-.8.01-.8.01h0c-.89,0-1.7-.37-2.28-.95-.59-.59-.95-1.39-.95-2.28v-36.22c0-.22.02-.43.05-.63h7.36c1.55,0,2.96-.63,3.97-1.65,1.02-1.02,1.65-2.43,1.65-3.98v-7.36c.2-.04.41-.05.63-.05h22.44c.89,0,1.7.36,2.28.95.59.59.95,1.39.95,2.28h0v.69s0,.07,0,.11c0,.04,0,.07,0,.1l-.06,22.86c0,.66.54,1.2,1.2,1.2s1.2-.54,1.2-1.2l.06-21.74c.73.09,1.39.43,1.89.92.59.59.95,1.39.95,2.28h0l-.05,19.44c0,.66.54,1.2,1.2,1.2s1.2-.54,1.2-1.2l.05-19.44h0c0-1.55-.63-2.96-1.65-3.97-.93-.93-2.19-1.54-3.59-1.64-.1-1.39-.7-2.65-1.64-3.59-1.02-1.02-2.43-1.65-3.97-1.65h-22.43c-.76,0-1.48.14-2.15.41l-.07.03c-.07.02-.14.06-.21.09h0ZM43.36,37.23v5.72c0,.89-.36,1.7-.95,2.28-.59.59-1.39.95-2.28.95h-5.72l8.95-8.95ZM51.77,51.54c-.66,0-1.2-.54-1.2-1.2s.54-1.2,1.2-1.2l14.21-.04c.66,0,1.2.54,1.2,1.2s-.54,1.2-1.2,1.2l-14.21.04ZM38.68,59.63c-.66,0-1.2-.54-1.2-1.2s.54-1.2,1.2-1.2l27.3-.04c.66,0,1.2.54,1.2,1.2s-.54,1.2-1.2,1.2l-27.3.04ZM38.68,67.72l26.27-.04c.66,0,1.2-.54,1.2-1.2s-.54-1.2-1.2-1.2l-26.27.04c-.66,0-1.2.54-1.2,1.2s.54,1.2,1.2,1.2ZM38.68,75.81l12.13-.04c.66,0,1.2-.54,1.2-1.2s-.54-1.2-1.2-1.2l-12.13.04c-.66,0-1.2.54-1.2,1.2s.54,1.2,1.2,1.2ZM71.22,111.09h3.79c.26,0,.5-.11.68-.28s.28-.41.28-.68v-2.86c0-.15.01-.31.04-.48.02-.14.05-.29.09-.43.11-.42.43-.76.88-.87.8-.2,1.58-.45,2.33-.76.73-.3,1.44-.66,2.11-1.06.36-.26.86-.3,1.27-.07.14.08.28.16.41.26.13.1.25.21.36.32l2.02,2.02c.18.18.43.28.68.28s.49-.09.68-.28l2.68-2.68c.18-.18.28-.43.28-.68s-.09-.49-.28-.68l-2.02-2.02c-.11-.11-.21-.23-.31-.36-.1-.13-.18-.26-.26-.41h0c-.2-.36-.2-.82.02-1.2.42-.69.79-1.42,1.11-2.18.31-.75.57-1.53.76-2.33.1-.4.4-.74.83-.87.16-.05.32-.08.47-.1.17-.02.33-.04.48-.04h2.86c.26,0,.5-.11.68-.28s.28-.41.28-.68v-3.79c0-.26-.11-.5-.28-.68s-.41-.28-.68-.28h-2.87c-.15,0-.31-.01-.48-.04-.14-.02-.29-.05-.43-.09-.42-.11-.76-.43-.87-.88-.2-.8-.45-1.58-.76-2.33-.3-.73-.66-1.44-1.06-2.11-.26-.36-.3-.86-.07-1.27.08-.14.16-.28.26-.41.1-.13.21-.25.31-.36l2.02-2.02c.18-.18.28-.43.28-.68s-.09-.49-.28-.68l-2.68-2.68c-.18-.18-.43-.28-.68-.28s-.49.09-.68.28l-2.02,2.02c-.11.11-.23.21-.36.31-.13.1-.27.18-.41.26h0c-.36.2-.82.2-1.2-.03-.69-.42-1.42-.79-2.18-1.11-.75-.31-1.53-.57-2.33-.76-.4-.1-.74-.4-.87-.83-.05-.16-.08-.32-.1-.47-.02-.17-.04-.33-.04-.48v-2.86c0-.26-.11-.5-.28-.68-.17-.17-.41-.28-.68-.28h-3.79c-.26,0-.5.11-.68.28-.17.17-.28.41-.28.68v2.86c0,.15-.01.31-.04.48-.02.14-.05.29-.09.43-.11.42-.43.77-.88.87-.8.2-1.58.45-2.33.76-.73.3-1.44.66-2.11,1.06-.36.26-.86.3-1.27.07-.14-.08-.28-.16-.41-.26-.13-.1-.25-.21-.36-.31l-2.02-2.02c-.18-.18-.43-.28-.68-.28s-.49.09-.68.28l-2.68,2.68c-.18.18-.28.43-.28.68s.09.49.28.68l2.02,2.02c.11.11.21.23.31.36.1.13.18.26.26.41h0c.2.36.2.82-.02,1.2-.42.69-.79,1.42-1.11,2.18-.31.75-.57,1.53-.76,2.33-.1.4-.4.74-.83.87-.16.05-.32.08-.47.1-.17.02-.33.04-.48.04h-2.86c-.26,0-.5.11-.68.28-.17.17-.28.41-.28.68v3.79c0,.26.11.5.28.68.17.17.41.28.68.28h2.86c.15,0,.31.01.48.04.14.02.29.05.43.09.42.11.76.43.87.88.2.8.45,1.57.76,2.33.3.73.66,1.44,1.06,2.11.26.36.3.86.07,1.27-.08.14-.16.28-.26.41-.1.13-.21.25-.31.36l-2.02,2.02c-.18.18-.28.43-.28.68s.09.49.28.68l2.68,2.68c.18.18.43.28.68.28s.49-.09.68-.28l2.02-2.02c.11-.11.23-.21.36-.32.13-.1.26-.18.41-.26h0c.36-.2.82-.2,1.2.03.69.42,1.42.79,2.18,1.11.75.31,1.53.57,2.33.76.4.1.74.4.87.83.05.16.08.32.1.47.02.17.04.33.04.48v2.86c0,.26.11.5.28.68.18.18.42.29.68.29ZM73.12,98.57c2.42,0,4.61-.98,6.2-2.57,1.59-1.59,2.57-3.78,2.57-6.2s-.98-4.61-2.57-6.2c-1.59-1.59-3.78-2.57-6.2-2.57s-4.61.98-6.2,2.57c-1.59,1.59-2.57,3.78-2.57,6.2s.98,4.61,2.57,6.2c1.59,1.59,3.78,2.57,6.2,2.57ZM81.01,97.7c2.02-2.02,3.27-4.81,3.27-7.9s-1.25-5.88-3.27-7.9c-2.02-2.02-4.81-3.27-7.9-3.27s-5.88,1.25-7.9,3.27-3.27,4.81-3.27,7.9,1.25,5.88,3.27,7.9c2.02,2.02,4.81,3.27,7.9,3.27s5.88-1.25,7.9-3.27Z"/>
</svg>