<?xml version="1.0" encoding="UTF-8"?>
<svg xmlns="http://www.w3.org/2000/svg" viewBox="0 0 64 64" width="512" height="512"><g id="Artboard_01" data-name="Artboard 01"><path d="M59,11.1V3a2,2,0,0,0-2-2H7A2,2,0,0,0,5,3v8.1A5.009,5.009,0,0,0,1,16V48a5.006,5.006,0,0,0,5,5H18.017a16.893,16.893,0,0,0,7.93,2l-.667,2H17a3,3,0,0,0-3,3v2a1,1,0,0,0,1,1H49a1,1,0,0,0,1-1V60a3,3,0,0,0-3-3H38.72l-1.333-4H58a5.006,5.006,0,0,0,5-5V16A5.009,5.009,0,0,0,59,11.1ZM7,3H57V44H41.886a16.857,16.857,0,0,0,1.063-5H51l-1.6,1.2,1.2,1.6,4-3a1,1,0,0,0,0-1.6l-4-3-1.2,1.6L51,37H47V7a1,1,0,0,0-1-1H42a1,1,0,0,0-1,1V30.017a17.053,17.053,0,0,0-2-2.949V11a1,1,0,0,0-1-1H34a1,1,0,0,0-1,1V22.526a16.7,16.7,0,0,0-2-.773V15a1,1,0,0,0-1-1H26a1,1,0,0,0-1,1v6.051a16.853,16.853,0,0,0-2,.23V19a1,1,0,0,0-1-1H18a1,1,0,0,0-1,1v4.6a17.106,17.106,0,0,0-3,2.367V9l1.2,1.6,1.6-1.2-3-4a1.036,1.036,0,0,0-1.6,0l-3,4,1.6,1.2L12,9V28.378A16.85,16.85,0,0,0,10.114,44H7ZM43,37V8h2V37ZM37,12V25.062A16.988,16.988,0,0,0,35,23.6V12Zm-8,4v5.281a16.853,16.853,0,0,0-2-.23V16Zm-8,4v1.753a16.7,16.7,0,0,0-2,.773V20ZM3,16a3,3,0,0,1,2-2.816V44H3ZM6,51a3,3,0,0,1-3-3V46h8.008a17.115,17.115,0,0,0,4.06,5Zm5-13A15,15,0,1,1,26,53,15.017,15.017,0,0,1,11,38ZM36.613,57H27.387l.715-2.144A16.872,16.872,0,0,0,33.983,53h1.3ZM47,59a1,1,0,0,1,1,1v1H16V60a1,1,0,0,1,1-1ZM61,48a3,3,0,0,1-3,3H36.932a17.115,17.115,0,0,0,4.06-5H61Zm0-4H59V13.184A3,3,0,0,1,61,16Z"/><path d="M39,38A13,13,0,1,0,26,51,13.015,13.015,0,0,0,39,38ZM25,48.949A11.01,11.01,0,0,1,15.051,39H17V37H15.051A11.01,11.01,0,0,1,25,27.051V29h2V27.051A11.01,11.01,0,0,1,36.949,37H35v2h1.949A11.01,11.01,0,0,1,27,48.949V47H25Z"/><path d="M29,38a3,3,0,0,0-2-2.816V31H25v4.184A3,3,0,0,0,23,38a2.951,2.951,0,0,0,.3,1.285l-2.008,2.008,1.414,1.414L24.715,40.7A2.951,2.951,0,0,0,26,41,3,3,0,0,0,29,38Zm-3,1a1,1,0,1,1,1-1A1,1,0,0,1,26,39Z"/><rect x="49" y="12" width="6" height="2"/><rect x="49" y="16" width="6" height="2"/></g></svg>
