<svg height="512" viewBox="0 0 64 64" width="512" xmlns="http://www.w3.org/2000/svg"><g id="_20-Performance" data-name="20-Performance"><path d="m35 45h-32a3 3 0 0 1 -3-3v-38a3 3 0 0 1 3-3h58a3 3 0 0 1 3 3v36h-2v-36a1 1 0 0 0 -1-1h-58a1 1 0 0 0 -1 1v38a1 1 0 0 0 1 1h32z"/><path d="m35 55h-17a1 1 0 0 1 -1-1v-4a1 1 0 0 1 1-1h17v2h-16v2h16z"/><path d="m21 44h2v6h-2z"/><path d="m59 37h-1v-30h-10v-2h11a1 1 0 0 1 1 1v30a1 1 0 0 1 -1 1z"/><path d="m41 37h-36a1 1 0 0 1 -1-1v-30a1 1 0 0 1 1-1h35v2h-34v28h35z"/><path d="m53 63h-6a1 1 0 0 1 -1-1v-3.343l-2.364 2.364a1 1 0 0 1 -1.414 0l-4.243-4.243a1 1 0 0 1 0-1.414l2.364-2.364h-3.343a1 1 0 0 1 -1-1v-6a1 1 0 0 1 1-1h3.343l-2.364-2.364a1 1 0 0 1 0-1.414l4.243-4.243a1 1 0 0 1 1.414 0l2.364 2.364v-3.343a1 1 0 0 1 1-1h6a1 1 0 0 1 1 1v3.343l2.364-2.364a1 1 0 0 1 1.414 0l4.243 4.243a1 1 0 0 1 0 1.414l-2.364 2.364h3.343a1 1 0 0 1 1 1v6a1 1 0 0 1 -1 1h-3.343l2.364 2.364a1 1 0 0 1 0 1.414l-4.243 4.243a1 1 0 0 1 -1.414 0l-2.364-2.364v3.343a1 1 0 0 1 -1 1zm-5-2h4v-3.523a1 1 0 0 1 .667-.944 7.989 7.989 0 0 0 .775-.321 1 1 0 0 1 1.137.2l2.492 2.488 2.829-2.829-2.491-2.492a1 1 0 0 1 -.2-1.14 8.218 8.218 0 0 0 .322-.773 1 1 0 0 1 .946-.666h3.523v-4h-3.523a1 1 0 0 1 -.942-.666 8.218 8.218 0 0 0 -.322-.773 1 1 0 0 1 .2-1.14l2.487-2.492-2.829-2.829-2.492 2.491a1 1 0 0 1 -1.137.2 7.989 7.989 0 0 0 -.775-.321 1 1 0 0 1 -.667-.947v-3.523h-4v3.523a1 1 0 0 1 -.667.944 7.989 7.989 0 0 0 -.775.321 1 1 0 0 1 -1.137-.2l-2.492-2.488-2.829 2.829 2.491 2.492a1 1 0 0 1 .2 1.14 8.218 8.218 0 0 0 -.322.773 1 1 0 0 1 -.942.666h-3.527v4h3.523a1 1 0 0 1 .942.666 8.218 8.218 0 0 0 .322.773 1 1 0 0 1 -.2 1.14l-2.487 2.492 2.829 2.829 2.492-2.491a1 1 0 0 1 1.137-.2 7.989 7.989 0 0 0 .775.321 1 1 0 0 1 .667.944z"/><path d="m50 55a6 6 0 1 1 6-6 6.006 6.006 0 0 1 -6 6zm0-10a4 4 0 1 0 4 4 4 4 0 0 0 -4-4z"/><path d="m30 37h-22a1 1 0 0 1 -1-1c0-6.79 1.855-7.884 2.827-7.99l6.173-1.764v-2.246h2v3a1 1 0 0 1 -.725.962l-7 2a.879.879 0 0 1 -.1.022c-.141.11-1.033.961-1.161 5.016h19.97c-.128-4.055-1.02-4.906-1.161-5.016a.879.879 0 0 1 -.1-.022l-7-2a1 1 0 0 1 -.723-.962v-3h2v2.246l6.173 1.764c.972.106 2.827 1.2 2.827 7.99a1 1 0 0 1 -1 1z"/><path d="m19 30a1 1 0 0 1 -.707-.293l-2-2 1.414-1.414 1.293 1.293 1.293-1.293 1.414 1.414-2 2a1 1 0 0 1 -.707.293z"/><path d="m19 26a6.006 6.006 0 0 1 -6-6v-3a1 1 0 0 1 1-1c.04 0 4-.066 4-2a1 1 0 0 1 2 0c.01.185.207 2 4 2a1 1 0 0 1 1 1v3a6.006 6.006 0 0 1 -6 6zm-4-8.053v2.053a4 4 0 0 0 8 0v-2.041a5.868 5.868 0 0 1 -3.952-1.623 6.826 6.826 0 0 1 -4.048 1.611z"/><path d="m28 29h-2a70.282 70.282 0 0 0 -.557-8.7 53.292 53.292 0 0 1 -.443-6.3 6 6 0 0 0 -12 0 53.292 53.292 0 0 1 -.443 6.3 70.282 70.282 0 0 0 -.557 8.7h-2a72.966 72.966 0 0 1 .569-8.923 51.614 51.614 0 0 0 .431-6.077 8 8 0 0 1 16 0 51.614 51.614 0 0 0 .431 6.077 72.966 72.966 0 0 1 .569 8.923z"/><path d="m21 32a1 1 0 0 1 -.707-.293l-1.293-1.293-1.293 1.293a1 1 0 0 1 -1.414 0l-2-2a1 1 0 0 1 -.293-.707v-2h2v1.586l1 1 1.293-1.293a1 1 0 0 1 1.414 0l1.293 1.293 1-1v-1.586h2v2a1 1 0 0 1 -.293.707l-2 2a1 1 0 0 1 -.707.293z"/><path d="m12 28h2v8h-2z"/><path d="m24 28h2v8h-2z"/><path d="m38 33h-4a1 1 0 0 1 -1-1v-6a1 1 0 0 1 1-1h4a1 1 0 0 1 1 1v6a1 1 0 0 1 -1 1zm-3-2h2v-4h-2z"/><path d="m46 33h-4a1 1 0 0 1 -1-1v-12a1 1 0 0 1 1-1h4a1 1 0 0 1 1 1v12a1 1 0 0 1 -1 1zm-3-2h2v-10h-2z"/><path d="m54 33h-4a1 1 0 0 1 -1-1v-8a1 1 0 0 1 1-1h4a1 1 0 0 1 1 1v8a1 1 0 0 1 -1 1zm-3-2h2v-6h-2z"/><path d="m36 19a3 3 0 1 1 3-3 3 3 0 0 1 -3 3zm0-4a1 1 0 1 0 1 1 1 1 0 0 0 -1-1z"/><path d="m44 11a3 3 0 1 1 3-3 3 3 0 0 1 -3 3zm0-4a1 1 0 1 0 1 1 1 1 0 0 0 -1-1z"/><path d="m52 19a3 3 0 1 1 3-3 3 3 0 0 1 -3 3zm0-4a1 1 0 1 0 1 1 1 1 0 0 0 -1-1z"/><path d="m35.757 11h8.485v2h-8.485z" transform="matrix(.707 -.707 .707 .707 3.23 31.799)"/><path d="m47 7.757h2v8.485h-2z" transform="matrix(.707 -.707 .707 .707 5.574 37.456)"/><path d="m31.5 8.964h2v7.071h-2z" transform="matrix(.707 -.707 .707 .707 .68 26.642)"/></g></svg>