<?xml version="1.0"?>
<svg xmlns="http://www.w3.org/2000/svg" viewBox="0 0 64 64" width="512" height="512"><g id="News_Report-Coronavirus-Live-News-Virus" data-name="News Report-Coronavirus-Live-News-Virus"><rect x="13" y="6" width="2" height="2"/><rect x="17" y="6" width="2" height="2"/><rect x="21" y="6" width="2" height="2"/><path d="M56.06,51.71,53,50.35V49.9A5.017,5.017,0,0,0,57,45V44a3.009,3.009,0,0,0,3-3V39a2.986,2.986,0,0,0-1-2.22V35a9.9,9.9,0,0,0-2-5.97V15a5,5,0,0,0-5-5H51V7a5,5,0,0,0-5-5H14A5,5,0,0,0,9,7v3H8a5,5,0,0,0-5,5V45a5,5,0,0,0,5,5H21.87l-.75,6H20a3.009,3.009,0,0,0-3,3,3,3,0,0,0,3,3H61a1,1,0,0,0,1-1v-.15A10,10,0,0,0,56.06,51.71ZM53.8,52.89l-.46,2.3-1.65-1.33.78-1.56ZM49,47a5,5,0,0,1-5-5V39.93A7.718,7.718,0,0,0,45,40a10.362,10.362,0,0,0,4.39-1.08A8.622,8.622,0,0,1,53,38a5.022,5.022,0,0,1,1,.09V42A5,5,0,0,1,49,47Zm2,1.71v2.05l-2,4-2-4V48.71a7.042,7.042,0,0,0,4,0ZM45.53,52.3l.78,1.56-1.65,1.33-.46-2.3Zm-3.6-.59a10.072,10.072,0,0,0-3.29,2.38L38.13,50H45v.35ZM41,36V35a8.011,8.011,0,0,1,8-8v2a7.008,7.008,0,0,0-7,7Zm1,2v4H41a1,1,0,0,1-1-1V39a1,1,0,0,1,1-1Zm11,9.82v-.08a7.1,7.1,0,0,0,1.89-1.97A3.012,3.012,0,0,1,53,47.82ZM58,39v2a1,1,0,0,1-1,1H56V38h1A1,1,0,0,1,58,39ZM51,12h1a3.009,3.009,0,0,1,3,3V27.02a9.87,9.87,0,0,0-4-1.82Zm0,15.26A8.014,8.014,0,0,1,57,35v1H56a7.024,7.024,0,0,0-5-6.71ZM54,36v.07A7.718,7.718,0,0,0,53,36a10.362,10.362,0,0,0-4.39,1.08A8.622,8.622,0,0,1,45,38a5.022,5.022,0,0,1-1-.09V36a5,5,0,0,1,10,0ZM11,7a3.009,3.009,0,0,1,3-3H46a3.009,3.009,0,0,1,3,3v3H11Zm0,5H49V25A10.016,10.016,0,0,0,39,35v1.78A2.986,2.986,0,0,0,38,39v1H11ZM5,15a3.009,3.009,0,0,1,3-3H9V40H5ZM36.06,60H20a.949.949,0,0,1-.71-.31A.928.928,0,0,1,19,59a1,1,0,0,1,1-1H36.42A9.529,9.529,0,0,0,36.06,60ZM23.13,56l.75-6H36.12l.75,6ZM8,48a3.009,3.009,0,0,1-3-3V42H38.18A3.01,3.01,0,0,0,41,44h1.29A7.073,7.073,0,0,0,45,47.74V48ZM38.05,60a8,8,0,0,1,4.28-6.25l.69,3.45a1,1,0,0,0,.64.74A.974.974,0,0,0,44,58a1,1,0,0,0,.62-.22l2.61-2.09.88,1.76a1,1,0,0,0,1.78,0l.88-1.76,2.61,2.09A1,1,0,0,0,54,58a.974.974,0,0,0,.34-.06,1,1,0,0,0,.64-.74l.69-3.45A8,8,0,0,1,59.95,60Z"/><rect x="26" y="25" width="2" height="2"/><path d="M36,24a1.993,1.993,0,0,0-1.722,1H31.9a4.961,4.961,0,0,0-.732-1.753l1.686-1.686a2.016,2.016,0,0,0,.511.074,1.992,1.992,0,0,0,1.414-.585h0a2,2,0,1,0-3.34-.9l-1.686,1.686A4.961,4.961,0,0,0,28,21.1V18.722a2,2,0,1,0-2,0V21.1a4.961,4.961,0,0,0-1.753.732l-1.686-1.686a2,2,0,0,0-.511-1.925h0a2.013,2.013,0,1,0-.9,3.34l1.686,1.686A4.961,4.961,0,0,0,22.1,25H19.722a2,2,0,1,0,0,2H22.1a4.961,4.961,0,0,0,.732,1.753l-1.686,1.686a1.989,1.989,0,0,0-1.925.511h0a2,2,0,1,0,3.34.9l1.686-1.686A4.961,4.961,0,0,0,26,30.9v2.379a2,2,0,1,0,2,0V30.9a4.961,4.961,0,0,0,1.753-.732l1.686,1.686a2,2,0,0,0,.511,1.925h0a2,2,0,1,0,.9-3.339l-1.687-1.687A4.961,4.961,0,0,0,31.9,27h2.379A2,2,0,1,0,36,24Zm-9,5a3,3,0,1,1,3-3A3,3,0,0,1,27,29Z"/></g></svg>
