<?xml version="1.0" encoding="UTF-8" standalone="no"?>
<!-- Created with Inkscape (http://www.inkscape.org/) -->

<svg
   version="1.1"
   id="svg2151"
   xml:space="preserve"
   width="682.66669"
   height="682.66669"
   viewBox="0 0 682.66669 682.66669"
   xmlns="http://www.w3.org/2000/svg"
   xmlns:svg="http://www.w3.org/2000/svg"><defs
     id="defs2155"><clipPath
       clipPathUnits="userSpaceOnUse"
       id="clipPath2165"><path
         d="M 0,512 H 512 V 0 H 0 Z"
         id="path2163" /></clipPath></defs><g
     id="g2157"
     transform="matrix(1.3333333,0,0,-1.3333333,0,682.66667)"><g
       id="g2159"><g
         id="g2161"
         clip-path="url(#clipPath2165)"><g
           id="g2167"
           transform="translate(463.8887,179.2427)"><path
             d="m 0,0 c 24.749,20.818 40.516,52.008 40.611,86.908 0.088,32.238 -13.252,61.523 -34.869,82.361"
             style="fill:none;stroke:#000000;stroke-width:15;stroke-linecap:round;stroke-linejoin:round;stroke-miterlimit:10;stroke-dasharray:none;stroke-opacity:1"
             id="path2169" /></g><g
           id="g2171"
           transform="translate(47.9536,168.9565)"><path
             d="m 0,0 c 15.064,-10.361 33.28,-16.373 52.778,-16.354 h 289.751 c 15.7,-0.042 30.665,3.103 44.284,8.827"
             style="fill:none;stroke:#000000;stroke-width:15;stroke-linecap:round;stroke-linejoin:round;stroke-miterlimit:10;stroke-dasharray:none;stroke-opacity:1"
             id="path2173" /></g><g
           id="g2175"
           transform="translate(342.874,469.9219)"><path
             d="m 0,0 c -34.823,28.005 -81.391,40.825 -128.555,31.107 -71.9,-14.815 -123.605,-78.041 -123.935,-151.545 0,-3.502 0.144,-7.087 0.455,-10.88 -51.152,-5.422 -88.228,-51.338 -82.814,-102.558 1.726,-16.328 7.591,-31.299 16.483,-43.915"
             style="fill:none;stroke:#000000;stroke-width:15;stroke-linecap:round;stroke-linejoin:round;stroke-miterlimit:10;stroke-dasharray:none;stroke-opacity:1"
             id="path2177" /></g><path
           d="m 37.5,7.25 h -30 v 29.965 h 30 z"
           style="fill:none;stroke:#000000;stroke-width:15;stroke-linecap:round;stroke-linejoin:round;stroke-miterlimit:10;stroke-dasharray:none;stroke-opacity:1"
           id="path2179" /><path
           d="m 172.683,71.756 h -30 v 29.964 h 30 z"
           style="fill:none;stroke:#000000;stroke-width:15;stroke-linecap:round;stroke-linejoin:round;stroke-miterlimit:10;stroke-dasharray:none;stroke-opacity:1"
           id="path2181" /><g
           id="g2183"
           transform="translate(37.5,22.2324)"><path
             d="m 0,0 h 164.587 l -0.002,0.002 21.21,21.188 0.002,-0.002 v 161.129"
             style="fill:none;stroke:#000000;stroke-width:15;stroke-linecap:butt;stroke-linejoin:round;stroke-miterlimit:10;stroke-dasharray:none;stroke-opacity:1"
             id="path2185" /></g><g
           id="g2187"
           transform="translate(157.6831,101.7202)"><path
             d="M 0,0 V 102.83"
             style="fill:none;stroke:#000000;stroke-width:15;stroke-linecap:butt;stroke-linejoin:round;stroke-miterlimit:10;stroke-dasharray:none;stroke-opacity:1"
             id="path2189" /></g><g
           id="g2191"
           transform="translate(7.5,86.7378)"><path
             d="M 0,0 H 135.183"
             style="fill:none;stroke:#000000;stroke-width:15;stroke-linecap:round;stroke-linejoin:round;stroke-miterlimit:10;stroke-dasharray:none;stroke-opacity:1"
             id="path2193" /></g><path
           d="m 474.5,7.25 h 30 v 29.965 h -30 z"
           style="fill:none;stroke:#000000;stroke-width:15;stroke-linecap:round;stroke-linejoin:round;stroke-miterlimit:10;stroke-dasharray:none;stroke-opacity:1"
           id="path2195" /><path
           d="m 339.317,71.755 h 30 v 29.964 h -30 z"
           style="fill:none;stroke:#000000;stroke-width:15;stroke-linecap:round;stroke-linejoin:round;stroke-miterlimit:10;stroke-dasharray:none;stroke-opacity:1"
           id="path2197" /><g
           id="g2199"
           transform="translate(354.3174,101.7197)"><path
             d="M 0,0 V 102.83"
             style="fill:none;stroke:#000000;stroke-width:15;stroke-linecap:butt;stroke-linejoin:round;stroke-miterlimit:10;stroke-dasharray:none;stroke-opacity:1"
             id="path2201" /></g><g
           id="g2203"
           transform="translate(504.5,86.7373)"><path
             d="M 0,0 H -135.183"
             style="fill:none;stroke:#000000;stroke-width:15;stroke-linecap:round;stroke-linejoin:round;stroke-miterlimit:10;stroke-dasharray:none;stroke-opacity:1"
             id="path2205" /></g><g
           id="g2207"
           transform="translate(188.2593,293.0186)"><path
             d="m 0,0 h 212.741 v -88.469 h -290 V 0 h 42.673"
             style="fill:none;stroke:#000000;stroke-width:15;stroke-linecap:round;stroke-linejoin:round;stroke-miterlimit:10;stroke-dasharray:none;stroke-opacity:1"
             id="path2209" /></g><path
           d="m 171.126,233.802 h -30 v 29.965 h 30 z"
           style="fill:none;stroke:#000000;stroke-width:15;stroke-linecap:round;stroke-linejoin:round;stroke-miterlimit:10;stroke-dasharray:none;stroke-opacity:1"
           id="path2211" /><path
           d="m 231.126,233.802 h -30 v 29.965 h 30 z"
           style="fill:none;stroke:#000000;stroke-width:15;stroke-linecap:round;stroke-linejoin:round;stroke-miterlimit:10;stroke-dasharray:none;stroke-opacity:1"
           id="path2213" /><g
           id="g2215"
           transform="translate(474.5,22.2324)"><path
             d="m 0,0 h -164.587 l 10e-4,0.002 -21.209,21.188 -0.002,-0.002 v 161.129"
             style="fill:none;stroke:#000000;stroke-width:15;stroke-linecap:butt;stroke-linejoin:round;stroke-miterlimit:10;stroke-dasharray:none;stroke-opacity:1"
             id="path2217" /></g><g
           id="g2219"
           transform="translate(373.9717,352.3071)"><path
             d="m 0,0 c 13.341,-14.094 30.462,-24.774 50.095,-30.362 47.599,13.548 80.433,57.031 80.433,106.521 v 52.891 c -47.264,0 -80.433,22.893 -80.433,22.893 0,0 -33.168,-22.893 -80.434,-22.893 V 76.159 c 0,-16.83 3.797,-32.966 10.681,-47.465"
             style="fill:none;stroke:#000000;stroke-width:15;stroke-linecap:round;stroke-linejoin:round;stroke-miterlimit:10;stroke-dasharray:none;stroke-opacity:1"
             id="path2221" /></g><g
           id="g2223"
           transform="translate(474.5,428.4663)"><path
             d="m 0,0 c 0,-32.98 -20.353,-62.617 -50.434,-74.84 -30.081,12.223 -50.433,41.859 -50.433,74.84 v 25.399 c 21.304,3.572 38.625,10.323 50.433,16.045 C -38.625,35.722 -21.304,28.971 0,25.399 Z"
             style="fill:none;stroke:#000000;stroke-width:15;stroke-linecap:round;stroke-linejoin:round;stroke-miterlimit:10;stroke-dasharray:none;stroke-opacity:1"
             id="path2225" /></g><g
           id="g2227"
           transform="translate(166,389.9595)"><path
             d="M 0,0 V -51.916"
             style="fill:none;stroke:#000000;stroke-width:15;stroke-linecap:round;stroke-linejoin:round;stroke-miterlimit:10;stroke-dasharray:none;stroke-opacity:1"
             id="path2229" /></g><path
           d="m 226,338.043 h -30 v 51.916 h 30 z"
           style="fill:none;stroke:#000000;stroke-width:15;stroke-linecap:round;stroke-linejoin:round;stroke-miterlimit:10;stroke-dasharray:none;stroke-opacity:1"
           id="path2231" /><g
           id="g2233"
           transform="translate(256,389.9595)"><path
             d="M 0,0 V -51.916"
             style="fill:none;stroke:#000000;stroke-width:15;stroke-linecap:round;stroke-linejoin:round;stroke-miterlimit:10;stroke-dasharray:none;stroke-opacity:1"
             id="path2235" /></g><path
           d="m 316,338.043 h -30 v 51.916 h 30 z"
           style="fill:none;stroke:#000000;stroke-width:15;stroke-linecap:round;stroke-linejoin:round;stroke-miterlimit:10;stroke-dasharray:none;stroke-opacity:1"
           id="path2237" /><g
           id="g2239"
           transform="translate(271.6201,248.7842)"><path
             d="M 0,0 V 0"
             style="fill:none;stroke:#000000;stroke-width:15;stroke-linecap:round;stroke-linejoin:round;stroke-miterlimit:10;stroke-dasharray:none;stroke-opacity:1"
             id="path2241" /></g><g
           id="g2243"
           transform="translate(315.1201,248.7842)"><path
             d="M 0,0 V 0"
             style="fill:none;stroke:#000000;stroke-width:15;stroke-linecap:round;stroke-linejoin:round;stroke-miterlimit:10;stroke-dasharray:none;stroke-opacity:1"
             id="path2245" /></g><g
           id="g2247"
           transform="translate(358.6201,248.7842)"><path
             d="M 0,0 V 0"
             style="fill:none;stroke:#000000;stroke-width:15;stroke-linecap:round;stroke-linejoin:round;stroke-miterlimit:10;stroke-dasharray:none;stroke-opacity:1"
             id="path2249" /></g></g></g></g></svg>
