<svg id="Layer_1" viewBox="0 0 64 64" xmlns="http://www.w3.org/2000/svg" data-name="Layer 1"><path d="m37 35h4v2h-4z"/><path d="m43 35h4v2h-4z"/><path d="m49 35h4v2h-4z"/><path d="m3 43h8.53l1.47 4.37 3 7.82v5.81a1 1 0 0 0 1 1h14a1 1 0 0 0 1-1v-5.84l2-5.84a1.19 1.19 0 0 0 0-.32v-6h1v12a1 1 0 0 0 1 1h6.7l-2.37 4.54a1 1 0 0 0 .89 1.46 1 1 0 0 0 .54-.16l9.14-5.84h9.1a1 1 0 0 0 1-1v-12a1 1 0 0 0 .9-.56 1 1 0 0 0 -.11-1l-.79-1v-.44a1 1 0 0 0 -1-1h-.07l-4.93-6.34v-29.66a1 1 0 0 0 -1-1h-44a1 1 0 0 0 -1 1v29.66l-6.79 8.73a1 1 0 0 0 -.11 1 1 1 0 0 0 .9.61zm27 17h-12v-4h12zm2-11.16-1.72 5.16h-12.6l-2.84-7.3-2.6-8-.07-.23-1 .29.95-.32a1.17 1.17 0 0 1 .05-.92.88.88 0 0 1 .56-.49.57.57 0 0 1 .27-.03 1.15 1.15 0 0 1 1 .82l1.95 6v.18h2v-17.85a1.1 1.1 0 0 1 1.05-1.15 1.1 1.1 0 0 1 1 1.15v14.85h2v-6a1 1 0 0 1 2 0v8h2v-6a1.09 1.09 0 0 1 .13-.5 1 1 0 0 1 1.87.5v8h2v-6a1 1 0 0 1 2 0zm-12-26.84v-2.9a5 5 0 0 1 2 8.9v-1.85a3 3 0 1 0 -6 0v1.85a5 5 0 0 1 2-8.9v2.9zm39 32h-8.39a1 1 0 0 0 -.54.16l-6.23 4 1.39-2.68a1 1 0 0 0 -.88-1.48h-7.35v-13h22v.06zm-23-15a1 1 0 0 0 -1 1v1h-1v-2a3 3 0 0 0 -.78-2h1.78v-2h-4v1a2.88 2.88 0 0 0 -1.1.22 2.57 2.57 0 0 0 -.31-.72 2.91 2.91 0 0 0 -3.7-1.26c0-.08-.05-.16-.07-.24h27.69l3.89 5zm-25-35h42v28h-30a3 3 0 0 0 -1 .18v-1.88a7 7 0 1 0 -6 0v1.7h-5zm-.51 30h5.51v3.34-.14l-.95.3.95-.32a3.16 3.16 0 0 0 -3-2.18 2.57 2.57 0 0 0 -.9.15 2.93 2.93 0 0 0 -1.68 1.49 3.17 3.17 0 0 0 -.16 2.42l.62 1.94h-5.88z"/><path d="m34.49 14.92 9.71-1.92a1 1 0 0 0 .57-.34l3.23-3.9v2.24h2v-5a1 1 0 0 0 -.12-.5 1 1 0 0 0 -1-.49l-6 1 .32 2 3.35-.56-3 3.66-9.75 1.89a1 1 0 0 0 -.51.27l-6 6 1.42 1.42z"/><path d="m36 20h-3a1 1 0 0 0 -1 1v8a1 1 0 0 0 1 1h3a1 1 0 0 0 1-1v-8a1 1 0 0 0 -1-1zm-1 8h-1v-6h1z"/><path d="m43 16h-3a1 1 0 0 0 -1 1v12a1 1 0 0 0 1 1h3a1 1 0 0 0 1-1v-12a1 1 0 0 0 -1-1zm-1 12h-1v-10h1z"/><path d="m47 12a1 1 0 0 0 -1 1v16a1 1 0 0 0 1 1h3a1 1 0 0 0 1-1v-16a1 1 0 0 0 -1-1zm2 16h-1v-14h1z"/><path d="m41 44a3 3 0 1 0 3 3 3 3 0 0 0 -3-3zm0 4a1 1 0 1 1 1-1 1 1 0 0 1 -1 1z"/><path d="m48 44a3 3 0 1 0 3 3 3 3 0 0 0 -3-3zm0 4a1 1 0 1 1 1-1 1 1 0 0 1 -1 1z"/><path d="m55 44a3 3 0 1 0 3 3 3 3 0 0 0 -3-3zm0 4a1 1 0 1 1 1-1 1 1 0 0 1 -1 1z"/></svg>