<svg id="Icon" height="512" viewBox="0 0 64 64" width="512" xmlns="http://www.w3.org/2000/svg"><path d="m61 19.94043c.55273 0 1-.44727 1-1v-13.94043c0-1.6543-1.3457-3-3-3h-54c-1.6543 0-3 1.3457-3 3v36c0 1.6543 1.3457 3 3 3h20.57037l-5.91852 15.35938c-.19824.51367-.77881.76953-1.29199.57422-.51465-.19922-.77197-.7793-.57373-1.29395l4.4165-11.46191c.19873-.51563-.05811-1.09375-.57373-1.29297-.51367-.19629-1.09424.05859-1.29248.57422l-4.4165 11.46191c-.59473 1.54297.17676 3.2832 1.72119 3.87891 1.50481.59033 3.28355-.16334 3.87695-1.72168l1.95679-5.07813h17.04999l1.9566 5.07813c.59272 1.55753 2.3737 2.31143 3.87891 1.7207 1.54199-.59473 2.31348-2.33398 1.7207-3.87793l-5.36566-13.9209h16.28461c1.6543 0 3-1.3457 3-3v-18c0-.55273-.44727-1-1-1s-1 .44727-1 1v12.94043h-56v-30.94043c0-.55176.44873-1 1-1h54c.55176 0 1 .44824 1 1v13.94043c0 .55273.44727 1 1 1zm-24.71338 24.05957 1.92645 5h-12.42621l1.9267-5zm-12.04108 9 .77063-2h13.96753l.77057 2zm21.96832 5.63867c.19824.51563-.05957 1.0957-.57227 1.29395-.51367.2002-1.09473-.05762-1.29297-.57324l-5.91791-15.35938h2.14233l5.64081 14.63867zm13.78613-20.69824v3.05957c0 .55176-.44824 1-1 1h-53.99999c-.55127 0-1-.44824-1-1v-3.05957h56z"/><path d="m12.24951 16.0957c.19531.19531.45117.29297.70703.29297s.51172-.09766.70703-.29297l1.40039-1.40009 1.40039 1.40009c.19531.19531.45117.29297.70703.29297s.51172-.09766.70703-.29297c.39063-.39063.39063-1.02344 0-1.41406l-1.40021-1.3999 1.40021-1.3999c.39063-.39063.39063-1.02344 0-1.41406s-1.02344-.39063-1.41406 0l-1.40039 1.40009-1.40039-1.40009c-.39063-.39063-1.02344-.39063-1.41406 0s-.39063 1.02344 0 1.41406l1.40021 1.3999-1.40021 1.3999c-.39063.39063-.39063 1.02344 0 1.41406z"/><path d="m46.12207 16.0957c.19531.19531.45117.29297.70703.29297s.51172-.09766.70703-.29297l1.3999-1.3999 1.3999 1.3999c.19531.19531.45117.29297.70703.29297s.51172-.09766.70703-.29297c.39063-.39063.39063-1.02344 0-1.41406l-1.3999-1.3999 1.3999-1.3999c.39063-.39063.39063-1.02344 0-1.41406s-1.02344-.39063-1.41406 0l-1.3999 1.3999-1.3999-1.3999c-.39063-.39063-1.02344-.39063-1.41406 0s-.39063 1.02344 0 1.41406l1.3999 1.3999-1.3999 1.3999c-.39063.39063-.39063 1.02344 0 1.41406z"/><path d="m34.81445 23.84473c-.39063-.39063-1.02344-.39063-1.41406 0l-1.40039 1.40039-1.40039-1.40039c-.39063-.39063-1.02344-.39063-1.41406 0s-.39063 1.02344 0 1.41406l1.40039 1.40039-1.40039 1.40039c-.39063.39063-.39063 1.02344 0 1.41406.19531.19531.45117.29297.70703.29297s.51172-.09766.70703-.29297l1.40039-1.40039 1.40039 1.40039c.19531.19531.45117.29297.70703.29297s.51172-.09766.70703-.29297c.39063-.39063.39063-1.02344 0-1.41406l-1.40039-1.40039 1.40039-1.40039c.39063-.39063.39063-1.02344 0-1.41406z"/><path d="m48.93555 30.65918c2.20605 0 4-1.79395 4-4s-1.79395-4-4-4c-.79535 0-1.53302.23956-2.15643.64117l-11.2652-8.14716c.30005-.56091.48608-1.19147.48608-1.87097 0-2.20605-1.79395-4-4-4-2.20557 0-4 1.79395-4 4 0 .67944.1861 1.31.48615 1.87091l-11.26556 8.14746c-.62354-.40173-1.36127-.64142-2.15662-.64142-2.20557 0-4 1.79395-4 4s1.79443 4 4 4 4-1.79395 4-4c0-.67963-.18622-1.31036-.48639-1.8714l11.26532-8.14728c.62366.40192 1.36157.64172 2.1571.64172.79565 0 1.53357-.23969 2.15717-.6416l11.26483 8.14691c-.30023.5611-.48645 1.19189-.48645 1.87164 0 2.20605 1.79395 4 4 4zm2-4c0 1.10254-.89746 2-2 2s-2-.89746-2-2 .89746-2 2-2 2 .89746 2 2zm-35.87158 2c-1.10303 0-2-.89746-2-2s.89697-2 2-2 2 .89746 2 2-.89697 2-2 2zm14.93604-15.37695c0-1.10254.89697-2 2-2 1.10254 0 2 .89746 2 2s-.89746 2-2 2c-1.10303 0-2-.89746-2-2z"/></svg>