<?xml version="1.0"?>
<svg xmlns="http://www.w3.org/2000/svg" id="Icons" viewBox="0 0 60 60"><title/><path d="M15.828,0a2.982,2.982,0,0,0-2.121.879L7.879,6.707A2.978,2.978,0,0,0,7,8.828V57a3,3,0,0,0,3,3H50a3,3,0,0,0,3-3V3a3,3,0,0,0-3-3ZM14,3.414V6a1,1,0,0,1-1,1H10.414ZM51,3V57a1,1,0,0,1-1,1H10a1,1,0,0,1-1-1V9h4a3,3,0,0,0,3-3V2H50A1,1,0,0,1,51,3Z"/><path d="M48,50H47a4,4,0,0,0-3-3.858V37.816a3,3,0,1,0-2.029-.009C41.454,38.647,38.838,42,30,42s-11.454-3.353-11.971-4.193A3,3,0,1,0,16,37.816v8.326A4,4,0,0,0,13,50H12a1,1,0,0,0,0,2H48a1,1,0,0,0,0-2ZM43,34a1,1,0,1,1-1,1A1,1,0,0,1,43,34ZM17,34a1,1,0,1,1-1,1A1,1,0,0,1,17,34ZM15,50a2,2,0,0,1,4,0Zm6,0a4,4,0,0,0-3-3.858V40.716C19.881,42.262,23.448,44,30,44s10.119-1.738,12-3.284v5.426A4,4,0,0,0,39,50Zm20,0a2,2,0,0,1,4,0Z"/><path d="M42,54H18a1,1,0,0,0,0,2H42a1,1,0,0,0,0-2Z"/><path d="M26.09,28.114a4.019,4.019,0,1,0,2,.056c.468-6,2.642-13.777,9.909-18.937V11a1,1,0,0,0,2,0V7a1,1,0,0,0-1-1H35a1,1,0,0,0,0,2h1.294C28.8,13.623,26.564,21.813,26.09,28.114ZM29,32a2,2,0,1,1-2-2A2,2,0,0,1,29,32Z"/><path d="M37.707,22.293a1,1,0,0,0-1.414,0l-.793.793-.793-.793a1,1,0,0,0-1.414,1.414l.793.793-.793.793a1,1,0,1,0,1.414,1.414l.793-.793.793.793a1,1,0,0,0,1.414-1.414l-.793-.793.793-.793A1,1,0,0,0,37.707,22.293Z"/><path d="M18.293,20.707a1,1,0,0,0,1.414,0l.793-.793.793.793a1,1,0,0,0,1.414-1.414l-.793-.793.793-.793a1,1,0,0,0-1.414-1.414l-.793.793-.793-.793a1,1,0,0,0-1.414,1.414l.793.793-.793.793A1,1,0,0,0,18.293,20.707Z"/><path d="M26,14a3,3,0,1,0-3-3A3,3,0,0,0,26,14Zm0-4a1,1,0,1,1-1,1A1,1,0,0,1,26,10Z"/></svg>
