<?xml version="1.0" encoding="UTF-8" standalone="no"?>
<!-- Created with Inkscape (http://www.inkscape.org/) -->

<svg
   version="1.1"
   id="svg7572"
   xml:space="preserve"
   width="682.66669"
   height="682.66669"
   viewBox="0 0 682.66669 682.66669"
   xmlns="http://www.w3.org/2000/svg"
   xmlns:svg="http://www.w3.org/2000/svg"><defs
     id="defs7576"><clipPath
       clipPathUnits="userSpaceOnUse"
       id="clipPath7590"><path
         d="M 0,512 H 512 V 0 H 0 Z"
         id="path7588" /></clipPath></defs><g
     id="g7578"
     transform="matrix(1.3333333,0,0,-1.3333333,0,682.66667)"><g
       id="g7580"
       transform="translate(170.209,142.1221)"><path
         d="M 0,0 V -22.044"
         style="fill:none;stroke:#000000;stroke-width:15;stroke-linecap:round;stroke-linejoin:round;stroke-miterlimit:10;stroke-dasharray:none;stroke-opacity:1"
         id="path7582" /></g><g
       id="g7584"><g
         id="g7586"
         clip-path="url(#clipPath7590)"><g
           id="g7592"
           transform="translate(250.8906,142.1221)"><path
             d="m 0,0 v -23.631 c 0,-10.451 -8.472,-18.923 -18.923,-18.923 -10.451,0 -18.924,8.472 -18.924,18.923 V 0"
             style="fill:none;stroke:#000000;stroke-width:15;stroke-linecap:round;stroke-linejoin:round;stroke-miterlimit:10;stroke-dasharray:none;stroke-opacity:1"
             id="path7594" /></g><g
           id="g7596"
           transform="translate(293.7256,61.1104)"><path
             d="M 0,0 V 81.012"
             style="fill:none;stroke:#000000;stroke-width:15;stroke-linecap:round;stroke-linejoin:round;stroke-miterlimit:10;stroke-dasharray:none;stroke-opacity:1"
             id="path7598" /></g><g
           id="g7600"
           transform="translate(170.209,83.7891)"><path
             d="M 0,0 V -22.679"
             style="fill:none;stroke:#000000;stroke-width:15;stroke-linecap:round;stroke-linejoin:round;stroke-miterlimit:10;stroke-dasharray:none;stroke-opacity:1"
             id="path7602" /></g><g
           id="g7604"
           transform="translate(170.4844,295.5605)"><path
             d="M 0,0 43.58,23.891 101.572,-20.928 230.656,81.76 h 55.291"
             style="fill:none;stroke:#000000;stroke-width:15;stroke-linecap:round;stroke-linejoin:round;stroke-miterlimit:10;stroke-dasharray:none;stroke-opacity:1"
             id="path7606" /></g><g
           id="g7608"
           transform="translate(7.5098,206.2187)"><path
             d="M 0,0 44.129,24.191"
             style="fill:none;stroke:#000000;stroke-width:15;stroke-linecap:round;stroke-linejoin:round;stroke-miterlimit:10;stroke-dasharray:none;stroke-opacity:1"
             id="path7610" /></g><g
           id="g7612"
           transform="translate(456.4336,265.4229)"><path
             d="M 0,0 V 31.949"
             style="fill:none;stroke:#000000;stroke-width:15;stroke-linecap:round;stroke-linejoin:round;stroke-miterlimit:10;stroke-dasharray:none;stroke-opacity:1"
             id="path7614" /></g><g
           id="g7616"
           transform="translate(80.4219,450.8857)"><path
             d="m 0,0 h -49.881 c -12.723,0 -23.036,-10.313 -23.036,-23.035 v -260.419 c 0,-12.723 10.313,-23.036 23.036,-23.036 h 301.663"
             style="fill:none;stroke:#000000;stroke-width:15;stroke-linecap:round;stroke-linejoin:round;stroke-miterlimit:10;stroke-dasharray:none;stroke-opacity:1"
             id="path7618" /></g><g
           id="g7620"
           transform="translate(456.4336,333.6621)"><path
             d="m 0,0 v 94.188 c 0,12.722 -10.313,23.036 -23.035,23.036 h -316.688"
             style="fill:none;stroke:#000000;stroke-width:15;stroke-linecap:round;stroke-linejoin:round;stroke-miterlimit:10;stroke-dasharray:none;stroke-opacity:1"
             id="path7622" /></g><g
           id="g7624"
           transform="translate(7.5049,191.6162)"><path
             d="M 0,0 H 294.256"
             style="fill:none;stroke:#000000;stroke-width:15;stroke-linecap:round;stroke-linejoin:round;stroke-miterlimit:10;stroke-dasharray:none;stroke-opacity:1"
             id="path7626" /></g><g
           id="g7628"
           transform="translate(122.6846,61.1152)"><path
             d="M 0,0 H 218.569"
             style="fill:none;stroke:#000000;stroke-width:15;stroke-linecap:round;stroke-linejoin:round;stroke-miterlimit:10;stroke-dasharray:none;stroke-opacity:1"
             id="path7630" /></g><g
           id="g7632"
           transform="translate(387.5996,418.9619)"><path
             d="M 0,0 H 20.65"
             style="fill:none;stroke:#000000;stroke-width:15;stroke-linecap:round;stroke-linejoin:round;stroke-miterlimit:10;stroke-dasharray:none;stroke-opacity:1"
             id="path7634" /></g><g
           id="g7636"
           transform="translate(94.6445,418.9619)"><path
             d="M 0,0 V -0.103"
             style="fill:none;stroke:#000000;stroke-width:15;stroke-linecap:round;stroke-linejoin:round;stroke-miterlimit:10;stroke-dasharray:none;stroke-opacity:1"
             id="path7638" /></g><g
           id="g7640"
           transform="translate(72.1836,418.8975)"><path
             d="M 0,0 V -0.103"
             style="fill:none;stroke:#000000;stroke-width:15;stroke-linecap:round;stroke-linejoin:round;stroke-miterlimit:10;stroke-dasharray:none;stroke-opacity:1"
             id="path7642" /></g><g
           id="g7644"
           transform="translate(49.7227,418.834)"><path
             d="M 0,0 V -0.104"
             style="fill:none;stroke:#000000;stroke-width:15;stroke-linecap:round;stroke-linejoin:round;stroke-miterlimit:10;stroke-dasharray:none;stroke-opacity:1"
             id="path7646" /></g><g
           id="g7648"
           transform="translate(504.4961,185.041)"><path
             d="m 0,0 v 13.151 c 0,2.503 -1.589,4.731 -3.955,5.546 l -21.311,7.343 c -1.818,7.009 -4.584,13.637 -8.17,19.727 l 9.876,20.259 c 1.097,2.25 0.645,4.949 -1.125,6.718 l -9.299,9.3 c -1.77,1.769 -4.468,2.222 -6.718,1.125 l -20.26,-9.876 c -6.093,3.587 -12.718,6.366 -19.73,8.184 l -7.339,21.296 c -0.816,2.367 -3.043,3.956 -5.546,3.956 h -13.152 c -2.503,0 -4.73,-1.589 -5.545,-3.956 l -7.339,-21.296 c -7.013,-1.818 -13.634,-4.6 -19.726,-8.186 l -20.265,9.878 c -2.25,1.097 -4.949,0.644 -6.718,-1.125 l -9.3,-9.3 c -1.77,-1.769 -2.222,-4.468 -1.125,-6.718 l 9.878,-20.264 c -3.586,-6.092 -6.369,-12.714 -8.186,-19.727 l -21.297,-7.338 c -2.366,-0.815 -3.955,-3.043 -3.955,-5.546 V 0 c 0,-2.504 1.589,-4.73 3.955,-5.546 l 21.311,-7.344 c 1.818,-7.008 4.585,-13.635 8.17,-19.726 l -9.876,-20.26 c -1.097,-2.25 -0.645,-4.948 1.125,-6.718 l 9.3,-9.3 c 1.769,-1.769 4.468,-2.221 6.718,-1.125 l 20.259,9.876 c 6.093,-3.586 12.718,-6.366 19.732,-8.182 l 7.339,-21.298 c 0.815,-2.366 3.042,-3.955 5.545,-3.955 h 13.152 c 2.503,0 4.73,1.589 5.546,3.955 l 7.339,21.298 c 7.011,1.816 13.633,4.598 19.725,8.184 l 20.265,-9.878 c 2.25,-1.096 4.948,-0.644 6.718,1.125 l 9.299,9.3 c 1.77,1.77 2.222,4.468 1.125,6.718 l -9.878,20.265 c 3.586,6.091 6.37,12.714 8.186,19.726 l 21.297,7.339 C -1.589,-4.73 0,-2.504 0,0 Z"
             style="fill:none;stroke:#000000;stroke-width:15;stroke-linecap:round;stroke-linejoin:round;stroke-miterlimit:10;stroke-dasharray:none;stroke-opacity:1"
             id="path7650" /></g><g
           id="g7652"
           transform="translate(453.8379,191.6172)"><path
             d="m 0,0 c 0,-27.336 -22.159,-49.495 -49.495,-49.495 -27.335,0 -49.495,22.159 -49.495,49.495 0,27.336 22.16,49.495 49.495,49.495 C -22.159,49.495 0,27.336 0,0 Z"
             style="fill:none;stroke:#000000;stroke-width:15;stroke-linecap:round;stroke-linejoin:round;stroke-miterlimit:10;stroke-dasharray:none;stroke-opacity:1"
             id="path7654" /></g><g
           id="g7656"
           transform="translate(427.4873,191.6172)"><path
             d="m 0,0 c 0,-12.782 -10.362,-23.145 -23.145,-23.145 -12.782,0 -23.143,10.363 -23.143,23.145 0,12.782 10.361,23.145 23.143,23.145 C -10.362,23.145 0,12.782 0,0 Z"
             style="fill:none;stroke:#000000;stroke-width:15;stroke-linecap:round;stroke-linejoin:round;stroke-miterlimit:10;stroke-dasharray:none;stroke-opacity:1"
             id="path7658" /></g><g
           id="g7660"
           transform="translate(114.9287,295.9238)"><path
             d="m 0,0 -13.786,-53.808 c -0.476,-1.856 0.131,-3.823 1.57,-5.088 l 16.61,-14.602 c 1.922,-1.69 4.801,-1.69 6.724,0 l 16.61,14.602 c 1.439,1.265 2.046,3.232 1.571,5.088 L 15.227,1.115"
             style="fill:none;stroke:#000000;stroke-width:15;stroke-linecap:round;stroke-linejoin:round;stroke-miterlimit:10;stroke-dasharray:none;stroke-opacity:1"
             id="path7662" /></g><g
           id="g7664"
           transform="translate(143.9316,301.8262)"><path
             d="m 0,0 c 26.674,0 48.298,-21.623 48.298,-48.298 v -61.912 h -139.09 v 61.912 C -90.792,-21.623 -69.168,0 -42.493,0"
             style="fill:none;stroke:#000000;stroke-width:15;stroke-linecap:round;stroke-linejoin:round;stroke-miterlimit:10;stroke-dasharray:none;stroke-opacity:1"
             id="path7666" /></g><g
           id="g7668"
           transform="translate(122.6846,297.5664)"><path
             d="m 0,0 v 0 c 21.746,0 39.375,17.628 39.375,39.374 v 14.214 c 0,21.746 -17.629,39.375 -39.375,39.375 -21.746,0 -39.374,-17.629 -39.374,-39.375 V 39.374 C -39.374,17.628 -21.746,0 0,0 Z"
             style="fill:none;stroke:#000000;stroke-width:15;stroke-linecap:round;stroke-linejoin:round;stroke-miterlimit:10;stroke-dasharray:none;stroke-opacity:1"
             id="path7670" /></g><g
           id="g7672"
           transform="translate(212.8213,376.4795)"><path
             d="M 0,0 8.266,-8.266 34.189,17.658"
             style="fill:none;stroke:#000000;stroke-width:15;stroke-linecap:round;stroke-linejoin:round;stroke-miterlimit:10;stroke-dasharray:none;stroke-opacity:1"
             id="path7674" /></g><g
           id="g7676"
           transform="translate(247.0107,372.7666)"><path
             d="m 0,0 c 0,-16.116 -13.064,-29.181 -29.181,-29.181 -16.115,0 -29.179,13.065 -29.179,29.181 0,16.116 13.064,29.181 29.179,29.181 C -13.064,29.181 0,16.116 0,0 Z"
             style="fill:none;stroke:#000000;stroke-width:15;stroke-linecap:round;stroke-linejoin:round;stroke-miterlimit:10;stroke-dasharray:none;stroke-opacity:1"
             id="path7678" /></g></g></g></g></svg>
