<?xml version="1.0"?>
<svg xmlns="http://www.w3.org/2000/svg" id="Layer_1" data-name="Layer 1" viewBox="0 0 512 512"><defs><style>.cls-1{fill-rule:evenodd;}</style></defs><path class="cls-1" d="M145.54,165a7.28,7.28,0,0,1-10.29,10.29l-7.87-7.88-7.88,7.88A7.27,7.27,0,0,1,109.22,165l7.87-7.87-7.87-7.88A7.27,7.27,0,0,1,119.5,139l7.88,7.87,7.87-7.87a7.27,7.27,0,0,1,10.29,10.28l-7.88,7.88,7.88,7.87Zm46.84-63.2a7.28,7.28,0,1,1-10.29,10.29l-7.88-7.88-7.87,7.88a7.28,7.28,0,1,1-10.29-10.29l7.88-7.87-7.88-7.88a7.27,7.27,0,1,1,10.29-10.28l7.87,7.87,7.88-7.87a7.27,7.27,0,1,1,10.29,10.28l-7.88,7.88,7.88,7.87Zm92.23,95.75a7.27,7.27,0,1,1-10.28,10.29L266.45,200l-7.87,7.88a7.28,7.28,0,0,1-10.29-10.29l7.88-7.87-7.88-7.88a7.27,7.27,0,0,1,10.29-10.28l7.87,7.87,7.88-7.87a7.27,7.27,0,1,1,10.28,10.28l-7.87,7.88,7.87,7.87Zm-91.09,63.77a7.27,7.27,0,1,1-10.28,10.28l-7.88-7.87-7.88,7.87a7.27,7.27,0,1,1-10.28-10.28l7.87-7.88-7.87-7.87a7.27,7.27,0,0,1,10.28-10.29l7.88,7.88,7.88-7.88a7.27,7.27,0,0,1,10.28,10.29l-7.88,7.87,7.88,7.88Zm40-13.37a7.77,7.77,0,1,0,0,11,7.78,7.78,0,0,0,0-11Zm-5.49-16.82c19.81,0,29.8,24.07,15.78,38.09s-38.09,4-38.09-15.78a22.31,22.31,0,0,1,22.31-22.31Zm-95.2,47.33a7.77,7.77,0,1,0,0,11,7.78,7.78,0,0,0,0-11Zm1.78-15.6V230.64a16.25,16.25,0,0,1,16.21-16.21H207.2A30.79,30.79,0,0,0,238,183.68V148.86q1.77,1.92,3.68,4a7.26,7.26,0,1,0,10.74-9.78c-6.65-7.3-13.94-15.07-15.92-17.17a7.23,7.23,0,0,0-11.57,0l-15.83,17.1a7.24,7.24,0,1,0,10.62,9.83l3.74-4v34.8a16.25,16.25,0,0,1-16.21,16.21H150.86a30.8,30.8,0,0,0-30.76,30.75v32.22a22.31,22.31,0,0,0-15,21.1c0,19.8,24.06,29.8,38.08,15.77a22.32,22.32,0,0,0-8.5-36.87ZM236.17,88.44a7.76,7.76,0,1,0,0,11,7.77,7.77,0,0,0,0-11Zm-5.49-16.82c19.81,0,29.8,24.06,15.78,38.08s-38.09,4-38.09-15.77a22.31,22.31,0,0,1,22.31-22.31Zm-43.62,92.67a7.77,7.77,0,1,1-13.26,5.49,7.78,7.78,0,0,1,13.26-5.49Zm-5.49-16.82c19.81,0,29.8,24.07,15.77,38.09s-38.08,4-38.08-15.78a22.31,22.31,0,0,1,22.31-22.31ZM96,51.36,46.93,100.42h39A10.12,10.12,0,0,0,96,90.33v-39ZM409,404.59a65.88,65.88,0,1,1,0-93.16,65.88,65.88,0,0,1,0,93.16Zm-46.59,4.75A51.33,51.33,0,1,0,311.1,358a51.33,51.33,0,0,0,51.33,51.33Zm50.91,35.76,9.79,9.79a7.23,7.23,0,0,0,5.18,2.17h12.33a7.25,7.25,0,0,0,5.14-2.13l13.53-13.54a7.24,7.24,0,0,0,2.17-5.18V423.88a7.25,7.25,0,0,0-2.13-5.14l-9.83-9.83A99.73,99.73,0,0,0,460,383.6h13.88a7.25,7.25,0,0,0,5.14-2.13l8.68-8.68a7.26,7.26,0,0,0,2.17-5.18v-19.2a7.25,7.25,0,0,0-2.13-5.14l-8.68-8.68a7.26,7.26,0,0,0-5.18-2.17H460a99.73,99.73,0,0,0-10.51-25.31l9.83-9.83,0,0a7.22,7.22,0,0,0,2.12-5.12v-11.7a7.24,7.24,0,0,0-2.1-5.77l-13.53-13.54a7.26,7.26,0,0,0-5.18-2.17H428.31a7.25,7.25,0,0,0-5.15,2.13l-9.82,9.83A99.92,99.92,0,0,0,388,260.42V246.54a7.25,7.25,0,0,0-2.13-5.14l-8.68-8.69c-2.35-2.37-4.6-2.16-7.5-2.16V51.16a24.67,24.67,0,0,0-24.63-24.63H103.27a7.26,7.26,0,0,0-5.18,2.16L24.27,102.51a7.25,7.25,0,0,0-2.17,5.18V460.84a24.67,24.67,0,0,0,24.63,24.63H372a7.25,7.25,0,0,0,5.14-2.13l8.69-8.68a7.27,7.27,0,0,0,2.16-5.18V455.6a100.13,100.13,0,0,0,25.32-10.5ZM264.84,332.42a99.73,99.73,0,0,1,10.51-25.31l-9.83-9.83a7.25,7.25,0,0,1-2.13-5.14V279.81a7.24,7.24,0,0,1,2.17-5.18l13.53-13.54a7.25,7.25,0,0,1,5.14-2.13h12.33a7.23,7.23,0,0,1,5.18,2.17l9.79,9.79a99.77,99.77,0,0,1,25.32-10.5V246.54a7.27,7.27,0,0,1,2.16-5.18l8.69-8.68c2.35-2.36,4.67-2.13,7.46-2.13V51.16a10.12,10.12,0,0,0-10.08-10.09H110.54V90.33A24.67,24.67,0,0,1,85.91,115H36.65V460.84a10.12,10.12,0,0,0,10.08,10.09H337c-.3-1.47-.14-12.95-.14-15.33a99.92,99.92,0,0,1-25.32-10.5l-9.82,9.83a7.25,7.25,0,0,1-5.15,2.13H284.23a7.26,7.26,0,0,1-5.18-2.17l-13.53-13.54a7.25,7.25,0,0,1-2.13-5.14V423.88a7.24,7.24,0,0,1,2.17-5.18l9.79-9.79a99.73,99.73,0,0,1-10.51-25.31H251a7.26,7.26,0,0,1-5.18-2.17l-8.68-8.68a7.25,7.25,0,0,1-2.13-5.14v-19.2a7.26,7.26,0,0,1,2.17-5.18l8.68-8.68a7.25,7.25,0,0,1,5.14-2.13Zm25.44-21.88c-5.6,8.5-10.69,20.12-12.47,30.24a7.27,7.27,0,0,1-7.19,6.19H254l-4.45,4.45V364.6l4.45,4.45h16.65a7.27,7.27,0,0,1,7.19,6.19,86.11,86.11,0,0,0,12.47,30.24,7.28,7.28,0,0,1-.57,9.64l-11.78,11.77v6.31l9.31,9.31h6.31l11.78-11.77a7.26,7.26,0,0,1,9.63-.58,86.49,86.49,0,0,0,14.44,7.66,85.29,85.29,0,0,0,15.8,4.81,7.28,7.28,0,0,1,6.19,7.2v16.64l4.46,4.46H369l4.46-4.46V449.83a7.28,7.28,0,0,1,6.19-7.2,85.29,85.29,0,0,0,15.8-4.81,86.49,86.49,0,0,0,14.44-7.66,7.26,7.26,0,0,1,9.63.58l11.78,11.77h6.31l9.31-9.31v-6.31l-11.78-11.77a7.28,7.28,0,0,1-.57-9.64,86.11,86.11,0,0,0,12.47-30.24,7.27,7.27,0,0,1,7.19-6.19H470.9l4.45-4.45V351.42L470.9,347H454.25a7.27,7.27,0,0,1-7.19-6.19,86.11,86.11,0,0,0-12.47-30.24,7.28,7.28,0,0,1,.57-9.64L447,289.1v-6.25l-9.33-9.34h-6.31l-11.78,11.77a7.27,7.27,0,0,1-9.63.58,86.49,86.49,0,0,0-14.44-7.66,85.29,85.29,0,0,0-15.8-4.81,7.28,7.28,0,0,1-6.19-7.2V249.55L369,245.09H355.85l-4.46,4.46v16.64a7.28,7.28,0,0,1-6.19,7.2,85.29,85.29,0,0,0-15.8,4.81A86.49,86.49,0,0,0,315,285.86a7.26,7.26,0,0,1-9.63-.58l-11.78-11.77h-6.31l-9.31,9.31v6.31l11.78,11.77a7.28,7.28,0,0,1,.57,9.64Zm90.05,26-24.5,27-11.09-13.26a7.26,7.26,0,0,0-11.14,9.31L350,379.22a7.27,7.27,0,0,0,11,.26l30.09-33.17a7.26,7.26,0,0,0-10.74-9.77ZM67.12,351.07a7.28,7.28,0,1,1,0-14.55H210.28a7.28,7.28,0,0,1,0,14.55Zm0,44.8a7.27,7.27,0,1,1,0-14.54H222a7.27,7.27,0,1,1,0,14.54Zm0,44.8a7.27,7.27,0,1,1,0-14.54H240.35a7.27,7.27,0,1,1,0,14.54Z"/></svg>
