<svg id="Layer_1" viewBox="0 0 512 512" xmlns="http://www.w3.org/2000/svg" data-name="Layer 1"><path d="m105.982 472.166c-3.035 0-5.496-2.461-5.496-5.496s2.461-5.496 5.496-5.496h181.978c3.035 0 5.496 2.461 5.496 5.496s-2.461 5.496-5.496 5.496zm0-26.834c-3.035 0-5.496-2.461-5.496-5.496s2.461-5.496 5.496-5.496h181.978c3.035 0 5.496 2.461 5.496 5.496s-2.461 5.496-5.496 5.496zm0-27.338c-3.035 0-5.496-2.461-5.496-5.496s2.461-5.496 5.496-5.496h129.389c3.035 0 5.496 2.461 5.496 5.496s-2.461 5.496-5.496 5.496zm0-26.834c-3.035 0-5.496-2.461-5.496-5.496s2.461-5.496 5.496-5.496h129.389c3.035 0 5.496 2.461 5.496 5.496s-2.461 5.496-5.496 5.496zm135.833-63.782h-86.446c-3.91 0-6.042 4.79-3.169 7.662.817.817 1.939 1.324 3.169 1.324h86.446c3.91 0 6.042-4.789 3.169-7.662-.817-.817-1.939-1.324-3.169-1.324zm-16.419-121.892h-53.609c-3.908 0-6.042 4.789-3.169 7.662.817.817 1.939 1.324 3.169 1.324h53.609c3.908 0 6.042-4.789 3.169-7.662-.817-.817-1.939-1.324-3.169-1.324zm0-10.992h5.917c3.708 0 7.568-2.319 7.568-5.801v-15.602h-9.561v6.417c0 3.035-2.461 5.496-5.496 5.496h-14.954c-3.035 0-5.496-2.461-5.496-5.496v-6.417h-9.561v6.417c0 3.035-2.461 5.496-5.496 5.496h-14.954c-3.035 0-5.496-2.461-5.496-5.496v-6.417h-9.562v15.602c0 3.482 3.859 5.801 7.568 5.801h59.525zm29.823 152.862h-113.254c-2.46 0-4.493 2.033-4.493 4.493v4.494h122.239v-4.494c0-2.46-2.033-4.493-4.493-4.493zm-159.888-312.584-59.216 59.216h46.393c7.056 0 12.824-5.767 12.824-12.824v-46.393zm8.212 126.857c2.359-9.526 6.123-18.575 11.179-26.943l-10.625-10.625c-1.073-1.073-1.609-2.479-1.609-3.886v-12.175c-.001-1.543.635-2.937 1.659-3.935l13.351-13.351c1.073-1.073 2.479-1.609 3.886-1.609h12.175c1.543-.001 2.937.635 3.935 1.659l10.576 10.576c8.368-5.056 17.418-8.82 26.943-11.179v-15.008c0-1.543.636-2.937 1.66-3.935l8.56-8.559c1.073-1.073 2.479-1.609 3.886-1.609h18.951c1.543-.001 2.937.635 3.935 1.659l8.56 8.56c1.073 1.073 1.609 2.479 1.609 3.886v15.008c9.525 2.358 18.577 6.123 26.944 11.179l10.625-10.624c1.073-1.073 2.479-1.609 3.886-1.609h12.175c1.543-.001 2.937.635 3.935 1.659l13.351 13.351c1.193 1.193 1.722 2.798 1.589 4.357v11.704c0 1.512-.613 2.88-1.603 3.871l-10.61 10.64c5.056 8.369 8.82 17.416 11.179 26.943h15.007c1.543 0 2.937.636 3.935 1.66l8.56 8.56c1.073 1.073 1.609 2.479 1.609 3.886v18.951c.001 1.543-.635 2.937-1.659 3.935l-8.56 8.56c-1.073 1.073-2.479 1.609-3.886 1.609h-15.007c-2.358 9.525-6.123 18.577-11.179 26.944l10.625 10.625c1.073 1.073 1.609 2.479 1.609 3.886v12.175c.001 1.543-.635 2.937-1.659 3.935l-13.351 13.351c-1.193 1.193-2.798 1.722-4.357 1.589h-11.704c-1.512 0-2.88-.613-3.871-1.603l-10.638-10.608c-4.672 2.829-9.485 5.215-14.552 7.218 2.524 6.825 5.741 13.586 9.651 20.28 2.079 3.561 3.095 7.298 3.095 11.427v9.392c7.547 2.882 11.733 11.173 9.303 19.03 7.909.712 14.09 7.397 14.09 15.422v9.99c0 3.035-2.461 5.496-5.496 5.496h-133.231c-3.035 0-5.496-2.461-5.496-5.496v-9.99c0-8.026 6.18-14.71 14.09-15.422-2.43-7.857 1.756-16.148 9.303-19.03 0-4.646-.371-11.108.763-15.3.521-1.923 1.291-3.736 2.331-5.518 3.909-6.694 7.126-13.454 9.651-20.28-5.071-2.005-9.875-4.386-14.551-7.218l-10.623 10.623c-1.073 1.073-2.479 1.609-3.886 1.609h-12.175c-1.543.001-2.937-.635-3.935-1.659l-13.351-13.351c-1.073-1.073-1.609-2.479-1.609-3.886v-12.175c-.001-1.543.635-2.937 1.659-3.935l10.576-10.575c-5.056-8.368-8.82-17.417-11.179-26.943h-15.008c-1.543 0-2.937-.636-3.935-1.66l-8.559-8.56c-1.073-1.073-1.609-2.479-1.609-3.886v-18.951c-.001-1.543.635-2.937 1.659-3.935l8.559-8.56c1.073-1.073 2.479-1.609 3.886-1.609h15.008zm74.532 100.553c-2.856 14.245-7.926 26.761-15.618 39.936-1.129 1.933-1.592 3.653-1.592 5.888v8.381h75.454c0-2.733.246-9.156-.376-11.455-.25-.923-.651-1.848-1.215-2.813-13.991-23.955-20.227-49.474-17.368-76.653h-37.534c1.292 12.288.739 24.872-1.75 36.717zm-8.641-22.663c-36.295-19.514-43.674-68.625-14.416-97.884 24.064-24.064 63.084-24.064 87.147 0 29.292 29.292 21.854 78.464-14.51 97.935-.062-4.771.189-9.571.755-14.401 9.643-1.916 15.181-12.361 11.147-21.442 5.971-2.697 10.315-8.312 10.315-15.033v-21.098c0-3.035-2.461-5.496-5.496-5.496h-20.554c-3.035 0-5.496 2.461-5.496 5.496v6.417h-3.962v-6.417c0-3.035-2.461-5.496-5.496-5.496h-20.554c-3.035 0-5.496 2.461-5.496 5.496v6.417h-3.962v-6.417c0-3.035-2.461-5.496-5.496-5.496h-20.554c-3.035 0-5.496 2.461-5.496 5.496v21.098c0 6.721 4.343 12.337 10.315 15.033-4.024 9.061 1.479 19.483 11.093 21.431.53 4.845.769 9.632.715 14.361zm-2.126 20.466-1.366 5.814c-4.51-1.829-11.617-5.394-15.261-8.028-2.157-1.699-5.292-1.554-7.281.435l-12.117 12.117h-7.624l-10.18-10.179v-7.625l12.117-12.117c1.99-1.99 2.134-5.128.433-7.284-3.025-4.572-5.638-9.475-7.784-14.652-2.11-5.092-3.751-10.439-4.868-15.984-.393-2.65-2.677-4.684-5.436-4.684h-17.131l-5.388-5.388v-14.4l5.388-5.388h17.131c2.759 0 5.043-2.034 5.436-4.684 1.117-5.546 2.758-10.893 4.868-15.985 2.146-5.177 4.76-10.08 7.785-14.653 1.7-2.156 1.555-5.293-.434-7.282l-12.117-12.117v-7.624l10.18-10.18h7.624l12.117 12.118c1.99 1.99 5.128 2.134 7.284.433 4.572-3.025 9.475-5.639 14.652-7.784 5.093-2.111 10.441-3.752 15.989-4.869 2.648-.395 4.679-2.678 4.679-5.436v-17.13l5.388-5.388h14.4l5.388 5.388v17.13c0 2.758 2.032 5.041 4.679 5.436 5.548 1.117 10.896 2.758 15.989 4.869 5.177 2.145 10.079 4.759 14.652 7.784 2.156 1.701 5.294 1.557 7.284-.433l12.117-12.117h7.624l10.201 10.201v7.581s-12.139 12.139-12.139 12.139c-1.99 1.99-2.134 5.127-.433 7.284 3.025 4.573 5.639 9.475 7.784 14.652 2.11 5.092 3.751 10.439 4.868 15.984.393 2.65 2.677 4.684 5.436 4.684h17.13l5.388 5.388v14.4l-5.388 5.388h-17.13c-2.759 0-5.043 2.034-5.436 4.684-1.117 5.546-2.758 10.892-4.868 15.984-2.146 5.177-4.76 10.08-7.785 14.653-1.7 2.156-1.555 5.293.434 7.282l12.117 12.117v7.624l-10.201 10.201h-7.581s-12.139-12.139-12.139-12.139c-1.989-1.989-5.125-2.134-7.281-.435-3.647 2.636-10.749 6.197-15.261 8.028-1.251-4.741-2.179-9.539-2.78-14.392 46.025-20.81 57.51-81.507 21.475-117.542-28.358-28.358-74.332-28.358-102.69 0-36.017 36.017-24.566 96.682 21.426 117.519-.341 2.89-.796 5.757-1.365 8.601zm201.533 160.301c-43.781 9.702-85.804-23.491-85.804-68.82s41.861-78.557 85.804-68.829v-242.813c0-7.057-5.768-12.824-12.824-12.824h-249.694v54.164c0 13.124-10.692 23.816-23.816 23.816h-54.164v367.196c0 7.056 5.767 12.824 12.824 12.824h314.85c7.056 0 12.824-5.767 12.824-12.824v-51.891zm-15.302-103.069c-18.917 0-34.25 15.333-34.25 34.25s15.333 34.25 34.25 34.25 34.25-15.333 34.25-34.25-15.333-34.25-34.25-34.25zm-31.99 2.259c-17.669 17.669-17.669 46.311 0 63.98s46.311 17.669 63.98 0 17.669-46.311 0-63.98c-17.668-17.668-46.311-17.669-63.98 0zm108.68 97.741c-9.869 0-14.526 11.913-7.75 18.689l42.475 42.475c6.777 6.777 18.688 2.119 18.688-7.75 0-2.814-1.064-5.624-3.189-7.75l-42.475-42.475c-2.126-2.126-4.936-3.189-7.75-3.189zm3.113-10.772-17.09-17.09c-1.222-1.222-1.466-2.919-.65-4.43 7.296-13.518 9.857-28.909 7.683-43.735-3.615-24.65-20.104-45.787-43.452-55.156v-246.21c0-13.124-10.693-23.816-23.816-23.816h-255.19c-1.543 0-2.937.636-3.935 1.66l-77.882 77.881c-1.05 1.037-1.66 2.407-1.66 3.935v372.692c0 13.124 10.692 23.816 23.816 23.816h314.85c13.124 0 23.816-10.692 23.816-23.816v-55.289c2.436-.978 4.828-2.097 7.164-3.359 1.512-.816 3.207-.572 4.43.65l17.09 17.09c.645 4.544 2.708 8.925 6.19 12.407l42.475 42.475c4.273 4.273 9.899 6.41 15.521 6.41 19.624 0 29.208-23.765 15.521-37.452l-42.475-42.475c-3.482-3.482-7.863-5.546-12.407-6.19zm-18.635 6.19c1.615-1.615 3.424-2.925 5.352-3.93l-11.579-11.579c-4.637-4.637-5.657-11.621-2.54-17.397 12.41-22.992 8.374-51.648-10.322-70.343-22.953-22.953-60.637-23.524-84.16 0-23.24 23.24-23.239 60.921 0 84.16 9.411 9.411 21.18 15.013 33.392 16.804 12.651 1.855 25.692-.404 36.952-6.481 5.776-3.118 12.759-2.098 17.396 2.54l11.579 11.579c1.005-1.928 2.315-3.737 3.93-5.353zm-333.956 29.185v22.868h-22.868v-22.868zm-28.364-10.992h33.86c3.035 0 5.496 2.461 5.496 5.496v33.86c0 3.035-2.461 5.496-5.496 5.496h-33.86c-3.035 0-5.496-2.461-5.496-5.496v-33.86c0-3.035 2.461-5.496 5.496-5.496zm28.364-43.18v22.868h-22.868v-22.868zm-28.364-10.992h33.86c3.035 0 5.496 2.461 5.496 5.496v33.86c0 3.035-2.461 5.496-5.496 5.496h-33.86c-3.035 0-5.496-2.461-5.496-5.496v-33.86c0-3.035 2.461-5.496 5.496-5.496zm311.503-39.154c2.039-2.241 5.509-2.404 7.75-.365s2.404 5.509.365 7.75l-18.64 20.543c-2.239 2.464-6.14 2.366-8.265-.172l-10.181-12.176c-1.944-2.324-1.637-5.785.687-7.729s5.785-1.637 7.729.687l6.142 7.346 14.413-15.885zm-33.678 101.788c2.039-2.241 5.509-2.404 7.75-.365s2.404 5.509.365 7.75l-18.64 20.543c-2.239 2.464-6.14 2.366-8.265-.172l-10.181-12.176c-1.944-2.324-1.637-5.785.687-7.729s5.785-1.637 7.729.687l6.142 7.346 14.413-15.885zm-56.147-54.172c2.039-2.241 5.509-2.404 7.75-.365s2.404 5.509.365 7.75l-18.64 20.543c-2.24 2.464-6.14 2.366-8.265-.172l-10.181-12.176c-1.944-2.324-1.637-5.785.687-7.729s5.785-1.637 7.729.687l6.142 7.346 14.413-15.885z" fill-rule="evenodd"/></svg>