<?xml version="1.0" encoding="UTF-8"?>
<svg id="Layer_1" xmlns="http://www.w3.org/2000/svg" version="1.1" viewBox="0 0 110 135">
  <!-- Generator: Adobe Illustrator 29.8.2, SVG Export Plug-In . SVG Version: 2.1.1 Build 3)  -->
  <defs>
    <style>
      .st0 {
        stroke: #000;
        stroke-miterlimit: 10;
        stroke-width: .75px;
      }
    </style>
  </defs>
  <path class="st0" d="M55,67.21c2.02,0,4.05-.77,5.59-2.31,3.08-3.08,3.08-8.09,0-11.17s-8.09-3.08-11.17,0-3.08,8.09,0,11.17c1.53,1.54,3.56,2.31,5.58,2.31h0ZM51.18,55.5c1.06-1.06,2.43-1.58,3.82-1.58s2.77.53,3.82,1.58c2.11,2.11,2.11,5.53,0,7.63-2.11,2.11-5.53,2.11-7.63,0-2.11-2.11-2.11-5.53-.01-7.63h0ZM55,73.03c3.51,0,7.03-1.33,9.7-4.01,5.35-5.35,5.35-14.05,0-19.4-5.35-5.35-14.05-5.35-19.4,0-5.35,5.35-5.35,14.05,0,19.4,2.68,2.67,6.2,4.01,9.71,4.01h0ZM47.07,51.38c4.37-4.37,11.49-4.37,15.86,0,4.37,4.37,4.37,11.49,0,15.86-4.37,4.37-11.49,4.37-15.86,0-4.38-4.37-4.38-11.48,0-15.86ZM92.59,38.68c-2.02,0-3.72,1.36-4.27,3.19h-6.9c-.21,0-.43.05-.62.17l-4.54,2.61c-.39.23-.62.63-.62,1.09v8.28l-2.4-.08c-.38-1.3-.9-2.56-1.55-3.75l2.29-2.43c.6-.63.58-1.63-.03-2.24l-4.8-4.8v-8.67l3.61-2.09h2.88c.54,1.85,2.25,3.19,4.27,3.19,2.45,0,4.44-1.99,4.44-4.44s-1.99-4.44-4.44-4.44c-2.02,0-3.72,1.36-4.27,3.19h-3.21c-.21,0-.43.05-.62.17l-4.54,2.61c-.39.23-.62.63-.62,1.09v8.91s-.08.05-.11.08l-2.43,2.29c-1.19-.65-2.44-1.17-3.75-1.55l-.1-3.34c-.02-.87-.73-1.56-1.6-1.56h-2.4v-10.18c1.85-.54,3.19-2.25,3.19-4.27,0-2.45-1.99-4.44-4.44-4.44s-4.44,1.99-4.44,4.44c0,2.02,1.36,3.72,3.19,4.27v10.18h-2.4c-.87,0-1.58.69-1.6,1.56l-.1,3.34c-1.3.38-2.56.9-3.75,1.55l-2.43-2.29s-.06-.06-.11-.08v-8.91c0-.45-.24-.86-.62-1.09l-4.54-2.61c-.21-.13-.42-.18-.64-.18h-3.22c-.54-1.85-2.25-3.19-4.27-3.19-2.45,0-4.44,1.99-4.44,4.44s1.99,4.44,4.44,4.44c2.02,0,3.72-1.36,4.27-3.19h2.88l3.61,2.09v8.67l-4.8,4.8c-.61.61-.63,1.6-.03,2.24l2.29,2.43c-.65,1.19-1.17,2.44-1.55,3.75l-2.4.08v-8.28c0-.45-.24-.86-.62-1.09l-4.54-2.61c-.19-.11-.41-.17-.62-.17h-6.9c-.54-1.85-2.25-3.19-4.27-3.19-2.45,0-4.44,1.99-4.44,4.44s1.99,4.44,4.44,4.44c2.02,0,3.72-1.36,4.27-3.19h6.57l3.61,2.09v3.34h-8.84c-1.87,0-3.39,1.53-3.39,3.39v48.86c0,1.87,1.53,3.39,3.38,3.39h23.67v4.13l-3.19,1.66c-.1.05-.19.1-.29.15-.98.5-2.44,1.24-2.44,3.02s1.48,3.31,3.31,3.31h21.84c1.83,0,3.31-1.48,3.31-3.31s-1.48-2.54-2.44-3.02c-.1-.05-.19-.1-.29-.15l-3.19-1.66v-4.13h23.67c1.87,0,3.39-1.53,3.39-3.39v-48.84c0-1.87-1.53-3.39-3.38-3.39h-8.86v-3.34l3.61-2.09h6.57c.54,1.85,2.25,3.19,4.27,3.19,2.45,0,4.44-1.99,4.44-4.44s-1.99-4.45-4.44-4.45h0ZM79.92,26.77c1.08,0,1.95.87,1.95,1.95s-.87,1.95-1.95,1.95-1.95-.87-1.95-1.95.87-1.95,1.95-1.95ZM53.06,21.73c0-1.08.87-1.95,1.95-1.95s1.95.87,1.95,1.95-.87,1.95-1.95,1.95-1.95-.87-1.95-1.95ZM30.08,30.67c-1.08,0-1.95-.87-1.95-1.95s.87-1.95,1.95-1.95,1.95.87,1.95,1.95-.87,1.95-1.95,1.95ZM17.42,45.07c-1.08,0-1.95-.87-1.95-1.95s.87-1.95,1.95-1.95,1.95.87,1.95,1.95-.87,1.95-1.95,1.95ZM37.5,56.44c.72-.02,1.33-.5,1.5-1.21.39-1.53.99-2.98,1.8-4.34.37-.62.28-1.4-.21-1.93l-2.15-2.28,3.95-3.93,2.28,2.15c.53.5,1.3.58,1.93.21,1.36-.81,2.81-1.41,4.34-1.8.7-.18,1.19-.79,1.21-1.5l.1-3.13h5.57l.1,3.13c.02.72.5,1.33,1.21,1.5,1.53.39,2.98.99,4.33,1.79.62.37,1.4.28,1.93-.21l2.28-2.15,3.94,3.94-2.15,2.28c-.5.53-.58,1.3-.21,1.93.79,1.35,1.4,2.8,1.79,4.33.18.7.79,1.19,1.5,1.21l3.13.1v5.57l-3.13.1c-.72.02-1.33.5-1.5,1.21-.39,1.52-.99,2.98-1.79,4.33-.37.62-.28,1.4.21,1.93l2.15,2.28-3.94,3.94-2.28-2.15c-.53-.5-1.3-.58-1.93-.21-1.35.79-2.8,1.4-4.33,1.79-.7.18-1.19.79-1.21,1.5l-.1,3.13h-5.57l-.1-3.14c-.02-.72-.5-1.33-1.21-1.5-1.53-.39-2.98-.99-4.33-1.8-.62-.37-1.4-.28-1.93.21l-2.28,2.15-3.94-3.94,2.15-2.28c.5-.53.58-1.3.21-1.93-.81-1.36-1.41-2.81-1.8-4.34-.18-.7-.79-1.19-1.5-1.21l-3.13-.1v-5.57l3.11-.04ZM61.49,111.43l3.86,2c.11.05.21.11.32.16.85.43,1.08.59,1.08.79,0,.44-.38.82-.82.82h-21.84c-.44,0-.82-.38-.82-.82,0-.21.23-.37,1.08-.79.11-.05.21-.11.32-.16l3.86-2c.41-.21.68-.65.68-1.11v-4.88h11.62v4.88c-.02.47.24.9.66,1.11h0ZM86.99,102.93H23.01c-.5,0-.89-.4-.89-.89v-5.48h65.77v5.48c0,.49-.4.89-.9.89h0ZM86.99,52.3c.5,0,.89.4.89.89v40.86H22.12s0-40.85,0-40.85c0-.5.4-.89.89-.89h8.84v10.66c0,.87.69,1.58,1.56,1.6l3.34.1c.38,1.3.9,2.56,1.55,3.75l-2.29,2.43c-.6.63-.58,1.63.03,2.24l5.17,5.17c.62.62,1.6.63,2.24.03l2.43-2.29c1.19.65,2.44,1.17,3.75,1.55l.11,3.35c.03.87.73,1.56,1.6,1.56h7.31c.87,0,1.58-.69,1.6-1.56l.11-3.35c1.3-.38,2.56-.9,3.75-1.55l2.43,2.29c.63.6,1.63.58,2.24-.03l5.17-5.17c.61-.61.63-1.6.03-2.24l-2.29-2.43c.65-1.19,1.17-2.44,1.55-3.75l3.35-.11c.87-.03,1.56-.73,1.56-1.6v-7.3s0-3.36,0-3.36h8.87ZM92.59,45.07c-1.08,0-1.95-.87-1.95-1.95s.87-1.95,1.95-1.95,1.95.87,1.95,1.95-.87,1.95-1.95,1.95Z"/>
</svg>