<?xml version="1.0"?>
<svg xmlns="http://www.w3.org/2000/svg" viewBox="0 0 64 64" width="512" height="512"><g id="data_level" data-name="data level"><path d="M59,46H57V39a3,3,0,0,0-3-3H51V30h2a3,3,0,0,0,3-3V25a3,3,0,0,0-3-3H51V14a3,3,0,0,0-3-3H42V10a1,1,0,0,0-.758-.97L39.95,8.707l.686-1.142a1,1,0,0,0-.151-1.222L37.657,3.515a1,1,0,0,0-1.221-.151l-1.143.686L34.97,2.757A1,1,0,0,0,34,2H30a1,1,0,0,0-.97.757L28.707,4.05l-1.143-.686a1,1,0,0,0-1.221.151L23.515,6.343a1,1,0,0,0-.151,1.222l.686,1.142-1.292.323A1,1,0,0,0,22,10v1H16a3,3,0,0,0-3,3v8H11a3,3,0,0,0-3,3v2a3,3,0,0,0,3,3h2v6H10a3,3,0,0,0-3,3v7H5a3,3,0,0,0-3,3v2a3,3,0,0,0,3,3H7v6H4v2h8V60H9V54h2a3,3,0,0,0,3-3V49a3,3,0,0,0-3-3H9V39a1,1,0,0,1,1-1h8a4,4,0,0,0,4,4h1v4H21a3,3,0,0,0-3,3v2a3,3,0,0,0,3,3h2v6H20v2h8V60H25V54h2a3,3,0,0,0,3-3V49a3,3,0,0,0-3-3H25V42H39v4H37a3,3,0,0,0-3,3v2a3,3,0,0,0,3,3h2v6H36v2h8V60H41V54h2a3,3,0,0,0,3-3V49a3,3,0,0,0-3-3H41V42h1a4,4,0,0,0,4-4h8a1,1,0,0,1,1,1v7H53a3,3,0,0,0-3,3v2a3,3,0,0,0,3,3h2v6H52v2h8V60H57V54h2a3,3,0,0,0,3-3V49A3,3,0,0,0,59,46ZM12,49v2a1,1,0,0,1-1,1H5a1,1,0,0,1-1-1V49a1,1,0,0,1,1-1h6A1,1,0,0,1,12,49Zm16,0v2a1,1,0,0,1-1,1H21a1,1,0,0,1-1-1V49a1,1,0,0,1,1-1h6A1,1,0,0,1,28,49Zm16,0v2a1,1,0,0,1-1,1H37a1,1,0,0,1-1-1V49a1,1,0,0,1,1-1h6A1,1,0,0,1,44,49ZM54,25v2a1,1,0,0,1-1,1H47a1,1,0,0,1-1-1V25a1,1,0,0,1,1-1h6A1,1,0,0,1,54,25ZM24,10.781l1.844-.461a1,1,0,0,0,.615-1.485l-.979-1.63,1.725-1.724,1.63.978a1,1,0,0,0,1.484-.615L30.781,4h2.438l.462,1.844a1,1,0,0,0,1.484.615l1.63-.978L38.52,7.205l-.979,1.63a1,1,0,0,0,.615,1.485L40,10.781v2.438l-1.844.461a1,1,0,0,0-.615,1.485l.979,1.63L36.8,18.519l-1.63-.978a1,1,0,0,0-1.484.615L33.219,20H30.781l-.462-1.844a1,1,0,0,0-1.484-.615l-1.63.978L25.48,16.8l.979-1.63a1,1,0,0,0-.615-1.485L24,13.219ZM10,27V25a1,1,0,0,1,1-1h6a1,1,0,0,1,1,1v2a1,1,0,0,1-1,1H11A1,1,0,0,1,10,27ZM42,40H22a2,2,0,0,1,0-4,1,1,0,0,0,1-1V34a4,4,0,0,1,4-4,4.483,4.483,0,0,1,2.426.819,1,1,0,0,0,1.43-.3A4.842,4.842,0,0,1,35,28a4.988,4.988,0,0,1,4.709,6.667A1,1,0,0,0,40.651,36H42a2,2,0,0,1,0,4Zm3.444-4A3.987,3.987,0,0,0,42,34h-.073A6.846,6.846,0,0,0,42,33a7.008,7.008,0,0,0-7-7,6.654,6.654,0,0,0-5.3,2.668A6.3,6.3,0,0,0,27,28a6.006,6.006,0,0,0-6,6v.126A4.012,4.012,0,0,0,18.544,36H15V30h2a3,3,0,0,0,3-3V25a3,3,0,0,0-3-3H15V14a1,1,0,0,1,1-1h6v1a1,1,0,0,0,.758.97l1.292.323-.686,1.142a1,1,0,0,0,.151,1.222l2.828,2.828a1,1,0,0,0,1.221.151l1.143-.686.323,1.293A1,1,0,0,0,30,22h4a1,1,0,0,0,.97-.757l.323-1.293,1.143.686a1,1,0,0,0,1.221-.151l2.828-2.828a1,1,0,0,0,.151-1.222l-.686-1.142,1.292-.323A1,1,0,0,0,42,14V13h6a1,1,0,0,1,1,1v8H47a3,3,0,0,0-3,3v2a3,3,0,0,0,3,3h2v6ZM60,51a1,1,0,0,1-1,1H53a1,1,0,0,1-1-1V49a1,1,0,0,1,1-1h6a1,1,0,0,1,1,1Z"/><path d="M32,16a4,4,0,1,0-4-4A4,4,0,0,0,32,16Zm0-6a2,2,0,1,1-2,2A2,2,0,0,1,32,10Z"/></g></svg>
