<?xml version="1.0" encoding="UTF-8"?>
<svg xmlns="http://www.w3.org/2000/svg" id="Layer_1" data-name="Layer 1" viewBox="0 0 64 64" width="512" height="512"><path d="M30,14.48a5,5,0,0,0,2.43-.58A3,3,0,0,1,34,13.52a3.07,3.07,0,0,1,1.57.38,4.92,4.92,0,0,0,2.43.58v-2a3,3,0,0,1-1.57-.38,5.4,5.4,0,0,0-4.87,0,3.41,3.41,0,0,1-3.13,0A5,5,0,0,0,26,11.52v2a3.07,3.07,0,0,1,1.57.38A4.92,4.92,0,0,0,30,14.48Z"/><path d="M30,8.48a5,5,0,0,0,2.43-.58A3,3,0,0,1,34,7.52a3.07,3.07,0,0,1,1.57.38A4.92,4.92,0,0,0,38,8.48v-2a3,3,0,0,1-1.57-.38,5.4,5.4,0,0,0-4.87,0,3.41,3.41,0,0,1-3.13,0A5,5,0,0,0,26,5.52v2a3.07,3.07,0,0,1,1.57.38A4.92,4.92,0,0,0,30,8.48Z"/><path d="M30,20.48a5,5,0,0,0,2.43-.58A3,3,0,0,1,34,19.52a3.07,3.07,0,0,1,1.57.38,4.92,4.92,0,0,0,2.43.58v-2a3,3,0,0,1-1.57-.38,5.4,5.4,0,0,0-4.87,0,3.41,3.41,0,0,1-3.13,0A5,5,0,0,0,26,17.52v2a3.07,3.07,0,0,1,1.57.38A4.92,4.92,0,0,0,30,20.48Z"/><path d="M62,25H57V13a1,1,0,0,0-1-1H42V4a3,3,0,0,0-3-3H25a3,3,0,0,0-3,3v8H8a1,1,0,0,0-1,1V25H2a1,1,0,0,0-1,1v6a1,1,0,0,0,1,1H7V55.14a4,4,0,1,0,2,0V45h8.31a6.94,6.94,0,0,0,5.11,4.81A1,1,0,0,0,23,50v5.14a4,4,0,1,0,2,0V50H39v5.14a4,4,0,1,0,2,0V50h2a4,4,0,0,0,4-4,4.09,4.09,0,0,0-.14-1H55V55.14a4,4,0,1,0,2,0V33h5a1,1,0,0,0,1-1V26A1,1,0,0,0,62,25ZM24,4a1,1,0,0,1,1-1H39a1,1,0,0,1,1,1V22a1,1,0,0,1-1,1H25a1,1,0,0,1-1-1ZM10,59a2,2,0,1,1-2-2A2,2,0,0,1,10,59ZM3,31V27H13v4ZM26,59a2,2,0,1,1-2-2A2,2,0,0,1,26,59Zm16,0a2,2,0,1,1-2-2A2,2,0,0,1,42,59Zm1-11H25V47a2,2,0,0,1,2-2,1.7,1.7,0,0,1,.69.13,1,1,0,0,0,.86,0,1,1,0,0,0,.51-.68A3,3,0,0,1,35,45h2a5,5,0,0,0-9.59-2L27,43a4,4,0,0,0-4,4v.88A5,5,0,0,1,19,43a5,5,0,0,1,5.05-5h0a1,1,0,0,0,1-.85A6,6,0,0,1,37,38a1,1,0,0,0,1,1,3,3,0,0,1,3,3,3.18,3.18,0,0,1-.17,1A1,1,0,0,0,41.1,44a1,1,0,0,0,1.09.17A1.91,1.91,0,0,1,43,44a2,2,0,0,1,0,4Zm2.62-5A4,4,0,0,0,43,42a5,5,0,0,0-4-4.91A8,8,0,0,0,23.25,36,7,7,0,0,0,17,43H9V33h5a1,1,0,0,0,1-1V26a1,1,0,0,0-1-1H9V14H22v8a3,3,0,0,0,3,3H39a3,3,0,0,0,3-3V14H55V25H50a1,1,0,0,0-1,1v6a1,1,0,0,0,1,1h5V43ZM58,59a2,2,0,1,1-2-2A2,2,0,0,1,58,59Zm3-28H51V27H61Z"/></svg>
