<?xml version="1.0" encoding="UTF-8"?>
<svg id="Layer_1" xmlns="http://www.w3.org/2000/svg" version="1.1" viewBox="0 0 110 135">
  <!-- Generator: Adobe Illustrator 29.8.2, SVG Export Plug-In . SVG Version: 2.1.1 Build 3)  -->
  <defs>
    <style>
      .st0 {
        stroke: #000;
        stroke-miterlimit: 10;
        stroke-width: .2px;
      }
    </style>
  </defs>
  <path class="st0" d="M55,117.46c-.71.01-1.38-.36-1.75-.97l-3.72-6.81-6.81-3.79c-.61-.36-.98-1.02-.97-1.73,0-.73.39-1.4,1.03-1.75l6.81-3.72,3.72-6.81c.35-.64,1.02-1.03,1.75-1.03s1.4.39,1.75,1.03l3.72,6.81,6.81,3.72c.64.35,1.03,1.02,1.03,1.75-.02.73-.44,1.41-1.1,1.73l-6.81,3.72-3.72,6.88c-.37.61-1.03.98-1.75.97ZM47.82,104.22l4.13,2.25c.33.19.61.46.78.8l2.27,4.08,2.27-4.12c.18-.34.45-.61.78-.8l4.13-2.25-4.13-2.25c-.33-.18-.61-.45-.78-.78l-2.27-4.16-2.27,4.13c-.18.33-.45.6-.78.78l-4.13,2.32Z"/>
  <path class="st0" d="M55,125.77c-.35,0-.69-.09-.99-.26l-16.99-9.82c-.62-.36-.99-1.01-.99-1.72v-19.62c0-.71.38-1.37.99-1.72l16.99-9.8h0c.62-.36,1.37-.36,1.99,0l16.99,9.83c.62.36.99,1.01.99,1.72v19.59c0,.71-.38,1.37-.99,1.72l-16.99,9.82c-.31.17-.65.26-.99.26h0ZM40,112.83l15,8.66,15-8.66v-17.33l-15-8.66-15,8.66v17.33Z"/>
  <path class="st0" d="M55,86.52c-1.1,0-1.99-.89-1.99-1.99v-10.43h-25.24c-1.1,0-1.99-.89-1.99-1.99v-12.2c0-1.1.89-1.99,1.99-1.99s1.99.89,1.99,1.99v10.21h25.24c1.1,0,1.99.89,1.99,1.99v12.41c0,.53-.21,1.03-.58,1.4-.37.37-.88.58-1.41.58Z"/>
  <path class="st0" d="M27.77,61.91c-2.95,0-5.6-1.77-6.73-4.5-1.13-2.72-.51-5.86,1.58-7.94,2.09-2.09,5.22-2.71,7.94-1.58,2.73,1.13,4.5,3.79,4.5,6.73-.01,4.02-3.26,7.28-7.28,7.28ZM27.77,51.31c-1.34,0-2.55.81-3.06,2.05-.51,1.24-.23,2.66.72,3.61s2.37,1.23,3.61.71,2.04-1.73,2.04-3.07c-.02-1.82-1.5-3.29-3.31-3.29v-.02Z"/>
  <path class="st0" d="M14.27,23.78c-2.94,0-5.59-1.77-6.72-4.49-1.13-2.72-.51-5.84,1.57-7.92,2.08-2.08,5.21-2.7,7.93-1.58,2.72,1.13,4.49,3.78,4.49,6.72,0,1.92-.77,3.78-2.13,5.14-1.37,1.37-3.21,2.13-5.14,2.13ZM14.27,13.18c-1.33,0-2.54.8-3.05,2.04-.51,1.23-.23,2.65.71,3.59.95.94,2.36,1.23,3.6.71,1.23-.51,2.03-1.71,2.03-3.05,0-.87-.35-1.71-.96-2.33-.62-.62-1.46-.97-2.33-.97h0Z"/>
  <path class="st0" d="M41.28,23.78c-2.94,0-5.59-1.77-6.72-4.49-1.12-2.72-.5-5.84,1.58-7.92,2.08-2.08,5.21-2.7,7.93-1.58,2.72,1.13,4.49,3.78,4.49,6.72,0,1.92-.77,3.78-2.13,5.14-1.37,1.37-3.21,2.13-5.14,2.13ZM41.28,13.18c-1.33,0-2.54.8-3.05,2.04-.51,1.23-.23,2.65.71,3.59.94.94,2.36,1.23,3.6.71,1.23-.51,2.03-1.71,2.03-3.05,0-.87-.35-1.71-.96-2.33-.62-.62-1.46-.97-2.33-.97h0Z"/>
  <path class="st0" d="M27.77,51.33c-1.1,0-1.99-.89-1.99-1.99v-8.58h-11.51c-1.1,0-1.99-.89-1.99-1.99v-17.01c0-1.1.89-1.99,1.99-1.99s1.99.89,1.99,1.99v15.02h11.51c1.1,0,1.99.89,1.99,1.99v10.6c-.02,1.09-.9,1.96-1.99,1.96Z"/>
  <path class="st0" d="M27.77,51.33c-1.1,0-1.99-.89-1.99-1.99v-10.6c0-1.1.89-1.99,1.99-1.99h11.52v-14.99c0-1.1.89-1.99,1.99-1.99s1.99.89,1.99,1.99v17.01c0,1.1-.89,1.99-1.99,1.99h-11.52v8.58c0,1.1-.89,1.99-1.99,1.99h0Z"/>
  <path class="st0" d="M55,86.52c-1.1,0-1.99-.89-1.99-1.99v-12.41c0-1.1.89-1.99,1.99-1.99h25.24v-10.21c0-1.1.89-1.99,1.99-1.99s1.99.89,1.99,1.99v12.2c0,1.1-.89,1.99-1.99,1.99h-25.24v10.43c0,.53-.21,1.03-.58,1.4-.37.37-.88.58-1.41.58Z"/>
  <path class="st0" d="M82.23,61.91c-2.94,0-5.61-1.76-6.74-4.49-1.13-2.72-.51-5.86,1.57-7.94,2.09-2.09,5.22-2.72,7.94-1.59,2.72,1.13,4.5,3.79,4.5,6.73-.01,4.01-3.26,7.27-7.27,7.28ZM82.23,51.31c-1.34,0-2.55.8-3.07,2.04-.52,1.24-.23,2.66.71,3.62.95.95,2.38,1.23,3.62.71,1.24-.52,2.04-1.73,2.04-3.07-.02-1.82-1.48-3.28-3.3-3.29v-.02Z"/>
  <path class="st0" d="M95.73,23.78c-2.94,0-5.59-1.77-6.72-4.49-1.13-2.72-.51-5.84,1.57-7.92,2.08-2.08,5.21-2.7,7.93-1.58,2.72,1.13,4.49,3.78,4.49,6.72,0,4.01-3.25,7.27-7.27,7.27ZM95.73,13.18c-1.33,0-2.54.8-3.05,2.04-.51,1.23-.23,2.65.71,3.59.95.94,2.36,1.23,3.6.71,1.23-.51,2.03-1.71,2.03-3.05,0-1.82-1.48-3.29-3.3-3.3h0Z"/>
  <path class="st0" d="M68.72,23.78c-2.94,0-5.59-1.77-6.72-4.49-1.13-2.72-.51-5.84,1.57-7.92,2.08-2.08,5.21-2.7,7.93-1.58,2.72,1.13,4.49,3.78,4.49,6.72,0,4.01-3.26,7.27-7.27,7.27ZM68.72,13.18c-1.33,0-2.54.8-3.05,2.04-.51,1.23-.23,2.65.71,3.59.95.94,2.36,1.23,3.6.71,1.23-.51,2.04-1.71,2.04-3.05-.01-1.82-1.48-3.29-3.3-3.3h0Z"/>
  <path class="st0" d="M82.23,51.33c-1.1,0-1.99-.89-1.99-1.99v-10.6c0-1.1.89-1.99,1.99-1.99h11.51v-14.99c0-1.1.89-1.99,1.99-1.99s1.99.89,1.99,1.99v17.01c0,1.1-.89,1.99-1.99,1.99h-11.51v8.58c0,1.1-.89,1.99-1.99,1.99h0Z"/>
  <path class="st0" d="M82.23,51.33c-1.1,0-1.99-.89-1.99-1.99v-8.58h-11.52c-1.1,0-1.99-.89-1.99-1.99v-17.01c0-1.1.89-1.99,1.99-1.99s1.99.89,1.99,1.99v15.02h11.52c1.1,0,1.99.89,1.99,1.99v10.6c-.01,1.09-.9,1.96-1.99,1.96Z"/>
</svg>