<?xml version="1.0" encoding="UTF-8"?>
<svg id="Layer_1" xmlns="http://www.w3.org/2000/svg" version="1.1" viewBox="0 0 100 125">
  <!-- Generator: Adobe Illustrator 29.8.2, SVG Export Plug-In . SVG Version: 2.1.1 Build 3)  -->
  <defs>
    <style>
      .st0 {
        stroke: #000;
        stroke-miterlimit: 10;
      }
    </style>
  </defs>
  <path class="st0" d="M50,49.32c-7.58,0-13.74,6.16-13.74,13.74s6.17,13.74,13.74,13.74,13.74-6.17,13.74-13.74c0-7.58-6.16-13.74-13.74-13.74ZM50,74.85c-6.5,0-11.78-5.29-11.78-11.78s5.29-11.78,11.78-11.78,11.78,5.29,11.78,11.78-5.28,11.78-11.78,11.78ZM19.55,31.32c0,.54-.44.98-.98.98h-10c-.54,0-.98-.44-.98-.98s.44-.98.98-.98h10.01c.54,0,.97.44.97.98ZM19.55,36.14c0,.54-.44.98-.98.98h-10c-.54,0-.98-.44-.98-.98s.44-.98.98-.98h10.01c.54,0,.97.44.97.98ZM90.35,29.77l-6.01-3.47c-.61-.35-1.35-.35-1.96,0s-.98.99-.98,1.7v6.94c0,.71.37,1.34.98,1.7.31.18.64.27.98.27s.67-.09.98-.27l6.01-3.47c.61-.35.98-.99.98-1.7,0-.71-.36-1.35-.98-1.7ZM83.36,34.94v-6.94l6.01,3.47-6.01,3.47ZM9.19,101.47c1.67,0,3.04-1.19,3.04-2.65v-9.01h6.67v6.54c-.34-.11-.7-.18-1.08-.18-1.67,0-3.04,1.19-3.04,2.65s1.36,2.65,3.04,2.65,3.04-1.19,3.04-2.65v-9.12c0-1.02-.83-1.86-1.86-1.86h-6.87c-1.02,0-1.86.83-1.86,1.86v6.65c-.34-.11-.7-.18-1.08-.18-1.67,0-3.04,1.19-3.04,2.65,0,1.46,1.37,2.65,3.04,2.65ZM17.82,99.51c-.62,0-1.08-.37-1.08-.69s.46-.69,1.08-.69,1.08.37,1.08.69-.46.69-1.08.69ZM9.19,98.13c.62,0,1.08.37,1.08.69s-.46.69-1.08.69-1.08-.37-1.08-.69.47-.69,1.08-.69ZM84.59,94.12c1.59,0,2.89-1.3,2.89-2.89s-1.3-2.89-2.89-2.89-2.89,1.3-2.89,2.89,1.3,2.89,2.89,2.89ZM84.59,90.3c.51,0,.93.42.93.93s-.42.93-.93.93-.93-.42-.93-.93c0-.51.42-.93.93-.93ZM87.47,47.47v-4.49h8.14c1.31,0,2.38-1.07,2.38-2.38v-18.26c0-1.31-1.07-2.38-2.38-2.38h-18.24c-1.31,0-2.38,1.07-2.38,2.38v18.25c0,1.31,1.07,2.38,2.38,2.38h8.15v4.49c0,1.08-.88,1.96-1.96,1.96h-9.71l-2.81-4.87c-.35-.61-.92-1.05-1.6-1.23s-1.39-.09-2,.26l-4.08,2.35c-.25.14-.51.13-.74-.04-1.26-.93-2.62-1.72-4.05-2.34h0c-.26-.12-.41-.34-.41-.62v-4.7c0-1.46-1.18-2.64-2.64-2.64h-11.03c-1.46,0-2.64,1.18-2.64,2.64v4.7c0,.29-.14.51-.41.62-1.43.63-2.79,1.42-4.05,2.34-.23.17-.49.18-.74.04l-4.08-2.35c-1.26-.73-2.88-.29-3.61.97l-2.81,4.87h-9.71c-1.08,0-1.96-.88-1.96-1.96v-4.49h6.29c1.34,0,2.43-1.09,2.43-2.43v-15.07h-.01c0-.27-.1-.53-.3-.71l-5.99-5.64c-.19-.17-.43-.26-.67-.26h0s-9.99-.01-9.99-.01c-1.34,0-2.43,1.09-2.43,2.43v19.25c0,1.34,1.09,2.43,2.43,2.43h6.29v4.49c0,2.16,1.76,3.92,3.92,3.92h8.58l-1.57,2.72c-.35.61-.45,1.32-.26,2,.18.68.62,1.25,1.23,1.6l4.08,2.35c.25.14.37.38.34.66-.17,1.55-.17,3.13,0,4.68.03.28-.09.52-.34.66l-4.08,2.35c-.61.35-1.05.92-1.23,1.6s-.09,1.39.26,2l1.57,2.72h-8.58c-2.16,0-3.92,1.76-3.92,3.92v4.49H4.38c-1.31.03-2.38,1.1-2.38,2.41v18.25c0,1.31,1.07,2.38,2.38,2.38h18.25c1.31,0,2.38-1.07,2.38-2.38v-18.25c0-1.31-1.07-2.38-2.38-2.38h-8.14v-4.49c0-1.08.88-1.96,1.96-1.96h9.71l2.81,4.87c.73,1.26,2.35,1.69,3.61.97l4.08-2.35c.25-.14.51-.13.74.04,1.26.93,2.62,1.72,4.05,2.34.26.12.41.34.41.62v4.7c0,1.46,1.18,2.64,2.64,2.64h11.02c1.46,0,2.64-1.18,2.64-2.64v-4.7c0-.29.14-.51.41-.62,1.43-.63,2.79-1.42,4.05-2.34.23-.17.49-.18.74-.04l4.08,2.35c.61.35,1.32.45,2,.26.68-.18,1.25-.62,1.6-1.23l2.81-4.87h9.71c1.08,0,1.96.88,1.96,1.96v4.49h-8.14c-1.31,0-2.38,1.07-2.38,2.38v18.25c0,1.31,1.07,2.38,2.38,2.38h18.25c1.31,0,2.38-1.07,2.38-2.38v-18.25c0-1.31-1.07-2.38-2.38-2.38h-8.14v-4.49c0-2.16-1.76-3.92-3.92-3.92h-8.58l1.57-2.72c.35-.61.45-1.32.26-2-.18-.68-.62-1.25-1.23-1.6l-4.08-2.35c-.25-.14-.37-.38-.34-.66.17-1.55.17-3.13,0-4.68-.03-.28.09-.52.34-.66l4.08-2.35c.61-.35,1.05-.92,1.23-1.6s.09-1.39-.26-2l-1.57-2.72h8.58c2.14-.02,3.9-1.77,3.9-3.93ZM76.94,40.59v-18.25c0-.23.19-.42.42-.42h18.25c.23,0,.42.19.42.42v18.25c0,.23-.19.42-.42.42h-18.24c-.24,0-.43-.19-.43-.42ZM17.21,22.1l2.55,2.39h-2.08c-.26,0-.47-.21-.47-.47v-1.92ZM5.76,40.54v-19.25c0-.26.21-.47.47-.47h9.01v3.2c0,1.34,1.09,2.43,2.43,2.43h3.57v14.09c0,.26-.21.47-.47.47H6.24c-.27,0-.48-.21-.48-.47ZM23.06,85.52v18.25c0,.23-.19.42-.42.42H4.38c-.23,0-.42-.19-.42-.42v-18.25c0-.23.19-.42.42-.42h18.25c.24,0,.43.19.43.42ZM76.94,103.77v-3.62l2.44-1.98s.03-.03.05-.03l5.89,6.05h-7.96c-.23.01-.42-.18-.42-.42ZM95.62,104.2h-7.56l-2.09-2.15,4.92-4.89s.06.01.13.06l5.03,4.07v2.48c-.01.24-.2.43-.43.43ZM96.04,85.52v13.25l-3.79-3.07c-.85-.69-2-.66-2.73.07l-4.92,4.88-3.8-3.91c-.71-.73-1.8-.76-2.64-.08l-1.21.98v-12.12c0-.23.19-.42.42-.42h18.25c.23,0,.42.19.42.42ZM74.91,55.59c-.05.18-.16.32-.32.41l-4.08,2.35c-.92.53-1.42,1.52-1.3,2.57.15,1.41.15,2.84,0,4.26-.12,1.06.38,2.04,1.3,2.57l4.08,2.35c.16.09.27.24.32.41.05.18.02.36-.07.52l-5.51,9.54c-.09.16-.24.27-.41.32-.18.05-.36.02-.52-.07l-4.08-2.35c-.92-.53-2.03-.47-2.88.16-1.15.84-2.38,1.56-3.68,2.13-.97.43-1.58,1.35-1.58,2.42v4.7c0,.38-.31.68-.68.68h-11.01c-.38,0-.68-.31-.68-.68v-4.7c0-1.06-.6-1.99-1.58-2.42-1.3-.57-2.53-1.29-3.68-2.13-.47-.35-1.01-.52-1.56-.52-.45,0-.91.12-1.32.36l-4.08,2.35c-.16.09-.34.11-.52.07-.18-.05-.32-.16-.41-.32l-5.51-9.54c-.09-.16-.11-.34-.07-.52.05-.18.16-.32.32-.41l4.08-2.35c.92-.53,1.42-1.52,1.3-2.57-.15-1.41-.15-2.84,0-4.26.12-1.06-.38-2.04-1.3-2.57l-4.08-2.34c-.16-.09-.27-.24-.32-.41-.05-.18-.02-.36.07-.52l5.51-9.54c.09-.16.24-.27.41-.32.18-.05.36-.02.52.07l4.08,2.35c.92.53,2.03.47,2.88-.16,1.14-.84,2.38-1.56,3.68-2.13.97-.43,1.58-1.35,1.58-2.42v-4.7c0-.38.31-.68.68-.68h11.02c.38,0,.68.31.68.68v4.7c0,1.06.6,1.99,1.58,2.42h0c1.3.57,2.53,1.29,3.68,2.13.86.63,1.96.69,2.88.16l4.08-2.35c.16-.09.34-.11.52-.07.18.05.32.16.41.32l5.51,9.54c.09.16.11.34.06.51Z"/>
</svg>