<?xml version="1.0" encoding="UTF-8"?>
<svg id="Layer_1" xmlns="http://www.w3.org/2000/svg" version="1.1" viewBox="0 0 512 640">
  <!-- Generator: Adobe Illustrator 29.8.2, SVG Export Plug-In . SVG Version: 2.1.1 Build 3)  -->
  <defs>
    <style>
      .st0 {
        stroke: #000;
        stroke-miterlimit: 10;
        stroke-width: 5px;
      }
    </style>
  </defs>
  <path class="st0" d="M407.7,370.78l30.36-50c16.07-26.48,53.43-5.5,38.58,21.49-16.78,30.53-33.19,59.13-51.7,94.68-7.4,12.7-18.51,21-32.46,25.31-16.84,6.04-26.82,11.62-32.65,17.06h6.17c2.75,0,4.99,2.24,4.99,4.99v55.25c0,3.34-3.23,5.73-6.41,4.79l-99.47-20.27c-2.35-.48-4-2.58-4-4.9v-34.87c0-2.75,2.24-4.99,4.99-4.99h7.43c-1.19-21.97,2.55-41.05,10.8-56.49,10.89-20.44,33.31-37.05,56.41-40.28l31.97-22.17c13.16-9.1,28.89-3.32,34.99,10.4h0ZM404.46,254.02c-5.05,77.84-69.82,139.01-148.45,139.01s-148.79-66.61-148.79-148.79,66.62-148.79,148.79-148.79c31.95,0,62.5,10.15,87.87,28.74,5.3,3.88-.6,11.93-5.9,8.05-55.04-40.39-131.63-34.64-180.1,13.87-54.2,54.2-54.2,142.07,0,196.27s142.07,54.2,196.27,0c33.59-33.59,47.96-82.35,37.08-129.6-34.44-3.35-54.51-40.62-38.32-71.29.94-1.76,2.78-2.75,4.68-2.66,8.36-.03,16.61,2.07,23.9,6.09,21.49,11.85,30.64,37.81,21.74,60.46,13.24-21.83,38.64-31.95,63.41-25.97,1.76.42,3.23,1.79,3.71,3.66,10.34,40.56-24.73,78.24-65.89,70.95h0ZM279.66,154.92c8.36,10.23,15.34,21.26,20.69,32.94,7.17-2.55,14.03-5.7,20.55-9.38-11.31-11.14-25.43-19.39-41.24-23.56h0ZM304.2,197.07c5.05,13.44,7.99,27.55,8.53,42.15h35.52c-1.08-20.1-8.59-38.52-20.49-53.21-7.46,4.37-15.34,8.11-23.56,11.06h0ZM312.74,249.23c-.54,14.6-3.49,28.74-8.53,42.15,8.22,2.98,16.1,6.69,23.53,11.06,11.93-14.66,19.45-33.08,20.52-53.21h-35.52ZM300.35,300.62c-5.36,11.65-12.33,22.71-20.69,32.94,15.82-4.17,29.93-12.42,41.24-23.56-6.52-3.68-13.38-6.83-20.55-9.38h0ZM263.98,336.28c11.14-11.71,20.21-24.72,26.76-38.66-9.5-2.58-19.47-4.14-29.74-4.51v43.37c1-.06,1.99-.11,2.98-.2h0ZM294.68,288.32c4.73-12.42,7.51-25.51,8.05-39.09h-41.73v33.87c11.65.4,22.94,2.19,33.68,5.22h0ZM302.73,239.22c-.54-13.55-3.32-26.65-8.05-39.09-10.74,3.03-22.03,4.85-33.68,5.24v33.85h41.73,0ZM290.74,190.86c-6.55-13.95-15.62-26.96-26.76-38.66-.99-.08-1.98-.17-2.98-.23v43.4c10.26-.4,20.24-1.93,29.74-4.51h0ZM248.02,152.2c-11.11,11.71-20.18,24.72-26.76,38.66,9.52,2.58,19.47,4.11,29.74,4.51v-43.4c-1,.06-1.99.14-2.98.23h0ZM217.32,200.13c-4.71,12.44-7.48,25.54-8.05,39.09h41.73v-33.85c-11.63-.39-22.94-2.2-33.68-5.24h0ZM209.27,249.23c.57,13.58,3.35,26.67,8.05,39.09,10.74-3.03,22.05-4.82,33.68-5.22v-33.87h-41.73ZM221.26,297.62c6.58,13.95,15.65,26.96,26.76,38.66.99.08,1.98.14,2.98.2v-43.37c-10.26.37-20.21,1.93-29.74,4.51h0ZM232.34,333.56c-8.36-10.23-15.34-21.29-20.69-32.94-7.17,2.55-14.03,5.7-20.52,9.38,11.28,11.14,25.43,19.39,41.21,23.56h0ZM207.83,291.38c-5.05-13.41-7.99-27.55-8.56-42.15h-35.52c1.08,20.13,8.59,38.55,20.52,53.21,7.43-4.37,15.31-8.08,23.56-11.06h0ZM199.26,239.22c.57-14.6,3.52-28.72,8.53-42.15-8.22-2.95-16.1-6.69-23.53-11.06-11.93,14.68-19.45,33.11-20.52,53.21h35.52ZM211.65,187.86c5.36-11.68,12.33-22.71,20.69-32.94-15.79,4.17-29.93,12.42-41.22,23.56,6.5,3.68,13.36,6.83,20.53,9.38h0ZM256.01,141.85c56.52,0,102.39,45.84,102.39,102.39s-45.86,102.39-102.39,102.39-102.39-45.84-102.39-102.39,45.84-102.39,102.39-102.39h0ZM461.33,188.48c-32.94-6.21-61.85,22.68-55.62,55.62,32.94,6.21,61.83-22.68,55.62-55.62h0ZM376.69,153.67c-5.02-2.78-10.6-4.42-16.27-4.79-10.66,24.58,6.26,52.3,33.02,54.08,7.93-18.3.71-39.65-16.75-49.29h0ZM173.72,515.26c0,6.58-9.95,6.55-9.95,0v-11.31c0-6.55,9.95-6.55,9.95,0v11.31ZM240.91,489.3h-89.89v44.16l89.89-18.34v-25.82h0ZM146,479.32h6.18c-5.84-5.44-15.82-11.03-32.63-17.06-13.55-4.2-25.74-12.98-32.63-25.57l-51.56-94.42c-14.85-26.99,22.51-47.96,38.58-21.49l30.39,50c6.18-13.97,22-19.39,34.95-10.4l32,22.17c23.1,3.23,45.5,19.84,56.41,40.28,8.22,15.45,11.96,34.53,10.77,56.49h7.43c2.78,0,5.02,2.24,5.02,4.99l-.03,34.87c0,2.32-1.62,4.42-4,4.9l-99.47,20.27c-3.17.94-6.41-1.45-6.41-4.79v-55.25c0-2.75,2.25-4.99,5-4.99h0ZM165.87,479.32h62.62c2.38-41.24-13.78-75.57-55.19-86.09-2.1-.54-4.45-.25-6.04-1.33l-33.62-23.3c-14.8-10.26-30.05,12.27-15.51,22.34l40.31,27.92c2.24,1.59,2.83,4.68,1.25,6.94-1.56,2.27-4.65,2.83-6.92,1.28l-40.31-27.92c-3.85-2.66-6.49-5.84-8.14-9.21l-38.89-64.03c-9.33-15.31-29.96-4.17-21.32,11.57,5.44,9.89,15.62,28.57,25.8,47.25,8.56,15.7,17.38,31.41,25.77,47.2,6.15,10.54,15.19,17.21,26.79,20.81,13.21,4.03,35.66,14.24,43.4,26.57h0ZM348.23,515.26c0,6.55-9.95,6.58-9.95,0v-11.31c0-6.55,9.95-6.55,9.95,0v11.31ZM346.16,479.32c7.74-12.33,30.19-22.54,43.37-26.59,10.94-3.37,21.34-10.57,26.82-20.83,17.29-31.44,34.24-63.01,51.53-94.42,8.67-15.73-11.99-26.87-21.29-11.57l-38.92,64.03c-1.64,3.37-4.28,6.55-8.14,9.21l-40.28,27.92c-2.27,1.56-5.39.99-6.94-1.28-1.56-2.27-.99-5.36,1.28-6.94l40.31-27.92c14.71-10.2-.91-32.46-15.51-22.34l-33.65,23.3c-1.53,1.05-4.17.85-6.29,1.39-41.24,10.6-57.32,44.87-54.91,86.03h62.62ZM361.01,489.3h-89.92v25.82l89.92,18.34v-44.16h0Z"/>
</svg>