<?xml version="1.0" encoding="UTF-8"?>
<svg id="Layer_1" xmlns="http://www.w3.org/2000/svg" version="1.1" viewBox="0 0 110 135">
  <!-- Generator: Adobe Illustrator 29.8.2, SVG Export Plug-In . SVG Version: 2.1.1 Build 3)  -->
  <defs>
    <style>
      .st0 {
        stroke: #000;
        stroke-miterlimit: 10;
        stroke-width: 1.5px;
      }
    </style>
  </defs>
  <path class="st0" d="M37.62,45.27h32.12c1.8,0,1.82,2.76,0,2.77h-32.12c-1.8,0-1.82-2.76,0-2.77ZM37.62,60.34h16.06c1.82,0,1.8-2.76,0-2.77h-16.06c-1.82,0-1.81,2.77,0,2.77ZM56.59,63.72h-18.98c-1.82,0-1.8,2.76,0,2.77h18.98c1.82,0,1.8-2.76,0-2.77ZM37.62,69.87c-1.81,0-1.81,2.76,0,2.77h12.78c1.81,0,1.81-2.76,0-2.77h-12.78ZM69.74,51.42h-32.12c-1.82,0-1.8,2.77,0,2.77h32.12c1.82,0,1.8-2.77,0-2.77ZM18.08,57.35v-8.89c0-1.75,1.43-3.19,3.19-3.19h8.89c.88,0,1.68.36,2.25.94.58.58.94,1.38.94,2.25v8.89c0,1.76-1.43,3.19-3.19,3.19h-8.89c-1.76,0-3.19-1.44-3.19-3.19ZM20.85,57.35c0,.23.19.42.42.42h8.89c.23,0,.42-.19.42-.42v-8.89c0-.23-.19-.42-.42-.42h-8.89c-.11,0-.22.05-.3.12h0c-.07.07-.12.18-.12.3v8.89ZM22.36,30.98h19.68c3.7-.12,5.71,4.8,3.02,7.29-.78.78-1.85,1.26-3.02,1.26h-19.68c-5.63-.15-5.64-8.4,0-8.55ZM22.36,36.76h19.68c1.96,0,1.97-3,0-3.01h-19.68c-1.96.02-1.97,2.99,0,3.01ZM77.84,93.27c-17.48-.54-17.48-25.91,0-26.45,17.48.54,17.48,25.91,0,26.45ZM85.23,72.65c-10.07-9.47-24.26,4.72-14.78,14.79,10.07,9.48,24.26-4.72,14.78-14.79ZM100.39,87.55c-.69,2.55-4.5,3.02-6.05,4.57-1.01,1.92-.28,5.69-2.46,7.1-.61.5-1.35.66-2.14.68v15.7c.03,1.06-1.24,1.76-2.12,1.18l-9.79-5.6-9.83,5.62c-.89.54-2.1-.17-2.07-1.2v-9.36H16.83c-2.04,0-3.88-.84-5.24-2.18-1.34-1.34-2.18-3.2-2.18-5.24V25.42c-.01-4.08,3.34-7.42,7.41-7.42h43.25s.06.02.09.02c.14,0,.27.03.4.08.02,0,.03,0,.05.02.16.07.31.15.45.3l17.77,17.77c.13.12.22.27.29.42.01.02.02.05.02.07.04.12.07.25.08.38,0,.04.02.07.02.11v19.4c1.96.8,3.42,3.25,5.07,4.09,2.16.41,5.56-1.43,7.58.23,2.18,1.41,1.46,5.18,2.46,7.1.35.48,1.28.91,2.21,1.34,4.14,1.59,5.07,4.29,2.74,8.11-.5.96-1,1.93-1,2.63.24,2.29,3.07,5.01,2.1,7.51h0ZM61.46,31.12c0,1.28.52,2.44,1.37,3.28.84.85,2,1.36,3.28,1.37h8.39l-13.04-13.03v8.39ZM65.94,99.91c-.79-.02-1.53-.18-2.14-.68-2.18-1.41-1.46-5.18-2.47-7.1-.35-.48-1.28-.91-2.21-1.34-4.14-1.59-5.07-4.29-2.74-8.11,1.27-2.11,1.26-3.14,0-5.26-2.32-3.8-1.43-6.51,2.74-8.11.93-.43,1.86-.86,2.21-1.34,1.01-1.92.28-5.69,2.47-7.1,2.02-1.66,5.42.18,7.58-.23,1.66-.84,3.12-3.29,5.07-4.09v-18.01s-10.34,0-10.34,0c-4.07,0-7.42-3.34-7.42-7.42v-10.35H16.82c-1.28,0-2.44.52-3.28,1.36h0c-.84.85-1.37,2.01-1.37,3.29v73.42c0,2.55,2.09,4.65,4.65,4.65h49.11v-3.57ZM86.97,99.62c-.97-.16-1.9-.31-2.67-.16-2.03,1.02-3.74,4.51-6.46,4.36-2.71.14-4.44-3.34-6.46-4.36-.77-.15-1.7,0-2.67.16v13.61c2.8-1.6,5.62-3.3,8.44-4.83.41-.23.93-.25,1.38,0l8.45,4.84v-13.61ZM95.52,80.05c-.19-2.1,2.39-4.84,2.25-6.64-.19-.57-1.29-1.08-2.38-1.58-1.26-.59-2.51-1.16-3.28-2.22-.78-1.07-.95-2.45-1.12-3.82-.3-2.99-.59-3.2-3.55-2.6-2.95.8-5.22.07-7.15-2.31-2.14-2.36-2.76-2.38-4.91,0-1.93,2.38-4.2,3.1-7.15,2.31-2.94-.59-3.25-.41-3.55,2.6-.17,1.38-.34,2.76-1.12,3.82-.77,1.05-2.02,1.63-3.28,2.22-1.09.5-2.19,1.02-2.38,1.58-.2.57.38,1.65.93,2.74.65,1.26,1.32,2.54,1.32,3.9,0,1.37-.67,2.64-1.32,3.91-1.47,2.7-1.39,3.09,1.44,4.32,1.26.59,2.51,1.16,3.28,2.22.78,1.07.95,2.45,1.12,3.82.14,1.17.29,2.35.75,2.68,1.63.64,4.93-.98,6.81-.16,2.05.49,3.77,3.86,5.59,4.21.7,0,1.59-.92,2.46-1.82,1.93-2.38,4.2-3.1,7.15-2.31,1.17.21,2.33.42,2.8.08,1.09-1.36.53-4.98,1.87-6.51,1.05-1.74,4.73-2.32,5.66-3.8.13-1.81-2.43-4.54-2.25-6.64h0ZM51.56,76.02h-13.94c-1.82,0-1.81,2.76,0,2.77h13.94c1.82,0,1.81-2.76,0-2.77ZM19.47,84.94h31.13c1.82,0,1.8-2.76,0-2.77h-31.13c-1.82,0-1.8,2.77,0,2.77ZM50.98,88.32h-31.51c-1.82,0-1.8,2.76,0,2.77h31.51c1.82,0,1.8-2.76,0-2.77ZM18.08,75.8v-8.89c0-1.76,1.43-3.19,3.19-3.19h8.89c.88,0,1.68.36,2.25.94s.94,1.38.94,2.25v8.89c0,1.75-1.45,3.2-3.19,3.19h-8.89c-1.76,0-3.19-1.43-3.19-3.19h0ZM20.85,75.8c0,.23.19.42.42.42h8.89c.24,0,.42-.18.42-.42v-8.89c0-.24-.18-.42-.42-.42h-8.89c-.11,0-.22.05-.3.12-.08.08-.12.18-.12.3v8.89Z"/>
</svg>