<?xml version="1.0" encoding="UTF-8"?>
<svg id="Layer_1" xmlns="http://www.w3.org/2000/svg" version="1.1" viewBox="0 0 110 135">
  <!-- Generator: Adobe Illustrator 29.8.2, SVG Export Plug-In . SVG Version: 2.1.1 Build 3)  -->
  <defs>
    <style>
      .st0 {
        fill-rule: evenodd;
        stroke: #000;
        stroke-miterlimit: 10;
      }
    </style>
  </defs>
  <path class="st0" d="M55,78.84h-.93c-1.04,0-1.98,0-2.82,0v1.34c0,.41.17.77.43,1.04.27.27.64.43,1.04.43h4.54c.41,0,.77-.17,1.04-.43.27-.27.43-.64.43-1.04v-1.34h-2.83s-.12,0-.12,0h-.79ZM77.03,34.82c.57-.33,1.29-.13,1.62.43.33.57.13,1.29-.43,1.62l-4.88,2.82c-.57.33-1.29.13-1.62-.43-.33-.57-.13-1.29.43-1.62l4.88-2.82ZM67.68,26.46c.36-.54,1.1-.69,1.64-.32.54.36.69,1.1.32,1.64l-3.13,4.68c-.36.54-1.1.69-1.64.32-.54-.36-.69-1.1-.32-1.64l3.13-4.68ZM31.79,36.87c-.57-.33-.76-1.05-.43-1.62.33-.57,1.05-.76,1.62-.43l4.88,2.82c.57.33.76,1.05.43,1.62-.33.57-1.05.76-1.62.43l-4.88-2.82ZM40.36,27.78c-.36-.54-.22-1.28.32-1.64.54-.36,1.28-.22,1.64.32l3.13,4.68c.36.54.22,1.28-.32,1.64-.54.36-1.28.22-1.64-.32l-3.13-4.68ZM53.82,23.7c0-.66.53-1.19,1.19-1.19s1.19.53,1.19,1.19v5.64c0,.66-.53,1.19-1.19,1.19s-1.19-.53-1.19-1.19v-5.64ZM68.65,61.96c1.25-1.43,2.29-3.06,3.04-4.84.93-2.18,1.45-4.58,1.45-7.1,0-.94-.07-1.87-.21-2.77l.7-.4c1.09-.64,2.88-1.68,3.87-2.18l6.48,6.49-2.45,4.49-.48.84c-.84,1.45-1.16,2-1.07,2.83.06.5.25.84.55,1.39.39.7,1.04,1.87,1.81,4.38l.07.26c.29,1,.38,1.27,1.57,1.68h0c.37.13.77.22,1.16.32.2.05.38.09.61.16.41.12,1.06.28,1.8.47,1.32.33,2.92.74,3.85,1.05l.02,9.36c-1.15.38-3.39.95-5.12,1.39-.79.2-1.48.38-1.94.5-1.59.44-1.73.9-2.17,2.38-.16.55-.39,1.34-.9,2.48-.35.78-.6,1.26-.79,1.62-.37.7-.56,1.07-.55,1.66,0,.64.25,1.06.77,1.95.2.34.45.77.69,1.22.27.49.59,1.02.95,1.61.61,1.01,1.32,2.19,1.71,2.99l-6.57,6.57c-.74-.36-1.8-1-2.55-1.46l-.53-.32c-.8-.47-1.3-.79-1.71-1.04-1.3-.8-1.92-1.19-2.67-1.27-.76-.08-1.25.16-2.15.61l-.09.04c-.44.23-1.01.52-1.71.82-.25.11-.66.24-1.09.37-1.01.31-2.14.66-2.75,1.27l-.08.09c-.55.67-1.02,2.64-1.5,4.66h0c-.32,1.34-.65,2.71-.93,3.55l-9.39.02c-.28-.84-.61-2.19-.93-3.52-.5-2.07-.98-4.08-1.52-4.73l-.07-.08c-.61-.6-1.75-.95-2.74-1.25-.39-.12-.76-.23-.99-.33-.89-.38-1.5-.7-1.96-.93-.87-.45-1.32-.68-2.07-.61-.7.07-1.25.41-2.41,1.12-.48.29-1.08.67-1.95,1.17l-.64.38c-.75.45-1.8,1.07-2.53,1.43l-6.57-6.59c.41-.87,1.22-2.21,1.85-3.27.26-.44.5-.83.71-1.21.24-.42.5-.85.71-1.21.55-.92.81-1.36.83-2.02.02-.61-.19-1.02-.58-1.79-.18-.35-.41-.81-.74-1.55-.38-.86-.6-1.57-.78-2.13-.43-1.36-.68-2.16-1.86-2.59l-.07-.02c-.68-.23-1.89-.54-3.21-.86-1.53-.38-3.22-.79-4.2-1.13l-.02-9.36c1.16-.38,3.48-.98,5.24-1.43.71-.18,1.33-.34,1.84-.48,1.58-.43,1.71-.88,2.15-2.36.16-.55.39-1.34.9-2.49.33-.74.57-1.2.75-1.55.38-.74.58-1.13.57-1.72,0-.65-.25-1.08-.77-1.98-.18-.32-.41-.71-.63-1.12l-.03-.07c-.34-.62-.77-1.38-1.2-2.14-.48-.84-.95-1.66-1.4-2.53l6.51-6.5c.46.23,1.11.58,1.82.98.83.46,1.87,1.06,2.76,1.58-.14.91-.21,1.84-.21,2.79,0,2.51.52,4.91,1.45,7.1.75,1.77,1.79,3.4,3.04,4.84-1.27,1.47-2.3,3.14-3.04,4.96-.86,2.1-1.33,4.39-1.33,6.79,0,4.98,2.02,9.48,5.28,12.74,3.26,3.26,7.77,5.28,12.74,5.28s9.48-2.02,12.74-5.28c3.26-3.26,5.28-7.77,5.28-12.74,0-2.4-.47-4.7-1.33-6.79-.74-1.82-1.78-3.5-3.05-4.96h0ZM42.99,63.7c.29.36.52.71.69,1.06.23.48.35.95.36,1.41v.1s0,7.57,0,7.57h0v.04c.04,1.18.47,2.28,1.18,3.14.71.87,1.69,1.51,2.84,1.79.09.02.18.04.28.04h.54s0,1.33,0,1.33c0,1.06.43,2.02,1.13,2.72.7.7,1.66,1.13,2.72,1.13h4.54c1.06,0,2.02-.43,2.72-1.13.7-.7,1.13-1.66,1.13-2.72v-1.34h.5c.11,0,.21,0,.32-.03,1.15-.28,2.13-.92,2.84-1.79.68-.84,1.11-1.89,1.17-3.02,0-.05.01-.1.01-.16v-7.57h0c0-.5.12-1,.36-1.51.17-.35.4-.71.69-1.06,1.02,1.23,1.86,2.61,2.48,4.12.74,1.82,1.15,3.81,1.15,5.9,0,4.32-1.75,8.23-4.58,11.06-2.83,2.83-6.74,4.58-11.06,4.58s-8.23-1.75-11.06-4.58c-2.83-2.83-4.58-6.74-4.58-11.06,0-2.09.41-4.09,1.15-5.9.6-1.51,1.45-2.9,2.47-4.12h0ZM72.38,44.84l.05-.03c1.42-.83,3.95-2.3,4.9-2.64.43-.17.93-.08,1.27.27l7.67,7.69c.36.36.46.93.2,1.4l-2.87,5.27-.05.1-.46.8c-.56.96-.77,1.32-.76,1.38,0,.03.11.21.27.5.43.78,1.15,2.08,2,4.83.02.05.09.25.09.28.02.07.03.09.05.11h0c.22.08.6.18.96.26.27.07.54.13.69.18.42.12,1.04.28,1.73.45,1.8.46,4.11,1.04,4.98,1.49.39.2.65.59.65,1.06l.03,10.86c.04.46-.2.93-.64,1.15-.82.43-3.96,1.23-6.27,1.82-.77.2-1.45.37-1.9.5-.32.09-.36.25-.52.77-.18.62-.45,1.5-1,2.76-.34.76-.64,1.33-.86,1.76-.19.36-.29.53-.29.54s.14.26.46.79c.18.3.4.68.72,1.27.17.31.52.89.9,1.52.87,1.44,1.93,3.18,2.21,4.18.11.4.01.85-.3,1.16l-7.64,7.64c-.29.32-.75.46-1.2.34-.92-.26-2.63-1.29-3.74-1.97l-.51-.3c-.6-.36-1.23-.75-1.75-1.07-.98-.61-1.46-.9-1.67-.92-.09,0-.35.12-.83.36l-.09.05c-.44.22-1,.51-1.85.88-.37.16-.85.31-1.35.46-.7.21-1.46.45-1.73.64-.21.38-.6,2-1,3.67h0c-.46,1.91-.93,3.88-1.42,4.76-.2.36-.59.61-1.04.61l-10.92.02c-.43.01-.85-.21-1.07-.62-.47-.86-.94-2.82-1.4-4.73-.41-1.7-.81-3.37-1.01-3.71-.25-.18-1.03-.42-1.71-.63-.46-.14-.89-.27-1.22-.41-.96-.41-1.62-.75-2.11-1-.47-.24-.71-.37-.76-.36-.15.02-.55.26-1.39.78-.53.33-1.2.74-1.99,1.21l-.62.37c-1.12.67-2.81,1.68-3.7,1.93-.4.11-.85,0-1.16-.3l-7.67-7.69c-.29-.29-.42-.73-.3-1.15.27-.99,1.47-2.99,2.34-4.46.3-.5.57-.95.68-1.16.34-.59.55-.96.73-1.26.34-.56.5-.83.5-.87,0-.02-.11-.23-.32-.64-.21-.43-.5-.98-.8-1.67-.43-.96-.68-1.75-.87-2.39-.2-.64-.32-1.03-.42-1.09h-.02c-.55-.2-1.72-.48-3-.8-2.06-.51-4.39-1.08-5.34-1.58-.39-.2-.65-.59-.65-1.06l-.03-10.86c-.04-.46.2-.93.64-1.15.8-.42,4.05-1.26,6.38-1.86.78-.2,1.45-.38,1.81-.47.3-.08.35-.24.5-.75.18-.62.45-1.51,1.01-2.77.31-.7.59-1.25.81-1.68.2-.4.31-.61.31-.62,0-.02-.15-.28-.46-.84-.17-.29-.37-.64-.65-1.16l-.04-.06c-.47-.87-.82-1.49-1.17-2.1-.61-1.06-1.2-2.1-1.82-3.33-.26-.45-.2-1.04.19-1.43l7.69-7.67c.29-.29.73-.42,1.15-.3.48.13,1.64.74,2.92,1.45.76.43,1.5.85,2.16,1.23.87-2.91,2.46-5.51,4.55-7.6,3.28-3.28,7.81-5.31,12.82-5.31s9.54,2.03,12.82,5.31c2.1,2.1,3.69,4.71,4.56,7.63h0ZM49.89,76.48c.06,0,.12-.01.18-.01h4.94s4.93,0,4.93,0c.06,0,.12,0,.18.01h1.4c.57-.16,1.07-.5,1.43-.94.37-.46.61-1.03.64-1.64v-1.32h-17.19v1.27h0c.03.63.27,1.22.64,1.69.36.45.86.78,1.43.95h1.4ZM46.41,70.2h17.19v-3.68l-5.75-.07s-.07,0-.1,0c-.04,0-.09,0-.13,0l-5.03-.06c-.12.04-.25.06-.38.06-.14,0-.28-.02-.41-.07l-5.39-.06v3.88s0,0,0,0ZM45.92,63.95l5.1.06v-9.14h-1.91c-1.18,0-2.25-.48-3.03-1.25h0c-.77-.78-1.25-1.85-1.25-3.03s.48-2.25,1.25-3.03c.77-.77,1.85-1.25,3.03-1.25s2.25.48,3.03,1.25h0c.78.78,1.26,1.85,1.26,3.03v1.91h3.17v-1.91c0-1.14.45-2.18,1.19-2.95l.07-.07c.77-.77,1.85-1.25,3.03-1.25s2.25.48,3.03,1.25h0c.77.78,1.25,1.85,1.25,3.03s-.48,2.25-1.25,3.03h0c-.78.77-1.85,1.25-3.02,1.25h0s-1.91,0-1.91,0v9.24l5.07.06c.06-.15.12-.29.19-.44.38-.77.93-1.53,1.67-2.27l.05-.05c1.52-1.46,2.75-3.23,3.59-5.2.8-1.89,1.25-3.97,1.25-6.17,0-4.35-1.76-8.29-4.61-11.14-2.85-2.85-6.79-4.61-11.14-4.61s-8.29,1.76-11.14,4.61c-2.85,2.85-4.61,6.79-4.61,11.14,0,2.2.45,4.28,1.25,6.17.83,1.95,2.04,3.69,3.53,5.14l.15.14c.72.73,1.27,1.48,1.64,2.24.04.07.07.15.11.23h0ZM53.39,64.04l3.17.04v-9.21h-3.17v9.18ZM51.02,52.5v-1.91c0-.53-.21-1.01-.55-1.35h0c-.34-.34-.82-.56-1.35-.56s-1,.21-1.35.56c-.34.34-.56.82-.56,1.35s.21,1.01.55,1.35h0c.34.34.82.55,1.35.55h0s1.91,0,1.91,0ZM58.94,52.5h1.91c.53,0,1.01-.21,1.35-.56h0c.34-.35.56-.82.56-1.35s-.21-1.01-.55-1.35h0c-.34-.34-.82-.56-1.35-.56s-1,.21-1.35.56l-.05.05c-.32.34-.51.8-.51,1.3v1.91Z"/>
</svg>