<?xml version="1.0" encoding="UTF-8"?>
<svg id="Layer_1" xmlns="http://www.w3.org/2000/svg" version="1.1" viewBox="0 0 110 135">
  <!-- Generator: Adobe Illustrator 29.8.2, SVG Export Plug-In . SVG Version: 2.1.1 Build 3)  -->
  <defs>
    <style>
      .st0 {
        fill-rule: evenodd;
        stroke: #000;
        stroke-miterlimit: 10;
        stroke-width: 1.1px;
      }
    </style>
  </defs>
  <path class="st0" d="M66.21,54.35c-.54-.54-1.27-.86-2.09-.86s-1.55.33-2.09.86c-.54.54-.86,1.27-.86,2.09s.33,1.55.86,2.09c.54.54,1.27.86,2.09.86s1.55-.33,2.09-.86c.54-.54.86-1.27.86-2.09s-.33-1.55-.86-2.09ZM85.66,46.05c-.54-.54-1.27-.86-2.09-.86s-1.55.33-2.09.86c-.54.54-.86,1.27-.86,2.09s.33,1.55.86,2.09c.54.54,1.27.86,2.09.86s1.55-.33,2.09-.86c.54-.54.86-1.27.86-2.09s-.33-1.55-.86-2.09ZM46.76,66.4c-.54-.54-1.27-.86-2.09-.86s-1.55.33-2.09.86c-.54.54-.86,1.27-.86,2.09s.33,1.55.86,2.09c.54.54,1.27.86,2.09.86s1.55-.33,2.09-.86c.54-.54.86-1.27.86-2.09s-.33-1.55-.86-2.09ZM27.3,57.23c-.54-.54-1.27-.86-2.09-.86s-1.55.33-2.09.86c-.54.54-.86,1.27-.86,2.09s.33,1.55.86,2.09c.54.54,1.27.86,2.09.86s1.55-.33,2.09-.86c.54-.54.86-1.27.86-2.09s-.33-1.55-.86-2.09ZM95.26,106.47H13.53v3.43h81.74v-3.43h0ZM79.81,104.09h7.53v-36.4h-7.53v36.4ZM60.36,104.09h7.53v-29h-7.53v29ZM40.91,104.09h7.53v-20.23h-7.53v20.23ZM21.45,104.09h7.53v-30.76h-7.53v30.76ZM12.34,104.09h6.73v-31.95c0-.66.54-1.19,1.19-1.19h9.91c.66,0,1.19.54,1.19,1.19v31.95h7.16v-21.42c0-.66.54-1.19,1.19-1.19h9.91c.66,0,1.19.54,1.19,1.19v21.42h7.16v-30.19c0-.66.54-1.19,1.19-1.19h9.91c.66,0,1.19.54,1.19,1.19v30.19h7.16v-37.59c0-.66.54-1.19,1.19-1.19h9.91c.66,0,1.19.54,1.19,1.19v37.59h6.73c.66,0,1.19.54,1.19,1.19v5.82c0,.66-.54,1.19-1.19,1.19H12.33c-.66,0-1.19-.54-1.19-1.19v-5.82c0-.66.54-1.19,1.19-1.19h0ZM84.77,34.79h10.24l-2.68-2.95c-.41-.45-.42-1.14,0-1.6l2.68-2.95h-10.24v7.5h0ZM84.77,24.91h12.91c.66,0,1.19.54,1.19,1.19v.04c0,.34-.14.64-.36.85l-3.69,4.05,3.73,4.11c.21.23.31.52.31.8h0v.04c0,.66-.54,1.19-1.19,1.19h-12.91v5.76c1,.23,1.89.73,2.58,1.43.96.96,1.56,2.3,1.56,3.77s-.6,2.81-1.56,3.77c-.96.96-2.3,1.56-3.77,1.56s-2.81-.6-3.77-1.56c-.2-.2-.38-.41-.55-.64l-9.88,4.21c.05.31.09.62.09.95,0,1.47-.6,2.81-1.56,3.77-.96.96-2.3,1.56-3.77,1.56s-2.81-.6-3.77-1.56c-.1-.1-.19-.2-.28-.3l-10.29,7.02c.15.49.23,1.02.23,1.56,0,1.47-.6,2.81-1.56,3.77-.96.96-2.3,1.56-3.77,1.56s-2.81-.6-3.77-1.56-1.56-2.3-1.56-3.77c0-.3.03-.61.07-.9l-10.03-4.91c-.12.14-.24.29-.38.42-.96.96-2.3,1.56-3.77,1.56s-2.81-.6-3.77-1.56c-.34-.34-.63-.73-.87-1.14l-6.66,3.18c-.59.28-1.3.03-1.59-.56-.28-.59-.03-1.3.56-1.59l7-3.34c0-.11,0-.21,0-.32,0-1.47.6-2.81,1.56-3.77.96-.96,2.3-1.56,3.77-1.56s2.81.6,3.77,1.56c.96.96,1.56,2.3,1.56,3.77,0,.42-.05.83-.14,1.22l9.91,4.85c.17-.24.37-.47.57-.68.96-.96,2.3-1.56,3.77-1.56s2.81.6,3.77,1.56c.05.05.1.1.14.15l10.37-7.07c-.11-.43-.17-.89-.17-1.36,0-1.47.6-2.81,1.56-3.77.96-.96,2.3-1.56,3.77-1.56s2.81.6,3.77,1.56c.2.2.38.41.55.64l9.88-4.21c-.05-.31-.09-.62-.09-.95,0-1.47.6-2.81,1.56-3.77.7-.7,1.59-1.2,2.58-1.43v-19.03c0-.66.54-1.19,1.19-1.19s1.19.54,1.19,1.19v1.01Z"/>
</svg>