<?xml version="1.0" encoding="UTF-8"?>
<svg id="Layer_1" xmlns="http://www.w3.org/2000/svg" version="1.1" viewBox="0 0 110 135">
  <!-- Generator: Adobe Illustrator 29.8.2, SVG Export Plug-In . SVG Version: 2.1.1 Build 3)  -->
  <defs>
    <style>
      .st0 {
        fill-rule: evenodd;
        stroke: #000;
        stroke-miterlimit: 10;
      }
    </style>
  </defs>
  <path class="st0" d="M20.81,33.87c1.16-1.19,2.77-1.93,4.56-1.95,1.79-.02,3.42.68,4.6,1.84,1.19,1.16,1.93,2.77,1.95,4.56.02,1.79-.68,3.42-1.84,4.6-1.16,1.19-2.77,1.93-4.56,1.95-1.79.02-3.42-.68-4.6-1.84-1.19-1.16-1.93-2.77-1.95-4.56-.02-1.79.68-3.42,1.84-4.6h0ZM25.4,34.3c-1.13.01-2.14.49-2.87,1.23-.73.75-1.18,1.78-1.17,2.91.01,1.13.49,2.14,1.23,2.87.75.73,1.78,1.18,2.91,1.17,1.13-.01,2.14-.49,2.87-1.23.73-.75,1.18-1.78,1.17-2.91-.01-1.13-.49-2.14-1.23-2.87-.75-.73-1.78-1.18-2.91-1.17h0ZM29.41,28.74c-.32-.13-.64-.24-.96-.34-.44-.1-.8-.45-.9-.92l-.46-2.12-3.42.04-.38,2.02c-.06.45-.38.85-.84.98-.35.1-.69.23-1.03.37-.32.14-.63.28-.92.44-.38.24-.88.25-1.28,0l-1.83-1.18-2.39,2.45,1.18,1.73c.25.36.3.84.08,1.26-.18.33-.34.66-.47.99-.13.32-.24.64-.34.96-.1.44-.45.8-.92.9l-2.12.46.04,3.42,2.02.38c.45.06.85.38.98.84.1.35.23.69.37,1.03.14.32.28.63.44.92.24.38.25.88,0,1.28l-1.18,1.83,2.45,2.39,1.73-1.18c.36-.25.84-.3,1.26-.08.33.18.66.33.99.47.32.13.64.24.96.34.44.1.8.45.9.92l.46,2.12,3.42-.04.38-2.02c.06-.45.38-.84.84-.98.35-.1.69-.23,1.03-.37.32-.14.63-.28.92-.44.38-.24.88-.25,1.28,0l1.83,1.18,2.39-2.45-1.18-1.73c-.25-.36-.3-.84-.08-1.26.18-.33.33-.66.47-.99.13-.32.24-.64.34-.96.1-.44.45-.8.92-.9l2.12-.46-.04-3.42-2.02-.38c-.45-.06-.84-.38-.98-.84-.1-.35-.23-.69-.37-1.03-.14-.32-.28-.63-.44-.92-.24-.38-.25-.88,0-1.28l1.18-1.83-2.45-2.39-1.73,1.18c-.36.25-.84.3-1.26.08-.33-.18-.66-.34-.99-.47h0ZM29.75,26.31l-.52-2.41h0c-.11-.55-.6-.95-1.18-.95l-5.31.07c-.58-.02-1.11.38-1.22.97l-.44,2.34c-.19.07-.38.14-.56.22-.19.08-.38.16-.57.25l-2.07-1.34h0c-.47-.3-1.1-.24-1.5.17l-3.72,3.81c-.42.4-.5,1.05-.16,1.54l1.34,1.97c-.08.18-.16.36-.24.55-.08.19-.15.38-.22.58l-2.41.52h0c-.55.12-.95.6-.95,1.18l.07,5.31c-.02.58.38,1.11.97,1.22l2.34.44c.07.19.14.38.22.56.08.19.16.38.25.57l-1.34,2.08h0c-.3.47-.24,1.1.17,1.5l3.81,3.72c.4.42,1.05.5,1.54.17l1.97-1.34c.18.08.36.17.55.24.19.08.38.15.58.22l.52,2.41h0c.11.54.6.95,1.18.94l5.31-.07c.58.02,1.11-.38,1.22-.97l.44-2.34c.19-.07.38-.14.56-.22.19-.08.38-.16.57-.25l2.08,1.34h0c.47.3,1.1.24,1.5-.17l3.72-3.81c.42-.4.5-1.05.17-1.54l-1.34-1.97c.08-.18.17-.36.24-.55.08-.19.15-.38.22-.58l2.41-.52h0c.54-.12.95-.6.94-1.18l-.07-5.31c.02-.58-.38-1.11-.97-1.22l-2.34-.44c-.07-.19-.14-.38-.22-.56-.08-.19-.16-.38-.25-.57l1.34-2.07h0c.3-.47.24-1.1-.17-1.5l-3.81-3.72c-.4-.42-1.05-.5-1.54-.16l-1.97,1.34c-.18-.08-.36-.16-.55-.24-.19-.08-.38-.15-.58-.22h0ZM59.44,109.65h8.98v-28.92h-8.98v28.92h0ZM39.32,109.65h8.98v-35.13h-8.98v35.13h0ZM19.2,109.65h8.98v-28.59h-8.98v28.59h0ZM24.84,66.44c-.29-.29-.7-.47-1.14-.47s-.85.18-1.14.47-.47.7-.47,1.14.18.85.47,1.14.7.47,1.14.47.85-.18,1.14-.47.47-.7.47-1.14-.18-.85-.47-1.14h0ZM44.58,58.26c-.29-.29-.7-.47-1.14-.47-.89,0-1.62.72-1.62,1.62s.72,1.62,1.62,1.62,1.62-.72,1.62-1.62c0-.45-.18-.85-.47-1.14h0ZM64.79,67.58c0-.89-.72-1.62-1.62-1.62s-1.62.72-1.62,1.62.72,1.62,1.62,1.62,1.62-.72,1.62-1.62h0ZM88.54,109.65v-43.37h-8.98v43.37h8.98ZM77.17,109.65v-44.56c0-.66.54-1.2,1.2-1.2h11.38c.66,0,1.2.54,1.2,1.2v44.56h7.85c.66,0,1.2.54,1.2,1.2s-.54,1.2-1.2,1.2H11.69c-.66,0-1.2-.54-1.2-1.2s.54-1.2,1.2-1.2h5.12v-29.79c0-.66.54-1.2,1.2-1.2h11.38c.66,0,1.2.54,1.2,1.2v29.79h6.35v-36.33c0-.66.54-1.2,1.2-1.2h11.38c.66,0,1.2.54,1.2,1.2v36.33h6.35v-30.12c0-.66.54-1.2,1.2-1.2h11.38c.66,0,1.2.54,1.2,1.2v30.12h6.35,0ZM81.75,45.48l5.47.38-21.88,18.35c-.62-.4-1.37-.63-2.17-.63-1.24,0-2.35.56-3.08,1.44l-12.67-5.25c.01-.12.02-.24.02-.36,0-1.11-.45-2.11-1.17-2.84s-1.73-1.17-2.84-1.17c-2.22,0-4.01,1.8-4.01,4.01,0,.12,0,.24.02.36l-12.67,5.25c-.08-.09-.16-.18-.25-.27-.73-.73-1.73-1.17-2.84-1.17-.76,0-1.48.21-2.08.58l-6.43-5.65c-.5-.44-1.25-.39-1.69.11-.44.5-.39,1.25.11,1.69l6.43,5.65c-.22.5-.35,1.05-.35,1.63,0,1.11.45,2.11,1.18,2.84.73.73,1.73,1.17,2.84,1.17s2.11-.45,2.84-1.17c.73-.73,1.17-1.73,1.17-2.84,0-.12,0-.24-.02-.36l12.67-5.25c.74.88,1.84,1.44,3.08,1.44s2.35-.56,3.08-1.44l12.67,5.25c-.01.12-.02.24-.02.36,0,2.22,1.8,4.01,4.01,4.01s4.01-1.8,4.01-4.01c0-.55-.11-1.07-.31-1.54l21.99-18.44-.39,5.62c-.04.66.46,1.23,1.11,1.27.66.04,1.23-.46,1.27-1.11l.58-8.43c0-.14,0-.27-.04-.4h0s0-.03,0-.03h0s0-.03,0-.03h0s0-.03,0-.03h0s0-.03,0-.03h0s0-.02,0-.02h0s0-.02,0-.02v-.02s-.01-.01-.01-.01v-.02s-.01,0-.01,0v-.02s-.01,0-.01,0v-.02s-.01,0-.01,0v-.02s-.02-.01-.02-.01h0s0-.02,0-.02h-.01s0-.02,0-.02h-.01s-.01-.03-.01-.03h0s-.02-.04-.04-.05h0s-.03-.03-.04-.05h0s-.01-.02-.01-.02h0s-.01-.02-.01-.02h-.01s0-.02,0-.02h-.01s0-.02,0-.02l-.02-.02h0s-.03-.02-.04-.04h0s-.04-.04-.07-.05h0s-.03-.02-.05-.03h0s-.02-.01-.02-.01h0s-.01-.01-.01-.01h-.01s-.01-.01-.01-.01h-.02s0-.01,0-.01c-.11-.06-.23-.09-.35-.12h-.03s0,0,0,0c-.02,0-.03,0-.05,0h-.03s0,0,0,0l-8.42-.58c-.66-.04-1.23.45-1.27,1.11-.04.66.46,1.23,1.11,1.27h0Z"/>
</svg>