<?xml version="1.0" encoding="UTF-8"?>
<svg id="Layer_1" xmlns="http://www.w3.org/2000/svg" version="1.1" viewBox="0 0 110 135">
  <!-- Generator: Adobe Illustrator 29.8.2, SVG Export Plug-In . SVG Version: 2.1.1 Build 3)  -->
  <defs>
    <style>
      .st0 {
        fill-rule: evenodd;
      }
    </style>
  </defs>
  <path class="st0" d="M55,70.89c-8.82,0-15.99,7.17-15.99,15.99s7.17,15.99,15.99,15.99,15.99-7.17,15.99-15.99-7.17-15.99-15.99-15.99ZM55,100.05c-7.26,0-13.17-5.91-13.17-13.17s5.91-13.17,13.17-13.17,13.17,5.91,13.17,13.17-5.91,13.17-13.17,13.17ZM47.57,50.49v2.89c0,1.7,1.2,3.12,2.8,3.45v.91c0,1.67,1.36,3.03,3.03,3.03h3.2c1.67,0,3.03-1.36,3.03-3.03v-.91c1.6-.34,2.8-1.76,2.8-3.45v-2.89c0-2.25,1.07-3.73,2.41-5.62,1.69-2.36,3.61-5.03,3.61-9.7,0-3.78-1.48-6.96-4.3-9.2-2.43-1.94-5.68-3-9.16-3s-6.73,1.07-9.16,3c-2.81,2.24-4.3,5.42-4.3,9.2,0,4.66,1.92,7.34,3.61,9.7,1.35,1.88,2.41,3.37,2.41,5.62h0ZM59.62,52.71v.67c0,.39-.32.71-.71.71h-7.8c-.39,0-.71-.32-.71-.71v-.67h9.23,0ZM54.44,49.89v-6.75c.37.02.75.02,1.12,0v6.75h-1.12ZM56.6,57.96h-3.2c-.11,0-.21-.1-.21-.21v-.84h3.63v.84c0,.11-.1.21-.21.21h0ZM55,25.79c5.12,0,10.64,2.94,10.64,9.38,0,3.76-1.5,5.84-3.08,8.05-1.35,1.89-2.75,3.84-2.93,6.66h-1.26v-7.4h0c1.72-.74,3.11-2.04,3.9-3.74,1-2.15.97-4.1-.09-5.22-.72-.77-1.81-.98-2.85-.57-2.01.8-3.33,3.48-3.68,7.35-.45.05-.86.05-1.31,0-.36-3.86-1.68-6.55-3.68-7.35-1.04-.41-2.13-.19-2.85.57-1.06,1.12-1.09,3.07-.09,5.22.79,1.7,2.18,3,3.9,3.73v7.41h-1.26c-.18-2.82-1.57-4.77-2.93-6.66-1.59-2.21-3.08-4.3-3.08-8.05,0-6.45,5.52-9.38,10.64-9.38h0ZM58.69,38.98c.39-1.96,1.07-2.98,1.5-3.3.03.32-.02.94-.46,1.88-.27.57-.62,1.04-1.04,1.42h0ZM51.32,38.98c-.41-.38-.77-.85-1.04-1.42-.44-.94-.49-1.56-.46-1.88.43.32,1.1,1.34,1.5,3.3h0ZM37.8,34.04c-.21-.52-.71-.86-1.27-.87l-8.23-.2,4.65-7.62c.26-.43.27-.96.04-1.41-.24-.44-.7-.72-1.2-.73l-9.49-.23c-.5-.01-.97.24-1.23.67l-10.39,16.97c-.26.43-.28.97-.04,1.41.24.44.7.72,1.2.73l7.42.18-5.05,13.19c-.24.63,0,1.34.56,1.7.23.14.49.22.75.22.38,0,.75-.15,1.02-.44l20.97-22.06c.38-.4.49-1,.28-1.51h0ZM19.35,50.56l3.25-8.48c.16-.43.11-.91-.14-1.29-.25-.38-.68-.61-1.14-.62l-6.97-.17,8.69-14.19,6.24.15-4.65,7.62c-.26.43-.27.96-.04,1.41.24.44.7.72,1.2.73l7.49.18-13.93,14.65ZM62.52,80.77c0-.78-.63-1.41-1.41-1.41h-.34v-2.47h-2.82v2.47h-1.55v-2.47h-2.82v2.47h-1.55v-2.47h-2.82v2.47h-.34c-.78,0-1.41.63-1.41,1.41v.34h-2.47v2.82h2.47v1.55h-2.47v2.82h2.47v1.55h-2.47v2.82h2.47v.34c0,.78.63,1.41,1.41,1.41h.34v2.47h2.82v-2.47h1.55v2.47h2.82v-2.47h1.55v2.47h2.82v-2.47h.34c.78,0,1.41-.63,1.41-1.41v-.34h2.47v-2.82h-2.47v-1.55h2.47v-2.82h-2.47v-1.55h2.47v-2.82h-2.47v-.34ZM59.71,91.58h-9.4v-9.4h9.4v9.4ZM95.52,31.95c.55.55.55,1.44,0,1.99-.27.27-.64.41-1,.41s-.72-.14-1-.41c-1.97-1.97-4.58-3.05-7.36-3.05s-5.4,1.08-7.36,3.05c-.55.55-1.44.55-1.99,0-.55-.55-.55-1.44,0-1.99,2.5-2.5,5.82-3.88,9.36-3.88s6.86,1.38,9.36,3.88h0ZM99.12,30.33c-.27.27-.64.41-1,.41s-.72-.14-1-.41c-2.93-2.93-6.83-4.55-10.97-4.55s-8.04,1.61-10.97,4.55c-.55.55-1.44.55-1.99,0-.55-.55-.55-1.44,0-1.99,3.46-3.46,8.07-5.37,12.96-5.37s9.5,1.91,12.96,5.37c.55.55.55,1.44,0,1.99h0ZM91.91,35.56c.55.55.55,1.44,0,1.99-.27.27-.64.41-1,.41s-.72-.14-1-.41c-1-1-2.34-1.56-3.76-1.56s-2.75.55-3.76,1.56c-.55.55-1.44.55-1.99,0-.55-.55-.55-1.44,0-1.99,1.54-1.54,3.58-2.38,5.75-2.38s4.21.85,5.75,2.38h0ZM86.16,38.64c-1.79,0-3.24,1.45-3.24,3.24,0,1.28.75,2.39,1.83,2.91v10.34l-12.95,12.95-1.14-1.14c-.86-.86-2.2-.98-3.2-.31l-2.14,1.44-4.29-1.78-.5-2.53c-.23-1.18-1.28-2.05-2.49-2.05h-6.06c-1.21,0-2.25.86-2.49,2.05l-.5,2.53-4.29,1.78-2.14-1.44c-1-.67-2.35-.54-3.2.31l-1.14,1.14-8-8c.35-.66.55-1.41.55-2.21,0-2.62-2.13-4.75-4.75-4.75s-4.75,2.13-4.75,4.75,2.13,4.75,4.75,4.75c.8,0,1.55-.2,2.21-.55l8,8-1.14,1.14c-.86.86-.98,2.2-.31,3.2l1.44,2.14-1.78,4.29-2.53.5c-1.18.23-2.05,1.28-2.05,2.49v6.06c0,1.21.86,2.25,2.05,2.49l2.53.5,1.78,4.29-1.44,2.14c-.67,1-.54,2.35.31,3.2l4.28,4.28c.86.86,2.2.98,3.2.31l2.14-1.44,4.29,1.78.5,2.53c.23,1.18,1.28,2.05,2.49,2.05h6.06c1.21,0,2.25-.86,2.49-2.05l.5-2.53,4.29-1.78,2.14,1.44c1,.67,2.35.54,3.2-.31l4.28-4.28c.86-.86.98-2.2.31-3.2l-1.44-2.14,1.78-4.29,2.53-.5c1.18-.23,2.05-1.28,2.05-2.49v-6.06c0-1.21-.86-2.25-2.05-2.49l-2.53-.5-1.78-4.29,1.44-2.14c.67-1,.54-2.35-.31-3.2l-1.14-1.14,13.37-13.37c.27-.27.41-.62.41-1v-10.93c1.08-.53,1.83-1.63,1.83-2.91,0-1.79-1.45-3.24-3.24-3.24h0ZM26,59.81c-1.06,0-1.93-.86-1.93-1.93s.86-1.93,1.93-1.93,1.93.86,1.93,1.93-.86,1.93-1.93,1.93ZM74.31,83.48l3.04.6v5.6l-3.04.6c-.46.09-.85.41-1.03.84l-2.36,5.68c-.18.43-.13.93.13,1.32l1.73,2.57-3.96,3.96-2.57-1.73c-.39-.26-.89-.31-1.32-.13l-5.68,2.36c-.43.18-.75.57-.84,1.03l-.6,3.04h-5.6l-.6-3.04c-.09-.46-.41-.85-.84-1.03l-5.68-2.36c-.43-.18-.93-.13-1.32.13l-2.57,1.73-3.96-3.96,1.73-2.57c.26-.39.31-.89.13-1.32l-2.36-5.68c-.18-.43-.57-.75-1.03-.84l-3.04-.6v-5.6l3.04-.6c.46-.09.85-.41,1.03-.84l2.36-5.68c.18-.43.13-.93-.13-1.32l-1.73-2.57,3.96-3.96,2.57,1.73c.39.26.89.31,1.32.13l5.68-2.36c.43-.18.75-.57.84-1.03l.6-3.04h5.6l.6,3.04c.09.46.41.85.84,1.03l5.68,2.36c.43.18.93.13,1.32-.13l2.57-1.73,3.96,3.96-1.73,2.57c-.26.39-.31.89-.13,1.32l2.36,5.68c.18.43.57.75,1.03.84ZM57.5,89.38h-4.99v-4.99h4.99v4.99Z"/>
</svg>