<?xml version="1.0" encoding="UTF-8"?>
<svg id="Layer_1" xmlns="http://www.w3.org/2000/svg" version="1.1" viewBox="0 0 110 135">
  <!-- Generator: Adobe Illustrator 29.8.2, SVG Export Plug-In . SVG Version: 2.1.1 Build 3)  -->
  <defs>
    <style>
      .st0 {
        stroke: #000;
        stroke-miterlimit: 10;
        stroke-width: .5px;
      }
    </style>
  </defs>
  <path class="st0" d="M71.04,82.14v-3.47l2.46,1.63c.4.27.93.26,1.32-.03.39-.28.57-.78.44-1.25l-.88-3.18,2.58-2.05c.38-.3.53-.81.38-1.27-.15-.46-.57-.78-1.05-.8l-3.29-.15-1.16-3.09c-.17-.45-.6-.75-1.09-.75s-.92.3-1.09.75l-1.16,3.09h-.15c-1-.86-2.21-1.51-3.62-1.93,1.22-1.12,1.99-2.74,1.99-4.52,0-3.39-2.76-6.15-6.15-6.15s-6.15,2.76-6.15,6.15c0,1.78.76,3.39,1.98,4.52-4.32,1.28-6.3,4.58-6.3,7.85v4.66c0,.64.52,1.16,1.16,1.16h18.6c.66-.01,1.18-.53,1.18-1.17h0ZM70.42,73.1l.34-.9.34.9c.16.44.57.73,1.04.75l.96.04-.75.6c-.36.29-.52.77-.4,1.22l.26.93-.81-.53c-.19-.13-.42-.19-.64-.19s-.45.06-.64.19l-.81.53.26-.93c.12-.45-.03-.93-.4-1.22l-.76-.6.96-.04c.47,0,.88-.31,1.04-.75h0ZM60.58,61.29c2.11,0,3.83,1.72,3.83,3.83s-1.72,3.83-3.83,3.83-3.83-1.72-3.83-3.83c0-2.12,1.72-3.83,3.83-3.83ZM52.45,80.98v-3.49c0-3.7,3.19-6.09,8.14-6.09,1.47,0,2.79.21,3.92.61-.15.13-.28.31-.34.51-.15.46,0,.97.38,1.27l2.58,2.05-.88,3.18c-.13.47.05.96.44,1.25.2.15.44.22.68.22.22,0,.45-.06.64-.19l.72-.47v1.15h-16.28ZM101.66,105.42c-.07-1.68-.78-3.19-2-4.23l-16.31-13.93c1.39-2.13,2.46-4.48,3.16-6.98,2.53-5.43,3.82-11.25,3.82-17.29,0-22.61-18.39-41-41-41S8.33,40.38,8.33,62.99s18.39,41,41,41c8.8,0,17.19-2.75,24.26-7.94.81-.41,1.59-.86,2.34-1.35l13.93,16.31c1.04,1.22,2.54,1.93,4.23,2,.09,0,.17.01.26.01,1.88,0,3.8-.8,5.17-2.17,1.41-1.44,2.2-3.47,2.14-5.43h0ZM84.54,61.82c-3.04-5.8-8.27-10.27-14.59-12.32-.45-2.45-1.01-4.78-1.68-6.97,3.98-1.09,7.62-2.53,10.75-4.28,5.36,6.43,8.68,14.62,8.95,23.57h-3.43ZM87.98,64.14c-.06,2.18-.31,4.33-.73,6.43-.26-2.25-.82-4.4-1.63-6.43h2.36ZM67.46,48.82c-1.71-.36-3.47-.56-5.29-.56-4.22,0-8.2,1.04-11.69,2.88v-6.18c5.41-.08,10.68-.73,15.53-1.87.57,1.84,1.05,3.75,1.45,5.73h0ZM50.48,42.64v-18.27c3.62.43,7.09,2.87,10.1,7.13,1.83,2.58,3.42,5.78,4.7,9.39-4.62,1.07-9.64,1.67-14.8,1.75h0ZM48.16,24.38v18.27c-5.17-.09-10.2-.69-14.82-1.76.7-1.96,1.5-3.82,2.39-5.54,3.41-6.58,7.79-10.42,12.43-10.97h0ZM48.16,44.96v7.56c-3.5,2.35-6.38,5.54-8.35,9.29h-9.98c.1-6.69,1.06-13.09,2.79-18.72,4.84,1.15,10.12,1.79,15.54,1.87h0ZM27.49,61.82H10.66c.27-8.95,3.58-17.14,8.95-23.57,3.13,1.74,6.77,3.18,10.75,4.28-1.78,5.81-2.76,12.41-2.87,19.29h0ZM27.49,64.14c.1,6.88,1.09,13.47,2.86,19.29-3.98,1.1-7.61,2.54-10.75,4.29-5.35-6.44-8.67-14.62-8.94-23.58h16.83ZM29.82,64.14h8.91c-1.16,2.9-1.8,6.06-1.8,9.37,0,2.89.49,5.67,1.39,8.26-1.96.29-3.87.65-5.71,1.08-1.73-5.62-2.69-12.02-2.79-18.71h0ZM39.21,83.99c1.96,4.27,5.08,7.91,8.95,10.51v7.08c-4.64-.55-9.01-4.4-12.42-10.97-.89-1.72-1.69-3.58-2.39-5.55,1.88-.43,3.84-.79,5.86-1.07h0ZM50.48,95.89c2.09,1.1,4.36,1.91,6.75,2.39-2.13,1.9-4.42,3.03-6.75,3.31v-5.7ZM39.25,73.51c0-12.64,10.28-22.92,22.92-22.92s22.92,10.28,22.92,22.92c0,12.64-10.28,22.93-22.93,22.93s-22.92-10.29-22.92-22.93ZM77.45,36.46c-2.9,1.56-6.25,2.86-9.89,3.85-2.35-6.7-5.7-11.91-9.61-15.04,7.58,1.74,14.33,5.72,19.5,11.19h0ZM40.63,25.3c-2.59,2.08-4.95,5.11-6.96,8.99-.97,1.87-1.84,3.9-2.59,6.04-3.64-.99-6.99-2.29-9.89-3.85,5.15-5.46,11.88-9.44,19.44-11.18h0ZM21.19,89.49c2.9-1.56,6.23-2.86,9.89-3.86.75,2.15,1.62,4.17,2.59,6.05,2.01,3.88,4.37,6.91,6.96,8.99-7.56-1.74-14.29-5.71-19.44-11.18h0ZM57.97,100.69c.74-.59,1.46-1.26,2.17-2.01.67.05,1.35.08,2.04.08s1.39-.03,2.08-.09c-2.04.86-4.14,1.54-6.29,2.02h0ZM81.99,89.15l3.41,2.91-4.68,4.68-2.91-3.41c1.55-1.23,2.95-2.63,4.18-4.18ZM97.85,109.19c-.98.98-2.36,1.54-3.69,1.48-.73-.03-1.76-.26-2.55-1.18l-9.37-10.98,4.94-4.94,10.98,9.37c.93.79,1.15,1.82,1.18,2.55.05,1.34-.51,2.72-1.49,3.7h0ZM82.73,73.51c0-11.33-9.22-20.56-20.56-20.56s-20.56,9.22-20.56,20.56,9.22,20.56,20.56,20.56,20.56-9.22,20.56-20.56ZM43.94,73.51c0-10.05,8.18-18.23,18.23-18.23s18.23,8.18,18.23,18.23-8.18,18.23-18.23,18.23-18.23-8.17-18.23-18.23Z"/>
</svg>