<?xml version="1.0" encoding="UTF-8"?>
<svg id="Layer_1" xmlns="http://www.w3.org/2000/svg" version="1.1" viewBox="0 0 110 135">
  <!-- Generator: Adobe Illustrator 29.8.2, SVG Export Plug-In . SVG Version: 2.1.1 Build 3)  -->
  <defs>
    <style>
      .st0 {
        fill-rule: evenodd;
        stroke: #000;
        stroke-miterlimit: 10;
        stroke-width: .5px;
      }
    </style>
  </defs>
  <path class="st0" d="M66.12,45.81h10.39v-12.44c0-1.06.86-1.91,1.91-1.91h1.6v-1.28c0-.5.2-.99.56-1.35.03-.03.07-.07.11-.1.34-.3.78-.46,1.23-.46h21.73c1.05,0,1.9.86,1.9,1.91v31.36c0,.5-.2.99-.56,1.35-.36.36-.84.56-1.35.56h-1.59v1.27c0,1.06-.86,1.91-1.91,1.91h-13.6v8.17h13.89c1.92,0,3.48,1.56,3.48,3.48v21.32c0,1.92-1.56,3.48-3.48,3.48h-21.33c-1.92,0-3.48-1.56-3.48-3.48v-4.82h-13.49l.51,3.71h.98c3.04,0,5.51,2.47,5.51,5.51v1.78c0,.32-.13.62-.35.84-.22.23-.53.35-.84.35h-26.83c-.65,0-1.18-.53-1.18-1.18v-1.78c0-3.04,2.46-5.51,5.5-5.51h.98l.51-3.71h-20.35c-2.24,0-4.06-1.82-4.06-4.07v-9.53c-4.29,1.22-8.9.36-12.45-2.32-3.56-2.69-5.65-6.88-5.65-11.34s2.09-8.65,5.65-11.34c3.56-2.68,8.17-3.54,12.45-2.32v-4c0-2.25,1.82-4.07,4.06-4.07h16.38c.17-.33.39-.63.66-.9.13-.13.27-.25.42-.36l-1.73-2.99-.04-.06c-1.93-3.34-.86-6.77,1.52-9.35,1.54-1.65,3.47-2.88,5.62-3.58,2.05-.75,4.3-.72,6.33.08,2.3,1.03,3.98,3.33,4.19,7.32h0c.53-.06,1.01-.28,1.4-.63,1.61-1.16,3.19-2.3,5.89.7,1.11,1.27,1.38,3.07.68,4.61-.62,1.51-1.5,2.9-2.61,4.1.06.05.12.11.18.16h0c.27.27.49.57.66.9h0ZM59.76,94.79h-10.43l-.51,3.71h11.45l-.51-3.71ZM54.55,59.82c-3.04,0-5.67,2.15-6.26,5.14-.6,2.99,1.01,5.98,3.82,7.14,2.82,1.17,6.06.18,7.75-2.35,1.69-2.53,1.36-5.91-.79-8.06-1.2-1.2-2.82-1.87-4.52-1.87h0ZM57.39,63.37h0c-1.36-1.35-3.48-1.56-5.07-.5-1.59,1.06-2.21,3.1-1.48,4.88.73,1.77,2.62,2.78,4.49,2.4,1.88-.37,3.24-2.02,3.24-3.94,0-1.07-.42-2.09-1.18-2.84h0ZM55.43,56.93l-.24-1.64h-1.28s-.25,1.68-.25,1.68h0c-.07.49-.44.88-.92.99-.98.21-1.91.6-2.75,1.14-.43.28-1,.25-1.39-.08l-1.32-.98-.91.91,1.01,1.37c.29.39.31.93.05,1.34-.54.84-.93,1.77-1.14,2.75-.11.5-.52.87-1.02.93l-1.64.24v1.29l1.69.25c.49.07.88.44.98.92.21.98.6,1.91,1.14,2.75.28.43.24.99-.08,1.39l-.98,1.32.91.91,1.37-1.01h0c.39-.29.93-.31,1.34-.05.84.54,1.77.92,2.75,1.13.5.1.87.52.93,1.02l.24,1.64h1.29l.25-1.69h0c.08-.49.44-.88.92-.98.98-.21,1.91-.6,2.75-1.14.43-.28.99-.25,1.39.08l1.32.98.91-.91-1.01-1.37h0c-.29-.4-.31-.93-.05-1.34.54-.84.93-1.77,1.14-2.75.1-.5.52-.87,1.02-.93l1.64-.24v-1.28l-1.69-.25c-.49-.07-.88-.44-.98-.92-.21-.98-.6-1.91-1.14-2.75-.28-.43-.25-1,.08-1.39l.98-1.32-.91-.91-1.37,1.01c-.4.29-.93.31-1.34.05-.84-.54-1.77-.93-2.75-1.14-.5-.1-.87-.52-.93-1.02h0ZM57.43,54.2c-.11-.74-.74-1.28-1.48-1.28h-2.79c-.75,0-1.38.55-1.48,1.28l-.24,1.65c-.35.1-.68.23-1.02.36-.34.14-.67.29-.99.47l-1.34-1c-.6-.45-1.43-.38-1.95.14l-1.97,1.97h0c-.53.53-.59,1.36-.14,1.96l1,1.34c-.18.32-.33.65-.47.99-.14.33-.26.68-.36,1.02l-1.65.24c-.74.11-1.28.74-1.28,1.48v2.79c0,.74.55,1.38,1.28,1.48l1.65.24c.1.35.23.68.36,1.02.14.34.29.67.47.99l-1,1.33c-.45.59-.38,1.43.14,1.95l1.97,1.98c.53.53,1.36.59,1.96.14l1.34-1c.32.17.65.33.99.47.33.14.68.26,1.02.36l.24,1.65c.11.73.74,1.28,1.48,1.28h2.79c.74,0,1.37-.55,1.48-1.28l.24-1.65c.35-.1.68-.23,1.02-.36.34-.14.67-.3.99-.47l1.34,1c.59.45,1.43.38,1.95-.14l1.97-1.97c.53-.53.59-1.36.14-1.95l-1-1.34c.17-.33.33-.65.47-.99.14-.33.26-.68.36-1.02l1.65-.24h0c.74-.11,1.28-.74,1.28-1.48v-2.79c0-.74-.55-1.37-1.28-1.48l-1.65-.24c-.1-.35-.23-.68-.36-1.02h0c-.14-.34-.3-.67-.47-.99l1-1.34c.45-.6.39-1.43-.14-1.96l-1.97-1.97c-.25-.26-.6-.41-.96-.44-.36-.03-.71.08-1,.3l-1.34,1c-.32-.18-.65-.33-.98-.47s-.67-.26-1.02-.36l-.24-1.65ZM85.42,57.54h14.76c.65,0,1.18-.53,1.18-1.18s-.53-1.18-1.18-1.18h-14.76c-.65,0-1.18.53-1.18,1.18s.53,1.18,1.18,1.18ZM85.42,52.48h14.76c.65,0,1.18-.53,1.18-1.18s-.53-1.19-1.18-1.19h-14.76c-.65,0-1.18.53-1.18,1.19s.53,1.18,1.18,1.18h0ZM85.42,47.42h14.76c.65,0,1.18-.53,1.18-1.18s-.53-1.18-1.18-1.18h-14.76c-.65,0-1.18.53-1.18,1.18s.53,1.18,1.18,1.18h0ZM85.42,42.36h14.76c.32.02.63-.1.86-.33.23-.23.36-.53.36-.86s-.13-.63-.36-.85c-.23-.22-.54-.34-.86-.33h-14.76c-.32,0-.63.11-.86.33-.23.23-.36.53-.36.85s.13.63.36.86c.23.22.54.34.86.33h0ZM85.42,37.3h14.76c.32.02.63-.1.86-.33.23-.23.36-.53.36-.85s-.13-.63-.36-.85c-.23-.23-.54-.35-.86-.33h-14.76c-.32-.01-.63.11-.86.33-.23.22-.36.53-.36.85s.13.63.36.85c.23.22.54.34.86.33h0ZM76.52,48.19h-10.06c-.15.7-.49,1.34-.99,1.85-.13.13-.28.26-.43.37,12.1,12.83,11.7,22.06,6.14,27.57-3.86,3.83-10.26,5.74-16.63,5.74s-12.77-1.91-16.63-5.73c-5.56-5.51-5.96-14.74,6.14-27.57-.15-.11-.3-.23-.43-.37-.5-.5-.85-1.14-.99-1.84h-16.05c-.93,0-1.69.76-1.69,1.69v4.91c4.85,2.39,7.92,7.33,7.92,12.74s-3.07,10.34-7.92,12.74v5.97h50.74v-7.96c0-1.92,1.56-3.48,3.49-3.48h5.07v-8.17h-5.77c-1.06,0-1.91-.86-1.91-1.91v-16.54h0ZM80.02,33.84h-1.13v30.43h20.81v-.81h-17.77c-.5,0-.99-.2-1.35-.56-.36-.35-.56-.84-.56-1.35v-27.71h0ZM103.2,30.66h-20.81v30.43h20.81v-30.43h0ZM51.23,91.7h6.65c.65,0,1.18-.53,1.18-1.18s-.53-1.19-1.18-1.19h-6.65c-.65,0-1.19.53-1.19,1.19s.53,1.18,1.19,1.18ZM92.68,80.92c-1.49,0-2.77,1.05-3.06,2.51-.29,1.46.49,2.92,1.86,3.49,1.37.57,2.96.09,3.79-1.15.83-1.24.67-2.89-.39-3.94-.58-.59-1.38-.91-2.2-.91h0ZM93.21,83.51h0c-.25-.25-.65-.3-.94-.1-.3.2-.41.58-.28.91.14.33.49.52.84.45.35-.07.6-.38.6-.73,0-.2-.08-.39-.22-.53h0ZM92.23,92.36l4.93-4.93c.28-.28.67-.45,1.07-.45s.79.16,1.07.45l2.26,2.26v-11.4c0-.61-.5-1.11-1.11-1.11h-21.33c-.61,0-1.11.5-1.11,1.11v8.68l3.34-3.34c.59-.59,1.55-.59,2.14,0l8.74,8.74h0ZM101.56,93.04l-3.33-3.33-4.33,4.33,6.67,6.67c.56-.07.98-.54.98-1.11v-6.57h0ZM97.24,100.73l-14.82-14.82-4.41,4.41v9.3c0,.61.5,1.11,1.11,1.11h18.11ZM75.64,88.61H24.9v2.11c0,.93.76,1.69,1.69,1.69h49.04v-3.8ZM26.99,59.17h0c-3.99-4-10.24-4.61-14.94-1.47-4.69,3.13-6.52,9.15-4.36,14.36,2.16,5.22,7.7,8.18,13.24,7.08s9.52-5.96,9.52-11.6c0-3.14-1.24-6.15-3.47-8.37h0ZM25.73,69.69h0c.35-.2.64-.48.86-.82.02-.03.04-.06.05-.09h0c.33-.58.42-1.26.25-1.9-.18-.64-.59-1.19-1.17-1.52l-9.8-5.66c-1.19-.69-2.72-.28-3.42.91-.22.38-.34.81-.34,1.25v11.32h0c0,.4.1.8.29,1.17l.05.09c.33.58.88,1,1.52,1.17.64.17,1.33.08,1.9-.26l9.8-5.66h0ZM14.74,73.31l9.8-5.66s.03-.02.04-.03v-.02h.01s0-.04,0-.07,0-.05,0-.07c-.02-.02-.04-.03-.06-.05l-9.8-5.66h0s-.05-.02-.07-.02c-.05,0-.09.03-.12.07,0,.03,0,.05,0,.07v11.38h0s.03.05.05.06.04.02.07.02.05,0,.07-.02h0ZM46.37,43.85h16.55c1.16-1.15,2.1-2.5,2.75-4,.36-.72.28-1.58-.21-2.23-1.28-1.43-2.01-.9-2.74-.37-1.24.9-2.5,1.81-4.55.58-.35-.21-.57-.6-.58-1.01,0-3.42-1.17-5.28-2.8-6.01h0c-1.5-.56-3.14-.56-4.64,0-1.76.58-3.34,1.58-4.6,2.94-1.72,1.87-2.53,4.29-1.22,6.56.01.02.03.05.03.07l2.01,3.47h0ZM62.43,51.08h-15.75c-11.83,12.09-11.89,20.45-7.09,25.2,3.4,3.37,9.16,5.05,14.96,5.05h0c5.8,0,11.57-1.69,14.96-5.05,4.8-4.75,4.74-13.11-7.09-25.2h0ZM62.92,46.22h-16.73c-.68.02-1.21.57-1.21,1.24s.53,1.23,1.21,1.24h16.73c.68-.02,1.21-.57,1.21-1.24s-.53-1.23-1.21-1.24h0ZM63.65,100.88h-18.19c-1.73,0-3.13,1.4-3.13,3.13v.6h24.45v-.6c0-1.73-1.41-3.13-3.13-3.13h0Z"/>
</svg>