<?xml version="1.0" encoding="UTF-8"?>
<svg id="Layer_1" xmlns="http://www.w3.org/2000/svg" version="1.1" viewBox="0 0 110 135">
  <!-- Generator: Adobe Illustrator 29.8.2, SVG Export Plug-In . SVG Version: 2.1.1 Build 3)  -->
  <defs>
    <style>
      .st0 {
        stroke: #000;
        stroke-miterlimit: 10;
        stroke-width: .5px;
      }
    </style>
  </defs>
  <path class="st0" d="M38.05,50.84c0-.79.64-1.42,1.42-1.42h28.56c.79,0,1.42.64,1.42,1.42s-.64,1.42-1.42,1.42h-28.56c-.79,0-1.42-.64-1.42-1.42ZM39.47,58.69h20.56c.79,0,1.42-.64,1.42-1.42s-.64-1.42-1.42-1.42h-20.56c-.79,0-1.42.64-1.42,1.42s.64,1.42,1.42,1.42ZM32.88,68.26v11.37c0,.79-.64,1.42-1.42,1.42h-11.37c-.79,0-1.42-.64-1.42-1.42v-11.37c0-.79.64-1.42,1.42-1.42h11.37c.79,0,1.42.64,1.42,1.42ZM30.04,69.69h-8.54v8.53h8.54v-8.53ZM39.47,72.17h17.99c.79,0,1.42-.64,1.42-1.42s-.64-1.42-1.42-1.42h-17.99c-.79,0-1.42.64-1.42,1.42s.64,1.42,1.42,1.42ZM39.47,78.6h11.81c.79,0,1.42-.64,1.42-1.42s-.64-1.42-1.42-1.42h-11.81c-.79,0-1.42.64-1.42,1.42s.64,1.42,1.42,1.42ZM32.88,88.17v11.37c0,.79-.64,1.42-1.42,1.42h-11.37c-.79,0-1.42-.64-1.42-1.42v-11.37c0-.79.64-1.42,1.42-1.42h11.37c.79,0,1.42.64,1.42,1.42ZM30.04,89.59h-8.54v8.53h8.54v-8.53ZM39.47,92.05h13.07c.79,0,1.42-.64,1.42-1.42s-.64-1.42-1.42-1.42h-13.07c-.79,0-1.42.64-1.42,1.42s.64,1.42,1.42,1.42ZM54.48,95.66h-15.01c-.79,0-1.42.64-1.42,1.42s.64,1.42,1.42,1.42h15.01c.79,0,1.42-.64,1.42-1.42s-.64-1.42-1.42-1.42ZM35.42,47.73c.55.56.53,1.46-.03,2.01l-2.51,2.44v7.58c0,.79-.64,1.42-1.42,1.42h-11.37c-.79,0-1.42-.64-1.42-1.42v-11.37c0-.79.64-1.42,1.42-1.42h11.37c.73,0,1.33.56,1.4,1.27l.55-.54c.56-.55,1.46-.53,2,.03h0ZM30.04,54.93l-1.98,1.93c-.27.27-.63.4-.99.4s-.74-.14-1.02-.43l-2.94-3.03c-.55-.56-.54-1.46.03-2.01s1.46-.54,2.01.03l1.95,2.01,2.95-2.86v-1.18h-8.54v8.53h8.54v-3.4h0ZM99.99,74.72c0,16-1.77,32.1-22.93,37.73-.12.03-.24.05-.36.05s-.25-.02-.36-.05c-2.94-.79-5.5-1.78-7.73-2.94H17.25c-3.99,0-7.24-3.24-7.24-7.22v-58.79c0-.09.02-.19.03-.28.01-.05.03-.11.05-.16.01-.04.02-.07.03-.11.02-.06.06-.11.09-.16.02-.03.03-.05.04-.08.05-.08.11-.15.18-.21l19.59-19.59c.07-.07.14-.12.21-.18.02-.02.05-.03.07-.04.05-.03.11-.07.17-.09.03-.01.07-.02.1-.03.05-.02.11-.04.16-.05.09-.02.19-.03.28-.03h39.87c3.98,0,7.22,3.25,7.22,7.24v35.78c5.71,5.37,13.02,6.76,20.65,7.79.7.09,1.23.7,1.23,1.41h0ZM14.85,42.09h10.34c2.43,0,4.4-1.96,4.4-4.38v-10.36l-14.75,14.75ZM64.15,106.67c-9.71-7.64-10.73-19.82-10.73-31.96,0-.71.52-1.31,1.23-1.41,7.63-1.03,14.94-2.42,20.63-7.79V29.74c0-2.43-1.96-4.4-4.38-4.4h-38.45s0,12.36,0,12.36c0,3.98-3.25,7.22-7.24,7.22h-12.35v57.37c0,2.42,1.98,4.38,4.4,4.38h46.9ZM97.15,75.96c-7.18-1.02-14.56-2.62-20.46-7.87-5.88,5.24-13.25,6.84-20.44,7.86.13,14.85,2.65,25.14,13.17,30.81.13.05.26.12.37.2,2,1.04,4.29,1.92,6.9,2.64,18.38-5.06,20.36-18.71,20.46-33.66h0ZM76.69,73.62c4.33,0,7.85,3.52,7.85,7.85v.49h3.29c.79,0,1.42.64,1.42,1.42v15.66c0,2.52-2.05,4.57-4.57,4.57h-15.95c-2.52,0-4.57-2.05-4.57-4.57v-15.66c0-.79.64-1.42,1.42-1.42h3.29v-.49c0-4.33,3.51-7.85,7.83-7.85h0ZM86.41,84.8h-19.42v14.24c0,.96.78,1.73,1.73,1.73h15.95c.96,0,1.73-.78,1.73-1.73v-14.24ZM76.69,76.45c-2.75,0-4.99,2.25-4.99,5.01v.49h10v-.49c0-2.77-2.25-5.01-5.01-5.01h0ZM81.11,90.5c0,1.94-1.26,3.59-3,4.17v3.39c0,.79-.64,1.42-1.42,1.42s-1.42-.64-1.42-1.42v-3.41c-1.73-.6-2.98-2.23-2.98-4.16,0-2.44,1.98-4.43,4.43-4.43s4.4,1.98,4.4,4.43h0ZM78.28,90.5c0-.88-.7-1.59-1.57-1.59s-1.59.71-1.59,1.59.71,1.57,1.59,1.57,1.57-.72,1.57-1.57Z"/>
</svg>