<?xml version="1.0" encoding="UTF-8"?>
<svg id="Layer_1" xmlns="http://www.w3.org/2000/svg" version="1.1" viewBox="0 0 563.2 691.2">
  <!-- Generator: Adobe Illustrator 29.8.2, SVG Export Plug-In . SVG Version: 2.1.1 Build 3)  -->
  <defs>
    <style>
      .st0 {
        stroke: #000;
        stroke-miterlimit: 10;
        stroke-width: .5px;
      }
    </style>
  </defs>
  <path class="st0" d="M247.9,314.2c0,19.6-23.8,29.4-37.6,15.6-4-4-6.4-9.5-6.4-15.6,0-55.3,56.4-93,107.5-71.9,46.9,19.4,62.8,77.6,32.7,118.1-7.4,10-17.1,17.3-26.8,25.1-4.2,3.4-13.6,10.5-13.6,13.8v8.7c0,19.6-23.8,29.5-37.6,15.6-4-4-6.5-9.5-6.5-15.6v-8.7c0-23.8,11.2-32.7,30.3-48h0l.1-.1h0c3.9-3.1,8.3-6.7,14-11.6,18.5-16.2,13.7-46.9-9.4-56.5-22.1-9.2-46.7,6.9-46.7,31.1h0ZM231.5,319.9c1.5-1.4,2.4-3.5,2.4-5.7,0-33.9,34.6-57.1,65.9-44.1,32.8,13.6,39.7,56.8,13.3,79.9-5.5,4.8-10.3,8.6-14.5,12h0c-.1,0-.1.1-.1.1h0c-15.7,12.6-24.9,20-24.9,37.1v8.7c0,7.1,8.7,10.7,13.7,5.7,1.4-1.5,2.4-3.5,2.4-5.7v-8.7c0-10.4,10-17.5,18.9-24.7l15.1-12.5c27.6-24.2,29.3-66.8,3-93-24.9-24.9-65.3-24.9-90.2,0-12,12-18.7,27.9-18.7,45.1,0,7.2,8.7,10.8,13.7,5.8h0ZM259.6,460.4c0-19.6,23.8-29.5,37.6-15.6,4,4,6.5,9.5,6.5,15.6v6.7c0,19.6-23.8,29.4-37.6,15.6-4-4-6.5-9.5-6.5-15.6v-6.7ZM275.9,454.7c-1.4,1.4-2.4,3.5-2.4,5.7v6.7c0,7.1,8.7,10.7,13.7,5.7,1.4-1.4,2.4-3.5,2.4-5.7v-6.7c0-7.2-8.6-10.8-13.7-5.7h0ZM260.9,557.8h-76.4c-26.1,0-47.4-21.3-47.4-47.4v-24.9c0-3.9,3.1-7,7-7s7,3.1,7,7v24.9c0,18.4,15.1,33.4,33.4,33.4h76.8c5.7-18.7,29.5-24.8,43.4-10.8,16.4,16.4,4.7,44.6-18.5,44.6-12.1,0-22.4-8.3-25.3-19.8h0ZM294.8,542.9c-7.6-7.6-20.7-2.2-20.7,8.6s13.1,16.2,20.7,8.6c4.8-4.8,4.8-12.5,0-17.2h0ZM127.1,368.2c-3.9,0-7-3.1-7-7s3.1-7,7-7h5.6c3.9,0,7,3.1,7,7s-3.1,7-7,7h-5.6ZM430.5,368.2c-3.9,0-7-3.1-7-7s3.1-7,7-7h5.6c3.9,0,7,3.1,7,7s-3.1,7-7,7h-5.6ZM430.5,424.5c-3.9,0-7-3.1-7-7s3.1-7,7-7h5.6c3.9,0,7,3.1,7,7s-3.1,7-7,7h-5.6ZM430.5,396.4c-3.9,0-7-3.1-7-7s3.1-7,7-7h5.6c3.9,0,7,3.1,7,7s-3.1,7-7,7h-5.6ZM127.1,424.5c-3.9,0-7-3.1-7-7s3.1-7,7-7h5.6c3.9,0,7,3.1,7,7s-3.1,7-7,7h-5.6ZM127.1,396.4c-3.9,0-7-3.1-7-7s3.1-7,7-7h5.6c3.9,0,7,3.1,7,7s-3.1,7-7,7h-5.6ZM126,306.1h20.7v-21.1c0-74.2,60.7-134.9,134.9-134.9s134.9,60.7,134.9,134.9v21.1h22.5v-21.1c0-42.2-16.9-81.8-46.2-111.1-61.6-61.6-160.7-61.6-222.3,0-29.4,29.4-46.2,68.9-46.2,111.1v21.1h1.7ZM160.7,306.4c15.4,2.1,27.2,15.4,27.2,31.1v103.7c0,17.3-14.1,31.4-31.4,31.4h-30.5c-34.1,0-61.9-27.8-61.9-61.9v-42.7c0-28.3,19.4-52.8,46.1-59.9v-23.1c0-94.3,77.1-171.4,171.4-171.4s171.4,77.1,171.4,171.4v23.1c26.8,7.1,46.1,31.5,46.1,59.9v42.7c0,34.1-27.9,61.9-61.9,61.9h-30.5c-17.3,0-31.4-14.1-31.4-31.4v-103.7c0-15.8,11.8-29.1,27.2-31.1v-21.4c0-66.4-54.5-120.9-120.9-120.9s-120.9,54.5-120.9,120.9v21.4h0ZM156.5,320.1h-30.5c-26.4,0-47.9,21.6-47.9,47.9v42.7c0,26.3,21.6,47.9,47.9,47.9h30.5c9.6,0,17.4-7.8,17.4-17.4v-103.7c0-9.6-7.9-17.4-17.4-17.4h0ZM437.2,320.1h-30.5c-9.6,0-17.4,7.9-17.4,17.4v103.7c0,9.6,7.8,17.4,17.4,17.4h30.5c26.4,0,47.9-21.6,47.9-47.9v-42.7c0-26.4-21.5-47.9-47.9-47.9h0Z"/>
</svg>