<svg xmlns="http://www.w3.org/2000/svg" version="1.1" viewBox="-5.0 -10.0 110.0 135.0">
 <path d="m45.59 77.148h-27.41c-2.8594 0-5.1914-2.3281-5.1914-5.1914v-53.848c0-2.8594 2.3281-5.1914 5.1914-5.1914h36.898c2.8594 0 5.1914 2.3281 5.1914 5.1914v24.41c0 0.89062 0.71875 1.6211 1.6211 1.6211 0.89844 0 1.6211-0.71875 1.6211-1.6211v-24.41c0-4.6484-3.7812-8.4297-8.4297-8.4297h-36.898c-4.6484 0-8.4297 3.7812-8.4297 8.4297v53.84c0 4.6484 3.7812 8.4297 8.4297 8.4297h27.41c0.89062 0 1.6211-0.71875 1.6211-1.6211-0.003906-0.88672-0.73438-1.6094-1.625-1.6094z"/>
 <path d="m48.18 33.391h-9.7891c-0.89062 0-1.6211 0.71875-1.6211 1.6211 0 0.89844 0.71875 1.6211 1.6211 1.6211h6.0508l-7.9492 8.0508-5.7812-2.7383c-0.62109-0.30078-1.3594-0.16016-1.8516 0.32813l-8.3789 8.5c-0.62891 0.64062-0.62109 1.6602 0.019531 2.2891 0.32031 0.30859 0.73047 0.46875 1.1406 0.46875 0.42188 0 0.83984-0.16016 1.1484-0.48047l7.5703-7.6797 5.7812 2.7383c0.62109 0.30078 1.3594 0.17188 1.8516-0.32031l8.5781-8.6797v5.9492c0 0.89062 0.71875 1.6211 1.6211 1.6211 0.89844 0 1.6211-0.71875 1.6211-1.6211l-0.003906-10.047c-0.007813-0.89062-0.73828-1.6211-1.6289-1.6211z"/>
 <path d="m89.191 50.371-18.012-6.6406c-0.73828-0.26953-1.5586-0.26953-2.3008 0l-18.012 6.6406c-0.64063 0.23047-1.0586 0.83984-1.0586 1.5195v13.57c0 3.0117 0.66016 5.9805 1.9102 8.5898 1.0781 2.2617 2.4297 4.3984 4.0117 6.3398 4.3086 5.3203 9.4805 8.1992 13.059 9.6797 0.39844 0.16016 0.82031 0.25 1.2383 0.25 0.42188 0 0.83984-0.078124 1.2383-0.25 3.5781-1.4805 8.75-4.3594 13.059-9.6797 1.5781-1.9414 2.9219-4.0781 4.0117-6.3398 1.25-2.6094 1.9102-5.5781 1.9102-8.5898l0.003906-13.57c0-0.67969-0.42188-1.2812-1.0586-1.5195zm-2.1797 15.09c0 2.5312-0.55078 5.0195-1.5898 7.1914-0.96875 2.0391-2.1914 3.9492-3.6016 5.6992-3.8789 4.7891-8.5508 7.3906-11.789 8.7188-3.2305-1.3398-7.8984-3.9297-11.781-8.7188-1.4219-1.75-2.6289-3.6602-3.6016-5.6992-1.0391-2.1797-1.5898-4.6602-1.5898-7.1914v-12.441l16.941-6.25h0.011719 0.050781l16.949 6.25z"/>
 <path d="m62.809 62.852c-0.57812-0.67969-1.6094-0.75-2.2812-0.17187-0.67969 0.57812-0.75 1.6094-0.17188 2.2812l6.8398 7.9219c0.28906 0.33984 0.71094 0.53906 1.1484 0.55859h0.070312c0.42188 0 0.82031-0.16016 1.1211-0.44922l12.066-11.621c0.64063-0.62109 0.66016-1.6406 0.039063-2.2891-0.62109-0.64062-1.6484-0.66016-2.2891-0.039062l-10.812 10.438z"/>
<text x="0.0" y="117.5" font-size="5.0" font-weight="bold" font-family="Arbeit Regular, Helvetica, Arial-Unicode, Arial, Sans-serif" fill="#000000">Created by Garoks</text><text x="0.0" y="122.5" font-size="5.0" font-weight="bold" font-family="Arbeit Regular, Helvetica, Arial-Unicode, Arial, Sans-serif" fill="#000000">from Noun Project</text></svg>