<?xml version="1.0" encoding="UTF-8"?>
<svg id="Layer_1" xmlns="http://www.w3.org/2000/svg" version="1.1" viewBox="0 0 110 135">
  <!-- Generator: Adobe Illustrator 29.8.2, SVG Export Plug-In . SVG Version: 2.1.1 Build 3)  -->
  <defs>
    <style>
      .st0 {
        stroke: #000;
        stroke-miterlimit: 10;
        stroke-width: .3px;
      }
    </style>
  </defs>
  <path class="st0" d="M33.08,45.21c.51-.46,1.3-.43,1.77.09.46.51.43,1.3-.09,1.77-5.75,5.21-9.05,12.65-9.05,20.41,0,8.24,3.65,15.98,10.01,21.23.53.44.61,1.23.17,1.76-.25.3-.61.45-.96.45-.28,0-.56-.09-.8-.29-6.94-5.73-10.91-14.17-10.91-23.16,0-8.46,3.6-16.57,9.87-22.26h0ZM96.21,100.49c2.74,2.74,2.74,7.21,0,9.95-1.37,1.37-3.17,2.06-4.97,2.06s-3.6-.69-4.97-2.06l-12.52-12.52c-.76-.76-1.18-1.78-1.18-2.86,0-.5.09-.97.26-1.43-1.2-1.03-2.88-1.18-4.26-.35-4.62,2.75-9.92,4.2-15.33,4.2-4.48,0-8.8-.96-12.82-2.87-.62-.3-.89-1.04-.6-1.66.3-.62,1.04-.89,1.66-.6,3.69,1.74,7.64,2.62,11.75,2.62,4.96,0,9.82-1.33,14.05-3.85,2.28-1.36,5.02-1.14,7.03.49l3.09-3.09c-1.63-2.01-1.85-4.76-.49-7.04,1.3-2.18,2.29-4.53,2.93-6.98.18-.67.86-1.07,1.53-.89.67.18,1.07.86.89,1.53-.71,2.67-1.79,5.23-3.2,7.62-.82,1.38-.67,3.06.35,4.26.45-.17.93-.26,1.43-.26,1.08,0,2.09.42,2.86,1.18l12.52,12.52h0ZM94.44,102.26l-12.52-12.52c-.3-.3-.7-.45-1.09-.45s-.79.15-1.09.45l-4.23,4.23c-.29.29-.45.68-.45,1.09s.16.8.45,1.09l12.52,12.52c1.77,1.77,4.64,1.77,6.41,0s1.77-4.64,0-6.41h0ZM71.74,47.09c5.73,5.21,9.02,12.64,9.02,20.38v.24c0,.69.55,1.25,1.24,1.26h.01c.68,0,1.24-.55,1.25-1.24v-.26c0-8.45-3.59-16.55-9.84-22.23-.51-.46-1.3-.43-1.77.09-.46.51-.43,1.3.09,1.77h0ZM75.42,68.97h.01c.68,0,1.24-.55,1.25-1.24v-.26c0-5.6-2.01-11.02-5.65-15.27-.45-.52-1.24-.59-1.76-.14-.52.45-.59,1.24-.13,1.76,3.25,3.79,5.05,8.64,5.05,13.64v.24c0,.69.55,1.26,1.24,1.26h0ZM43.63,87.54c-.26.64.04,1.37.68,1.63,2.83,1.16,5.83,1.75,8.92,1.75,9.93,0,18.82-6.29,22.12-15.65.23-.65-.11-1.36-.76-1.59-.65-.23-1.36.11-1.59.76-2.95,8.36-10.9,13.98-19.77,13.98-2.76,0-5.44-.53-7.96-1.57-.64-.26-1.37.04-1.63.68h0ZM37.22,52.03c-.52-.45-1.31-.39-1.76.13-3.66,4.25-5.68,9.69-5.68,15.31,0,6.81,2.95,13.27,8.11,17.73.23.2.53.3.82.3.35,0,.7-.14.95-.43.45-.52.39-1.31-.12-1.76-4.6-3.99-7.24-9.76-7.24-15.84,0-5.02,1.8-9.88,5.08-13.68.45-.52.39-1.31-.13-1.76h0ZM35.16,42.75v-4.3c0-.98.7-1.82,1.65-2.01l1.66-.33,1.16-2.8-.94-1.41c-.54-.81-.44-1.9.25-2.59l3.04-3.04c.69-.69,1.78-.8,2.59-.25l1.41.94,2.8-1.16.33-1.66c.19-.96,1.04-1.65,2.01-1.65h4.3c.98,0,1.82.7,2.01,1.65l.33,1.66,2.8,1.16,1.41-.94c.81-.54,1.9-.44,2.59.25l3.04,3.04c.69.69.8,1.78.25,2.59l-.94,1.41,1.16,2.8,1.66.33c.96.19,1.65,1.04,1.65,2.01v4.3c0,.98-.7,1.82-1.65,2.01l-1.66.33-1.16,2.8.95,1.41c.54.81.44,1.9-.25,2.59l-3.04,3.04c-.69.69-1.78.8-2.59.25l-1.41-.95-2.8,1.16-.33,1.66c-.19.96-1.04,1.65-2.01,1.65h-4.3c-.98,0-1.82-.7-2.01-1.65l-.33-1.66-2.8-1.16-1.41.95c-.81.54-1.9.44-2.59-.25l-3.04-3.04c-.69-.69-.8-1.78-.25-2.59l.94-1.41-1.16-2.8-1.66-.33c-.96-.19-1.65-1.04-1.65-2.01h0ZM37.66,42.38l1.95.39c.41.08.75.36.91.75l1.67,4.03c.16.39.12.83-.12,1.18l-1.11,1.66,2.52,2.52,1.66-1.11c.35-.23.79-.28,1.18-.12l4.03,1.67c.39.16.67.5.75.91l.39,1.95h3.55l.39-1.95c.08-.41.36-.75.75-.91l4.03-1.67c.39-.16.83-.12,1.18.12l1.66,1.11,2.52-2.52-1.11-1.66c-.23-.35-.28-.79-.12-1.18l1.67-4.03c.16-.39.5-.67.91-.75l1.95-.39v-3.55l-1.95-.39c-.41-.08-.75-.36-.91-.75l-1.67-4.03c-.16-.39-.12-.83.12-1.18l1.11-1.66-2.52-2.52-1.66,1.11c-.35.23-.79.28-1.18.12l-4.03-1.67c-.39-.16-.67-.5-.75-.91l-.39-1.95h-3.55l-.39,1.95c-.08.41-.36.75-.75.91l-4.03,1.67c-.39.16-.83.12-1.18-.12l-1.66-1.11-2.52,2.52,1.11,1.66c.23.35.28.79.12,1.18l-1.67,4.03c-.16.39-.5.67-.91.75l-1.95.39v3.55ZM44.2,40.6c0-4.99,4.06-9.06,9.06-9.06s9.06,4.06,9.06,9.06-4.06,9.06-9.06,9.06-9.06-4.06-9.06-9.06ZM46.7,40.6c0,3.62,2.94,6.56,6.56,6.56s6.56-2.94,6.56-6.56-2.94-6.56-6.56-6.56-6.56,2.94-6.56,6.56ZM46.61,79.19c-.57-.39-1.34-.26-1.74.31l-20.3,28.99h-13.32c-.69,0-1.25.55-1.25,1.25s.56,1.25,1.25,1.25h13.98c.41,0,.79-.2,1.02-.53l20.67-29.52c.39-.57.26-1.34-.31-1.74h0ZM11.25,99.37h13.03c.69,0,1.25-.56,1.25-1.25s-.56-1.25-1.25-1.25h-13.03c-.69,0-1.25.56-1.25,1.25s.56,1.25,1.25,1.25ZM11.25,105.18h13.03c.69,0,1.25-.56,1.25-1.25s-.56-1.25-1.25-1.25h-13.03c-.69,0-1.25.56-1.25,1.25s.56,1.25,1.25,1.25ZM99.99,71.29c0,2.68-2.18,4.87-4.87,4.87-2.25,0-4.15-1.54-4.7-3.62h-22.82c-.47,0-.9-.26-1.11-.68l-1.26-2.46-4.69,13.14c-.18.5-.65.83-1.18.83h-.04c-.54-.02-1.01-.38-1.16-.9l-5.05-17.27-2.48,6.53c-.18.48-.65.8-1.17.8h-4.61c-.69,0-1.25-.56-1.25-1.25s.56-1.25,1.25-1.25h3.75l3.5-9.21c.19-.5.68-.83,1.22-.8.54.02,1,.38,1.15.9l5.01,17.15,4.37-12.23c.17-.47.6-.79,1.1-.83.5-.03.97.23,1.2.68l2.23,4.36h22.06c.55-2.08,2.45-3.62,4.7-3.62,2.68,0,4.87,2.18,4.87,4.87h-.01ZM97.49,71.29c0-1.3-1.06-2.37-2.37-2.37s-2.37,1.06-2.37,2.37,1.06,2.37,2.37,2.37,2.37-1.06,2.37-2.37ZM19.32,38.2h11.92c.69,0,1.25-.56,1.25-1.25s-.56-1.25-1.25-1.25h-11.92c-.69,0-1.25.56-1.25,1.25s.56,1.25,1.25,1.25ZM19.32,32.39h11.92c.69,0,1.25-.56,1.25-1.25s-.56-1.25-1.25-1.25h-11.92c-.69,0-1.25.56-1.25,1.25s.56,1.25,1.25,1.25ZM19.32,26.59h11.92c.69,0,1.25-.56,1.25-1.25s-.56-1.25-1.25-1.25h-11.92c-.69,0-1.25.56-1.25,1.25s.56,1.25,1.25,1.25ZM11.24,26.59h3.25c.69,0,1.25-.56,1.25-1.25s-.56-1.25-1.25-1.25h-3.25c-.69,0-1.25.56-1.25,1.25s.56,1.25,1.25,1.25ZM11.24,32.39h3.25c.69,0,1.25-.56,1.25-1.25s-.56-1.25-1.25-1.25h-3.25c-.69,0-1.25.56-1.25,1.25s.56,1.25,1.25,1.25ZM11.24,38.2h3.25c.69,0,1.25-.56,1.25-1.25s-.56-1.25-1.25-1.25h-3.25c-.69,0-1.25.56-1.25,1.25s.56,1.25,1.25,1.25Z"/>
</svg>