<?xml version="1.0" encoding="UTF-8"?>
<svg id="Layer_1" xmlns="http://www.w3.org/2000/svg" version="1.1" viewBox="0 0 110 135">
  <!-- Generator: Adobe Illustrator 29.8.2, SVG Export Plug-In . SVG Version: 2.1.1 Build 3)  -->
  <defs>
    <style>
      .st0 {
        fill-rule: evenodd;
        stroke: #000;
        stroke-miterlimit: 10;
        stroke-width: .5px;
      }
    </style>
  </defs>
  <path class="st0" d="M85.1,44.14h-4.9v2.49c0,.45-.3.86-.75.99-.43.12-.84.27-1.24.43-.39.16-.77.34-1.12.54-.4.27-.95.22-1.3-.13l-1.77-1.77-3.47,3.47,1.77,1.77h0c.32.32.4.82.17,1.23-.21.38-.4.77-.57,1.19-.16.38-.3.79-.42,1.2-.11.45-.52.79-1,.79h-2.49v4.9h2.49c.45,0,.86.3.99.75.12.43.27.84.43,1.24.16.39.34.77.54,1.12.27.4.22.95-.13,1.3l-1.77,1.77,3.47,3.47,1.77-1.77h0c.32-.31.82-.39,1.23-.17.38.21.77.4,1.19.57.38.16.79.3,1.2.42.45.11.79.52.79,1v2.49h4.9v-2.49c0-.45.3-.86.75-.99.43-.12.84-.27,1.24-.43.39-.16.77-.34,1.12-.54.4-.27.95-.22,1.3.13l1.77,1.77,3.47-3.47-1.77-1.77h0c-.32-.32-.4-.82-.17-1.23.21-.38.4-.77.57-1.19.16-.38.3-.79.42-1.2.11-.45.52-.79,1-.79h2.49v-4.9h-2.49c-.45,0-.86-.3-.99-.75-.12-.43-.27-.84-.43-1.24-.16-.39-.34-.77-.54-1.12-.27-.4-.22-.95.13-1.3l1.77-1.77-3.47-3.47-1.77,1.77h0c-.32.31-.82.39-1.23.17-.38-.21-.77-.4-1.19-.57-.38-.16-.79-.3-1.2-.42-.45-.11-.79-.52-.79-1v-2.49h0ZM85.96,55.47c.85.85,1.37,2.02,1.37,3.31s-.52,2.46-1.37,3.31c-.85.85-2.02,1.37-3.31,1.37s-2.46-.52-3.31-1.37c-.85-.85-1.37-2.02-1.37-3.31s.52-2.46,1.37-3.31c.85-.85,2.02-1.37,3.31-1.37s2.46.52,3.31,1.37ZM82.64,52.03c1.86,0,3.55.75,4.77,1.98,1.22,1.22,1.98,2.91,1.98,4.77s-.75,3.55-1.98,4.77c-1.22,1.22-2.91,1.98-4.77,1.98s-3.55-.75-4.77-1.98c-1.22-1.22-1.98-2.91-1.98-4.77s.75-3.55,1.98-4.77c1.22-1.22,2.91-1.98,4.77-1.98ZM72.58,37.67v7.55l-3.62,3.62h0s0,0,0,0c-.36.36-.55.84-.55,1.32s.18.96.55,1.32l1.37,1.37c-.11.23-.22.47-.32.7-.1.24-.19.48-.27.72h-1.93c-.52,0-.98.21-1.32.55-.34.34-.55.81-.55,1.32v5.28c0,.52.21.98.55,1.32.34.34.81.55,1.32.55h1.93c.09.24.18.48.27.72.1.23.2.47.32.7l-1.37,1.37c-.36.36-.55.84-.55,1.32s.18.96.55,1.32l3.62,3.62v30.61c0,.21-.09.41-.22.54s-.32.22-.54.22l-58.36-.02c-.21,0-.4-.09-.54-.22-.14-.14-.22-.33-.22-.54V25.31c0-.21.08-.41.22-.54.14-.14.32-.22.54-.22h46.03v10.69c0,.66.27,1.27.71,1.71.44.44,1.05.71,1.71.71h10.67ZM18.81,105.78h53.01c.77,0,1.48-.32,1.99-.84.51-.51.83-1.22.83-1.99v-30.06c.26-.09.5-.24.7-.44l1.37-1.37c.23.11.47.22.7.32.24.1.48.19.72.27v1.93c0,.21.04.41.1.6v35.43c0,.21-.09.41-.23.55s-.34.23-.55.23H19.59c-.21,0-.41-.08-.55-.22-.14-.14-.23-.34-.23-.55v-3.87ZM78.23,43.35c-.06.19-.1.39-.1.6v1.93c-.24.09-.48.18-.72.27-.23.1-.47.2-.7.32l-1.37-1.37c-.2-.2-.45-.35-.7-.44v-8.02h0c0-.26-.1-.52-.3-.73l-4.65-4.66h7.77c.21,0,.41.09.55.23.14.14.23.34.23.55v11.32h0ZM67.63,29.19h9.82c.78,0,1.49.32,2,.83.51.51.83,1.22.83,2v10.05h4.99c.52,0,.98.21,1.32.55.34.34.55.81.55,1.32v1.93c.24.09.48.18.72.27.23.1.47.2.7.32l1.37-1.37c.36-.36.84-.55,1.32-.55s.96.18,1.32.55l3.73,3.73c.36.36.55.84.55,1.32s-.18.96-.55,1.32l-1.37,1.37c.11.23.22.46.32.7s.19.48.27.72h1.93c.52,0,.98.21,1.32.55s.55.81.55,1.32v5.28c0,.52-.21.98-.55,1.32-.34.34-.81.55-1.32.55h-1.93c-.09.24-.18.48-.27.72-.1.23-.2.47-.32.7l1.37,1.37c.36.36.55.84.55,1.32s-.18.95-.55,1.32h0s0,0,0,0l-3.73,3.73c-.36.36-.84.55-1.32.55s-.96-.18-1.32-.55l-1.37-1.37c-.23.11-.47.22-.7.32-.24.1-.48.19-.72.27v1.93c0,.52-.21.98-.55,1.32-.34.34-.81.55-1.32.55h-4.99v34.16c0,.78-.32,1.49-.83,2-.51.51-1.22.83-2,.83l-57.87-.03c-.78,0-1.49-.32-2-.83-.51-.51-.83-1.22-.83-2v-3.87h-3.29c-.77,0-1.48-.32-1.99-.83-.51-.51-.83-1.22-.83-1.99V25.31c0-.77.32-1.48.83-1.99.51-.52,1.22-.83,1.99-.83h47.06c.31,0,.59.14.78.36l6.33,6.34h0ZM66.54,31s-.07-.07-.11-.11l-4.88-4.89v9.24c0,.1.04.2.11.26.06.06.15.11.25.11h9.21l-4.59-4.61h0ZM56.84,84.26h5.25v-25.76h-5.25v25.76ZM45.42,84.26h5.25v-12.46h-5.25v12.46ZM33.99,84.26h5.25v-17.51h-5.25v17.51ZM22.56,84.26h5.25v-6.32h-5.25v6.32ZM18.79,86.31h47.69c.57,0,1.03-.46,1.03-1.03s-.46-1.03-1.03-1.03h-2.34v-26.79c0-.57-.46-1.03-1.03-1.03h-7.31c-.57,0-1.03.46-1.03,1.03v26.79h-2.06v-13.49c0-.57-.46-1.03-1.03-1.03h-7.31c-.57,0-1.03.46-1.03,1.03v13.49h-2.06v-18.54c0-.57-.46-1.03-1.03-1.03h-7.31c-.57,0-1.03.46-1.03,1.03v18.54h-2.06v-7.34c0-.57-.46-1.03-1.03-1.03h-7.31c-.57,0-1.03.46-1.03,1.03v7.34h-1.71c-.57,0-1.03.46-1.03,1.03s.46,1.03,1.03,1.03h.01ZM53.94,48.67h1.44l-8.5,9.15-9-7.04c-.36-.29-.89-.3-1.27,0l-16.12,12.76c-.45.35-.52,1-.17,1.44.35.45,1,.52,1.44.17l15.49-12.26,9.11,7.12c.42.33,1.02.28,1.38-.11l9.37-10.09v2.02c0,.57.46,1.03,1.03,1.03s1.03-.46,1.03-1.03v-4.21c0-.57-.46-1.03-1.03-1.03h-4.21c-.57,0-1.03.46-1.03,1.03s.46,1.03,1.03,1.03h.01ZM21.12,37.67h9.29c.57,0,1.03-.46,1.03-1.03s-.46-1.03-1.03-1.03h-9.29c-.57,0-1.03.46-1.03,1.03s.46,1.03,1.03,1.03ZM21.12,43.48h12.85c.57,0,1.03-.46,1.03-1.03s-.46-1.03-1.03-1.03h-12.85c-.57,0-1.03.46-1.03,1.03s.46,1.03,1.03,1.03ZM63.11,94.14h3.38c.57,0,1.03-.46,1.03-1.03s-.46-1.03-1.03-1.03h-3.38c-.57,0-1.03.46-1.03,1.03s.46,1.03,1.03,1.03ZM35.61,94.14h22.29c.57,0,1.03-.46,1.03-1.03s-.46-1.03-1.03-1.03h-22.29c-.57,0-1.03.46-1.03,1.03s.46,1.03,1.03,1.03ZM18.79,94.14h11.61c.57,0,1.03-.46,1.03-1.03s-.46-1.03-1.03-1.03h-11.61c-.57,0-1.03.46-1.03,1.03s.46,1.03,1.03,1.03Z"/>
</svg>