<?xml version="1.0" encoding="UTF-8"?>
<svg id="Layer_1" xmlns="http://www.w3.org/2000/svg" version="1.1" viewBox="0 0 110 135">
  <!-- Generator: Adobe Illustrator 29.8.2, SVG Export Plug-In . SVG Version: 2.1.1 Build 3)  -->
  <defs>
    <style>
      .st0 {
        stroke: #000;
        stroke-miterlimit: 10;
        stroke-width: .25px;
      }
    </style>
  </defs>
  <path class="st0" d="M34.78,70.28c.36.36.36.94,0,1.3l-5.33,5.33c-.18.18-.41.27-.65.27s-.47-.09-.65-.27l-2.66-2.66c-.36-.36-.36-.94,0-1.3.36-.36.94-.36,1.3,0l2.02,2.02,4.68-4.68c.36-.36.94-.36,1.3,0h0ZM39.63,72.37h20.41c.51,0,.92-.41.92-.92s-.41-.92-.92-.92h-20.41c-.51,0-.92.41-.92.92s.41.92.92.92ZM53.46,74.8h-13.82c-.51,0-.92.41-.92.92s.41.92.92.92h13.82c.51,0,.92-.41.92-.92s-.41-.92-.92-.92ZM33.49,83.78l-4.68,4.68-2.02-2.02c-.36-.36-.94-.36-1.3,0-.36.36-.36.94,0,1.3l2.66,2.66c.18.18.41.27.65.27s.47-.09.65-.27l5.33-5.33c.36-.36.36-.94,0-1.3s-.94-.36-1.3,0h0ZM52.85,84.04h-13.22c-.51,0-.92.41-.92.92s.41.92.92.92h13.22c.51,0,.92-.41.92-.92s-.41-.91-.92-.91ZM49.44,88.3h-9.8c-.51,0-.92.41-.92.92s.41.92.92.92h9.8c.51,0,.92-.41.92-.92,0-.51-.41-.92-.92-.92ZM33.49,56.78l-4.68,4.68-2.02-2.02c-.36-.36-.94-.36-1.3,0-.36.36-.36.94,0,1.3l2.66,2.66c.18.18.41.27.65.27s.47-.09.65-.27l5.33-5.33c.36-.36.36-.94,0-1.3-.36-.36-.94-.36-1.3,0h0ZM39.63,63.14h13.82c.51,0,.92-.41.92-.92s-.41-.92-.92-.92h-13.82c-.51,0-.92.41-.92.92s.41.91.92.91ZM39.63,58.87h20.41c.51,0,.92-.41.92-.92s-.41-.92-.92-.92h-20.41c-.51,0-.92.41-.92.92s.41.91.92.91ZM33.49,43.28l-4.68,4.68-2.02-2.02c-.36-.36-.94-.36-1.3,0-.36.36-.36.94,0,1.3l2.66,2.66c.18.18.41.27.65.27s.47-.09.65-.27l5.33-5.33c.36-.36.36-.94,0-1.3s-.94-.36-1.3,0h0ZM39.63,45.38h22.24c.51,0,.92-.41.92-.92s-.41-.92-.92-.92h-22.24c-.51,0-.92.41-.92.92s.41.92.92.92ZM39.63,49.64h13.82c.51,0,.92-.41.92-.92s-.41-.92-.92-.92h-13.82c-.51,0-.92.41-.92.92s.41.91.92.91ZM86.15,93.34c0,6.33-5.15,11.48-11.48,11.48s-11.48-5.15-11.48-11.48,5.15-11.48,11.48-11.48c6.33,0,11.48,5.15,11.48,11.48ZM84.31,93.34c0-5.32-4.33-9.65-9.65-9.65s-9.65,4.33-9.65,9.65,4.33,9.65,9.65,9.65,9.65-4.33,9.65-9.65ZM74.83,92.44c-.75-.14-1.62-.61-1.62-1.47,0-.8.65-1.45,1.45-1.45.55,0,1.05.31,1.3.8.23.45.78.64,1.23.41.45-.23.64-.78.41-1.23-.42-.84-1.16-1.44-2.02-1.69v-.85c0-.51-.41-.92-.92-.92s-.92.41-.92.92v.85c-1.37.4-2.37,1.66-2.37,3.16,0,1.61,1.25,2.92,3.12,3.27.75.14,1.62.61,1.62,1.47,0,.8-.65,1.45-1.45,1.45-.55,0-1.05-.31-1.3-.8-.23-.45-.78-.64-1.23-.41-.45.23-.64.78-.41,1.23.42.84,1.16,1.44,2.02,1.69v.85c0,.51.41.92.92.92s.92-.41.92-.92v-.85c1.37-.4,2.37-1.66,2.37-3.16,0-1.61-1.25-2.92-3.12-3.27ZM95.31,93.53c.14,5.15-1.87,9.75-5.8,13.33-4.09,3.71-9.47,5.57-14.85,5.57s-10.75-1.86-14.85-5.57c-1.66-1.51-2.96-3.21-3.91-5.05H22.33c-4.22,0-7.65-3.43-7.65-7.65v-56.85c0-4.22,3.43-7.65,7.65-7.65h10.8c.07-1.3,1.14-2.33,2.46-2.33h2.84c.44-2.69,2.78-4.74,5.59-4.74s5.14,2.05,5.59,4.74h2.84c1.32,0,2.38,1.04,2.46,2.33h10.8c4.22,0,7.65,3.43,7.65,7.65v19.62c1.2-.09,2.52-.34,4.8-1.02.62-.19,1.28-.03,1.76.41.53.48.73,1.18.53,1.81l-.49,1.54c.85-.08,1.82-.28,3.42-.75.55-.16,1.13-.03,1.55.36.49.45.66,1.1.44,1.66l-2.29,5.81c1.43.42,2.48,1.73,2.48,3.29,0,1.29-.72,2.41-1.78,2.99l5.83,6.72c3.56,4.11,5.6,9.01,5.72,13.8h0ZM82.09,68.41h-14.86c-.89,0-1.61.72-1.61,1.61s.72,1.61,1.61,1.61h14.86c.89,0,1.61-.72,1.61-1.61,0-.89-.73-1.61-1.61-1.61h0ZM54.02,93.53c.13-4.79,2.16-9.68,5.73-13.79l5.83-6.72c-1.05-.59-1.78-1.7-1.78-2.99,0-1.71,1.26-3.12,2.89-3.39l-2.72-8.52c-.2-.63,0-1.32.53-1.81.48-.44,1.14-.59,1.76-.41.34.1.65.19.95.27v-18.88c0-.84-.68-1.52-1.52-1.52h-10.81c-.12,1.25-1.17,2.23-2.45,2.23h-16.84c-1.28,0-2.32-.98-2.45-2.23h-10.81c-.84,0-1.52.68-1.52,1.52v56.85c0,.84.68,1.52,1.52,1.52h31.77c-.06-.7-.1-1.41-.08-2.14h0ZM72.2,58.79c-1.75,0-3.23-.18-6.45-1.13l2.84,8.92h12.56l2.28-5.79c-1.92.55-2.99.71-4.09.73l-.86,2.68c-.15.48-.67.75-1.15.59-.48-.15-.75-.67-.59-1.15l1.91-6c-3.23.96-4.71,1.14-6.46,1.14h0ZM65.69,31.48h-10.79v2.46h10.79c1.85,0,3.35,1.5,3.35,3.35v19.33c.97.2,1.72.29,2.46.32v-19.65c0-3.21-2.61-5.82-5.82-5.82h0ZM34.95,35.54c0,.35.29.64.64.64h16.84c.35,0,.64-.29.64-.64v-5.75c0-.35-.29-.64-.64-.64h-3.68c-.51,0-.92-.41-.92-.92,0-2.11-1.71-3.82-3.82-3.82s-3.82,1.71-3.82,3.82c0,.51-.41.92-.92.92h-3.68c-.35,0-.64.29-.64.64v5.75ZM55.09,99.97c-.3-.8-.55-1.62-.72-2.46H22.33c-1.85,0-3.35-1.5-3.35-3.35v-56.85c0-1.85,1.5-3.35,3.35-3.35h10.79v-2.46h-10.79c-3.21,0-5.82,2.61-5.82,5.82v56.85c0,3.21,2.61,5.82,5.82,5.82h32.76ZM88.2,80.94l-6.48-7.47h-14.11l-6.48,7.47c-7.04,8.11-7.07,18.21-.07,24.56,7.51,6.82,19.72,6.82,27.23,0,6.99-6.35,6.96-16.45-.07-24.56h0Z"/>
</svg>