<?xml version="1.0" encoding="UTF-8"?>
<svg id="Layer_1" xmlns="http://www.w3.org/2000/svg" version="1.1" viewBox="0 0 110 135">
  <!-- Generator: Adobe Illustrator 29.8.2, SVG Export Plug-In . SVG Version: 2.1.1 Build 3)  -->
  <path d="M64.96,89.62c-3.04.48-6.49.73-9.96.73-13.34,0-20.31-3.3-20.31-5.08v-3.95c4,2.6,12.18,3.95,20.31,3.95,11.35,0,22.85-2.62,22.85-7.62v-22.85c0-5-11.5-7.62-22.85-7.62-.7,0-1.27.57-1.27,1.27s.57,1.27,1.27,1.27c13.34,0,20.31,3.3,20.31,5.08s-6.98,5.08-20.31,5.08c-1.7,0-3.38-.06-4.99-.17-.69-.05-1.31.48-1.36,1.18-.05.7.48,1.31,1.18,1.36,1.68.12,3.41.18,5.17.18,8.13,0,16.31-1.35,20.31-3.95v3.95c0,1.77-6.98,5.08-20.31,5.08-5.64,0-10.92-.64-14.88-1.8-.67-.2-1.38.19-1.57.86-.2.67.19,1.38.86,1.57,4.18,1.23,9.72,1.9,15.59,1.9,8.13,0,16.31-1.35,20.31-3.95v3.95c0,1.77-6.98,5.08-20.31,5.08s-20.31-3.3-20.31-5.08v-2.54c0-.7-.57-1.27-1.27-1.27s-1.27.57-1.27,1.27v17.77c0,5,11.5,7.62,22.85,7.62,3.6,0,7.18-.26,10.35-.76.69-.11,1.16-.76,1.06-1.45-.11-.69-.75-1.16-1.45-1.06h0ZM55,77.65c8.13,0,16.31-1.35,20.31-3.95v3.95c0,1.77-6.98,5.08-20.31,5.08s-20.31-3.3-20.31-5.08v-3.95c4,2.6,12.18,3.95,20.31,3.95ZM38.49,63.81l.45-4.55,3.54,2.9c.5.41,1.24.38,1.7-.09l5.39-5.39c.46-.46.5-1.2.09-1.7l-2.9-3.54,4.55-.45c.65-.07,1.14-.61,1.14-1.26v-7.62c0-.65-.5-1.2-1.14-1.26l-4.55-.45,2.9-3.54c.41-.5.38-1.24-.09-1.7l-5.39-5.39c-.46-.46-1.2-.5-1.7-.09l-3.54,2.9-.45-4.55c-.07-.65-.61-1.14-1.26-1.14h-7.62c-.65,0-1.2.5-1.26,1.14l-.45,4.55-3.54-2.9c-.5-.41-1.24-.38-1.7.09l-5.39,5.39c-.46.46-.5,1.2-.09,1.7l2.9,3.54-4.55.45c-.65.07-1.14.61-1.14,1.26v7.62c0,.65.5,1.2,1.14,1.26l4.55.45-2.9,3.54c-.41.5-.38,1.24.09,1.7l5.39,5.39c.46.46,1.2.5,1.7.09l3.54-2.9.45,4.55c.07.65.61,1.14,1.26,1.14h7.62c.65,0,1.2-.5,1.26-1.14ZM36.65,56.65l-.58,5.77h-5.32l-.58-5.77c-.05-.46-.34-.87-.78-1.05-.43-.18-.93-.11-1.29.19l-4.49,3.67-3.76-3.76,3.67-4.49c.3-.36.37-.86.19-1.29-.18-.43-.58-.73-1.05-.78l-5.77-.58v-5.32l5.77-.58c.46-.05.87-.34,1.05-.78.18-.43.11-.93-.19-1.29l-3.67-4.49,3.76-3.76,4.49,3.67c.36.3.86.37,1.29.19.43-.18.73-.58.78-1.05l.58-5.77h5.32l.58,5.77c.05.46.34.87.78,1.05.43.18.93.11,1.29-.19l4.49-3.67,3.76,3.76-3.67,4.49c-.3.36-.37.86-.19,1.29.18.43.58.73,1.05.78l5.77.58v5.32l-5.77.58c-.46.05-.87.34-1.05.78-.18.43-.11.93.19,1.29l3.67,4.49-3.76,3.76-4.49-3.67c-.36-.3-.86-.37-1.29-.19-.43.18-.73.58-.78,1.05ZM41.03,45.92c0-4.2-3.42-7.62-7.62-7.62s-7.62,3.42-7.62,7.62,3.42,7.62,7.62,7.62,7.62-3.42,7.62-7.62ZM33.42,50.99c-2.8,0-5.08-2.28-5.08-5.08s2.28-5.08,5.08-5.08,5.08,2.28,5.08,5.08-2.28,5.08-5.08,5.08ZM94.51,90.36l-2.83-.35,1.75-2.25c.39-.5.35-1.23-.11-1.68l-3.59-3.59c-.45-.45-1.17-.5-1.68-.11l-2.25,1.75-.35-2.83c-.08-.64-.62-1.11-1.26-1.11h-5.08c-.64,0-1.18.48-1.26,1.11l-.35,2.83-2.25-1.75c-.5-.39-1.22-.35-1.68.11l-3.59,3.59c-.45.45-.5,1.17-.11,1.68l1.75,2.25-2.83.35c-.64.08-1.11.62-1.11,1.26v5.08c0,.64.48,1.18,1.11,1.26l2.83.35-1.75,2.25c-.39.5-.35,1.23.11,1.68l3.59,3.59c.45.45,1.17.5,1.68.11l2.25-1.75.35,2.83c.08.64.62,1.11,1.26,1.11h5.08c.64,0,1.18-.48,1.26-1.11l.35-2.83,2.25,1.75c.5.39,1.22.35,1.68-.11l3.59-3.59c.45-.45.5-1.17.11-1.68l-1.75-2.25,2.83-.35c.64-.08,1.11-.62,1.11-1.26v-5.08c0-.64-.48-1.18-1.11-1.26ZM93.08,95.58l-3.26.41c-.47.06-.87.38-1.03.82-.07.18-.14.36-.22.53-.2.43-.14.94.15,1.31l2.02,2.59-2.01,2.01-2.59-2.02c-.38-.29-.88-.35-1.31-.15-.17.08-.35.15-.53.22-.45.16-.76.56-.82,1.03l-.41,3.26h-2.84l-.41-3.26c-.06-.47-.38-.87-.82-1.03-.18-.07-.36-.14-.53-.22-.43-.2-.93-.14-1.31.15l-2.59,2.02-2.01-2.01,2.02-2.59c.29-.38.35-.88.15-1.31-.08-.17-.15-.35-.22-.53-.16-.45-.56-.76-1.03-.82l-3.26-.41v-2.84l3.26-.41c.47-.06.87-.38,1.03-.82.07-.18.14-.36.22-.53.2-.43.14-.94-.15-1.31l-2.02-2.59,2.01-2.01,2.59,2.02c.38.29.88.35,1.31.15.17-.08.35-.15.53-.22.45-.16.76-.56.82-1.03l.41-3.26h2.84l.41,3.26c.06.47.38.87.82,1.03.18.07.36.14.53.22.43.2.93.14,1.31-.15l2.59-2.02,2.01,2.01-2.02,2.59c-.29.38-.35.88-.15,1.31.08.17.15.35.22.53.16.45.56.76,1.03.82l3.26.41v2.84ZM81.66,87.81c-3.5,0-6.35,2.85-6.35,6.35s2.85,6.35,6.35,6.35,6.35-2.85,6.35-6.35-2.85-6.35-6.35-6.35ZM81.66,97.97c-2.1,0-3.81-1.71-3.81-3.81s1.71-3.81,3.81-3.81,3.81,1.71,3.81,3.81-1.71,3.81-3.81,3.81ZM58.81,37.03h-2.54v-2.54h2.54v2.54ZM63.88,37.03h-2.54v-2.54h2.54v2.54ZM68.96,37.03h-2.54v-2.54h2.54v2.54ZM74.04,37.03h-2.54v-2.54h2.54v2.54ZM38.49,97.97h2.54v2.54h-2.54v-2.54ZM43.57,97.97h2.54v2.54h-2.54v-2.54ZM48.65,97.97h2.54v2.54h-2.54v-2.54ZM53.73,97.97h2.54v2.54h-2.54v-2.54ZM88,61.15h-2.54v-2.54h2.54v2.54ZM88,66.23h-2.54v-2.54h2.54v2.54ZM88,71.31h-2.54v-2.54h2.54v2.54ZM88,76.38h-2.54v-2.54h2.54v2.54ZM21.99,66.23h2.54v2.54h-2.54v-2.54ZM21.99,71.31h2.54v2.54h-2.54v-2.54ZM21.99,76.39h2.54v2.54h-2.54v-2.54ZM21.99,81.46h2.54v2.54h-2.54v-2.54Z"/>
</svg>