<svg xmlns="http://www.w3.org/2000/svg" version="1.1" viewBox="-5.0 -10.0 110.0 135.0">
 <path d="m44.656 36.168c-0.32812 1.0391-0.73828 2.0273-1.2422 2.9961l2.543 4.6055c0.25 0.45703 0.15625 1.0078-0.19141 1.3555l-4.3477 4.3516c-0.38672 0.38672-0.97656 0.4375-1.418 0.16016l-4.543-2.5078c-0.96484 0.50391-1.957 0.91406-2.9961 1.2422l-1.4609 5.0508c-0.14453 0.5-0.60156 0.82422-1.0938 0.82422v0.003906h-6.1523c-0.55469 0-1.0195-0.39844-1.1211-0.92188l-1.4297-4.957c-1.0391-0.32812-2.0273-0.73828-2.9961-1.2422l-4.6055 2.543c-0.45703 0.25-1.0078 0.15625-1.3555-0.19531l-4.3516-4.3516c-0.38672-0.38672-0.4375-0.97656-0.16016-1.418l2.5078-4.543c-0.50391-0.96875-0.91406-1.957-1.2422-2.9961l-5.0508-1.457c-0.5-0.14453-0.82422-0.60156-0.82031-1.0938l-0.003906-0.003907v-6.1523c0-0.55469 0.39844-1.0195 0.92188-1.1211l4.9531-1.4297c0.32812-1.0391 0.73828-2.0273 1.2422-2.9961l-2.543-4.6055c-0.25-0.45703-0.15625-1.0078 0.19531-1.3555l4.3477-4.3477c0.38672-0.38672 0.97656-0.4375 1.418-0.16016l4.543 2.5078c0.96875-0.50391 1.957-0.91406 2.9961-1.2422l1.457-5.0508c0.14453-0.49609 0.60156-0.82422 1.0938-0.82422l0.007812-0.003907h6.1523c0.55469 0 1.0195 0.39844 1.1211 0.92188l1.4297 4.957c1.0391 0.32812 2.0273 0.73828 2.9961 1.2422l4.6055-2.543c0.45703-0.25 1.0078-0.15625 1.3555 0.19141l4.3477 4.3477c0.38672 0.38672 0.4375 0.97656 0.16016 1.418l-2.5078 4.543c0.50391 0.96484 0.91406 1.957 1.2422 2.9961l5.0508 1.457c0.5 0.14453 0.82422 0.60156 0.82031 1.0938h0.003906v6.1523c0 0.55469-0.39844 1.0195-0.92188 1.1211zm-17.824-17.156c-6.3633 0-11.523 5.1602-11.523 11.523 0 6.3672 5.1602 11.523 11.523 11.523 6.3633 0.003906 11.523-5.1562 11.523-11.52 0-6.3633-5.1602-11.527-11.523-11.527zm6.5312 4.9961c-3.6055-3.6055-9.457-3.6055-13.066 0-3.6055 3.6055-3.6055 9.457 0 13.066 3.6055 3.6055 9.457 3.6055 13.066 0 3.6055-3.6094 3.6055-9.4609 0-13.066zm60.016 33.016c-0.54297 0.3125-1.2422 0.125-1.5547-0.41797s-0.125-1.2422 0.41797-1.5547l2.9258-1.6875c0.54297-0.3125 1.2422-0.125 1.5547 0.41797s0.125 1.2422-0.41797 1.5547zm-6.6719-7.5078c-0.31641 0.54297-1.0117 0.73047-1.5586 0.41406-0.54297-0.31641-0.73047-1.0117-0.41406-1.5586l1.6875-2.9258c0.31641-0.54297 1.0117-0.73047 1.5586-0.41406 0.54297 0.31641 0.73047 1.0117 0.41406 1.5586zm-26.895 5.5352c0.54297 0.31641 0.73047 1.0117 0.41406 1.5586-0.31641 0.54297-1.0117 0.73047-1.5586 0.41406l-2.9258-1.6875c-0.54297-0.31641-0.73047-1.0117-0.41406-1.5586 0.31641-0.54297 1.0117-0.73047 1.5586-0.41406zm7.5117-6.6758c0.3125 0.54297 0.125 1.2422-0.41797 1.5547s-1.2422 0.125-1.5547-0.41797l-1.6875-2.9219c-0.3125-0.54297-0.125-1.2422 0.41797-1.5547s1.2422-0.125 1.5547 0.41797zm9.8477-2.0273c0 0.63281-0.51172 1.1445-1.1445 1.1445-0.63281 0-1.1445-0.51172-1.1445-1.1445v-3.375c0-0.63281 0.51172-1.1445 1.1445-1.1445 0.63281 0 1.1445 0.51172 1.1445 1.1445zm-3.6367 47.359c-0.63281 0-1.1445-0.51172-1.1445-1.1445s0.51172-1.1445 1.1445-1.1445h4.9805c0.63281 0 1.1445 0.51172 1.1445 1.1445s-0.51172 1.1445-1.1445 1.1445zm-1.3672-3.4297c-0.63281 0-1.1445-0.51172-1.1445-1.1445 0-0.63281 0.51172-1.1445 1.1445-1.1445h7.7188c0.63281 0 1.1445 0.51172 1.1445 1.1445 0 0.63281-0.51172 1.1445-1.1445 1.1445zm-1.4844-3.4258c-0.63281 0-1.1445-0.51172-1.1445-1.1445 0-0.63281 0.51172-1.1445 1.1445-1.1445h10.688c0.63281 0 1.1445 0.51172 1.1445 1.1445 0 0.63281-0.51172 1.1445-1.1445 1.1445zm6.4375-6.168v-11.508h-2.1211v11.508zm-4.4102 0h-2.3906c-0.78906-1.8398-1.9844-3.4062-3.543-4.875-5.543-5.2188-5.6836-13.984-0.29297-19.379 5.2734-5.2734 13.82-5.2734 19.09 0 5.3906 5.3906 5.25 14.16-0.29297 19.379-1.5586 1.4688-2.7539 3.0312-3.543 4.875h-2.3242l-0.007812-11.508h2.0391c3.8398 0 5.7773-4.6641 3.0586-7.3828s-7.3828-0.78125-7.3828 3.0586v2.0391h-2.1211v-2.0391c0-3.8398-4.6641-5.7773-7.3828-3.0586s-0.78125 7.3828 3.0586 7.3828h2.0391zm6.6953-15.832v2.0391h2.0391c1.8125 0 2.7227-2.1992 1.4414-3.4805s-3.4805-0.37109-3.4805 1.4414zm-8.7305 2.0352h2.0391v-2.0391c0-1.8086-2.1992-2.7227-3.4805-1.4414s-0.37109 3.4805 1.4414 3.4805zm-0.19922 16.086h11.105c0.82422-0.003906 1.7109 0.16406 2.0312-0.82812 0.54297-1.6758 1.8594-3.3828 3.2305-4.6719 6.4648-6.0859 6.6641-16.34 0.34766-22.656-6.1641-6.1641-16.16-6.1641-22.324 0-6.3164 6.3164-6.1172 16.57 0.34766 22.656 1.4922 1.4062 2.6133 2.918 3.2539 4.7344 0.16406 0.46875 0.60547 0.76172 1.0742 0.76172v0.003906zm-47.293-15.93c0.30859 0.54688 0.11719 1.2422-0.42969 1.5547s-1.2422 0.11719-1.5547-0.42969l-2.8867-5.0547v19.324c0 2.7383 2.2383 4.9766 4.9766 4.9766h36.348c0.63281 0 1.1445 0.51172 1.1445 1.1445 0 0.63281-0.51172 1.1445-1.1445 1.1445h-36.348c-4 0-7.2617-3.2617-7.2617-7.2617v-19.398l-2.9727 5.0938c-0.31641 0.54297-1.0195 0.73047-1.5625 0.41016-0.54297-0.32031-0.73047-1.0195-0.41016-1.5625l5.082-8.7148c0.44531-0.78906 1.5781-0.83594 2.043 0.058594zm67.996-40.207-2.8867 5.0586v-18.34c0-4-3.2617-7.2617-7.2617-7.2617h-31.434c-0.63281 0-1.1445 0.51172-1.1445 1.1445s0.51172 1.1445 1.1445 1.1445h31.43c2.7383 0 4.9766 2.2383 4.9766 4.9766v18.41l-2.9727-5.0938c-0.32031-0.54297-1.0195-0.73047-1.5625-0.41016-0.54297 0.31641-0.73047 1.0195-0.41016 1.5625l5.082 8.7148c0.44531 0.78906 1.5781 0.83203 2.0391-0.054688l2.4336-4.2578c0.011719-0.019532 0.023438-0.039063 0.035157-0.058594l2.5117-4.3945c0.3125-0.54687 0.12109-1.2461-0.42578-1.5586-0.54297-0.31641-1.2383-0.12891-1.5547 0.41797zm-49.184 9.9805c0.25781-0.61719 0.47266-1.2461 0.64844-1.875 0.10156-0.36719 0.38672-0.67578 0.78125-0.78906l4.8242-1.3945v-4.4414l-4.7812-1.3828c-0.38672-0.097656-0.71094-0.39062-0.82422-0.80078-0.30859-1.1133-0.90625-2.6289-1.4922-3.6172-0.21484-0.33984-0.24219-0.78125-0.035156-1.1602l2.4297-4.3984-3.1367-3.1367-4.3984 2.4297c-0.33594 0.18359-0.75391 0.19531-1.1133-0.007812-1.1367-0.64453-2.4062-1.168-3.6641-1.5195-0.36719-0.10156-0.67578-0.38672-0.78906-0.78125l-1.3945-4.8242h-4.4414l-1.3828 4.7812c-0.097656 0.38672-0.39062 0.71094-0.80078 0.82422-1.1133 0.30859-2.6289 0.90625-3.6172 1.4922-0.33984 0.21484-0.78125 0.24219-1.1602 0.035156l-4.3984-2.4258-3.1367 3.1367 2.4297 4.3984c0.18359 0.33594 0.19531 0.75391-0.007813 1.1133-0.64453 1.1367-1.168 2.4062-1.5195 3.6641-0.10156 0.36719-0.38672 0.67578-0.78125 0.78906l-4.8242 1.3945v4.4414l4.7812 1.3828c0.38672 0.097657 0.71094 0.39453 0.82422 0.80469 0.30859 1.1133 0.90625 2.6289 1.4922 3.6172 0.21484 0.33984 0.24219 0.78125 0.035157 1.1602l-2.4258 4.3867 3.1367 3.1367 4.3984-2.4297c0.33594-0.18359 0.75391-0.19531 1.1133 0.007813 1.1367 0.64453 2.4062 1.168 3.6641 1.5195 0.36719 0.10156 0.67578 0.38672 0.78906 0.78125l1.3945 4.8242h4.4414l1.3828-4.7812c0.097656-0.38672 0.39062-0.71094 0.80078-0.82422 1.1133-0.30859 2.6289-0.90625 3.6172-1.4922 0.33984-0.21484 0.78125-0.24219 1.1602-0.035157l4.3984 2.4258 3.1367-3.1367-2.4297-4.3984c-0.18359-0.33594-0.19531-0.75391 0.007812-1.1133 0.31641-0.5625 0.60938-1.1602 0.86719-1.7812z" fill-rule="evenodd"/>
<text x="0.0" y="117.5" font-size="5.0" font-weight="bold" font-family="Arbeit Regular, Helvetica, Arial-Unicode, Arial, Sans-serif" fill="#000000">Created by Nunung Anggraini NPH</text><text x="0.0" y="122.5" font-size="5.0" font-weight="bold" font-family="Arbeit Regular, Helvetica, Arial-Unicode, Arial, Sans-serif" fill="#000000">from Noun Project</text></svg>