<?xml version="1.0" encoding="UTF-8"?>
<svg id="Layer_1" xmlns="http://www.w3.org/2000/svg" version="1.1" viewBox="0 0 66 82.5">
  <!-- Generator: Adobe Illustrator 29.8.2, SVG Export Plug-In . SVG Version: 2.1.1 Build 3)  -->
  <defs>
    <style>
      .st0 {
        stroke: #000;
        stroke-miterlimit: 10;
        stroke-width: .25px;
      }
    </style>
  </defs>
  <path class="st0" d="M59.17,12.11H6.83c-1.94,0-3.51,1.57-3.51,3.51v51.27c0,1.94,1.57,3.51,3.51,3.51h52.35c1.94,0,3.51-1.57,3.51-3.51V15.62c0-1.94-1.57-3.51-3.51-3.51ZM6.83,13.71h52.35c1.05,0,1.91.86,1.91,1.91v8.02l-34.39.02-4.07-4.23c-.29-.3-.7-.48-1.12-.48h-8.88c-.85,0-1.55.69-1.55,1.55l.06,3.14h-6.22v-8.02c0-1.05.86-1.91,1.91-1.91ZM59.17,68.79H6.83c-1.05,0-1.91-.86-1.91-1.91V25.25h6.22c.85,0,1.55-.69,1.55-1.55l-.06-3.14,8.84-.02,4.07,4.23c.29.3.7.48,1.12.48h34.43v41.63c0,1.05-.86,1.91-1.91,1.91Z"/>
  <path class="st0" d="M56.35,21.12c1.35,0,2.44-1.1,2.44-2.44s-1.1-2.44-2.44-2.44-2.44,1.1-2.44,2.44,1.09,2.44,2.44,2.44ZM56.35,17.83c.47,0,.84.37.84.84s-.37.84-.84.84-.84-.37-.84-.84.37-.84.84-.84Z"/>
  <path class="st0" d="M50.19,21.12c1.35,0,2.44-1.1,2.44-2.44s-1.1-2.44-2.44-2.44-2.44,1.1-2.44,2.44,1.1,2.44,2.44,2.44ZM50.19,17.83c.47,0,.84.37.84.84s-.37.84-.84.84-.84-.37-.84-.84c0-.46.38-.84.84-.84Z"/>
  <path class="st0" d="M44.05,21.12c1.35,0,2.44-1.1,2.44-2.44s-1.1-2.44-2.44-2.44-2.44,1.1-2.44,2.44c0,1.34,1.09,2.44,2.44,2.44ZM44.05,17.83c.47,0,.84.37.84.84s-.37.84-.84.84-.84-.37-.84-.84.37-.84.84-.84Z"/>
  <path class="st0" d="M23.52,28.81h-12.48c-.88,0-1.6.72-1.6,1.6v4.3c0,.88.72,1.6,1.6,1.6h12.48c.88,0,1.6-.72,1.6-1.6v-4.3c0-.89-.72-1.6-1.6-1.6ZM11.04,34.7v-4.3s12.47,0,12.47,0v4.29s-12.47,0-12.47,0ZM23.51,30.4h.8-.8Z"/>
  <path class="st0" d="M23.52,38.58h-12.48c-.88,0-1.6.72-1.6,1.6v4.3c0,.88.72,1.6,1.6,1.6h12.48c.88,0,1.6-.72,1.6-1.6v-4.3c0-.88-.72-1.6-1.6-1.6ZM11.04,44.48v-4.29s12.47,0,12.47,0v4.29s-12.47,0-12.47,0Z"/>
  <path class="st0" d="M23.52,48.36h-12.48c-.88,0-1.6.72-1.6,1.6v4.3c0,.88.72,1.6,1.6,1.6h12.48c.88,0,1.6-.72,1.6-1.6v-4.3c0-.88-.72-1.6-1.6-1.6ZM11.04,54.26v-4.3s12.47,0,12.47,0v4.29s-12.47,0-12.47,0Z"/>
  <path class="st0" d="M23.52,58.14h-12.48c-.88,0-1.6.72-1.6,1.6v4.3c0,.88.72,1.6,1.6,1.6h12.48c.88,0,1.6-.72,1.6-1.6v-4.3c0-.88-.72-1.6-1.6-1.6ZM11.04,64.04v-4.3s12.47,0,12.47,0v4.29s-12.47,0-12.47,0Z"/>
  <path class="st0" d="M55.14,32.95h-4.06c-.77,0-1.41.63-1.41,1.41v9.96c0,.77.63,1.41,1.41,1.41h4.06c.77,0,1.41-.63,1.41-1.41v-9.96c0-.78-.63-1.41-1.41-1.41ZM54.94,44.12h-3.66v-9.57h3.66v9.57Z"/>
  <path class="st0" d="M41.93,45.72h4.06c.77,0,1.41-.63,1.41-1.41v-14.1c0-.77-.63-1.41-1.41-1.41h-4.06c-.77,0-1.41.63-1.41,1.41v14.1c0,.77.63,1.41,1.41,1.41ZM42.13,30.41h3.66v13.71h-3.66v-13.71Z"/>
  <path class="st0" d="M36.84,45.72c.77,0,1.41-.63,1.41-1.41v-6.93c0-.77-.63-1.41-1.41-1.41h-4.06c-.77,0-1.41.63-1.41,1.41v6.93c0,.77.63,1.41,1.41,1.41h4.06ZM32.98,37.58h3.66v6.54h-3.66v-6.54Z"/>
  <path class="st0" d="M53.91,49.78h-4.53c-.24,0-.48.11-.62.3l-1.03,1.29c-1.2-.86-2.66-1.36-4.25-1.36-4.06,0-7.36,3.31-7.36,7.37,0,1.83.67,3.49,1.78,4.78l-.81,1.02h-4.14c-.45,0-.8.36-.8.8s.36.8.8.8h4.53c.24,0,.48-.11.62-.3l.98-1.22c1.23.92,2.76,1.48,4.41,1.48,4.06,0,7.37-3.3,7.37-7.36,0-1.9-.73-3.63-1.92-4.94l.85-1.06h4.14c.45,0,.8-.36.8-.8s-.36-.8-.81-.8ZM43.47,63.15c-1.28,0-2.45-.42-3.41-1.13l1.25-1.56c.28-.34.22-.85-.13-1.13-.34-.28-.85-.22-1.13.13l-1.15,1.43c-.75-.97-1.19-2.18-1.19-3.5,0-2.91,2.16-5.31,4.96-5.7v5.7c0,.45.36.8.8.8h5.7c-.39,2.79-2.79,4.96-5.7,4.96ZM49.17,56.59h-4.9v-4.9c.89.13,1.73.46,2.45.95l-1.18,1.48c-.28.34-.22.85.13,1.13.15.12.33.18.5.18.23,0,.47-.1.62-.3l1.12-1.41c.66.8,1.11,1.79,1.26,2.87Z"/>
  <path class="st0" d="M53.91,47.56h-2.31c-.45,0-.8.36-.8.8s.36.8.8.8h2.31c.45,0,.8-.36.8-.8s-.35-.8-.8-.8Z"/>
  <path class="st0" d="M35.24,65.51h-2.31c-.45,0-.8.36-.8.8s.36.8.8.8h2.31c.45,0,.8-.36.8-.8s-.36-.8-.8-.8Z"/>
</svg>