<svg xmlns="http://www.w3.org/2000/svg" xmlns:xlink="http://www.w3.org/1999/xlink" version="1.1" x="0px" y="0px" viewBox="0 0 100 125" style="enable-background:new 0 0 100 100;" xml:space="preserve"><style type="text/css">
	.st0{fill-rule:evenodd;clip-rule:evenodd;}
</style><path d="M95.89,51.84c-0.35-1.02-1.13-1.83-2.14-2.23c-2.23-0.89-5.75-0.32-8.36,4.19l-5.97,10.33c-1.78-0.95-4.43-1.1-7.71,0.79  l-7.52,4.34c-4.27,1.18-7.07,3.32-8.33,6.36c-1.06,2.57-0.78,5.17-0.59,6.89c0.05,0.48,0.1,0.89,0.1,1.16v1.41  c-1.37,0.33-2.4,1.55-2.4,3.02v4.78c0,1.72,1.4,3.12,3.12,3.12h16.89c1.72,0,3.12-1.4,3.12-3.12v-4.78c0-1.47-1.03-2.7-2.4-3.02  v-1.41c0-1.6,0.27-1.76,1.4-2.41l5.12-2.96c1.93-1.11,3.34-2.53,4.45-4.45l10.93-18.93C96.13,53.98,96.24,52.86,95.89,51.84z   M73.48,92.88c0,0.28-0.23,0.5-0.5,0.5H56.09c-0.28,0-0.5-0.23-0.5-0.5v-4.78c0-0.28,0.23-0.5,0.5-0.5h16.89  c0.28,0,0.5,0.23,0.5,0.5V92.88z M93.33,53.62L82.4,72.55c-0.88,1.53-1.96,2.61-3.5,3.5L73.78,79c-1.58,0.91-2.7,1.78-2.7,4.67v1.32  h-13.1v-1.32c0-0.41-0.05-0.89-0.11-1.44c-0.36-3.31-0.9-8.32,7.17-10.49c0.11-0.03,0.22-0.07,0.32-0.13l7.66-4.42  c3.07-1.77,5.1-1.21,5.98-0.09c0.2,0.26,0.28,0.58,0.22,0.89c-0.06,0.32-0.25,0.58-0.54,0.75l-8.26,4.77  c-0.62,0.36-0.84,1.16-0.48,1.78c0.36,0.62,1.16,0.84,1.78,0.48L79.98,71c0.94-0.54,1.59-1.46,1.8-2.52  c0.17-0.86,0.02-1.75-0.4-2.51l6.27-10.87c1.77-3.07,3.81-3.6,5.13-3.07c0.31,0.12,0.53,0.36,0.64,0.66  C93.53,53.01,93.49,53.33,93.33,53.62z M44.63,85.08v-1.41c0-0.27,0.04-0.68,0.1-1.16c0.19-1.72,0.47-4.32-0.59-6.89  c-1.25-3.04-4.06-5.18-8.33-6.36l-7.52-4.34c-3.28-1.89-5.93-1.74-7.71-0.79L14.61,53.8c-2.61-4.52-6.13-5.08-8.36-4.19  c-1.01,0.4-1.79,1.22-2.14,2.23c-0.35,1.02-0.24,2.14,0.3,3.08l10.93,18.93c1.11,1.93,2.53,3.34,4.45,4.45l5.12,2.96  c1.13,0.65,1.4,0.81,1.4,2.41v1.41c-1.37,0.33-2.4,1.55-2.4,3.02v4.78c0,1.72,1.4,3.12,3.12,3.12h16.89c1.72,0,3.12-1.4,3.12-3.12  v-4.78C47.03,86.64,46,85.41,44.63,85.08z M26.22,79l-5.12-2.96c-1.53-0.88-2.61-1.96-3.5-3.5L6.67,53.62  c-0.16-0.29-0.2-0.61-0.09-0.92c0.11-0.31,0.33-0.54,0.64-0.66c1.32-0.53,3.36,0,5.13,3.07l6.27,10.87  c-0.42,0.76-0.57,1.65-0.4,2.51c0.2,1.06,0.86,1.98,1.8,2.52l8.26,4.77c0.62,0.36,1.42,0.15,1.78-0.48  c0.36-0.62,0.15-1.42-0.48-1.78l-8.26-4.77c-0.29-0.17-0.48-0.43-0.54-0.75c-0.06-0.32,0.02-0.64,0.22-0.89  c0.88-1.12,2.91-1.68,5.98,0.09l7.66,4.42c0.1,0.06,0.2,0.1,0.32,0.13c8.07,2.16,7.53,7.17,7.17,10.49  c-0.06,0.55-0.11,1.03-0.11,1.44v1.32h-13.1v-1.32C28.92,80.78,27.8,79.91,26.22,79z M44.41,92.88c0,0.28-0.23,0.5-0.5,0.5H27.03  c-0.28,0-0.5-0.23-0.5-0.5v-4.78c0-0.28,0.23-0.5,0.5-0.5h16.89c0.28,0,0.5,0.23,0.5,0.5V92.88z M16.75,30.95  c-0.36-0.5-0.25-1.2,0.25-1.56l4.25-3.08c0.5-0.36,1.2-0.25,1.56,0.25l3.08,4.25c0.36,0.5,0.25,1.2-0.25,1.56  c-0.5,0.36-1.2,0.25-1.56-0.25l-1.57-2.17c-0.2,1.34-0.29,2.7-0.29,4.06c0,11.3,6.75,21.39,17.21,25.69  c0.57,0.24,0.84,0.89,0.61,1.46c-0.18,0.43-0.6,0.69-1.04,0.69c-0.14,0-0.29-0.03-0.43-0.08c-5.43-2.24-10.06-6-13.39-10.87  c-3.41-4.99-5.21-10.83-5.21-16.9c0-1.42,0.1-2.84,0.3-4.24l-1.96,1.42C17.81,31.57,17.11,31.45,16.75,30.95z M77.07,27.75  c-0.14-0.6,0.24-1.2,0.84-1.34c0.6-0.14,1.2,0.24,1.34,0.84c0.51,2.21,0.77,4.49,0.77,6.78c0,6.06-1.8,11.91-5.21,16.9  c-2.83,4.15-6.61,7.49-11.03,9.77l2.29,0.77c0.59,0.2,0.9,0.83,0.7,1.42c-0.16,0.47-0.59,0.76-1.06,0.76  c-0.12,0-0.24-0.02-0.36-0.06l-4.97-1.68c-0.28-0.09-0.51-0.3-0.65-0.56c-0.13-0.27-0.15-0.57-0.06-0.85l1.68-4.97  c0.2-0.59,0.83-0.9,1.42-0.7c0.59,0.2,0.9,0.83,0.7,1.42l-0.86,2.54c9.27-4.72,15.15-14.21,15.15-24.75  C77.78,31.9,77.54,29.79,77.07,27.75z M29.26,13.87c-0.43-0.45-0.41-1.16,0.04-1.58C34.9,6.94,42.25,4,50,4  c6.78,0,13.26,2.26,18.53,6.4l-0.25-2.41c-0.06-0.62,0.38-1.17,1-1.23c0.61-0.06,1.17,0.38,1.23,1l0.54,5.22  c0.06,0.62-0.38,1.17-1,1.23l-5.22,0.54c-0.04,0-0.08,0.01-0.12,0.01c-0.57,0-1.05-0.43-1.11-1.01c-0.06-0.62,0.38-1.17,1-1.23  l2.66-0.27C62.36,8.36,56.32,6.24,50,6.24c-7.17,0-13.97,2.72-19.16,7.67C30.39,14.33,29.68,14.31,29.26,13.87z M69.71,34.02  c0-10.87-8.84-19.71-19.71-19.71c-10.87,0-19.71,8.84-19.71,19.71c0,10.87,8.84,19.71,19.71,19.71  C60.87,53.73,69.71,44.89,69.71,34.02z M50,51.49c-9.63,0-17.47-7.84-17.47-17.47c0-9.63,7.84-17.47,17.47-17.47  c9.63,0,17.47,7.84,17.47,17.47C67.47,43.65,59.63,51.49,50,51.49z M46.35,30.35c0,1.41,1.15,2.55,2.55,2.55h2.19  c2.64,0,4.79,2.15,4.79,4.79c0,2.63-2.14,4.78-4.77,4.79v2.57c0,0.62-0.5,1.12-1.12,1.12c-0.62,0-1.12-0.5-1.12-1.12v-2.57h-3.65  c-0.62,0-1.12-0.5-1.12-1.12c0-0.62,0.5-1.12,1.12-1.12h5.86c1.41,0,2.55-1.15,2.55-2.55c0-1.41-1.15-2.55-2.55-2.55h-2.19  c-2.64,0-4.79-2.15-4.79-4.79c0-2.63,2.14-4.78,4.77-4.79v-2.57c0-0.62,0.5-1.12,1.12-1.12c0.62,0,1.12,0.5,1.12,1.12v2.57h3.65  c0.62,0,1.12,0.5,1.12,1.12s-0.5,1.12-1.12,1.12h-5.86C47.5,27.79,46.35,28.94,46.35,30.35z"/><text x="0" y="115" fill="#000000" font-size="5px" font-weight="bold" font-family="'Helvetica Neue', Helvetica, Arial-Unicode, Arial, Sans-serif">Created by Hanbai</text><text x="0" y="120" fill="#000000" font-size="5px" font-weight="bold" font-family="'Helvetica Neue', Helvetica, Arial-Unicode, Arial, Sans-serif">from the Noun Project</text></svg>