<?xml version="1.0" encoding="UTF-8"?>
<svg id="Layer_1" xmlns="http://www.w3.org/2000/svg" version="1.1" viewBox="0 0 512 640">
  <!-- Generator: Adobe Illustrator 29.8.2, SVG Export Plug-In . SVG Version: 2.1.1 Build 3)  -->
  <defs>
    <style>
      .st0 {
        fill-rule: evenodd;
      }
    </style>
  </defs>
  <path class="st0" d="M279.86,247.03c8.09,2.13,15.86,5.35,23.09,9.57l23.18-23.18c2.34-2.34,6.14-2.34,8.48,0l25.26,25.26c2.34,2.34,2.34,6.14,0,8.49l-23.18,23.18c4.21,7.23,7.43,15,9.57,23.09h32.78c3.31,0,6,2.69,6,6h0v11.89h36.74v-.02c23.8,0,43.1,19.3,43.11,43.1h-.02v105.79c23.58,3.3,40.02,25.09,36.71,48.67-3.3,23.58-25.09,40.02-48.67,36.71-23.58-3.3-40.02-25.09-36.71-48.67,2.67-19.06,17.65-34.05,36.71-36.71v-105.79h-.02c0-17.18-13.92-31.1-31.1-31.1h0v-.02h-36.74v11.88c0,3.31-2.69,6-6,6h-32.78c-2.13,8.09-5.35,15.86-9.57,23.09l23.18,23.18c2.34,2.34,2.34,6.14,0,8.48l-25.26,25.26c-2.34,2.34-6.14,2.34-8.48,0l-23.18-23.18c-7.23,4.21-15,7.43-23.09,9.57v32.78c0,3.31-2.69,6-6,6h-11.89v13.85c23.58,3.3,40.02,25.09,36.72,48.67-3.3,23.58-25.09,40.02-48.67,36.72-23.58-3.3-40.02-25.09-36.72-48.67,2.67-19.06,17.65-34.05,36.72-36.72v-13.85h-11.89c-3.31,0-6-2.69-6-6v-32.78c-8.09-2.13-15.86-5.35-23.09-9.57l-23.18,23.18c-2.34,2.34-6.14,2.34-8.48,0l-25.26-25.26c-2.34-2.34-2.34-6.14,0-8.48l23.18-23.18c-4.21-7.23-7.43-14.99-9.57-23.09h-32.78c-3.31,0-6-2.69-6-6v-11.89h-36.74v.02c-17.18,0-31.11,13.92-31.11,31.1h0s-.02,0-.02,0v105.79c23.58,3.3,40.01,25.09,36.71,48.67-3.3,23.58-25.09,40.01-48.67,36.71-23.58-3.3-40.01-25.09-36.71-48.67,2.67-19.06,17.65-34.05,36.71-36.71v-105.79h-.02c0-23.8,19.3-43.1,43.11-43.1v.02h36.74v-11.89c0-3.31,2.69-6,6-6h32.78c2.13-8.09,5.35-15.86,9.57-23.09l-23.18-23.18c-2.34-2.34-2.34-6.14,0-8.48l25.26-25.26c2.34-2.34,6.14-2.34,8.48,0l23.18,23.18c7.23-4.21,15-7.43,23.09-9.57v-32.78c0-3.31,2.69-6,6-6h35.73c3.31,0,6,2.69,6,6v32.78h0ZM75.1,500.88c-12.15-12.15-31.85-12.15-43.99,0-12.15,12.15-12.15,31.85,0,43.99,12.15,12.15,31.84,12.15,43.99,0,12.15-12.15,12.15-31.85,0-43.99ZM480.89,500.88c-12.15-12.15-31.85-12.15-43.99,0-12.15,12.15-12.15,31.85,0,43.99,12.15,12.15,31.84,12.15,43.99,0,12.15-12.15,12.15-31.85,0-43.99ZM278,500.88c-12.15-12.15-31.85-12.15-43.99,0-12.15,12.15-12.15,31.85,0,43.99,12.15,12.15,31.84,12.15,43.99,0,12.15-12.15,12.15-31.85,0-43.99ZM261.36,77.33l18.87,32.68h.01s19.06,33.01,19.06,33.01c1.65,2.87.67,6.53-2.2,8.19-.91.52-1.94.8-2.98.8h0s-13.06.01-13.06.01v36.8c0,3.31-2.69,6-6,6h-38.12c-3.31,0-6-2.69-6-6h0v-36.8h-13.06c-3.31,0-6-2.67-6.01-5.98,0-1.25.39-2.48,1.11-3.5l18.78-32.53h0s19.06-33.02,19.06-33.02c1.66-2.86,5.33-3.83,8.19-2.16,1.01.59,1.82,1.46,2.35,2.5h0ZM269.88,115.98l-13.87-24.03-13.89,24.05h0l-13.87,24.01h8.7c3.31,0,6,2.69,6,6v36.8h26.12v-36.8c0-3.31,2.69-6,6-6h8.68l-13.87-24.01h.01v-.02s-.01,0-.01,0ZM276.76,325c0-8.62-6.61-15.33-14.76-17.51v-4.82c0-3.31-2.69-6-6-6s-6,2.69-6,6v4.82c-8.14,2.18-14.76,8.89-14.76,17.51,0,24.03,29.51,13.5,29.51,24.58-.07,1.62-.85,3.12-2.14,4.1-5.43,4.52-15.37,1.55-15.37-4.1,0-3.31-2.69-6-6-6s-6,2.69-6,6c0,8.62,6.61,15.33,14.76,17.51v4.82c0,3.31,2.7,6,6.01,5.99,3.31,0,5.99-2.68,5.99-5.99v-4.82c8.14-2.18,14.76-8.89,14.76-17.51,0-24.03-29.51-13.5-29.51-24.58.07-1.62.85-3.12,2.14-4.1,5.43-4.52,15.37-1.55,15.37,4.1,0,3.31,2.69,6,6,6s6-2.69,6-6h0ZM256,272.8c-35.62,0-64.49,28.87-64.49,64.49s28.87,64.49,64.49,64.49,64.49-28.87,64.49-64.49c0-35.62-28.87-64.5-64.49-64.5ZM293.12,300.17c-20.5-20.5-53.74-20.5-74.24,0-20.5,20.5-20.5,53.74,0,74.24,20.5,20.5,53.74,20.5,74.24,0h0c20.5-20.5,20.5-53.74,0-74.24h0ZM287.12,262.09c-4.55-1.89-9.26-3.35-14.07-4.38-2.97-.4-5.19-2.94-5.19-5.95v-31.51h-23.73v31.51h-.01c0,2.84-1.99,5.28-4.77,5.86-9.24,1.92-19.96,6.14-27.69,11.44-2.39,1.72-5.67,1.45-7.75-.63l-22.29-22.29-16.78,16.78,22.29,22.29h0c2,2.01,2.33,5.14.78,7.52-5.5,8.37-9.4,17.7-11.5,27.5-.4,2.97-2.94,5.19-5.95,5.19h-31.51v23.73h31.51c2.84.02,5.28,2.01,5.86,4.78,1.92,9.24,6.14,19.96,11.44,27.69,1.72,2.39,1.45,5.67-.63,7.75l-22.29,22.29,16.78,16.78,22.29-22.29h0c2.01-2,5.14-2.33,7.52-.78,8.38,5.5,17.7,9.4,27.5,11.5,2.97.4,5.19,2.94,5.19,5.95v31.51h23.73v-31.51h.01c0-2.84,1.99-5.28,4.77-5.86,9.24-1.92,19.96-6.14,27.69-11.44,2.39-1.72,5.67-1.45,7.75.63l22.29,22.29,16.78-16.78-22.29-22.29h0c-2-2.01-2.33-5.14-.78-7.52,5.5-8.38,9.4-17.7,11.5-27.5.4-2.97,2.94-5.19,5.95-5.19h31.51v-23.73h-31.51c-2.84-.02-5.28-2.01-5.86-4.78-1.92-9.24-6.14-19.96-11.44-27.69-1.72-2.39-1.45-5.67.63-7.75l22.29-22.29-16.78-16.78-22.29,22.29h0c-2.01,2-5.15,2.33-7.52.78-4.25-2.79-8.74-5.17-13.44-7.12h0Z"/>
</svg>