<?xml version="1.0" encoding="UTF-8"?>
<svg id="Layer_1" xmlns="http://www.w3.org/2000/svg" version="1.1" viewBox="0 0 110 135">
  <!-- Generator: Adobe Illustrator 29.8.2, SVG Export Plug-In . SVG Version: 2.1.1 Build 3)  -->
  <defs>
    <style>
      .st0 {
        fill-rule: evenodd;
        stroke: #000;
        stroke-miterlimit: 10;
        stroke-width: .3px;
      }
    </style>
  </defs>
  <path class="st0" d="M33,104.5v4.36c0,1.2-.71,2.29-1.82,2.76l-4.57,1.96c-.44.19-.69.66-.59,1.12.1.46.51.8.98.8h30c.48,0,.88-.34.98-.8s-.15-.93-.59-1.12l-4.57-1.96c-1.11-.47-1.82-1.56-1.82-2.76v-4.36c0-.55-.45-1-1-1s-1,.45-1,1v4.36c0,2,1.19,3.81,3.03,4.6l.1.04h-20.26l.1-.04c1.84-.79,3.03-2.6,3.03-4.6v-4.36c0-.55-.45-1-1-1s-1,.45-1,1h0ZM39,104.5v2c0,1.66,1.34,3,3,3s3-1.34,3-3v-2c0-.55-.45-1-1-1s-1,.45-1,1v2c0,.55-.45,1-1,1s-1-.45-1-1v-2c0-.55-.45-1-1-1s-1,.45-1,1ZM9,94.5h63c.55,0,1-.45,1-1s-.45-1-1-1H9v-35c0-1.66,1.34-3,3-3h30c.55,0,1-.45,1-1s-.45-1-1-1H12c-2.76,0-5,2.24-5,5v40c0,2.76,2.24,5,5,5h60c2.76,0,5-2.24,5-5v-30c0-.55-.45-1-1-1s-1,.45-1,1v30c0,1.66-1.34,3-3,3H12c-1.66,0-3-1.34-3-3v-3ZM58,68.5c0-.55-.45-1-1-1h-6c-.55,0-1,.45-1,1v21c0,.55.45,1,1,1h6c.55,0,1-.45,1-1v-21ZM61,68.5v21c0,.55.45,1,1,1h6c.55,0,1-.45,1-1v-20c0-.55-.45-1-1-1s-1,.45-1,1v19h-4v-20c0-.55-.45-1-1-1s-1,.45-1,1ZM47,75.5c0-.55-.45-1-1-1h-6c-.55,0-1,.45-1,1v14c0,.55.45,1,1,1h6c.55,0,1-.45,1-1v-14ZM25,72.5c0-.55-.45-1-1-1h-6c-.55,0-1,.45-1,1v17c0,.55.45,1,1,1h6c.55,0,1-.45,1-1v-17ZM36,81.5c0-.55-.45-1-1-1h-6c-.55,0-1,.45-1,1v8c0,.55.45,1,1,1h6c.55,0,1-.45,1-1v-8ZM23,73.5v15h-4v-15h4ZM45,76.5v12h-4v-12h4ZM56,69.5v19h-4v-19h4ZM34,82.5v6h-4v-6h4ZM49.19,58.89l-4.9,4.9c-.39-.19-.83-.29-1.29-.29-1.66,0-3,1.34-3,3,0,.36.06.7.18,1.02l-6.62,5.42c-.46-.27-.99-.43-1.56-.43-.42,0-.81.09-1.17.24l-7.18-7.83c.22-.42.35-.9.35-1.41,0-1.66-1.34-3-3-3s-3,1.34-3,3,1.34,3,3,3c.42,0,.81-.09,1.17-.24l7.18,7.83c-.22.42-.35.9-.35,1.41,0,1.66,1.34,3,3,3s3-1.34,3-3c0-.36-.06-.7-.18-1.02l6.62-5.42c.46.27.99.43,1.56.43,1.66,0,3-1.34,3-3,0-.46-.11-.9-.29-1.29l4.9-4.9c4.18,3.85,9.76,6.2,15.89,6.2,5.4,0,10.39-1.83,14.36-4.9l3.31,3.32c-.22.46-.42.95-.59,1.46-.12.36-.02.75.24,1.02l11.82,11.81c.26.27.66.36,1.02.24,1.57-.53,2.88-1.32,3.93-2.36,1.04-1.05,1.83-2.36,2.36-3.93.12-.36.03-.76-.24-1.02l-11.82-11.82c-.26-.27-.65-.36-1.01-.25-.52.17-1.01.37-1.46.59l-3.32-3.32c3.07-3.97,4.9-8.95,4.9-14.35,0-12.97-10.53-23.5-23.5-23.5s-23.5,10.53-23.5,23.5c0,6.12,2.35,11.71,6.19,15.89h0ZM89.93,62.18l10.91,10.91c-.41,1.01-.96,1.87-1.67,2.57-.71.71-1.57,1.26-2.57,1.67l-10.91-10.91c.4-1.01.96-1.86,1.67-2.57s1.56-1.27,2.57-1.67ZM32,74.5c.55,0,1,.45,1,1s-.45,1-1,1-1-.45-1-1,.45-1,1-1ZM43,65.5c.55,0,1,.45,1,1s-.45,1-1,1-1-.45-1-1,.45-1,1-1ZM21,62.5c.55,0,1,.45,1,1s-.45,1-1,1-1-.45-1-1,.45-1,1-1ZM51.31,58.21c3.89,3.88,9.26,6.29,15.19,6.29,11.87,0,21.5-9.63,21.5-21.5s-9.63-21.5-21.5-21.5-21.5,9.63-21.5,21.5c0,5.93,2.4,11.3,6.29,15.19l.02.03ZM83.81,58.89c-.45.49-.93.96-1.42,1.41l2.89,2.89c.21-.26.43-.51.66-.75.24-.23.49-.46.75-.67l-2.88-2.88ZM66.5,23.5c-10.76,0-19.5,8.74-19.5,19.5s8.74,19.5,19.5,19.5,19.5-8.74,19.5-19.5-8.74-19.5-19.5-19.5ZM66.5,25.5c9.66,0,17.5,7.84,17.5,17.5s-7.84,17.5-17.5,17.5-17.5-7.84-17.5-17.5,7.84-17.5,17.5-17.5ZM63,57.5v-2h4v3c0,.55.45,1,1,1s1-.45,1-1v-4c0-.55-.45-1-1-1h-6c-.55,0-1,.45-1,1v3c0,.55.45,1,1,1s1-.45,1-1ZM69.59,38.5l-14.3,14.29c-.39.39-.39,1.02,0,1.41.39.39,1.03.39,1.42,0l14.29-14.29v5.59c0,.55.45,1,1,1s1-.45,1-1v-8c0-.55-.45-1-1-1h-8c-.55,0-1,.45-1,1s.45,1,1,1h5.59Z"/>
</svg>