<svg xmlns="http://www.w3.org/2000/svg" version="1.1" viewBox="-5.0 -10.0 110.0 135.0">
 <path d="m95.754 49.348c-9.4375-16.285-26.969-26.398-45.754-26.398s-36.316 10.113-45.754 26.406c-0.23438 0.39844-0.23438 0.88672 0 1.2852 9.4258 16.289 26.969 26.422 45.754 26.422s36.328-10.121 45.754-26.43c0.23438-0.39844 0.23438-0.88672 0-1.2852zm-88.918 0.64062c6.2656-10.449 16.062-18.145 27.328-21.906-6.7852 4.918-11.203 12.906-11.203 21.906 0 9.0117 4.4297 17 11.215 21.93-11.277-3.7656-21.074-11.469-27.34-21.93zm43.164-24.488c13.5 0 24.488 10.98 24.488 24.488 0 13.512-10.98 24.512-24.488 24.512-13.512 0-24.488-11-24.488-24.512 0-13.5 10.988-24.488 24.488-24.488zm15.828 46.418c6.7852-4.918 11.215-12.918 11.215-21.93 0-9-4.4297-16.988-11.203-21.906 11.266 3.7656 21.062 11.461 27.328 21.906-6.2695 10.461-16.066 18.164-27.34 21.93z"/>
 <path d="m37.785 48.715c-0.70312 0-1.2773 0.57031-1.2773 1.2773 0 0.70312 0.57031 1.2773 1.2773 1.2773h3.1328v2.7344h-3.1328c-0.70312 0-1.2773 0.57031-1.2773 1.2773 0 0.70312 0.57031 1.2773 1.2773 1.2773h3.1328v1.2539c0 0.70312 0.57031 1.2773 1.2773 1.2773h1.2539v3.1328c0 0.70312 0.57031 1.2773 1.2773 1.2773 0.70313 0 1.2773-0.57031 1.2773-1.2773v-3.1328h2.7148v3.1328c0 0.70312 0.57031 1.2773 1.2773 1.2773 0.70312 0 1.2773-0.57031 1.2773-1.2773v-3.1328h2.7148v3.1328c0 0.70312 0.57031 1.2773 1.2773 1.2773 0.70312 0 1.2773-0.57031 1.2773-1.2773v-3.1328h1.2539c0.70312 0 1.2773-0.57031 1.2773-1.2773v-1.2539h3.1328c0.70312 0 1.2773-0.57031 1.2773-1.2773 0-0.70312-0.57031-1.2773-1.2773-1.2773h-3.1328v-2.7344h3.1328c0.70312 0 1.2773-0.57031 1.2773-1.2773 0-0.70313-0.57031-1.2773-1.2773-1.2773h-3.1328v-2.7148h3.1328c0.70312 0 1.2773-0.57031 1.2773-1.2773 0-0.70312-0.57031-1.2773-1.2773-1.2773h-3.1328v-1.2539c0-0.70312-0.57031-1.2773-1.2773-1.2773h-1.2539v-3.1328c0-0.70312-0.57031-1.2773-1.2773-1.2773-0.70312 0-1.2773 0.57031-1.2773 1.2773v3.1328h-2.7148v-3.1328c0-0.70312-0.57031-1.2773-1.2773-1.2773-0.70312 0-1.2773 0.57031-1.2773 1.2773v3.1328h-2.7148v-3.1328c0-0.70312-0.57031-1.2773-1.2773-1.2773-0.70312 0-1.2773 0.57031-1.2773 1.2773v3.1328h-1.2539c-0.70312 0-1.2773 0.57031-1.2773 1.2773v1.2539h-3.1328c-0.70312 0-1.2773 0.57031-1.2773 1.2773 0 0.70312 0.57031 1.2773 1.2773 1.2773h3.1328v2.7148zm5.6836-5.2539h13.062v13.07h-13.062z"/>
 <path d="m47.246 54.039h5.5117c0.70313 0 1.2773-0.57031 1.2773-1.2773v-5.5312c0-0.70312-0.57031-1.2773-1.2773-1.2773h-5.5117c-0.70312 0-1.2773 0.57031-1.2773 1.2773v5.5312c0 0.70703 0.57031 1.2773 1.2773 1.2773zm1.2852-5.5195h2.9492v2.9688h-2.9492z"/>
 <path d="m50 70.969c11.57 0 20.98-9.4062 20.98-20.98 0-11.562-9.4062-20.961-20.98-20.961-11.57 0-20.98 9.3984-20.98 20.961 0 11.574 9.4102 20.98 20.98 20.98zm0-39.375c10.152 0 18.418 8.2539 18.418 18.398 0 10.152-8.2656 18.418-18.418 18.418s-18.418-8.2656-18.418-18.418c0-10.145 8.2656-18.398 18.418-18.398z"/>
 <path d="m48.723 13.449v6.0391c0 0.70312 0.57031 1.2773 1.2773 1.2773 0.70312 0 1.2773-0.57031 1.2773-1.2773v-6.0391c2.0195-0.5625 3.5117-2.4062 3.5117-4.6016-0.003906-2.6328-2.1445-4.7656-4.7891-4.7656-2.6211 0-4.7656 2.1328-4.7656 4.7656 0 2.1914 1.4805 4.0391 3.4883 4.6016zm1.2773-6.8047c1.2227 0 2.2227 0.98828 2.2227 2.2031 0 1.2227-1 2.2227-2.2227 2.2227-1.2148 0-2.2031-1-2.2031-2.2227 0-1.2148 0.98828-2.2031 2.2031-2.2031z"/>
 <path d="m26.797 15.348c1.2969 0 2.4688-0.51953 3.3281-1.3672l2.9883 1.7148 2.6445 5.8555c0.21484 0.46875 0.68359 0.75391 1.1641 0.75391 0.17188 0 0.35547-0.039063 0.53125-0.11328 0.64453-0.29688 0.92969-1.0508 0.64453-1.6953l-2.8164-6.2344c-0.11328-0.24609-0.29688-0.44922-0.53125-0.58203l-3.3477-1.918c0.10156-0.37891 0.15234-0.77734 0.15234-1.1836 0-2.6445-2.1328-4.7852-4.7656-4.7852-2.6445 0-4.7852 2.1445-4.7852 4.7852 0.007813 2.6367 2.1484 4.7695 4.793 4.7695zm0-6.9922c1.2148 0 2.2031 1 2.2031 2.2227 0 1.2148-0.98828 2.2031-2.2031 2.2031-1.2227 0-2.2227-0.98828-2.2227-2.2031-0.003907-1.2227 0.99609-2.2227 2.2227-2.2227z"/>
 <path d="m9.4805 26.316c2.1836 0 4.0195-1.4805 4.582-3.4883h3.1523l5.0625 4.4609c0.24609 0.21484 0.53906 0.31641 0.84766 0.31641 0.35547 0 0.70312-0.14453 0.96094-0.42969 0.46875-0.53125 0.41797-1.3359-0.11328-1.8047l-5.418-4.7773c-0.23438-0.20312-0.53125-0.31641-0.84766-0.31641h-3.6328c-0.5625-2.0195-2.3984-3.5117-4.582-3.5117-2.6445 0-4.7852 2.1445-4.7852 4.7852-0.011719 2.6328 2.1289 4.7656 4.7734 4.7656zm0-6.9883c1.2148 0 2.2031 1 2.2031 2.2227 0 1.2148-0.98828 2.2031-2.2031 2.2031-1.2227 0-2.2227-0.98828-2.2227-2.2031-0.003906-1.2227 0.99609-2.2227 2.2227-2.2227z"/>
 <path d="m62.57 22.203c0.17188 0.070313 0.34766 0.11328 0.51953 0.11328 0.48828 0 0.96094-0.28516 1.1719-0.75391l2.6211-5.8555 2.9883-1.7148c0.86719 0.84766 2.0391 1.3672 3.3477 1.3672 2.6211 0 4.7656-2.1328 4.7656-4.7656 0-2.6445-2.1328-4.7852-4.7656-4.7852-2.6445 0-4.7852 2.1445-4.7852 4.7852 0 0.40625 0.0625 0.80469 0.15234 1.1836l-3.3477 1.918c-0.23438 0.13281-0.41797 0.33594-0.53125 0.58203l-2.7969 6.2344c-0.26562 0.65234 0.019532 1.4062 0.66016 1.6914zm10.652-13.848c1.2148 0 2.2031 1 2.2031 2.2227 0 1.2148-0.98828 2.2031-2.2031 2.2031-1.2227 0-2.2227-0.98828-2.2227-2.2031 0-1.2227 1-2.2227 2.2227-2.2227z"/>
 <path d="m75.93 27.172c0.25391 0.28516 0.60156 0.42969 0.96094 0.42969 0.29688 0 0.60156-0.10156 0.84766-0.31641l5.0625-4.4609h3.1523c0.5625 2.0117 2.3984 3.4883 4.582 3.4883 2.6445 0 4.7852-2.1328 4.7852-4.7656 0-2.6445-2.1445-4.7852-4.7852-4.7852-2.1836 0-4.0312 1.4883-4.582 3.5117h-3.6328c-0.30469 0-0.61328 0.11328-0.84766 0.31641l-5.418 4.7773c-0.54297 0.46875-0.59375 1.2773-0.125 1.8047zm14.59-7.8438c1.2227 0 2.2227 1 2.2227 2.2227 0 1.2148-1 2.2031-2.2227 2.2031-1.2148 0-2.2031-0.98828-2.2031-2.2031 0-1.2227 0.98828-2.2227 2.2031-2.2227z"/>
 <path d="m51.277 86.551v-6.0391c0-0.70312-0.57031-1.2773-1.2773-1.2773-0.70312 0-1.2773 0.57031-1.2773 1.2773v6.0391c-2.0117 0.5625-3.4805 2.4062-3.4805 4.6016 0 2.6211 2.1328 4.7656 4.7656 4.7656 2.6445 0 4.7852-2.1328 4.7852-4.7656-0.007813-2.1914-1.4961-4.0391-3.5156-4.6016zm-1.2773 6.8047c-1.2148 0-2.2031-0.98828-2.2031-2.2031 0-1.2227 0.98828-2.2227 2.2031-2.2227 1.2227 0 2.2227 1 2.2227 2.2227 0 1.2148-1 2.2031-2.2227 2.2031z"/>
 <path d="m37.449 77.797c-0.64453-0.28516-1.3984-0.011719-1.6953 0.64453l-2.6445 5.8555-2.9883 1.7148c-0.85547-0.84766-2.0312-1.3672-3.3281-1.3672-2.6445 0-4.7852 2.1328-4.7852 4.7656 0 2.6445 2.1445 4.7852 4.7852 4.7852 2.6211 0 4.7656-2.1445 4.7656-4.7852 0-0.40625-0.0625-0.80469-0.15234-1.1836l3.3477-1.918c0.23438-0.13281 0.41797-0.33594 0.53125-0.58203l2.8164-6.2344c0.27734-0.64453-0.007812-1.4102-0.65234-1.6953zm-10.652 13.848c-1.2227 0-2.2227-1-2.2227-2.2227 0-1.2148 1-2.2031 2.2227-2.2031 1.2148 0 2.2031 0.98828 2.2031 2.2031 0 1.2227-0.98828 2.2227-2.2031 2.2227z"/>
 <path d="m24.07 72.828c-0.46875-0.53125-1.2773-0.58203-1.8047-0.11328l-5.0625 4.4609h-3.1445c-0.5625-2.0195-2.3984-3.5117-4.582-3.5117-2.6445 0-4.7852 2.1445-4.7852 4.7852 0 2.6211 2.1445 4.7656 4.7852 4.7656 2.1836 0 4.0195-1.4805 4.582-3.4805h3.6328c0.30469 0 0.61328-0.11328 0.84766-0.31641l5.418-4.7773c0.53125-0.47656 0.58203-1.2852 0.11328-1.8125zm-14.59 7.8242c-1.2227 0-2.2227-0.98828-2.2227-2.2031 0-1.2227 1-2.2227 2.2227-2.2227 1.2148 0 2.2031 1 2.2031 2.2227 0 1.2148-0.98828 2.2031-2.2031 2.2031z"/>
 <path d="m73.223 84.652c-1.3047 0-2.4805 0.51953-3.3477 1.3672l-2.9883-1.7148-2.6211-5.8555c-0.28516-0.64453-1.0391-0.9375-1.6953-0.64453-0.64453 0.28516-0.92969 1.0508-0.64453 1.6953l2.7969 6.2344c0.11328 0.24609 0.29688 0.44922 0.53125 0.58203l3.3477 1.918c-0.10156 0.37891-0.15234 0.77734-0.15234 1.1836 0 2.6445 2.1445 4.7852 4.7852 4.7852 2.6211 0 4.7656-2.1445 4.7656-4.7852-0.011719-2.6328-2.1445-4.7656-4.7773-4.7656zm0 6.9922c-1.2227 0-2.2227-1-2.2227-2.2227 0-1.2148 1-2.2031 2.2227-2.2031 1.2148 0 2.2031 0.98828 2.2031 2.2031 0.003907 1.2227-0.98828 2.2227-2.2031 2.2227z"/>
 <path d="m90.52 73.664c-2.1836 0-4.0312 1.4883-4.582 3.5117h-3.1445l-5.0625-4.4609c-0.53125-0.46875-1.3359-0.41797-1.8047 0.11328s-0.41797 1.3359 0.11328 1.8047l5.418 4.7773c0.23438 0.20312 0.53125 0.31641 0.84766 0.31641h3.6328c0.5625 2.0117 2.3984 3.4805 4.582 3.4805 2.6445 0 4.7852-2.1328 4.7852-4.7656 0-2.6367-2.1406-4.7773-4.7852-4.7773zm0 6.9883c-1.2148 0-2.2031-0.98828-2.2031-2.2031 0-1.2227 0.98828-2.2227 2.2031-2.2227 1.2227 0 2.2227 1 2.2227 2.2227 0.003906 1.2148-0.99609 2.2031-2.2227 2.2031z"/>
<text x="0.0" y="117.5" font-size="5.0" font-weight="bold" font-family="Arbeit Regular, Helvetica, Arial-Unicode, Arial, Sans-serif" fill="#000000">Created by Saputra</text><text x="0.0" y="122.5" font-size="5.0" font-weight="bold" font-family="Arbeit Regular, Helvetica, Arial-Unicode, Arial, Sans-serif" fill="#000000">from Noun Project</text></svg>