<?xml version="1.0" encoding="UTF-8"?>
<svg id="Layer_1" xmlns="http://www.w3.org/2000/svg" version="1.1" viewBox="0 0 110 135">
  <!-- Generator: Adobe Illustrator 29.8.2, SVG Export Plug-In . SVG Version: 2.1.1 Build 3)  -->
  <defs>
    <style>
      .st0 {
        stroke: #000;
        stroke-miterlimit: 10;
      }
    </style>
  </defs>
  <path class="st0" d="M24.37,66.27h-14.88c-.64,0-1.16.52-1.16,1.16v23.07c0,.64.52,1.16,1.16,1.16h14.88c.64,0,1.16-.52,1.16-1.16v-23.07c0-.64-.52-1.16-1.16-1.16h0ZM23.21,89.33h-12.56v-20.74h12.56v20.74ZM46.87,49.08h-14.88c-.64,0-1.16.52-1.16,1.16v40.26c0,.64.52,1.16,1.16,1.16h14.88c.64,0,1.16-.52,1.16-1.16v-40.26c.01-.64-.51-1.16-1.16-1.16h0ZM45.71,89.33h-12.55v-37.94h12.56v37.94h0ZM11.76,53.3c-.43-.47-.4-1.21.07-1.64l26.33-24.14c.43-.4,1.1-.41,1.54-.02l20.79,17.85,24.86-22.19h-6.27c-.64,0-1.16-.52-1.16-1.16s.52-1.16,1.16-1.16h9.32c.64,0,1.16.52,1.16,1.16v9.32c0,.64-.52,1.16-1.16,1.16s-1.16-.52-1.16-1.16v-6.72s-25.96,23.16-25.96,23.16c-.43.39-1.09.39-1.53.01l-20.78-17.84-25.57,23.44c-.22.2-.5.31-.78.31-.32,0-.63-.13-.86-.38h0ZM93.04,72.23v-28.81c0-.64-.52-1.16-1.16-1.16h-14.88c-.64,0-1.16.52-1.16,1.16v23.49c-1.83.17-3.61.54-5.3,1.1v-7.34c0-.64-.52-1.16-1.16-1.16h-14.88c-.64,0-1.16.52-1.16,1.16v29.82c0,.59.44,1.07,1,1.15.6,12.53,10.98,22.53,23.65,22.53s23.68-10.62,23.68-23.68c0-7.34-3.36-13.91-8.63-18.26h0ZM78.16,44.58h12.56v25.95c-3.63-2.32-7.94-3.68-12.56-3.72v-22.23ZM55.66,61.83h12.56v7.09c-5.83,2.65-10.4,7.6-12.56,13.68v-20.77ZM77.99,111.86c-11.78,0-21.36-9.58-21.36-21.36s9.58-21.36,21.36-21.36,21.36,9.58,21.36,21.36c0,11.78-9.58,21.36-21.36,21.36ZM77.99,72.6c-9.87,0-17.9,8.03-17.9,17.9s8.03,17.9,17.9,17.9,17.9-8.03,17.9-17.9c0-9.87-8.03-17.9-17.9-17.9ZM92.02,97.26l-1.29-.75c-.56-.32-1.27-.13-1.59.43-.32.56-.13,1.27.43,1.59l1.29.74c-1.1,1.61-2.49,3-4.1,4.1l-.74-1.29c-.32-.56-1.03-.75-1.59-.43-.56.32-.75,1.03-.43,1.59l.75,1.29c-1.72.83-3.61,1.35-5.6,1.5v-1.49c0-.64-.52-1.16-1.16-1.16s-1.16.52-1.16,1.16v1.49c-1.99-.15-3.88-.67-5.6-1.5l.75-1.29c.32-.56.13-1.27-.43-1.59s-1.27-.13-1.59.43l-.74,1.29c-1.61-1.1-3-2.49-4.1-4.1l1.29-.74c.56-.32.75-1.03.43-1.59-.32-.56-1.03-.75-1.59-.43l-1.29.75c-.83-1.72-1.35-3.61-1.5-5.6h1.49c.64,0,1.16-.52,1.16-1.16s-.52-1.16-1.16-1.16h-1.49c.15-1.99.67-3.88,1.5-5.6l1.29.75c.18.11.38.16.58.16.4,0,.79-.21,1.01-.58.32-.56.13-1.27-.43-1.59l-1.29-.74c1.1-1.61,2.49-3,4.1-4.1l.74,1.29c.22.37.61.58,1.01.58.2,0,.4-.05.58-.16.56-.32.75-1.03.43-1.59l-.75-1.29c1.72-.83,3.61-1.35,5.6-1.5v1.49c0,.64.52,1.16,1.16,1.16s1.16-.52,1.16-1.16v-1.49c1.99.15,3.88.67,5.6,1.5l-.75,1.29c-.32.56-.13,1.27.43,1.59.18.11.38.16.58.16.4,0,.79-.21,1.01-.58l.74-1.29c1.61,1.1,3,2.49,4.1,4.1l-1.29.74c-.56.32-.75,1.03-.43,1.59.22.37.61.58,1.01.58.2,0,.4-.05.58-.16l1.29-.75c.83,1.72,1.35,3.61,1.5,5.6h-1.49c-.64,0-1.16.52-1.16,1.16s.52,1.16,1.16,1.16h1.49c-.15,1.99-.67,3.88-1.5,5.6h0ZM85.05,90.49c0,.64-.52,1.16-1.16,1.16h-5.9c-.64,0-1.16-.52-1.16-1.16v-8.75c0-.64.52-1.16,1.16-1.16s1.16.52,1.16,1.16v7.59h4.74c.64,0,1.16.52,1.16,1.16h0Z"/>
</svg>