<?xml version="1.0" encoding="UTF-8"?>
<svg id="Layer_1" xmlns="http://www.w3.org/2000/svg" version="1.1" viewBox="0 0 110 135">
  <!-- Generator: Adobe Illustrator 29.8.2, SVG Export Plug-In . SVG Version: 2.1.1 Build 3)  -->
  <defs>
    <style>
      .st0 {
        fill-rule: evenodd;
        stroke: #000;
        stroke-miterlimit: 10;
        stroke-width: .5px;
      }
    </style>
  </defs>
  <path class="st0" d="M35.21,36.02h4.57v-9.65c0-1.29,1.95-1.29,1.95,0v9.65h12.53v-3.32c-4.38-.78-6.14-6.21-2.95-9.4,3.49-3.49,9.48-1,9.48,3.93,0,2.71-1.96,5-4.58,5.47v3.32h12.53v-6.05c0-1.29,1.95-1.29,1.95,0v6.05h4.57c6.38,0,11.59,5.21,11.59,11.59v3.49h2.79c.78-4.38,6.21-6.14,9.4-2.95,3.49,3.49,1,9.48-3.93,9.48-2.71,0-5-1.96-5.47-4.58h-2.79v12.53h8.61c1.29,0,1.29,1.95,0,1.95h-8.61v12.53h3.99c.78-4.38,6.21-6.14,9.4-2.95,3.49,3.49,1,9.48-3.93,9.48-2.71,0-5-1.96-5.47-4.58h-3.99v5.66c0,6.38-5.21,11.59-11.59,11.59h-4.57v9.37c0,1.29-1.95,1.29-1.95,0v-9.37h-12.53v3.04c4.38.78,6.14,6.21,2.95,9.4-3.49,3.49-9.48,1-9.48-3.93,0-2.71,1.96-5,4.58-5.47v-3.04h-12.53v5.77c0,1.29-1.95,1.29-1.95,0v-5.77h-4.57c-6.38,0-11.59-5.21-11.59-11.59v-5.66h-3.27c-.78,4.38-6.21,6.14-9.4,2.95-3.49-3.49-1-9.48,3.93-9.48,2.71,0,5,1.96,5.47,4.58h3.27v-12.53h-9.09c-1.29,0-1.29-1.95,0-1.95h9.09v-12.53h-4.48c-.78,4.38-6.21,6.14-9.4,2.95-3.49-3.49-1-9.48,3.93-9.48,2.71,0,5,1.96,5.47,4.58h4.48v-3.49c0-6.38,5.21-11.59,11.59-11.59h0ZM56.61,67.68c.72-.8.7-1.97-.01-2.78h0c-.71-.82-2.07-.9-2.95-.05h0c-.81.81-.79,2.13,0,2.9h0c.76.8,2.06.82,2.95-.07h0ZM59.08,66.31c0-.95-.35-1.95-1.05-2.72h0l-.06-.07h0c-1.59-1.61-4.09-1.64-5.7-.05h0c-1.55,1.55-1.56,4.08,0,5.65h0c1.58,1.59,4.19,1.55,5.72-.07.71-.69,1.09-1.79,1.09-2.73h0ZM58.5,73.49l1.36.8c.38.25.89.2,1.22-.13l1.88-1.88c.3-.3.38-.79.15-1.18l-.82-1.4.3-.72,1.57-.41c.42-.11.73-.49.73-.94v-2.62c.02-.45-.28-.86-.73-.98l-1.57-.41c-.04-.12-.09-.25-.14-.36-.05-.12-.1-.24-.16-.36l.8-1.36c.25-.38.2-.89-.13-1.22l-1.88-1.88c-.3-.3-.79-.38-1.18-.15l-1.4.82-.72-.3-.41-1.57c-.11-.42-.49-.73-.94-.73h-2.62c-.45-.02-.86.28-.98.73l-.41,1.57-.72.3-1.36-.8c-.38-.25-.89-.2-1.22.13l-1.88,1.88c-.3.3-.38.79-.15,1.18l.82,1.4-.3.72-1.57.41c-.42.11-.73.49-.73.94v2.62c-.02.45.28.86.73.98l1.56.41.3.72-.8,1.36c-.25.38-.2.89.13,1.22l1.88,1.88c.3.3.79.38,1.18.15l1.4-.82.72.3.41,1.57c.11.42.49.73.94.73h2.62c.45.01.86-.28.98-.73l.41-1.57.71-.29ZM57.4,71.85c.61-.25,1.02-.66,1.62-.31l1.21.71.82-.82-.68-1.16c-.41-.66.01-1.05.27-1.68.25-.6.25-1.19.93-1.37l1.36-.36v-1.15l-1.34-.35c-.71-.17-.7-.76-.96-1.37-.27-.63-.65-1.04-.31-1.62l.71-1.21-.82-.82-1.16.68c-.66.41-1.05-.01-1.68-.27-.6-.25-1.2-.25-1.37-.93l-.36-1.36h-1.15l-.35,1.34c-.21.82-.94.66-2.02,1.27-.29.16-.66.18-.97,0l-1.21-.71-.82.82.68,1.16c.41.65-.01,1.05-.27,1.68-.25.6-.25,1.19-.93,1.37l-1.36.36v1.15l1.34.35c.82.21.66.94,1.27,2.02.16.29.18.66,0,.97l-.71,1.21.82.82,1.16-.68c.66-.42,1.05.01,1.68.27.6.25,1.19.25,1.37.93l.36,1.36h1.15l.35-1.34c.18-.7.76-.7,1.38-.96h0ZM60.15,86.69c.83-.17,1.47-.88,1.47-1.74,0-.46.03-2.47-.03-2.79v-.51c-.02-1.04-.03-2.82,2.68-5.38,2.79-2.62,4.4-6.3,4.4-10.18,0-6.92-6.05-13.76-13.58-13.76s-13.58,6.84-13.58,13.76c0,3.89,1.62,7.56,4.4,10.18,2.7,2.54,2.77,4.34,2.82,5.39,0,.23.02.43.04.63,0,.08-.01.14-.01.18v2.46c0,.5.22.96.58,1.29h0c.24.23.55.39.89.46.19,1.02.69,1.93,1.39,2.63,2.88,2.88,7.78,1.32,8.52-2.62h0ZM52.26,86.73c.93,2.8,4.93,2.8,5.86,0h-5.86ZM64.36,52.2l1.47-2.54c.64-1.11-1.05-2.08-1.69-.97l-1.47,2.54c-.27.46-.11,1.06.36,1.33.46.27,1.06.11,1.33-.36h0ZM71.94,67.28h2.93c1.29,0,1.29-1.95,0-1.95h-2.93c-1.29,0-1.29,1.95,0,1.95ZM70.17,58.72l2.54-1.47c1.11-.64.14-2.32-.97-1.69l-2.54,1.47c-1.11.64-.14,2.32.97,1.69ZM38.24,65.32h-2.93c-1.29,0-1.29,1.95,0,1.95h2.93c1.29,0,1.29-1.95,0-1.95ZM40.99,57.03l-2.54-1.46c-1.11-.64-2.08,1.05-.97,1.69l2.54,1.47c.46.27,1.06.11,1.33-.36.27-.47.11-1.06-.36-1.33h0ZM47.51,51.22l-1.47-2.54c-.64-1.11-2.32-.14-1.69.97l1.47,2.54c.64,1.11,2.32.14,1.69-.97ZM56.07,49.45v-2.93c0-1.29-1.95-1.29-1.95,0v2.93c0,1.29,1.95,1.29,1.95,0ZM47.26,74.86c2.65,2.49,3.21,4.47,3.37,5.85h9.03c.1-1.39.63-3.36,3.28-5.85,2.41-2.27,3.79-5.4,3.79-8.77,0-5.88-5.2-11.81-11.62-11.81s-11.62,5.93-11.62,11.81c0,3.37,1.38,6.5,3.79,8.77ZM59.67,82.66h-8.95v2.11h8.95v-2.11ZM11.28,81.04c0,3.2,3.89,4.81,6.15,2.55,2.26-2.26.65-6.15-2.55-6.15-1.99,0-3.6,1.61-3.6,3.6h0ZM10.07,52.07c0,3.2,3.89,4.81,6.15,2.55s.65-6.15-2.55-6.15c-1.99,0-3.6,1.61-3.6,3.6h0ZM98.72,52.07c0-3.2-3.89-4.81-6.15-2.55-2.26,2.26-.65,6.15,2.55,6.15,1.99,0,3.6-1.61,3.6-3.6h0ZM99.93,81.04c0-3.2-3.89-4.81-6.15-2.55-2.26,2.26-.65,6.15,2.55,6.15,1.99,0,3.6-1.61,3.6-3.6h0ZM52.7,110.32c2.26,2.26,6.15.65,6.15-2.55s-3.89-4.81-6.15-2.55c-1.41,1.41-1.41,3.69,0,5.09ZM57.79,24.68c-2.26-2.26-6.15-.65-6.15,2.55s3.89,4.81,6.15,2.55c1.41-1.41,1.41-3.69,0-5.09ZM35.21,40.91c-3.68,0-6.7,3.01-6.7,6.7v40.07c0,3.68,3.01,6.7,6.7,6.7h40.07c3.68,0,6.7-3.01,6.7-6.7v-40.07c0-3.68-3.01-6.7-6.7-6.7h-40.07ZM75.28,42.86h-40.07c-2.61,0-4.74,2.14-4.74,4.74v40.07c0,2.61,2.14,4.74,4.74,4.74h40.07c2.61,0,4.74-2.14,4.74-4.74v-40.07c0-2.61-2.13-4.74-4.74-4.74ZM75.28,37.97h-40.07c-5.3,0-9.63,4.34-9.63,9.63v40.07c0,5.3,4.34,9.63,9.63,9.63h40.07c5.3,0,9.63-4.34,9.63-9.63v-40.07c0-5.3-4.34-9.63-9.63-9.63Z"/>
</svg>