<?xml version="1.0" encoding="UTF-8"?>
<svg id="Layer_1" xmlns="http://www.w3.org/2000/svg" version="1.1" viewBox="0 0 550 687.5">
  <!-- Generator: Adobe Illustrator 29.8.2, SVG Export Plug-In . SVG Version: 2.1.1 Build 3)  -->
  <defs>
    <style>
      .st0 {
        stroke: #000;
        stroke-miterlimit: 10;
        stroke-width: 1.2px;
      }
    </style>
  </defs>
  <path class="st0" d="M506,532.75c-3.3,0-6-2.7-6-6V232.75h-86c-3.3,0-6-2.7-6-6s2.7-6,6-6h92c3.3,0,6,2.7,6,6v300c0,3.3-2.7,6-6,6Z"/>
  <path class="st0" d="M44,532.75c-3.3,0-6-2.7-6-6V226.75c0-3.3,2.7-6,6-6h94c3.3,0,6,2.7,6,6s-2.7,6-6,6H50v294c0,3.3-2.7,6-6,6Z"/>
  <path class="st0" d="M310,550.75h-66c-1.6,0-3.1-.6-4.2-1.8l-18-18c-2.3-2.3-2.3-6.1,0-8.5,2.3-2.3,6.1-2.3,8.5,0l16.2,16.2h61l16.2-16.2c2.3-2.3,6.1-2.3,8.5,0,2.3,2.3,2.3,6.1,0,8.5l-18,18c-1.1,1.2-2.6,1.8-4.2,1.8Z"/>
  <path class="st0" d="M499,586.75H51c-17.1,0-31-13.9-31-31v-29c0-3.3,2.7-6,6-6h200c3.3,0,6,2.7,6,6s-2.7,6-6,6H32v23c0,10.5,8.5,19,19,19h448c10.5,0,19-8.5,19-19v-23h-190c-3.3,0-6-2.7-6-6s2.7-6,6-6h196c3.3,0,6,2.7,6,6v29c0,17.1-13.9,31-31,31Z"/>
  <path class="st0" d="M278,496.75c-1.2,0-2.5-.4-3.5-1.1l-75-54.7c-42.2-30.8-67.4-80.3-67.4-132.6v-129.6c0-3.3,2.7-6,6-6,37.9,0,67.5-29,67.5-66,0-3.3,2.7-6,6-6h129c3.3,0,6,2.7,6,6,0,37,29.6,66,67.5,66,3.3,0,6,2.7,6,6v131c0,51.3-24.5,100.4-65.6,131.2l-72.8,54.6c-1.2.8-2.4,1.2-3.7,1.2ZM144,184.55v123.8c0,48.4,23.4,94.3,62.5,122.9l71.5,52.1,69.3-51.9c38-28.7,60.7-74.1,60.7-121.7v-125.2c-19-1.4-36.6-9.1-50.2-22.3-13.6-13.2-21.7-30.6-23.1-49.5h-117.4c-1.4,18.9-9.5,36.3-23.1,49.5-13.6,13.1-31.2,20.9-50.2,22.3Z"/>
  <path class="st0" d="M335,400.75h-120c-11.6,0-21-9.4-21-21v-108c0-11.6,9.4-21,21-21h120c11.6,0,21,9.4,21,21v108c0,11.6-9.4,21-21,21ZM215,262.75c-5,0-9,4-9,9v108c0,5,4,9,9,9h120c5,0,9-4,9-9v-108c0-5-4-9-9-9h-120Z"/>
  <path class="st0" d="M326,262.75h-102c-3.3,0-6-2.7-6-6v-21c0-31.7,26.1-58.5,57-58.5s57,26.8,57,58.5v21c0,3.3-2.7,6-6,6ZM230,250.75h90v-15c0-25.2-20.6-46.5-45-46.5s-45,21.3-45,46.5v15Z"/>
  <path class="st0" d="M276,328.75c-13.2,0-24-10.8-24-24s10.8-24,24-24,24,10.8,24,24-10.8,24-24,24ZM276,292.75c-6.6,0-12,5.4-12,12s5.4,12,12,12,12-5.4,12-12-5.4-12-12-12Z"/>
  <path class="st0" d="M298,370.75h-44c-1.8,0-3.6-.8-4.7-2.3-1.1-1.4-1.6-3.3-1.2-5.1l10.6-46.1c.7-3.2,4-5.2,7.2-4.5s5.2,4,4.5,7.2l-8.9,38.8h28.9l-8.9-38.8c-.7-3.2,1.3-6.4,4.5-7.2,3.2-.7,6.4,1.3,7.2,4.5l10.6,46.1c.4,1.8,0,3.6-1.2,5.1s-2.8,2.3-4.6,2.3Z"/>
  <path class="st0" d="M206,496.75H74c-3.3,0-6-2.7-6-6s2.7-6,6-6h132c3.3,0,6,2.7,6,6s-2.7,6-6,6Z"/>
  <path class="st0" d="M164,460.75h-90c-3.3,0-6-2.7-6-6s2.7-6,6-6h90c3.3,0,6,2.7,6,6s-2.7,6-6,6Z"/>
  <path class="st0" d="M128,424.75h-54c-3.3,0-6-2.7-6-6s2.7-6,6-6h54c3.3,0,6,2.7,6,6s-2.7,6-6,6Z"/>
  <path class="st0" d="M476,496.75h-132c-3.3,0-6-2.7-6-6s2.7-6,6-6h132c3.3,0,6,2.7,6,6s-2.7,6-6,6Z"/>
  <path class="st0" d="M476,460.75h-90c-3.3,0-6-2.7-6-6s2.7-6,6-6h90c3.3,0,6,2.7,6,6s-2.7,6-6,6Z"/>
  <path class="st0" d="M476,424.75h-54c-3.3,0-6-2.7-6-6s2.7-6,6-6h54c3.3,0,6,2.7,6,6s-2.7,6-6,6Z"/>
</svg>