<?xml version="1.0" encoding="UTF-8"?>
<svg id="Layer_1" xmlns="http://www.w3.org/2000/svg" version="1.1" viewBox="0 0 95 118.75">
  <!-- Generator: Adobe Illustrator 29.8.2, SVG Export Plug-In . SVG Version: 2.1.1 Build 3)  -->
  <defs>
    <style>
      .st0 {
        stroke: #000;
        stroke-miterlimit: 10;
        stroke-width: .3px;
      }
    </style>
  </defs>
  <path class="st0" d="M37.14,46.38h7c.61,0,1.1-.49,1.1-1.1v-4.94l4.72-2.78c.17.4.57.67,1.01.67h7c.07,0,.15-.02.22-.04l5.52,4.62v5.92c0,.61.49,1.1,1.1,1.1h7c.61,0,1.1-.49,1.1-1.1v-7c0-.18-.05-.36-.15-.52l7.26-9.5h5.63c.61,0,1.1-.49,1.1-1.1v-7c0-.61-.49-1.1-1.1-1.1h-7c-.61,0-1.1.49-1.1,1.1v7c0,.18.05.36.15.52l-7.25,9.5h-5.63c-.07,0-.15.02-.22.04l-5.51-4.62v-5.93c0-.61-.49-1.1-1.1-1.1h-7c-.61,0-1.1.49-1.1,1.1v4.93l-4.72,2.78c-.17-.4-.57-.67-1.01-.67h-7c-.61,0-1.1.49-1.1,1.1v7c0,.61.49,1.1,1.09,1.11,0,0,0,0,0,0ZM79.75,24.7h4.8v4.8h-4.8v-4.8ZM65.92,42.83h4.79v4.8h-4.79v-4.8ZM52.08,31.23h4.8v4.8h-4.8v-4.8ZM38.24,39.38h4.8v4.8h-4.8v-4.8ZM50.05,43.93c-.61,0-1.1.49-1.1,1.1v32.5c0,.61.49,1.1,1.1,1.1h8.85c.61,0,1.1-.49,1.1-1.1v-32.49c0-.61-.49-1.1-1.1-1.1h-8.85ZM57.8,76.43h-6.64v-30.29h6.64v30.29ZM63.89,55.05c-.61,0-1.1.49-1.1,1.1v21.38c0,.61.49,1.1,1.1,1.1h8.85c.61,0,1.1-.49,1.1-1.1v-21.38c0-.61-.49-1.1-1.1-1.1h-8.85ZM71.64,76.43h-6.64v-19.17h6.64v19.17ZM86.58,38.87h-8.85c-.61,0-1.1.49-1.1,1.1v37.56c0,.61.49,1.1,1.1,1.1h8.85c.61,0,1.1-.49,1.1-1.1v-37.56c0-.61-.49-1.1-1.1-1.1ZM85.48,76.43h-6.65v-35.36h6.64v35.36ZM86.5,82.6h-43.54c.33-1.3.52-2.63.55-3.97h1.54c.61,0,1.1-.49,1.1-1.1v-23.36c0-.61-.49-1.1-1.1-1.1h-8.85c-.61,0-1.1.49-1.1,1.1v8.69c-1.29-.82-2.68-1.48-4.14-1.95V24.54c0-.61-.49-1.1-1.1-1.1h-4.43c-.61,0-1.1.49-1.1,1.1h0v35.55c-9.97.59-17.58,9.15-16.99,19.13.59,9.97,9.15,17.58,19.13,16.99,5.21-.31,10.03-2.85,13.23-6.98h46.79c.61,0,1.1-.49,1.1-1.1v-4.43c0-.61-.49-1.1-1.1-1.1,0,0,0,0,0,0h0ZM37.31,55.27h6.65v21.16h-.5c-.44-4.62-2.64-8.88-6.15-11.92v-9.24ZM28.76,25.64v34.71c-.73-.13-1.47-.22-2.22-.26V25.64h2.22ZM25.44,94.03c-8.78,0-15.9-7.12-15.9-15.9s7.12-15.9,15.9-15.9,15.9,7.12,15.9,15.9c0,8.78-7.12,15.89-15.9,15.9ZM85.4,87.03h-44.2c.4-.72.76-1.46,1.06-2.22h43.14v2.22ZM25.44,64.07c-7.77,0-14.06,6.3-14.06,14.07,0,7.77,6.3,14.06,14.07,14.06,7.77,0,14.06-6.3,14.06-14.06,0-7.77-6.3-14.06-14.07-14.07ZM26.54,89.94v-1.74h-2.2v1.74c-5.67-.54-10.16-5.03-10.7-10.7h1.74v-2.2h-1.74c.61-6.52,6.38-11.31,12.9-10.71,5.68.53,10.18,5.03,10.71,10.71h-1.74v2.2h1.74c-.54,5.67-5.03,10.16-10.7,10.7h0ZM26.54,77.03h5.27v2.2h-6.37c-.61,0-1.1-.49-1.1-1.1v-6.36h2.2v5.26Z"/>
</svg>