<?xml version="1.0" encoding="UTF-8"?>
<svg id="Layer_1" xmlns="http://www.w3.org/2000/svg" version="1.1" viewBox="0 0 110 135">
  <!-- Generator: Adobe Illustrator 29.8.2, SVG Export Plug-In . SVG Version: 2.1.1 Build 3)  -->
  <defs>
    <style>
      .st0 {
        stroke: #000;
        stroke-miterlimit: 10;
        stroke-width: .5px;
      }
    </style>
  </defs>
  <path class="st0" d="M34,62.36h4.63c2.41,0,4.38,1.96,4.38,4.38,0,.73.59,1.33,1.33,1.33s1.33-.59,1.33-1.33c0-3.88-3.15-7.03-7.03-7.03h-.98v-3.86c0-.73-.59-1.33-1.33-1.33s-1.33.59-1.33,1.33v3.86h-.99c-3.88,0-7.03,3.15-7.03,7.03s3.15,7.02,7.03,7.02h4.63c2.41,0,4.38,1.96,4.38,4.38s-1.96,4.37-4.38,4.37h-4.63c-2.41,0-4.38-1.96-4.38-4.37,0-.73-.59-1.33-1.33-1.33s-1.33.59-1.33,1.33c0,3.87,3.15,7.02,7.03,7.02h.99v3.86c0,.73.59,1.33,1.33,1.33s1.33-.59,1.33-1.33v-3.86h.98c3.88,0,7.03-3.15,7.03-7.02s-3.15-7.03-7.03-7.03h-4.63c-2.41,0-4.38-1.96-4.38-4.37s1.96-4.38,4.38-4.38Z"/>
  <path class="st0" d="M66.88,72.76c-1.22,0-2.4.07-3.54.2-1.89-7.07-6.25-16.19-12.33-22.5,1.16-.79,1.92-2.12,1.92-3.63,0-2.43-1.98-4.41-4.4-4.41h-.88l7.64-10.81c.73-1.05.7-2.42-.08-3.42-.78-1.01-2.11-1.38-3.3-.92l-7.59,2.91c-.1.04-.2,0-.27-.08l-5.33-8.16c-.54-.83-1.41-1.3-2.41-1.3s-1.87.48-2.41,1.3l-5.33,8.16c-.06.09-.16.12-.27.09l-7.59-2.91c-1.2-.46-2.52-.09-3.3.92-.79,1-.82,2.38-.08,3.43l7.64,10.81h-.88c-2.43,0-4.4,1.98-4.4,4.41,0,1.51.76,2.84,1.92,3.63-8.14,8.43-13.5,22.06-13.5,30.27,0,4.95,2.41,9.25,6.95,12.46,4.24,2.99,10.31,4.96,17.09,5.53,1.39.12,2.79.18,4.17.18,4.38,0,8.68-.59,12.54-1.7v6.55c0,5.96,7.91,10.62,18,10.62s18-4.66,18-10.62v-20.36c0-5.96-7.91-10.62-18-10.62h0ZM82.23,83.39c0,4.32-7.02,7.97-15.34,7.97s-15.35-3.65-15.35-7.97,7.03-7.97,15.35-7.97c8.32,0,15.34,3.65,15.34,7.97ZM82.23,89.03v4.55c0,4.32-7.02,7.97-15.34,7.97-7.46,0-13.88-2.94-15.12-6.66,0-.02,0-.03-.02-.05s-.01-.03-.02-.04c-.12-.4-.19-.8-.19-1.22v-4.55s.04.03.05.05c.06.06.13.12.2.18.03.02.05.05.09.08.09.08.18.16.27.23,0,0,0,0,.02.01.1.08.2.16.3.24l.09.07c.07.05.15.11.22.17.04.02.07.05.1.08.09.06.17.12.26.18l.07.05c.11.07.22.15.33.22l.09.06c.09.05.17.11.26.16.04.02.08.05.12.07.09.05.17.1.26.15.03.02.07.04.1.06.12.07.24.13.37.2.02.02.05.02.08.04.1.05.2.11.3.16.04.02.09.04.13.06.09.05.18.09.27.13.04.02.09.04.12.06.12.06.25.12.38.17h.02c.13.07.27.13.41.18.04.02.09.04.13.05.1.04.2.08.3.12.05.02.09.04.14.05.11.04.22.09.34.12l.09.04c.14.05.29.1.44.15.04.02.09.03.12.04.11.04.22.07.33.11.05.02.1.03.16.05.11.03.22.07.33.1.05.02.09.02.13.04.15.04.3.09.46.12l.09.02c.12.03.25.06.38.09.05.02.11.02.16.04.11.03.23.05.34.08.05.01.1.02.16.03.16.03.31.07.47.09,0,0,.02,0,.02,0,.16.03.33.06.49.09.05,0,.11.02.16.03.12.02.24.04.36.06.05,0,.11.02.17.02.14.02.27.04.41.06.04,0,.07,0,.11.02.17.02.34.05.52.06.05,0,.09,0,.14.02.13.02.26.03.39.04.06,0,.12.01.18.02.13.01.27.02.39.03h.14c.18.03.36.04.54.05.03,0,.07,0,.1,0,.15,0,.3.02.45.02.06,0,.12,0,.18,0,.13,0,.27,0,.4.01.05,0,.11,0,.16,0,.18,0,.37,0,.55,0s.37,0,.55,0c.05,0,.11,0,.16,0,.13,0,.27,0,.39-.01.06,0,.12,0,.18,0,.15,0,.3-.02.45-.02.03,0,.07,0,.1,0,.18,0,.36-.02.54-.04h.14c.13-.02.27-.04.4-.04.05,0,.12-.01.17-.02.13-.02.26-.03.39-.04.05,0,.09,0,.14-.02.17-.02.34-.04.52-.06.03,0,.07,0,.1-.02.14-.02.28-.04.41-.06.05,0,.11-.02.16-.02.12-.02.24-.04.36-.06.05,0,.1-.02.16-.03.16-.03.33-.06.5-.09h.01c.16-.03.32-.06.48-.1.05-.01.1-.02.15-.03.12-.02.23-.05.34-.08.05-.01.11-.02.16-.04.13-.03.26-.06.38-.09l.09-.02c.16-.04.31-.09.46-.12.04-.01.09-.02.12-.04.11-.03.22-.07.34-.1l.15-.05c.11-.04.22-.07.33-.11.04-.02.08-.02.12-.04.15-.05.29-.1.44-.15.03-.01.06-.02.09-.03.12-.04.23-.09.34-.12.05-.02.09-.04.14-.05.1-.04.2-.08.3-.12.04-.02.09-.04.13-.05.14-.05.27-.12.41-.17,0,0,.01,0,.02,0,.13-.05.26-.12.38-.17.04-.02.09-.04.12-.06.09-.05.19-.09.27-.13.04-.02.09-.04.13-.06.1-.05.2-.11.3-.16.02-.02.05-.02.07-.04.12-.07.25-.13.37-.2.04-.02.07-.04.1-.06.09-.05.17-.1.26-.15l.12-.07c.09-.05.17-.11.26-.16.03-.02.06-.04.09-.06.11-.07.22-.15.33-.22.02-.02.05-.03.07-.05.09-.06.17-.12.25-.18.04-.02.07-.05.11-.08.07-.05.15-.11.22-.16.03-.02.06-.05.09-.07.1-.08.2-.16.3-.24,0,0,.01-.01.02-.02.09-.08.18-.16.27-.23.03-.03.06-.05.09-.08.06-.06.13-.12.2-.18.05-.02.07-.03.09-.05h0ZM19.51,30.08c-.04-.06-.08-.16,0-.26.06-.09.15-.11.25-.07l7.59,2.91c1.27.49,2.69.03,3.44-1.11l5.33-8.17c.04-.06.08-.09.18-.09.09,0,.13.02.18.1l5.34,8.17c.75,1.14,2.16,1.59,3.44,1.11l7.59-2.91c.1-.04.18-.02.25.07.08.1.05.2,0,.25l-8.72,12.34h-16.16l-8.73-12.34ZM24.09,45.08h24.43c.96,0,1.74.79,1.74,1.75s-.78,1.74-1.74,1.74h-24.43c-.96,0-1.74-.78-1.74-1.74s.78-1.75,1.74-1.75ZM16.61,91.01c-3.87-2.73-5.83-6.19-5.83-10.29,0-7.88,5.66-21.8,13.84-29.51h23.4c6.23,5.88,10.74,15.06,12.69,22.16-6.96,1.46-11.82,5.34-11.82,10.01v11.03c-10.73,3.39-24.66,1.97-32.27-3.4h0ZM66.88,111.71c-8.32,0-15.35-3.65-15.35-7.97v-4.55c3.14,3.02,8.78,4.99,15.35,4.99s12.2-1.98,15.34-4.99v4.55c0,4.32-7.03,7.97-15.34,7.97Z"/>
  <path class="st0" d="M85.74,59.72h-2.34v-26.19c0-.73-.59-1.33-1.33-1.33h-6.29c-.73,0-1.33.59-1.33,1.33v26.19h-2.34c-.48,0-.93.27-1.16.69s-.22.94.04,1.35l6.81,10.75c.24.38.66.62,1.12.62s.88-.23,1.12-.62l6.82-10.75c.26-.41.27-.93.04-1.35-.23-.42-.68-.69-1.16-.69h0ZM78.93,69.31l-4.4-6.94h1.25c.73,0,1.33-.59,1.33-1.33v-26.19h3.64v26.19c0,.73.59,1.33,1.33,1.33h1.25l-4.39,6.94Z"/>
  <path class="st0" d="M101.71,48.83c-.23-.42-.68-.69-1.16-.69h-2.34v-26.19c0-.73-.59-1.33-1.33-1.33h-6.29c-.73,0-1.33.59-1.33,1.33v26.19h-2.34c-.48,0-.93.27-1.16.69s-.22.95.04,1.35l6.82,10.75c.24.38.67.62,1.12.62s.88-.23,1.12-.62l6.82-10.75c.25-.41.27-.93.03-1.35h0ZM93.73,57.74l-4.4-6.94h1.25c.73,0,1.33-.59,1.33-1.33v-26.19h3.64v26.19c0,.73.59,1.33,1.33,1.33h1.25l-4.39,6.94Z"/>
  <path class="st0" d="M63.01,60.93c.24.38.67.62,1.12.62s.88-.23,1.12-.62l6.81-10.75c.26-.41.27-.93.04-1.35-.23-.42-.68-.69-1.16-.69h-2.34v-26.18c0-.73-.59-1.33-1.33-1.33h-6.29c-.73,0-1.33.59-1.33,1.33v26.19h-2.34c-.48,0-.93.27-1.16.69-.23.42-.22.95.04,1.35l6.82,10.75ZM60.98,50.8c.73,0,1.33-.59,1.33-1.33v-26.19h3.63v26.19c0,.73.59,1.33,1.33,1.33h1.25l-4.4,6.94-4.4-6.94h1.25s0,0,0,0Z"/>
</svg>