<?xml version="1.0" encoding="UTF-8"?>
<svg id="Layer_1" xmlns="http://www.w3.org/2000/svg" version="1.1" viewBox="0 0 110 135">
  <!-- Generator: Adobe Illustrator 29.8.2, SVG Export Plug-In . SVG Version: 2.1.1 Build 3)  -->
  <defs>
    <style>
      .st0 {
        fill-rule: evenodd;
        stroke: #000;
        stroke-miterlimit: 10;
        stroke-width: .5px;
      }
    </style>
  </defs>
  <path class="st0" d="M50.59,104.82h-1.58v2.49c0,.74.3,1.41.79,1.9.49.49,1.16.79,1.9.79h6.6c.74,0,1.41-.3,1.9-.79.49-.49.79-1.16.79-1.9v-2.49h-1.14s-9.25,0-9.25,0ZM26,89.93c-.46-.46-.46-1.21,0-1.68.46-.46,1.21-.46,1.68,0l4.08,4.08,7.95-7.95c.46-.46,1.21-.46,1.68,0,.46.46.46,1.21,0,1.68l-8.79,8.79c-.46.46-1.21.46-1.68,0l-4.92-4.92ZM35.07,75.84c3.27.32,6.21,1.79,8.41,3.99,1.27,1.27,2.3,2.79,3,4.48l21.97.25c.11-.32.24-.63.39-.94.52-1.07,1.3-2.13,2.34-3.17l.06-.06c2.26-2.18,4.09-4.8,5.34-7.73,1.2-2.81,1.86-5.91,1.86-9.18,0-6.47-2.62-12.33-6.86-16.57-4.24-4.24-10.1-6.86-16.57-6.86s-12.33,2.62-16.57,6.86c-4.24,4.24-6.86,10.1-6.86,16.57,0,2.34.34,4.59.97,6.71.59,2.01,1.46,3.9,2.54,5.65h0ZM47.23,86.68c.09.4.15.8.21,1.21v.05s.02.18.02.18v.05s.01.08.01.08h0s0,.11,0,.11v.02s0,.03,0,.03v.14s.01,0,.01,0v.04s.03.28.03.28v.04s0,0,0,0v.14s.01.05.01.05v.05s0,.19,0,.19v.04s0,.42,0,.42v.12s0,.18,0,.18v.05s0,0,0,0v.12s-.01.05-.01.05h0s0,.12,0,.12v.05s0,.01,0,.01v.06s0,.06,0,.06v.05s0,.01,0,.01v.12s-.01.04-.01.04v.07s-.01.06-.01.06v.06s-.04.29-.04.29v.04s0,.02,0,.02l-.03.23c-.09.58-.2,1.15-.36,1.71h21v-6.25h0v-.17l-20.81-.24ZM46.12,95.71c-.68,1.38-1.57,2.62-2.64,3.69-.29.29-.59.57-.91.83.25.44.57.84.95,1.18.54.49,1.2.86,1.93,1.05h2.16c.07-.02.14-.03.21-.03h14.35c.07,0,.14,0,.21.02h2.16c.98-.26,1.82-.82,2.43-1.57.62-.76,1-1.71,1.06-2.74v-2.44s-21.9,0-21.9,0ZM40.63,101.59c-2.04,1.18-4.41,1.86-6.94,1.86-3.82,0-7.29-1.55-9.79-4.05-2.5-2.5-4.05-5.96-4.05-9.79s1.55-7.29,4.05-9.79c2.2-2.2,5.15-3.67,8.43-3.99-.86-1.56-1.55-3.23-2.07-4.97-.7-2.34-1.07-4.82-1.07-7.38,0-7.13,2.89-13.58,7.56-18.25,4.67-4.67,11.12-7.56,18.25-7.56s13.58,2.89,18.25,7.56c4.67,4.67,7.56,11.12,7.56,18.25,0,3.58-.73,7-2.06,10.1-1.36,3.2-3.36,6.07-5.82,8.45l-.07.07c-.85.85-1.48,1.7-1.89,2.55-.39.81-.59,1.62-.58,2.42v.02h0v11.01c0,.05,0,.1,0,.15-.08,1.55-.65,2.99-1.59,4.13-.96,1.18-2.29,2.04-3.84,2.42-.11.03-.22.04-.32.03h-1.29s0,2.48,0,2.48c0,1.39-.57,2.66-1.49,3.57-.92.92-2.18,1.48-3.57,1.48h-6.6c-1.39,0-2.66-.57-3.57-1.48-.91-.92-1.48-2.18-1.48-3.57v-2.48h-1.33c-.1,0-.19,0-.28-.03-1.18-.29-2.23-.86-3.09-1.63-.51-.46-.95-.99-1.31-1.58h0ZM41.8,81.5c-2.07-2.07-4.94-3.36-8.11-3.36s-6.04,1.29-8.11,3.36c-2.07,2.07-3.36,4.94-3.36,8.11s1.29,6.04,3.36,8.11c2.07,2.07,4.94,3.36,8.11,3.36s6.04-1.29,8.11-3.36c1.69-1.69,2.85-3.89,3.23-6.36v-.02c.02-.09.03-.17.04-.25h0s.02-.16.02-.16v-.02c.01-.09.02-.17.03-.26v-.16s.01-.02.01-.02v-.09s.01-.05.01-.05v-.12s0-.02,0-.02v-.07s0-.08,0-.08h0s0-.09,0-.09h0s0-.09,0-.09v-.09s0-.32,0-.32v-.14s0-.01,0-.01v-.13s0-.02,0-.02v-.13s0-.02,0-.02v-.12s-.01-.03-.01-.03v-.12s-.01-.03-.01-.03v-.02c-.23-2.8-1.46-5.32-3.33-7.2h0ZM55,54.76c2.4,0,4.57.97,6.14,2.54,1.57,1.57,2.54,3.74,2.54,6.14s-.97,4.57-2.54,6.14c-1.57,1.57-3.75,2.54-6.14,2.54s-4.57-.97-6.14-2.54c-1.57-1.57-2.54-3.74-2.54-6.14s.97-4.57,2.54-6.14c1.57-1.57,3.74-2.54,6.14-2.54ZM59.46,58.99c1.14,1.14,1.85,2.72,1.85,4.46s-.71,3.32-1.85,4.46c-1.14,1.14-2.72,1.85-4.46,1.85s-3.32-.71-4.46-1.85c-1.14-1.14-1.85-2.72-1.85-4.46s.71-3.32,1.85-4.46c1.14-1.14,2.72-1.85,4.46-1.85s3.32.71,4.46,1.85ZM42.89,53.53l2.21-2.21c.61.34,1.54.88,2.05,1.18l.31.18c.5.29.71.41,1.29.29.26-.05.42-.14.69-.27.18-.09.43-.21.68-.33.07-.04.29-.11.51-.18.59-.2,1.26-.43,1.61-.78l.08-.09c.34-.41.57-1.37.8-2.35.09-.38.18-.76.26-1.07h3.2c.14.52.34,1.27.49,1.86l.21.79c.29,1.07.57,1.15,1.5,1.42.23.07.55.16,1.03.38.29.13.48.23.63.3.45.23.68.35,1.12.34.49,0,.75-.16,1.3-.49.25-.14.51-.3.76-.44.35-.21.87-.5,1.27-.73l2.2,2.2c-.35.64-.7,1.29-1.06,1.93-.46.79-.63,1.08-.56,1.66.04.35.15.55.32.86.16.29.42.76.74,1.78l.04.15c.21.7.27.89,1.12,1.18.19.07.38.11.57.16l.25.07c.18.05.48.13.82.21.39.1.86.21,1.22.32v3.2c-.47.13-1.12.3-1.68.45l-.1.02c-.22.06-.45.12-.88.23-1.07.29-1.15.58-1.43,1.51-.07.23-.16.55-.37,1.02-.13.3-.23.48-.29.62l-.04.06c-.21.41-.33.62-.32,1.05,0,.46.14.7.43,1.19.09.16.21.37.3.53.14.27.29.49.43.74.17.29.36.6.52.87l-2.24,2.24c-.23-.13-.48-.29-.68-.41l-.24-.14c-.41-.25-.6-.36-.75-.46-.66-.41-.98-.61-1.46-.66-.54-.05-.82.09-1.36.36-.17.09-.39.2-.73.35-.08.04-.25.09-.42.14-.52.16-1.11.34-1.5.73l-.09.09c-.34.42-.57,1.36-.8,2.34-.09.38-.18.77-.27,1.08h-3.2c-.08-.3-.18-.68-.26-1.05-.24-1-.47-1.97-.81-2.38l-.07-.08c-.39-.38-.98-.56-1.49-.72h0c-.15-.04-.29-.09-.37-.12-.37-.16-.63-.29-.83-.39-.5-.26-.76-.39-1.28-.34-.46.04-.75.22-1.36.59-.2.12-.45.28-.85.51l-.3.18c-.2.12-.44.26-.66.39l-2.24-2.25c.17-.31.39-.68.58-.99l.33-.56c.16-.29.24-.41.3-.52.3-.51.45-.75.46-1.21.01-.41-.09-.64-.29-1.02l-.04-.09c-.09-.16-.2-.38-.32-.66-.16-.35-.25-.64-.32-.88-.26-.82-.41-1.29-1.27-1.59h0c-.35-.12-.89-.25-1.48-.4-.47-.12-.98-.24-1.37-.35v-3.2c.51-.15,1.25-.34,1.84-.49l.82-.21c1.05-.29,1.14-.57,1.41-1.5.07-.23.16-.55.38-1.03.15-.34.24-.52.31-.66.21-.43.33-.64.32-1.07,0-.46-.14-.7-.43-1.2h0c-.05-.09-.11-.2-.25-.45l-.03-.07c-.11-.2-.33-.59-.54-.96l-.38-.7ZM41.22,55.38c-.26-.46-.52-.91-.81-1.48-.26-.45-.2-1.05.19-1.43l3.42-3.41c.29-.29.73-.42,1.15-.3.52.14,2.36,1.22,3.17,1.7l.13.08c.15-.07.35-.18.68-.32.21-.09.45-.18.71-.27h0c.27-.09.52-.15.64-.18.04-.18.17-.74.31-1.33.2-.81.39-1.65.62-2.14.18-.44.6-.75,1.11-.75h4.88c.41,0,.82.22,1.04.61.23.41.63,1.96.91,3.03l.14.54c.29.09.7.21,1.26.46.3.14.55.26.74.36.07.04-.02.06-.04.07h0s.02,0,.05,0c.15,0-.06-.05.13-.16.25-.15.52-.3.77-.45.62-.36,1.7-.99,2.23-1.2.43-.19.96-.11,1.31.25l3.42,3.43c.36.36.46.93.2,1.4l-1.31,2.41-.2.35c-.17.29-.28.02-.25.21h0s.02,0,.02,0c0-.02.01-.04.02-.01.2.35.52.93.89,2.1l.41.1c.19.05.45.12.75.2.82.21,1.88.48,2.35.71.39.2.66.6.66,1.06v4.78c.05.46-.18.93-.62,1.15-.41.21-1.78.57-2.83.84l-.1.03-.63.16c-.09.29-.21.7-.46,1.26-.13.29-.26.55-.37.75l.02.03c.07.12.16.28.33.58.05.09.21.36.39.65.41.68.9,1.49,1.05,2.02.11.4,0,.85-.3,1.16l-3.38,3.38c-.29.32-.75.46-1.2.34-.51-.14-1.31-.63-1.83-.95l-1.01-.62c-.35-.21-.41-.31-.46-.32-.14-.02.08.05-.04.11-.22.11-.5.26-.86.41-.2.09-.43.16-.67.23-.19.06-.36.09-.46.12-.05.19-.17.74-.31,1.32-.21.89-.43,1.8-.7,2.29-.2.36-.59.61-1.04.61h-4.85c-.43.02-.85-.2-1.07-.61-.25-.46-.47-1.38-.68-2.27-.14-.6-.27-1.17-.31-1.35-.09-.02-.27-.05-.46-.11-.23-.07-.45-.14-.61-.21-.45-.19-.76-.35-.98-.47-.05-.02,0-.05.04-.07v-.03s-.01,0-.01,0c-.09,0-.05.08-.33.25-.25.15-.56.35-.9.54l-.28.17c-.53.31-1.32.79-1.8.92-.4.11-.85,0-1.16-.3l-3.42-3.43c-.29-.29-.42-.73-.3-1.15.14-.53.7-1.46,1.11-2.14.1-.17.18-.3.29-.5.09-.16.23-.39.34-.58.02-.03.04-.04.05-.05-.09-.18-.21-.41-.37-.77-.2-.46-.32-.83-.41-1.13-.01-.04.05-.04.12-.04l.09-.03c-.21-.07-.71-.2-1.27-.33-.95-.23-2.01-.5-2.52-.75-.39-.2-.65-.59-.65-1.06v-4.78c-.05-.46.18-.93.62-1.15.41-.21,1.91-.6,2.98-.88l.57-.15c.09-.29.21-.7.46-1.26.12-.28.26-.54.36-.75l-.04-.05h0s-.32-.56-.32-.56c-.23-.45-.36-.68-.49-.91h0ZM41.53,68.03c.16.06.02.03-.09.02l.09-.03h0ZM42.18,69.97s-.04.01,0,0ZM42.15,69.98s.02-.09.02-.01h-.02ZM48.51,76.28v-.03c.07,0,.04,0,0,.03ZM67.82,70.02h.01s0,0,0,0h0ZM67.82,70.03h0s0,0,0,0ZM67.82,56.85h.02s0,.07-.02,0ZM61.48,50.61h0s0,0,0,0ZM85.84,64.67c-.66,0-1.19-.53-1.19-1.19s.53-1.19,1.19-1.19h8.19c.66,0,1.19.53,1.19,1.19s-.53,1.19-1.19,1.19h-8.19ZM89.19,42.86c.57-.32,1.29-.13,1.61.43.32.57.13,1.29-.43,1.61l-7.09,4.09c-.57.32-1.29.13-1.61-.43-.32-.57-.13-1.29.43-1.61l7.09-4.09ZM75.3,29.4l-4.55,6.81c-.36.54-.22,1.28.32,1.64.54.36,1.28.22,1.64-.32l4.55-6.81c.36-.54.22-1.28-.32-1.64-.54-.36-1.28-.22-1.64.32ZM24.16,62.29h-8.19c-.66,0-1.19.53-1.19,1.19s.53,1.19,1.19,1.19h8.19c.66,0,1.19-.53,1.19-1.19s-.53-1.19-1.19-1.19ZM19.64,44.91l7.09,4.09c.57.32,1.29.13,1.61-.43.32-.57.13-1.29-.43-1.61l-7.09-4.09c-.57-.32-1.29-.13-1.61.43-.33.57-.13,1.29.43,1.61ZM32.73,30.72l4.55,6.81c.36.54,1.1.69,1.64.32s.69-1.1.32-1.64l-4.55-6.81c-.36-.54-1.1-.69-1.64-.32-.54.36-.69,1.1-.32,1.64ZM53.81,23.82c0-.66.53-1.19,1.19-1.19s1.19.53,1.19,1.19v8.19c0,.66-.53,1.19-1.19,1.19s-1.19-.53-1.19-1.19v-8.19Z"/>
</svg>