<?xml version="1.0" encoding="UTF-8"?>
<svg id="Layer_1" xmlns="http://www.w3.org/2000/svg" version="1.1" viewBox="0 0 110 135">
  <!-- Generator: Adobe Illustrator 29.8.2, SVG Export Plug-In . SVG Version: 2.1.1 Build 3)  -->
  <defs>
    <style>
      .st0 {
        fill-rule: evenodd;
      }
    </style>
  </defs>
  <path class="st0" d="M14.49,113h35.79v-2.95H14.49v2.95ZM58.3,113h42.2v-2.95h-42.2v2.95ZM100.77,115.74h-42.74c-.68,0-1.3-.28-1.74-.72-.45-.45-.73-1.06-.73-1.74v-3.49c0-1.36,1.11-2.47,2.47-2.47h42.74c1.35,0,2.47,1.11,2.47,2.47v3.49c0,1.35-1.12,2.46-2.47,2.46h0ZM25.28,42.73c0-.76.61-1.37,1.37-1.37s1.37.6,1.37,1.44c0,.76-.61,1.37-1.37,1.37s-1.37-.6-1.37-1.44ZM25.13,41.34c.63-1.27,2.48-1.18,3,.13.27.7,1.07,1.05,1.77.77.7-.27,1.05-1.07.77-1.77-1.38-3.53-6.31-3.73-7.98-.34-.34.68-.05,1.49.62,1.83.67.34,1.49.06,1.82-.62h0ZM22.44,38.99c-.45.61-1.3.73-1.91.28-.61-.45-.73-1.3-.28-1.91,3.24-4.37,9.82-4.23,12.88.24.42.62.27,1.47-.36,1.9-.62.42-1.47.27-1.9-.36-2-2.93-6.31-3.02-8.43-.16h0ZM26.67,28.01c-6.16,0-11.16,4.99-11.16,11.16s4.99,11.16,11.16,11.16,11.16-4.99,11.16-11.16c0-6.16-5-11.16-11.16-11.16ZM32.62,33.21c-3.29-3.29-8.62-3.29-11.91,0-3.29,3.29-3.29,8.62,0,11.91,3.29,3.29,8.62,3.29,11.91,0,3.29-3.29,3.29-8.62,0-11.91ZM31.82,23.39l-.66-2.52c-.25-.96-1.1-1.61-2.08-1.61h-4.83c-.98,0-1.83.66-2.07,1.61l-.66,2.52c-.83.27-1.59.58-2.37.98l-2.25-1.32c-.84-.5-1.92-.36-2.6.33l-3.42,3.42c-.69.69-.83,1.76-.33,2.6l1.32,2.25c-.2.39-.38.78-.54,1.16l-.45,1.2-2.52.66c-.95.25-1.61,1.11-1.61,2.08v4.83c0,.98.66,1.83,1.61,2.07l2.52.66c.27.82.59,1.6.98,2.37l-1.32,2.25c-.5.84-.36,1.92.33,2.6l3.41,3.41c.69.69,1.76.83,2.6.33l2.25-1.32c.77.39,1.55.71,2.37.98l.66,2.52c.25.95,1.1,1.61,2.08,1.61h4.83c.98,0,1.83-.66,2.07-1.61l.66-2.52c.83-.27,1.59-.58,2.37-.98l2.25,1.32c.84.5,1.92.36,2.6-.33l3.41-3.41c.69-.69.83-1.76.33-2.6l-1.32-2.25c.2-.39.38-.78.54-1.16l.45-1.2,2.52-.66c.95-.25,1.61-1.1,1.61-2.08v-4.83c.01-.98-.64-1.83-1.6-2.07l-2.52-.66c-.27-.83-.58-1.59-.98-2.37l1.32-2.25c.5-.84.36-1.92-.33-2.6l-3.41-3.41c-.69-.69-1.76-.83-2.6-.33l-2.25,1.32c-.39-.2-.78-.38-1.16-.54l-1.21-.45ZM31.97,26.35c-.42-.17-.84-.32-1.26-.45-.73-.22-1.26-.78-1.45-1.51l-.62-2.4h-3.93l-.62,2.4c-.38,1.47-1.61,1.48-2.65,1.94l-1.28.6c-.66.36-1.45.34-2.09-.04l-2.14-1.26-2.78,2.79,1.26,2.14c.38.65.39,1.43.04,2.09-.2.38-.39.78-.57,1.22-.17.42-.32.84-.45,1.26-.22.73-.78,1.26-1.51,1.45l-2.41.62v3.93l2.4.62c.73.19,1.29.73,1.51,1.45.26.84.61,1.7,1.03,2.48.36.66.34,1.45-.04,2.09l-1.26,2.14,2.78,2.78,2.14-1.26c.65-.38,1.43-.39,2.09-.04.78.41,1.63.77,2.48,1.03.73.22,1.26.78,1.45,1.51l.62,2.4h3.93l.62-2.4c.38-1.47,1.61-1.48,2.65-1.94l1.28-.6c.66-.36,1.45-.34,2.09.04l2.14,1.26,2.78-2.78-1.26-2.14c-.38-.65-.39-1.43-.04-2.09.2-.38.39-.78.57-1.22.17-.42.32-.84.45-1.27.22-.73.78-1.26,1.51-1.45l2.4-.62v-3.93l-2.4-.62c-1.47-.38-1.48-1.61-1.94-2.65l-.6-1.28c-.36-.66-.34-1.45.04-2.09l1.26-2.14-2.78-2.78-2.14,1.26c-.65.38-1.43.39-2.09.04-.37-.2-.78-.39-1.21-.57h0ZM78.26,69.06h1.52v-7.74l-19.37.17-16.6,19.98.55,18.55c2.59.31,4.58,2.53,4.58,5.17v2.13h1.61c1.35,0,2.47,1.11,2.47,2.47v3.49c0,1.35-1.12,2.47-2.47,2.47H14.22c-.68,0-1.3-.28-1.74-.72-.45-.45-.73-1.06-.73-1.74v-3.5c0-1.36,1.11-2.47,2.47-2.47h1.61v-2.13c0-2.56,1.88-4.73,4.35-5.13l.21-22.38c-.02-3.37,1.18-6.27,3.41-8.5.53-.53,1.11-1.01,1.73-1.43l26.82-22.84c.09-.09.18-.19.27-.28,1.79-1.79,4.26-2.9,6.99-2.9.81,0,1.6.1,2.35.28l22.24,2.75c2.25.02,4.28.94,5.76,2.42,3.72,3.72,3.05,9.9-1.33,12.76v9.12h1.52c1.98,0,2.98,2.27,2.98,4.2v3.4l9.6,7.85c.52.43.65,1.16.32,1.73l-6.7,14.35c-.23.49-.72.79-1.23.79h0s-1.41,0-1.41,0v2.91c0,.76-.61,1.37-1.37,1.37h-16.27c-.76,0-1.37-.61-1.37-1.37v-2.91h-1.41c-.59,0-1.1-.38-1.29-.91l-6.7-14.34c-.27-.58-.1-1.25.38-1.63l9.59-7.77v-3.48c0-1.93,1-4.19,2.98-4.19h0ZM82.52,69.06h3.38v-7.97c-1.1.24-2.24.19-3.38.2v7.77ZM92.74,79.86c-.46,1.16-1.37,2.07-2.59,2.07h-11.9c-1.2,0-2.09-.88-2.56-2.02l-7.46,6.04,5.93,12.7h.55v-10.53h0c0-.6.39-1.15,1-1.31l8.12-2.25c.23-.07.49-.07.74,0l8.03,2.23c.63.12,1.11.68,1.11,1.34v10.53h.55l5.93-12.7-7.45-6.09ZM90.16,71.8h-11.9c-.09,0,.09.05.05.14-.18.32-.29.78-.29,1.33v4.48c0,.54.11,1.01.29,1.33.05.09-.13.14-.05.14h11.9c.09,0-.09-.05-.05-.14.18-.32.29-.78.29-1.33v-4.48c0-.54-.11-1.01-.29-1.33-.05-.08.13-.14.05-.14ZM90.97,100.02v-8.22h-2.53v6.52c0,.76-.61,1.37-1.37,1.37h-5.73c-.76,0-1.37-.61-1.37-1.37v-6.52h-2.53v11.13h13.53v-2.91ZM90.64,89.07l-6.43-1.79-6.43,1.79h12.85ZM84.12,49.32c-2.04,0-3.7,1.66-3.7,3.7,0,3.28,3.99,4.94,6.31,2.62s.67-6.31-2.62-6.31ZM84.81,52.34c-.61-.61-1.64-.18-1.64.68s1.04,1.29,1.64.68c.38-.37.38-.98,0-1.36h0ZM78.04,58.61c-3.13-3.41-2.84-8.72.62-11.78l-11.34-1.4c3.2,3.98,2.83,9.73-.83,13.28l11.55-.1ZM88.03,49.12c-3.47-3.47-9.43-1-9.43,3.91,0,4.04,4.23,6.8,8.05,4.92,3.2-1.58,4.12-6.1,1.39-8.83h0ZM59.61,47.57c-2.23,0-4.04,1.81-4.04,4.04,0,3.59,4.36,5.4,6.9,2.86,2.55-2.54.73-6.9-2.86-6.9h0ZM60.54,50.69c-.82-.82-2.23-.24-2.23.93s1.41,1.75,2.23.93c.51-.52.51-1.34,0-1.85h0ZM57.13,61.19l-13.43,16.16c-.03-6.41-5.23-11.59-11.64-11.59l17.71-15.08c-.46,4.89,2.71,9.31,7.36,10.51h0ZM64.67,46.56c-.88-.88-1.99-1.53-3.23-1.86l-1.91-.23c-1.41.02-2.73.44-3.84,1.16l-1.37,1.17c-1.16,1.27-1.87,2.96-1.87,4.82,0,3.95,3.2,7.15,7.15,7.15s7.15-3.2,7.15-7.15c0-1.98-.8-3.77-2.1-5.06h0ZM32.05,72.41c-2.76,0-5,2.24-5,5,0,4.44,5.39,6.68,8.54,3.54,3.14-3.14.9-8.54-3.54-8.54ZM33.65,75.81c-1.42-1.42-3.87-.41-3.87,1.61s2.45,3.03,3.87,1.61c.88-.89.89-2.32,0-3.21h0ZM41.19,84.65c-4.61,5.82-13.41,5.91-18.14.18l-.14,15.15h18.73l-.45-15.33ZM38.35,71.1c-3.48-3.48-9.13-3.48-12.62,0s-3.48,9.13,0,12.62c3.48,3.48,9.13,3.48,12.62,0,3.48-3.48,3.48-9.13,0-12.62ZM82.71,91.8v5.15h3v-5.15h-3ZM46.21,107.31v-2.13c0-1.36-1.12-2.47-2.47-2.47h-22.71c-1.36,0-2.47,1.12-2.47,2.47v2.13h27.64Z"/>
</svg>