<?xml version="1.0" encoding="UTF-8"?>
<svg id="Layer_1" xmlns="http://www.w3.org/2000/svg" version="1.1" viewBox="0 0 110 135">
  <!-- Generator: Adobe Illustrator 29.8.2, SVG Export Plug-In . SVG Version: 2.1.1 Build 3)  -->
  <defs>
    <style>
      .st0 {
        fill-rule: evenodd;
        stroke: #000;
        stroke-miterlimit: 10;
        stroke-width: .5px;
      }
    </style>
  </defs>
  <path class="st0" d="M52.74,56.86c-1.97-1.97-5.17-1.97-7.14,0-1.97,1.97-1.97,5.17,0,7.14,1.97,1.97,5.17,1.97,7.14,0,1.97-1.97,1.97-5.17,0-7.14ZM75.83,45.49l-11.84-10.9v10.9h11.84ZM57.67,31.22H19.88c-.57,0-1.03.46-1.03,1.03v69.46h-6.79V24.65s45.6,0,45.6,0v6.57h0ZM92.35,62.48l-5.47-9.46c-.26-.45-.8-.52-1.16-.32h0s-.31.31-.31.31l-10.93,18.94c-.31.54.04,1.27.73,1.27h21.87c.16,0,.31-.04.43-.11h0c.38-.22.55-.73.31-1.16l-5.47-9.47h0ZM85.12,70.07c0-.57.46-1.03,1.03-1.03s1.03.46,1.03,1.03v.75c0,.57-.46,1.03-1.03,1.03s-1.03-.46-1.03-1.03v-.75ZM85.12,57.3c0-.57.46-1.03,1.03-1.03s1.03.46,1.03,1.03v8.49c0,.57-.46,1.03-1.03,1.03s-1.03-.46-1.03-1.03v-8.49ZM41.25,76.22c4.83,3.04,11.01,3.04,15.84,0v-2.06c0-2.94-2.41-5.34-5.34-5.34h-5.16c-2.94,0-5.34,2.41-5.34,5.34v2.06h0ZM59.71,53.06c6.04,6.04,5.78,15.89-.55,21.6v-.5c0-3.85-2.98-7.05-6.77-7.38,4.3-2.18,5.24-7.94,1.81-11.37-2.78-2.78-7.28-2.78-10.06,0-3.43,3.43-2.48,9.19,1.81,11.37-3.79.32-6.77,3.53-6.77,7.38v.5c-6.34-5.72-6.59-15.57-.55-21.6,5.82-5.82,15.26-5.82,21.08,0h0ZM49.18,46.63c9.37,0,16.97,7.6,16.97,16.97,0,4.68-1.9,8.93-4.97,12-3.14,3.14-7.41,4.97-12,4.97-9.31,0-16.97-7.54-16.97-16.97s7.6-16.97,16.97-16.97h0ZM31.86,92.94l1.76,1.76c.47.47,1.29.4,1.66-.28l2.04-3.54c.29-.49.12-1.12-.38-1.41-.49-.29-1.12-.12-1.41.38l-1.41,2.44-.82-.82c-.4-.4-1.05-.4-1.46,0-.4.4-.4,1.05,0,1.46h0ZM38.41,87.58h-7.79c-.38,0-.7.32-.7.7v7.79c0,.38.32.7.7.7h7.79c.38,0,.7-.32.7-.7v-7.79c0-.38-.32-.7-.7-.7ZM30.62,85.52c-1.52,0-2.76,1.24-2.76,2.76v7.79c0,1.52,1.24,2.76,2.76,2.76h7.79c1.52,0,2.76-1.24,2.76-2.76v-7.79c0-1.52-1.24-2.76-2.76-2.76h-7.79ZM47.58,90.33h18.67c.57,0,1.03-.46,1.03-1.03s-.46-1.03-1.03-1.03h-18.67c-.57,0-1.03.46-1.03,1.03s.46,1.03,1.03,1.03ZM47.58,96.08h16.52c.57,0,1.03-.46,1.03-1.03s-.46-1.03-1.03-1.03h-16.52c-.57,0-1.03.46-1.03,1.03s.46,1.03,1.03,1.03ZM85.58,80.98h-2.88v2.8h0c0,.47-.32.9-.8,1-1.03.23-2.3.73-3.19,1.32-.4.28-.96.24-1.32-.12l-1.98-1.98-2.04,2.04,1.98,1.98c.34.34.4.86.14,1.28-.53.84-1.15,2.18-1.32,3.14-.07.5-.5.89-1.02.89h-2.8v2.88h2.8c.47,0,.9.33,1,.81.23,1.05.73,2.3,1.32,3.19.28.4.24.96-.12,1.32l-1.98,1.98,2.04,2.04,1.98-1.98c.33-.33.86-.4,1.28-.14.86.55,2.2,1.15,3.14,1.32.5.07.89.5.89,1.02v2.8h2.88v-2.8h0c0-.47.32-.9.8-1,1.05-.23,2.3-.73,3.19-1.32.4-.28.96-.24,1.32.12l1.98,1.98,2.04-2.04-1.98-1.98c-.34-.34-.41-.86-.14-1.28.53-.84,1.15-2.18,1.32-3.14.07-.5.5-.89,1.02-.89h2.8v-2.88h-2.8c-.47,0-.9-.33-1-.81-.23-1.05-.73-2.3-1.32-3.19-.28-.4-.24-.96.12-1.32l1.98-1.98-2.04-2.04-1.98,1.98c-.33.33-.86.4-1.28.14-.84-.53-2.18-1.15-3.14-1.32-.5-.07-.89-.5-.89-1.02v-2.8ZM77.44,106.43v3.92H20.91V33.28h41.02v13.24c0,.57.46,1.03,1.03,1.03h14.48v15.17l-4.73,8.2c-1.13,1.95.3,4.35,2.51,4.35h2.22v7.84l-1.31-1.31c-.4-.4-1.05-.4-1.46,0l-3.5,3.5c-.4.4-.4,1.05,0,1.46l2.15,2.15c-.41.75-.73,1.54-.98,2.36h-3.04c-.57,0-1.03.46-1.03,1.03v4.94c0,.57.46,1.03,1.03,1.03h3.04c.24.82.57,1.61.98,2.36l-2.15,2.15c-.4.4-.4,1.05,0,1.46l3.5,3.5c.4.4,1.05.4,1.46,0l1.31-1.31h0ZM81.67,78.92h4.94c.57,0,1.03.46,1.03,1.03v3.04c.82.24,1.61.57,2.36.98l2.15-2.15c.4-.4,1.05-.4,1.46,0l3.5,3.5c.4.4.4,1.05,0,1.46l-2.15,2.15c.41.75.73,1.54.98,2.36h3.04c.57,0,1.03.46,1.03,1.03v4.94c0,.57-.46,1.03-1.03,1.03h-3.04c-.24.82-.57,1.61-.98,2.36l2.15,2.15c.4.4.4,1.05,0,1.46l-3.5,3.5c-.4.4-1.05.4-1.46,0l-2.15-2.15c-.75.41-1.54.73-2.36.98v3.04c0,.57-.46,1.03-1.03,1.03h-4.94c-.57,0-1.03-.46-1.03-1.03v-3.04c-.39-.11-.77-.25-1.14-.4v5.21c0,.57-.46,1.03-1.03,1.03H19.88c-.57,0-1.03-.47-1.03-1.04v-7.6h-7.82c-.57,0-1.03-.46-1.03-1.03V23.62c0-.57.46-1.03,1.03-1.03h47.67c.57,0,1.03.46,1.03,1.03v7.6h3.23c.29,0,.56.12.74.32l15.42,14.18c.23.19.38.48.38.8v12.63l4.14-7.18c.26-.46.62-.82,1.06-1.07h0c1.39-.81,3.22-.32,4,1.12l10.9,18.89c.83,1.43.3,3.18-1.06,3.96h0c-.43.25-.93.39-1.45.39h-17.59v8.1c.37-.15.75-.28,1.14-.4v-3.04c0-.57.46-1.03,1.03-1.03h0ZM88.16,90.75c2.22,2.22,2.22,5.83,0,8.05s-5.83,2.22-8.05,0c-2.22-2.22-2.22-5.83,0-8.05,2.22-2.22,5.83-2.22,8.05,0ZM84.14,87.03c4.28,0,7.75,3.47,7.75,7.75s-3.47,7.75-7.75,7.75-7.75-3.47-7.75-7.75,3.47-7.75,7.75-7.75Z"/>
</svg>