<?xml version="1.0" encoding="UTF-8"?>
<svg id="Layer_1" xmlns="http://www.w3.org/2000/svg" version="1.1" viewBox="0 0 110 135">
  <!-- Generator: Adobe Illustrator 29.8.2, SVG Export Plug-In . SVG Version: 2.1.1 Build 3)  -->
  <path d="M60.42,51.55c0,.8-.65,1.45-1.45,1.45h-20.99c-.8,0-1.45-.64-1.45-1.45s.65-1.45,1.45-1.45h20.99c.8,0,1.45.64,1.45,1.45ZM28.29,55.48c.25.4.67.66,1.14.69.03,0,.07,0,.1,0,.43,0,.84-.2,1.12-.53l5.21-6.34c.51-.62.42-1.54-.2-2.05-.62-.51-1.54-.42-2.05.2l-3.91,4.76-1.61-2.63c-.42-.69-1.32-.9-2-.48-.69.42-.9,1.32-.48,2l2.68,4.38ZM58.97,59.06h-20.99c-.8,0-1.45.65-1.45,1.45s.65,1.45,1.45,1.45h20.99c.8,0,1.45-.65,1.45-1.45s-.65-1.45-1.45-1.45ZM35.66,56.23c-.62-.51-1.54-.42-2.05.2l-3.91,4.76-1.61-2.62c-.42-.69-1.32-.9-2-.48-.69.42-.9,1.32-.48,2l2.68,4.36c.25.4.67.66,1.14.69.03,0,.07,0,.1,0,.43,0,.84-.2,1.12-.53l5.21-6.34c.52-.62.43-1.53-.2-2.04h0ZM58.97,68.03h-20.99c-.8,0-1.45.65-1.45,1.45s.65,1.45,1.45,1.45h20.99c.8,0,1.45-.65,1.45-1.45s-.65-1.45-1.45-1.45ZM29.43,74.11s.07,0,.1,0c.43,0,.84-.2,1.12-.53l5.21-6.34c.51-.62.42-1.54-.2-2.05-.62-.51-1.54-.42-2.05.2l-3.91,4.76-1.61-2.63c-.42-.69-1.32-.9-2-.48-.69.42-.9,1.32-.48,2l2.68,4.37c.25.4.68.66,1.14.69h0ZM35.66,74.17c-.62-.51-1.54-.42-2.05.2l-3.91,4.76-1.61-2.62c-.42-.69-1.32-.9-2-.48-.69.42-.9,1.32-.48,2l2.68,4.36c.25.4.67.66,1.14.69.03,0,.07,0,.1,0,.43,0,.84-.2,1.12-.53l5.21-6.34c.52-.62.43-1.53-.2-2.04h0ZM99.33,110.17c-1.4,2.42-3.81,3.82-6.61,3.82h-42.93c-2.8,0-5.21-1.39-6.61-3.81-.6-1.04-.94-2.14-1.03-3.26H15.54c-3.26,0-5.92-2.66-5.92-5.92V35.82c0-3.26,2.65-5.92,5.91-5.92h11.97v-.14c0-2.49,2.02-4.51,4.51-4.51h3.53v-.27c0-2.19,1.78-3.98,3.98-3.98h6.77c2.19,0,3.98,1.78,3.98,3.98v.27h3.52c2.49,0,4.51,2.02,4.51,4.51v.14h11.88c3.26,0,5.92,2.66,5.92,5.92v27.44c.69.57,1.28,1.28,1.76,2.1l21.47,37.17c1.4,2.42,1.4,5.2,0,7.63h0ZM58.31,32.81v1.61h9.17c.8,0,1.45.65,1.45,1.45v26.02c.73-.23,1.51-.35,2.32-.35.67,0,1.33.08,1.94.24v-25.97c0-1.66-1.35-3.01-3.01-3.01h-11.88ZM66.03,63.61v-26.28h-7.72v1.87c0,.8-.65,1.45-1.45,1.45h-27.89c-.8,0-1.45-.64-1.45-1.45v-1.87h-7.71s0,47.29,0,47.29h13.82c.8,0,1.45.65,1.45,1.45v13.42h9.87l11.31-19.59h-18.27c-.8,0-1.45-.64-1.45-1.45s.65-1.45,1.45-1.45h19.95l6.72-11.64c.39-.67.85-1.26,1.38-1.76h0ZM32.16,97.5v-9.97h-10.24l10.24,9.97ZM30.41,37.74h24.98v-7.98c0-.89-.72-1.6-1.6-1.6h-4.98c-.8,0-1.45-.65-1.45-1.45v-1.73c0-.59-.48-1.07-1.07-1.07h-6.77c-.59,0-1.07.48-1.07,1.07v1.73c0,.8-.65,1.45-1.45,1.45h-4.99c-.89,0-1.6.72-1.6,1.6v7.98ZM15.54,104.02h26.99c.17-.5.39-.99.66-1.47l.08-.14h-9.65s-.1,0-.15,0c-.03,0-.05,0-.08-.01-.02,0-.04,0-.05,0-.03,0-.06-.01-.1-.02-.01,0-.03,0-.04,0-.03,0-.06-.02-.1-.03-.01,0-.02,0-.04-.01-.03-.01-.06-.03-.09-.04-.01,0-.03-.01-.04-.02-.03-.01-.05-.03-.08-.05-.01,0-.03-.02-.05-.03-.02-.01-.05-.03-.06-.05s-.03-.02-.05-.04-.04-.03-.05-.05c-.01-.01-.03-.02-.04-.04l-15.28-14.88s0,0,0,0c-.02-.02-.04-.04-.06-.06-.01-.01-.02-.03-.04-.04-.02-.03-.05-.06-.07-.09,0,0,0-.01-.02-.02-.13-.2-.22-.42-.25-.67,0-.05,0-.1,0-.15v-50.2c0-.8.65-1.45,1.45-1.45h9.17v-1.61h-11.97c-1.66,0-3.01,1.35-3.01,3.01v65.18c0,1.66,1.35,3.01,3.01,3.01h0ZM96.81,104l-21.47-37.17c-.88-1.52-2.33-2.36-4.09-2.36-.98,0-1.86.26-2.6.75-.15.21-.37.39-.61.49-.33.32-.63.69-.88,1.12l-20.1,34.82s-.01.03-.02.04l-1.34,2.32c-.32.56-.53,1.14-.61,1.73,0,.01,0,.02,0,.04-.14.99.07,2.01.62,2.96.88,1.52,2.34,2.36,4.1,2.36h42.93c1.73,0,3.22-.86,4.09-2.36.87-1.53.87-3.2,0-4.72h0ZM76.65,78.37s0,.06,0,.1l-2.12,14.14c-.11.71-.72,1.24-1.44,1.24h-3.65c-.72,0-1.33-.53-1.44-1.24l-2.11-14.14s0-.09-.01-.13c-.13-2.14.79-3.95,2.52-4.98,1.81-1.08,4.2-1.07,5.95.03,1.65,1.03,2.49,2.84,2.32,4.99h0ZM72.79,75.85c-.82-.51-2.06-.51-2.93,0-.54.32-1.16.97-1.11,2.25l1.92,12.83h1.15l1.93-12.85c.07-1.04-.25-1.79-.96-2.24h0ZM75.89,101.98c0,2.55-2.07,4.63-4.63,4.63s-4.63-2.07-4.63-4.63,2.07-4.63,4.63-4.63c2.56,0,4.63,2.08,4.63,4.63ZM72.98,101.98c0-.95-.77-1.72-1.72-1.72s-1.72.77-1.72,1.72.77,1.72,1.72,1.72c.95,0,1.72-.77,1.72-1.72Z"/>
</svg>