<?xml version="1.0" encoding="UTF-8"?>
<svg id="Layer_1" xmlns="http://www.w3.org/2000/svg" version="1.1" viewBox="0 0 512 640">
  <!-- Generator: Adobe Illustrator 29.8.2, SVG Export Plug-In . SVG Version: 2.1.1 Build 3)  -->
  <path d="M422.41,440.02c14.3,0,21.5,17.3,11.4,27.4s-27.4,2.9-27.4-11.3c0-8.9,7.2-16.1,16-16.1h0ZM423.91,454.62c-1.9-1.9-4.8,1-2.9,2.9s4.8-1,2.9-2.9h0ZM462.81,458.52c-6.6,17.5-21.4,31.6-40.3,31.6s-33.7-14.1-40.3-31.6c-.6-1.6-.6-3.4,0-4.9,6.6-17.5,21.4-31.6,40.3-31.6s33.7,14.1,40.3,31.6c.6,1.6.6,3.3,0,4.9h0ZM438.01,470.42c4.4-3.5,8.1-8.5,10.7-14.3-11.8-26.8-40.6-26.8-52.5,0,4.8,10.9,14.2,20.1,26.2,20.1,5.7-.1,11.1-2.2,15.6-5.8h0ZM422.41,407.22c-27,0-48.8,21.9-48.8,48.8s21.9,48.8,48.8,48.8,48.8-21.9,48.8-48.8c.1-26.9-21.8-48.8-48.8-48.8h0ZM378.01,411.62c10.7-10.7,25.4-17.6,41.6-18.3l-.5-40.5-21.6-12.8c-14.6,54.8-62.7,93.9-119.1,97.5-29.3,1.8-59.1-6-84.2-23.6l-19.7,19.7c1.2,5.5-.2,11.1-4.3,15.4l-92.2,96.9c-7.2,7.6-19.4,8.1-27.3,1.2l-17.6-15.4c-8.1-7-8.6-19.2-1.2-26.9l92.4-97c4.6-4.8,10.8-6.9,17-5.6l20.7-20.7c-17.6-25.1-25.5-54.9-23.6-84.2.5-8.4,1.9-16.7,4-24.9l-35.6-20.4c-2.2-1.3-3.5-3.6-3.5-6h0v-32.8c-31.2-3.9-55-30.5-55-62.4-.1-34.7,28-62.8,62.7-62.8s62.8,28.1,62.8,62.8c0,32.5-24.7,59.4-56.6,62.5v28.7l29.5,17c19.5-51.5,68.9-85.1,123.4-85.1h0c56.8,0,107.6,36.4,125.4,90.8l18-10.4.1-41.3c-30.7-4.4-53.9-30.7-53.9-62.2,0-34.7,28.1-62.8,62.8-62.8s62.8,28.1,62.8,62.8c0,32.9-25.3,60-57.8,62.6l-.1,44.9c0,2.4-1.3,4.8-3.5,6l-24.7,14.3c3.3,15.4,3.7,31.3,1.4,46.9l29,17.1c2.3,1.4,3.6,3.9,3.4,6.4l.6,45.1c29.7,5.3,51.7,31.2,51.7,61.9,0,34.7-28.1,62.8-62.8,62.8s-62.8-28.1-62.8-62.8c-.1-17.3,7-33,18.3-44.4h0ZM422.41,134.82c14.3,0,21.5,17.3,11.4,27.4s-27.4,2.9-27.4-11.4c0-8.8,7.2-16,16-16h0ZM423.91,149.42c-1.9-1.9-4.8,1-2.9,2.9,1.9,1.9,4.8-1,2.9-2.9h0ZM462.81,153.32c-6.6,17.5-21.4,31.6-40.3,31.6s-33.7-14.1-40.3-31.6c-.6-1.6-.6-3.4,0-4.9,6.6-17.5,21.4-31.6,40.3-31.6s33.7,14.1,40.3,31.6c.6,1.6.6,3.4,0,4.9h0ZM438.01,165.22c4.4-3.5,8.1-8.4,10.7-14.3-11.8-26.7-40.6-26.7-52.5,0,4.8,10.9,14.2,20.1,26.2,20.1,5.7-.1,11.1-2.2,15.6-5.8h0ZM422.41,102.02c-27,0-48.8,21.9-48.8,48.8s21.9,48.8,48.8,48.8,48.8-21.9,48.8-48.8c.1-26.9-21.8-48.8-48.8-48.8h0ZM111.01,134.82c14.3,0,21.4,17.3,11.3,27.4s-27.3,2.9-27.3-11.4c0-8.8,7.1-16,16-16h0ZM112.51,149.42c-1.9-1.9-4.8,1-2.9,2.9,1.9,1.9,4.8-1,2.9-2.9h0ZM151.31,153.32c-6.6,17.5-21.4,31.6-40.3,31.6s-33.7-14.1-40.3-31.6c-.6-1.6-.6-3.4,0-4.9,6.6-17.5,21.4-31.6,40.3-31.6s33.7,14.1,40.3,31.6c.6,1.6.6,3.4,0,4.9h0ZM126.61,165.22c4.4-3.5,8.1-8.4,10.7-14.3-11.9-26.7-40.6-26.7-52.5,0,4.8,10.9,14.2,20.1,26.2,20.1,5.7-.1,11-2.2,15.6-5.8h0ZM111.01,102.02c-27,0-48.8,21.9-48.8,48.8s21.9,48.8,48.8,48.8,48.8-21.9,48.8-48.8-21.8-48.8-48.8-48.8h0ZM210.41,347.12h111.2v-6.3h-111.2v6.3ZM328.61,361.12h-125.2c-3.9,0-7-3.1-7-7v-20.3c0-3.5,2.5-6.3,5.8-6.9v-33.1c0-3.9,3.1-7,7-7h22.7c3.9,0,7,3.1,7,7v33h8.7v-59.5c0-3.9,3.1-7,7-7h22.7c3.9,0,7,3.1,7,7v59.5h8.7v-81.4c0-3.9,3.1-7,7-7h22.7c3.9,0,7,3.1,7,7v81.5c3.3.5,5.8,3.4,5.8,6.9v20.3c.1,3.9-3.1,7-6.9,7h0ZM315.81,252.52h-8.8v74h8.8v-74ZM224.91,300.82h-8.7v25.7h8.7v-25.7ZM270.31,274.32h-8.7v52.2h8.7v-52.2ZM129.01,423.22l-87.2,91.6c-1.7,1.8-1.6,4.7.5,6.6l17.6,15.4c2.2,1.9,5.9,1.8,8-.4l85.2-89.5c-13.5.7-24.6-10.2-24.1-23.7h0ZM353.41,222.52c-23-23.1-53.2-34.6-83.4-34.6h0c-62.2,0-113.8,48.3-117.7,110.4-1.8,27.8,6.3,56.1,24.1,79.3,2.5,2.7,2.4,7-.3,9.6l-30.6,30.6c-5.4,5.4-1.7,15.1,6.2,15.1,2.2,0,4.5-.9,6.2-2.6l30.6-30.6h0c2.5-2.4,6.4-2.7,9.2-.6,23.3,18,51.8,26.2,79.7,24.4,62-4,110.4-55.5,110.4-117.7.2-30.1-11.3-60.3-34.4-83.3h0ZM270.11,200.02c58.5,0,105.9,47.4,105.9,105.9s-47.4,105.9-105.9,105.9-105.9-47.4-105.9-105.9c-.1-58.5,47.3-105.9,105.9-105.9h0ZM335.01,240.92c-35.9-35.9-94.1-35.9-130,0s-35.9,94.1,0,130,94.1,35.9,130,0,35.9-94.1,0-130h0Z"/>
</svg>