<?xml version="1.0" encoding="UTF-8"?>
<svg id="Layer_1" xmlns="http://www.w3.org/2000/svg" version="1.1" viewBox="0 0 110 135">
  <!-- Generator: Adobe Illustrator 29.8.2, SVG Export Plug-In . SVG Version: 2.1.1 Build 3)  -->
  <defs>
    <style>
      .st0 {
        stroke: #000;
        stroke-miterlimit: 10;
        stroke-width: .2px;
      }
    </style>
  </defs>
  <path class="st0" d="M43.35,57.28c5.93,0,10.73-4.81,10.74-10.74,0-.53-.43-.96-.96-.96h-8.82v-8.82c0-.53-.43-.95-.96-.95-5.89.05-10.63,4.84-10.63,10.73s4.74,10.68,10.63,10.74h0ZM42.4,37.77v8.77c0,.53.43.96.96.96h8.77c-.37,3.37-2.64,6.24-5.84,7.37-3.2,1.12-6.77.32-9.17-2.09-2.4-2.4-3.21-5.96-2.08-9.17,1.12-3.2,3.99-5.47,7.36-5.84h0ZM46.75,44.1h9.78c.53,0,.96-.43.96-.96,0-5.93-4.81-10.73-10.74-10.74-.53,0-.96.43-.96.96v9.78c0,.53.43.96.96.96h0ZM47.71,34.37c4.11.45,7.36,3.7,7.82,7.82h-7.82v-7.82ZM30.26,81.22h6.11c.53,0,.96-.43.96-.96v-12.58c0-.53-.43-.96-.96-.96h-6.11c-.53,0-.96.43-.96.96v12.58c0,.53.43.96.96.96ZM31.22,68.64h4.19v10.67h-4.19v-10.67ZM30.26,85.04h15.65c.53,0,.95.43.95.96s-.43.96-.95.96h-15.65c-.53,0-.95-.43-.95-.96s.43-.95.95-.95h0ZM50.75,91.09c0,.53-.43.96-.95.96h-19.54c-.53,0-.95-.43-.95-.96s.43-.96.95-.96h19.54c.52,0,.95.43.95.96h0ZM90.87,98.07c-.64-.64-1.43-1.11-2.29-1.38-1.93-.56-3.68-1.61-5.09-3.05l-3.87-3.87v-49.12c0-.25-.1-.5-.28-.68l-12.18-12.18c-.18-.18-.42-.28-.68-.28H23.57c-.53,0-.95.43-.96.96v4.14h-4.14c-.53,0-.96.43-.96.95v70.45c0,.53.43.96.96.96h20.36c.16.33.49.54.86.54h22.74c.37,0,.7-.21.86-.54h10.27c.53,0,.95-.43.95-.96v-4.14h4.15c.32,0,.62-.16.8-.44,1.02,1.22,1.77,2.64,2.21,4.17.5,1.63,1.71,2.93,3.3,3.54,1.59.61,3.37.45,4.83-.42,1.46-.88,2.43-2.38,2.64-4.06.21-1.69-.37-3.38-1.57-4.58h0ZM67.43,30.77l8.92,8.92h-8.92v-8.92ZM19.43,34.52h3.19v64.38c0,.53.43.96.96.96h15.77c-.4.6-.61,1.3-.61,2.02v1.18h-19.31V34.52ZM57.86,98.24h-13.6v-1.26c0-.59.9-1.26,2.1-1.26h9.39c1.2,0,2.1.66,2.1,1.26v1.26ZM40.65,101.87c0-.95.77-1.71,1.72-1.71h17.39c.95,0,1.71.77,1.71,1.71v1.72h-20.82v-1.72ZM72.6,103.05h-9.21v-1.18c0-.71-.21-1.42-.61-2.01h9.83v3.19ZM59.77,97.95v-.96c0-1.75-1.8-3.17-4.02-3.17h-9.39c-2.21,0-4.02,1.42-4.02,3.17v.96h-17.82V29.42h40.99v11.23c0,.53.43.96.96.96h11.22v46.25l-4.96-4.96.46-.46h0c.18-.18.28-.43.28-.68s-.1-.5-.28-.68l-2.17-2.17,2.25-2.25h0c.2.05.41.07.62.07,1.09,0,2.07-.66,2.48-1.66.42-1,.19-2.16-.57-2.93l-2.41-2.42v-16.65c0-.53-.43-.96-.95-.96h-6.11c-.53,0-.96.43-.96.96v10.99c-1.22.51-1.89,1.83-1.58,3.12l-2.43,2.43v-4.88c0-.53-.43-.96-.96-.96h-6.11c-.53,0-.95.43-.95.96v12.89l-1.2,1.2h0c-1.07-.26-2.18.16-2.81,1.05v-18.28c0-.53-.43-.95-.96-.95h-6.11c-.53,0-.96.43-.96.95v18.69c0,.53.43.96.96.96h6.11c.16,0,.33-.04.47-.12-.02.11-.02.22-.02.34,0,.71.28,1.4.79,1.91l7.49,7.49c.77.77,1.93.99,2.93.57,1-.41,1.66-1.39,1.66-2.48,0-.21-.02-.42-.07-.62l2.25-2.25,2.17,2.17h0c.18.18.42.28.68.28s.5-.1.68-.28l.46-.46,9.83,9.82v.36h-17.93ZM66.74,86.19l-1.5-1.5,4.44-4.44,1.5,1.49-4.43,4.44ZM59.46,71.51l-4.2,4.19v-10.02h4.2v5.83ZM52.09,80.88l7.49,7.49c.3.31.3.8,0,1.11-.31.3-.8.3-1.11,0l-7.49-7.49c-.29-.31-.29-.8.02-1.1.3-.3.79-.31,1.1-.02h0ZM60.58,86.66l-6.78-6.79,11.06-11.06,6.78,6.78-11.06,11.07ZM73.35,74.6l-7.49-7.49c-.3-.3-.3-.8,0-1.11.31-.31.8-.31,1.11,0l7.49,7.49c.3.31.3.8,0,1.11-.3.3-.8.3-1.11,0ZM71.48,67.8l-3.16-3.16c-.29-.29-.64-.51-1.03-.64v-9.97h4.2v13.77ZM47.43,62.54v16.78h-4.19v-16.78h4.19ZM89.52,104.53c-1.41,1.41-3.7,1.41-5.11,0-.42-.42-.73-.93-.9-1.5-.66-2.23-1.88-4.26-3.54-5.89l-10.74-10.74,2.16-2.16,6.59,6.59h0s4.15,4.15,4.15,4.15c1.63,1.66,3.65,2.88,5.89,3.53.57.17,1.08.48,1.5.9,1.41,1.41,1.41,3.7,0,5.11h0Z"/>
</svg>