<?xml version="1.0" encoding="UTF-8"?>
<svg id="Layer_1" xmlns="http://www.w3.org/2000/svg" version="1.1" viewBox="0 0 512 640">
  <!-- Generator: Adobe Illustrator 29.8.2, SVG Export Plug-In . SVG Version: 2.1.1 Build 3)  -->
  <defs>
    <style>
      .st0 {
        stroke: #000;
        stroke-miterlimit: 10;
        stroke-width: 4px;
      }
    </style>
  </defs>
  <path class="st0" d="M323.78,344.35l-4.02,35.49,34.53-9.18-30.51-26.31ZM79.51,358.18c-3.77-3.68,1.81-9.38,5.58-5.73l7.65,7.48,11.48-13.69c3.37-4.03,9.5,1.11,6.12,5.13l-14.23,16.98c-1.5,1.79-4.2,1.93-5.84.31l-10.76-10.48ZM152.75,347.13c-5.24,0-5.24-7.99,0-7.99h146.81c5.24,0,5.24,7.99,0,7.99h-146.81ZM152.75,374.51c-5.24,0-5.24-7.99,0-7.99h146.81c5.24,0,5.24,7.99,0,7.99h-146.81ZM68.6,327.57h52.64c2.21,0,4,1.79,4,4v50.49c0,2.21-1.79,4-4,4h-52.64c-2.21,0-4.02-1.79-4.02-4v-50.49c0-2.22,1.81-4,4.02-4h0ZM117.24,335.56h-44.64v42.49h44.65v-42.49h-.01ZM426.79,253.13l-69.36,80.45,18.25,15.73,69.36-80.45-18.25-15.73h0ZM351.39,328.36l69.36-80.45-9.67-8.33-69.36,80.45,9.67,8.33h0ZM370.45,355.35c-11.31-9.75-22.62-19.53-33.96-29.28l-9.27,10.74,33.99,29.28,9.24-10.74ZM450.26,262.83l14.71-17.06c3.85-4.45,5.73-10.97,5.33-16.3-1.5-20.13-26.53-27.81-39.32-12.98l-14.68,17.06,33.96,29.28h0ZM471.2,250.72l-20.27,23.53v176.94h25.77c2.21,0,4,1.79,4,4v64.74c0,13.72-11.17,24.89-24.89,24.89H156.64c-19.76,0-35.86-16.1-35.86-35.83v-90.94H55.82c-13.49,0-24.52-11-24.52-24.49v-73.5c0-13.46,11.03-24.49,24.52-24.49h64.97v-120.25c0-13.69,11.17-24.89,24.89-24.89h77.7c.37-.77.74-1.53,1.13-2.3l-6.86-15.45c-.88-1.53-.65-3.52.65-4.82l16.07-16.04c1.13-1.13,2.86-1.5,4.42-.82l15.82,7.03c3.23-1.64,6.52-3.03,9.95-4.14l6.09-15.85c.48-1.64,2.04-2.86,3.85-2.86h22.71c1.81,0,3.35,1.22,3.83,2.86l6.12,15.85c3.4,1.11,6.72,2.49,9.92,4.14l15.85-7.03c1.53-.68,3.29-.31,4.42.82l16.07,16.04c1.3,1.3,1.5,3.29.62,4.82l-6.86,15.45c.4.77.77,1.53,1.13,2.3h77.73c13.72,0,24.89,11.2,24.89,24.89v25.57c24.5,2.35,35.87,31.32,20.28,49.83h-.01ZM442.94,201.17v-25.85c0-9.3-7.6-16.87-16.89-16.87h-73.76l15.19,5.84c1.59.62,2.55,2.13,2.55,3.71v22.71c0,1.62-.96,3.12-2.55,3.74l-16.16,6.21c-1.11,3.43-2.49,6.75-4.14,9.95l6.86,15.45c.88,1.53.68,3.52-.62,4.82l-16.07,16.04c-1.13,1.13-2.89,1.5-4.42.82l-15.85-7.03c-3.2,1.64-6.52,3-9.92,4.14l-6.12,15.85c-.48,1.64-2.01,2.86-3.83,2.86h-22.71c-1.81,0-3.37-1.22-3.85-2.86l-6.09-15.85c-3.43-1.13-6.72-2.49-9.95-4.14l-15.82,7.03c-1.56.68-3.29.31-4.42-.82l-16.07-16.04c-1.3-1.3-1.53-3.29-.65-4.82l6.86-15.45c-1.64-3.2-3-6.52-4.11-9.95l-16.16-6.21c-1.59-.62-2.55-2.13-2.55-3.74v-22.71c0-1.59.96-3.09,2.55-3.71l15.19-5.84h-73.76c-9.3,0-16.89,7.57-16.89,16.87v120.25h210.53c3.88,0,7.54.91,10.8,2.52l74.83-86.83c4.82-5.55,11.23-8.95,18-10.09h0ZM344.6,304.44c-1.64-.57-3.46-.88-5.3-.88H55.82c-9.07,0-16.5,7.43-16.5,16.5v73.5c0,9.07,7.43,16.5,16.5,16.5h283.49c9.07,0,16.5-7.43,16.5-16.5v-15.05l-39.49,10.52c-2.72.82-5.47-1.39-5.16-4.28l5.27-46.52c.09-.79.4-1.53.94-2.18l27.24-31.61h0ZM363.79,375.3v18.26c0,13.49-11,24.49-24.49,24.49h-210.53v90.94c0,15.42,11.96,26.25,25.2,27.67,16.33,1.76,30.5-11.4,30.5-27.67v-53.8c0-2.21,1.79-4,4-4h254.47v-167.67l-79.15,91.78h0ZM362.04,187.99v-17.23l-15.25-5.87c-1.16-.43-2.15-1.36-2.52-2.66-1.22-4.14-2.86-8.14-4.93-11.93-.62-1.13-.74-2.41-.2-3.6l6.69-15.08-12.19-12.22-14.91,6.6c-1.13.57-2.49.6-3.71-.06-3.74-2.04-7.8-3.74-11.93-4.93-1.22-.37-2.21-1.22-2.66-2.44l-5.95-15.39h-17.23l-5.92,15.39c-.48,1.22-1.45,2.07-2.69,2.44-4.11,1.19-8.16,2.89-11.93,4.93-1.19.65-2.58.62-3.71.06l-14.88-6.6-12.22,12.22,6.72,15.08c.51,1.19.43,2.47-.2,3.6-2.07,3.8-3.71,7.8-4.93,11.93-.37,1.3-1.36,2.24-2.55,2.66l-15.25,5.87v17.23l15.25,5.87c1.19.43,2.18,1.36,2.55,2.66,1.22,4.14,2.86,8.14,4.93,11.93.62,1.13.71,2.41.2,3.6l-6.72,15.08,12.22,12.22,14.88-6.6c1.13-.57,2.52-.6,3.71.06,3.77,2.04,7.82,3.71,11.93,4.93,1.25.37,2.21,1.22,2.69,2.44l5.92,15.39h17.23l5.95-15.39c.45-1.22,1.45-2.07,2.66-2.44,4.14-1.22,8.19-2.89,11.93-4.93,1.22-.65,2.58-.62,3.71-.06l14.91,6.6,12.19-12.22-6.69-15.08c-.54-1.19-.42-2.47.2-3.6,2.07-3.8,3.71-7.8,4.93-11.93.37-1.3,1.36-2.24,2.52-2.66l15.25-5.87h0ZM325.07,179.37c0-21.66-17.57-39.2-39.23-39.2s-39.2,17.55-39.2,39.2,17.55,39.2,39.2,39.2,39.23-17.54,39.23-39.2h0ZM317.06,179.37c0,17.23-13.98,31.21-31.21,31.21s-31.21-13.97-31.21-31.21,13.97-31.21,31.21-31.21,31.21,13.98,31.21,31.21h0ZM192.48,459.18v49.8c0,10.86-4.93,21.03-13.32,27.84h276.66c9.3,0,16.89-7.6,16.89-16.89v-60.75H192.48Z"/>
</svg>