<?xml version="1.0" encoding="UTF-8"?>
<svg id="Layer_1" xmlns="http://www.w3.org/2000/svg" version="1.1" viewBox="0 0 110 135">
  <!-- Generator: Adobe Illustrator 29.8.2, SVG Export Plug-In . SVG Version: 2.1.1 Build 3)  -->
  <defs>
    <style>
      .st0 {
        stroke: #000;
        stroke-miterlimit: 10;
        stroke-width: .5px;
      }
    </style>
  </defs>
  <path class="st0" d="M64.55,63.95c.59.59.59,1.54,0,2.12-.29.29-.68.44-1.06.44s-.77-.15-1.06-.44c-4.09-4.09-10.76-4.09-14.85,0-.59.59-1.54.59-2.12,0-.58-.59-.59-1.54,0-2.12,5.26-5.26,13.82-5.26,19.09,0h0ZM83.62,56.62c-.08-.36-.12-.74-.12-1.12,0-3.03,2.47-5.5,5.5-5.5s5.5,2.47,5.5,5.5-2.47,5.5-5.5,5.5c-1.56,0-2.98-.66-3.98-1.71l-5.19,3.46c-.26.17-.54.25-.83.25-.48,0-.96-.23-1.25-.67-.46-.69-.27-1.62.42-2.08l5.45-3.63ZM86.5,55.5c0,1.38,1.12,2.5,2.5,2.5s2.5-1.12,2.5-2.5-1.12-2.5-2.5-2.5-2.5,1.12-2.5,2.5ZM67.94,52.56c-.59-.59-.59-1.54,0-2.12l7.56-7.56v-2.09c-2.3-.66-4-2.77-4-5.29,0-3.03,2.47-5.5,5.5-5.5s5.5,2.47,5.5,5.5c0,2.51-1.7,4.63-4,5.29v2.71c0,.4-.16.78-.44,1.06l-8,8c-.29.29-.68.44-1.06.44s-.77-.15-1.06-.44ZM77,38c1.38,0,2.5-1.12,2.5-2.5s-1.12-2.5-2.5-2.5-2.5,1.12-2.5,2.5,1.12,2.5,2.5,2.5ZM49.5,31.5c0-3.03,2.47-5.5,5.5-5.5s5.5,2.47,5.5,5.5c0,2.51-1.7,4.63-4,5.29v10.71c0,.83-.67,1.5-1.5,1.5s-1.5-.67-1.5-1.5v-10.71c-2.3-.66-4-2.78-4-5.29ZM52.5,31.5c0,1.38,1.12,2.5,2.5,2.5s2.5-1.12,2.5-2.5-1.12-2.5-2.5-2.5-2.5,1.12-2.5,2.5ZM88.5,103.5c0,3.03-2.47,5.5-5.5,5.5s-5.5-2.47-5.5-5.5c0-2.51,1.7-4.63,4-5.29v-2.09l-5.56-5.56c-.59-.59-.59-1.54,0-2.12.59-.59,1.54-.59,2.12,0l6,6c.28.28.44.66.44,1.06v2.71c2.3.66,4,2.78,4,5.29ZM85.5,103.5c0-1.38-1.12-2.5-2.5-2.5s-2.5,1.12-2.5,2.5,1.12,2.5,2.5,2.5,2.5-1.12,2.5-2.5ZM34.06,88.44c.59.59.59,1.54,0,2.12l-5.56,5.56v2.09c2.3.66,4,2.77,4,5.29,0,3.03-2.47,5.5-5.5,5.5s-5.5-2.47-5.5-5.5c0-2.51,1.7-4.63,4-5.29v-2.71c0-.4.16-.78.44-1.06l6-6c.59-.59,1.53-.59,2.12,0h0ZM27,101c-1.38,0-2.5,1.12-2.5,2.5s1.12,2.5,2.5,2.5,2.5-1.12,2.5-2.5-1.12-2.5-2.5-2.5ZM96.5,77.5c0,3.03-2.47,5.5-5.5,5.5-2.51,0-4.63-1.7-5.29-4h-4.71c-.83,0-1.5-.67-1.5-1.5s.67-1.5,1.5-1.5h4.71c.66-2.3,2.78-4,5.29-4,3.03,0,5.5,2.47,5.5,5.5ZM93.5,77.5c0-1.38-1.12-2.5-2.5-2.5s-2.5,1.12-2.5,2.5,1.12,2.5,2.5,2.5,2.5-1.12,2.5-2.5ZM19,83c-3.03,0-5.5-2.47-5.5-5.5s2.47-5.5,5.5-5.5c2.51,0,4.63,1.7,5.29,4h4.71c.83,0,1.5.67,1.5,1.5s-.67,1.5-1.5,1.5h-4.71c-.66,2.3-2.78,4-5.29,4ZM21.5,77.5c0-1.38-1.12-2.5-2.5-2.5s-2.5,1.12-2.5,2.5,1.12,2.5,2.5,2.5,2.5-1.12,2.5-2.5ZM27.5,35.5c0-3.03,2.47-5.5,5.5-5.5s5.5,2.47,5.5,5.5c0,2.51-1.7,4.63-4,5.29v2.09l7.56,7.56c.59.59.59,1.54,0,2.12-.29.29-.68.44-1.06.44s-.77-.15-1.06-.44l-8-8c-.28-.28-.44-.66-.44-1.06v-2.71c-2.3-.66-4-2.78-4-5.29h0ZM30.5,35.5c0,1.38,1.12,2.5,2.5,2.5s2.5-1.12,2.5-2.5-1.12-2.5-2.5-2.5-2.5,1.12-2.5,2.5ZM15.5,55.5c0-3.03,2.47-5.5,5.5-5.5s5.5,2.47,5.5,5.5c0,.38-.04.76-.12,1.12l5.45,3.63c.69.46.88,1.39.42,2.08-.29.43-.76.67-1.25.67-.29,0-.58-.08-.83-.25l-5.19-3.46c-1,1.05-2.41,1.71-3.98,1.71-3.03,0-5.5-2.47-5.5-5.5h0ZM18.5,55.5c0,1.38,1.12,2.5,2.5,2.5s2.5-1.12,2.5-2.5-1.12-2.5-2.5-2.5-2.5,1.12-2.5,2.5ZM76.5,73.44c.02,7.42-3.71,14.23-9.97,18.22-1.27.81-2.03,2.16-2.03,3.61v4.23c0,1.93-1.57,3.51-3.51,3.51h-11.98c-1.93,0-3.51-1.57-3.51-3.51v-4.11c0-1.52-.8-2.95-2.14-3.81-6.17-3.98-9.86-10.74-9.86-18.08,0-5.97,2.38-11.51,6.71-15.61,4.33-4.1,10-6.18,15.98-5.86,11.17.61,20.28,10.21,20.31,21.41h0ZM73.5,73.44c-.03-9.64-7.86-17.9-17.47-18.42-.35-.02-.7-.03-1.04-.03-4.76,0-9.24,1.78-12.71,5.07-3.73,3.54-5.78,8.31-5.78,13.44,0,6.32,3.17,12.14,8.49,15.56,2.2,1.42,3.51,3.78,3.51,6.33v4.11c0,.28.23.51.51.51h11.99c.28,0,.51-.23.51-.51v-4.23c0-2.48,1.28-4.78,3.42-6.14,5.38-3.43,8.59-9.3,8.57-15.68h0ZM61,106h-12c-.83,0-1.5.67-1.5,1.5s.67,1.5,1.5,1.5h12c.83,0,1.5-.67,1.5-1.5s-.67-1.5-1.5-1.5Z"/>
</svg>