<?xml version="1.0" encoding="UTF-8"?>
<svg id="Layer_1" xmlns="http://www.w3.org/2000/svg" version="1.1" viewBox="0 0 110 135">
  <!-- Generator: Adobe Illustrator 29.8.2, SVG Export Plug-In . SVG Version: 2.1.1 Build 3)  -->
  <defs>
    <style>
      .st0 {
        stroke: #000;
        stroke-miterlimit: 10;
      }
    </style>
  </defs>
  <path class="st0" d="M55,70.28c1.53,0,2.3,1.89,1.2,2.95l.11,2.8c.02.35-.27.65-.63.65h-1.42c-.34-.02-.62-.3-.6-.65l.11-2.8c-1.09-1.06-.31-2.97,1.22-2.95h0Z"/>
  <path class="st0" d="M81.31,54.99c-.3-23.81-32.75-28.77-40.17-6.2-11.42-5.91-24.4,4.97-20.57,17.25-13.27,7.19-8.34,27.23,6.8,27.39h16.75c2.85,3.15,6.43,5.63,10.38,7.2.3.15.65.17.96.05,3.99-1.57,7.61-4.05,10.49-7.25h11.91c23.59-.66,26.46-33.65,3.45-38.44h0ZM58.33,96.68c-1.05.62-2.16,1.18-3.29,1.65-8.68-3.51-14.97-12.01-15.71-21.34-.2-1.52-.07-10.95-.1-12.66,5.69.44,11.38-1.33,15.81-4.91,4.42,3.57,10.12,5.34,15.81,4.9v10.38c.05,8.88-4.84,17.49-12.51,21.97h0ZM77.86,91.09h-10.01c6.63-8.96,5.2-17.73,5.32-28.07.02-.69-.65-1.27-1.33-1.16-5.77.8-11.69-.99-16.04-4.85-.45-.39-1.11-.39-1.55,0-4.36,3.86-10.28,5.65-16.05,4.85-.68-.11-1.34.47-1.33,1.16.03,1.85-.1,12.55.11,14.16.45,5.07,2.25,9.83,5.22,13.91h-14.85c-6.73,0-12.19-5.47-12.19-12.19,0-4.85,2.88-9.24,7.32-11.18.58-.25.85-.92.62-1.51-4.34-11.12,8.16-21.23,18.12-14.64.32.22.73.26,1.09.11.36-.14.62-.46.71-.84.87-3.99,3.09-7.62,6.28-10.22,12.18-9.99,30.71-.45,29.62,15.3-.04.62.41,1.16,1.02,1.24,21,3.23,19.19,33.28-2.1,33.94h.02Z"/>
  <path class="st0" d="M61.2,65.5v-3.07c.02-5.48-6.72-8.28-10.59-4.39-2.24,2.25-1.78,4.61-1.82,7.46-1.33.34-2.31,1.54-2.31,2.97v10.03c0,1.69,1.38,3.06,3.06,3.06h10.95c1.66,0,3.02-1.35,3.02-3.02v-10.08c0-1.43-.98-2.63-2.31-2.97h0ZM52.27,59.7c2.41-2.42,6.6-.68,6.59,2.73v2.98h-7.72v-2.98c0-1.03.4-2,1.13-2.73h0ZM61.17,78.54c0,.37-.3.67-.67.67h-10.95c-.4,0-.72-.32-.72-.72v-10.03c0-.39.32-.72.72-.72h10.91c.39,0,.72.32.72.72v10.08Z"/>
</svg>