<svg id="Layer_1" enable-background="new 0 0 64 64" height="512" viewBox="0 0 64 64" width="512" xmlns="http://www.w3.org/2000/svg"><g><path d="m56 57h-48c-.553 0-1-.448-1-1s.447-1 1-1h48c.553 0 1 .448 1 1s-.447 1-1 1z"/></g><g><path d="m42.631 57c-.553 0-1-.448-1-1v-25.565c0-.552.447-1 1-1s1 .448 1 1v25.565c0 .552-.447 1-1 1z"/></g><g><path d="m39.892 31.435c-.553 0-1-.448-1-1v-7.305c0-.552.447-1 1-1s1 .448 1 1v7.304c0 .553-.448 1.001-1 1.001z"/></g><g><path d="m51.761 24.13h-11.869c-.553 0-1-.448-1-1s.447-1 1-1h11.869c.553 0 1 .448 1 1s-.448 1-1 1z"/></g><g><path d="m51.761 57c-.553 0-1-.448-1-1v-32.87c0-.552.447-1 1-1s1 .448 1 1v32.87c0 .552-.448 1-1 1z"/></g><g><path d="m33.5 57c-.553 0-1-.448-1-1v-21.913c0-.552.447-1 1-1s1 .448 1 1v21.913c0 .552-.447 1-1 1z"/></g><g><path d="m33.5 35.087h-11.869c-.553 0-1-.448-1-1s.447-1 1-1h11.869c.553 0 1 .448 1 1s-.447 1-1 1z"/></g><g><path d="m30.761 35.087c-.553 0-1-.448-1-1v-3.652c0-.552.447-1 1-1s1 .448 1 1v3.652c0 .552-.448 1-1 1z"/></g><g><path d="m42.631 31.435h-11.87c-.553 0-1-.448-1-1s.447-1 1-1h11.87c.553 0 1 .448 1 1s-.447 1-1 1z"/></g><g><path d="m43.275 57c-.256 0-.512-.098-.707-.293-.391-.391-.391-1.023 0-1.414l8.485-8.485c.391-.391 1.023-.391 1.414 0s.391 1.023 0 1.414l-8.485 8.485c-.195.195-.451.293-.707.293z"/></g><g><path d="m42.631 49.16c-.256 0-.512-.098-.707-.293-.391-.391-.391-1.023 0-1.414l9.13-9.131c.391-.391 1.023-.391 1.414 0s.391 1.023 0 1.414l-9.13 9.131c-.195.196-.451.293-.707.293z"/></g><g><path d="m42.631 40.675c-.256 0-.512-.098-.707-.293-.391-.391-.391-1.023 0-1.414l9.13-9.131c.391-.391 1.023-.391 1.414 0s.391 1.023 0 1.414l-9.13 9.131c-.195.195-.451.293-.707.293z"/></g><g><path d="m42.631 32.189c-.256 0-.512-.098-.707-.293-.391-.391-.391-1.023 0-1.414l8.059-8.059c.391-.391 1.023-.391 1.414 0s.391 1.023 0 1.414l-8.059 8.059c-.195.196-.451.293-.707.293z"/></g><g><path d="m24.369 57c-.553 0-1-.448-1-1v-12.261c0-.552.447-1 1-1s1 .448 1 1v12.261c0 .552-.447 1-1 1z"/></g><g><path d="m24.369 44.739h-11.869c-.553 0-1-.448-1-1s.447-1 1-1h11.869c.553 0 1 .448 1 1s-.447 1-1 1z"/></g><g><path d="m21.631 44.739c-.553 0-1-.448-1-1v-9.652c0-.552.447-1 1-1s1 .448 1 1v9.652c0 .553-.447 1-1 1z"/></g><g><path d="m25.015 57c-.256 0-.512-.098-.707-.293-.391-.391-.391-1.023 0-1.414l8.485-8.485c.391-.391 1.023-.391 1.414 0s.391 1.023 0 1.414l-8.485 8.485c-.196.195-.451.293-.707.293z"/></g><g><path d="m24.369 49.16c-.256 0-.512-.098-.707-.293-.391-.391-.391-1.023 0-1.414l9.131-9.131c.391-.391 1.023-.391 1.414 0s.391 1.023 0 1.414l-9.131 9.131c-.195.196-.451.293-.707.293z"/></g><g><path d="m21.631 43.414c-.256 0-.512-.098-.707-.293-.391-.391-.391-1.023 0-1.414l8.326-8.327c.391-.391 1.023-.391 1.414 0s.391 1.023 0 1.414l-8.326 8.327c-.195.195-.451.293-.707.293z"/></g><g><path d="m28.029 25.134c-.14 0-.282-.029-.418-.092l-7.646-3.531c-.502-.231-.721-.826-.489-1.327.231-.5.823-.721 1.327-.488l7.646 3.531c.502.231.721.826.489 1.327-.168.365-.531.58-.909.58z"/></g><g><path d="m8.001 30.342c-.314 0-.623-.147-.818-.423-.318-.451-.21-1.075.241-1.394l12.384-8.739c.45-.319 1.074-.21 1.394.24.318.451.21 1.075-.241 1.394l-12.385 8.739c-.175.124-.376.183-.575.183z"/></g><g><path d="m47.452 18.678c-.057 0-.113-.004-.171-.015-.544-.094-.909-.611-.815-1.155l1.424-8.254c.094-.545.61-.911 1.155-.815.544.094.909.611.815 1.155l-1.424 8.254c-.083.487-.506.83-.984.83z"/></g><g><path d="m48.876 10.424c-.057 0-.113-.004-.171-.015l-8.254-1.424c-.544-.094-.909-.611-.815-1.155.094-.545.612-.91 1.155-.815l8.254 1.424c.544.094.909.611.815 1.155-.084.487-.506.83-.984.83z"/></g><g><path d="m12.5 57c-.553 0-1-.448-1-1v-2c0-.552.447-1 1-1s1 .448 1 1v2c0 .552-.447 1-1 1z"/></g><g><path d="m12.5 47c-.553 0-1-.448-1-1v-2.261c0-.552.447-1 1-1s1 .448 1 1v2.261c0 .552-.447 1-1 1z"/></g><g><path d="m12.5 51c-.26 0-.521-.11-.71-.29-.181-.19-.29-.45-.29-.71s.109-.52.29-.71c.38-.37 1.04-.37 1.42 0 .18.19.29.45.29.71s-.11.52-.29.71c-.19.18-.45.29-.71.29z"/></g><g><path d="m37.836 18.215c-.314 0-.623-.147-.818-.423-.318-.451-.211-1.075.241-1.394l11.04-7.792c.45-.318 1.074-.21 1.394.24.318.451.211 1.075-.241 1.394l-11.04 7.792c-.176.124-.377.183-.576.183z"/></g><g><path d="m28.031 25.134c-.314 0-.623-.147-.818-.423-.318-.452-.21-1.075.241-1.394l3.269-2.306c.451-.32 1.075-.21 1.394.24.318.452.21 1.075-.241 1.394l-3.269 2.306c-.175.124-.377.183-.576.183z"/></g><g><path d="m34.569 20.52c-.27 0-.52-.1-.71-.29-.189-.19-.29-.44-.29-.71 0-.26.101-.52.29-.71.37-.37 1.04-.37 1.41 0 .19.19.3.45.3.71 0 .27-.109.52-.3.71-.179.19-.439.29-.7.29z"/></g></svg>