<?xml version="1.0" encoding="UTF-8"?>
<svg id="Layer_1" xmlns="http://www.w3.org/2000/svg" version="1.1" viewBox="0 0 110 135">
  <!-- Generator: Adobe Illustrator 29.8.2, SVG Export Plug-In . SVG Version: 2.1.1 Build 3)  -->
  <defs>
    <style>
      .st0 {
        stroke: #000;
        stroke-miterlimit: 10;
        stroke-width: .5px;
      }
    </style>
  </defs>
  <path class="st0" d="M82.76,66.49V28.61c0-.29-.12-.57-.32-.79-.21-.21-.49-.32-.79-.32H16.63c-.61,0-1.11.5-1.11,1.11v48.21c0,.29.12.58.32.79.21.21.49.32.79.32h5.77v7.88c0,.29.12.58.33.79.21.21.49.32.79.32h8.02c.3,0,.58-.12.79-.32.21-.21.33-.49.33-.79v-7.87h4.16v7.87c0,.29.11.58.32.79.21.21.49.32.79.32h8.02c.29,0,.58-.12.79-.32.21-.21.32-.49.32-.79v-7.87h4.16v4.87c-.73,5.29.51,10.66,3.48,15.09,2.98,4.43,7.48,7.61,12.65,8.94,5.17,1.32,10.65.7,15.38-1.75,4.74-2.45,8.41-6.56,10.32-11.55,1.9-4.98,1.91-10.5.01-15.48-1.9-4.99-5.56-9.1-10.3-11.56h0ZM80.54,29.72v5.71H17.75v-5.71h62.79ZM30.43,84.68h-5.8v-12.13h5.8v12.13ZM44.84,84.68h-5.8v-24.72h5.8v24.72ZM47.06,75.7v-16.85c0-.3-.12-.58-.33-.79-.21-.21-.49-.32-.79-.32h-8.02c-.3,0-.58.12-.79.32-.21.21-.33.49-.33.79v16.85h-4.16v-4.26c0-.61-.5-1.11-1.11-1.11h-8.02c-.61,0-1.11.5-1.11,1.11v4.26h-4.66v-38.05h62.79v27.83c-1.5-.58-3.06-.99-4.66-1.22v-8.75c0-.3-.12-.58-.32-.79-.21-.21-.49-.33-.79-.33h-8.02c-.61,0-1.11.5-1.11,1.11v9.72c-1.45.51-2.85,1.16-4.16,1.96v-1.32c0-.61-.5-1.11-1.11-1.11h-8.02c-.61,0-1.11.5-1.11,1.11v9.82h-4.16ZM73.67,64.06c-.3-.01-.6-.02-.91-.02h0c-1.65,0-3.29.18-4.9.55v-7.97h5.8v7.44ZM59.26,68.76h0c-2.41,1.91-4.38,4.31-5.8,7.04v-8.81h5.8v1.77ZM72.76,105.28h0c-5.17,0-10.14-2.05-13.79-5.71-3.66-3.66-5.72-8.62-5.72-13.79s2.05-10.14,5.71-13.79c3.66-3.66,8.62-5.72,13.79-5.72s10.14,2.05,13.8,5.71c3.66,3.66,5.71,8.62,5.71,13.79,0,5.17-2.06,10.13-5.72,13.79-3.66,3.66-8.62,5.71-13.79,5.72h0ZM72.76,68.44h0c-4.6,0-9,1.82-12.25,5.07-3.25,3.25-5.08,7.66-5.08,12.25s1.82,9,5.07,12.26c3.25,3.25,7.66,5.07,12.26,5.07s9-1.83,12.25-5.08,5.07-7.66,5.07-12.26c0-4.59-1.83-9-5.08-12.25-3.25-3.25-7.65-5.08-12.25-5.08h0ZM87,86.88h.81c-.24,3.23-1.51,6.3-3.63,8.75l-.57-.57c-.43-.42-1.13-.42-1.56.01-.43.43-.43,1.12-.01,1.56l.57.57h0c-2.45,2.12-5.52,3.39-8.75,3.63v-.81h0c0-.3-.11-.59-.31-.8-.21-.21-.5-.34-.8-.34s-.59.12-.8.34c-.21.21-.32.51-.31.81v.81h0c-3.23-.24-6.3-1.52-8.75-3.64l.57-.57h0c.21-.2.34-.49.34-.79,0-.3-.12-.59-.33-.8-.21-.21-.5-.32-.79-.32-.3,0-.58.12-.79.34l-.57.57c-2.12-2.45-3.39-5.52-3.63-8.75h.81,0c.61,0,1.11-.5,1.11-1.11s-.5-1.11-1.11-1.11h-.81,0c.23-3.23,1.51-6.3,3.63-8.75l.57.57c.21.21.49.34.79.34.3,0,.58-.11.79-.32s.33-.5.33-.79c0-.3-.12-.58-.34-.79l-.57-.57h0c2.45-2.12,5.52-3.4,8.75-3.64v.81c.02.6.51,1.08,1.11,1.08s1.09-.48,1.11-1.08v-.81c3.23.24,6.3,1.51,8.75,3.63l-.57.57h0c-.42.43-.42,1.13.01,1.56.43.43,1.12.43,1.56.01l.57-.57c2.12,2.45,3.39,5.52,3.63,8.75h-.81c-.61,0-1.11.5-1.11,1.11s.5,1.11,1.11,1.11h0ZM75.18,86.63c.45-1.25-.12-2.62-1.32-3.19v-8.3c-.02-.6-.51-1.08-1.11-1.08s-1.09.48-1.11,1.08v8.3c-1.09.52-1.67,1.72-1.41,2.9.27,1.18,1.31,2.01,2.52,2.01.29,0,.58-.05.86-.15l4.2,4.2c.44.41,1.12.4,1.55-.02.43-.43.43-1.11.02-1.55l-4.2-4.2ZM72.38,85.77h0c0-.15.09-.28.22-.34.14-.06.29-.03.39.08.1.1.13.26.08.39-.05.14-.19.23-.33.23-.2,0-.36-.16-.36-.36h0ZM51.25,54.24c0,1.53.69,2.98,1.88,3.95,1.18.97,2.74,1.35,4.24,1.04,1.5-.3,2.78-1.27,3.49-2.62.71-1.36.77-2.96.17-4.37l6.34-4.56h0c1.94,1.72,4.86,1.7,6.78-.04,1.92-1.74,2.23-4.64.71-6.74-1.52-2.1-4.37-2.72-6.62-1.45-2.25,1.27-3.18,4.04-2.16,6.42l-6.34,4.56c-1.04-.93-2.43-1.39-3.82-1.27-1.39.12-2.68.8-3.55,1.9l-5.48-2.67c.09-.39.14-.78.14-1.18,0-1.57-.73-3.06-1.97-4.02-1.24-.96-2.86-1.3-4.38-.91-1.52.39-2.78,1.46-3.41,2.9-.63,1.44-.56,3.09.2,4.47l-6.93,6.05c-2.09-1.53-5-1.24-6.75.67-1.75,1.91-1.79,4.84-.07,6.79,1.71,1.95,4.61,2.3,6.73.82,2.13-1.48,2.8-4.33,1.55-6.61l6.93-6.05c2.2,1.62,5.29,1.21,6.99-.93l5.48,2.67c-.09.39-.14.78-.14,1.18h0ZM27.53,62.67c-1.16,0-2.21-.7-2.65-1.77-.45-1.07-.2-2.31.62-3.13.82-.82,2.05-1.07,3.13-.62,1.07.45,1.77,1.49,1.77,2.65,0,1.59-1.29,2.87-2.87,2.87ZM41.94,50.08c-1.16,0-2.21-.7-2.65-1.77-.45-1.07-.2-2.31.62-3.13.82-.82,2.06-1.07,3.13-.62,1.07.44,1.77,1.49,1.77,2.65,0,1.59-1.29,2.87-2.87,2.87h0ZM70.75,41c1.16,0,2.21.7,2.65,1.77.45,1.07.2,2.31-.62,3.13-.82.82-2.06,1.07-3.13.62-1.07-.44-1.77-1.49-1.77-2.65,0-1.59,1.29-2.87,2.87-2.87ZM56.34,51.36c1.16,0,2.21.7,2.66,1.77.45,1.07.2,2.31-.62,3.13-.82.82-2.06,1.07-3.13.62-1.07-.44-1.77-1.49-1.77-2.65,0-1.59,1.29-2.87,2.87-2.87h0ZM20.28,32.58c0-.29.12-.58.32-.79.21-.21.49-.33.79-.32h1.76c.61,0,1.11.5,1.11,1.11s-.5,1.11-1.11,1.11h-1.76c-.29,0-.57-.11-.79-.32s-.32-.49-.32-.79h0ZM26.74,32.58c0-.29.12-.58.32-.79.21-.21.49-.33.79-.32h1.76c.61,0,1.11.5,1.11,1.11s-.5,1.11-1.11,1.11h-1.76c-.29,0-.57-.11-.79-.32-.21-.21-.32-.49-.32-.79h0ZM33.2,32.58c0-.61.5-1.11,1.11-1.11h13.15c.61,0,1.11.5,1.11,1.11s-.5,1.11-1.11,1.11h-13.15c-.61,0-1.11-.5-1.11-1.11h0Z"/>
</svg>