<svg id="Layer_1" enable-background="new 0 0 512 512" viewBox="0 0 512 512" xmlns="http://www.w3.org/2000/svg"><path d="m357.82 105.58c29.85.51 53.63 25.06 53.18 54.91h.03c0 .26-.03.51-.03.77-.45 14.68-6.69 27.86-16.5 37.33-9.92 9.61-23.5 15.42-38.41 15.19v.03c-.26 0-.51-.03-.77-.06-14.68-.43-27.86-6.69-37.33-16.5-20.75-21.46-20.15-55.76 1.33-76.51 9.92-9.61 23.56-15.42 38.5-15.16zm27.95 26.19c-15.42-15.96-40.82-16.38-56.78-.96s-16.36 40.82-.94 56.78c6.94 7.2 17.26 12.22 28.03 12.22v.03c22.25.51 40.93-17.86 40.93-39.34h.03c.26-11.1-4.13-21.36-11.27-28.73zm-34.39-75.09 14.26.26c8.02.14 14.46 6.75 14.31 14.77v5.92c.06.08.17.14.34.2 7.09 2.01 14.03 5.05 20.38 8.87 1.56.94 5.41-8.16 15.05-7.99 3.74.06 7.46 1.53 10.26 4.42l9.89 10.26c5.56 5.75 5.39 15-.37 20.55l-4.17 4.17c-.03.14 0 .28.09.4 3.66 6.58 6.35 13.38 8.16 20.72.43 1.67 9.61-1.96 16.33 4.96 2.58 2.66 4.14 6.32 4.05 10.35l-.23 14.23c-.14 8.05-6.75 14.46-14.8 14.31h-5.92c-.06.06-.14.17-.17.34-2.04 7.09-5.07 14.03-8.87 20.38-.94 1.56 8.16 5.41 7.99 15.08-.06 3.71-1.56 7.43-4.45 10.23l-10.21 9.89c-5.75 5.58-15.02 5.39-20.58-.37l-4.17-4.17c-.11 0-.26.03-.37.08-6.58 3.66-13.41 6.35-20.72 8.16-1.67.43 1.96 9.64-4.99 16.33-2.66 2.58-6.32 4.14-10.32 4.08l-14.14-.25v.03c-7.77 0-14.49-6.55-14.43-14.71h-.03l.03-6.01c-.06-.08-.17-.14-.31-.2-7.09-2.01-14.06-5.07-20.41-8.87l-.74.09-3.88 3.74v.03c-5.53 5.53-14.91 5.58-20.58-.2v.03l-9.92-10.29v.03c-5.53-5.53-5.58-14.91.2-20.58l-.03-.03 4.28-4.22c.03-.14 0-.28-.09-.4-3.63-6.58-6.35-13.41-8.16-20.72-.43-1.67-9.61 1.96-16.33-4.99-2.55-2.66-4.14-6.32-4.05-10.32l.23-14.26c.14-8.02 6.75-14.43 14.8-14.29l5.92-.03c.06-.06.14-.17.17-.31 2.04-7.09 5.07-14.06 8.9-20.41l-.11-.74-3.74-3.88h-.03c-5.53-5.53-5.56-14.91.2-20.58l10.26-9.89-.03-.03c5.56-5.53 14.91-5.56 20.61.2l4.25 4.25c.11.03.26 0 .4-.06 6.58-3.66 13.38-6.35 20.72-8.19 1.67-.43-1.96-9.61 4.96-16.3 2.66-2.57 6.31-4.13 10.31-4.07zm14.06 14.2-14.26-.26c-1.96-.03 1.45 8.31-3.86 14.94-1.93 2.47-4.68 4.25-7.91 5.07-5.98 1.47-11.91 3.83-17.26 6.8-5.84 3.23-12.9 2.18-17.55-2.61l-3.77-3.88v-.03c-.26-.28-.6-.37-.91-.08l-10.15 9.84c-1.76 1.67 6.66 4.22 7.77 13.35.34 3.09-.31 6.29-2.01 9.13-3.2 5.36-5.67 10.97-7.4 17.06-1.81 6.35-7.63 10.66-14.23 10.54-1.67-.03-6.15-.6-6.18.48l-.23 14.26c-.03 1.96 8.31-1.45 14.94 3.83 2.44 1.96 4.25 4.68 5.05 7.91 1.5 5.98 3.86 11.93 6.83 17.29 3.23 5.84 2.18 12.9-2.64 17.52l-3.86 3.77h-.03c-.28.28-.4.62-.09.94l9.84 10.12-.03.03c.28.28.62.37.94.08 3.97-3.85 6.69-7.23 12.44-7.88 3.09-.34 6.26.31 9.13 2.01 5.33 3.23 10.97 5.67 17.06 7.4 6.35 1.84 10.66 7.63 10.54 14.26l-.09 5.41h-.03l.48.71 14.34.28c1.96.03-1.45-8.31 3.86-14.97 1.93-2.44 4.68-4.25 7.91-5.05 5.98-1.5 11.91-3.83 17.26-6.8 5.84-3.26 12.93-2.18 17.55 2.61.57.6 3.74 4.14 4.25 4.17.14 0 .31-.06.43-.2l10.26-9.89c1.36-1.33-6.92-4.82-7.88-13.27-.34-3.09.31-6.29 2.01-9.13 3.2-5.36 5.67-10.97 7.4-17.06 1.81-6.38 7.63-10.66 14.26-10.54 1.64.03 6.12.57 6.15-.48l.23-14.26c.03-1.96-8.31 1.45-14.94-3.83-2.44-1.96-4.25-4.68-5.05-7.94-1.5-5.98-3.86-11.91-6.83-17.26-3.23-5.84-2.18-12.9 2.64-17.55.57-.57 4.14-3.74 4.14-4.22 0-.17-.06-.34-.17-.45l-9.89-10.26c-1.33-1.36-4.65 6.8-13.27 7.88-3.09.37-6.29-.28-9.16-2.01-5.33-3.2-10.97-5.64-17.04-7.4-6.38-1.81-10.69-7.6-10.57-14.23.06-1.64.63-6.15-.42-6.15zm-69.79 328.59 9.52 17.15c1.87 3.37.65 7.63-2.72 9.5-3.34 1.87-7.6.65-9.47-2.72l-3.37-6.07c-24.92 43.23-71.35 70.16-122.23 69.31-76.37-1.3-137.08-64.23-135.84-140.57.06-3.85 3.23-6.92 7.09-6.86s6.92 3.23 6.86 7.09c-1.13 68.6 53.46 125.21 122.12 126.4 46.18.77 88.27-23.92 110.49-63.38l-8.84-.17c-3.86-.06-6.92-3.23-6.86-7.06.06-3.86 3.23-6.95 7.09-6.89l19.53.34c2.89-.03 5.39 1.33 6.63 3.93zm-239.27-102.01 9.84.17c3.86.06 6.94 3.23 6.86 7.09-.06 3.85-3.23 6.92-7.06 6.86l-19.45-.34c-3.09.08-5.39-1.25-6.8-4.05l-9.47-17.04c-1.87-3.34-.65-7.6 2.72-9.47s7.6-.68 9.47 2.69l2.75 4.93c23.27-48.1 72.4-78.97 126.85-78.09 3.86.06 6.94 3.23 6.89 7.09-.09 3.86-3.23 6.92-7.09 6.86-50.17-.83-95.27 28.31-115.51 73.3zm424.29-189.22c-1.08 1.81-2.64 2.55-4.39 3.37-1.98.94-4.2.85-6.04-.06l-15.68-.28c-3.86-.06-6.92-3.23-6.86-7.06.06-3.85 3.23-6.94 7.09-6.89l6.49.11c-40.9-68.71-135.38-81.78-193.24-25.85-22.88 22.08-37.3 52.89-37.9 87.19-1.73 101.28 79.57 84.44 77.81 191.99-.06 3.85-3.23 6.92-7.09 6.86s-6.92-3.23-6.86-7.09c1.64-100.29-79.65-83.57-77.81-191.96 1.3-76.34 64.23-137.17 140.57-135.86 49.15.85 93.32 27.44 117.44 69.19l4.79-7.99c1.98-3.32 6.26-4.39 9.55-2.41 3.32 1.98 4.39 6.26 2.41 9.58zm-135.13 186.1c-.62-1.93-.4-4.05.68-5.81l10.26-17.09c1.98-3.32 6.26-4.39 9.58-2.41 3.29 1.98 4.37 6.26 2.38 9.58l-3.71 6.18c63.18-5.19 112.9-57.69 113.95-121.72.06-3.85 3.23-6.92 7.09-6.86 3.83.06 6.92 3.23 6.86 7.09-1.19 72-57.54 130.76-128.78 135.55l4.11 7.43c1.87 3.37.68 7.63-2.69 9.5s-7.63.65-9.5-2.72c-1.38-2.54-9.75-17.31-10.23-18.72zm-170.33-.48c29.59.85 53.04 25.34 52.53 54.99-.51 29.88-25.11 53.69-55.02 53.18-29.85-.51-53.63-25.06-53.18-54.91h-.03c0-.26.03-.51.06-.77.43-14.68 6.66-27.86 16.47-37.36 9.92-9.58 23.5-15.39 38.41-15.17v-.03c.25.01.5.04.76.07zm27.3 26.16c-6.97-7.2-17.29-12.22-28.06-12.22v-.03c-22.25-.51-40.93 17.86-40.93 39.34h-.03c-.51 22.05 17.21 40.56 39.46 40.96 22.14.37 40.48-17.29 40.85-39.46.19-11.07-4.15-21.19-11.29-28.59zm-34.39-75.09 14.26.26c8.02.14 14.43 6.75 14.31 14.77v5.92c.06.08.17.14.31.2 7.09 2.01 14.06 5.07 20.41 8.87 1.53.94 5.41-8.16 15.05-7.99 3.74.06 7.46 1.53 10.23 4.42l9.92 10.26c5.56 5.75 5.39 15-.37 20.58l-4.17 4.14c-.03.14 0 .28.06.4 3.66 6.58 6.38 13.38 8.19 20.72.43 1.67 9.61-1.96 16.3 4.96 2.58 2.66 4.14 6.35 4.08 10.35l-.26 14.26c-.11 8.02-6.72 14.43-14.77 14.29l-5.92.03c-.06.06-.14.14-.17.31-2.04 7.12-5.07 14.03-8.9 20.41-.91 1.53 8.16 5.39 8.02 15.05-.09 3.74-1.56 7.46-4.45 10.23l-10.23 9.92c-5.78 5.56-15.02 5.36-20.58-.4l-4.17-4.14c-.14-.03-.26 0-.4.06-6.58 3.66-13.38 6.35-20.72 8.19-1.67.4 1.96 9.61-4.96 16.3-2.66 2.58-6.32 4.14-10.35 4.08l-14.12-.26v.03c-7.77 0-14.51-6.55-14.43-14.68h-.03l.03-6.04c-.06-.08-.17-.14-.34-.2-7.06-2.01-14.06-5.05-20.38-8.87l-.74.08-3.88 3.77c-5.53 5.53-14.91 5.58-20.58-.2l-.03.03-9.89-10.26c-5.53-5.53-5.58-14.91.2-20.58l-.03-.03 4.28-4.22c0-.14 0-.28-.09-.4-3.63-6.58-6.35-13.41-8.16-20.72l-.54-.43-5.44-.08v.03c-7.77 0-14.49-6.55-14.4-14.71h-.03l.26-14.37c.14-8.02 6.75-14.43 14.8-14.29h5.92c.06-.06.14-.17.17-.34 2.01-7.09 5.07-14.06 8.87-20.38l-.09-.74-3.74-3.91-.03.03c-5.53-5.53-5.56-14.91.2-20.61l10.35-9.98c5.75-5.58 15.02-5.39 20.58.37l4.17 4.14c.11.03.26 0 .37-.06 6.6-3.66 13.41-6.35 20.72-8.19 1.67-.4-1.96-9.61 4.99-16.3 2.69-2.58 6.34-4.14 10.34-4.08zm14.03 14.2-14.23-.26c-1.96-.03 1.45 8.31-3.86 14.97-1.93 2.44-4.68 4.22-7.91 5.05-5.98 1.5-11.93 3.83-17.26 6.8-5.84 3.26-12.93 2.18-17.55-2.61-.57-.6-3.74-4.14-4.25-4.17-.14 0-.31.06-.43.2l-10.15 9.81h-.03l-.17.82 3.94 4.08c4.62 4.76 5.44 11.88 2.01 17.57-3.23 5.36-5.67 10.97-7.4 17.06-1.81 6.38-7.63 10.66-14.26 10.54-1.64-.03-6.12-.57-6.15.48l-.2 14.14h-.03l.45.71 5.64.11c6.69.11 12.27 4.56 13.89 11.03 1.5 5.98 3.86 11.93 6.8 17.29 3.26 5.84 2.18 12.9-2.61 17.55l-3.88 3.77v-.03c-.28.28-.4.62-.09.94l9.81 10.15c.28.31.62.37.94.08 3.97-3.86 6.69-7.2 12.42-7.85 3.03-.4 6.35.31 9.16 2.01 5.33 3.2 10.94 5.64 17.04 7.4 6.38 1.81 10.66 7.6 10.54 14.23l-.06 5.44h-.03l.48.71 14.34.26c1.96.03-1.45-8.31 3.86-14.94 1.93-2.47 4.68-4.25 7.91-5.07 5.98-1.47 11.91-3.83 17.26-6.8 5.84-3.23 12.9-2.18 17.55 2.61.57.6 3.74 4.17 4.25 4.17.14 0 .31-.06.43-.17l10.26-9.92c1.36-1.3-6.92-4.82-7.88-13.27-.37-3.09.31-6.29 2.01-9.13 3.2-5.36 5.67-10.97 7.4-17.06 1.81-6.38 7.63-10.66 14.23-10.54 1.67.03 6.15.57 6.18-.48l.23-14.26c.03-1.96-8.31 1.45-14.94-3.83-2.44-1.96-4.25-4.68-5.05-7.91-1.5-5.98-3.86-11.93-6.83-17.29-3.23-5.84-2.18-12.9 2.61-17.52.6-.57 4.17-3.74 4.17-4.25 0-.17-.06-.31-.17-.45l-9.92-10.23c-1.3-1.39-4.62 6.77-13.27 7.88-3.09.34-6.26-.31-9.13-2.01-5.33-3.23-10.97-5.67-17.06-7.43-6.35-1.81-10.66-7.6-10.54-14.23.04-1.64.61-6.12-.47-6.15z"/></svg>