<?xml version="1.0" encoding="UTF-8"?>
<svg id="Layer_1" xmlns="http://www.w3.org/2000/svg" version="1.1" viewBox="0 0 110 135">
  <!-- Generator: Adobe Illustrator 29.8.2, SVG Export Plug-In . SVG Version: 2.1.1 Build 3)  -->
  <defs>
    <style>
      .st0 {
        stroke: #000;
        stroke-miterlimit: 10;
        stroke-width: .5px;
      }
    </style>
  </defs>
  <path class="st0" d="M29.5,87h5.89c.69,0,1.25-.56,1.25-1.25v-12.25c0-.69-.56-1.25-1.25-1.25h-5.89c-.69,0-1.25.56-1.25,1.25,0,0,0,0,0,0v12.25c0,.69.56,1.25,1.25,1.25,0,0,0,0,0,0ZM30.75,74.76h3.39v9.74h-3.4v-9.74ZM40.73,61.95c-.69,0-1.25.56-1.25,1.25v22.55c0,.69.56,1.25,1.25,1.25h5.89c.69,0,1.25-.56,1.25-1.25v-22.55c0-.69-.56-1.25-1.25-1.25h-5.89ZM45.37,84.5h-3.39v-20.06h3.39v20.06ZM57.85,68.12h-5.89c-.69,0-1.25.56-1.25,1.25v16.38c0,.69.56,1.25,1.25,1.25h5.89c.69,0,1.25-.56,1.25-1.25v-16.38c0-.69-.56-1.25-1.25-1.25h0ZM56.6,84.5h-3.39v-13.89h3.39v13.89ZM52.79,91.79c0,.69-.56,1.25-1.25,1.25h-22.04c-.69,0-1.25-.56-1.25-1.25s.56-1.25,1.25-1.25h22.04c.69,0,1.25.56,1.25,1.25h0ZM46.4,59.62c7.48,0,13.54-6.06,13.54-13.53,0-7.48-6.06-13.54-13.53-13.54s-13.54,6.06-13.54,13.53h0c0,7.48,6.06,13.53,13.53,13.54ZM46.4,57.12c-3.45,0-6.7-1.61-8.78-4.36,3.69-4.85,10.62-5.79,15.47-2.1.79.6,1.49,1.31,2.1,2.1-2.08,2.75-5.33,4.36-8.78,4.36ZM46.4,35.05c6.1,0,11.04,4.94,11.04,11.03,0,1.51-.31,3-.91,4.39-4.96-5.59-13.52-6.11-19.11-1.15-.41.36-.79.74-1.15,1.15-2.42-5.59.15-12.09,5.74-14.51,1.39-.6,2.88-.91,4.39-.91ZM46.4,45.46c2.54,0,4.6-2.06,4.6-4.6s-2.06-4.6-4.6-4.6c-2.54,0-4.6,2.06-4.6,4.6h0c0,2.54,2.06,4.6,4.6,4.6ZM46.4,38.77c1.16,0,2.1.94,2.1,2.1s-.94,2.1-2.1,2.1c-1.16,0-2.1-.94-2.1-2.1h0c0-1.16.94-2.1,2.1-2.1ZM74.9,85.65c-5.03,0-9.11,4.08-9.11,9.11s4.08,9.11,9.11,9.11,9.11-4.08,9.11-9.11h0c0-5.03-4.08-9.1-9.1-9.11h0ZM74.9,101.36c-3.65,0-6.61-2.96-6.61-6.61,0-3.65,2.96-6.61,6.61-6.61,3.65,0,6.61,2.96,6.61,6.61,0,3.65-2.96,6.6-6.6,6.61h0ZM91.57,91.24l-3.24-.44c-.28-.95-.66-1.87-1.14-2.75l1.97-2.61c.38-.5.33-1.2-.11-1.64l-3.21-3.21c-.44-.44-1.14-.49-1.64-.11l-2.61,1.97c-.12-.07-.25-.13-.38-.19V23.75c0-.69-.56-1.25-1.25-1.25H31.38s-.08,0-.12,0c-.02,0-.04,0-.06,0h-.06s-.07.02-.07.02h-.05s-.04.03-.07.04-.03.01-.05.02-.04.02-.06.03l-.05.02s-.04.02-.06.04-.03.02-.04.03-.05.04-.08.06l-.02.02s-.07.06-.1.09l-12.78,12.78s-.06.06-.09.09l-.02.03s-.03.04-.05.07-.02.03-.03.05-.02.04-.03.06-.02.03-.02.05-.02.04-.03.06-.01.03-.02.05-.02.04-.02.06c0,.02-.01.04-.01.06,0,.02-.01.04-.02.06s0,.04-.01.06,0,.04,0,.06c0,.04,0,.08,0,.12v63.67c0,.69.56,1.25,1.25,1.25h44.01l-1.97,2.6c-.38.5-.33,1.2.11,1.64l3.21,3.21c.44.44,1.14.49,1.64.11l2.61-1.97c.87.48,1.79.86,2.74,1.14l.45,3.24c.09.62.62,1.07,1.24,1.07h4.54c.62,0,1.15-.46,1.24-1.08l.45-3.24c.95-.28,1.87-.66,2.74-1.14l2.61,1.97c.5.38,1.2.33,1.64-.11l3.22-3.21c.44-.44.49-1.14.11-1.64l-1.97-2.61c.48-.87.86-1.79,1.14-2.74l3.24-.45c.62-.09,1.08-.61,1.08-1.24v-4.54c0-.62-.46-1.15-1.08-1.24ZM30.13,26.77v8.52h-8.52l8.52-8.52ZM19.85,37.79h11.54c.69,0,1.25-.56,1.25-1.25v-11.54h46.09v55.33l-.31-2.25c-.09-.62-.61-1.08-1.24-1.08h-4.54c-.62,0-1.15.46-1.23,1.08l-.45,3.24c-.21.06-.42.13-.62.2v-30.84c0-.69-.56-1.25-1.25-1.25h-5.9c-.69,0-1.25.56-1.25,1.25v31.95l-1.19,1.18c-.44.44-.49,1.14-.11,1.64l1.97,2.61c-.48.87-.86,1.79-1.14,2.75l-3.24.45c-.62.08-1.08.61-1.08,1.24v4.54c0,.62.46,1.15,1.08,1.24l3.24.45c.02.08.05.17.08.25H19.85v-61.17ZM67.83,82.17l-2.23-1.68c-.33-.25-.77-.32-1.17-.18v-28.38h3.39v30.24ZM90.15,95.93l-2.99.41c-.52.07-.93.45-1.05.96-.29,1.26-.79,2.47-1.48,3.57-.28.44-.25,1.01.06,1.42l1.82,2.4-1.67,1.68-2.4-1.82c-.41-.31-.98-.34-1.42-.06-1.1.69-2.3,1.19-3.56,1.48-.51.12-.89.53-.96,1.05l-.42,2.99h-2.37l-.41-2.99c-.07-.52-.45-.93-.96-1.05-1.26-.29-2.47-.79-3.56-1.48-.44-.28-1.01-.25-1.42.06l-2.4,1.82-1.68-1.67,1.82-2.4c.31-.41.34-.98.06-1.42-.69-1.1-1.19-2.3-1.48-3.57-.12-.51-.53-.89-1.05-.96l-2.99-.41v-2.37l2.99-.41c.52-.07.93-.45,1.05-.96.29-1.26.79-2.47,1.48-3.56.28-.44.25-1.01-.06-1.42l-1.82-2.4.78-.78h0s.89-.89.89-.89l2.4,1.82c.42.31.98.34,1.42.06,1.1-.69,2.3-1.19,3.56-1.48.51-.11.89-.53.96-1.05l.41-2.99h2.37l.41,2.99c.07.52.45.93.96,1.05,1.26.29,2.47.79,3.56,1.48.44.28,1.01.25,1.42-.06l2.4-1.82,1.67,1.67-1.81,2.4c-.31.41-.34.98-.06,1.42.69,1.1,1.19,2.3,1.48,3.57.12.51.53.89,1.05.96l2.99.41v2.36ZM79.07,91.85c.49.49.49,1.28,0,1.77h0s-4.03,4.03-4.03,4.03c-.49.49-1.28.49-1.77,0l-2.54-2.54c-.49-.49-.49-1.28,0-1.77s1.28-.49,1.77,0l1.65,1.65,3.15-3.15c.49-.49,1.28-.49,1.77,0h0Z"/>
</svg>