<?xml version="1.0" encoding="UTF-8"?>
<svg id="Layer_1" xmlns="http://www.w3.org/2000/svg" version="1.1" viewBox="0 0 110 135">
  <!-- Generator: Adobe Illustrator 29.8.2, SVG Export Plug-In . SVG Version: 2.1.1 Build 3)  -->
  <defs>
    <style>
      .st0 {
        fill-rule: evenodd;
        stroke: #000;
        stroke-miterlimit: 10;
      }
    </style>
  </defs>
  <path class="st0" d="M12.32,75.95h21.24c.64,0,1.21.26,1.63.68h0c.42.43.68,1,.68,1.64v21.24c0,.63-.26,1.21-.68,1.63h0c-.42.43-1,.68-1.63.68H12.32c-.64,0-1.22-.25-1.64-.67-.42-.42-.68-1-.68-1.64v-21.24c0-.64.26-1.22.68-1.64.03-.03.06-.06.09-.09.41-.37.95-.6,1.55-.6h0ZM21.37,78.34v5.36h3.14v-5.36h-3.14ZM26.9,78.34v6.55c0,.66-.54,1.2-1.2,1.2-.04,0-.07,0-.11,0h-5.43c-.66,0-1.19-.54-1.19-1.19h0v-6.55h-6.58v21.09h21.09v-21.09h-6.58ZM76.44,75.95h21.24c.64,0,1.21.26,1.63.68h0s0,0,0,0c.42.42.68,1,.68,1.64v21.24c0,.64-.26,1.21-.68,1.63h0c-.42.43-1,.68-1.63.68h-21.24c-.64,0-1.21-.26-1.63-.68h0c-.42-.43-.68-1-.68-1.64v-21.24c0-.64.26-1.22.68-1.64.03-.03.06-.06.09-.09.41-.37.95-.6,1.55-.6h0ZM85.49,78.34v5.36h3.14v-5.36h-3.14ZM91.02,78.34v6.55c0,.66-.54,1.2-1.2,1.2-.04,0-.07,0-.11,0h-5.43c-.66,0-1.19-.54-1.19-1.19h0v-6.55h-6.58v21.09h21.09v-21.09h-6.58ZM59.46,59.65c-.47-.2-.95-.36-1.45-.49h0c-.51-.14-.88-.61-.88-1.16v-.85h0,0c0-.22-.09-.43-.24-.58-.15-.15-.35-.24-.57-.24h0s0,0,0,0h-2.58s0,0,0,0h0c-.22,0-.43.09-.58.24-.15.15-.24.35-.24.57h0,0v.78c.03.55-.33,1.08-.89,1.23-.5.13-.98.3-1.45.49-.46.19-.93.42-1.37.68-.46.27-1.05.2-1.45-.19l-.6-.6c-.16-.16-.37-.24-.57-.24s-.42.08-.58.24l-1.82,1.82c-.16.16-.24.37-.24.57s.08.42.24.58l.57.57c.4.37.5.98.22,1.47-.26.44-.48.9-.68,1.38-.2.47-.36.95-.49,1.45h0c-.14.51-.6.88-1.15.88h-.85s0,0,0,0c-.22,0-.43.09-.58.24-.15.15-.24.35-.24.57h0,0v2.58s0,0,0,0h0c0,.22.09.43.24.58.15.15.35.24.57.24h0s0,0,0,0h.78c.55-.03,1.08.33,1.23.89.13.5.3.98.49,1.45.19.46.42.93.68,1.37.27.46.2,1.05-.19,1.45l-.6.6c-.16.16-.24.37-.24.57s.08.42.24.58l1.82,1.82c.16.16.37.24.57.24s.42-.08.58-.24l.57-.57c.37-.4.98-.5,1.47-.22.44.26.9.48,1.38.68.47.2.95.36,1.45.49h0c.51.14.88.61.88,1.16v.85h0,0c0,.22.09.43.24.58.15.15.35.24.57.24h0s0,0,0,0h2.58s0,0,0,0h0c.22,0,.43-.09.58-.24.15-.15.24-.35.24-.57h0,0v-.78c-.03-.55.33-1.08.89-1.23.5-.13.98-.3,1.45-.49.46-.19.93-.42,1.37-.68.46-.27,1.05-.2,1.45.19l.6.6c.16.16.37.24.57.24s.42-.08.58-.24l1.82-1.82c.16-.16.24-.37.24-.57s-.08-.42-.24-.58l-.57-.57c-.4-.37-.5-.98-.22-1.47.26-.44.48-.9.68-1.38.2-.47.36-.95.49-1.45h0c.14-.51.6-.88,1.15-.88h.85s0,0,0,0c.22,0,.43-.09.58-.24.15-.15.24-.35.24-.57h0,0v-2.58s0,0,0,0h0c0-.22-.09-.43-.24-.58-.15-.15-.35-.24-.57-.24h0s0,0,0,0h-.78c-.55.03-1.08-.33-1.23-.89-.13-.5-.3-.98-.49-1.45-.19-.46-.42-.93-.68-1.37-.27-.46-.2-1.05.19-1.45l.6-.6c.16-.16.24-.37.24-.57s-.08-.42-.24-.58l-1.82-1.82c-.16-.16-.37-.24-.57-.24s-.42.08-.58.24l-.57.57c-.37.4-.98.5-1.47.22-.44-.26-.9-.48-1.38-.68h0ZM59.51,57.12c.29.1.58.21.86.33.29.12.56.25.84.38.62-.61,1.43-.91,2.24-.91s1.64.31,2.27.94l1.82,1.82c.62.62.93,1.45.93,2.27s-.3,1.62-.91,2.24c.14.27.26.56.38.84.12.29.23.57.32.86.87.01,1.66.37,2.23.94.58.58.94,1.38.93,2.26h0,0v2.58s0,0,0,0h0c0,.89-.36,1.69-.94,2.27-.57.57-1.36.93-2.22.93-.1.29-.21.58-.32.86-.12.29-.25.56-.38.84.61.62.91,1.43.91,2.24s-.31,1.64-.94,2.27l-1.82,1.82c-.62.62-1.45.93-2.27.93s-1.62-.3-2.24-.91c-.27.14-.56.26-.84.38-.29.12-.57.23-.86.32-.01.87-.37,1.66-.94,2.23-.58.58-1.38.94-2.27.93h0s0,0,0,0h-2.58s0,0,0,0h0c-.89,0-1.69-.37-2.27-.95-.57-.57-.93-1.36-.93-2.22-.29-.1-.58-.21-.86-.33-.29-.12-.56-.25-.84-.38-.62.61-1.43.91-2.24.91s-1.64-.31-2.27-.94l-1.82-1.82c-.62-.62-.93-1.45-.93-2.27s.3-1.62.91-2.24c-.14-.28-.26-.56-.38-.84-.12-.29-.23-.57-.32-.86-.87-.01-1.66-.37-2.23-.94-.58-.58-.94-1.38-.93-2.27h0,0v-2.58s0,0,0,0h0c0-.89.36-1.69.94-2.27.57-.57,1.36-.93,2.22-.93.1-.29.21-.58.32-.86.12-.29.25-.56.38-.84-.61-.62-.91-1.43-.91-2.24s.31-1.64.94-2.27l1.82-1.82c.62-.62,1.45-.93,2.27-.93s1.62.3,2.24.91c.27-.14.56-.26.84-.38.29-.12.57-.23.86-.32.01-.87.37-1.66.94-2.23.58-.58,1.38-.94,2.26-.93h0s0,0,0,0h2.58s0,0,0,0h0c.89,0,1.69.37,2.27.95.57.57.93,1.36.93,2.22h0ZM55,65.58c1.32,0,2.52.54,3.39,1.41.87.87,1.41,2.07,1.4,3.39h0,0c0,1.32-.54,2.52-1.41,3.39-.87.87-2.07,1.41-3.39,1.4h0s0,0,0,0c-1.32,0-2.52-.54-3.39-1.41-.87-.87-1.41-2.07-1.4-3.39h0,0c0-1.32.54-2.52,1.41-3.39.87-.87,2.07-1.41,3.39-1.4h0s0,0,0,0ZM55,63.19h0c1.98,0,3.78.81,5.08,2.11,1.3,1.3,2.1,3.1,2.1,5.08h0,0c0,1.98-.81,3.78-2.11,5.08-1.3,1.3-3.1,2.1-5.08,2.1h0s0,0,0,0c-1.98,0-3.78-.81-5.08-2.11s-2.1-3.1-2.1-5.08h0,0c0-1.98.81-3.78,2.11-5.08,1.3-1.3,3.1-2.1,5.08-2.1h0ZM44.38,24.41h21.24c.64,0,1.21.26,1.63.68h0c.42.43.68,1,.68,1.64v21.24c0,.63-.26,1.21-.68,1.63h0c-.42.43-1,.68-1.63.68h-21.24c-.63,0-1.21-.26-1.63-.68h0c-.42-.43-.68-1.01-.68-1.64v-21.23c0-.64.26-1.22.68-1.64.03-.03.06-.06.09-.09.41-.37.95-.6,1.55-.6h0ZM53.43,26.8v5.36h3.14v-5.36h-3.14ZM58.96,26.8v6.55c0,.66-.54,1.2-1.2,1.2-.04,0-.07,0-.11,0h-5.43c-.66,0-1.19-.54-1.19-1.19h0v-6.55h-6.58v21.09h21.09v-21.09h-6.59,0ZM46.66,108.8c.33.57.14,1.3-.43,1.63-.57.33-1.3.14-1.63-.43l-2.68-4.61c-.33-.57-.14-1.3.43-1.63l4.61-2.68c.57-.33,1.3-.14,1.63.43.33.57.14,1.3-.43,1.63l-2.25,1.3c1.03.27,2.09.5,3.15.68,1.92.32,3.9.49,5.93.49s4.01-.17,5.93-.49c1.97-.33,3.89-.83,5.73-1.47.62-.22,1.3.11,1.52.73.22.62-.11,1.3-.73,1.52-1.97.69-4.02,1.22-6.12,1.57-2.06.35-4.18.53-6.32.53s-4.25-.18-6.32-.53c-1.07-.18-2.13-.41-3.17-.68l1.15,1.99h0ZM92.44,58.38c.33-.57,1.06-.77,1.63-.44.57.33.77,1.06.44,1.63l-2.64,4.6c-.16.3-.46.54-.83.61-.33.06-.65-.02-.91-.2l-4.52-2.6c-.57-.33-.77-1.06-.44-1.63.33-.57,1.06-.77,1.63-.44l2.25,1.3c-.8-2.99-1.99-5.82-3.5-8.44-2-3.45-4.56-6.54-7.56-9.12-.5-.43-.55-1.19-.12-1.68.43-.5,1.19-.55,1.68-.12,3.2,2.76,5.94,6.05,8.06,9.73,1.58,2.73,2.83,5.69,3.68,8.8l1.14-1.99ZM25.89,43.95c-.66,0-1.19-.54-1.19-1.19s.54-1.19,1.19-1.19h5.33c.18-.01.34.03.5.1.16.07.3.17.41.31.23.27.32.61.28.93v5.18c0,.66-.53,1.19-1.18,1.19s-1.19-.54-1.19-1.19v-2.59c-2.16,2.17-4.04,4.61-5.59,7.28-1.95,3.37-3.35,7.1-4.1,11.06-.12.65-.75,1.07-1.39.95-.65-.12-1.07-.75-.95-1.39.8-4.23,2.3-8.21,4.38-11.81,1.61-2.79,3.57-5.36,5.82-7.63h-2.32Z"/>
</svg>