<?xml version="1.0" encoding="UTF-8"?>
<svg id="Layer_1" xmlns="http://www.w3.org/2000/svg" version="1.1" viewBox="0 0 110 135">
  <!-- Generator: Adobe Illustrator 29.8.2, SVG Export Plug-In . SVG Version: 2.1.1 Build 3)  -->
  <defs>
    <style>
      .st0 {
        stroke: #000;
        stroke-miterlimit: 10;
      }
    </style>
  </defs>
  <path class="st0" d="M54.16,53.05c-.61,0-1.1.49-1.1,1.11v39.88c0,.61.49,1.1,1.1,1.1h9.12c.61,0,1.1-.49,1.1-1.1v-39.88c0-.61-.49-1.11-1.1-1.11h-9.12ZM62.17,92.93h-6.91v-37.67h6.91v37.67ZM17.97,95.13h9.12c.61,0,1.1-.49,1.1-1.1v-21.09c0-.61-.49-1.1-1.1-1.1h-9.12c-.61,0-1.1.49-1.1,1.1v21.09c0,.61.49,1.1,1.1,1.1ZM19.08,74.05h6.91v18.88h-6.91v-18.88ZM36.08,63.59c-.61,0-1.1.49-1.1,1.1v29.34c0,.61.49,1.1,1.1,1.1h9.12c.61,0,1.1-.49,1.1-1.1v-29.34c0-.61-.49-1.1-1.1-1.1h-9.12ZM44.09,92.93h-6.91v-27.14h6.92v27.14ZM84.99,77.81c-.22-.56-.86-.84-1.42-.62l-1.09.42v-36.29c0-.61-.49-1.11-1.1-1.11h-9.12c-.61,0-1.1.49-1.1,1.11v48.93l-5.33,2.11c-1.06.44-1.58,1.64-1.16,2.74l.14.36-.8.31c-.82.34-1.21,1.29-.88,2.09l.79,1.97H12.2s0-76.23,0-76.23c0-.61-.49-1.11-1.1-1.11s-1.11.49-1.11,1.11v77.34c0,.61.49,1.1,1.1,1.1h53.76c.17.23.4.41.67.52.2.09.41.12.62.12s.4-.04.59-.12l.79-.31.14.34c.3.8,1.1,1.34,1.98,1.34.2,0,.4-.04.61-.1l3.69,7.05c.51,1.02,1.55,1.6,2.66,1.6.41,0,.84-.08,1.25-.25l1.79-.7c.53-.22.95-.66,1.17-1.23.01-.02.02-.05.02-.07.18-.57.1-1.17-.19-1.66l-3.86-7.34,1.4-.56,10.77,1.56c.5.72,1.31,1.16,2.22,1.16.36,0,.7-.07,1.03-.2l1.51-.61c.56-.23.84-.87.61-1.43l-9.33-23.37ZM78.84,98.56l-3.27-8.19,5.69-7.21,6.67,16.72-9.09-1.32ZM73.36,42.42h6.91v38.43l-6.64,8.43-.27.11v-46.96s0,0,0,0ZM66.48,100.31l-1.08-2.71.23-.09,1.08,2.71-.23.09ZM69.21,100.53s-.02-.07-.03-.1c-.02-.04-.04-.07-.05-.11l-1.83-4.57s-.01-.05-.02-.07c-.01-.03-.03-.05-.04-.08l-.49-1.23,5.86-2.33s.08-.03.12-.05l.96-.38,2.93,7.33-6.93,2.78-.48-1.19ZM78.67,109.56l-1.64.64c-.4.16-.93.1-1.14-.31l-3.58-6.85,2.42-.97,3.94,7.49ZM91.37,101.18c-.27.11-.57-.02-.68-.3l-8.13-20.39c-.06-.15-.03-.28,0-.37.03-.08.12-.23.29-.3l.5-.19,8.52,21.34-.5.2ZM86.71,79.45c-.48-.38-.57-1.06-.19-1.55l2.03-2.61c.37-.48,1.07-.57,1.55-.2.48.38.57,1.06.2,1.55l-2.03,2.61c-.22.28-.54.43-.87.43-.24,0-.48-.07-.68-.23h0ZM93.35,87l3.07-1.23c.56-.23,1.21.05,1.43.61.23.56-.05,1.2-.61,1.43l-3.07,1.23c-.14.05-.27.08-.41.08-.44,0-.85-.26-1.02-.69-.23-.57.04-1.21.61-1.43h0ZM99.99,99.91c-.08.55-.55.94-1.09.94-.05,0-.11,0-.16-.01l-3.26-.48c-.6-.09-1.02-.64-.93-1.25.09-.61.65-1.02,1.25-.93l3.26.48c.6.09,1.02.65.93,1.25h0ZM90.82,82.87c-.37-.48-.27-1.18.22-1.54l1.84-1.39c.48-.36,1.18-.27,1.54.22.37.48.27,1.18-.22,1.54l-1.84,1.38c-.2.15-.43.22-.66.22-.34,0-.67-.15-.88-.44h0ZM96.13,92.57l2.29-.28c.61-.08,1.15.36,1.23.96s-.36,1.15-.96,1.23l-2.29.28s-.09.01-.14.01c-.55,0-1.02-.41-1.09-.97-.07-.61.36-1.16.96-1.23h0ZM18.23,45.01h21.88c.61,0,1.1-.49,1.1-1.1v-16.29s0-.02,0-.04c0-.06,0-.12-.02-.18,0-.05-.02-.09-.04-.13,0-.02-.02-.05-.02-.08-.03-.07-.06-.14-.11-.2l-2.7-4.02c-.2-.3-.55-.49-.91-.49h-16.48c-.37,0-.71.18-.91.49l-2.7,4.02c-.04.06-.07.13-.11.2-.01.02-.02.05-.02.08-.02.04-.03.08-.04.13-.01.06-.02.12-.02.18,0,.01,0,.02,0,.04v16.29c0,.61.5,1.1,1.1,1.1h0ZM39.02,42.81h-19.68v-14.09h19.68v14.09ZM21.52,24.7h15.31l1.22,1.81h-17.75s1.22-1.81,1.22-1.81ZM27,36.07h4.34c1.25,0,2.31-1.06,2.31-2.31s-1.06-2.34-2.31-2.34h-4.34c-1.27,0-2.31,1.05-2.31,2.34s1.04,2.31,2.31,2.31ZM27,33.63h4.34s.11.06.11.13c0,.04-.07.11-.11.11h-4.34c-.06,0-.11-.06-.11-.11,0-.07.05-.13.11-.13ZM74.3,28.5l-2.05.13c-.59.04-1.13-.42-1.17-1.03-.04-.61.42-1.13,1.03-1.17l4.64-.3c.11,0,.22.01.33.04.03,0,.05.01.08.02.11.04.22.09.31.16.02.01.03.01.05.02,0,0,.01.02.02.02.1.08.18.18.24.3,0,.01.02.02.02.04.06.11.09.23.11.36,0,.02,0,.03,0,.04,0,.01,0,.02,0,.02l.3,4.64c.04.61-.42,1.13-1.03,1.17-.02,0-.05,0-.07,0-.57,0-1.06-.45-1.1-1.03l-.12-1.93c-13.75,15.76-32.53,26.36-53.18,29.93-.06.01-.13.02-.19.02-.52,0-.99-.38-1.09-.91-.11-.6.3-1.17.9-1.27,20.18-3.5,38.53-13.86,51.95-29.27h0Z"/>
</svg>