<?xml version="1.0" encoding="UTF-8"?>
<svg xmlns="http://www.w3.org/2000/svg" id="Layer_1" data-name="Layer 1" viewBox="0 0 64 64" width="512" height="512"><path d="M60,29a3,3,0,0,0-2.816,2H51v2h6.184A2.995,2.995,0,1,0,60,29Zm0,4a1,1,0,1,1,1-1A1,1,0,0,1,60,33Z"/><path d="M50,25v2h4a1,1,0,0,0,.8-.4l1.312-1.749A2.968,2.968,0,0,0,57,25a3.007,3.007,0,1,0-2.495-1.339L53.5,25Zm7-4a1,1,0,1,1-1,1A1,1,0,0,1,57,21Z"/><path d="M57,39a2.968,2.968,0,0,0-.888.149L54.8,37.4A1,1,0,0,0,54,37H50v2h3.5l1.005,1.339A3,3,0,1,0,57,39Zm0,4a1,1,0,1,1,1-1A1,1,0,0,1,57,43Z"/><path d="M4,35a3,3,0,0,0,2.816-2H13V31H6.816A2.995,2.995,0,1,0,4,35Zm0-4a1,1,0,1,1-1,1A1,1,0,0,1,4,31Z"/><path d="M7,25a2.968,2.968,0,0,0,.888-.149L9.2,26.6a1,1,0,0,0,.8.4h4V25H10.5L9.495,23.661A3,3,0,1,0,7,25Zm0-4a1,1,0,1,1-1,1A1,1,0,0,1,7,21Z"/><path d="M14,39V37H10a1,1,0,0,0-.8.4L7.888,39.149A2.968,2.968,0,0,0,7,39a3.007,3.007,0,1,0,2.495,1.339L10.5,39ZM7,43a1,1,0,1,1,1-1A1,1,0,0,1,7,43Z"/><path d="M32,4A25.642,25.642,0,0,1,46.834,8.681l-1.2,1.2a1,1,0,0,0,.465,1.677l5.656,1.414A1.01,1.01,0,0,0,52,13a1,1,0,0,0,.97-1.243L51.556,6.1a1,1,0,0,0-1.677-.465L48.268,7.247A27.619,27.619,0,0,0,32,2,28.144,28.144,0,0,0,9.445,13.406l1.61,1.188A26.133,26.133,0,0,1,32,4ZM50.044,8.3l.581,2.326L48.3,10.044Z"/><path d="M12.444,57.9a1,1,0,0,0,.7.722,1.016,1.016,0,0,0,.267.036,1,1,0,0,0,.707-.293l1.611-1.611A27.619,27.619,0,0,0,32,62,28.144,28.144,0,0,0,54.555,50.594l-1.61-1.188A26.133,26.133,0,0,1,32,60a25.642,25.642,0,0,1-14.834-4.681l1.2-1.2a1,1,0,0,0-.465-1.677L12.243,51.03a1,1,0,0,0-1.213,1.213ZM15.7,53.956,13.956,55.7l-.581-2.326Z"/><path d="M19.6,27.13a.317.317,0,0,1-.306.2A2.3,2.3,0,0,0,17,29.63V31H16a1,1,0,0,0-1,1,17,17,0,0,0,34,0,1,1,0,0,0-1-1H47V29.63a2.3,2.3,0,0,0-2.29-2.3.317.317,0,0,1-.306-.2,13.19,13.19,0,0,0-.893-2.145.327.327,0,0,1,.066-.378,2.273,2.273,0,0,0,.673-1.617,2.313,2.313,0,0,0-.673-1.627l-1.94-1.941A2.349,2.349,0,0,0,40,18.748a2.249,2.249,0,0,0-1.607.675.271.271,0,0,1-.369.071,13.2,13.2,0,0,0-2.154-.9.317.317,0,0,1-.2-.306A2.3,2.3,0,0,0,33.37,16H30.63a2.3,2.3,0,0,0-2.3,2.32.269.269,0,0,1-.179.266,12.835,12.835,0,0,0-2.166.9.323.323,0,0,1-.378-.066,2.357,2.357,0,0,0-3.244,0l-1.941,1.94A2.286,2.286,0,0,0,19.748,23a2.249,2.249,0,0,0,.675,1.607.325.325,0,0,1,.1.233.269.269,0,0,1-.026.136A13.2,13.2,0,0,0,19.6,27.13Zm-.121,13.086A14.883,14.883,0,0,1,17.033,33h5.461a28.706,28.706,0,0,0,.844,6.179A27.063,27.063,0,0,0,19.475,40.216Zm1.26,1.674a26.913,26.913,0,0,1,3.182-.788,16.368,16.368,0,0,0,2.577,4.846A15.055,15.055,0,0,1,20.735,41.89ZM31,46.845c-2.048-.57-3.859-2.847-5.053-6.067A45.628,45.628,0,0,1,31,40.405Zm0-8.44a47.474,47.474,0,0,0-5.666.441A26.5,26.5,0,0,1,24.493,33H31ZM26,31a6,6,0,0,1,12,0Zm13.507,2a26.5,26.5,0,0,1-.841,5.846A47.474,47.474,0,0,0,33,38.405V33ZM33,46.845v-6.44a45.628,45.628,0,0,1,5.053.373C36.859,44,35.048,46.275,33,46.845Zm4.506-.9A16.368,16.368,0,0,0,40.083,41.1a26.913,26.913,0,0,1,3.182.788A15.055,15.055,0,0,1,37.506,45.948ZM46.967,33a14.883,14.883,0,0,1-2.442,7.216,27.063,27.063,0,0,0-3.863-1.037A28.706,28.706,0,0,0,41.506,33ZM21.5,27.73a10.971,10.971,0,0,1,.761-1.824,2.267,2.267,0,0,0,.255-1.066,2.321,2.321,0,0,0-.69-1.654.267.267,0,0,1-.082-.2.3.3,0,0,1,.089-.213l1.94-1.94a.306.306,0,0,1,.416,0,2.325,2.325,0,0,0,2.716.426A10.924,10.924,0,0,1,28.74,20.5a2.259,2.259,0,0,0,1.59-2.207.3.3,0,0,1,.3-.29h2.74a.3.3,0,0,1,.3.29,2.329,2.329,0,0,0,1.6,2.214,10.971,10.971,0,0,1,1.824.761,2.379,2.379,0,0,0,2.72-.435.267.267,0,0,1,.2-.082c.081.031.135.011.213.089l1.94,1.94a.31.31,0,0,1,.087.213.293.293,0,0,1-.087.2,2.324,2.324,0,0,0-.429,2.711A10.982,10.982,0,0,1,42.5,27.73a2.329,2.329,0,0,0,2.214,1.6.3.3,0,0,1,.29.3V31H40a8,8,0,0,0-16,0H19V29.63a.3.3,0,0,1,.29-.3A2.329,2.329,0,0,0,21.5,27.73Z"/></svg>
