<?xml version="1.0"?>
<svg xmlns="http://www.w3.org/2000/svg" data-name="Layer 1" id="Layer_1" viewBox="0 0 128 128"><title/><path d="M19,71a7,7,0,1,0,7.001-7A7.00866,7.00866,0,0,0,19,71Zm10,0a3,3,0,1,1-2.999-3A3.00307,3.00307,0,0,1,29,71Z"/><path d="M42.001,34A7,7,0,1,0,49,41,7.00866,7.00866,0,0,0,42.001,34Zm0,10A3,3,0,1,1,45,41,3.00412,3.00412,0,0,1,42.001,44Z"/><path d="M116,47a7,7,0,1,0-6.999,7A7.00762,7.00762,0,0,0,116,47Zm-6.999,3A3,3,0,1,1,112,47,3.00412,3.00412,0,0,1,109.001,50Z"/><path d="M79,22a7,7,0,1,0-6.999,7A7.00761,7.00761,0,0,0,79,22ZM69,22a3,3,0,1,1,3.001,3A3.00412,3.00412,0,0,1,69,22Z"/><path d="M101.38478,92.791l-15.3946-6.0859V82.1172c3.1836-3.9707,4.378-9.3027,4.9961-14.1504.1026-.8115.2246-1.627.34572-2.4424.77838-5.2422,1.66118-11.1836-2.417-16.2549a18.27326,18.27326,0,0,0-12.83882-7.1992,22.40215,22.40215,0,0,0-4.251.0098,18.28851,18.28851,0,0,0-12.7393,7.1885c-4.08,5.0752-3.1953,11.0205-2.416,16.2666.12112.8115.2422,1.624.3447,2.4306.5713,4.4883,1.73342,9.8926,4.9405,13.9824-.001.0176-.0078.0332-.0078.0508v4.6953l-15.252,6.0674c-.3955.1367-9.69528,3.4453-10.2627,11.0332l-1.4287,22.0752a2.00026,2.00026,0,1,0,3.9922.2578l1.4268-22.0547c.37012-4.9433,7.5146-7.5078,7.6669-7.5634L55,93.7617V103.999a1.99986,1.99986,0,0,0,3.30178,1.5186l8.9238-7.6485,2.5,2.042-3.6328,17.7285a3.94716,3.94716,0,0,0,1.6914,4.0752l4.5693,3.7364a2.92316,2.92316,0,0,0,1.7236.5517,2.5597,2.5597,0,0,0,1.6583-.5849l4.5302-3.7051a3.89056,3.89056,0,0,0,1.6182-4.0957l-3.626-17.7852,2.4639-2.0088,8.9765,7.6944A1.99989,1.99989,0,0,0,93,103.999V93.7773L99.99018,96.54c.0723.0254,7.21682,2.5899,7.586,7.5127l1.4277,22.0752c.12112,1.8116,2.08112,1.8701,2.125,1.8672a2.00008,2.00008,0,0,0,1.8672-2.125l-1.4297-22.0957C110.998,96.207,101.70018,92.8984,101.38478,92.791Zm-35.458-1.1474c.0068-.0684.0205-6.1153.0205-6.1153A17.258,17.258,0,0,0,72.668,87.8984a9.52774,9.52774,0,0,0,2.82318-.0234,17.59468,17.59468,0,0,0,6.499-2.2656l.002,6.0176-8.0508,6.5634Zm-3.7237-39.8692a14.2418,14.2418,0,0,1,10.0186-5.7139,18.49362,18.49362,0,0,1,3.4795-.0078,14.2339,14.2339,0,0,1,10.0957,5.7217,9.88175,9.88175,0,0,1,2.1045,5.2598,2.02764,2.02764,0,0,0-.209.0898c-5.1983,2.8994-7.9971-.9189-8.2891-1.3496a2.005,2.005,0,0,0-1.5674-.9014,1.97972,1.97972,0,0,0-1.6543.7305c-6.8847,8.4111-15.208,5.707-16.0644,5.3985C59.80758,57.6182,60.041,54.4639,62.20308,51.7744Zm-1.5254,13.5322a17.2701,17.2701,0,0,0,3.5.3526,18.80846,18.80846,0,0,0,12.9414-5.2237l1.1534-.1562a9.59869,9.59869,0,0,0,9.5673,1.1836c-.1181,1.1357-.29,2.2969-.46478,3.4736-.125.8438-.25,1.6856-.35742,2.5244-1.3487,10.586-4.8623,15.3545-12.1299,16.46a4.85707,4.85707,0,0,1-1.6484.0186c-7.1592-1.0332-10.9385-6.1153-12.2569-16.4786C60.89158,66.7451,60.78418,66.0254,60.67768,65.3066ZM59,99.6504V92.1709l2.90918-1.1572v1.5634a1.99977,1.99977,0,0,0,.7344,1.5489l1.4345,1.1719Zm15.02338,22-3.9961-3.2842L73.249,102.6426a1.97968,1.97968,0,0,0,1.48638-.0586l3.2334,15.8515ZM89,99.6504l-5.12792-4.3955,1.3838-1.1279a1.99923,1.99923,0,0,0,.7363-1.5499V91.0078L89,92.1963Z"/><path d="M52.34278,120.0684a1.99183,1.99183,0,0,0-2.1631,1.8212s-.3428,3.9844-.3438,4c-.2187,2.5508,3.7637,2.9366,3.9844.3418l.3438-4A1.99843,1.99843,0,0,0,52.34278,120.0684Z"/><path d="M95.65718,120.0078a1.99853,1.99853,0,0,0-1.8213,2.1631l.3438,4A1.999,1.999,0,0,0,96.16988,128a1.88546,1.88546,0,0,0,1.9942-2.1709l-.3438-4A1.98459,1.98459,0,0,0,95.65718,120.0078Z"/><path d="M61.08588,23.3135a72.15524,72.15524,0,0,0-12.7265,8.7275,11.06068,11.06068,0,0,1,2.791,2.8653,68.10591,68.10591,0,0,1,11.1601-7.7071A10.93248,10.93248,0,0,1,61.08588,23.3135Z"/><path d="M27.666,60.1396a10.90421,10.90421,0,0,1,3.78518,1.3194,77.08612,77.08612,0,0,1,5.7246-10.5889,11.03344,11.03344,0,0,1-3.2139-2.3857A81.03764,81.03764,0,0,0,27.666,60.1396Z"/><path d="M82.96,22.7939a10.91677,10.91677,0,0,1-1.04792,3.9444A74.24924,74.24924,0,0,1,90.041,31.3379a70.84383,70.84383,0,0,1,10.62008,8.5088,11.062,11.062,0,0,1,3.1416-2.5371,74.87517,74.87517,0,0,0-11.5693-9.3174A78.51,78.51,0,0,0,82.96,22.7939Z"/><path d="M50.24118,87.0459a81.781,81.781,0,0,1-14.6338-10.7041,11.05081,11.05081,0,0,1-2.4785,3.0195,87.32259,87.32259,0,0,0,12.499,9.5196Z"/><path d="M105.57708,57.4473A89.17683,89.17683,0,0,1,91.39748,84.543l3.7666,1.4892a95.459,95.459,0,0,0,14.3447-28.0576c-.1699.0078-.3369.0254-.50778.0254A10.94419,10.94419,0,0,1,105.57708,57.4473Z"/><path d="M42.001,52a11.05769,11.05769,0,0,1-1.14362-.0596,69.71838,69.71838,0,0,0,7.3272,21.9034,63.00355,63.00355,0,0,0,7.5752,11.0078l2.1875-.8702v-.833a26.60985,26.60985,0,0,1-2.7774-5.6045,59.02207,59.02207,0,0,1-3.4521-5.5751,64.92412,64.92412,0,0,1-6.8086-20.3721A10.91737,10.91737,0,0,1,42.001,52Z"/><path d="M64,0A63.98024,63.98024,0,0,0,31.43648,119.0654l.293-4.5224a60.509,60.509,0,0,1-5.5186-4,1.83535,1.83535,0,0,0-.0224-.2295,82.20528,82.20528,0,0,1-.7061-28.3399,10.93022,10.93022,0,0,1-3.9043-.9091,85.61907,85.61907,0,0,0-.999,13.0283,86.76366,86.76366,0,0,0,.8672,12.1396A59.83539,59.83539,0,0,1,9.63768,38.6465,60.02834,60.02834,0,0,0,18.917,62.5967a10.99066,10.99066,0,0,1,3.38278-1.9424c-5.7002-8.8955-9.2129-18.7451-9.0869-28.5449a60.34122,60.34122,0,0,1,6.1162-8.1114c.1777-.0664.2666-.0976.3994-.1455l.3174-.1123a82.33823,82.33823,0,0,1,14.457-3.7177q3.50535-.56985,7.002-.8311a108.16622,108.16622,0,0,0-1.4512,10.9912,10.72373,10.72373,0,0,1,4.1162.0342,107.57986,107.57986,0,0,1,1.5274-11.2266,80.398,80.398,0,0,1,15.4804,1.0948,10.90885,10.90885,0,0,1,1.4444-3.8047,84.18312,84.18312,0,0,0-16.0879-1.3008,93.845,93.845,0,0,1,2.5263-9.0957,59.923,59.923,0,0,1,50.2549,9.6523c-2.1181-.2011-4.248-.3076-6.3779-.3076a66.58375,66.58375,0,0,0-11.5762,1.0244,10.90816,10.90816,0,0,1,1.458,3.8125,62.52377,62.52377,0,0,1,10.1182-.8369,63.19669,63.19669,0,0,1,12.2461,1.1992,60.5156,60.5156,0,0,1,5.4219,5.8399q-.1143,4.998-.60548,9.7832a10.89337,10.89337,0,0,1,3.89158,1.1113c.207-1.8555.3633-3.7578.48442-5.6924a59.76779,59.76779,0,0,1,8.78418,42.5078,67.07043,67.07043,0,0,0-6.4405-19.1533,11.02625,11.02625,0,0,1-3.3476,2.2647,63.03752,63.03752,0,0,1,6.7558,25.7666,45.62958,45.62958,0,0,1-12.8193,8.4267,22.07625,22.07625,0,0,1,3.5469,2.7422,49.96666,49.96666,0,0,0,7.4316-4.501,60.08707,60.08707,0,0,1-4.5918,8.0616,13.59538,13.59538,0,0,1,1.6729,4.5439A63.96556,63.96556,0,0,0,64,0ZM42.32618,15.1387c-2.8145.1767-5.6387.4765-8.4649.9365-2.73528.4443-5.44528,1.0361-8.1191,1.7422A59.98175,59.98175,0,0,1,44.38088,7.3115C43.77638,9.2822,43.03708,11.9385,42.32618,15.1387Z"/></svg>
