<svg id="Layer_1" height="512" viewBox="0 0 512 512" width="512" xmlns="http://www.w3.org/2000/svg" data-name="Layer 1"><path d="m91.828 290.857a7 7 0 0 1 7-7h223.651a7 7 0 0 1 0 14h-223.651a7 7 0 0 1 -7-7zm0-43.29v-80.35a7 7 0 0 1 7-7h39.836a7 7 0 0 1 7 7v80.35a7 7 0 0 1 -7 7h-39.836a7 7 0 0 1 -7-7zm14-7h25.836v-66.35h-25.836zm47.272 7v-110.745a7 7 0 0 1 7-7h39.836a7 7 0 0 1 7 7v110.745a7 7 0 0 1 -7 7h-39.836a7 7 0 0 1 -7-7zm14-7h25.836v-96.745h-25.836zm47.272 7v-141.139a7 7 0 0 1 7-7h39.835a7 7 0 0 1 7 7v141.139a7 7 0 0 1 -7 7h-39.835a7 7 0 0 1 -7-7zm14-7h25.835v-127.139h-25.835zm47.271 7v-171.534a7 7 0 0 1 7-7h39.836a7 7 0 0 1 7 7v171.534a7 7 0 0 1 -7 7h-39.836a7 7 0 0 1 -7-7zm14-7h25.836v-157.534h-25.836zm205.286 158.383a109.582 109.582 0 0 1 -184.461 80.068h-249.788a43.658 43.658 0 0 1 -43.609-43.608v-388.394a43.658 43.658 0 0 1 43.609-43.608h299.947a43.657 43.657 0 0 1 43.608 43.608v243.935a109.819 109.819 0 0 1 90.694 107.999zm-434.249 66.068h237.164a109.089 109.089 0 0 1 -21.26-51.706h-177.756a7 7 0 1 1 0-14h176.82c0-.121-.005-.241-.005-.362a109.612 109.612 0 0 1 2.68-24.123h-179.495a7 7 0 1 1 0-14h183.655a109.5 109.5 0 0 1 12.846-24.485h-196.501a7 7 0 1 1 0-14h208.1a109.316 109.316 0 0 1 78.357-33.035c1.659 0 3.308.044 4.949.117v-242.408a29.641 29.641 0 0 0 -29.608-29.608h-299.946a29.642 29.642 0 0 0 -29.609 29.608v388.394a29.642 29.642 0 0 0 29.609 29.608zm420.249-66.068a95.643 95.643 0 1 0 -95.643 95.642 95.752 95.752 0 0 0 95.643-95.642zm-30.344-16.973-63.9 62.509a22.908 22.908 0 0 1 -32.092-.166l-35.076-35.032c-10-9.989-8.281-22.177-1.412-29.055s19.055-8.613 29.056 1.374l23.682 23.652 52.389-51.247c6.223-6.088 13.923-8.422 21.122-6.408a18.793 18.793 0 0 1 13.104 13.396c1.855 7.244-.649 14.89-6.873 20.977zm-6.689-17.5a4.754 4.754 0 0 0 -3.316-3.389c-2.286-.64-4.972.4-7.56 2.934l-57.335 56.085a7 7 0 0 1 -9.842-.05l-28.577-28.541c-3.929-3.924-7.359-3.291-9.258-1.388s-2.529 5.332 1.4 9.256l35.077 35.033a8.856 8.856 0 0 0 12.408.065l63.9-62.51c2.591-2.535 3.692-5.197 3.107-7.497z"/></svg>