<?xml version="1.0" encoding="iso-8859-1"?>
<!-- Generator: Adobe Illustrator 19.0.0, SVG Export Plug-In . SVG Version: 6.00 Build 0)  -->
<svg version="1.1" id="Layer_1" xmlns="http://www.w3.org/2000/svg" xmlns:xlink="http://www.w3.org/1999/xlink" x="0px" y="0px"
	 viewBox="0 0 512 512" style="enable-background:new 0 0 512 512;" xml:space="preserve">
<g>
	<g>
		<path d="M508.49,280.094c-2.229-2.021-5.188-2.948-8.219-2.708l-30.938,3.094V106.667c0-23.531-19.135-42.667-42.667-42.667
			h-198.25l-39.542-39.542c-2-2-4.708-3.125-7.542-3.125H42.667C19.135,21.333,0,40.469,0,64v298.667
			c0,23.531,19.135,42.667,42.667,42.667h256v55.469c0,5.479,4.156,10.073,9.604,10.615l192,19.198
			c0.354,0.031,0.708,0.052,1.063,0.052c2.635,0,5.188-0.979,7.156-2.76c2.24-2.021,3.51-4.896,3.51-7.906V288
			C512,284.99,510.729,282.115,508.49,280.094z M298.667,307.198V384h-256c-11.76,0-21.333-9.573-21.333-21.333V64
			c0-11.76,9.573-21.333,21.333-21.333h134.25l39.542,39.542c2,2,4.708,3.125,7.542,3.125h202.667
			c11.76,0,21.333,9.573,21.333,21.333v175.945l-139.729,13.971C302.823,297.125,298.667,301.719,298.667,307.198z M384,457.548
			l-64-6.402v-56.479h64V457.548z M384,373.333h-64v-56.479l64-6.402V373.333z M490.667,468.219l-85.333-8.536v-65.016h85.333
			V468.219z M490.667,373.333h-85.333v-65.016l85.333-8.536V373.333z"/>
	</g>
</g>
<g>
</g>
<g>
</g>
<g>
</g>
<g>
</g>
<g>
</g>
<g>
</g>
<g>
</g>
<g>
</g>
<g>
</g>
<g>
</g>
<g>
</g>
<g>
</g>
<g>
</g>
<g>
</g>
<g>
</g>
</svg>
