<svg id="Line" viewBox="0 0 64 64" xmlns="http://www.w3.org/2000/svg"><path d="m59.48772 48.944-4.92958-8.009v-27.21392a3.91393 3.91393 0 0 0 -4.01945-3.79h-37.07931a3.91393 3.91393 0 0 0 -4.01945 3.79v27.214l-4.92959 8.00939c-1.34989 2.0154.13336 5.1928 2.62993 5.1229l15.99231.00005c.01866.00363 17.71347-.00263 17.7329 0h15.99241c2.48911.06669 3.98685-3.10492 2.62983-5.12342zm-48.04783-35.22292a1.91767 1.91767 0 0 1 2.01949-1.79h37.07931a1.91767 1.91767 0 0 1 2.01949 1.79v26.27973h-41.11829zm28.41835 38.34638h-15.71842v-3.94816a.08707.08707 0 0 1 .083-.0835h15.55242a.08706.08706 0 0 1 .083.0835zm17.95376-.60107a1.11035 1.11035 0 0 1 -.95409.60107h-14.99971v-3.94816a2.0856 2.0856 0 0 0 -2.083-2.08346h-15.55238a2.0856 2.0856 0 0 0 -2.083 2.08346v3.94816h-14.99965a1.11031 1.11031 0 0 1 -.95408-.60107 1.46265 1.46265 0 0 1 .02734-1.4736l4.91891-7.992h41.73345l4.91884 7.99153a1.46355 1.46355 0 0 1 .02737 1.47407z"/><path d="m34.62984 36.30167h-5.26161a1 1 0 0 0 0 2h5.26161a1.00017 1.00017 0 0 0 0-2z"/><path d="m40.15414 15.85287-16.68914 3.21429a.99969.99969 0 0 0 -.81053.98191v11.83423a.99969.99969 0 0 0 .81053.98192l16.68914 3.21378a1.007 1.007 0 0 0 1.18941-.98193v-18.2623a1.00586 1.00586 0 0 0 -1.18941-.9819zm-.81053 9.1131h-6.34461v-5.69831l6.3446-1.222zm-8.34456-5.31319v5.31322h-6.34459v-4.09126zm-6.34459 7.31314h6.34459v5.31343l-6.34459-1.22171zm8.34454 5.69856v-5.69856h6.3446v6.92027z"/></svg>