<svg id="Layer_1" viewBox="0 0 512 512" xmlns="http://www.w3.org/2000/svg" data-name="Layer 1"><path d="m406.216 417.53 17.368 17.368c1.562 1.562 3.61 2.343 5.657 2.343s4.095-.781 5.657-2.343c3.124-3.124 3.124-8.189 0-11.313l-17.369-17.368c31.532-33.913 51.667-77.017 57.366-122.829h23.477c4.418 0 8-3.582 8-8v-38.772c0-4.418-3.582-8-8-8h-23.477c-5.699-45.813-25.834-88.917-57.366-122.83l17.369-17.369c3.124-3.124 3.124-8.189 0-11.313s-8.188-3.125-11.314 0l-17.368 17.368c-33.912-31.532-77.017-51.666-122.829-57.366v-23.478c0-4.418-3.582-8-8-8h-38.772c-4.418 0-8 3.582-8 8v23.477c-45.813 5.699-88.917 25.834-122.83 57.366l-17.368-17.368c-3.126-3.125-8.19-3.123-11.314 0-3.124 3.124-3.124 8.189 0 11.313l17.369 17.369c-31.531 33.912-51.666 77.017-57.366 122.829h-23.478c-4.418 0-8 3.582-8 8v38.772c0 4.418 3.582 8 8 8h23.477c5.699 45.813 25.834 88.918 57.366 122.83l-17.369 17.368c-3.124 3.124-3.124 8.189 0 11.313 1.562 1.562 3.609 2.343 5.657 2.343s4.095-.781 5.657-2.343l17.368-17.368c33.913 31.532 77.017 51.666 122.829 57.366v23.477c0 4.418 3.582 8 8 8h38.772c4.418 0 8-3.582 8-8v-23.477c45.813-5.699 88.918-25.834 122.83-57.365zm84.156-150.143h-43.555v-22.772h43.555zm-245.758-245.759h22.772v43.555h-22.772zm-222.986 222.986h43.555v22.772h-43.555zm90.535 157.051c-.25-.346-.521-.682-.833-.994s-.647-.584-.994-.834c-30.413-30.799-51.081-71.242-57.111-116.451h19.958c4.418 0 8-3.582 8-8v-11.385h63.962v19.857c0 4.418 3.582 8 8 8h12.976c4.418 0 8-3.582 8-8s-3.582-8-8-8h-4.976v-39.714h4.976c4.418 0 8-3.582 8-8s-3.582-8-8-8h-12.976c-4.418 0-8 3.582-8 8v19.857h-63.962v-11.387c0-4.418-3.582-8-8-8h-19.958c6.03-45.209 26.699-85.652 57.111-116.451.347-.25.682-.521.994-.833s.584-.648.834-.995c30.799-30.413 71.242-51.081 116.45-57.111v19.959c0 4.418 3.582 8 8 8h11.386v63.961h-19.856c-4.418 0-8 3.582-8 8v12.976c0 4.418 3.582 8 8 8s8-3.582 8-8v-4.976h19.847s.007 0 .01 0 .006 0 .01 0h19.848v4.976c0 4.418 3.582 8 8 8s8-3.582 8-8v-12.976c0-4.418-3.582-8-8-8h-19.857v-63.961h11.387c4.418 0 8-3.582 8-8v-19.959c45.208 6.03 85.651 26.699 116.45 57.112.25.347.521.682.833.994s.647.583.994.833c30.413 30.799 51.082 71.243 57.112 116.452h-19.958c-4.418 0-8 3.582-8 8v11.386h-63.962v-19.857c0-4.418-3.582-8-8-8h-12.975c-4.418 0-8 3.582-8 8s3.582 8 8 8h4.975v39.714h-4.975c-4.418 0-8 3.582-8 8s3.582 8 8 8h12.975c4.418 0 8-3.582 8-8v-19.857h63.962v11.387c0 4.418 3.582 8 8 8h19.958c-6.03 45.208-26.698 85.651-57.11 116.45-.347.25-.683.522-.995.834s-.585.648-.834.996c-30.799 30.412-71.241 51.08-116.45 57.11v-19.958c0-4.418-3.582-8-8-8h-11.386v-13.261h68.072c4.418 0 8-3.582 8-8v-38.104c0-35.884-22.606-66.574-54.319-78.617 10.741-8.693 17.626-21.973 17.626-36.835 0-26.125-21.255-47.38-47.38-47.38s-47.379 21.254-47.379 47.38c0 14.863 6.885 28.142 17.626 36.835-31.713 12.043-54.319 42.732-54.319 78.617v38.104c0 4.418 3.582 8 8 8h68.072v13.261h-11.387c-4.418 0-8 3.582-8 8v19.958c-45.208-6.03-85.652-26.699-116.45-57.112zm171.694-24.808c4.418 0 8-3.582 8-8v-12.975c0-4.418-3.582-8-8-8s-8 3.582-8 8v4.975h-39.714v-4.975c0-4.418-3.582-8-8-8s-8 3.582-8 8v12.975c0 4.418 3.582 8 8 8h19.856v24.701h-60.072v-30.104c0-37.536 30.537-68.073 68.072-68.073s68.072 30.537 68.072 68.073v30.104h-60.072v-24.701h19.857zm-59.236-120.855c0-17.303 14.076-31.38 31.379-31.38s31.38 14.077 31.38 31.38-14.077 31.379-31.38 31.379-31.379-14.077-31.379-31.379zm42.765 234.372h-22.772v-43.555h22.772zm-264.386-403.302v-76.072c0-4.418 3.582-8 8-8h76.072c4.418 0 8 3.582 8 8s-3.582 8-8 8h-68.072v68.072c0 4.418-3.582 8-8 8s-8-3.582-8-8zm92.072 413.928c0 4.418-3.582 8-8 8h-76.072c-4.418 0-8-3.582-8-8v-76.072c0-4.418 3.582-8 8-8s8 3.582 8 8v68.072h68.072c4.418 0 8 3.582 8 8zm413.928-490v76.072c0 4.418-3.582 8-8 8s-8-3.582-8-8v-68.072h-68.072c-4.418 0-8-3.582-8-8s3.582-8 8-8h76.072c4.418 0 8 3.582 8 8zm0 413.927v76.072c0 4.418-3.582 8-8 8h-76.072c-4.418 0-8-3.582-8-8s3.582-8 8-8h68.072v-68.072c0-4.418 3.582-8 8-8s8 3.582 8 8z"/></svg>