<svg id="Layer_1" viewBox="0 0 512 512" xmlns="http://www.w3.org/2000/svg" data-name="Layer 1"><path d="m105.122 150.888-12.31-27.688-12.112 27.234a7.256 7.256 0 0 1 -6.083 4.744l-30.09 3.146 22.51 20.246a7.259 7.259 0 0 1 2.245 6.9l-6.312 29.616 26.121-15.1a7.252 7.252 0 0 1 7.353-.047l26.2 15.147-6.268-29.41a7.26 7.26 0 0 1 2.2-7.109l22.51-20.246-30.086-3.143v-.016a7.235 7.235 0 0 1 -5.882-4.274zm-5.691-48.431 17.216 38.725 42.177 4.409a7.254 7.254 0 0 1 4.114 12.608l.006.006-31.528 28.356 8.84 41.475a7.26 7.26 0 0 1 -10.948 7.663l-36.5-21.1-36.7 21.219a7.255 7.255 0 0 1 -10.734-7.783l8.84-41.475-31.534-28.355a7.262 7.262 0 0 1 4.437-12.647l41.86-4.376 17.216-38.725a7.237 7.237 0 0 1 13.238 0zm332.075 48.431-12.306-27.688-12.108 27.236a7.255 7.255 0 0 1 -6.082 4.744l-30.091 3.146 22.511 20.246a7.261 7.261 0 0 1 2.244 6.9l-6.312 29.616 26.121-15.1a7.253 7.253 0 0 1 7.354-.047l26.2 15.147-6.268-29.41a7.259 7.259 0 0 1 2.2-7.109l22.511-20.246-30.091-3.146v-.016a7.234 7.234 0 0 1 -5.882-4.274zm-5.691-48.431 17.216 38.725 42.177 4.409a7.254 7.254 0 0 1 4.114 12.608v.006l-31.522 28.356 8.839 41.475a7.259 7.259 0 0 1 -10.947 7.663l-36.5-21.1-36.7 21.219a7.255 7.255 0 0 1 -10.733-7.783l8.839-41.475-31.527-28.356a7.261 7.261 0 0 1 4.436-12.647l41.86-4.376 17.216-38.725a7.238 7.238 0 0 1 13.239 0zm-29.689 271.243a63.11 63.11 0 1 0 18.484 44.625 62.91 62.91 0 0 0 -18.484-44.625zm-78.215 49.227a7.257 7.257 0 1 1 9.887-10.625l15.658 14.598 31.493-32.338a7.252 7.252 0 1 1 10.4 10.114l-36.335 37.312a7.257 7.257 0 0 1 -10.255.37l-20.845-19.424zm-42.811-203.006c-5.787-6.454-14.285-9.71-24.15-9.71-10.159 0-19.523 3.435-26.022 10.242-5.906 6.184-9.6 15.317-9.6 27.409 0 13.259 4.069 25.164 10.647 33.692 6.172 8 14.549 12.951 23.668 12.951s17.5-4.949 23.667-12.951c6.577-8.528 10.646-20.433 10.646-33.692 0-12.445-3.309-21.755-8.855-27.941zm-24.15-24.255c13.962 0 26.247 4.9 34.945 14.6 7.9 8.805 12.606 21.381 12.606 37.6 0 16.517-5.242 31.571-13.715 42.556-8.879 11.512-21.3 18.632-35.144 18.632s-26.266-7.12-35.145-18.632c-8.474-10.985-13.715-26.039-13.715-42.556 0-16.115 5.247-28.626 13.634-37.41 9.385-9.828 22.516-14.786 36.534-14.786zm35.086 264.439h-138.266a7.273 7.273 0 0 1 -7.273-7.273v-58.655a65.9 65.9 0 0 1 65.73-65.728h86.818a65.17 65.17 0 0 1 23.4 4.362 65.905 65.905 0 0 1 17.329 9.9 77.637 77.637 0 1 1 -47.742 117.4zm-130.994-14.546v-51.382a51.356 51.356 0 0 1 51.185-51.183h86.818a50.31 50.31 0 0 1 23.751 5.851 77.744 77.744 0 0 0 -38.039 96.714h-78.844v-23.089a7.273 7.273 0 1 0 -14.545 0v23.089zm113.272-376.8-12.314-27.688-12.1 27.236a7.252 7.252 0 0 1 -6.082 4.744l-30.095 3.149 22.51 20.246a7.26 7.26 0 0 1 2.245 6.9l-6.312 29.615 26.121-15.1a7.252 7.252 0 0 1 7.353-.047l26.2 15.147-6.268-29.41a7.262 7.262 0 0 1 2.2-7.109l22.513-20.242-30.085-3.149v-.015a7.236 7.236 0 0 1 -5.882-4.275zm-5.691-48.429 17.216 38.725 42.177 4.409a7.254 7.254 0 0 1 4.114 12.608l.006.006-31.528 28.356 8.84 41.475a7.26 7.26 0 0 1 -10.948 7.663l-36.5-21.1-36.7 21.221a7.255 7.255 0 0 1 -10.734-7.783l8.84-41.475-31.534-28.357a7.261 7.261 0 0 1 4.437-12.647l41.86-4.376 17.216-38.725a7.237 7.237 0 0 1 13.238 0z" fill-rule="evenodd"/></svg>