<svg id="Layer_1" enable-background="new 0 0 512 512" viewBox="0 0 512 512" xmlns="http://www.w3.org/2000/svg"><path d="m256 118.94c-54.23 0-98.35 44.12-98.35 98.35 0 54.25 44.12 98.38 98.35 98.38 54.25 0 98.38-44.13 98.38-98.38 0-54.23-44.14-98.35-98.38-98.35zm0 180.71c-45.4 0-82.33-36.95-82.33-82.36 0-45.4 36.93-82.33 82.33-82.33 45.41 0 82.36 36.93 82.36 82.33 0 45.42-36.95 82.36-82.36 82.36zm42.07-104.59h-25.1v-37.6c0-3.51-2.28-6.6-5.63-7.65-3.35-1.04-6.99.22-8.97 3.1l-51.02 74.07c-1.69 2.45-1.88 5.63-.49 8.27 1.38 2.63 4.11 4.28 7.09 4.28h25.13v37.6c0 3.51 2.28 6.61 5.63 7.65.79.24 1.59.36 2.38.36 2.59 0 5.07-1.26 6.6-3.47l51-74.07c1.69-2.45 1.88-5.63.49-8.27s-4.14-4.27-7.11-4.27zm-42.99 56.32v-19.86c0-4.42-3.58-8.01-8.01-8.01h-17.9l27.78-40.32v19.87c0 4.42 3.58 8.01 8.01 8.01h17.87zm227.58-63.44c-13.41 0-24.74 9.04-28.23 21.34h-58.76c-1.11-19.64-6.3-38.2-14.72-54.87l48.71-28.13c2.48-1.43 4-4.07 4-6.93v-42.68c12.3-3.5 21.34-14.82 21.34-28.23 0-16.19-13.17-29.35-29.35-29.35-16.19 0-29.35 13.17-29.35 29.35 0 13.41 9.04 24.74 21.35 28.23v38.07l-44.73 25.83c-25.04-38.01-68.1-63.15-116.92-63.15s-91.87 25.14-116.9 63.16l-44.75-25.84v-38.07c12.3-3.5 21.34-14.82 21.34-28.23 0-16.19-13.17-29.35-29.35-29.35-16.19 0-29.35 13.17-29.35 29.35 0 13.41 9.04 24.74 21.35 28.23v42.69c0 2.86 1.53 5.5 4 6.93l48.73 28.14c-8.42 16.66-13.6 35.22-14.71 54.85h-58.79c-3.5-12.3-14.82-21.34-28.23-21.34-16.19 0-29.35 13.17-29.35 29.35s13.17 29.35 29.35 29.35c13.41 0 24.74-9.04 28.23-21.34h58.74c1.07 23.23 6.77 40.42 14.9 54.8l-48.87 28.22c-2.48 1.43-4 4.07-4 6.93v42.66c-12.3 3.49-21.35 14.82-21.35 28.23 0 16.19 13.17 29.35 29.35 29.35 16.19 0 29.35-13.17 29.35-29.35 0-13.41-9.04-24.74-21.34-28.23v-38.04l45.62-26.34c5.98 8.12 12.62 15.55 19.38 23.11 3.43 3.84 6.98 7.81 10.49 11.92 9.09 10.64 14.66 22.2 16.93 35.13-13.24.87-23.75 11.92-23.75 25.38 0 6.74 2.64 12.88 6.94 17.43-4.3 4.56-6.94 10.69-6.94 17.43 0 14.03 11.41 25.44 25.44 25.44h.95v9.11c0 18.98 15.44 34.43 34.43 34.43h64.35c18.98 0 34.43-15.44 34.43-34.43v-9.11h.95c14.04 0 25.47-11.41 25.47-25.44 0-6.74-2.64-12.88-6.95-17.43 4.3-4.56 6.95-10.69 6.95-17.43 0-13.46-10.52-24.51-23.78-25.38 2.27-12.93 7.84-24.49 16.93-35.13 3.51-4.11 7.07-8.09 10.51-11.94 6.75-7.55 13.39-14.98 19.36-23.08l45.61 26.34v38.04c-12.3 3.49-21.35 14.82-21.35 28.23 0 16.19 13.17 29.35 29.35 29.35 16.19 0 29.35-13.17 29.35-29.35 0-13.41-9.04-24.74-21.34-28.23v-42.66c0-2.86-1.53-5.5-4-6.93l-48.86-28.22c8.14-14.38 13.84-31.57 14.91-54.81h58.71c3.5 12.3 14.82 21.34 28.23 21.34 16.19 0 29.35-13.17 29.35-29.35s-13.18-29.35-29.36-29.35zm-70.34-139.51c0-7.35 5.98-13.34 13.34-13.34s13.34 5.98 13.34 13.34-5.98 13.34-13.34 13.34-13.34-5.98-13.34-13.34zm-339.31 0c0-7.35 5.98-13.34 13.34-13.34s13.34 5.98 13.34 13.34-5.99 13.34-13.34 13.34-13.34-5.98-13.34-13.34zm26.67 337.72c0 7.35-5.98 13.34-13.34 13.34s-13.34-5.98-13.34-13.34 5.98-13.34 13.34-13.34 13.34 5.99 13.34 13.34zm339.31 0c0 7.35-5.98 13.34-13.34 13.34s-13.34-5.98-13.34-13.34 5.98-13.34 13.34-13.34 13.34 5.99 13.34 13.34zm-409.65-155.52c-7.35 0-13.34-5.98-13.34-13.34s5.98-13.34 13.34-13.34 13.34 5.98 13.34 13.34-5.98 13.34-13.34 13.34zm277.24 227.86c0 10.15-8.26 18.41-18.41 18.41h-64.35c-10.15 0-18.41-8.26-18.41-18.41v-9.11h101.17zm16.97-25.13h-135.1c-5.2 0-9.43-4.23-9.43-9.43s4.23-9.43 9.43-9.43h135.1c5.21 0 9.45 4.23 9.45 9.43s-4.24 9.43-9.45 9.43zm9.45-44.29c0 5.2-4.24 9.42-9.45 9.42h-135.1c-5.2 0-9.43-4.23-9.43-9.42 0-5.2 4.23-9.43 9.43-9.43h127.78.02.01 7.3c5.2.01 9.44 4.24 9.44 9.43zm7.74-83.12c-3.5 3.92-7.12 7.96-10.75 12.22-11.66 13.65-18.56 28.58-20.97 45.47h-106.04c-2.42-16.88-9.31-31.82-20.97-45.46-3.62-4.25-7.23-8.29-10.73-12.19-21.87-24.46-39.15-43.78-39.15-88.68.01-68.31 55.57-123.88 123.87-123.88 68.31 0 123.89 55.56 123.89 123.86 0 27.58-6.53 45.5-16.63 60.9-.17.24-.34.48-.49.75-.01.01-.01.03-.02.05-6.25 9.34-13.81 17.79-22.01 26.96zm141.92-75.32c-7.35 0-13.34-5.98-13.34-13.34s5.98-13.34 13.34-13.34 13.34 5.99 13.34 13.34-5.99 13.34-13.34 13.34z"/></svg>