<?xml version="1.0" encoding="UTF-8" standalone="no"?>
<!-- Created with Inkscape (http://www.inkscape.org/) -->

<svg
   version="1.1"
   id="svg3885"
   xml:space="preserve"
   width="682.66669"
   height="682.66669"
   viewBox="0 0 682.66669 682.66669"
   xmlns="http://www.w3.org/2000/svg"
   xmlns:svg="http://www.w3.org/2000/svg"><defs
     id="defs3889"><clipPath
       clipPathUnits="userSpaceOnUse"
       id="clipPath3899"><path
         d="M 0,512 H 512 V 0 H 0 Z"
         id="path3897" /></clipPath></defs><g
     id="g3891"
     transform="matrix(1.3333333,0,0,-1.3333333,0,682.66667)"><g
       id="g3893"><g
         id="g3895"
         clip-path="url(#clipPath3899)"><g
           id="g3901"
           transform="translate(104.48,94.37)"><path
             d="M 0,0 29.92,-5.34 C 45.34,-8.09 56.56,-21.5 56.56,-37.16 V -86.87 H -2.71"
             style="fill:none;stroke:#000000;stroke-width:15;stroke-linecap:round;stroke-linejoin:round;stroke-miterlimit:10;stroke-dasharray:none;stroke-opacity:1"
             id="path3903" /></g><g
           id="g3905"
           transform="translate(64.07,94.37)"><path
             d="M 0,0 -29.93,-5.34 C -45.34,-8.09 -56.57,-21.5 -56.57,-37.16 V -86.87 H 2.7"
             style="fill:none;stroke:#000000;stroke-width:15;stroke-linecap:round;stroke-linejoin:round;stroke-miterlimit:10;stroke-dasharray:none;stroke-opacity:1"
             id="path3907" /></g><g
           id="g3909"
           transform="translate(104.4756,115.941)"><path
             d="m 0,0 v -21.567 l -20.203,-28.285 -20.204,28.285 V 0"
             style="fill:none;stroke:#000000;stroke-width:15;stroke-linecap:round;stroke-linejoin:round;stroke-miterlimit:10;stroke-dasharray:none;stroke-opacity:1"
             id="path3911" /></g><g
           id="g3913"
           transform="translate(124.6789,167.1057)"><path
             d="m 0,0 v -16.163 c 0,-22.316 -18.091,-40.406 -40.407,-40.406 -22.315,0 -40.406,18.09 -40.406,40.406 V 0"
             style="fill:none;stroke:#000000;stroke-width:15;stroke-linecap:round;stroke-linejoin:round;stroke-miterlimit:10;stroke-dasharray:none;stroke-opacity:1"
             id="path3915" /></g><g
           id="g3917"
           transform="translate(124.6789,181.248)"><path
             d="M 0,0 C 0,22.316 -18.091,40.406 -40.407,40.406 -62.722,40.406 -80.813,22.316 -80.813,0 v -14.142 c 40.406,0 60.61,14.142 60.61,14.142 0,0 5.051,-14.142 20.203,-14.142 z"
             style="fill:none;stroke:#000000;stroke-width:15;stroke-linecap:round;stroke-linejoin:round;stroke-miterlimit:10;stroke-dasharray:none;stroke-opacity:1"
             id="path3919" /></g><g
           id="g3921"
           transform="translate(128.7195,7.5)"><path
             d="M 0,0 V 26.264"
             style="fill:none;stroke:#000000;stroke-width:15;stroke-linecap:round;stroke-linejoin:round;stroke-miterlimit:10;stroke-dasharray:none;stroke-opacity:1"
             id="path3923" /></g><g
           id="g3925"
           transform="translate(39.8252,7.5)"><path
             d="M 0,0 V 26.264"
             style="fill:none;stroke:#000000;stroke-width:15;stroke-linecap:round;stroke-linejoin:round;stroke-miterlimit:10;stroke-dasharray:none;stroke-opacity:1"
             id="path3927" /></g><g
           id="g3929"
           transform="translate(447.93,94.37)"><path
             d="M 0,0 29.93,-5.34 C 45.34,-8.09 56.57,-21.5 56.57,-37.16 V -86.87 H -2.7"
             style="fill:none;stroke:#000000;stroke-width:15;stroke-linecap:round;stroke-linejoin:round;stroke-miterlimit:10;stroke-dasharray:none;stroke-opacity:1"
             id="path3931" /></g><g
           id="g3933"
           transform="translate(407.52,94.37)"><path
             d="M 0,0 -29.92,-5.34 C -45.34,-8.09 -56.56,-21.5 -56.56,-37.16 V -86.87 H 2.71"
             style="fill:none;stroke:#000000;stroke-width:15;stroke-linecap:round;stroke-linejoin:round;stroke-miterlimit:10;stroke-dasharray:none;stroke-opacity:1"
             id="path3935" /></g><g
           id="g3937"
           transform="translate(447.9309,115.941)"><path
             d="m 0,0 v -21.567 l -20.203,-28.285 -20.204,28.285 V 0"
             style="fill:none;stroke:#000000;stroke-width:15;stroke-linecap:round;stroke-linejoin:round;stroke-miterlimit:10;stroke-dasharray:none;stroke-opacity:1"
             id="path3939" /></g><g
           id="g3941"
           transform="translate(468.1342,167.1057)"><path
             d="m 0,0 v -16.163 c 0,-22.316 -18.091,-40.406 -40.407,-40.406 -22.315,0 -40.406,18.09 -40.406,40.406 V 0"
             style="fill:none;stroke:#000000;stroke-width:15;stroke-linecap:round;stroke-linejoin:round;stroke-miterlimit:10;stroke-dasharray:none;stroke-opacity:1"
             id="path3943" /></g><g
           id="g3945"
           transform="translate(468.1342,181.248)"><path
             d="M 0,0 C 0,22.316 -18.091,40.406 -40.407,40.406 -62.722,40.406 -80.813,22.316 -80.813,0 v -14.142 c 40.406,0 60.61,14.142 60.61,14.142 0,0 5.051,-14.142 20.203,-14.142 z"
             style="fill:none;stroke:#000000;stroke-width:15;stroke-linecap:round;stroke-linejoin:round;stroke-miterlimit:10;stroke-dasharray:none;stroke-opacity:1"
             id="path3947" /></g><g
           id="g3949"
           transform="translate(472.1748,7.5)"><path
             d="M 0,0 V 26.264"
             style="fill:none;stroke:#000000;stroke-width:15;stroke-linecap:round;stroke-linejoin:round;stroke-miterlimit:10;stroke-dasharray:none;stroke-opacity:1"
             id="path3951" /></g><g
           id="g3953"
           transform="translate(383.2805,7.5)"><path
             d="M 0,0 V 26.264"
             style="fill:none;stroke:#000000;stroke-width:15;stroke-linecap:round;stroke-linejoin:round;stroke-miterlimit:10;stroke-dasharray:none;stroke-opacity:1"
             id="path3955" /></g><g
           id="g3957"
           transform="translate(271.9739,256)"><path
             d="M 0,0 V 92.399"
             style="fill:none;stroke:#000000;stroke-width:15;stroke-linecap:round;stroke-linejoin:round;stroke-miterlimit:10;stroke-dasharray:none;stroke-opacity:1"
             id="path3959" /></g><g
           id="g3961"
           transform="translate(239.6927,256)"><path
             d="M 0,0 V 92.399"
             style="fill:none;stroke:#000000;stroke-width:15;stroke-linecap:round;stroke-linejoin:round;stroke-miterlimit:10;stroke-dasharray:none;stroke-opacity:1"
             id="path3963" /></g><g
           id="g3965"
           transform="translate(296.9615,256)"><path
             d="m 0,0 5.922,17.765 c 5.146,15.44 14.062,29.406 26.159,40.293 22.217,19.993 36.188,48.969 36.188,81.211 0,60.327 -48.904,109.231 -109.231,109.231 -60.326,0 -109.23,-48.904 -109.23,-109.231 0,-32.242 13.971,-61.218 36.188,-81.211 12.097,-10.887 21.013,-24.853 26.159,-40.293 L -81.923,0"
             style="fill:none;stroke:#000000;stroke-width:15;stroke-linecap:round;stroke-linejoin:round;stroke-miterlimit:10;stroke-dasharray:none;stroke-opacity:1"
             id="path3967" /></g><g
           id="g3969"
           transform="translate(307.5183,223.6748)"><path
             d="m 0,0 h -103.037 c -4.463,0 -8.081,3.618 -8.081,8.081 v 16.163 c 0,4.463 3.618,8.081 8.081,8.081 H 0 c 4.463,0 8.081,-3.618 8.081,-8.081 V 8.081 C 8.081,3.618 4.463,0 0,0 Z"
             style="fill:none;stroke:#000000;stroke-width:15;stroke-linecap:round;stroke-linejoin:round;stroke-miterlimit:10;stroke-dasharray:none;stroke-opacity:1"
             id="path3971" /></g><g
           id="g3973"
           transform="translate(211.39,223.67)"><path
             d="m 0,0 6.03,-38.64 c 0.79,-5.04 5.14,-8.77 10.25,-8.77 h 10.83"
             style="fill:none;stroke:#000000;stroke-width:15;stroke-linecap:round;stroke-linejoin:round;stroke-miterlimit:10;stroke-dasharray:none;stroke-opacity:1"
             id="path3975" /></g><g
           id="g3977"
           transform="translate(273.5,176.26)"><path
             d="m 0,0 h 10.5 c 5.11,0 9.45,3.73 10.24,8.77 l 6.04,38.64"
             style="fill:none;stroke:#000000;stroke-width:15;stroke-linecap:round;stroke-linejoin:round;stroke-miterlimit:10;stroke-dasharray:none;stroke-opacity:1"
             id="path3979" /></g><g
           id="g3981"
           transform="translate(365.2308,395.2692)"><path
             d="M 0,0 H 42.294 C 53.452,0 62.497,-9.045 62.497,-20.203 V -173.615"
             style="fill:none;stroke:#000000;stroke-width:15;stroke-linecap:round;stroke-linejoin:round;stroke-miterlimit:10;stroke-dasharray:none;stroke-opacity:1"
             id="path3983" /></g><g
           id="g3985"
           transform="translate(146.7692,395.2692)"><path
             d="M 0,0 H -42.294 C -53.452,0 -62.497,-9.045 -62.497,-20.203 V -173.615"
             style="fill:none;stroke:#000000;stroke-width:15;stroke-linecap:round;stroke-linejoin:round;stroke-miterlimit:10;stroke-dasharray:none;stroke-opacity:1"
             id="path3987" /></g><g
           id="g3989"
           transform="translate(255.8333,379.1066)"><path
             d="m 0,0 c -8.926,0 -16.163,7.236 -16.163,16.163 0,8.926 7.237,16.162 16.163,16.162 8.926,0 16.163,-7.236 16.163,-16.162 C 16.163,7.236 8.926,0 0,0 Z m 64.65,10.238 v 11.849 c 0,2.986 -2.175,5.527 -5.125,5.988 l -9.467,1.48 c -2.125,0.331 -3.942,1.753 -4.701,3.764 -0.356,0.943 -0.741,1.872 -1.153,2.786 -0.883,1.96 -0.605,4.249 0.662,5.985 l 5.648,7.74 c 1.76,2.412 1.501,5.747 -0.61,7.858 l -8.378,8.378 c -2.112,2.112 -5.447,2.371 -7.859,0.611 l -7.74,-5.648 c -1.736,-1.267 -4.025,-1.546 -5.985,-0.662 -0.913,0.412 -1.842,0.796 -2.785,1.152 -2.012,0.759 -3.433,2.577 -3.765,4.701 l -1.479,9.468 c -0.461,2.95 -3.003,5.125 -5.989,5.125 H -5.924 c -2.986,0 -5.528,-2.175 -5.989,-5.125 l -1.479,-9.468 c -0.332,-2.124 -1.753,-3.942 -3.765,-4.701 -0.943,-0.356 -1.872,-0.74 -2.785,-1.152 -1.96,-0.884 -4.249,-0.605 -5.985,0.662 l -7.74,5.648 c -2.412,1.76 -5.747,1.501 -7.859,-0.611 l -8.378,-8.378 c -2.111,-2.111 -2.37,-5.446 -0.61,-7.858 l 5.648,-7.74 c 1.267,-1.736 1.545,-4.025 0.662,-5.985 -0.412,-0.914 -0.797,-1.843 -1.153,-2.786 -0.759,-2.011 -2.576,-3.433 -4.701,-3.764 l -9.467,-1.48 c -2.95,-0.461 -5.125,-3.002 -5.125,-5.988 V 10.238 c 0,-2.986 2.175,-5.527 5.125,-5.988 l 9.467,-1.479 c 2.125,-0.332 3.942,-1.754 4.701,-3.765 0.356,-0.943 0.741,-1.872 1.153,-2.786 0.883,-1.959 0.605,-4.248 -0.662,-5.985 l -5.648,-7.74 c -1.76,-2.412 -1.501,-5.747 0.61,-7.858 l 8.378,-8.378 c 2.112,-2.112 5.447,-2.371 7.859,-0.61 l 7.74,5.647 c 1.736,1.268 4.025,1.546 5.985,0.662 0.913,-0.412 1.842,-0.796 2.785,-1.152 2.012,-0.759 3.433,-2.577 3.765,-4.701 l 1.479,-9.467 c 0.461,-2.951 3.003,-5.126 5.989,-5.126 H 5.924 c 2.986,0 5.528,2.175 5.989,5.126 l 1.479,9.467 c 0.332,2.124 1.753,3.942 3.765,4.701 0.943,0.356 1.872,0.74 2.785,1.152 1.96,0.884 4.249,0.606 5.985,-0.662 l 7.74,-5.647 c 2.412,-1.761 5.747,-1.502 7.859,0.61 l 8.378,8.378 c 2.111,2.111 2.37,5.446 0.61,7.858 l -5.648,7.74 c -1.267,1.737 -1.545,4.026 -0.662,5.985 0.412,0.914 0.797,1.843 1.153,2.786 0.759,2.011 2.576,3.433 4.701,3.765 l 9.467,1.479 c 2.95,0.461 5.125,3.002 5.125,5.988 z"
             style="fill:none;stroke:#000000;stroke-width:15;stroke-linecap:round;stroke-linejoin:round;stroke-miterlimit:10;stroke-dasharray:none;stroke-opacity:1"
             id="path3991" /></g></g></g></g></svg>
