<svg id="AI_Integration" viewBox="0 0 64 64" xmlns="http://www.w3.org/2000/svg" data-name="AI Integration"><path d="m55.16 33c.43 1.44 1.76 2.5 3.34 2.5 1.93 0 3.5-1.57 3.5-3.5s-1.57-3.5-3.5-3.5c-1.58 0-2.9 1.06-3.34 2.5h-7.21c-.09-1.39-.34-2.73-.76-4h4.81c.27 0 .52-.11.71-.29l3.01-3.01c.39.19.82.3 1.29.3 1.65 0 3-1.35 3-3s-1.35-3-3-3-3 1.35-3 3c0 .46.11.89.3 1.29l-2.71 2.71h-5.22c-1.57-3.2-4.16-5.8-7.37-7.37v-5.22l2.71-2.71c.39.19.82.3 1.29.3 1.65 0 3-1.35 3-3s-1.35-3-3-3-3 1.35-3 3c0 .46.11.89.3 1.29l-3.01 3.01c-.19.19-.29.44-.29.71v4.81c-1.27-.42-2.61-.67-4-.76v-7.21c1.44-.43 2.5-1.76 2.5-3.34 0-1.93-1.57-3.5-3.5-3.5s-3.5 1.57-3.5 3.5c0 1.58 1.06 2.9 2.5 3.34v7.21c-1.39.09-2.73.34-4 .76v-4.81c0-.27-.11-.52-.29-.71l-3.01-3.01c.19-.39.3-.82.3-1.29 0-1.65-1.35-3-3-3s-3 1.35-3 3 1.35 3 3 3c.46 0 .89-.11 1.29-.3l2.71 2.71v5.22c-3.2 1.57-5.8 4.16-7.37 7.37h-5.22l-2.71-2.71c.19-.39.3-.82.3-1.29 0-1.65-1.35-3-3-3s-3 1.35-3 3 1.35 3 3 3c.46 0 .89-.11 1.29-.3l3.01 3.01c.19.19.44.29.71.29h4.81c-.42 1.27-.67 2.61-.76 4h-7.21c-.43-1.44-1.76-2.5-3.34-2.5-1.93 0-3.5 1.57-3.5 3.5s1.57 3.5 3.5 3.5c1.58 0 2.9-1.06 3.34-2.5h7.21c.09 1.39.34 2.73.76 4h-4.81c-.27 0-.52.11-.71.29l-3.01 3.01c-.39-.19-.82-.3-1.29-.3-1.65 0-3 1.35-3 3s1.35 3 3 3 3-1.35 3-3c0-.46-.11-.89-.3-1.29l2.71-2.71h5.22c1.57 3.2 4.16 5.8 7.37 7.37v5.22l-2.71 2.71c-.39-.19-.82-.3-1.29-.3-1.65 0-3 1.35-3 3s1.35 3 3 3 3-1.35 3-3c0-.46-.11-.89-.3-1.29l3.01-3.01c.19-.19.29-.44.29-.71v-4.81c1.27.42 2.61.67 4 .76v7.21c-1.44.43-2.5 1.76-2.5 3.34 0 1.93 1.57 3.5 3.5 3.5s3.5-1.57 3.5-3.5c0-1.58-1.06-2.9-2.5-3.34v-7.21c1.39-.09 2.73-.34 4-.76v4.81c0 .27.11.52.29.71l3.01 3.01c-.19.39-.3.82-.3 1.29 0 1.65 1.35 3 3 3s3-1.35 3-3-1.35-3-3-3c-.46 0-.89.11-1.29.3l-2.71-2.71v-5.22c3.2-1.57 5.8-4.16 7.37-7.37h5.22l2.71 2.71c-.19.39-.3.82-.3 1.29 0 1.65 1.35 3 3 3s3-1.35 3-3-1.35-3-3-3c-.46 0-.89.11-1.29.3l-3.01-3.01c-.19-.19-.44-.29-.71-.29h-4.81c.42-1.27.67-2.61.76-4zm1.84-13c.55 0 1 .45 1 1s-.45 1-1 1c-.27 0-.52-.11-.7-.29 0 0 0 0 0-.01s0 0-.01 0c-.18-.18-.29-.42-.29-.7 0-.55.45-1 1-1zm-14-14c.55 0 1 .45 1 1s-.45 1-1 1c-.27 0-.52-.11-.7-.29 0 0 0 0 0-.01s0 0-.01 0c-.18-.18-.29-.42-.29-.7 0-.55.45-1 1-1zm-23 1c0-.55.45-1 1-1s1 .45 1 1c0 .27-.11.52-.29.7 0 0 0 0-.01 0s0 0 0 .01c-.18.18-.42.29-.7.29-.55 0-1-.45-1-1zm-14 14c0-.55.45-1 1-1s1 .45 1 1c0 .27-.11.52-.29.7 0 0 0 0-.01 0s0 0 0 .01c-.18.18-.42.29-.7.29-.55 0-1-.45-1-1zm1 23c-.55 0-1-.45-1-1s.45-1 1-1c.27 0 .52.11.7.29v.01s0 0 .01 0c.18.18.29.42.29.7 0 .55-.45 1-1 1zm14 14c-.55 0-1-.45-1-1s.45-1 1-1c.27 0 .52.11.7.29v.01s0 0 .01 0c.18.18.29.42.29.7 0 .55-.45 1-1 1zm23-1c0 .55-.45 1-1 1s-1-.45-1-1c0-.27.11-.52.29-.7h.01s0 0 0-.01c.18-.18.42-.29.7-.29.55 0 1 .45 1 1zm14-14c0 .55-.45 1-1 1s-1-.45-1-1c0-.27.11-.52.29-.7h.01s0 0 0-.01c.18-.18.42-.29.7-.29.55 0 1 .45 1 1zm.5-12.5c.83 0 1.5.67 1.5 1.5s-.67 1.5-1.5 1.5-1.5-.67-1.5-1.5.67-1.5 1.5-1.5zm-28-25c0-.83.67-1.5 1.5-1.5s1.5.67 1.5 1.5-.67 1.5-1.5 1.5-1.5-.67-1.5-1.5zm-25 28c-.83 0-1.5-.67-1.5-1.5s.67-1.5 1.5-1.5 1.5.67 1.5 1.5-.67 1.5-1.5 1.5zm28 25c0 .83-.67 1.5-1.5 1.5s-1.5-.67-1.5-1.5.67-1.5 1.5-1.5 1.5.67 1.5 1.5zm-1.5-12.5c-7.72 0-14-6.28-14-14s6.28-14 14-14 14 6.28 14 14-6.28 14-14 14z"/><path d="m41.79 33.04s0 0 0 0l-.82-.47c.01-.2.02-.38.02-.56s0-.37-.02-.56l.82-.47c.95-.55 1.28-1.78.73-2.73l-2-3.46c-.27-.46-.7-.79-1.21-.93s-1.05-.07-1.52.2l-.82.47c-.31-.21-.64-.4-.98-.57v-.94c0-1.1-.9-2-2-2h-4c-1.1 0-2 .9-2 2v.94c-.34.17-.66.36-.98.57l-.82-.47c-.46-.27-1-.34-1.52-.2s-.95.47-1.21.93l-2 3.46c-.55.95-.22 2.18.73 2.73l.82.47c-.01.2-.02.38-.02.56s0 .37.02.56l-.82.47c-.95.55-1.28 1.78-.73 2.73l2 3.46c.27.46.7.79 1.21.93.52.14 1.05.07 1.52-.2l.82-.47c.31.21.64.4.98.57v.94c0 1.1.9 2 2 2h4c1.1 0 2-.9 2-2v-.94c.34-.17.66-.36.98-.57l.82.47c.46.27 1 .34 1.52.2s.95-.47 1.21-.93l2-3.46c.55-.95.22-2.18-.73-2.73zm-2.79-1.04c0 .29-.02.59-.08.97-.06.4.14.8.49 1l1.38.8-2 3.46-1.38-.8c-.35-.2-.79-.17-1.12.08-.52.4-1.08.73-1.68.97-.38.15-.62.52-.62.93v1.59h-4v-1.59c0-.41-.25-.77-.62-.93-.6-.24-1.16-.57-1.68-.97-.18-.14-.4-.21-.62-.21-.17 0-.34.04-.5.13l-1.38.8-2-3.46 1.38-.8c.35-.2.55-.6.49-1-.05-.38-.08-.68-.08-.97s.02-.59.08-.97c.06-.4-.14-.8-.49-1l-1.38-.8 2-3.46 1.38.8c.35.2.79.17 1.12-.08.52-.4 1.08-.73 1.68-.97.38-.15.62-.52.62-.93v-1.59h4v1.59c0 .41.25.77.62.93.6.24 1.16.57 1.68.97.32.25.76.28 1.12.08l1.38-.8 2 3.46-1.38.8c-.35.2-.55.6-.49 1 .05.38.08.68.08.97z"/><path d="m34.79 28.79-3.79 3.79-1.79-1.79c-.39-.39-1.02-.39-1.41 0s-.39 1.02 0 1.41l2.5 2.5c.2.2.45.29.71.29s.51-.1.71-.29l4.5-4.5c.39-.39.39-1.02 0-1.41s-1.02-.39-1.41 0z"/></svg>