<?xml version="1.0"?>
<svg xmlns="http://www.w3.org/2000/svg" id="line" viewBox="0 0 64 64"><path d="M57.1167,20.88805a3.783,3.783,0,0,0-6.17328,3.02015L50.89093,32.837a3.68071,3.68071,0,0,0-3.67316.94073l-7.22363,7.20947a5.11114,5.11114,0,0,0-1.4917,3.61915l-.002,5.5791.02106,2.31152H37.26123a1,1,0,0,0-1,1v5.50293a1,1,0,0,0,1,1H53.01855a1,1,0,0,0,1-1V53.49694c-.05542-1.34131-1.61492-.94476-2.49182-1,.041-.86713-.26642-2.40778.49182-3.05225l4.8628-4.86621a5.18033,5.18033,0,0,0,1.50732-3.61816l.05615-17.20752A3.73774,3.73774,0,0,0,57.1167,20.88805ZM52.01855,54.49694v3.50293H38.26123V54.49694S51.61377,54.49706,52.01855,54.49694ZM56.38867,40.951a3.16637,3.16637,0,0,1-.92041,2.21192l-4.87109,4.87451c-1.22864,1.10657-1.12488,2.95465-1.0705,4.45947h-9.005c-.025-1.48657-.022-6.32367-.01923-7.89258a3.16226,3.16226,0,0,1,.91016-2.207l7.22021-7.206a1.74822,1.74822,0,0,1,2.52045,2.42047c-.04334.066-6.80194,6.80249-6.855,6.86334A1.00009,1.00009,0,0,0,45.71246,45.889l6.81391-6.8139a3.757,3.757,0,0,0,.35644-4.84015l.06055-10.32148A1.77381,1.77381,0,0,1,55.82379,22.414a1.74042,1.74042,0,0,1,.621,1.333Z"/><path d="M26.73877,52.49694H25.47839l.02112-2.32178-.002-5.56591a5.11918,5.11918,0,0,0-1.49707-3.62793l-7.21631-7.20118a3.695,3.695,0,0,0-3.67517-.94787l-.05237-8.91785a3.78268,3.78268,0,0,0-6.1734-3.02624,3.73792,3.73792,0,0,0-1.32806,2.8656l.05615,17.209A5.17944,5.17944,0,0,0,7.1167,44.577l4.8584,4.86084c.76935.652.45575,2.19824.49811,3.05908H10.98145a1,1,0,0,0-1,1v5.50293a1,1,0,0,0,1,1H26.73877a1,1,0,0,0,1-1V53.49694A1,1,0,0,0,26.73877,52.49694Zm-18.209-9.33545a3.16544,3.16544,0,0,1-.91846-2.208L7.55518,23.74792a1.75373,1.75373,0,1,1,3.5014.17193l.06061,10.315a3.757,3.757,0,0,0,.35888,4.84216l6.81153,6.812a1.00009,1.00009,0,0,0,1.414-1.41412l-6.80414-6.80414a1.74976,1.74976,0,0,1,2.47174-2.477L22.582,42.39147a3.17018,3.17018,0,0,1,.91553,2.21582c-.00128,1.58222.00964,6.37079-.01929,7.88965H14.47339c.0509-1.52521.16748-3.3338-1.07691-4.46631Zm17.209,14.83838H11.98145V54.49694c.37414.00024,13.75732,0,13.75732,0Z"/><path d="M47.34442,26.79852c.18268.65539.146-18.88312.12091-19.09357a.99988.99988,0,0,0-1.00006-.99988c-5.0935-.09766-9.98907-.48065-13.95257-2.5636a1.00008,1.00008,0,0,0-1.02533.00012C27.527,6.22173,22.62555,6.608,17.53467,6.705a1.00025,1.00025,0,0,0-1.00012,1.00012c.07324.06726-.15937,19.97766.13134,19.09772C17.82825,32.626,30.19177,39.37585,32,39.99987,33.82184,39.36736,46.16168,32.6361,47.34442,26.79852ZM32,37.868c-3.90869-2.10449-12.728-7.5791-13.36377-11.40869a6.44666,6.44666,0,0,1-.10156-1.17285V8.69567C23.47589,8.53,28.03082,8.05181,32,6.144c3.96826,1.90638,8.52722,2.3863,13.46533,2.5517V25.28649a7.34728,7.34728,0,0,1-.09472,1.187C44.73145,30.28551,35.90918,35.76257,32,37.868Z"/><path d="M38.23047,17.23962l-3.54541-.32325L33.28271,13.644a1.405,1.405,0,0,0-2.56542.00043l-1.40235,3.272-3.5459.32373a1.39565,1.39565,0,0,0-.792,2.43995l2.67871,2.34472-.78906,3.46967a1.40564,1.40564,0,0,0,1.36084,1.70563c.51575.127,3.22955-1.77027,3.77246-2.01954l3.05762,1.82227a1.39551,1.39551,0,0,0,2.07568-1.5083l-.78906-3.46973L39.023,19.68005a1.396,1.396,0,0,0-.79248-2.44043Zm-3.4751,3.51757a1.39369,1.39369,0,0,0-.44141,1.35938l.55616,2.44629-2.1543-1.28418a1.3941,1.3941,0,0,0-1.43066-.00049l-2.15528,1.28467.55616-2.44629a1.39369,1.39369,0,0,0-.44141-1.35938L27.355,19.10339l2.499-.22754a1.39691,1.39691,0,0,0,1.15674-.83985L32,15.72839l.99023,2.31054a1.39642,1.39642,0,0,0,1.15528.83692l2.49951.22754Z"/></svg>
