<svg id="Layer_1" enable-background="new 0 0 512 512" viewBox="0 0 512 512" xmlns="http://www.w3.org/2000/svg"><path d="m168.575 171.496c-3.088 1.188-5.126 4.156-5.126 7.466v24.862c0 3.31 2.038 6.277 5.126 7.466l11.41 4.392c1.764 6.062 4.186 11.902 7.233 17.445l-4.966 11.182c-1.344 3.024-.686 6.563 1.654 8.904l17.581 17.581c2.339 2.34 5.879 2.998 8.903 1.654l11.177-4.964c5.542 3.047 11.386 5.47 17.452 7.234l4.39 11.406c1.188 3.088 4.156 5.126 7.466 5.126h24.863c3.31 0 6.277-2.038 7.466-5.126l4.392-11.41c6.061-1.764 11.902-4.186 17.445-7.232l11.182 4.966c3.024 1.345 6.564.686 8.904-1.654l17.581-17.58c2.34-2.341 2.998-5.88 1.655-8.904l-4.964-11.177c3.048-5.543 5.47-11.386 7.235-17.452l11.405-4.39c3.089-1.188 5.126-4.156 5.126-7.466v-24.863c0-3.31-2.038-6.277-5.126-7.466l-11.41-4.392c-1.764-6.062-4.186-11.902-7.233-17.445l4.966-11.182c1.343-3.024.686-6.563-1.655-8.903l-17.58-17.581c-2.339-2.342-5.881-2.995-8.904-1.655l-11.177 4.964c-5.544-3.047-11.387-5.47-17.452-7.234l-4.39-11.406c-1.188-3.088-4.156-5.126-7.466-5.126h-24.863c-3.31 0-6.277 2.038-7.466 5.126l-4.391 11.409c-6.064 1.764-11.906 4.186-17.448 7.232l-11.179-4.965c-3.025-1.344-6.564-.686-8.904 1.654l-17.581 17.581c-2.34 2.341-2.998 5.88-1.654 8.904l4.966 11.182c-3.047 5.543-5.469 11.384-7.233 17.445zm20.97 9.072c2.461-.947 4.298-3.048 4.909-5.613 1.733-7.282 4.608-14.218 8.546-20.614 1.383-2.247 1.569-5.03.499-7.441l-4.395-9.896 9.813-9.812 9.895 4.395c2.412 1.071 5.195.883 7.442-.5 6.393-3.937 13.328-6.812 20.614-8.546 2.566-.61 4.667-2.446 5.614-4.908l3.886-10.096h13.877l3.885 10.093c.947 2.461 3.047 4.298 5.614 4.908 7.287 1.734 14.224 4.61 20.619 8.549 2.247 1.383 5.031 1.568 7.442.499l9.893-4.394 9.812 9.812-4.396 9.897c-1.071 2.411-.884 5.195.5 7.441 3.938 6.396 6.813 13.331 8.546 20.613.611 2.565 2.447 4.666 4.909 5.613l10.096 3.887v13.877l-10.092 3.885c-2.462.947-4.298 3.048-4.909 5.614-1.734 7.287-4.61 14.225-8.547 20.618-1.384 2.247-1.571 5.031-.5 7.442l4.394 9.893-9.812 9.812-9.899-4.396c-2.411-1.071-5.195-.885-7.441.499-6.396 3.938-13.332 6.813-20.613 8.547-2.566.61-4.667 2.446-5.614 4.908l-3.886 10.097h-13.877l-3.885-10.093c-.947-2.461-3.047-4.298-5.614-4.908-7.289-1.735-14.226-4.61-20.619-8.548-2.246-1.382-5.029-1.57-7.441-.499l-9.893 4.393-9.812-9.812 4.395-9.896c1.071-2.411.884-5.194-.499-7.441-3.938-6.396-6.813-13.332-8.546-20.614-.611-2.565-2.447-4.666-4.909-5.613l-10.096-3.887v-13.876zm310.422 154.127-55.667-47.265c-3.437-2.918-8.113-3.558-12.203-1.663-4.089 1.893-6.63 5.869-6.63 10.379v17.184h-26.94c29.995-33.287 46.877-76.738 46.877-121.938 0-100.408-81.688-182.097-182.097-182.097-34.675 0-68.401 9.787-97.532 28.303-26.087 16.582-47.48 39.438-62.26 66.431l-15.568-7.644c-4.047-1.986-8.737-1.459-12.238 1.379-3.5 2.837-4.988 7.315-3.883 11.687l17.893 70.801c.825 3.26 3.029 5.979 6.048 7.461 3.019 1.48 6.518 1.562 9.599.219l66.96-29.14c4.135-1.8 6.767-5.717 6.871-10.222.103-4.504-2.347-8.536-6.395-10.523l-15.208-7.467c21.75-37.901 61.561-61.125 105.714-61.125 67.236 0 121.938 54.701 121.938 121.938 0 67.226-54.691 121.927-121.915 121.938h-46.852v-9.589c0-4.239-1.584-8.065-4.583-11.065l-42.945-42.944c-2.999-2.997-6.825-4.582-11.064-4.582h-134.239c-8.628-.002-15.648 7.017-15.648 15.646v226.259c0 8.629 7.02 15.648 15.648 15.648h177.18c8.628 0 15.648-7.02 15.648-15.648v-113.566h208.99v17.185c0 4.51 2.541 8.487 6.631 10.379 1.559.722 3.202 1.075 4.83 1.075 2.644 0 5.246-.934 7.372-2.739l55.666-47.263c2.563-2.176 4.034-5.353 4.034-8.715.001-3.364-1.469-6.54-4.032-8.717zm-330.914-62.232 20.109 20.11h-20.109zm-145.053 214.242v-225.556l129.053.001v35.599c0 6.52 5.304 11.824 11.824 11.824h35.6v178.132zm417.467-105.9v-15.315c0-4.418-3.582-8-8-8h-216.99v-28.16h46.854c76.046-.013 137.914-61.891 137.914-137.938 0-76.059-61.878-137.938-137.938-137.938-26.266 0-51.814 7.414-73.882 21.44-21.47 13.646-38.743 32.904-49.952 55.694-.937 1.904-1.078 4.104-.393 6.112s2.141 3.664 4.046 4.6l13.765 6.758-52.979 23.056-14.157-56.018 13.727 6.739c3.964 1.949 8.755.312 10.705-3.649 28.184-57.298 85.323-92.892 149.121-92.892 91.586 0 166.097 74.511 166.097 166.097 0 47.274-20.253 92.46-55.567 123.968-2.476 2.21-3.331 5.719-2.149 8.819 1.182 3.102 4.156 5.15 7.475 5.15h54.304c4.418 0 8-3.582 8-8v-15.315l44.044 37.396zm-267.323 57.566c0 4.418-3.582 8-8 8h-107.811c-4.418 0-8-3.582-8-8s3.582-8 8-8h107.811c4.418 0 8 3.582 8 8zm-78.959-42.55 18.652-69.612c1.144-4.268 5.531-6.797 9.798-5.657 4.268 1.144 6.801 5.53 5.657 9.798l-18.652 69.612c-.958 3.574-4.19 5.932-7.723 5.932-.686 0-1.382-.089-2.075-.274-4.268-1.145-6.8-5.532-5.657-9.799zm-15.686-1.007-30.393-25.611c-1.804-1.52-2.845-3.759-2.845-6.117s1.041-4.598 2.845-6.117l30.393-25.611c3.378-2.848 8.425-2.418 11.273.962 2.847 3.379 2.416 8.426-.962 11.272l-23.133 19.494 23.133 19.494c3.378 2.847 3.81 7.894.962 11.272-1.583 1.877-3.845 2.845-6.122 2.845-1.82 0-3.65-.617-5.151-1.883zm98.717-31.729c0 2.358-1.041 4.598-2.845 6.117l-30.393 25.611c-1.501 1.265-3.331 1.883-5.151 1.883-2.277 0-4.539-.967-6.122-2.845-2.847-3.379-2.416-8.426.962-11.272l23.133-19.494-23.133-19.494c-3.378-2.847-3.81-7.894-.962-11.272s7.895-3.811 11.273-.962l30.393 25.611c1.804 1.52 2.845 3.759 2.845 6.117zm85.091-120.574c28.187 0 51.118-22.932 51.118-51.118s-22.932-51.118-51.118-51.118-51.118 22.932-51.118 51.118 22.931 51.118 51.118 51.118zm0-86.236c19.364 0 35.118 15.754 35.118 35.118s-15.754 35.118-35.118 35.118-35.118-15.754-35.118-35.118 15.754-35.118 35.118-35.118z"/></svg>