<svg id="Layer_1" enable-background="new 0 0 68 68" viewBox="0 0 68 68" xmlns="http://www.w3.org/2000/svg"><g><g><path d="m49.37354 32.45947c.0376-.32422.05664-.65137.05664-.97852 0-4.64038-3.77509-8.41559-8.41486-8.41595-.00006 0-.00012-.00006-.00018-.00006s-.00012 0-.00018 0c-.00012 0-.00018 0-.00031 0-1.58659 0-3.15753.48175-4.36621 1.21875-2.07764-2.39355-5.1167-3.79688-8.31006-3.79688-5.41228 0-9.95252 3.92576-10.8374 9.13672l-.04053.0166c-5.04555 2.2361-5.01034 7.17267-5.04736 7.27539-.31051 3.93316 2.62408 8.86035 8.40283 8.86035.11963 0 .23975-.00195.30518-.00684.11572-.00098 4.30029.00098 9.35352.00195l9.95264.00293h.00049c.55225 0 1-.44727 1-1 0-.55176-.44727-1-1-1l-9.95265-.00291c-9.35498-.00195-9.36084-.00195-9.4209 0-.07861.00488-.15869.00488-.23828.00488-3.5376 0-6.41553-2.87793-6.41553-6.41504l.03271-.65723c.32411-3.12938 2.58337-4.41344 2.93787-4.75488.06348 1.5271.41937 2.99634 1.09338 4.36914.24161.49411.83971.70097 1.33789.45703.49609-.24316.70068-.8418.45752-1.33789-.8064-1.64262-1.10901-3.49241-.78168-5.45129.71893-4.30505 4.44104-7.4989 8.86029-7.4989 2.58734 0 5.04449 1.1333 6.74292 3.05786-.70142.69879-1.29938 1.51056-1.72437 2.44019-.22949.50293-.0083 1.0957.49414 1.3252.50431.23023 1.09638.00704 1.3252-.49316.99537-2.17829 3.28039-3.75024 5.83435-3.75165.00146 0 .00287-.00031.00433-.00031 3.53735.00012 6.41522 2.87805 6.41522 6.41602 0 .30219-.02631.60254-.06824.90051-1.68109.18451-3.29333.98505-4.41858 2.29871-.35889.41992-.31006 1.05078.10938 1.41016.42141.36028 1.05311.3085 1.41016-.10938.94312-1.10223 2.36835-1.69897 3.79059-1.6413 2.50128.10559 4.52435 2.19806 4.52435 4.71259 0 2.60449-2.11914 4.72363-4.72412 4.72363h-1.93652c-.55225 0-1 .44727-1 1s.44775 1 1 1h1.93652c3.70752 0 6.72412-3.0166 6.72412-6.72363.00001-3.22462-2.3369-5.97072-5.40428-6.59279z"/><path d="m32.59131 12.62726v6.38202c0 .55273.44775 1 1 1s1-.44727 1-1v-6.3833c2.11499-.4613 3.70557-2.34399 3.70557-4.59521 0-2.5957-2.11182-4.70703-4.70752-4.70703-2.59619 0-4.70801 2.11133-4.70801 4.70703 0 2.25274 1.59253 4.13671 3.70996 4.59649zm.99805-7.30353c1.49316 0 2.70752 1.21484 2.70752 2.70703 0 1.49316-1.21436 2.70801-2.70752 2.70801s-2.70801-1.21484-2.70801-2.70801c0-1.49219 1.21484-2.70703 2.70801-2.70703z"/><path d="m10.38135 24.59912c1.42194 0 2.68329-.64722 3.54718-1.64722l2.8288 1.5271c.48132.26084 1.09101.08415 1.35498-.40527.26221-.48535.08105-1.0918-.40479-1.35449l-2.82507-1.52509c.12103-.41656.20642-.84796.20642-1.30304 0-2.5957-2.11182-4.70801-4.70752-4.70801-2.59619 0-4.70801 2.1123-4.70801 4.70801s2.11182 4.70801 4.70801 4.70801zm0-7.41601c1.49316 0 2.70752 1.21484 2.70752 2.70801s-1.21436 2.70801-2.70752 2.70801-2.70801-1.21484-2.70801-2.70801 1.21484-2.70801 2.70801-2.70801z"/><path d="m34.59131 55.37305v-6.90186c0-.55273-.44775-1-1-1s-1 .44727-1 1v6.90057c-2.11743.45978-3.70996 2.34375-3.70996 4.5965 0 2.5957 2.11182 4.70801 4.70801 4.70801 2.5957 0 4.70752-2.1123 4.70752-4.70801 0-2.25122-1.59058-4.13391-3.70557-4.59521zm-1.00195 7.30322c-1.49316 0-2.70801-1.21484-2.70801-2.70801s1.21484-2.70801 2.70801-2.70801 2.70752 1.21484 2.70752 2.70801-1.21436 2.70801-2.70752 2.70801z"/><path d="m61.29199 44.56104c-1.23047 0-2.34283.48511-3.18243 1.26068l-2.65594-1.8642c-.45215-.31836-1.07617-.20801-1.39307.24414-.31738.45215-.20801 1.0752.24365 1.39258l2.64642 1.85748c-.23492.55933-.36615 1.17267-.36615 1.81635 0 2.5957 2.11182 4.70801 4.70752 4.70801 2.59619 0 4.70801-2.1123 4.70801-4.70801s-2.11182-4.70703-4.70801-4.70703zm0 7.41503c-1.49316 0-2.70752-1.21484-2.70752-2.70801 0-1.46307 1.20259-2.70703 2.70752-2.70703 1.49316 0 2.70801 1.21484 2.70801 2.70703 0 1.49317-1.21484 2.70801-2.70801 2.70801z"/><path d="m49.25537 25.2251 3.43634-2.0885c.85773.89703 2.05896 1.46252 3.3952 1.46252 2.59619 0 4.70801-2.1123 4.70801-4.70801s-2.11182-4.70801-4.70801-4.70801-4.70801 2.1123-4.70801 4.70801c0 .53986.11017 1.05035.2782 1.53375l-3.4408 2.09125c-.47168.28711-.62207.90234-.33496 1.37402.28502.46936.89939.62289 1.37403.33497zm6.83154-8.04199c1.49316 0 2.70801 1.21484 2.70801 2.70801s-1.21484 2.70801-2.70801 2.70801-2.70801-1.21484-2.70801-2.70801 1.21485-2.70801 2.70801-2.70801z"/><path d="m12.41748 43.92725-2.45404 1.52655c-.84668-.81427-1.99121-1.32147-3.25592-1.32147-2.5957-.00001-4.70752 2.1123-4.70752 4.708s2.11182 4.70801 4.70752 4.70801c2.59619 0 4.70801-2.1123 4.70801-4.70801 0-.61017-.12549-1.18958-.33771-1.72516l2.3963-1.49066c.46875-.29102.6123-.9082.3208-1.37695-.29199-.46973-.9082-.61328-1.37744-.32031zm-5.70996 7.62109c-1.49316 0-2.70752-1.21484-2.70752-2.70801s1.21436-2.70801 2.70752-2.70801 2.70801 1.21484 2.70801 2.70801-1.21485 2.70801-2.70801 2.70801z"/><path d="m29.06738 40.02881c.55225 0 1-.44727 1-1v-4.98242l.91016.91016c.39061.39061 1.02343.39064 1.41406 0 .39063-.39063.39063-1.02344 0-1.41406l-2.61652-2.61652c-.39002-.39079-1.02856-.38761-1.41541 0l-2.61652 2.61652c-.39063.39063-.39063 1.02344 0 1.41406s1.02344.39063 1.41406 0l.91016-.91016v4.98242c.00001.55273.44777 1 1.00001 1z"/><path d="m40.02148 35.70459-.91064.9104v-4.98267c0-.55273-.44775-1-1-1s-1 .44727-1 1v4.98242l-.91016-.91016c-.39063-.39063-1.02344-.39063-1.41406 0s-.39063 1.02344 0 1.41406l2.61652 2.61652c.38253.38329 1.01966.39652 1.41541 0l2.617-2.61652c.39063-.39063.39063-1.02344 0-1.41406s-1.02344-.39062-1.41407.00001z"/></g></g></svg>