<svg id="Layer_1" enable-background="new 0 0 500 500" viewBox="0 0 500 500" xmlns="http://www.w3.org/2000/svg"><path clip-rule="evenodd" d="m151.158 97.953c57.926-38.294 133.158-39.404 192.196-2.81 3.981-1.86 8.201-3.28 12.597-4.198-14.632-14.958-14.494-38.895.298-53.688 14.91-14.91 39.08-14.91 53.99 0 14.791 14.791 14.93 38.723.304 53.683 26.584 5.524 46.315 29.177 46.315 56.884v51.565c0 2.106-.347 4.135-.986 6.036l8.013-.017c3.493 0 6.324 2.831 6.324 6.324s-2.831 6.324-6.324 6.324l-38.277.081c4.937 30.4 1.974 61.321-8.385 89.8-6.92 19.022-16.968 36.521-29.516 51.871v66.347h42.012c3.506 0 6.349 2.842 6.349 6.349v17.586c0 13.176-10.758 23.934-23.934 23.934h-325.34c-13.176 0-23.934-10.758-23.934-23.934v-17.586c0-3.506 2.842-6.349 6.349-6.349h42.013v-66.348c-12.548-15.351-22.596-32.85-29.516-51.872-10.32-28.371-13.301-59.163-8.439-89.464h-37.129c-3.506 0-6.349-2.842-6.349-6.349 0-3.506 2.842-6.349 6.349-6.349h21.883v-18.023l-21.804-8.451c-2.509-.97-4.047-3.364-4.048-5.902h-.02v-25.671c0-27.707 19.731-51.36 46.315-56.884-14.626-14.959-14.487-38.892.304-53.682 14.91-14.91 39.08-14.911 53.99 0 14.79 14.79 14.93 38.724.304 53.682 6.488 1.348 12.587 3.786 18.096 7.111zm82.383 304.838c-4.101-6.349-7.276-13.287-9.469-20.601h-13.912c5.23 9.314 13.42 16.705 23.381 20.601zm-12.224-33.298c-1.066-7.756-1.066-15.704 0-23.46h-16.112c-1.825 7.667-1.825 15.793 0 23.46zm2.755-36.158c2.192-7.313 5.368-14.252 9.469-20.601-9.962 3.897-18.15 11.286-23.381 20.601zm25.392-20.791c-5.17 5.995-9.275 13.078-12.05 20.792h24.1c-2.777-7.719-6.875-14.792-12.05-20.792zm-15.317 33.489c-1.243 7.719-1.243 15.741 0 23.46h30.635c1.243-7.715 1.242-15.745 0-23.46zm3.267 36.157c2.776 7.715 6.878 14.795 12.05 20.792 5.175-6 9.272-13.074 12.05-20.792zm27.974-69.455c4.1 6.348 7.276 13.288 9.469 20.6h13.912c-5.231-9.315-13.419-16.702-23.381-20.6zm12.224 33.298c1.066 7.754 1.066 15.706 0 23.46h16.112c1.825-7.667 1.825-15.792 0-23.46zm-2.755 36.157c-2.192 7.311-5.368 14.253-9.468 20.6 9.961-3.897 18.149-11.286 23.38-20.6zm-25.393-85.153c-32.747 0-58.325 27.807-58.325 60.725 0 32.919 25.578 60.725 58.325 60.725s58.325-27.806 58.325-60.725c0-32.918-25.577-60.725-58.325-60.725zm47.678 141.815v3.323c0 8.824-7.196 16.02-16.02 16.02h-63.316c-8.824 0-16.02-7.196-16.02-16.02v-3.323h-126.229v11.237c0 6.168 5.069 11.237 11.237 11.237h325.34c6.168 0 11.237-5.069 11.237-11.237v-11.237zm-82.658 0c0 2.296-.366 4.318.981 5.664.605.605 1.435.981 2.342.981h63.316c1.815 0 3.322-1.508 3.322-3.323v-3.323h-69.961zm160.526-12.698v-158.077c0-2.793-2.292-5.085-5.085-5.085h-240.922c-2.793 0-5.084 2.292-5.084 5.085v158.077h9.285v-147.528c0-3.506 2.842-6.349 6.349-6.349h219.824c3.506 0 6.349 2.842 6.349 6.349v147.528zm-229.109 0h207.127v-141.18h-207.127zm241.806-87.669c23.383-35.222 32.414-78.325 25.071-120.323l-19.651.041c-.579.174-1.192.267-1.827.267-1.032 0-2.046-.088-3.039-.257l-110.451.232c-3.493 0-6.324-2.831-6.324-6.324s2.831-6.324 6.324-6.324l29.521-.062-21.03-66.998c-1.584-4.545 1.716-8.623 5.929-8.623h20.198c3.509-10.872 10.155-20.372 18.86-27.419-52.705-29.96-118.056-28.612-169.481 3.493 10.837 10.577 17.571 25.309 17.571 41.537v25.671c0 2.883-1.922 5.316-4.553 6.091l-21.318 8.262v18.023h21.883c3.506 0 6.349 2.842 6.349 6.349 0 3.506-2.842 6.349-6.349 6.349h-89.293c-7.242 41.911 1.798 84.877 25.125 120.014v-70.407c0-9.802 7.98-17.782 17.782-17.782h240.922c9.802 0 17.782 7.98 17.782 17.782v70.408zm-67.098-132.777 50.766-.107c-4.003-6.22-6.462-13.903-6.462-20.321 0-3.507 2.842-6.349 6.349-6.349h12.301l-11.338-36.119h-71.358zm76.238-26.777h20.206v-29.606c0-3.506 2.842-6.349 6.349-6.349s6.349 2.842 6.349 6.349v35.954c0 3.506-2.842 6.349-6.349 6.349h-44.72c.935 2.971 2.44 5.975 4.349 8.532 2.01 2.693 4.369 4.758 6.746 5.402l50.03-.105c1.177-.396 2.211-1.138 2.982-2.109.858-1.08 1.372-2.457 1.372-3.96v-51.565c0-24.954-20.44-45.393-45.393-45.393h-31.046c-18.436 0-34.737 11.142-41.797 27.684h50.95v.009c2.702 0 5.205 1.74 6.051 4.455zm-31.62-96.661c16.007 16.008 43.498 4.616 43.498-18.018 0-22.633-27.49-34.026-43.498-18.018-9.95 9.951-9.95 26.086 0 36.036zm-224.417 123.503v-59.083l-.659-.659h-68.773l-.659.659v59.083zm-35.046-116.139c22.633 0 34.026-27.49 18.017-43.498s-43.498-4.615-43.498 18.018c.001 14.073 11.407 25.48 25.481 25.48zm47.743 84.542 13.174-5.106v-21.345c0-24.954-20.44-45.394-45.394-45.394h-31.046c-24.954 0-45.394 20.439-45.394 45.394v21.345l13.174 5.106v-27.486c0-7.359 5.998-13.357 13.357-13.357h68.772c7.359 0 13.357 5.998 13.357 13.357z" fill-rule="evenodd"/></svg>