<?xml version="1.0" encoding="UTF-8"?>
<svg xmlns="http://www.w3.org/2000/svg" width="512" height="512" viewBox="0 0 128 128"><g><path d="M88.569,72.009h-2.5A22.683,22.683,0,0,0,83.166,65l1.77-1.769a1.75,1.75,0,0,0,0-2.474l-4.651-4.651a1.75,1.75,0,0,0-2.474,0l-1.769,1.769a22.672,22.672,0,0,0-7.006-2.905v-2.5a1.749,1.749,0,0,0-1.75-1.75H60.71a1.749,1.749,0,0,0-1.75,1.75v2.5a22.672,22.672,0,0,0-7.006,2.905l-1.768-1.769a1.8,1.8,0,0,0-2.475,0L43.062,60.76a1.748,1.748,0,0,0,0,2.474L44.83,65a22.707,22.707,0,0,0-2.906,7.006h-2.5a1.749,1.749,0,0,0-1.75,1.75v6.576a1.749,1.749,0,0,0,1.75,1.75h2.5A22.712,22.712,0,0,0,44.83,89.09l-1.768,1.768a1.749,1.749,0,0,0,0,2.475l4.649,4.65a1.749,1.749,0,0,0,2.475,0l1.768-1.768a22.727,22.727,0,0,0,7.006,2.906v2.5a1.749,1.749,0,0,0,1.75,1.75h6.576a1.749,1.749,0,0,0,1.75-1.75v-2.5a22.727,22.727,0,0,0,7.006-2.906l1.769,1.768a1.748,1.748,0,0,0,2.474,0l4.651-4.65a1.752,1.752,0,0,0,0-2.475l-1.77-1.768a22.688,22.688,0,0,0,2.906-7.005h2.5a1.749,1.749,0,0,0,1.75-1.75V73.759A1.749,1.749,0,0,0,88.569,72.009Zm-1.75,6.576h-2.19A1.751,1.751,0,0,0,82.9,80.062a19.119,19.119,0,0,1-3.408,8.216,1.749,1.749,0,0,0,.179,2.266L81.224,92.1l-2.176,2.175L77.5,92.72a1.749,1.749,0,0,0-2.266-.179,19.128,19.128,0,0,1-8.217,3.408,1.75,1.75,0,0,0-1.477,1.729v2.19H62.46v-2.19a1.75,1.75,0,0,0-1.477-1.729,19.128,19.128,0,0,1-8.217-3.408,1.749,1.749,0,0,0-2.266.179l-1.552,1.551L46.773,92.1l1.552-1.552a1.749,1.749,0,0,0,.179-2.266A19.119,19.119,0,0,1,45.1,80.062a1.75,1.75,0,0,0-1.729-1.477h-2.19V75.509h2.19A1.75,1.75,0,0,0,45.1,74.032,19.122,19.122,0,0,1,48.5,65.814a1.748,1.748,0,0,0-.179-2.265L46.773,62l2.175-2.176L50.5,61.373a1.748,1.748,0,0,0,2.266.179,19.123,19.123,0,0,1,8.216-3.407,1.751,1.751,0,0,0,1.478-1.729v-2.19h3.076v2.19a1.751,1.751,0,0,0,1.478,1.729,19.123,19.123,0,0,1,8.216,3.407,1.748,1.748,0,0,0,2.266-.179l1.552-1.552L81.224,62l-1.553,1.552a1.748,1.748,0,0,0-.179,2.265A19.122,19.122,0,0,1,82.9,74.032a1.751,1.751,0,0,0,1.729,1.477h2.19Z"/><path d="M69.455,74.652A7.609,7.609,0,1,0,58.8,74.9a11.641,11.641,0,0,0-6.052,10.2,5.046,5.046,0,0,0,5.04,5.041H70.976a5.046,5.046,0,0,0,5.04-5.041A11.637,11.637,0,0,0,69.455,74.652ZM64,65.258a4.107,4.107,0,1,1-4.107,4.106A4.111,4.111,0,0,1,64,65.258Zm6.978,21.388H57.788a1.542,1.542,0,0,1-1.54-1.541,8.134,8.134,0,0,1,16.268,0A1.542,1.542,0,0,1,70.976,86.646Z"/><path d="M107.233,71.114a7.605,7.605,0,1,0,0-3.5h-7.4c.31-3.893.386-7.577.326-10.848a1.753,1.753,0,0,0-.574-1.265,1.728,1.728,0,0,0-1.315-.447c-.248.019-.5.039-.747.039a9.077,9.077,0,0,1-9.066-9.067,1.75,1.75,0,0,0-1.75-1.75H77.062V31.543h5.224a7.605,7.605,0,1,0,0-3.5H75.312a1.749,1.749,0,0,0-1.75,1.75V44.276H65.748v-19.1a7.605,7.605,0,1,0-3.5,0v19.1H54.435V29.793a1.75,1.75,0,0,0-1.75-1.75H45.711a7.605,7.605,0,1,0,0,3.5h5.224V44.276H41.164a1.75,1.75,0,0,0-1.75,1.75,9.077,9.077,0,0,1-9.066,9.067c-.191,0-.377-.016-.631-.034a1.749,1.749,0,0,0-1.879,1.713c-.059,3.27.016,6.951.326,10.842h-7.4a7.606,7.606,0,1,0,0,3.5H28.5A83.171,83.171,0,0,0,30.962,83.9H19.228a1.75,1.75,0,0,0-1.75,1.75v6.974a7.605,7.605,0,1,0,3.5,0V87.4H32.035c4.568,13.508,13.734,25.956,31.542,30.371a1.73,1.73,0,0,0,.842,0c17.809-4.415,26.975-16.862,31.542-30.371h11.058v5.224a7.605,7.605,0,1,0,3.5,0V85.65a1.751,1.751,0,0,0-1.75-1.75H97.035A83.143,83.143,0,0,0,99.5,71.114Zm7.394-5.855a4.106,4.106,0,1,1-4.106,4.105A4.11,4.11,0,0,1,114.627,65.259ZM89.68,25.688a4.105,4.105,0,1,1-4.106,4.105A4.11,4.11,0,0,1,89.68,25.688Zm-29.787-7.9A4.106,4.106,0,1,1,64,21.889,4.11,4.11,0,0,1,59.893,17.783ZM38.316,33.9a4.105,4.105,0,1,1,4.106-4.105A4.11,4.11,0,0,1,38.316,33.9ZM13.372,73.47a4.106,4.106,0,1,1,4.106-4.106A4.11,4.11,0,0,1,13.372,73.47Zm9.961,26.549a4.106,4.106,0,1,1-4.1-4.106A4.11,4.11,0,0,1,23.333,100.019Zm89.541,0a4.106,4.106,0,1,1-4.1-4.106A4.11,4.11,0,0,1,112.874,100.019ZM64,114.269c-16.391-4.23-24.769-16.077-28.913-28.883a1.715,1.715,0,0,0-.174-.532A78.444,78.444,0,0,1,31.839,69.38l0-.016A1.772,1.772,0,0,0,31.8,69c-.361-3.708-.493-7.253-.484-10.448a12.592,12.592,0,0,0,11.474-10.78H85.077a12.591,12.591,0,0,0,11.6,10.788,88.745,88.745,0,0,1-3.59,26.285,1.719,1.719,0,0,0-.176.541C88.767,98.2,80.389,110.04,64,114.269Z"/></g></svg>
