<svg clip-rule="evenodd" fill-rule="evenodd" stroke-linejoin="round" stroke-miterlimit="2" viewBox="0 0 510 510" xmlns="http://www.w3.org/2000/svg"><g id="Artboard311"><path d="m400.213 445.392 9.591.082c.029 0 .057 0 .086.001 9.905.19 17.723 8.182 17.723 18.087v.079s-.213 21.634-.213 21.627c-.022 9.81-8.277 17.893-18.087 17.73 0 0-112.511-.956-112.497-.956-9.958-.015-17.849-8.212-17.849-17.983 0-.026 0-.052 0-.078 0 0 .212-21.634.212-21.627.023-9.762 8.217-17.837 17.983-17.837.023 0 .046.001.068.001l7.522.064-.084-55.774v-.012c0-17.423 2.92-33.785 15.916-45.447 12.353-11.198 34.882-28.002 52.249-48.508.229-.27.476-.526.739-.764 10.926-9.877 27.384-10.206 37.869.255.849.838 1.634 1.7 2.354 2.585.313-1.91.472-3.88.473-5.92l-.319-77.826v-.004c-.101-28.907 9.786-42.454 19.966-47.456 8.946-4.397 19.071-3.007 26.998 1.858 8.024 4.925 13.519 13.333 13.744 21.974l4.142 143.266c0 .013.001.025.001.038.373 15.418-5.191 28.86-16.009 39.802-.012.013-.024.025-.037.037 0 0-62.541 62.44-62.541 62.44zm-79.461-.675 63.461.539v-13.448c0-2.124.845-4.161 2.348-5.661 0 0 64.867-64.762 64.886-64.781 7.636-7.74 11.618-17.221 11.358-28.118l-4.141-143.243c-.001-.007-.001-.015-.001-.022-.093-3.574-2.809-6.746-6.119-8.777-9.926-6.092-22.706.089-22.595 31.904l.319 77.842v.033c0 12.737-4.188 23.622-12.305 33.613-.007.008-.015.017-.022.026 0 0-5.308 6.476-5.31 6.479-.06.073-.121.145-.184.216-.002.002-.004.005-.006.007-10.306 11.7-21.352 21.586-32.838 33.072-3.122 3.122-8.192 3.122-11.314 0s-3.122-8.191 0-11.314c11.162-11.162 21.92-20.76 31.945-32.106 4.013-5.431 4.198-11.09-.042-15.268-.014-.014-.028-.027-.042-.041-4.274-4.274-10.925-3.881-15.497-.029-17.83 20.911-40.715 38.131-53.336 49.576-.012.01-.023.02-.035.031-9.503 8.517-10.614 20.814-10.614 33.545zm-23.61 15.801h-.032c-1.031.027-1.931.84-1.931 1.876v.079s-.212 21.611-.211 21.639c.026 1.031.82 1.93 1.876 1.93.022 0 .045 0 .068.001l112.573.955c.03.001.06.001.089.002.987.019 1.827-.786 1.827-1.772 0-.027 0-.053 0-.079 0 0 .212-21.611.211-21.642-.028-1.106-.894-1.999-2.003-2.035zm18.818 10.266c1.593 4.142-.425 8.921-4.567 10.62-4.248 1.593-9.027-.424-10.62-4.566-1.699-4.248.319-8.921 4.567-10.621 4.142-1.699 8.921.319 10.62 4.567zm-206.279-25.392v-10.27l-62.44-62.44c-10.953-10.953-16.414-24.401-16.041-39.835.001-.011.001-.021.001-.032l4.036-143.266c0-.008 0-.016.001-.025.27-8.649 5.788-17.043 13.821-21.96 7.942-4.861 18.071-6.247 27.018-1.854 10.187 5.002 20.075 18.549 19.974 47.457v.004l-.319 77.846v.046c-.02 2.033.128 3.997.435 5.9.723-.892 1.512-1.76 2.365-2.603 10.348-10.459 26.963-10.167 37.896-.283.269.244.521.505.755.783 17.255 20.497 39.779 37.291 52.214 48.472 13.012 11.662 15.936 28.032 15.936 45.464v.012l-.084 55.774 7.521-.064c.023 0 .045-.001.068-.001 9.737 0 17.791 7.984 17.981 17.72.001.026.001.053.002.079l.212 21.665v.078c0 9.766-8.073 17.96-17.834 17.983 0 0-112.513.956-112.509.955-9.949.167-18.003-7.849-18.195-17.613-.001-.039-.001-.078-.001-.117 0 0-.106-21.617-.106-21.592-.169-9.951 7.848-18.009 17.613-18.2.03-.001.059-.001.089-.001zm79.567-.675.085-55.925c-.001-12.731-1.111-25.028-10.615-33.545l-.01-.009c-12.736-11.452-35.631-28.682-53.371-49.607-4.56-3.836-11.246-4.264-15.446-.003-.027.027-.055.055-.083.082-4.24 4.178-4.054 9.837-.041 15.268 10.032 11.356 20.798 20.962 31.864 32.133 3.108 3.137 3.084 8.206-.053 11.314-3.137 3.107-8.206 3.083-11.313-.054-11.371-11.477-22.409-21.355-32.707-33.047-.002-.002-.003-.003-.005-.005-.045-.052-.09-.104-.134-.157-.002-.001-5.416-6.478-5.416-6.478-.037-.044-.074-.089-.11-.134-7.991-9.988-12.279-20.881-12.161-33.614l.319-77.826c.111-31.818-12.685-37.991-22.639-31.899-3.331 2.038-6.067 5.221-6.182 8.807 0 0-4.034 143.227-4.034 143.228-.261 10.899 3.623 20.386 11.359 28.122l64.783 64.783c1.5 1.501 2.343 3.535 2.343 5.657v13.448zm23.609 15.801s-109.588.929-112.595.955c-1.031.048-1.896.879-1.876 1.936.001.038.001.076.001.114 0 0 .106 21.583.107 21.603.048 1.03.879 1.894 1.935 1.874.029-.001.057-.001.086-.002l112.574-.955c.022-.001.045-.001.068-.001 1.045 0 1.864-.915 1.876-1.958 0 0-.211-21.557-.212-21.587-.048-1.066-.895-1.969-1.964-1.979zm-3.63 10.266c1.699 4.142-.425 8.921-4.566 10.62-4.249 1.593-8.921-.424-10.621-4.566-1.699-4.248.425-8.921 4.567-10.621 4.248-1.699 8.921.319 10.62 4.567zm83.585-284.107h-123.297c-2.27 0-4.433-.964-5.951-2.653-1.517-1.689-2.245-3.943-2.003-6.201 3.917-36.476 28.686-66.712 62.145-78.532-12.246-9.425-20.159-24.227-20.159-40.815 0-28.346 23.107-51.476 51.453-51.476 28.372 0 51.476 23.132 51.476 51.476 0 16.588-7.913 31.391-20.164 40.817 10.491 3.705 20.126 9.219 28.532 16.168 3.754-9.876 9.596-25.244 9.596-25.244 3.447-9.135 16.445-9.135 19.892 0l11.438 30.089c8.994.442 32.156 1.581 32.129 1.58 9.848.442 13.796 12.847 6.188 18.911l-25.11 20.192c2.363 8.691 8.438 31.04 8.436 31.032 2.618 9.397-7.851 17.059-16.036 11.75-.009-.006-.018-.012-.028-.018l-26.962-17.645-26.934 17.643c-.01.007-.02.013-.03.02-8.156 5.29-18.611-2.337-16.076-11.706l.002-.009s.585-2.151 1.463-5.379zm-37.812-76.725c-37.129 0-68.199 25.961-76.06 60.725h118.222c1.027-3.779 1.977-7.272 2.634-9.688-7.009-5.636-25.106-20.188-25.084-20.17-7.635-6.086-3.687-18.491 6.128-18.932l14.491-.712c-11.766-7.123-25.569-11.223-40.331-11.223zm0-16c19.553 0 35.476-15.942 35.476-35.476s-15.923-35.476-35.476-35.476c-19.533 0-35.453 15.943-35.453 35.476s15.92 35.476 35.453 35.476zm40.714 43.223c7.765 6.245 16.793 13.505 16.792 13.504 3.396 2.672 4.775 6.847 3.67 11.044-.005.021-.011.042-.017.063l-5.667 20.848c8.338-5.463 18.034-11.814 18.025-11.807 3.65-2.423 8.068-2.427 11.721-.012l18.039 11.806-5.664-20.835c-.006-.021-.011-.042-.017-.063-1.105-4.2.277-8.377 3.668-11.042l16.795-13.506-21.585-1.061h-.017c-4.314-.222-7.853-2.765-9.397-6.846l-7.674-20.187-7.669 20.176c-1.548 4.092-5.088 6.635-9.401 6.857h-.017zm76.869 83.031v22.236c0 3.309-2.038 6.277-5.126 7.466 0 0-14.324 5.512-14.323 5.512-2.161 7.627-5.217 14.968-9.079 21.892l6.225 14.054c1.339 3.023.68 6.559-1.658 8.897l-20.961 20.961c-2.338 2.338-5.874 2.997-8.897 1.657 0 0-14.04-6.219-14.039-6.219-6.915 3.876-14.273 6.919-21.907 9.075l-5.512 14.321c-1.189 3.089-4.156 5.127-7.466 5.127h-29.65c-3.31 0-6.278-2.038-7.466-5.127 0 0-5.512-14.319-5.511-14.319-7.648-2.161-14.996-5.218-21.923-9.083l-14.054 6.225c-3.023 1.34-6.559.681-8.897-1.657l-20.961-20.961c-2.341-2.341-2.998-5.882-1.653-8.907 0 0 6.241-14.036 6.241-14.036-3.874-6.911-6.917-14.266-9.09-21.896l-14.333-5.516c-3.088-1.189-5.126-4.157-5.126-7.466v-22.236c0-4.418 3.582-8 8-8h219.166c4.418 0 8 3.582 8 8zm-177.311 8h-41.855v8.743l13.028 5.014c2.455.945 4.288 3.036 4.904 5.593 2.13 8.849 5.623 17.317 10.403 25.046 1.391 2.25 1.58 5.041.506 7.458 0 0-5.68 12.775-5.68 12.775l13.195 13.195 12.779-5.66c2.404-1.065 5.178-.881 7.419.493 7.758 4.753 16.198 8.28 25.076 10.383 2.57.609 4.673 2.447 5.622 4.911l5.014 13.028h18.664l5.014-13.028c.948-2.463 3.049-4.3 5.616-4.91 8.841-2.101 17.301-5.592 25.023-10.367 2.246-1.389 5.033-1.58 7.448-.51 0 0 12.779 5.66 12.779 5.66l13.201-13.201-5.66-12.779c-1.065-2.404-.881-5.178.493-7.42 4.753-7.759 8.281-16.199 10.385-25.051.61-2.567 2.447-4.668 4.909-5.616l13.028-5.014v-8.743h-41.855c-.324 32.715-26.952 59.142-59.743 59.142-32.793 0-59.389-26.426-59.713-59.142zm103.455 0h-87.454c.323 23.878 19.758 43.142 43.712 43.142 23.956 0 43.419-19.263 43.742-43.142z"/></g></svg>