<svg height="479pt" viewBox="-39 0 479 479.9919" width="479pt" xmlns="http://www.w3.org/2000/svg"><path d="m376.496094 24h-279.417969c-2.679687 0-5.179687-1.34375-6.664063-3.574219l-6.398437-9.691406c-4.441406-6.71875-11.96875-10.7539062-20.023437-10.734375h-39.496094c-13.253906 0-24 10.746094-24 24v240c.027344 22.082031 17.917968 39.972656 40 40h152v40h-152c-4.417969 0-8 3.582031-8 8v48.800781c-20.121094 4.105469-33.863282 22.78125-31.796875 43.210938 2.0625 20.429687 19.261719 35.980469 39.796875 35.980469s37.734375-15.550782 39.796875-35.980469c2.0625-20.429688-11.675781-39.105469-31.796875-43.210938v-40.800781h144v40.800781c-20.121094 4.105469-33.863282 22.78125-31.796875 43.210938 2.0625 20.429687 19.261719 35.980469 39.796875 35.980469s37.734375-15.550782 39.796875-35.980469c2.0625-20.429688-11.675781-39.105469-31.796875-43.210938v-40.800781h144v40.800781c-20.121094 4.105469-33.863282 22.78125-31.796875 43.210938 2.0625 20.429687 19.261719 35.980469 39.796875 35.980469s37.734375-15.550782 39.796875-35.980469c2.0625-20.429688-11.675781-39.105469-31.796875-43.210938v-48.800781c0-4.417969-3.582032-8-8-8h-152v-40h152c22.082031-.027344 39.972656-17.917969 40-40v-216c0-13.253906-10.746094-24-24-24zm-312 416c0 13.253906-10.746094 24-24 24s-24-10.746094-24-24 10.746094-24 24-24 24 10.746094 24 24zm160 0c0 13.253906-10.746094 24-24 24s-24-10.746094-24-24 10.746094-24 24-24 24 10.746094 24 24zm160 0c0 13.253906-10.746094 24-24 24s-24-10.746094-24-24 10.746094-24 24-24 24 10.746094 24 24zm0-176c0 13.253906-10.746094 24-24 24h-288.207032c5.292969-6.882812 8.175782-15.316406 8.207032-24v-184c0-4.417969 3.582031-8 8-8h248v-16h-248c-13.253906 0-24 10.746094-24 24v184c0 13.253906-10.746094 24-24 24s-24-10.746094-24-24v-240c0-4.417969 3.582031-8 8-8h39.496094c2.683593-.003906 5.1875 1.339844 6.671874 3.574219l6.398438 9.699219c4.445312 6.710937 11.964844 10.742187 20.015625 10.726562h279.417969c4.417968 0 8 3.582031 8 8zm0 0"/><path d="m96.496094 80h16v16h-16zm0 0"/><path d="m128.496094 80h16v16h-16zm0 0"/><path d="m352.496094 56h16v16h-16zm0 0"/><path d="m200.496094 104c-39.765625 0-72 32.234375-72 72s32.234375 72 72 72 72-32.234375 72-72c-.042969-39.746094-32.253906-71.957031-72-72zm0 128c-30.929688 0-56-25.070312-56-56s25.070312-56 56-56c30.929687 0 56 25.070312 56 56-.039063 30.910156-25.089844 55.960938-56 56zm0 0"/><path d="m192.496094 180.6875-18.34375-18.34375-11.3125 11.3125 24 24c3.125 3.121094 8.1875 3.121094 11.3125 0l40-40-11.3125-11.3125zm0 0"/><path d="m320.496094 256h16v16h-16zm0 0"/><path d="m352.496094 256h16v16h-16zm0 0"/></svg>