<svg id="Layer_1" viewBox="0 0 64 64" xmlns="http://www.w3.org/2000/svg" data-name="Layer 1"><path d="m39.051 7.022h-4.231a5.2 5.2 0 0 0 -10.4 0h-4.23a1 1 0 0 0 -1 1v1.5h-5.154a4.278 4.278 0 0 0 -4.272 4.273v40.49a4.283 4.283 0 0 0 4.272 4.283h23.846a9.187 9.187 0 1 0 11.6-13.8v-30.975a4.283 4.283 0 0 0 -4.282-4.273h-5.149v-1.5a1 1 0 0 0 -1-.998zm-9.431-3.022a3.224 3.224 0 0 1 3.214 3.022h-6.427a3.223 3.223 0 0 1 3.213-3.022zm-8.43 5.022h16.861v7.7h-16.861zm31.046 43.778a7.181 7.181 0 1 1 -4.176-6.539 7.212 7.212 0 0 1 4.176 6.539zm-7.036-41.28a2.281 2.281 0 0 1 2.283 2.273v30.152a9.363 9.363 0 0 0 -2.453-.341 9.157 9.157 0 0 0 -8.368 12.964h-22.626a2.28 2.28 0 0 1 -2.272-2.283v-40.492a2.275 2.275 0 0 1 2.272-2.273h5.154v6.206a1 1 0 0 0 1 1h18.861a1 1 0 0 0 1-1v-6.206z"/><path d="m30.521 25a1.041 1.041 0 0 0 -1.8 0l-3 6.133-6.761.961a1 1 0 0 0 -.556 1.708l4.906 4.752-1.176 6.727a1 1 0 0 0 1.453 1.056l6.035-3.2 6.035 3.2a1 1 0 0 0 1.453-1.056l-1.175-6.727 4.906-4.754a1 1 0 0 0 -.556-1.708l-6.761-.961zm3.642 12.486a1 1 0 0 0 -.289.89l.915 5.237-4.7-2.488a.994.994 0 0 0 -.936 0l-4.7 2.488.915-5.237a1 1 0 0 0 -.289-.89l-3.819-3.7 5.263-.748a1 1 0 0 0 .758-.551l2.338-4.775 2.338 4.775a1 1 0 0 0 .758.551l5.263.748z"/><path d="m43.534 53.9-1.317-1.317a1 1 0 0 0 -1.417 1.417l2.024 2.025a1 1 0 0 0 1.414 0l5.026-5.025a1 1 0 1 0 -1.414-1.414z"/><path d="m15.226 19.742a1 1 0 0 0 -1 1v7.2a1 1 0 0 0 2 0v-7.2a1 1 0 0 0 -1-1z"/><path d="m15.226 34.936a1 1 0 0 0 -1 1v3a1 1 0 1 0 2 0v-3a1 1 0 0 0 -1-1z"/></svg>