<?xml version="1.0"?>
<svg xmlns="http://www.w3.org/2000/svg" id="Layer_1" data-name="Layer 1" viewBox="0 0 512 512"><path d="M183.6,350.887c-2.225-1.655-4.4-3.388-6.493-5.2L146.56,376.21a6.327,6.327,0,0,1-4.552,1.914H101.216c-4.966,21.8-32.229,29.9-48.24,13.89a28.647,28.647,0,0,1,0-40.532c16.011-16.011,43.274-7.915,48.24,13.864h38.127l28.531-28.53a119.183,119.183,0,0,1-31.868-71.8H104.372L83.757,291.084c15.442,18.6,2.173,46.947-22.064,46.947a28.673,28.673,0,1,1,12-54.707L93.3,258.493,73.695,231.876c-18.96,10.088-42.136-3.621-42.136-25.323a28.7,28.7,0,0,1,28.685-28.685c23.487,0,36.937,26.823,23.1,45.654l21.184,28.711h31.117a119.026,119.026,0,0,1,29.074-75.245l-26.15-27.6-41.335.1C92.293,171.323,65,179.446,48.992,163.434a28.678,28.678,0,0,1,0-40.558C65,106.891,92.267,114.961,97.233,136.792l43.74-.155a6.33,6.33,0,0,1,4.94,1.992l27.651,29.177a119.147,119.147,0,0,1,48.344-27.47V100.631H200.6c-4.967,21.805-32.23,29.876-48.215,13.89a28.678,28.678,0,0,1,0-40.558c15.985-16.011,43.248-7.915,48.215,13.89h27.7a6.4,6.4,0,0,1,6.389,6.389v43.145a119.654,119.654,0,0,1,14.046-1.578V72.644c-21.78-4.967-29.876-32.23-13.89-48.241a28.678,28.678,0,0,1,40.558,0c16.011,16.011,7.915,43.274-13.89,48.241v63.165a120.1,120.1,0,0,1,14.071,1.578V94.242a6.386,6.386,0,0,1,6.389-6.389h27.677c4.966-21.8,32.229-29.9,48.24-13.89a28.678,28.678,0,0,1,0,40.558c-16.011,15.986-43.274,7.915-48.24-13.89H288.333v39.705a119.2,119.2,0,0,1,48.473,27.573l30.6-30.6a6.437,6.437,0,0,1,4.837-1.863l43.4-1.319c4.837-21.935,32.2-30.16,48.267-14.071a28.647,28.647,0,0,1,0,40.532c-15.934,15.96-43.119,7.967-48.189-13.735l-41.05,1.267-29.022,29a119.176,119.176,0,0,1,28.971,75.115H405.74l20.253-27.47a28.566,28.566,0,1,1,11.433,5.949l-20.46,27.781,18.96,24c18.934-12.571,44.515,1.008,44.515,23.9a28.679,28.679,0,0,1-28.685,28.66c-22.271,0-35.9-24.314-24.677-43.249l-21.184-26.8H374.234a119.088,119.088,0,0,1-31.427,71.339l29,29h38.153c4.966-21.779,32.229-29.875,48.24-13.864a28.67,28.67,0,0,1,0,40.532c-16.011,16.011-43.274,7.915-48.24-13.89H369.165a6.39,6.39,0,0,1-4.579-1.914L333.65,345.248c-2.25,1.966-4.578,3.854-6.983,5.639V376a25.359,25.359,0,0,1,17.408,24.03v17.874a25.352,25.352,0,0,1-24.263,25.271C313.32,463.741,298.11,496,273.77,496H236.5c-24.34,0-39.55-32.256-46.042-52.819a25.374,25.374,0,0,1-24.288-25.271V400.033A25.382,25.382,0,0,1,183.6,376ZM266.372,33.431c-9.984-9.985-27.133-2.871-27.133,11.251s17.149,21.237,27.133,11.252a15.923,15.923,0,0,0,0-22.5ZM348.86,82.99c-9.985-9.984-27.134-2.871-27.134,11.252s17.149,21.236,27.134,11.252a15.924,15.924,0,0,0,0-22.5ZM80.5,131.929c-9.984-10.01-27.133-2.9-27.133,11.226S70.513,164.391,80.5,154.407a15.893,15.893,0,0,0,0-22.478ZM71.47,195.3c-9.984-9.985-27.134-2.872-27.134,11.251s17.15,21.237,27.134,11.252a15.923,15.923,0,0,0,0-22.5ZM72.919,298.12c-9.985-9.984-27.134-2.9-27.134,11.226S62.934,330.582,72.919,320.6a15.9,15.9,0,0,0,0-22.478Zm11.562,62.389c-9.984-9.984-27.134-2.9-27.134,11.226s17.15,21.236,27.134,11.252a15.893,15.893,0,0,0,0-22.478Zm364.662,0c-9.984-9.984-27.134-2.9-27.134,11.226s17.15,21.236,27.134,11.252a15.893,15.893,0,0,0,0-22.478Zm13.865-65.364c-9.985-9.984-27.134-2.871-27.134,11.252s17.149,21.211,27.134,11.226a15.9,15.9,0,0,0,0-22.478Zm-8.123-166.061c-9.984-9.984-27.133-2.9-27.133,11.226s17.149,21.236,27.133,11.252a15.893,15.893,0,0,0,0-22.478Zm.906,62.6c-9.984-9.984-27.134-2.871-27.134,11.252s17.15,21.21,27.134,11.226a15.893,15.893,0,0,0,0-22.478ZM181.014,332.005a109.687,109.687,0,0,0,12.338,10.217,6.409,6.409,0,0,1,3,5.432v27.082h52.38v-86.5c-20.926-4.94-28.609-31.169-13.192-46.559a27.7,27.7,0,0,1,44.7,31.3,6.382,6.382,0,1,1-11.562-5.406,14.939,14.939,0,0,0-13.554-21.236c-13.27,0-19.943,16.114-10.554,25.5a14.92,14.92,0,0,0,10.554,4.371,6.37,6.37,0,0,1,6.389,6.389v92.136h52.378V347.654a6.433,6.433,0,0,1,3.027-5.432,106.754,106.754,0,1,0-135.9-10.217ZM183.885,82.99c-9.984-9.984-27.134-2.871-27.134,11.252s17.15,21.236,27.134,11.252a15.924,15.924,0,0,0,0-22.5ZM306.388,443.2H203.88c4.707,13.579,16.761,40.015,32.617,40.015H273.77c15.83,0,27.884-26.436,32.618-40.015Zm12.39-55.69H191.464a12.562,12.562,0,0,0-12.52,12.519v17.874a12.58,12.58,0,0,0,12.52,12.519H318.778A12.562,12.562,0,0,0,331.3,417.907V400.033a12.561,12.561,0,0,0-12.518-12.519ZM224.573,293.93a6.369,6.369,0,1,1-8.665,9.337,57.475,57.475,0,1,1,83.289-5.095,6.381,6.381,0,0,1-9.778-8.2,44.716,44.716,0,1,0-64.846,3.958Z"/></svg>
