<svg id="Layer_1" enable-background="new 0 0 512 512" height="512" viewBox="0 0 512 512" width="512" xmlns="http://www.w3.org/2000/svg"><path d="m33.583 135.043 9.981 3.842c1.84 7.179 4.671 14.01 8.455 20.397l-4.345 9.783c-1.343 3.024-.686 6.564 1.654 8.904l11.784 11.784c2.341 2.34 5.879 2.999 8.904 1.654l9.787-4.347c6.389 3.785 13.217 6.616 20.391 8.454l3.844 9.985c1.188 3.088 4.156 5.126 7.466 5.126h16.665c3.31 0 6.277-2.038 7.466-5.126l3.843-9.982c7.178-1.839 14.01-4.671 20.396-8.455l9.784 4.345c3.023 1.342 6.564.686 8.904-1.655l11.783-11.785c2.34-2.34 2.997-5.879 1.654-8.903l-4.347-9.788c3.784-6.388 6.616-13.217 8.454-20.391l9.984-3.844c3.089-1.189 5.126-4.157 5.126-7.466v-16.665c0-3.31-2.038-6.277-5.126-7.466l-9.981-3.842c-1.84-7.179-4.671-14.01-8.455-20.396l4.346-9.782c1.343-3.025.686-6.564-1.655-8.904l-11.784-11.784c-2.34-2.34-5.877-2.998-8.903-1.654l-9.787 4.347c-6.388-3.784-13.217-6.615-20.391-8.454l-3.844-9.985c-1.188-3.088-4.156-5.126-7.466-5.126h-16.665c-3.31 0-6.277 2.038-7.466 5.126l-3.844 9.985c-7.174 1.838-14.003 4.67-20.391 8.454l-9.788-4.347c-3.025-1.343-6.564-.684-8.904 1.655l-11.783 11.784c-2.34 2.34-2.997 5.879-1.654 8.904l4.347 9.786c-3.785 6.387-6.616 13.217-8.455 20.392l-9.983 3.843c-3.088 1.189-5.126 4.157-5.126 7.466v16.665c-.001 3.31 2.037 6.277 5.125 7.466zm10.874-18.638 8.841-3.403c2.566-.988 4.446-3.226 4.976-5.924 1.604-8.163 4.777-15.818 9.434-22.752 1.533-2.283 1.786-5.193.67-7.707l-3.85-8.668 4.016-4.016 8.669 3.85c2.515 1.115 5.422.862 7.706-.669 6.936-4.656 14.591-7.83 22.752-9.433 2.698-.53 4.936-2.409 5.924-4.976l3.404-8.843h5.679l3.404 8.843c.988 2.566 3.226 4.446 5.924 4.976 8.161 1.603 15.816 4.776 22.752 9.433 2.282 1.532 5.193 1.786 7.706.669l8.669-3.85 4.016 4.016-3.848 8.665c-1.116 2.513-.863 5.424.67 7.707 4.654 6.932 7.828 14.589 9.434 22.757.53 2.699 2.409 4.936 4.976 5.924l8.839 3.402v5.679l-8.842 3.404c-2.566.988-4.446 3.226-4.976 5.924-1.603 8.16-4.776 15.814-9.433 22.751-1.533 2.283-1.786 5.193-.67 7.706l3.851 8.669-4.017 4.016-8.665-3.849c-2.513-1.116-5.425-.863-7.707.67-6.932 4.655-14.588 7.829-22.756 9.433-2.698.53-4.936 2.409-5.924 4.976l-3.402 8.839h-5.68l-3.404-8.843c-.988-2.567-3.226-4.446-5.924-4.976-8.161-1.603-15.816-4.776-22.752-9.433-2.282-1.532-5.192-1.786-7.706-.669l-8.669 3.85-4.016-4.016 3.848-8.665c1.116-2.514.863-5.424-.67-7.707-4.654-6.931-7.828-14.587-9.434-22.757-.53-2.699-2.409-4.936-4.976-5.924l-8.839-3.402zm75.38 47.651c24.71 0 44.813-20.103 44.813-44.812s-20.103-44.812-44.813-44.812c-24.709 0-44.811 20.103-44.811 44.812s20.102 44.812 44.811 44.812zm0-73.623c15.888 0 28.813 12.925 28.813 28.812s-12.925 28.812-28.813 28.812c-15.886 0-28.811-12.925-28.811-28.812s12.925-28.812 28.811-28.812zm162.214 217.706h-52.103c-4.418 0-8 3.582-8 8v187.861c0 4.418 3.582 8 8 8h52.103c4.418 0 8-3.582 8-8v-187.861c0-4.418-3.582-8-8-8zm-8 187.861h-36.103v-171.861h36.103zm118.974-152.327h-52.104c-4.418 0-8 3.582-8 8v152.327c0 4.418 3.582 8 8 8h52.104c4.418 0 8-3.582 8-8v-152.327c0-4.419-3.582-8-8-8zm-8 152.327h-36.104v-136.327h36.104zm118.975-256.207h-52.103c-4.418 0-8 3.582-8 8v256.207c0 4.418 3.582 8 8 8h52.103c4.418 0 8-3.582 8-8v-256.207c0-4.418-3.582-8-8-8zm-8 256.207h-36.103v-240.207h36.103zm-324.924-99.957h-52.102c-4.418 0-8 3.582-8 8v99.957c0 4.418 3.582 8 8 8h52.102c4.418 0 8-3.582 8-8v-99.956c0-4.419-3.582-8.001-8-8.001zm-8 99.957h-36.102v-83.956h36.102zm-102.973-155.958h-52.103c-4.418 0-8 3.582-8 8v155.958c0 4.418 3.582 8 8 8h52.103c4.418 0 8-3.582 8-8v-155.958c0-4.418-3.582-8-8-8zm-8 155.958h-36.103v-139.958h36.103zm-18.051-205.208c11.28 0 21.252-5.692 27.207-14.352l50.974 18.948c-.133 1.201-.207 2.42-.207 3.656 0 18.196 14.804 33 33 33s33-14.804 33-33c0-4.609-.953-8.999-2.667-12.987l59.999-45.557c5.657 4.55 12.835 7.281 20.643 7.281 10.687 0 20.199-5.11 26.233-13.011l52.171 22.434c-.28 1.726-.431 3.494-.431 5.297 0 18.196 14.804 33 33 33s33-14.804 33-33c0-5.648-1.429-10.969-3.94-15.622l63.627-57.884c5.239 3.501 11.528 5.547 18.288 5.547 18.196 0 33-14.804 33-33s-14.804-33-33-33-33 14.804-33 33c0 5.648 1.429 10.969 3.94 15.622l-63.627 57.884c-5.238-3.501-11.528-5.547-18.288-5.547-10.687 0-20.199 5.11-26.233 13.011l-52.171-22.434c.28-1.726.431-3.494.431-5.297 0-18.196-14.804-33-33-33s-33 14.804-33 33c0 4.609.953 8.998 2.667 12.986l-59.999 45.557c-5.657-4.549-12.835-7.281-20.643-7.281-11.28 0-21.252 5.692-27.207 14.352l-50.974-18.948c.133-1.201.207-2.42.207-3.656 0-18.196-14.804-33-33-33s-33 14.804-33 33c0 18.197 14.803 33.001 33 33.001zm443.896-146.249c9.374 0 17 7.626 17 17s-7.626 17-17 17-17-7.626-17-17 7.626-17 17-17zm-110.974 100.959c9.374 0 17 7.626 17 17s-7.626 17-17 17-17-7.626-17-17 7.626-17 17-17zm-110.974-47.721c9.374 0 17 7.626 17 17s-7.626 17-17 17-17-7.626-17-17 7.626-17 17-17zm-110.975 84.263c9.374 0 17 7.626 17 17s-7.626 17-17 17-17-7.626-17-17 7.626-17 17-17zm-110.973-41.252c9.374 0 17 7.626 17 17s-7.626 17-17 17-17-7.626-17-17 7.626-17 17-17zm459.948-240.792h-235.248c-9.925 0-18 8.075-18 18v50.543c0 9.925 8.075 18 18 18h235.248c9.925 0 18-8.075 18-18v-50.543c0-9.926-8.075-18-18-18zm2 68.543c0 1.084-.916 2-2 2h-235.248c-1.084 0-2-.916-2-2v-50.543c0-1.084.916-2 2-2h235.248c1.084 0 2 .916 2 2zm-136.874-25.001c0 4.418-3.582 8-8 8h-69c-4.418 0-8-3.582-8-8s3.582-8 8-8h69c4.418 0 8 3.582 8 8zm44.25 0c0 4.418-3.582 8-8 8h-10.25c-4.418 0-8-3.582-8-8s3.582-8 8-8h10.25c4.418 0 8 3.582 8 8zm75.25 0c0 4.418-3.582 8-8 8h-44.75c-4.418 0-8-3.582-8-8s3.582-8 8-8h44.75c4.418 0 8 3.582 8 8z"/></svg>