<?xml version="1.0" encoding="UTF-8"?>
<svg id="Layer_1" xmlns="http://www.w3.org/2000/svg" version="1.1" viewBox="0 0 110 135">
  <!-- Generator: Adobe Illustrator 29.8.2, SVG Export Plug-In . SVG Version: 2.1.1 Build 3)  -->
  <defs>
    <style>
      .st0 {
        stroke: #000;
        stroke-miterlimit: 10;
        stroke-width: 1.5px;
      }
    </style>
  </defs>
  <path class="st0" d="M59.49,58.96v-6.23c0-6.39-5.2-11.59-11.59-11.59s-11.59,5.2-11.59,11.59v6.23c-2.88.29-5.14,2.73-5.14,5.69v19.68c0,3.16,2.57,5.72,5.72,5.72h22.02c3.16,0,5.72-2.57,5.72-5.72v-19.68c0-2.95-2.25-5.39-5.14-5.69h0ZM47.9,43.78c4.93,0,8.94,4.01,8.94,8.94v6.2h-2.62v-6.2c0-3.48-2.83-6.32-6.32-6.32s-6.32,2.83-6.32,6.32v6.2h-2.62v-6.2c0-4.93,4.01-8.94,8.94-8.94ZM51.57,58.92h-7.33v-6.2c0-1.99,1.68-3.67,3.66-3.67s3.66,1.68,3.66,3.67v6.2h.01ZM61.98,84.32c0,1.69-1.38,3.07-3.07,3.07h-22.02c-1.69,0-3.07-1.38-3.07-3.07v-19.68c0-1.69,1.38-3.07,3.07-3.07h22.02c1.69,0,3.07,1.38,3.07,3.07v19.68ZM47.9,66.26c-2.93,0-5.31,2.38-5.31,5.31,0,1.47.61,2.87,1.67,3.87v3.64c0,2.01,1.63,3.64,3.64,3.64s3.64-1.63,3.64-3.64v-3.64c1.06-1,1.67-2.4,1.67-3.87,0-2.92-2.39-5.31-5.32-5.31h.01ZM49.45,73.73c-.35.25-.55.65-.55,1.08v4.26c0,.55-.44.99-.99.99s-.99-.44-.99-.99v-4.26c0-.43-.21-.83-.55-1.08-.7-.5-1.12-1.31-1.12-2.17,0-1.47,1.19-2.66,2.66-2.66s2.66,1.19,2.66,2.66c0,.86-.42,1.67-1.12,2.17h0ZM100.92,42.51c0-9.84-8.01-17.85-17.85-17.85-4.75,0-9.05,1.87-12.25,4.91l-21-8.48c-1.28-.52-2.57-.52-3.85,0l-33.68,13.61c-1.98.8-3.21,2.62-3.21,4.76v23.28c0,13.32,3.65,24.73,10.85,33.92,6.38,8.14,15.35,14.13,25.95,17.32.68.2,1.35.31,2.03.31s1.34-.1,2.03-.31c10.6-3.18,19.58-9.17,25.95-17.32,7.2-9.19,10.85-20.6,10.85-33.92v-2.76c8.08-1.69,14.18-8.88,14.18-17.47h0ZM84.08,62.74c0,23.92-13.05,42.13-34.91,48.7-.87.26-1.65.26-2.53,0-21.85-6.57-34.91-24.78-34.91-48.7v-23.28c0-1.05.58-1.91,1.55-2.3l33.69-13.61c.63-.26,1.23-.26,1.86,0l20.11,8.12c-1.02,1.32-1.85,2.78-2.47,4.36l-18.07-7.3c-.32-.13-.67-.13-.99,0l-29.89,12.07c-.5.2-.83.69-.83,1.23v20.71c0,10.46,2.74,19.95,7.93,27.45,5.31,7.67,13.22,13.31,22.88,16.32.13.04.26.06.39.06s.27-.02.39-.06c9.66-3,17.58-8.65,22.88-16.32,5.19-7.5,7.93-16.99,7.93-27.45v-2.84c1.28.29,2.6.46,3.97.46.34,0,.66-.03,1-.05v2.43h.02ZM76.46,59.07v3.67c0,20.34-10.4,35.3-28.55,41.11-18.15-5.81-28.55-20.77-28.55-41.11v-19.82l28.54-11.53,17.78,7.19c-.29,1.27-.45,2.58-.45,3.94,0,7.49,4.66,13.91,11.23,16.55h0ZM83.08,57.7c-8.38,0-15.19-6.82-15.19-15.19s6.82-15.19,15.19-15.19,15.19,6.82,15.19,15.19-6.81,15.19-15.19,15.19ZM92.88,36.83c.46.57.36,1.41-.21,1.86l-12.18,9.71c-.24.19-.54.29-.83.29-.38,0-.75-.16-1.01-.47l-5.35-6.32c-.47-.56-.4-1.4.16-1.87.56-.47,1.4-.4,1.87.16l4.52,5.34,11.18-8.91c.56-.46,1.4-.36,1.85.21h0Z"/>
</svg>