<svg id="Outline" viewBox="0 0 32 32" xmlns="http://www.w3.org/2000/svg"><path d="m26.8638306 24.8321533c.6868896-.5501709 1.1361694-1.3855591 1.1361694-2.3321533 0-1.6542969-1.3457031-3-3-3s-3 1.3457031-3 3c0 .9451904.447998 1.7793579 1.1331787 2.3296509-.4198608.1514893-.8122559.3692017-1.1861572.6184692-.9375-1.2218628-2.236145-2.1520386-3.7414551-2.6161499 1.0797119-.7171021 1.7944336-1.9415283 1.7944336-3.3319702 0-2.2055664-1.7939453-4-4-4s-4 1.7944336-4 4c0 1.3904419.7147217 2.6148682 1.7944336 3.3319702-1.5053101.4641113-2.8039551 1.3942871-3.7414551 2.6161499-.3739014-.2492676-.7662964-.46698-1.1861572-.6184692.6851807-.550293 1.1331787-1.3844604 1.1331787-2.3296509 0-1.6542969-1.3457031-3-3-3s-3 1.3457031-3 3c0 .9465942.4492798 1.7819824 1.1361694 2.3321533-2.1165161.7660522-3.6361694 2.7901611-3.6361694 5.1678467 0 .2763672.2236328.5.5.5h12c.2763672 0 .5-.2236328.5-.5s-.2236328-.5-.5-.5h-4.4814453c.2568359-3.3515625 3.0654297-6 6.4814453-6s6.2246094 2.6484375 6.4814453 6h-4.4814453c-.2763672 0-.5.2236328-.5.5s.2236328.5.5.5h12c.2763672 0 .5-.2236328.5-.5 0-2.3776855-1.5196533-4.4017944-3.6361694-5.1678467zm-21.8638306-2.3321533c0-1.1030273.8974609-2 2-2s2 .8969727 2 2-.8974609 2-2 2-2-.8969727-2-2zm-2.4726562 7c.25-2.2470703 2.1601562-4 4.4726562-4 .8907471 0 1.7578735.2821045 2.4990234.7758179-.5532837.9620361-.8961792 2.0562744-.9736938 3.2241821zm10.4726562-10c0-1.6542969 1.3457031-3 3-3s3 1.3457031 3 3-1.3457031 3-3 3-3-1.3457031-3-3zm10 3c0-1.1030273.8974609-2 2-2s2 .8969727 2 2-.8974609 2-2 2-2-.8969727-2-2zm.4746704 7c-.0775146-1.1679077-.4204102-2.262146-.9736938-3.2241821.7411499-.4937134 1.6082764-.7758179 2.4990234-.7758179 2.3125 0 4.2226562 1.7529297 4.4726562 4z"/><path d="m18 8.5c.2763672 0 .5-.2236328.5-.5s-.2236328-.5-.5-.5h-1.5v-.5c0-.2763672-.2236328-.5-.5-.5s-.5.2236328-.5.5v.5h-.5c-.8271484 0-1.5.6728516-1.5 1.5s.6728516 1.5 1.5 1.5h.5v1h-1.5c-.2763672 0-.5.2236328-.5.5s.2236328.5.5.5h1.5v.5c0 .2763672.2236328.5.5.5s.5-.2236328.5-.5v-.5h.5c.8271484 0 1.5-.6728516 1.5-1.5s-.6728516-1.5-1.5-1.5h-.5v-1zm-1 2c.2753906 0 .5.2241211.5.5s-.2246094.5-.5.5h-.5v-1zm-1.5-1h-.5c-.2753906 0-.5-.2241211-.5-.5s.2246094-.5.5-.5h.5z"/><path d="m9 18.5c.2763672 0 .5-.2236328.5-.5v-15c0-.2758789.2246094-.5.5-.5h3.5505371c.2322998 1.1397095 1.2418213 2 2.4494629 2s2.2171631-.8602905 2.4494629-2h3.5505371c.2753906 0 .5.2241211.5.5v15c0 .2763672.2236328.5.5.5s.5-.2236328.5-.5v-15c0-.8271484-.6728516-1.5-1.5-1.5h-12c-.8271484 0-1.5.6728516-1.5 1.5v15c0 .2763672.2236328.5.5.5zm8.4140625-16c-.2060547.5820312-.7617188 1-1.4140625 1s-1.2080078-.4179688-1.4140625-1z"/><path d="m2 10.5h5c.2763672 0 .5-.2236328.5-.5s-.2236328-.5-.5-.5h-5c-.2763672 0-.5.2236328-.5.5s.2236328.5.5.5z"/><path d="m4.6464844 7.3535156c.09375.09375.2207031.1464844.3535156.1464844h2c.2763672 0 .5-.2236328.5-.5s-.2236328-.5-.5-.5h-1.7929688l-1.8535156-1.8535156c-.1953125-.1953125-.5117188-.1953125-.7070312 0s-.1953125.5117188 0 .7070312z"/><path d="m7 12.5h-2c-.1328125 0-.2597656.0527344-.3535156.1464844l-2 2c-.1953125.1953125-.1953125.5117188 0 .7070312.0976562.0976562.2255859.1464844.3535156.1464844s.2558594-.0488281.3535156-.1464844l1.8535156-1.8535156h1.7929688c.2763672 0 .5-.2236328.5-.5s-.2236328-.5-.5-.5z"/><path d="m25 10.5h5c.2763672 0 .5-.2236328.5-.5s-.2236328-.5-.5-.5h-5c-.2763672 0-.5.2236328-.5.5s.2236328.5.5.5z"/><path d="m25 7.5h2c.1328125 0 .2597656-.0527344.3535156-.1464844l2-2c.1953125-.1953125.1953125-.5117188 0-.7070312s-.5117188-.1953125-.7070312 0l-1.8535156 1.8535156h-1.7929688c-.2763672 0-.5.2236328-.5.5s.2236328.5.5.5z"/><path d="m25 13.5h1.7929688l1.8535156 1.8535156c.0976562.0976562.2255859.1464844.3535156.1464844s.2558594-.0488281.3535156-.1464844c.1953125-.1953125.1953125-.5117188 0-.7070312l-2-2c-.09375-.09375-.2207031-.1464844-.3535156-.1464844h-2c-.2763672 0-.5.2236328-.5.5s.2236328.5.5.5z"/><circle cx="16" cy="30" r=".5"/></svg>