<svg id="Layer_1" viewBox="0 0 512 512" xmlns="http://www.w3.org/2000/svg" data-name="Layer 1"><path d="m309.128 328.495 12.443 19.874c1.279 2.044 3.521 3.285 5.933 3.285h.003c2.413 0 4.655-1.245 5.934-3.291l12.416-19.87c35.028-8.408 60.138-40.027 60.138-76.335 0-43.28-35.211-78.49-78.49-78.49-7.453 0-14.766 1.039-21.795 3.075-13.935-10.261-31.13-16.341-49.724-16.341s-35.781 6.077-49.715 16.335c-7.024-2.031-14.33-3.069-21.775-3.069-43.279 0-78.49 35.211-78.49 78.49 0 36.307 25.11 67.927 60.139 76.335l12.415 19.87c1.278 2.046 3.521 3.29 5.934 3.291h.003c2.411 0 4.653-1.241 5.933-3.285l12.445-19.875c6.616-1.588 12.954-4.028 18.924-7.259 4.678 2.087 9.585 3.776 14.698 4.989l13.521 22.085c1.271 2.078 3.533 3.345 5.97 3.345s4.698-1.267 5.97-3.345l13.521-22.085c5.119-1.213 10.032-2.905 14.715-4.995 5.981 3.24 12.324 5.681 18.936 7.267zm82.866-76.336c0 30.682-21.818 57.288-51.88 63.264-1.894.376-3.548 1.519-4.571 3.156l-8.045 12.875-8.064-12.88c-1.023-1.635-2.677-2.775-4.568-3.151-3.344-.664-6.606-1.601-9.779-2.777 21.342-15.427 34.946-40.53 34.946-68.197 0-21.563-8.169-41.25-21.567-56.144 2.974-.415 5.99-.637 9.039-.637 35.56 0 64.49 28.931 64.49 64.491zm-194.864 63.265c-1.89.377-3.541 1.516-4.563 3.15l-8.065 12.88-8.044-12.875c-1.023-1.638-2.678-2.78-4.571-3.156-30.062-5.976-51.881-32.583-51.881-63.264 0-35.56 28.931-64.491 64.49-64.491 3.041 0 6.049.22 9.015.634-13.399 14.895-21.57 34.583-21.57 56.147 0 27.667 13.609 52.772 34.957 68.201-3.167 1.172-6.425 2.108-9.767 2.774zm72.576-2.27c-1.917.38-3.589 1.544-4.609 3.212l-9.111 14.881-9.11-14.881c-1.021-1.667-2.691-2.832-4.608-3.211-32.639-6.47-56.327-35.365-56.327-68.706 0-38.624 31.423-70.047 70.046-70.047s70.047 31.423 70.047 70.047c0 33.346-23.688 62.24-56.326 68.705zm31.435-68.705c0 3.866-3.134 7-7 7h-76.281c-3.866 0-7-3.134-7-7s3.134-7 7-7h76.281c3.866 0 7 3.134 7 7zm-90.281-24.974c0-3.866 3.134-7 7-7h11.537c3.866 0 7 3.134 7 7s-3.134 7-7 7h-11.537c-3.866 0-7-3.134-7-7zm90.281 0c0 3.866-3.134 7-7 7h-47.311c-3.866 0-7-3.134-7-7s3.134-7 7-7h47.311c3.866 0 7 3.134 7 7zm0 49.947c0 3.866-3.134 7-7 7h-11.537c-3.866 0-7-3.134-7-7s3.134-7 7-7h11.537c3.866 0 7 3.134 7 7zm-28.971 0c0 3.866-3.134 7-7 7h-47.311c-3.866 0-7-3.134-7-7s3.134-7 7-7h47.311c3.866 0 7 3.134 7 7zm-16.185-138.759c3.866 0 7-3.134 7-7v-52.231c12.979-3.144 22.649-14.853 22.649-28.784 0-16.348-13.288-29.649-29.621-29.649s-29.648 13.301-29.648 29.649c0 13.914 9.654 25.611 22.62 28.772v52.242c0 3.866 3.134 7 7 7zm-15.62-88.015c0-8.629 7.02-15.649 15.648-15.649s15.621 7.02 15.621 15.649-7.008 15.62-15.621 15.62-15.648-7.007-15.648-15.62zm-197.745 242.987c13.927 0 25.636-9.655 28.801-22.621h14.797c3.866 0 7-3.134 7-7s-3.134-7-7-7h-14.786c-3.147-12.979-14.867-22.649-28.812-22.649-16.333 0-29.62 13.288-29.62 29.621s13.287 29.649 29.62 29.649zm0-45.27c8.629 0 15.649 7.007 15.649 15.621s-7.021 15.649-15.649 15.649-15.62-7.02-15.62-15.649 7.007-15.621 15.62-15.621zm111.647 117.396c-2.732-2.733-7.165-2.734-9.899 0l-23.813 23.812c-11.407-6.934-26.533-5.494-36.404 4.344-11.52 11.556-11.52 30.36 0 41.916.003.002.006.005.008.008 5.78 5.78 13.373 8.67 20.966 8.67s15.186-2.89 20.966-8.67c9.848-9.849 11.3-24.956 4.363-36.368l23.813-23.812c2.734-2.733 2.734-7.166 0-9.899zm-38.077 60.18c-6.1 6.101-16.026 6.103-22.13.001-6.08-6.107-6.078-16.038-.01-22.126 6.062-6.043 15.893-6.078 22.002-.132.047.05.088.103.137.152.045.045.094.083.14.126 5.954 6.114 5.913 15.926-.14 21.978zm9.9-333.753c-5.6-5.6-13.04-8.683-20.951-8.683s-15.345 3.081-20.943 8.675c-5.599 5.58-8.686 13.012-8.692 20.925-.006 7.927 3.078 15.381 8.684 20.986 5.6 5.599 13.04 8.683 20.952 8.683 5.523 0 10.815-1.508 15.413-4.321l23.814 23.814c1.367 1.367 3.159 2.05 4.95 2.05s3.583-.683 4.95-2.05c2.733-2.734 2.733-7.166 0-9.899l-23.815-23.815c2.818-4.607 4.326-9.911 4.321-15.448-.007-7.913-3.093-15.344-8.683-20.917zm-32.004 32.003c-2.958-2.959-4.586-6.892-4.583-11.075.004-4.169 1.629-8.083 4.575-11.02.003-.003.006-.006.009-.008 2.955-2.955 6.88-4.583 11.052-4.583s8.096 1.627 11.06 4.591c2.946 2.938 4.571 6.851 4.574 11.021.003 4.183-1.624 8.117-4.583 11.075-2.955 2.955-6.88 4.583-11.051 4.583s-8.097-1.627-11.053-4.583zm263.646 38.076c1.367 1.367 3.158 2.05 4.95 2.05s3.583-.684 4.95-2.05l23.825-23.825c4.603 2.82 9.9 4.332 15.432 4.332 7.911 0 15.352-3.084 20.943-8.676 5.598-5.581 8.685-13.012 8.69-20.925.006-7.927-3.077-15.38-8.683-20.986-5.6-5.599-13.041-8.683-20.951-8.683s-15.353 3.084-20.951 8.683c-5.606 5.606-8.69 13.059-8.685 20.986.005 5.512 1.508 10.788 4.306 15.367l-23.828 23.827c-2.733 2.734-2.733 7.166 0 9.899zm38.105-60.18c2.955-2.955 6.88-4.583 11.052-4.583s8.096 1.627 11.051 4.583c2.959 2.958 4.586 6.892 4.583 11.075-.003 4.17-1.628 8.084-4.583 11.029-2.955 2.955-6.88 4.583-11.051 4.583s-8.097-1.627-11.061-4.591c-2.947-2.938-4.571-6.852-4.575-11.021-.003-4.183 1.625-8.116 4.584-11.075zm-9.929 333.753c5.6 5.6 13.046 8.683 20.966 8.683s15.366-3.083 20.966-8.683l.008-.008c11.511-11.549 11.511-30.339-.008-41.896-5.6-5.6-13.046-8.683-20.966-8.683-5.523 0-10.813 1.504-15.41 4.311l-23.833-23.832c-2.732-2.733-7.165-2.733-9.899 0-2.733 2.734-2.733 7.166 0 9.899l23.825 23.825c-2.821 4.603-4.333 9.901-4.333 15.432 0 7.912 3.084 15.352 8.684 20.952zm20.969-36.581c4.005 0 8.009 1.523 11.055 4.569 6.079 6.098 6.079 16.02.002 22.119-6.103 6.095-16.023 6.093-22.126-.007-2.955-2.956-4.583-6.88-4.583-11.052s1.628-8.097 4.584-11.052c3.052-3.052 7.061-4.577 11.068-4.577zm62.473-105.625c16.349 0 29.649-13.3 29.649-29.649s-13.301-29.621-29.649-29.621c-13.932 0-25.64 9.67-28.784 22.649h-14.813c-3.866 0-7 3.134-7 7s3.134 7 7 7h14.825c3.162 12.966 14.858 22.621 28.772 22.621zm0-45.27c8.629 0 15.649 7.007 15.649 15.621s-7.021 15.649-15.649 15.649-15.62-7.02-15.62-15.649 7.007-15.621 15.62-15.621zm-213.365 141c-3.866 0-7 3.134-7 7v52.208c-12.98 3.155-22.648 14.87-22.648 28.807 0 16.333 13.3 29.621 29.648 29.621s29.621-13.288 29.621-29.621c0-13.935-9.656-25.648-22.621-28.805v-52.209c0-3.866-3.134-7-7-7zm15.621 88.015c0 8.613-7.008 15.621-15.621 15.621s-15.648-7.007-15.648-15.621 7.02-15.649 15.648-15.649 15.621 7.02 15.621 15.649z"/></svg>