<?xml version="1.0" encoding="UTF-8"?>
<svg id="Layer_1" xmlns="http://www.w3.org/2000/svg" version="1.1" viewBox="0 0 110 135">
  <!-- Generator: Adobe Illustrator 29.8.2, SVG Export Plug-In . SVG Version: 2.1.1 Build 3)  -->
  <defs>
    <style>
      .st0 {
        fill-rule: evenodd;
        stroke: #000;
        stroke-miterlimit: 10;
      }
    </style>
  </defs>
  <path class="st0" d="M12.03,79.42h15.8c.65,0,1.19.53,1.19,1.19v3.06c0,.44-.24.83-.62,1.04-.63.44-1.16,1.03-1.52,1.7-.8,1.51-.76,3.33.12,4.79s2.46,2.36,4.16,2.36,3.29-.9,4.17-2.36c.88-1.47.92-3.28.11-4.79-.39-.71-.93-1.32-1.6-1.75-.33-.21-.53-.59-.53-.98v-3.06c0-.65.53-1.19,1.19-1.19h15.8c1.32,0,2.39-1.07,2.39-2.39v-14.61h-1.27c-1.91,2.41-5.15,3.34-8.04,2.32-2.9-1.02-4.86-3.75-4.86-6.84s1.95-5.82,4.86-6.84c2.9-1.02,6.13-.09,8.04,2.32h1.27v-14.61c0-1.32-1.07-2.39-2.39-2.39H12.03c-1.32,0-2.39,1.07-2.39,2.39v38.25c0,1.32,1.07,2.37,2.39,2.39h0ZM93.75,64.78h0c2.21,0,4.11,1.56,4.55,3.73.43,2.17-.74,4.33-2.77,5.18-2.04.85-4.4.13-5.62-1.71-1.23-1.84-.98-4.29.58-5.84.87-.87,2.04-1.36,3.27-1.36h-.01ZM95.34,67.82c-.76-.76-1.95-.88-2.85-.29-.9.6-1.24,1.74-.83,2.74.42.99,1.47,1.55,2.52,1.35,1.05-.21,1.82-1.13,1.82-2.2,0-.6-.24-1.17-.65-1.59h-.01ZM93.75,53.28c2.21,0,4.11,1.56,4.54,3.73.43,2.16-.73,4.33-2.77,5.18-2.04.85-4.4.13-5.62-1.71s-.98-4.28.58-5.84c.87-.87,2.04-1.35,3.27-1.35h0ZM95.34,56.32h0c-.76-.76-1.95-.88-2.85-.29-.9.6-1.24,1.74-.83,2.73.42.99,1.47,1.56,2.52,1.35,1.05-.21,1.82-1.13,1.82-2.2,0-.6-.24-1.17-.65-1.59h-.01ZM93.75,41.77c2.21,0,4.11,1.56,4.54,3.73.43,2.17-.73,4.33-2.77,5.18-2.04.85-4.4.13-5.62-1.71-1.22-1.83-.98-4.28.58-5.84.87-.87,2.04-1.36,3.27-1.36h0ZM95.34,44.81h0c-.76-.76-1.95-.88-2.85-.29-.9.6-1.24,1.74-.83,2.74.42.99,1.47,1.55,2.52,1.35s1.82-1.13,1.82-2.2c0-.6-.24-1.17-.65-1.59h-.01ZM75.16,102.92c1.13.37,2.02,1.26,2.41,2.4h1.27c.65,0,1.19.53,1.19,1.19s-.53,1.19-1.19,1.19h-1.27c-.37,1.13-1.26,2.02-2.41,2.41v1.27h0c.01.32-.11.63-.33.86-.22.22-.53.36-.86.36s-.63-.13-.86-.36c-.22-.22-.34-.55-.33-.87v-1.27c-1.13-.37-2.02-1.26-2.41-2.4h-1.27c-.65,0-1.19-.53-1.19-1.19s.53-1.19,1.19-1.19h1.27c.39-1.13,1.27-2.02,2.41-2.41v-1.28c0-.32.12-.63.33-.87.22-.22.53-.36.86-.36s.63.13.86.36c.22.24.34.55.33.87v1.29ZM74.97,105.51c-.47-.48-1.22-.56-1.78-.18-.56.37-.77,1.09-.51,1.71s.92.97,1.57.85,1.12-.71,1.12-1.38c0-.37-.15-.73-.41-.99ZM100.8,84.79h0c1.13.37,2.02,1.26,2.41,2.4h1.27c.32,0,.63.12.87.33.22.22.36.53.36.86s-.13.63-.36.86c-.24.22-.55.34-.87.33h-1.27c-.37,1.13-1.26,2.02-2.41,2.41v1.27c.01.32-.11.63-.33.87-.22.22-.53.36-.86.36s-.63-.13-.86-.36c-.22-.24-.34-.55-.33-.87v-1.26c-1.13-.37-2.02-1.27-2.41-2.41h-1.27c-.32,0-.63-.12-.87-.33-.22-.22-.36-.53-.36-.86s.13-.63.36-.86c.22-.22.55-.34.87-.33h1.27c.37-1.13,1.27-2.02,2.41-2.4v-1.27c0-.32.12-.63.33-.86.22-.24.53-.36.86-.36s.63.13.86.36c.22.22.34.53.33.86v1.27h0ZM100.6,87.39h0c-.47-.48-1.22-.56-1.78-.18-.56.37-.78,1.09-.51,1.71.26.62.92.97,1.57.85s1.13-.71,1.12-1.38c0-.37-.15-.73-.41-.99h0ZM59.93,102.92c1.13.37,2.02,1.26,2.41,2.4h1.27c.65,0,1.19.53,1.19,1.19s-.53,1.19-1.19,1.19h-1.27c-.37,1.13-1.26,2.02-2.41,2.41v1.27h0c.01.32-.11.63-.33.86-.22.22-.53.36-.86.36s-.63-.13-.86-.36c-.22-.22-.34-.55-.33-.87v-1.27c-1.13-.37-2.02-1.26-2.41-2.4h-1.27c-.65,0-1.19-.53-1.19-1.19s.53-1.19,1.19-1.19h1.27c.37-1.13,1.26-2.02,2.41-2.41v-1.28c-.01-.32.11-.63.33-.87.22-.22.53-.36.86-.36s.63.13.86.36c.22.24.34.55.33.87v1.29ZM59.74,105.51c-.48-.48-1.22-.56-1.78-.18s-.77,1.09-.51,1.71.92.97,1.57.85c.66-.13,1.13-.71,1.13-1.38,0-.37-.15-.73-.41-.99h-.01ZM44.85,81.8h4.29c.1.27.19.55.28.81.16.51.31,1.04.43,1.58.11.48.5.85.99.92l4.41.59v5.56l-4.38.58c-.51.05-.93.42-1.04.92-.48,2.12-1.32,4.15-2.48,5.99-.29.42-.28.98.04,1.39l2.72,3.54-3.94,3.94-3.54-2.71h0c-.4-.31-.94-.33-1.36-.06-.92.58-1.89,1.08-2.9,1.5s-2.05.75-3.11.99c-.48.11-.85.51-.92,1.01l-.59,4.41h-5.56l-.58-4.38c-.05-.51-.42-.93-.92-1.04-1.07-.24-2.11-.58-3.11-.99-.99-.42-1.96-.91-2.88-1.49-.42-.29-.98-.28-1.39.04l-3.54,2.71-3.94-3.94,2.72-3.54c.3-.4.32-.93.06-1.35-1.17-1.85-2.01-3.89-2.5-6.03-.11-.48-.51-.86-1.01-.92l-4.41-.58v-5.57l4.38-.58h0c.51-.04.93-.42,1.04-.92.13-.55.27-1.08.43-1.58.09-.27.18-.53.28-.81h4.3c-.34.72-.64,1.47-.87,2.23-1.41,4.66-.52,9.71,2.37,13.62,2.9,3.92,7.49,6.22,12.36,6.22s9.46-2.3,12.36-6.22c2.9-3.9,3.79-8.96,2.37-13.62-.22-.76-.51-1.51-.87-2.23h0ZM19.8,81.79h6.84v1.28c-2.41,1.91-3.34,5.15-2.32,8.04,1.02,2.9,3.75,4.85,6.84,4.85s5.81-1.95,6.83-4.85.09-6.13-2.32-8.04v-1.27h6.49c2.41,4.02,2.45,9.03.14,13.09-2.31,4.08-6.63,6.59-11.32,6.59s-9.01-2.52-11.32-6.59c-2.31-4.08-2.26-9.07.15-13.09h0ZM51.59,81.61c.03.1.06.18.1.28.11.32.19.65.29.97l3.79.5c1.08.14,1.89,1.07,1.89,2.16v5.91c0,1.09-.81,2.01-1.89,2.16l-3.79.5c-.49,1.84-1.22,3.62-2.18,5.25l2.32,3.04c.63.82.59,1.99-.11,2.77-.03.03-.05.06-.09.1l-4.17,4.17c-.77.77-2,.86-2.87.19l-3.04-2.32c-1.65.95-3.41,1.69-5.25,2.18l-.5,3.79h0c-.14,1.08-1.07,1.89-2.16,1.89h-5.91c-1.09,0-2.02-.81-2.16-1.89l-.5-3.79c-1.84-.49-3.61-1.22-5.25-2.18l-3.04,2.32c-.82.63-1.99.59-2.77-.11-.03-.02-.06-.05-.1-.09l-4.17-4.17c-.77-.77-.86-1.99-.19-2.86l2.32-3.04c-.95-1.65-1.69-3.42-2.18-5.26l-3.79-.5h0c-1.09-.14-1.89-1.06-1.89-2.16v-5.91c0-1.09.81-2.01,1.89-2.16l3.79-.5c.09-.32.18-.65.29-.97.04-.13.09-.26.13-.39-1.88-.68-3.15-2.47-3.15-4.47v-38.25c0-2.63,2.14-4.76,4.76-4.76h38.24c2.63,0,4.76,2.13,4.76,4.76v15.8c0,.65-.53,1.19-1.19,1.19h-3.06c-.41,0-.77-.2-.99-.53-.44-.67-1.05-1.22-1.75-1.6-1.69-.9-3.74-.73-5.26.44-1.52,1.18-2.2,3.12-1.75,4.99.45,1.86,1.96,3.28,3.84,3.64,1.88.34,3.8-.44,4.89-2.02.2-.39.61-.62,1.05-.62h3.06c.65,0,1.19.53,1.19,1.19v15.8c0,2.12-1.41,3.99-3.46,4.58h.02ZM64.11,89.4h17.49c.65,0,1.19-.53,1.19-1.19v-1.75l8.17,6.37-8.17,6.37v-1.75c0-.32-.13-.62-.35-.85s-.52-.34-.85-.34h-20.6c-.32-.01-.63.11-.87.33-.22.22-.36.53-.36.86s.13.63.36.86c.22.22.55.34.87.33h19.43v3c0,.46.26.87.66,1.07.41.19.9.15,1.25-.13l11.26-8.77h0c.09-.06.16-.14.22-.22.19-.25.28-.57.24-.88s-.2-.59-.45-.79l-11.26-8.76h0c-.35-.29-.85-.35-1.26-.16s-.68.62-.68,1.08v3h-16.3c-.32,0-.63.12-.87.33-.22.22-.36.53-.36.86s.13.63.36.86c.24.22.55.34.87.33h0l.02-.02ZM100.03,36.39h-15.8c-.65,0-1.19-.53-1.19-1.19v-3.06c0-.44.24-.83.62-1.05.63-.44,1.16-1.03,1.53-1.7.91-1.7.73-3.77-.45-5.28-1.19-1.52-3.16-2.19-5.02-1.72-1.87.47-3.28,2-3.59,3.89-.32,1.89.5,3.81,2.12,4.87.33.22.53.59.53.99v3.06c0,.31-.13.62-.35.85s-.52.34-.85.34h-15.8c-1.32,0-2.39,1.07-2.39,2.39v14.61h1.28c1.91-2.41,5.15-3.33,8.04-2.31s4.85,3.75,4.85,6.83-1.95,5.81-4.85,6.83-6.13.09-8.04-2.32h-1.28v14.61c0,1.32,1.07,2.39,2.39,2.39h38.25c1.32,0,2.39-1.07,2.39-2.39v-38.25c0-1.32-1.07-2.37-2.39-2.39h-.01ZM85.41,34.03v-1.28c.76-.61,1.39-1.37,1.85-2.23,1.34-2.47,1.12-5.5-.56-7.76s-4.5-3.34-7.26-2.77c-2.75.56-4.93,2.66-5.58,5.4s.32,5.59,2.52,7.35v1.28h-14.61c-2.63,0-4.76,2.13-4.76,4.76v15.8c0,.31.13.61.35.85.22.22.52.34.85.34h3.06c.44,0,.85-.24,1.05-.62.82-1.19,2.12-1.95,3.56-2.08s2.86.39,3.87,1.4c.97.97,1.49,2.31,1.41,3.68s-.72,2.65-1.79,3.52-2.45,1.24-3.81,1.04c-1.36-.21-2.57-.98-3.33-2.13-.21-.33-.59-.53-.98-.53h-3.06c-.32,0-.62.13-.85.35-.22.22-.34.52-.34.83v15.8c0,2.63,2.13,4.76,4.76,4.76h38.25c2.62,0,4.76-2.13,4.76-4.76v-38.25c0-2.62-2.14-4.76-4.76-4.76h-14.61Z"/>
</svg>