<svg id="Understanding_AI_Basics" viewBox="0 0 64 64" xmlns="http://www.w3.org/2000/svg" data-name="Understanding AI Basics"><path d="m45.34 7.1c-4.29-3.84-9.84-5.61-15.62-4.97-9.24 1.02-16.64 8.48-17.61 17.73-.73 7.02 2.17 13.76 7.76 18.02 1.71 1.3 2.78 3.13 3.05 5.12-1.62.04-2.93 1.36-2.93 2.99s1.35 3 3 3v2h-1c-.55 0-1 .45-1 1s.45 1 1 1h1v1c0 1.65 1.35 3 3 3h1c0 2.76 2.24 5 5 5s5-2.24 5-5h1c1.65 0 3-1.35 3-3v-1h1c.55 0 1-.45 1-1s-.45-1-1-1h-1v-2c1.65 0 3-1.35 3-3s-1.31-2.95-2.93-2.99c.27-1.99 1.34-3.82 3.04-5.11 5.01-3.82 7.89-9.61 7.89-15.89 0-5.68-2.43-11.11-6.66-14.9zm-13.34 52.9c-1.65 0-3-1.35-3-3h6c0 1.65-1.35 3-3 3zm7-6c0 .55-.45 1-1 1h-12c-.55 0-1-.45-1-1v-1h14zm0-3h-14v-2h14zm3-5c0 .55-.45 1-1 1h-18c-.55 0-1-.45-1-1s.45-1 1-1h18c.55 0 1 .45 1 1zm.9-9.7c-2.2 1.68-3.57 4.08-3.85 6.7h-14.11c-.28-2.62-1.65-5.02-3.86-6.71-5.03-3.84-7.64-9.91-6.99-16.23.87-8.32 7.53-15.03 15.84-15.95 5.2-.58 10.2 1.01 14.06 4.47 3.81 3.41 6 8.3 6 13.41 0 5.65-2.59 10.87-7.1 14.3z"/><path d="m61 21h-5c-.55 0-1 .45-1 1s.45 1 1 1h5c.55 0 1-.45 1-1s-.45-1-1-1z"/><path d="m9 22c0-.55-.45-1-1-1h-5c-.55 0-1 .45-1 1s.45 1 1 1h5c.55 0 1-.45 1-1z"/><path d="m51.66 9.24c.2 0 .4-.06.57-.18l4.1-2.87c.45-.32.56-.94.25-1.39-.32-.45-.94-.56-1.39-.25l-4.1 2.87c-.45.32-.56.94-.25 1.39.19.28.5.43.82.43z"/><path d="m11.77 34.95-4.1 2.87c-.45.32-.56.94-.25 1.39.19.28.5.43.82.43.2 0 .4-.06.57-.18l4.1-2.87c.45-.32.56-.94.25-1.39-.32-.45-.94-.56-1.39-.25z"/><path d="m52.23 34.95c-.45-.32-1.08-.21-1.39.25-.32.45-.21 1.08.25 1.39l4.1 2.87c.17.12.38.18.57.18.32 0 .63-.15.82-.43.32-.45.21-1.08-.25-1.39z"/><path d="m11.77 9.06c.17.12.38.18.57.18.32 0 .63-.15.82-.43.32-.45.21-1.08-.25-1.39l-4.1-2.87c-.45-.32-1.08-.21-1.39.25-.32.45-.21 1.08.25 1.39z"/><path d="m44 16.93c.55 0 1-.45 1-1s-.45-1-1-1h-2v-2c0-.55-.45-1-1-1h-2v-2c0-.55-.45-1-1-1s-1 .45-1 1v2h-4v-2c0-.55-.45-1-1-1s-1 .45-1 1v2h-4v-2c0-.55-.45-1-1-1s-1 .45-1 1v2h-2c-.55 0-1 .45-1 1v2h-2c-.55 0-1 .45-1 1s.45 1 1 1h2v4h-2c-.55 0-1 .45-1 1s.45 1 1 1h2v4h-2c-.55 0-1 .45-1 1s.45 1 1 1h2v2c0 .55.45 1 1 1h2v2c0 .55.45 1 1 1s1-.45 1-1v-2h4v2c0 .55.45 1 1 1s1-.45 1-1v-2h4v2c0 .55.45 1 1 1s1-.45 1-1v-2h2c.55 0 1-.45 1-1v-2h2c.55 0 1-.45 1-1s-.45-1-1-1h-2v-4h2c.55 0 1-.45 1-1s-.45-1-1-1h-2v-4zm-4 13h-16v-16h16z"/><path d="m30.94 17.58c-.15-.39-.52-.65-.94-.65s-.79.26-.94.65l-3 8c-.19.52.07 1.09.59 1.29.52.19 1.09-.07 1.29-.59l.51-1.35h3.11l.51 1.35c.15.4.53.65.94.65.12 0 .24-.02.35-.06.52-.19.78-.77.59-1.29l-3-8zm-1.74 5.35.81-2.15.81 2.15h-1.61z"/><path d="m36 16.93c-.55 0-1 .45-1 1v8c0 .55.45 1 1 1s1-.45 1-1v-8c0-.55-.45-1-1-1z"/></svg>