<svg clip-rule="evenodd" fill-rule="evenodd" height="1.707in" image-rendering="optimizeQuality" shape-rendering="geometricPrecision" text-rendering="geometricPrecision" viewBox="0 0 1707 1707" width="1.707in" xmlns="http://www.w3.org/2000/svg"><g id="Layer_x0020_1"><path d="m426 1646v-192c-17 22-29 44-50 44-9 0-17-5-23-12l-90-117h-36c-92 0-166 74-166 166v111h120v-84c0-39 60-39 60 0v84zm718-559c-17 0-30-13-30-30v-227c-158-64-269-219-269-399 0-237 193-430 430-430 238 0 431 193 431 430 0 180-111 335-269 399v227c0 25-29 39-48 24l-114-89-113 89c-5 4-12 6-18 6zm30-237v146l83-66c11-9 26-9 37 0l83 66v-147c-67 17-137 17-203 1zm101-112c-39 0-39-60 0-60 137 0 248-110 248-247 0-136-111-247-248-247-136 0-247 111-247 247 0 40-60 40-60 0 0-169 138-307 307-307 170 0 308 138 308 307 0 170-138 307-308 307zm97-128c-13 0-80-36-97-43l-83 40c-22 10-46-8-43-31l13-92-64-67c-17-17-8-46 16-50l91-17 44-81c11-21 41-21 53 0l44 81 91 17c23 4 33 33 16 50l-64 67 13 92c2 18-12 34-30 34zm-97-107c12 0 45 19 60 26-11-76-17-58 36-113-75-14-59-2-96-70-36 68-20 56-96 70 53 55 47 37 37 113 14-7 47-26 59-26zm0-442c-204 0-370 166-370 370 0 205 166 371 370 371 205 0 371-166 371-371 0-204-166-370-371-370zm0 1645c-154 0-279-125-279-279s125-279 279-279 280 125 280 279-126 279-280 279zm0-498c-120 0-219 98-219 219s99 219 219 219c121 0 220-98 220-219s-99-219-220-219zm-56 332c-8 0-15-3-21-8l-55-55c-28-28 15-70 43-42l33 33 146-146c28-28 70 14 43 42l-168 168c-6 5-13 8-21 8zm-1129-1060c-17 0-32-16-29-34l12-92-64-67c-16-17-7-45 16-50l92-16 44-82c11-21 41-21 52 0l44 82 92 16c23 5 32 33 16 50l-64 67 12 92c3 24-21 42-42 31l-84-40c-16 8-83 43-97 43zm97-106c12 0 45 18 59 25-10-76-16-57 37-113-75-13-60-2-96-69-36 67-20 56-96 69 53 56 47 37 37 113 14-7 47-25 59-25zm480-16c-13 0-80-35-96-43l-84 40c-21 10-46-8-42-31l12-92-64-67c-16-17-7-46 16-50l92-17 44-81c11-21 41-21 52 0l44 81 91 17c24 4 33 33 17 50l-64 67 12 92c3 18-12 34-30 34zm-192-194c53 55 47 37 37 113 69-34 49-34 118 0-10-76-16-58 37-113-76-14-60-2-96-70-36 68-21 56-96 70zm-59 1207-78-76-24 42 63 82zm-114-132v-58c-55-34-83-75-106-126-19-39-46-110-32-169-27-47-24-147 0-218 56-166 207-177 334-108 97 52 263-13 266 123 2 75 45 107-16 199 34 96-54 222-79 250-18 19-38 36-59 49v58l41 70h34c125 0 226 101 226 226v141c0 16-14 30-30 30-283 0-567 0-850 0-17 0-30-14-30-30v-141c0-125 101-226 226-226h34zm60-29v24l94 93 94-93v-24c-61 22-127 22-188 0zm211 85-77 76 39 48 63-82zm-87 351h185v-84c0-39 60-39 60 0v84h120v-111c0-92-75-166-166-166h-37l-89 117c-12 15-35 16-47 0l-26-32zm203-750c-57-59-243 21-313-22-32-19-64-38-84-38-17 0-35 16-68 59-10 29 0 79 26 135 25 54 50 82 94 107 92 52 209 34 281-46 29-31 91-138 64-195zm-79-82c40 0 73 6 97 20 31-54-1-72-3-150 0-20-1-34-85-39-158-9-118-33-216-58-167-43-209 129-196 234 65-70 118-49 201 2 16 10 77 2 103-1 33-4 66-8 99-8z"/></g></svg>