<svg id="Layer_1" enable-background="new 0 0 52 52" height="512" viewBox="0 0 52 52" width="512" xmlns="http://www.w3.org/2000/svg"><linearGradient id="SVGID_1_" gradientUnits="userSpaceOnUse" x1="-124" x2="-123.293" y1="-62" y2="-61.293"><stop offset="0" stop-color="rgb(0,0,0)"/><stop offset=".1783311" stop-color="rgb(0,0,0)"/><stop offset=".3611409" stop-color="rgb(0,0,0)"/><stop offset=".546043" stop-color="rgb(0,0,0)"/><stop offset=".7323959" stop-color="rgb(0,0,0)"/><stop offset=".9181451" stop-color="rgb(0,0,0)"/><stop offset="1" stop-color="rgb(0,0,0)"/></linearGradient><g id="_x35_2"><path d="m22.4150391 36.9321175c-.5522461 0-1.0498047.4975586-1.0498047 1.0498047s.4975586 1.050293 1.0498047 1.050293 1.050293-.4980469 1.050293-1.050293-.4980469-1.0498047-1.050293-1.0498047z"/><path d="m26 36.9321175c-.5522461 0-1.050293.4975586-1.050293 1.0498047s.4980469 1.0502929 1.050293 1.0502929 1.0498047-.4980469 1.0498047-1.050293-.4975586-1.0498046-1.0498047-1.0498046z"/><path d="m29.5844727 36.9321175c-.5522461 0-1.0498047.4975586-1.0498047 1.0498047s.4975586 1.050293 1.0498047 1.050293 1.050293-.4980469 1.050293-1.050293-.4980469-1.0498047-1.050293-1.0498047z"/><path d="m45.0766602 5.9330921h-7.9824219v-2.1206055c0-.9946289-.809082-1.8037109-1.8037109-1.8037109h-17.7553711c-.9941406 0-1.8032227.809082-1.8032227 1.8037109v2.1206055h-8.8193359c-2.7089844 0-4.9125977 2.2036133-4.9125977 4.9125977v26.5620136c0 2.7089844 2.2036133 4.9125977 4.9125977 4.9125977h11.9192505l-1.5667115 4.1196289c-.1898804.5032959-.199707 1.0410767-.0751343 1.5498047h-3.2608032c-.5522461 0-1 .4477539-1 1s.4477539 1 1 1c-.1010599.0004616 7.4358139.003109 24.1416016 0 .5522461 0 1-.4477539 1-1s-.4477539-1-1-1h-3.2594604c.1245117-.5090332.114502-1.0474243-.0759888-1.5522461l-1.5657349-4.1171875h11.9070435c2.7148437 0 4.9233398-2.2036133 4.9233398-4.9125977v-26.5620136c0-2.7089844-2.2084961-4.9125977-4.9233398-4.9125977zm-25.388733 42.0566425c-.4266491-.0158348-.7001438-.4494438-.5526733-.8413086l1.8349609-4.8251953h10.0610352l1.8339844 4.8227539c.1474838.3916931-.1218491.8277969-.5516968.84375zm12.8648072-18.3999042h-15.6850586c-1.2470703 0-2.2617188-1.0146484-2.2617188-2.2617188v-9.1293945h10.3452148c.7573242 0 1.4360352-.4838867 1.6923828-1.2124023l.7861328-2.300293h4.5385742v12.7861328c.0000001.6452694.1937639 1.4679127.5844728 2.1176758zm1.4155273-2.1176758v-.1835938h1.5263672c.8818359 0 1.5996094-.7177734 1.5996094-1.5996094v-13.637207h1.1171875v15.3046876c0 3.0286026-4.2431641 2.8401584-4.2431641.1157226zm1.1259766-23.4633789v21.2797852h-1.1259766v-11.0029297c0-.8818359-.7177734-1.5996094-1.5996094-1.5996094h-5.0908203c-.777832 0-1.4599609.4936523-1.6923828 1.2124023l-.7861328 2.300293h-7.0673828v-12.1899414zm-28.1816406 3.9243164h8.8193359v8.265625h-1.3359375c-.9868164 0-1.7900391.8032227-1.7900391 1.7900391v9.3393555c0 2.3500977 1.9116211 4.2617188 4.2617188 4.2617188h19.2265625c.0011597 0 .0020752-.0006714.0032349-.0006714 2.3616066-.0011044 4.1139526-1.9512291 4.1139526-4.2327271v-15.7050782c0-.8818359-.7177734-1.5996094-1.5996094-1.5996094h-1.5175781v-2.1186523h7.9824219c1.6118164 0 2.9233398 1.3066406 2.9233398 2.9125977v22.8315449h-44v-22.8315449c0-1.6059571 1.3066406-2.9125977 2.9125977-2.9125977zm38.1640625 32.387209h-38.1640625c-1.6059571 0-2.9125977-1.3066407-2.9125977-2.9125977v-1.7304688h44v1.7304688c0 1.605957-1.3115234 2.9125977-2.9233398 2.9125977z"/><path d="m21.7861328 7.9330921h9.5717773c.5522461 0 1-.4477539 1-1s-.4477539-1-1-1h-9.5717773c-.5522461 0-1 .4477539-1 1s.4477539 1 1 1z"/></g></svg>