<?xml version="1.0" encoding="UTF-8"?>
<svg id="Layer_1" xmlns="http://www.w3.org/2000/svg" version="1.1" viewBox="0 0 128 160">
  <!-- Generator: Adobe Illustrator 29.8.2, SVG Export Plug-In . SVG Version: 2.1.1 Build 3)  -->
  <defs>
    <style>
      .st0 {
        stroke: #000;
        stroke-miterlimit: 10;
        stroke-width: 1.5px;
      }
    </style>
  </defs>
  <path class="st0" d="M118.81,25.19c-2.16-2.16-5.29-3.19-9.17-3.19-10.96,0-27.87,8.24-45.64,22.22-17.77-13.98-34.68-22.22-45.64-22.22v3.63h0c10.15,0,26.19,8.08,42.71,20.94-5.33,4.36-10.7,9.22-16,14.51-5.3,5.3-10.16,10.69-14.53,16.03-6.45-8.26-11.72-16.45-15.43-24.07-5.87-12.07-7.13-21.52-3.37-25.29,1.41-1.41,3.63-2.13,6.61-2.13v-3.63s0,0,0,0c-3.87,0-7.01,1.03-9.17,3.19-8.29,8.29.12,30.76,19.04,54.8C9.3,104.04.9,126.52,9.19,134.81c2.16,2.16,5.29,3.19,9.17,3.19,10.96,0,27.87-8.24,45.64-22.23,17.77,13.99,34.68,22.23,45.64,22.23,3.87,0,7.01-1.03,9.17-3.19,8.29-8.29-.11-30.76-19.03-54.81,18.93-24.05,27.32-46.52,19.03-54.81ZM109.64,25.62c2.97,0,5.19.72,6.6,2.13,3.76,3.76,2.51,13.22-3.37,25.29-3.71,7.62-8.98,15.81-15.43,24.07-4.37-5.34-9.22-10.72-14.53-16.03-5.29-5.29-10.67-10.15-16-14.51,16.53-12.86,32.56-20.94,42.72-20.94ZM112.88,106.96c5.87,12.07,7.13,21.52,3.37,25.29-1.41,1.41-3.64,2.13-6.61,2.13-10.15,0-26.19-8.09-42.72-20.95,1.74-1.42,3.49-2.9,5.23-4.43h-5.6c-.85.71-1.7,1.41-2.56,2.1-.85-.69-1.7-1.39-2.56-2.1h-5.6c1.75,1.53,3.49,3,5.23,4.43-16.53,12.86-32.56,20.95-42.72,20.95-2.97,0-5.19-.72-6.61-2.13-3.76-3.76-2.51-13.22,3.37-25.29,3.71-7.62,8.98-15.81,15.43-24.08,2.49,3.04,5.12,6.09,7.92,9.14.28-1.48.65-2.87,1.09-4.18-2.34-2.61-4.58-5.23-6.71-7.84,4.46-5.5,9.43-11,14.79-16.35,5.34-5.34,10.86-10.29,16.36-14.75,5.5,4.45,11.02,9.4,16.36,14.75,5.36,5.36,10.32,10.86,14.79,16.36-2.37,2.92-4.88,5.84-7.52,8.74.43,1.33.77,2.74,1.04,4.22,3.12-3.36,6.05-6.72,8.78-10.07,6.45,8.26,11.72,16.45,15.42,24.07Z"/>
  <path class="st0" d="M74.01,78.21c-1.05,1.05-2.27,1.93-3.6,2.61,2.71.74,4.94,1.97,6.65,3.71,3.43,3.5,5.13,9.29,5.06,17.22h-37.15c-.14-8.2,1.43-13.87,4.81-17.34,1.82-1.88,4.29-3.15,7.34-3.83-1.31-.73-2.49-1.68-3.51-2.77-11,3.97-12.5,15.47-12.25,24.63.04,1.62,1.5,2.93,3.2,2.93h37.99c1.69,0,3.15-1.31,3.19-2.93.18-8.87-1.53-19.93-11.72-24.23Z"/>
  <path class="st0" d="M64,78.19c5.51,0,9.97-4.46,9.97-9.97s-4.46-9.97-9.97-9.97-9.97,4.46-9.97,9.97,4.47,9.97,9.97,9.97ZM64,61.87c3.5,0,6.34,2.85,6.34,6.34s-2.85,6.34-6.34,6.34-6.34-2.85-6.34-6.34,2.85-6.34,6.34-6.34Z"/>
  <path class="st0" d="M31.37,54.62c4.5,0,8.16-3.65,8.16-8.16s-3.65-8.16-8.16-8.16-8.16,3.65-8.16,8.16,3.65,8.16,8.16,8.16ZM31.37,41.94c2.5,0,4.53,2.03,4.53,4.53s-2.03,4.53-4.53,4.53-4.53-2.03-4.53-4.53,2.03-4.53,4.53-4.53Z"/>
  <path class="st0" d="M97.53,54.62c4.5,0,8.16-3.65,8.16-8.16s-3.65-8.16-8.16-8.16-8.16,3.65-8.16,8.16,3.65,8.16,8.16,8.16ZM97.53,41.94c2.5,0,4.53,2.03,4.53,4.53s-2.03,4.53-4.53,4.53-4.53-2.03-4.53-4.53,2.03-4.53,4.53-4.53Z"/>
  <path class="st0" d="M30.47,106.28c-4.5,0-8.16,3.65-8.16,8.16s3.65,8.16,8.16,8.16,8.16-3.65,8.16-8.16-3.65-8.16-8.16-8.16ZM30.47,118.97c-2.5,0-4.53-2.03-4.53-4.53s2.03-4.53,4.53-4.53,4.53,2.03,4.53,4.53-2.03,4.53-4.53,4.53Z"/>
  <path class="st0" d="M96.63,120.78c4.5,0,8.16-3.65,8.16-8.16s-3.65-8.16-8.16-8.16-8.16,3.65-8.16,8.16,3.65,8.16,8.16,8.16ZM96.63,108.09c2.5,0,4.53,2.03,4.53,4.53s-2.03,4.53-4.53,4.53-4.53-2.03-4.53-4.53,2.03-4.53,4.53-4.53Z"/>
</svg>