<?xml version="1.0" encoding="UTF-8"?>
<svg id="Layer_1" xmlns="http://www.w3.org/2000/svg" version="1.1" viewBox="0 0 110 135">
  <!-- Generator: Adobe Illustrator 29.8.2, SVG Export Plug-In . SVG Version: 2.1.1 Build 3)  -->
  <defs>
    <style>
      .st0 {
        fill-rule: evenodd;
        stroke: #000;
        stroke-miterlimit: 10;
        stroke-width: 1.5px;
      }
    </style>
  </defs>
  <path class="st0" d="M84.47,58.63c1.75.45,3.41,1.14,4.96,2.05l2.13-2.13c.46-.46,1.2-.46,1.66,0h0l5.31,5.3c.46.46.46,1.2,0,1.66l-2.13,2.13c.91,1.54,1.6,3.21,2.05,4.95h3.02c.65,0,1.17.52,1.17,1.17v7.51c0,.65-.52,1.17-1.17,1.17h-3.02c-.45,1.75-1.14,3.41-2.05,4.95l2.13,2.13c.46.46.46,1.2,0,1.66l-3,3,7.36,12.75c.45.78-.11,1.77-1.03,1.75l-7.28-.12-3.52,6.32c-.46.87-1.61.83-2.06.06l-8.29-14.35h-2.34l-8.26,14.3c-.47.87-1.62.81-2.06.03l-3.54-6.36-7.28.12c-.9.01-1.48-.96-1.03-1.75l2.88-4.99H9.72c-1.52,0-2.77-1.25-2.77-2.77v-14.88c0-10.61,8.68-19.29,19.29-19.29h2.46c-3.95-2.62-6.32-7.01-6.32-11.77,0-7.79,6.32-14.11,14.11-14.11s14.11,6.32,14.11,14.11c0,4.75-2.38,9.15-6.32,11.77h2.46c5.49,0,10.64,2.35,14.27,6.34.43-1.29,1-2.54,1.68-3.71l-2.13-2.13c-.46-.46-.46-1.2,0-1.66l5.31-5.31c.46-.46,1.2-.46,1.66,0l2.13,2.13c1.54-.91,3.21-1.6,4.95-2.05v-3.02c0-.65.52-1.17,1.17-1.17h7.5c.65,0,1.17.52,1.17,1.17v3.02h0l.02.02ZM54.61,32.12l-.45,1.4c-.16.52-.65.84-1.17.81h-1.42l1.19.86c.43.32.59.87.41,1.35l-.45,1.36,1.19-.87c.43-.31.99-.29,1.39.02l1.17.86-.46-1.4c-.16-.5.03-1.02.43-1.31l1.19-.86h-1.47c-.52,0-.96-.34-1.11-.81l-.45-1.4h.01ZM52.2,31.99h-4.24c-1.13,0-1.59,1.45-.68,2.11h0l3.43,2.49-1.32,4.03c-.34,1.06.89,2.03,1.87,1.25l3.36-2.45,3.43,2.5c.91.66,2.14-.23,1.8-1.3h0l-1.32-4.03,3.43-2.48c.91-.66.48-2.16-.77-2.11h-4.16l-1.3-4.02c-.35-1.08-1.88-1.08-2.23,0l-1.3,4.03h0v-.02ZM19.5,27.97c-.34-1.08-1.88-1.09-2.23,0l-1.3,4.03h-4.16c-1.25-.05-1.68,1.45-.77,2.11l3.43,2.48-1.32,4.03h0c-.35,1.07.88,1.97,1.8,1.3l3.43-2.5,3.36,2.45c.98.78,2.21-.19,1.87-1.25l-1.32-4.03,3.43-2.48h0c.91-.66.45-2.12-.68-2.12h-4.24l-1.3-4.02h0ZM18.84,33.52c.16.52.65.84,1.17.81h1.42l-1.19.86c-.43.32-.59.87-.41,1.35l.45,1.36-1.19-.87c-.43-.31-.99-.29-1.39.02l-1.17.86.46-1.4c.16-.5-.03-1.02-.43-1.31l-1.19-.86h1.47c.52,0,.96-.34,1.11-.81l.45-1.4.45,1.4h-.01ZM37.61,20.27l1.66,5.15h5.42c1.13-.01,1.59,1.44.68,2.1h0l-4.39,3.18,1.68,5.15c.34,1.06-.89,2.03-1.87,1.25l-4.3-3.14-4.38,3.2c-.91.66-2.14-.23-1.8-1.3h0l1.68-5.15-4.39-3.18c-.91-.66-.48-2.16.77-2.11h5.34l1.66-5.14c.35-1.09,1.89-1.07,2.23,0h0ZM37.31,26.94l-.81-2.52-.81,2.52c-.15.47-.59.81-1.11.81h-2.65l2.15,1.55c.4.29.59.81.43,1.31l-.82,2.52,2.12-1.55c.4-.3.96-.32,1.39-.02l2.14,1.56-.81-2.48c-.18-.48-.02-1.04.41-1.35l2.15-1.55h-2.6c-.52.03-1-.29-1.17-.8h0ZM83.48,73.53l-5.52,5.52-2.34-2.34c-.46-.46-1.2-.46-1.66,0-.46.46-.46,1.2,0,1.66l3.17,3.17c.46.46,1.2.46,1.66,0l6.35-6.35c.46-.46.46-1.2,0-1.66-.46-.46-1.2-.46-1.66,0h0ZM93.81,95.9l-.6.6c-.47.47-1.23.46-1.71-.06l-2.07-2.07c-1.55.91-3.21,1.6-4.96,2.05v3.02c0,.61-.46,1.11-1.06,1.17l6.58,11.4,2.88-5.17c.22-.4.65-.62,1.08-.6l5.88.09-6.02-10.42h0ZM75.68,100.6c-.6-.05-1.06-.55-1.06-1.17v-3.02c-1.75-.45-3.41-1.14-4.95-2.05l-2.13,2.13c-.46.46-1.2.46-1.66,0l-.6-.6-6.02,10.43,5.92-.09c.45,0,.84.23,1.04.6l2.88,5.18,6.58-11.4h0ZM63.57,94.19l-3-3c-.46-.46-.46-1.2,0-1.66l2.13-2.13c-.91-1.54-1.6-3.21-2.05-4.95h-3.02c-.65,0-1.17-.52-1.17-1.17v-7.51c0-.65.52-1.17,1.17-1.17h1.35c-3.18-3.32-7.54-5.25-12.23-5.25h-20.51c-9.32,0-16.95,7.63-16.95,16.95v14.88c0,.23.19.42.42.42h9.18v-12.18c0-.65.52-1.17,1.17-1.17s1.17.52,1.17,1.17v12.18h30.52v-12.18c0-.65.52-1.17,1.17-1.17s1.17.52,1.17,1.17v12.18h6.34l3.12-5.41h.02ZM36.5,41.48c-6.5,0-11.77,5.27-11.77,11.77s5.27,11.77,11.77,11.77,11.77-5.27,11.77-11.77-5.27-11.77-11.77-11.77ZM86.12,61.64c-.95-.39-1.95-.71-2.98-.93-.57-.08-1.02-.57-1.02-1.16v-2.77h-5.16v2.77h0c0,.54-.38,1.03-.93,1.14-1.95.41-4.22,1.3-5.85,2.42-.46.33-1.1.29-1.51-.12l-1.96-1.96-3.65,3.65,1.96,1.96c.38.38.46,1,.15,1.47-.59.89-1.09,1.84-1.5,2.84-.39.95-.71,1.95-.93,2.98-.08.57-.57,1.02-1.16,1.02h-2.77v5.16h2.77c.54,0,1.03.38,1.14.93.41,1.95,1.3,4.22,2.42,5.85.33.46.29,1.1-.12,1.51l-1.96,1.96,3.65,3.65,1.96-1.96c.38-.38,1-.46,1.47-.15.89.59,1.84,1.09,2.84,1.5.95.39,1.95.71,2.98.93.57.08,1.02.57,1.02,1.16v2.77h5.16v-2.77h0c0-.54.38-1.03.93-1.14,2.11-.44,4.1-1.27,5.89-2.45.45-.3,1.07-.25,1.47.15l1.96,1.96,3.65-3.65-1.96-1.96c-.38-.38-.46-1-.15-1.47.59-.89,1.09-1.84,1.5-2.84.39-.95.71-1.95.93-2.98.08-.57.57-1.02,1.16-1.02h2.77v-5.16h-2.77c-.54,0-1.03-.38-1.14-.93-.41-1.95-1.3-4.22-2.42-5.85-.33-.46-.29-1.1.12-1.51l1.96-1.96-3.65-3.65-1.91,1.91c-.38.43-1.02.53-1.52.2-.89-.59-1.84-1.09-2.84-1.5h0ZM79.55,64.85c-7,0-12.67,5.67-12.67,12.67s5.67,12.67,12.67,12.67,12.67-5.67,12.67-12.67-5.67-12.67-12.67-12.67ZM79.55,67.2c-5.7,0-10.33,4.62-10.33,10.33s4.62,10.33,10.33,10.33,10.33-4.62,10.33-10.33-4.62-10.33-10.33-10.33Z"/>
</svg>