<svg xmlns="http://www.w3.org/2000/svg" version="1.1" viewBox="-5.0 -10.0 110.0 135.0">
 <path d="m58.82 28.258h-7.0195v7.0273h7.0273l-0.003906-7.0273zm-8.0547-2.0586h9.0859c0.27344 0 0.53516 0.10938 0.73047 0.30078 0.19141 0.19531 0.30078 0.45703 0.30078 0.73047v9.0898-0.003906c0 0.57031-0.46094 1.0312-1.0312 1.0312h-9.0859c-0.57031 0-1.0312-0.46094-1.0312-1.0312v-9.0898c0-0.57031 0.46094-1.0312 1.0312-1.0312zm1.8828 6.4805c-0.38281-0.40625-0.375-1.043 0.019531-1.4375 0.39453-0.39453 1.0352-0.40234 1.4375-0.019532l0.4375 0.4375 1.9648-1.9609c0.40234-0.40234 1.0547-0.40234 1.457 0 0.40234 0.40234 0.40234 1.0547 0 1.457l-2.6914 2.6914v0.003906c-0.19531 0.19141-0.45703 0.30078-0.73047 0.30078-0.27344 0-0.53516-0.10938-0.72656-0.30078zm-21.406 4.4375c-0.73438-0.73047-1.8359-0.95313-2.793-0.55469-0.96094 0.39844-1.5859 1.332-1.5859 2.3711 0 1.0352 0.625 1.9727 1.5859 2.3672 0.95703 0.39844 2.0586 0.17969 2.793-0.55469 1-1.0039 1-2.625 0-3.6289zm2.5508 11.914v-2.9648h-8.7266v2.9648c2.7148 1.5117 6.0117 1.5117 8.7266 0zm-10.785-1.5781c-2.5156-2.582-3.2344-6.418-1.8359-9.7383 1.4023-3.3164 4.6562-5.4727 8.2578-5.4727 3.6016 0 6.8555 2.1562 8.2578 5.4727 1.3984 3.3203 0.67578 7.1562-1.8359 9.7383v-2.418c0-0.56641-0.46094-1.0273-1.0312-1.0273h-4.3594v-0.56641c2.293-0.52344 3.8281-2.6875 3.5664-5.0273-0.26562-2.3398-2.2422-4.1055-4.5977-4.1055-2.3555 0-4.332 1.7656-4.5977 4.1055-0.26172 2.3398 1.2734 4.5039 3.5664 5.0273v0.5625l-4.3633 0.003906c-0.56641 0-1.0273 0.46094-1.0273 1.0273zm0.49219 3.0469c-0.67188-0.43359-1.3008-0.93359-1.8633-1.5-4.1367-4.1406-4.3086-10.789-0.40234-15.141 3.9102-4.3516 10.539-4.8906 15.098-1.2227 4.5586 3.6641 5.457 10.258 2.043 15.008s-9.9453 6.0039-14.875 2.8555zm19.5 34.055h-6.8984c-0.57031 0-1.0312-0.46094-1.0312-1.0312v-9.8359c0-0.56641 0.46094-1.0273 1.0312-1.0312h6.8984c0.57031 0.003906 1.0312 0.46484 1.0312 1.0312v9.8359c0 0.57031-0.46094 1.0312-1.0312 1.0312zm-5.8711-2.0547h4.8438v-7.7812h-4.8438zm20.363-11.074v12.102c0 0.57031-0.46484 1.0312-1.0312 1.0312h-6.9062c-0.57031 0-1.0312-0.46094-1.0312-1.0312v-12.102c0-0.56641 0.46094-1.0273 1.0312-1.0273h6.9062c0.57031 0 1.0312 0.46484 1.0312 1.0312zm-2.0625 11.074v-10.043h-4.8438v10.043zm15.52-15.688v16.711c0 0.57031-0.46094 1.0312-1.0312 1.0312h-6.9062c-0.57031 0-1.0312-0.46094-1.0312-1.0312v-16.711c0-0.57031 0.46094-1.0312 1.0312-1.0312h6.9062c0.57031 0 1.0312 0.46094 1.0312 1.0312zm-2.0625 15.688v-14.656h-4.8438v14.656zm-33.469-11.84c11.32-0.33594 24.84-5.6406 33.988-11.012 0.49219-0.28516 0.65625-0.91406 0.36719-1.4062-0.28516-0.48828-0.91406-0.65234-1.4023-0.36328-8.8047 5.168-22.102 10.418-33.008 10.73v-0.003906c-0.27734 0.003906-0.53906 0.11719-0.72656 0.31641-0.19141 0.19922-0.29688 0.46484-0.28906 0.73828 0.007813 0.27734 0.125 0.53516 0.32812 0.72266 0.19922 0.1875 0.46875 0.28906 0.74219 0.27734zm8.5586-14.582c-0.55469-0.019531-0.99609-0.47656-0.99609-1.0312 0-0.55859 0.44141-1.0117 0.99609-1.0312h22.871c0.27734-0.007813 0.55078 0.097656 0.75 0.28906 0.19922 0.19531 0.3125 0.46094 0.3125 0.74219 0 0.27734-0.11328 0.54688-0.3125 0.73828-0.19922 0.19531-0.47266 0.30078-0.75 0.29297zm0 5.2422v-0.003906c-0.55469-0.015625-0.99609-0.47266-0.99609-1.0273 0-0.55859 0.44141-1.0156 0.99609-1.0312h13.156c0.55859 0.015626 1 0.47266 1 1.0312 0 0.55469-0.44141 1.0117-1 1.0273zm-1.8086-42.621h-0.058594l-0.90625 2.1211h28.441l-0.90625-2.1211zm14.289-11.547v9.4805h11.398l-1.4453-3.3828h-5.0156v0.003906c-0.29688-0.003906-0.57812-0.13281-0.77344-0.35938-0.19531-0.22266-0.28516-0.51953-0.24219-0.81641 0.23047-2.4297-1.5039-4.6055-3.9258-4.9258zm-2.0625 9.4805v-9.4805c-2.1914 0.30859-3.8555 2.1328-3.9648 4.3398l0.054687 0.72656v0.003906c0 0.57031-0.46094 1.0312-1.0312 1.0312h-5.0156l-1.4453 3.3828zm-22.645 8.668v2.3125c0 0.5 0.35938 0.92578 0.85156 1.0156 1.2461 0.3125 2.4336 0.80859 3.5352 1.4727 0.40234 0.24219 0.92188 0.17969 1.2578-0.15234l1.6367-1.6328 3.2812 3.2852-1.6367 1.6367v-0.003906c-0.35938 0.35938-0.40234 0.92969-0.097656 1.3398 0.64844 1.0977 1.1367 2.2852 1.4414 3.5273 0.11328 0.45703 0.52344 0.78125 1 0.78125h2.3125v4.6406h-2.3164c-0.5 0-0.92969 0.35937-1.0156 0.85156-0.31641 1.2422-0.8125 2.4336-1.4727 3.5312-0.24609 0.40625-0.18359 0.92578 0.15234 1.2578l1.6328 1.6367-3.2812 3.2812-1.6328-1.6328c-0.35938-0.35938-0.92969-0.40234-1.3398-0.10156-1.0938 0.65234-2.2812 1.1367-3.5195 1.4414-0.46094 0.11328-0.78516 0.52734-0.78125 1v2.3125h-4.6484v-2.3125c0-0.5-0.35938-0.92969-0.85156-1.0156-1.2461-0.3125-2.4375-0.80859-3.5352-1.4727-0.40234-0.24609-0.92188-0.18359-1.2578 0.15234l-1.6367 1.6328-3.2812-3.2852 1.6367-1.6367c0.35938-0.35937 0.40234-0.92969 0.097656-1.3398-0.31641-0.53125-0.59375-1.0859-0.83203-1.6602-0.25-0.60547-0.45312-1.2266-0.60938-1.8594-0.11328-0.46094-0.52734-0.78516-1-0.78516h-2.3125v-4.6406h2.3125v0.003906c0.5-0.003906 0.92969-0.36328 1.0156-0.85547 0.31641-1.2422 0.8125-2.4297 1.4766-3.5273 0.24219-0.40234 0.17969-0.92188-0.15234-1.2578l-1.6328-1.6406 3.2812-3.2812 1.6367 1.6367v-0.003906c0.35938 0.35938 0.92969 0.40234 1.3398 0.10156 1.0977-0.64453 2.2852-1.1289 3.5195-1.4414 0.46094-0.11328 0.78516-0.52734 0.78125-1v-2.3125zm-9.4297 29.199-1.7617 1.7695c-0.19531 0.19531-0.45703 0.30469-0.73047 0.30469s-0.53516-0.10938-0.73047-0.30469l-4.7383-4.7383c-0.39844-0.40234-0.39844-1.0547 0-1.457l1.8125-1.8125c-0.45703-0.85547-0.82812-1.75-1.1094-2.6797h-2.5625c-0.27344 0-0.53516-0.10547-0.73047-0.30078-0.19141-0.19141-0.30078-0.45703-0.30078-0.73047v-6.6992c0-0.27344 0.10938-0.53516 0.30078-0.73047 0.19531-0.19141 0.45703-0.30078 0.73047-0.30078h2.5586c0.28516-0.92578 0.65625-1.8242 1.1133-2.6797l-1.8125-1.8125c-0.40234-0.40234-0.40234-1.0547 0-1.457l4.7422-4.7383c0.19141-0.19141 0.45313-0.30078 0.72656-0.30078s0.53516 0.10938 0.73047 0.30078l1.7617 1.7656v-10.199c0.003907-1.5352 1.2461-2.7812 2.7852-2.7852h16.383l1.2969-3.0273v-0.003907c0.14062-0.41797 0.53516-0.69922 0.97656-0.69922h4.6172c0.19922-3.9883 4.1406-6.6992 8.1602-6.1094 3.1797 0.36719 5.6602 2.9219 5.9336 6.1094h4.6172c0.44141 0 0.83203 0.28125 0.97656 0.69922l1.3008 3.0273 16.375 0.003906c1.5391 0.003907 2.7852 1.25 2.7891 2.7852v74.512c-0.003906 1.5391-1.25 2.7852-2.7891 2.7891h-60.637c-1.5391-0.003906-2.7812-1.25-2.7852-2.7852zm6.0781 4.6602v26.93c0.003906 1.6641 1.3516 3.0078 3.0117 3.0117h48.031c1.6602-0.003906 3.0078-1.3477 3.0078-3.0117v-62.266c0-1.6602-1.3477-3.0078-3.0078-3.0117h-7.5586l-1.6406-3.8359h15.5c0.39844 0.003907 0.72266 0.32813 0.72266 0.72656v74.508c0 0.40234-0.32422 0.72266-0.72266 0.72656h-60.637c-0.39844-0.003906-0.72266-0.32422-0.72266-0.72656v-36.859c0.21875 0.078126 0.44141 0.15234 0.66797 0.22266v2.5586h-0.003906c0 0.56641 0.46484 1.0273 1.0312 1.0273zm2.2617-35.918c0.17969-0.23047 0.45703-0.36719 0.75-0.36719h48.031c0.52344 0.003906 0.94531 0.42578 0.94922 0.94922v62.266c-0.003906 0.52344-0.42578 0.94922-0.94922 0.94922h-48.031c-0.52344 0-0.94922-0.42578-0.94922-0.94922v-26.93h2.3203c0.56641 0 1.0273-0.46094 1.0273-1.0273v-2.5625c0.92969-0.28125 1.8281-0.65625 2.6836-1.1094l1.8086 1.8086c0.19141 0.19531 0.45312 0.30469 0.72656 0.30469 0.27344 0 0.53516-0.10938 0.73047-0.30469l4.7422-4.7383c0.40234-0.40234 0.40234-1.0547 0-1.457l-1.8125-1.8125c0.45703-0.85547 0.82812-1.75 1.1133-2.6797h2.5586c0.27344 0 0.53516-0.10547 0.73047-0.30078 0.19141-0.19141 0.30078-0.45703 0.30078-0.73047v-6.6992c0-0.27344-0.10938-0.53516-0.30078-0.73047-0.19531-0.19141-0.45703-0.30078-0.73047-0.30078h-2.5586c-0.28516-0.92578-0.65625-1.8242-1.1133-2.6797l1.8125-1.8125c0.40234-0.40234 0.40234-1.0547 0-1.457l-4.7383-4.7383c-0.19531-0.19141-0.45703-0.30078-0.73047-0.30078s-0.53516 0.10938-0.72656 0.30078l-1.8125 1.8125c-0.85547-0.45703-1.7539-0.82812-2.6797-1.1133v-2.5586c0-0.57031-0.46094-1.0312-1.0312-1.0312zm-4.582 0h2.3789c0.28125-1.4102 1.5156-2.4258 2.9531-2.4297h7.5586l1.6406-3.8359h-15.5c-0.39844 0.003907-0.72266 0.32813-0.72266 0.72656v9.3516c0.21875-0.078126 0.44141-0.15234 0.66797-0.22266v-2.5586h-0.003907c0-0.57031 0.46484-1.0312 1.0312-1.0312zm36.73 7.2578h9.9102c0.27734 0.007812 0.55078-0.097656 0.75-0.28906 0.19922-0.19531 0.3125-0.46094 0.3125-0.74219 0-0.27734-0.11328-0.54688-0.3125-0.73828-0.19922-0.19531-0.47266-0.30078-0.75-0.29297h-9.9102c-0.27734-0.007812-0.54688 0.097656-0.75 0.29297-0.19922 0.19141-0.3125 0.46094-0.3125 0.73828 0 0.28125 0.11328 0.54688 0.3125 0.74219 0.20312 0.19141 0.47266 0.29687 0.75 0.28906zm0 4.5938h12.191c0.55469-0.015625 1-0.47266 1-1.0273 0-0.55859-0.44531-1.0156-1-1.0312h-12.191c-0.27734-0.011718-0.54688 0.09375-0.75 0.28906-0.19922 0.19531-0.3125 0.46094-0.3125 0.74219 0 0.27734 0.11328 0.54297 0.3125 0.73828 0.20312 0.19531 0.47266 0.30078 0.75 0.28906zm-3.9883 6.2578-7.0195 0.003907v7.0273h7.0273l-0.003906-7.0273zm-8.0547-2.0508c-0.57031 0-1.0312 0.46094-1.0312 1.0312v9.0859c0 0.57031 0.46094 1.0312 1.0312 1.0312h9.0859c0.27344 0 0.53516-0.10938 0.73047-0.30469 0.19141-0.19141 0.30078-0.45312 0.30078-0.72656v-9.0898c0-0.27344-0.10937-0.53516-0.30078-0.73047-0.19531-0.19141-0.45703-0.30078-0.73047-0.30078zm1.8828 6.4805 1.1641 1.1641h0.003906c0.40234 0.40234 1.0547 0.40234 1.457 0l2.6914-2.6953v0.003906c0.36719-0.41016 0.34766-1.0312-0.039063-1.418-0.38672-0.38672-1.0117-0.40234-1.418-0.035157l-1.9648 1.9609-0.4375-0.4375c-0.40234-0.40234-1.0547-0.40234-1.457 0-0.40234 0.40234-0.40234 1.0547 0 1.457zm10.16-2.1797h9.9102c0.27734 0.007813 0.55078-0.097656 0.75-0.29297 0.19922-0.19141 0.3125-0.46094 0.3125-0.73828 0-0.28125-0.11328-0.54687-0.3125-0.74219-0.19922-0.19141-0.47266-0.29688-0.75-0.28906h-9.9102c-0.27734-0.007812-0.54688 0.097657-0.75 0.28906-0.19922 0.19531-0.3125 0.46094-0.3125 0.74219 0 0.27734 0.11328 0.54688 0.3125 0.73828 0.20312 0.19531 0.47266 0.30078 0.75 0.29297zm0 4.5938h12.191c0.55469-0.019531 1-0.47266 1-1.0312 0-0.55469-0.44531-1.0117-1-1.0312h-12.191c-0.27734-0.007812-0.54688 0.097657-0.75 0.29297-0.19922 0.19141-0.3125 0.46094-0.3125 0.73828 0 0.28125 0.11328 0.54688 0.3125 0.74219 0.20312 0.19141 0.47266 0.29688 0.75 0.28906z" fill-rule="evenodd"/>
<text x="0.0" y="117.5" font-size="5.0" font-weight="bold" font-family="Arbeit Regular, Helvetica, Arial-Unicode, Arial, Sans-serif" fill="#000000">Created by CYCLECONS</text><text x="0.0" y="122.5" font-size="5.0" font-weight="bold" font-family="Arbeit Regular, Helvetica, Arial-Unicode, Arial, Sans-serif" fill="#000000">from Noun Project</text></svg>