<svg xmlns="http://www.w3.org/2000/svg" version="1.1" viewBox="-5.0 -10.0 110.0 135.0">
 <path d="m29.23 68.684v0.25391c-0.019531 0.71484-0.60547 1.2852-1.3203 1.2852s-1.2969-0.57031-1.3203-1.2852v-0.25391c-0.007813-0.35547 0.125-0.70312 0.375-0.95703 0.25-0.25781 0.58984-0.39844 0.94531-0.39844 0.35547 0 0.69922 0.14062 0.94531 0.39844 0.25 0.25391 0.38281 0.60156 0.375 0.95703zm9.7266-5.6562c0 4.4648-2.6875 8.4922-6.8164 10.203-4.125 1.707-8.875 0.76172-12.031-2.3945-3.1602-3.1562-4.1016-7.9062-2.3945-12.035 1.7109-4.125 5.7344-6.8125 10.203-6.8125 6.0938 0.007813 11.031 4.9453 11.039 11.039zm-2.6367 0c0-3.3984-2.0469-6.4648-5.1875-7.7656-3.1406-1.3008-6.7578-0.58203-9.1602 1.8242-2.4062 2.4023-3.125 6.0195-1.8242 9.1602 1.3047 3.1406 4.3672 5.1875 7.7695 5.1875 4.6367-0.011719 8.3906-3.7695 8.3984-8.4062zm7.3359-39.781h4.9805c0.71484-0.019532 1.2812-0.60156 1.2812-1.3164 0-0.71484-0.56641-1.3008-1.2812-1.3203h-4.9805c-0.35547-0.011719-0.70312 0.125-0.95703 0.37109-0.25391 0.25-0.39844 0.58984-0.39844 0.94922 0 0.35547 0.14453 0.69531 0.39844 0.94531 0.25391 0.25 0.60156 0.38281 0.95703 0.37109zm-15.738 32.551c-2.2852 0-4.1367 1.8516-4.1367 4.1367 0.019531 0.71484 0.60547 1.2812 1.3203 1.2812 0.71484 0 1.2969-0.56641 1.3164-1.2812-0.007813-0.40234 0.14453-0.79297 0.42578-1.0859 0.28125-0.28906 0.66797-0.44922 1.0742-0.44922 0.40234 0 0.78906 0.16016 1.0703 0.44922 0.28125 0.29297 0.43359 0.68359 0.42578 1.0859-0.003906 0.54297-0.29687 1.0469-0.77734 1.3086-1.2656 0.69141-2.0508 2.0234-2.0391 3.4648v0.8125c0.019532 0.71484 0.60547 1.2852 1.3203 1.2852 0.71094 0 1.2969-0.57031 1.3164-1.2852v-0.82031 0.003906c-0.011719-0.48438 0.25-0.93359 0.67969-1.1562 1.6484-0.91406 2.4688-2.8242 2-4.6484-0.46875-1.8242-2.1133-3.0977-3.9961-3.1016zm35.434-12.055h-16.41c-0.35938-0.011719-0.70312 0.12109-0.95703 0.37109-0.25781 0.25-0.40234 0.58984-0.40234 0.94531 0 0.35938 0.14453 0.69922 0.40234 0.94922 0.25391 0.24609 0.59766 0.38281 0.95703 0.37109h16.41c0.35938 0.011719 0.70313-0.125 0.95703-0.37109 0.25781-0.25 0.40234-0.58984 0.40234-0.94922 0-0.35547-0.14453-0.69531-0.40234-0.94531-0.25391-0.25-0.59766-0.38281-0.95703-0.37109zm0-6.0977h-4.2695v-0.003906c-0.35547-0.007813-0.70312 0.125-0.95703 0.375-0.25391 0.24609-0.39844 0.58984-0.39844 0.94531 0 0.35547 0.14453 0.69922 0.39844 0.94531 0.25391 0.25 0.60156 0.38281 0.95703 0.375h4.2695c0.35938 0.007812 0.70313-0.125 0.95703-0.375 0.25781-0.24609 0.40234-0.58984 0.40234-0.94531 0-0.35547-0.14453-0.69922-0.40234-0.94531-0.25391-0.25-0.59766-0.38281-0.95703-0.375zm-15.449 12.195h-0.96094c-0.35938-0.011719-0.70312 0.125-0.95703 0.37109-0.25781 0.25-0.40234 0.58984-0.40234 0.94922 0 0.35547 0.14453 0.69531 0.40234 0.94531 0.25391 0.25 0.59766 0.38281 0.95703 0.37109h0.96094c0.71484-0.019531 1.2812-0.60156 1.2812-1.3164s-0.56641-1.3008-1.2812-1.3203zm15.449 0h-12.223c-0.71484 0.019531-1.2852 0.60547-1.2852 1.3203s0.57031 1.2969 1.2852 1.3164h12.223c0.35938 0.011719 0.70313-0.12109 0.95703-0.37109 0.25781-0.25 0.40234-0.58984 0.40234-0.94531 0-0.35938-0.14453-0.69922-0.40234-0.94922-0.25391-0.24609-0.59766-0.38281-0.95703-0.37109zm20.637-8.9766v8.3945h0.003907c0 0.47266-0.25 0.91016-0.66016 1.1445l-7.2695 4.1953c-0.40625 0.23438-0.91016 0.23438-1.3203 0l-7.2695-4.1953v-0.003906c-0.40625-0.23438-0.66016-0.67188-0.65625-1.1445v-8.3906c-0.003906-0.47266 0.25-0.91016 0.65625-1.1484l7.2695-4.1953c0.41016-0.23438 0.91406-0.23438 1.3203 0l7.2695 4.1992c0.41016 0.23828 0.66016 0.67188 0.66016 1.1445zm-9.9102 4.957-4.6289-2.6719v5.3477l4.6289 2.6719zm5.9492-4.957-4.6289-2.6719-4.6289 2.6719 4.6328 2.6797zm1.3281 2.2852-4.6328 2.6719v5.3477l4.6328-2.6719zm-46.75-19.902h5.7891c0.71484-0.019532 1.2812-0.60156 1.2812-1.3164 0-0.71484-0.56641-1.3008-1.2812-1.3203h-5.7891c-0.71484 0.019531-1.2852 0.60547-1.2852 1.3203 0 0.71484 0.57031 1.2969 1.2852 1.3164zm55.359-18.09v65.379c0 1.9805-1.6094 3.5898-3.5938 3.5938h-2.2148v2.2148c-0.003906 1.9844-1.6094 3.5898-3.5938 3.5938h-46.855c-0.37109 0.12891-0.74609 0.24609-1.1289 0.34766v3.0234c0.75391 0.66797 1.1875 1.6289 1.1875 2.6367v9.6797c0 0.74609-0.29688 1.4609-0.82422 1.9883-0.52734 0.52734-1.2422 0.82422-1.9883 0.82422h-6.0859c-1.5547 0-2.8125-1.2578-2.8125-2.8125v-9.6758c0-1.0078 0.42969-1.9688 1.1875-2.6406v-3.0195c-5.0938-1.3789-9.3164-4.9336-11.543-9.7188-2.2266-4.7812-2.2227-10.305 0.003906-15.086s6.4531-8.3359 11.543-9.7109v-34.809c0.003906-1.9805 1.6133-3.5898 3.5938-3.5938h2.2227v-2.2148c0.003906-1.9844 1.6094-3.5898 3.5938-3.5938h53.715c1.9844 0.003906 3.5938 1.6094 3.5938 3.5938zm-58.266 8.9648 9.918-9.918-8.9609-0.003906c-0.52734 0.003906-0.95312 0.42969-0.95703 0.95703zm1.8672 1.8672h8.9648c0.52734 0 0.95312-0.42969 0.95703-0.95703v-8.9648zm-7.6758 29.277c0.67188-0.074219 1.3438-0.11328 2.0195-0.11328 0.38672 0 0.76953 0.011718 1.1445 0.039062l0.003906-35.18h-2.2148c-0.52734 0-0.95312 0.42969-0.95312 0.95312zm5.2383 45.512h-6.4336v4.8477c0.003907 0.09375 0.078126 0.16797 0.17188 0.17188h6.0898c0.09375-0.003906 0.16797-0.078125 0.17188-0.17188zm0-4.8281c-0.007812-0.49609-0.41016-0.89844-0.90625-0.90625h-4.6211c-0.5 0.007812-0.89844 0.41016-0.90625 0.90625v2.1875h6.4336zm12.023-22.918h-0.003906c0-3.8633-1.4648-7.582-4.1016-10.402-2.6367-2.8242-6.2461-4.5391-10.102-4.8047-3.8516-0.26172-7.6641 0.94922-10.656 3.3867-2.9961 2.4414-4.9531 5.9258-5.4766 9.7539s0.42578 7.7109 2.6562 10.863 5.5781 5.3438 9.3594 6.125c0.61328 0.125 1.0547 0.66406 1.0547 1.2891v3.1602h4.0586v-3.1602c0-0.625 0.4375-1.1641 1.0508-1.2891 3.4297-0.71875 6.5117-2.5938 8.7227-5.3086 2.2148-2.7188 3.4258-6.1133 3.4336-9.6172zm-1.3008-11.871c0.003907-0.027344-0.015624-0.050781-0.039062-0.050781-0.027344 0-0.042969 0.023437-0.039062 0.050781-0.003907 0.042969 0.078124 0.042969 0.078124 0zm39.664 22.969h-39.613c-0.94531 1.1875-2.0352 2.2539-3.2422 3.1719h41.902c0.52344-0.007812 0.94922-0.43359 0.95312-0.95703zm5.8125-68.973c0-0.52734-0.42969-0.95312-0.95703-0.95703h-40.246v10.836c-0.003906 1.9844-1.6094 3.5898-3.5938 3.5938h-10.832v26.926c2.9492 0.64453 5.6875 2.0234 7.9609 4.0117 0.48438-0.65625 1.2422-1.0547 2.0547-1.082 0.81641-0.03125 1.6016 0.31641 2.1289 0.93359 0.53125 0.62109 0.75 1.4492 0.59375 2.25s-0.66797 1.4883-1.3906 1.8633c0.55469 0.88281 1.0352 1.8125 1.4258 2.7812h37.043c0.35547-0.011719 0.70312 0.125 0.95703 0.37109 0.25391 0.25 0.39844 0.58984 0.39844 0.94922 0 0.35547-0.14453 0.69531-0.39844 0.94531s-0.60156 0.38281-0.95703 0.37109h-36.199c0.10547 0.45312 0.19531 0.91406 0.26562 1.3789l35.934 0.003906c0.35547-0.011719 0.70312 0.125 0.95703 0.37109 0.25391 0.25 0.39844 0.58984 0.39844 0.94922 0 0.35547-0.14453 0.69531-0.39844 0.94531-0.25391 0.24609-0.60156 0.38281-0.95703 0.37109h-35.73v0.058594c0 0.44531-0.019531 0.88281-0.050781 1.3203l35.781 0.003906c0.35547-0.011718 0.70312 0.12109 0.95703 0.37109s0.39844 0.58984 0.39844 0.94531c0 0.35938-0.14453 0.69922-0.39844 0.94922-0.25391 0.24609-0.60156 0.38281-0.95703 0.37109h-36.18c-0.35938 1.5703-0.92578 3.082-1.6914 4.5h42.727c0.52734 0 0.95703-0.42578 0.95703-0.95312zm-1.5859 27.031c0 0.73047-0.58984 1.3203-1.3203 1.3203h-31.66c-0.35938 0.007813-0.70312-0.125-0.95703-0.375-0.25781-0.24609-0.40234-0.58984-0.40234-0.94531s0.14453-0.69531 0.40234-0.94531c0.25391-0.25 0.59766-0.38281 0.95703-0.375h2.4414v-10.988c0-0.35156 0.13672-0.6875 0.38672-0.93359 0.24609-0.24609 0.58203-0.38672 0.92969-0.38672h5.2031c0.34766 0 0.68359 0.14062 0.93359 0.38672 0.24609 0.24609 0.38281 0.58203 0.38281 0.93359v10.988h1.6328v-18.238c0-0.72656 0.58984-1.3203 1.3203-1.3203h5.1992c0.73047 0 1.3203 0.59375 1.3203 1.3203v18.238h1.6328v-11.945c0-0.73047 0.58984-1.3164 1.3164-1.3164h5.1992c0.72656 0 1.3164 0.58984 1.3203 1.3164v11.945h2.4414c0.35156-0.003907 0.6875 0.13672 0.93359 0.38281 0.25 0.25 0.38672 0.58594 0.38672 0.9375zm-25.34-10.992h-2.5625v9.668h2.5625zm9.4727-7.2461h-2.5625v16.918h2.5625zm9.4688 6.293h-2.5625v10.625h2.5625zm-33.719 18.715c0 0.73047 0.58984 1.3203 1.3203 1.3203h8.9219c0.35547 0.011718 0.69922-0.125 0.95703-0.37109 0.25391-0.25 0.39844-0.58984 0.39844-0.94922 0-0.35547-0.14453-0.69531-0.39844-0.94531-0.25781-0.24609-0.60156-0.38281-0.95703-0.37109h-8.9258c-0.73047 0-1.3164 0.58984-1.3164 1.3164zm-1.1289 6.0977v0.003906c0 1.082-0.65234 2.0586-1.6523 2.4727-1.0039 0.41406-2.1562 0.1875-2.9219-0.57812-0.76562-0.76953-0.99609-1.9219-0.58203-2.9219 0.41797-1 1.3945-1.6523 2.4766-1.6523 1.4766 0.003906 2.6719 1.2031 2.6758 2.6797zm-2.6367 0-0.003906 0.003906c-0.003907-0.046875-0.070313-0.046875-0.078125 0-0.007813 0.046875 0.074218 0.046875 0.074218 0zm-7.2539-16.68h14.031c0.71484-0.019531 1.2812-0.60547 1.2812-1.3164 0-0.71484-0.56641-1.3008-1.2812-1.3203h-14.031c-0.71484 0.019531-1.2852 0.60547-1.2852 1.3203 0 0.71094 0.57031 1.2969 1.2852 1.3164zm8.8828 2.4883-8.8828 0.003907c-0.71484 0.019531-1.2852 0.60156-1.2852 1.3164s0.57031 1.3008 1.2852 1.3203h8.8828c0.71094-0.019531 1.2812-0.60547 1.2812-1.3203s-0.57031-1.2969-1.2812-1.3164zm3.2617 2.6367h1.8867v0.003906c0.71484-0.019531 1.2812-0.60547 1.2812-1.3203s-0.56641-1.2969-1.2812-1.3164h-1.8906c-0.71094 0.019531-1.2812 0.60156-1.2812 1.3164s0.57031 1.3008 1.2812 1.3203zm-2.2578 5.457c0 1.0859-0.65234 2.0625-1.6562 2.4766-1 0.41406-2.1523 0.1875-2.918-0.57812s-0.99609-1.918-0.58203-2.9219c0.41406-1 1.3906-1.6523 2.4766-1.6523 1.4766 0 2.6758 1.1992 2.6797 2.6758zm-2.6367 0h-0.003907c-0.007812-0.042969-0.074218-0.042969-0.078124 0-0.003907 0.046875 0.078124 0.046875 0.078124 0z"/>
<text x="0.0" y="117.5" font-size="5.0" font-weight="bold" font-family="Arbeit Regular, Helvetica, Arial-Unicode, Arial, Sans-serif" fill="#000000">Created by Maya Nurhayati</text><text x="0.0" y="122.5" font-size="5.0" font-weight="bold" font-family="Arbeit Regular, Helvetica, Arial-Unicode, Arial, Sans-serif" fill="#000000">from Noun Project</text></svg>