<svg id="Layer_1" viewBox="0 0 512 512" xmlns="http://www.w3.org/2000/svg" data-name="Layer 1"><path d="m454.333 249.997v109.885l-4.163-4.734c-2.917-3.318-7.975-3.643-11.29-.725-3.318 2.917-3.644 7.973-.726 11.291l18.171 20.665c1.519 1.728 3.708 2.717 6.008 2.717s4.489-.99 6.008-2.717l18.17-20.665c2.918-3.318 2.593-8.373-.726-11.291s-8.373-2.593-11.29.725l-4.162 4.734v-117.885c0-4.418-3.582-8-8-8h-97.848v-4.898c0-3.118-1.812-5.951-4.641-7.26l-17.322-8.016-2.034-4.901h40.942c2.978 0 5.708-1.653 7.089-4.292l14.724-28.146 15.819.065c3.383 10.591 13.316 18.283 25.015 18.283 14.478 0 26.256-11.778 26.256-26.255s-11.778-26.255-26.256-26.255c-11.678 0-21.595 7.666-24.996 18.227l-20.638-.085h-.033c-2.977 0-5.708 1.653-7.089 4.292l-14.734 28.166h-36.604l3.712-10.067c1.081-2.931.356-6.222-1.854-8.429l-18.284-18.256c-2.205-2.203-5.489-2.922-8.414-1.847l-10.045 3.695v-36.612l28.136-14.707c2.647-1.384 4.303-4.127 4.294-7.115l-.064-20.676c10.549-3.401 18.206-13.318 18.206-24.995 0-14.461-11.766-26.227-26.227-26.227s-26.256 11.765-26.256 26.227c0 11.696 7.689 21.627 18.277 25.012l.049 15.846-28.121 14.699c-2.64 1.38-4.294 4.111-4.294 7.09v40.965l-4.928-2.035-7.984-17.308c-1.308-2.834-4.144-4.649-7.265-4.649h-25.824c-3.117 0-5.951 1.811-7.261 4.641l-8.013 17.316-4.903 2.028v-40.958c0-2.979-1.655-5.712-4.297-7.091l-28.14-14.697.065-15.844c10.59-3.384 18.282-13.316 18.282-25.014 0-14.461-11.778-26.227-26.255-26.227s-26.256 11.765-26.256 26.227c0 11.678 7.666 21.595 18.228 24.995l-.085 20.667c-.013 2.991 1.646 5.74 4.297 7.125l28.16 14.708v36.615l-10.076-3.701c-2.927-1.076-6.211-.353-8.416 1.853l-18.256 18.256c-2.204 2.205-2.927 5.489-1.852 8.416l3.701 10.076h-36.615l-14.708-28.161c-1.38-2.642-4.112-4.296-7.091-4.296h-.033l-20.666.085c-3.401-10.562-13.318-18.227-24.996-18.227-14.461 0-26.227 11.778-26.227 26.255s11.766 26.255 26.227 26.255c11.699 0 21.631-7.692 25.015-18.283l15.844-.065 14.698 28.141c1.379 2.641 4.111 4.296 7.091 4.296h40.958l-2.028 4.903-17.316 8.013c-2.829 1.309-4.641 4.143-4.641 7.26v4.898h-97.847c-4.418 0-8 3.582-8 8v117.91l-4.195-4.764c-2.922-3.316-7.977-3.635-11.291-.717-3.316 2.92-3.637 7.976-.717 11.291l18.199 20.665c1.52 1.725 3.706 2.713 6.004 2.713h.003c2.3 0 4.487-.991 6.005-2.717l18.17-20.665c2.918-3.318 2.593-8.373-.726-11.291-3.317-2.917-8.373-2.593-11.29.725l-4.162 4.734v-109.885h89.848v4.926c0 3.121 1.814 5.957 4.648 7.264l17.308 7.985 5.408 13.096-6.576 17.876c-1.076 2.925-.355 6.209 1.847 8.415l18.256 18.284c2.207 2.211 5.501 2.933 8.429 1.854l17.895-6.598 13.074 5.426 8.015 17.322c1.31 2.829 4.144 4.64 7.261 4.64h4.898v41.327l-38.251 38.25c-1.5 1.5-2.343 3.535-2.343 5.657s.843 4.157 2.343 5.657l40.594 40.593c1.562 1.562 3.609 2.343 5.657 2.343s4.093-.78 5.655-2.341l40.621-40.593c1.501-1.5 2.345-3.536 2.345-5.659s-.844-4.158-2.345-5.659l-38.276-38.25v-41.325h4.926c3.121 0 5.957-1.815 7.265-4.649l7.986-17.313 13.094-5.426 17.868 6.597c2.926 1.082 6.22.36 8.428-1.848l18.284-18.284c2.207-2.208 2.929-5.499 1.848-8.427l-6.597-17.868 5.426-13.094 17.314-7.987c2.833-1.307 4.648-4.143 4.648-7.264v-4.926h89.848zm-10.256-91.674c5.655 0 10.256 4.601 10.256 10.255s-4.601 10.255-10.256 10.255-10.256-4.601-10.256-10.255 4.601-10.255 10.256-10.255zm-114.635-114.635c5.639 0 10.227 4.587 10.227 10.227s-4.588 10.255-10.227 10.255-10.256-4.601-10.256-10.255 4.601-10.227 10.256-10.227zm-146.866 0c5.654 0 10.255 4.587 10.255 10.227s-4.601 10.255-10.255 10.255-10.256-4.601-10.256-10.255 4.601-10.227 10.256-10.227zm-114.664 135.146c-5.639 0-10.227-4.601-10.227-10.255s4.588-10.255 10.227-10.255 10.256 4.601 10.256 10.255-4.601 10.255-10.256 10.255zm188.085 286.168-29.282-29.281 29.282-29.281 29.302 29.281zm92.488-215.198-15.507 7.153c-1.826.843-3.269 2.343-4.039 4.202l-7.823 18.879c-.771 1.861-.812 3.944-.114 5.833l5.907 16.001-11.039 11.04-16.002-5.908c-1.889-.698-3.973-.657-5.833.114l-18.879 7.824c-1.858.771-3.359 2.212-4.202 4.04l-7.152 15.505h-15.592l-7.179-15.514c-.844-1.821-2.34-3.26-4.194-4.029l-18.851-7.824c-1.859-.772-3.944-.813-5.834-.117l-16.027 5.909-11.023-11.041 5.89-16.009c.693-1.884.652-3.96-.113-5.815l-7.796-18.879c-.77-1.863-2.213-3.367-4.043-4.211l-15.506-7.153v-15.591l15.514-7.179c1.825-.844 3.265-2.345 4.033-4.203l7.796-18.85c.768-1.855.81-3.932.117-5.816l-5.892-16.035 11.024-11.024 16.035 5.891c1.885.693 3.96.651 5.816-.117l18.851-7.795c1.857-.768 3.358-2.208 4.203-4.033l7.179-15.514h15.591l7.153 15.506c.845 1.83 2.349 3.274 4.211 4.043l18.879 7.795c1.857.766 3.933.807 5.815.114l16.01-5.889 11.041 11.023-5.909 16.027c-.697 1.89-.655 3.974.117 5.834l7.823 18.851c.77 1.854 2.207 3.351 4.029 4.194l15.515 7.179v15.591zm-298.815 149.243c-9.832 0-19.055 3.807-25.975 10.727-14.27 14.307-14.27 37.585.007 51.899 6.913 6.913 16.136 10.72 25.968 10.72s19.056-3.808 25.968-10.72c6.912-6.913 10.72-16.13 10.72-25.954s-3.808-19.041-10.72-25.953-16.135-10.72-25.968-10.72zm14.653 51.312c-3.891 3.891-9.094 6.034-14.653 6.034s-10.763-2.143-14.646-6.026c-8.056-8.076-8.055-21.217-.008-29.286 3.892-3.891 9.096-6.034 14.654-6.034s10.764 2.143 14.653 6.033c3.892 3.891 6.034 9.09 6.034 14.64s-2.143 10.749-6.034 14.64zm423.962-40.593c-6.913-6.913-16.131-10.72-25.954-10.72s-19.04 3.807-25.953 10.72c-6.912 6.913-10.72 16.13-10.72 25.953s3.808 19.041 10.72 25.953c6.912 6.913 16.13 10.72 25.953 10.72s19.041-3.807 25.954-10.72c6.912-6.913 10.72-16.13 10.72-25.954s-3.808-19.041-10.72-25.953zm-11.314 40.593c-3.891 3.891-9.09 6.034-14.64 6.034s-10.748-2.143-14.64-6.034c-3.891-3.891-6.033-9.09-6.033-14.64s2.143-10.749 6.034-14.64c3.89-3.891 9.089-6.033 14.639-6.033s10.749 2.143 14.641 6.034c3.89 3.891 6.033 9.09 6.033 14.639s-2.143 10.749-6.034 14.64zm-220.976-257.182c-26.92 0-48.82 21.9-48.82 48.82s21.9 48.848 48.82 48.848 48.848-21.913 48.848-48.848-21.913-48.82-48.848-48.82zm0 81.667c-18.098 0-32.82-14.735-32.82-32.848s14.723-32.82 32.82-32.82 32.848 14.723 32.848 32.82-14.735 32.848-32.848 32.848z"/></svg>