<svg xmlns="http://www.w3.org/2000/svg" version="1.1" viewBox="-5.0 -10.0 110.0 135.0">
 <path d="m9.0977 63.637c-0.25 0.42969-0.25 0.96094 0 1.3906 18.195 31.449 63.605 31.461 81.805 0 0.25-0.42969 0.25-0.96094 0-1.3906-18.145-31.367-63.594-31.48-81.805 0zm62.43 0.69531c0 11.871-9.6562 21.527-21.527 21.527s-21.527-9.6562-21.527-21.527c0-11.871 9.6562-21.527 21.527-21.527s21.527 9.6562 21.527 21.527zm-59.613 0c5.2578-8.7188 13.309-15.258 22.609-18.727-11.777 9.75-11.77 27.715 0 37.457-9.3008-3.4727-17.352-10.012-22.609-18.73zm53.562 18.727c11.777-9.75 11.766-27.715 0-37.457 9.3008 3.4688 17.352 10.008 22.609 18.727-5.2578 8.7227-13.309 15.262-22.609 18.73z"/>
 <path d="m50 78.914c7.5742 0 13.812-5.8008 14.516-13.195h0.066406c0.76562 0 1.3906-0.62109 1.3906-1.3906 0-8.8086-7.1641-15.973-15.973-15.973-0.76562 0-1.3906 0.62109-1.3906 1.3906v0.066406c-7.3906 0.70312-13.195 6.9414-13.195 14.516 0.003907 8.0469 6.543 14.586 14.586 14.586zm13.121-15.973h-11.73v-11.734c6.168 0.65234 11.082 5.5664 11.73 11.734zm-14.512-10.332v11.723c0 0.76562 0.62109 1.3906 1.3906 1.3906h11.723c-0.69141 5.8555-5.6797 10.418-11.723 10.418-6.5078 0-11.805-5.2969-11.805-11.805 0-6.043 4.5586-11.035 10.414-11.727z"/>
 <path d="m50 33.254c0.76562-0.007812 1.3828-0.63672 1.375-1.4062l-0.21484-19.098c-0.007812-0.76172-0.62891-1.375-1.3867-1.375-0.78125 0-1.3984 0.63672-1.3906 1.4062l0.21484 19.098c0.007813 0.74219 0.59766 1.375 1.4023 1.375z"/>
 <path d="m33.734 34.5c0.22656 0.52344 0.73828 0.83594 1.2734 0.83594 0.99219 0 1.6719-1.0195 1.2734-1.9414l-6.6914-15.449c-0.30469-0.70312-1.1211-1.0273-1.8281-0.72266-0.70312 0.30469-1.0273 1.1211-0.72266 1.8281z"/>
 <path d="m22.77 40.445c1.2383 0 1.8672-1.5156 0.96484-2.3867l-9.3906-9.0977c-0.55078-0.53516-1.4297-0.51953-1.9648 0.03125-0.53516 0.55078-0.51953 1.4297 0.03125 1.9648 9.7969 9.2812 9.3359 9.4883 10.359 9.4883z"/>
 <path d="m12.062 48.684c0.28125-0.71484-0.066406-1.5195-0.78125-1.8008l-6.6055-2.6133c-0.71484-0.28125-1.5195 0.066407-1.8008 0.78125-0.28125 0.71484 0.066406 1.5195 0.78125 1.8008l6.6055 2.6133c0.71484 0.28125 1.5195-0.070313 1.8008-0.78125z"/>
 <path d="m97.109 44.578c-0.30469-0.70312-1.125-1.0273-1.8281-0.72266l-6.7305 2.9141c-1.3789 0.59766-0.94922 2.6641 0.55469 2.6641 0.51562 0 0.17578 0.003906 7.2812-3.0312 0.70312-0.30469 1.0273-1.1211 0.72266-1.8242z"/>
 <path d="m78.395 40.113 8.9023-9.1914c0.53516-0.55078 0.51953-1.4297-0.03125-1.9648-0.55078-0.53516-1.4297-0.51953-1.9648 0.03125l-8.9023 9.1914c-0.53516 0.55078-0.51953 1.4297 0.03125 1.9648 0.55469 0.53906 1.4375 0.51562 1.9648-0.03125z"/>
 <path d="m64.93 35.324c0.55469 0 1.0742-0.33203 1.293-0.87891l6.1094-15.434c0.28125-0.71484-0.066406-1.5195-0.78125-1.8008-0.71484-0.28125-1.5195 0.066406-1.8008 0.78125l-6.1094 15.434c-0.36328 0.90625 0.3125 1.8984 1.2891 1.8984z"/>
<text x="0.0" y="117.5" font-size="5.0" font-weight="bold" font-family="Arbeit Regular, Helvetica, Arial-Unicode, Arial, Sans-serif" fill="#000000">Created by Iconiyo</text><text x="0.0" y="122.5" font-size="5.0" font-weight="bold" font-family="Arbeit Regular, Helvetica, Arial-Unicode, Arial, Sans-serif" fill="#000000">from Noun Project</text></svg>