<svg xmlns="http://www.w3.org/2000/svg" version="1.1" viewBox="-5.0 -10.0 110.0 135.0">
 <path d="m36.957 76.598 1.8242-2.2109c0.23438-0.28125 0.57031-0.43359 0.91016-0.44141 7.8359-0.49219 14.477-1.4414 19.922-2.8516 5.375-1.3906 9.5664-3.2227 12.574-5.4961l0.054688-0.039062c3.7852-2.9961 6.8945-5.5859 9.3281-7.7695 2.4102-2.1602 4.1328-3.9062 5.1719-5.2344 0.046874-0.058594 0.097656-0.11328 0.15234-0.16406l-0.003906-0.003906 0.23828-0.21484c0.49609-0.47266 0.77734-0.87109 0.84766-1.1953 0.035157-0.15234-0.015624-0.3125-0.14453-0.47266-0.45703-0.26953-1.0078-0.33203-1.6523-0.19531-0.84766 0.17969-1.832 0.6875-2.9609 1.5156-0.054688 0.046875-0.10938 0.085937-0.16797 0.12109l-5.5547 3.9766c-0.046875 0.039063-0.10156 0.078125-0.15234 0.10938l-4.7969 3.4336-0.10938 0.070312c-2.0391 1.2617-4.0117 2.2539-5.918 2.9766-1.9453 0.73828-3.832 1.1992-5.6523 1.3867l-8.9766 0.55469c-0.058594 0.003906-0.11719 0.003906-0.17578-0.003906-1.4141-0.058594-2.4883-0.42578-3.2188-1.0977-0.82031-0.75781-1.1641-1.8008-1.0312-3.1289 0.011718-0.10547 0.035156-0.20312 0.066406-0.30078 0.38281-1.0391 0.99609-1.8203 1.8477-2.3477 0.78906-0.48828 1.75-0.72656 2.8789-0.71484l5.3867-0.44141c1.207-0.16797 2.1055-0.48047 2.6914-0.93359 0.44531-0.35156 0.70703-0.80859 0.77734-1.3789-0.16406-0.66797-0.58594-1.168-1.2617-1.5078-0.19922-0.097656-0.41797-0.1875-0.66016-0.26172h-0.14844l-0.007813-0.003907h-0.027344l-0.003906-0.003906h-0.046875l-0.003906-0.003906c-0.83984-0.23047-1.9062-0.32812-3.2031-0.28906l-14.355 0.34766c-1.6367 0.097657-3.1289 0.39453-4.4688 0.88672-0.0625 0.027344-0.125 0.054688-0.19141 0.074219-0.58984 0.22656-1.1523 0.49219-1.6836 0.80078-1.7695 1.0156-3.2344 2.4805-4.3945 4.3867-0.042969 0.070312-0.089844 0.13281-0.14062 0.19141l-6.4297 7.457 6.1797 5.0391zm24.738-61.934v-4.4102h-4.4883v4.4844l1.7031-0.98438c0.41406-0.23828 0.91016-0.20703 1.2812 0.039063zm2.4336-4.4102h5.6016v20.551h-20.547l-0.003906-20.551h5.6016v6.5859c0 0.67188 0.54297 1.2148 1.2148 1.2148 0.25 0 0.48438-0.078126 0.67969-0.20703l2.8477-1.6445 2.7852 1.6055c0.57812 0.33203 1.3203 0.13281 1.6523-0.44531 0.10937-0.19141 0.16016-0.39844 0.16016-0.60156h0.007812zm-17.379 20.551v-21.766c0-0.67187 0.54297-1.2148 1.2148-1.2148h22.98c0.67188 0 1.2148 0.54297 1.2148 1.2148v21.766h10.273c0.67188 0 1.2148 0.54297 1.2148 1.2148v16.688c0.71094-0.37109 1.3906-0.625 2.0352-0.76172 1.3516-0.28906 2.5508-0.085937 3.5977 0.61328 0.089844 0.054687 0.17188 0.125 0.24609 0.20703l0.097656 0.10547c0.69531 0.79297 0.9375 1.668 0.72656 2.6289-0.17578 0.80469-0.69141 1.6133-1.5391 2.4297l-0.24609 0.23047c-1.1328 1.4219-2.9297 3.2383-5.3867 5.4453-2.4609 2.2109-5.6094 4.832-9.4414 7.8594l-0.09375 0.078125c-3.2578 2.4609-7.7344 4.4297-13.43 5.9023-5.4883 1.4219-12.121 2.3867-19.902 2.8984l-1.4805 1.793 0.38672 0.31641c0.91016 0.74219 1.4375 1.793 1.5469 2.8789 0.10938 1.0859-0.19531 2.2148-0.93359 3.1211l-5.0195 6.1562c-0.74219 0.91016-1.793 1.4336-2.8828 1.5469-1.0859 0.10938-2.2109-0.19141-3.1211-0.93359l-17.668-14.418c-0.91016-0.74219-1.4375-1.793-1.5469-2.8789-0.10938-1.0859 0.19141-2.2148 0.93359-3.1211l5.0195-6.1562c0.74219-0.91016 1.793-1.4336 2.8828-1.5469 1.0859-0.10937 2.2109 0.19141 3.1211 0.93359l0.72266 0.58984 6.4336-7.4609c1.3672-2.2148 3.1016-3.9297 5.207-5.1406 0.43359-0.25 0.88281-0.47656 1.3438-0.67969v-19.324c0-0.67188 0.54297-1.2148 1.2148-1.2148zm26.438 6.8398v-4.4102h-4.4844v4.4844l1.7031-0.98438c0.41406-0.23828 0.91016-0.20703 1.2812 0.039063zm2.4297-4.4102h5.6016v17.059l-4.8828 3.4922h-12.809l-0.007813-0.035156c-0.29688-1.4961-1.1602-2.6016-2.5859-3.3086-0.085938-0.042968-0.17578-0.085937-0.26562-0.125v-17.082h5.6016v6.5859c0 0.67188 0.54297 1.2148 1.2148 1.2148 0.25391 0 0.48828-0.074218 0.67969-0.20703l2.8477-1.6445 2.7852 1.6055c0.58203 0.33203 1.3203 0.13281 1.6523-0.44531 0.10938-0.19141 0.16016-0.39844 0.16016-0.60156h0.003906zm-2.6758 22.98-1.7773 1.2695c-1.8984 1.1719-3.7305 2.0977-5.4922 2.7656-1.7383 0.66016-3.4023 1.0742-4.9922 1.2383l-8.8828 0.54688c-0.80469-0.035156-1.3555-0.1875-1.6523-0.46094-0.20312-0.1875-0.29297-0.50391-0.27344-0.94531 0.19141-0.44531 0.45312-0.77344 0.78906-0.98438 0.40625-0.25 0.95703-0.36719 1.6523-0.35156l0.12109-0.003907v0.003907l5.3945-0.44141c0.054687-0.003906 0.10547-0.011718 0.15625-0.023437 1.6406-0.23047 2.9219-0.70312 3.8438-1.418h0.003906c0.44922-0.35156 0.8125-0.75 1.0898-1.1992zm-22.734-18.57v-4.4102h-4.4844v4.4844l1.7031-0.98438c0.41406-0.23828 0.91016-0.20703 1.2812 0.039063zm2.4297-4.4102h5.6016v16.457c-0.75-0.09375-1.5781-0.125-2.4844-0.097656-4.707 0.17969-9.7344 0.34766-14.434 0.34766-1.2852 0.078125-2.4961 0.26172-3.6328 0.55859l0.003906-17.266h5.6016v6.5859c0 0.67188 0.54297 1.2148 1.2148 1.2148 0.25 0 0.48438-0.074218 0.67969-0.20703l2.8477-1.6445 2.7852 1.6055c0.57813 0.33203 1.3203 0.13281 1.6523-0.44531 0.10938-0.19141 0.16016-0.39844 0.16016-0.60156h0.003907zm-19.699 55.844c-0.32031 0.39062-0.76953 0.61719-1.2383 0.66406-0.47266 0.046874-0.96484-0.082032-1.3555-0.40234l-17.676-14.414c-0.39062-0.32031-0.61719-0.76953-0.66406-1.2383-0.046875-0.47266 0.082032-0.96484 0.40234-1.3555l5.0195-6.1562c0.32031-0.39062 0.76953-0.61719 1.2383-0.66406 0.47266-0.046875 0.96484 0.082031 1.3555 0.40234l11.848 9.6641 4.4883 3.6641 0.007812 0.003906 1.3281 1.082c0.39062 0.32031 0.61719 0.76953 0.66406 1.2383 0.046875 0.47266-0.082031 0.96484-0.40234 1.3555z" fill-rule="evenodd"/>
<text x="0.0" y="117.5" font-size="5.0" font-weight="bold" font-family="Arbeit Regular, Helvetica, Arial-Unicode, Arial, Sans-serif" fill="#000000">Created by Ferdian Mauladi Riziq</text><text x="0.0" y="122.5" font-size="5.0" font-weight="bold" font-family="Arbeit Regular, Helvetica, Arial-Unicode, Arial, Sans-serif" fill="#000000">from Noun Project</text></svg>