<svg xmlns="http://www.w3.org/2000/svg" version="1.1" viewBox="-5.0 -10.0 110.0 135.0">
 <path d="m41.367 63.328c1.7656 0 3.2031-1.4375 3.2031-3.2031v-19.836c0-1.7656-1.4375-3.2031-3.2031-3.2031h-22.359c-1.7656 0-3.2031 1.4375-3.2031 3.2031v19.836c0 1.7656 1.4375 3.2031 3.2031 3.2031zm-13.891-23.617h5.418v3.5742h-5.418zm-9.0469 20.414v-19.836c0-0.3125 0.26562-0.57812 0.57812-0.57812h5.8477v3.9336c0 1.2461 1.0156 2.2617 2.2617 2.2617h6.1406c1.2461 0 2.2617-1.0156 2.2617-2.2617v-3.9336h5.8477c0.3125 0 0.57812 0.26562 0.57812 0.57812v19.836c0 0.3125-0.26562 0.57812-0.57812 0.57812h-22.359c-0.3125 0-0.57812-0.26562-0.57812-0.57812zm2.9297-0.62891h7.1875c0.94922 0 1.7188-0.76953 1.7188-1.7188v-2.8398c0-0.94922-0.77344-1.7188-1.7188-1.7188h-7.1875c-0.94922 0-1.7188 0.77344-1.7188 1.7188v2.8398c0 0.94922 0.76953 1.7188 1.7188 1.7188zm0.90234-3.6562h5.3789v1.0273h-5.3789zm57.168 8.3984h-58.859c-8.375 0-15.188 6.8125-15.188 15.188s6.8125 15.188 15.188 15.188h58.855c8.375 0 15.188-6.8125 15.188-15.188s-6.8125-15.188-15.188-15.188zm0 27.754h-58.859c-6.9258 0-12.562-5.6367-12.562-12.562 0-6.9258 5.6367-12.562 12.562-12.562h58.855c6.9258 0 12.562 5.6367 12.562 12.562 0 6.9258-5.6367 12.562-12.562 12.562zm0-21.566h-0.011719-19.59-0.011719-0.011718-19.594-0.011719-0.011719-19.59-0.011718c-4.9648 0-9.0039 4.0391-9.0039 9.0039 0 4.9648 4.0391 9 9.0039 9h0.007812 19.605 0.007812 0.007813 19.605 0.007813 0.007813 19.605 0.007813c4.9648 0 9.0039-4.0391 9.0039-9 0-4.9648-4.0391-9.0039-9.0039-9.0039zm-13.242 9.0039c0 3.5156-2.8555 6.3711-6.3711 6.3789h-0.011718c-3.5117-0.003906-6.3711-2.8633-6.3711-6.3789 0-3.5156 2.8555-6.3711 6.3633-6.3789h0.027344c3.5117 0.007813 6.3633 2.8633 6.3633 6.3789zm-19.621 0c0 3.5156-2.8555 6.3711-6.3711 6.3789h-0.011718c-3.5117-0.003906-6.3711-2.8633-6.3711-6.3789 0-3.5156 2.8555-6.3711 6.3633-6.3789h0.027344c3.5117 0.007813 6.3633 2.8633 6.3633 6.3789zm-32.371 0c0-3.5156 2.8594-6.3789 6.3789-6.3789h0.015625c3.5117 0.007813 6.3633 2.8633 6.3633 6.3789 0 3.5117-2.8555 6.3711-6.3711 6.3789h-0.007812c-3.5156 0-6.3789-2.8594-6.3789-6.3789zm12.723 6.375c1.6406-1.6328 2.6562-3.8867 2.6562-6.3789 0-2.4883-1.0156-4.7461-2.6562-6.3789h6.9258c-1.6406 1.6328-2.6562 3.8867-2.6562 6.3789 0 2.4883 1.0156 4.7461 2.6562 6.3789zm19.617 0c1.6406-1.6328 2.6562-3.8867 2.6562-6.3789 0-2.4883-1.0156-4.7461-2.6562-6.3789h6.9258c-1.6406 1.6328-2.6562 3.8867-2.6562 6.3789 0 2.4883 1.0156 4.7461 2.6562 6.3789zm19.621 0c1.6406-1.6328 2.6562-3.8867 2.6562-6.3789 0-2.4883-1.0156-4.7461-2.6562-6.3789h6.9258c-1.6406 1.6328-2.6562 3.8867-2.6562 6.3789 0 2.4883 1.0156 4.7461 2.6562 6.3789zm13.273 0h-0.007813c-3.5117-0.003907-6.3711-2.8633-6.3711-6.3789s2.8555-6.3711 6.3633-6.3789h0.015626c3.5156 0 6.3789 2.8594 6.3789 6.3789 0 3.5156-2.8594 6.3789-6.3789 6.3789zm0-10.605c-2.332 0-4.2305 1.8984-4.2305 4.2305 0 2.332 1.8984 4.2305 4.2305 4.2305 2.332 0 4.2305-1.8984 4.2305-4.2305 0-2.332-1.8984-4.2305-4.2305-4.2305zm0 5.832c-0.88672 0-1.6055-0.71875-1.6055-1.6055s0.71875-1.6055 1.6055-1.6055c0.88672 0 1.6055 0.71875 1.6055 1.6055s-0.71875 1.6055-1.6055 1.6055zm-23.852-1.6016c0 2.332 1.8984 4.2305 4.2305 4.2305 2.332 0 4.2305-1.8984 4.2305-4.2305 0-2.332-1.8984-4.2305-4.2305-4.2305-2.332 0-4.2305 1.8984-4.2305 4.2305zm5.8359 0c0 0.88672-0.71875 1.6055-1.6055 1.6055-0.88672 0-1.6055-0.71875-1.6055-1.6055 0-0.88672 0.71875-1.6055 1.6055-1.6055 0.88672 0 1.6055 0.71875 1.6055 1.6055zm-40.84 4.2266c2.332 0 4.2305-1.8984 4.2305-4.2305s-1.8984-4.2305-4.2305-4.2305-4.2305 1.8984-4.2305 4.2305 1.8984 4.2305 4.2305 4.2305zm0-5.832c0.88672 0 1.6055 0.71875 1.6055 1.6055 0 0.88672-0.71875 1.6055-1.6055 1.6055s-1.6055-0.71875-1.6055-1.6055c0-0.88672 0.71875-1.6055 1.6055-1.6055zm15.387 1.6055c0 2.332 1.8984 4.2305 4.2305 4.2305 2.332 0 4.2305-1.8984 4.2305-4.2305 0-2.332-1.8984-4.2305-4.2305-4.2305-2.332 0-4.2305 1.8984-4.2305 4.2305zm5.8359 0c0 0.88672-0.71875 1.6055-1.6055 1.6055-0.88672 0-1.6055-0.71875-1.6055-1.6055 0-0.88672 0.71875-1.6055 1.6055-1.6055 0.88672 0 1.6055 0.71875 1.6055 1.6055zm51.508-74.043h-86.609c-0.72656 0-1.3125 0.58594-1.3125 1.3125v5.043c0 0.72656 0.58984 1.3125 1.3125 1.3125h46.262v1.5117c0 0.72656 0.58984 1.3125 1.3125 1.3125h6.3984l0.082031 0.79688-20.453 10.133c-0.3125 0.15625-0.55078 0.42578-0.66016 0.75781-0.10938 0.32812-0.085938 0.69141 0.070312 1.0039l8.1992 16.473c0.22266 0.44531 0.67578 0.72656 1.1758 0.72656h2.8477v7.0742c0 1.7656 1.4375 3.2031 3.2031 3.2031h22.359c1.7656 0 3.2031-1.4375 3.2031-3.2031v-7.0742h2.8477c0.49609 0 0.95312-0.28125 1.1758-0.72656l8.1992-16.473c0.15625-0.3125 0.17969-0.67187 0.070312-1.0039-0.10938-0.32812-0.34766-0.60156-0.66016-0.75781l-20.453-10.133 0.082031-0.79688h6.3984c0.72656 0 1.3125-0.58594 1.3125-1.3125v-1.5117h13.633c0.72656 0 1.3125-0.58594 1.3125-1.3125v-5.043c0-0.72656-0.58984-1.3125-1.3125-1.3125zm-85.297 5.0391v-2.418h44.949v2.418zm41.887 32.719-7.2539-14.57 18.398-9.1172 0.26172 2.5-13.977 6.6211c-0.60938 0.28906-0.90234 0.99609-0.67188 1.6328l4.6602 12.938h-1.4219zm28.18 9.6992c0 0.3125-0.26562 0.57812-0.57812 0.57812h-22.359c-0.3125 0-0.57812-0.26562-0.57812-0.57812v-19.836c0-0.3125 0.26562-0.57812 0.57812-0.57812h5.8477v3.9336c0 1.2461 1.0156 2.2617 2.2617 2.2617h6.1406c1.2461 0 2.2617-1.0156 2.2617-2.2617v-3.9336h5.8477c0.3125 0 0.57812 0.26562 0.57812 0.57812zm-14.469-20.414h5.418v3.5742h-5.418zm13.887-2.625h-22.359c-1.7656 0-3.2031 1.4375-3.2031 3.2031v4.0977l-2.4023-6.668 12.316-5.8359c0.24219 0.25781 0.58594 0.41797 0.96094 0.41797h7.0195c0.37891 0 0.71875-0.16016 0.96094-0.41797l12.316 5.8359-2.4023 6.668v-4.1016c0-1.7656-1.4375-3.2031-3.2031-3.2031zm12.492-1.2305-7.2539 14.57h-1.4219l4.6602-12.938c0.23047-0.63672-0.0625-1.3438-0.67188-1.6328l-13.977-6.6211 0.26172-2.5 18.398 9.1172zm-21.344-6.1758h-4.6523l-0.67969-6.5234h6.0078l-0.67969 6.5234zm-13.059-9.1484v-5.2422h21.461v5.2422zm36.41-2.8242h-12.32v-2.418h12.32zm-27.316 35.508h-7.1875c-0.94922 0-1.7188 0.76953-1.7188 1.7188v2.8398c0 0.94922 0.77344 1.7188 1.7188 1.7188h7.1875c0.94922 0 1.7188-0.76953 1.7188-1.7188v-2.8398c0-0.94922-0.77344-1.7188-1.7188-1.7188zm-0.90625 3.6562h-5.3789v-1.0273h5.3789z"/>
<text x="0.0" y="117.5" font-size="5.0" font-weight="bold" font-family="Arbeit Regular, Helvetica, Arial-Unicode, Arial, Sans-serif" fill="#000000">Created by my</text><text x="0.0" y="122.5" font-size="5.0" font-weight="bold" font-family="Arbeit Regular, Helvetica, Arial-Unicode, Arial, Sans-serif" fill="#000000">from Noun Project</text></svg>