<svg xmlns="http://www.w3.org/2000/svg" version="1.1" viewBox="-5.0 -10.0 110.0 135.0">
 <path d="m90.828 62.73h-3.9219c1.4531-4.0664 2.1914-8.3281 2.1914-12.695 0-0.51562-0.41797-0.9375-0.9375-0.9375h-18.074c-0.51563 0-0.9375 0.41797-0.9375 0.9375 0 9.8125-7.9805 17.793-17.793 17.793h-0.003907c-9.8125 0-17.793-7.9805-17.793-17.793s7.9805-17.793 17.793-17.793c0.51563 0 0.9375-0.41797 0.9375-0.9375l0.003907-18.07c0-0.51562-0.41797-0.9375-0.9375-0.9375-9.75 0-18.969 3.6914-26.016 10.402h-21.277c-0.51562 0-0.9375 0.41797-0.9375 0.9375 0 0.51562 0.41797 0.9375 0.9375 0.9375h19.441c-6.3906 6.9688-9.8867 15.93-9.8867 25.465 0 9.5352 3.4961 18.496 9.8867 25.465h-19.441c-0.51562 0-0.9375 0.41797-0.9375 0.9375 0 0.51562 0.41797 0.9375 0.9375 0.9375h21.281c7.0469 6.7109 16.266 10.402 26.012 10.402h0.003906c0.99609 0 1.9961-0.039062 2.9961-0.11719v7.4844c0 0.51562 0.41797 0.9375 0.9375 0.9375h35.539c0.51562 0 0.9375-0.41797 0.9375-0.9375v-31.477c0-0.51562-0.41797-0.9375-0.9375-0.9375zm-65.18-37.699 4.8633 6.0508c0.18359 0.23047 0.45703 0.35156 0.73047 0.35156 0.20703 0 0.41406-0.066406 0.58594-0.20703 0.40234-0.32422 0.46875-0.91406 0.14453-1.3164l-4.9766-6.1914c6.4219-5.9492 14.672-9.3086 23.426-9.5352v16.211c-10.102 0.47656-18.234 8.6055-18.707 18.707h-16.211c0.23047-9.082 3.8047-17.562 10.145-24.07zm24.773 60.863c-8.7539-0.22266-17.008-3.582-23.426-9.5352l4.9766-6.1914c0.32422-0.40234 0.26172-0.99219-0.14453-1.3164-0.40234-0.32422-0.99219-0.26172-1.3164 0.14453l-4.8633 6.0508c-6.3398-6.5078-9.9141-14.992-10.145-24.07h16.211c0.47656 10.102 8.6055 18.234 18.707 18.707zm1.875 0v-16.211c10.102-0.47656 18.234-8.6055 18.707-18.707h16.211c-0.10156 4.0469-0.875 7.9961-2.3008 11.758h-2.9688c-0.51562 0-0.9375 0.41797-0.9375 0.9375v5.8242h-7.9492c-0.51562 0-0.9375 0.41797-0.9375 0.9375v5.8281h-7.9492c-0.51562 0-0.9375 0.41797-0.9375 0.9375v6.957h-7.9492c-0.51562 0-0.9375 0.41797-0.9375 0.9375v0.69141c-0.68359 0.054688-1.3711 0.09375-2.0586 0.11328zm3.9297 0.74219v-0.60938h7.0117v8.1836h-7.0117zm8.8867-1.5469v-6.957h7.0117v16.078h-7.0117zm8.8828-7.8945v-5.8281h7.0117v22.84h-7.0117zm15.898 17.012h-7.0117v-29.602h7.0117zm-86.77-76.422c0-0.51562 0.41797-0.9375 0.9375-0.9375h21.043c0.51562 0 0.9375 0.41797 0.9375 0.9375 0 0.51562-0.41797 0.9375-0.9375 0.9375h-21.043c-0.51562 0-0.9375-0.41797-0.9375-0.9375zm0-5.8516c0-0.51562 0.41797-0.9375 0.9375-0.9375h21.043c0.51562 0 0.9375 0.41797 0.9375 0.9375 0 0.51562-0.41797 0.9375-0.9375 0.9375h-21.043c-0.51562 0-0.9375-0.41797-0.9375-0.9375zm0-5.8516c0-0.51562 0.41797-0.9375 0.9375-0.9375h21.043c0.51562 0 0.9375 0.41797 0.9375 0.9375 0 0.51562-0.41797 0.9375-0.9375 0.9375l-21.043 0.003907c-0.51562 0-0.9375-0.41797-0.9375-0.9375zm22.918 76.203c0 0.51562-0.41797 0.9375-0.9375 0.9375l-21.043 0.003906c-0.51562 0-0.9375-0.41797-0.9375-0.9375 0-0.51562 0.41797-0.9375 0.9375-0.9375h21.043c0.51562 0 0.9375 0.41797 0.9375 0.9375zm0 5.8516c0 0.51562-0.41797 0.9375-0.9375 0.9375h-21.043c-0.51562 0-0.9375-0.41797-0.9375-0.9375 0-0.51562 0.41797-0.9375 0.9375-0.9375h21.043c0.51562 0 0.9375 0.41797 0.9375 0.9375zm0 5.8516c0 0.51562-0.41797 0.9375-0.9375 0.9375h-21.043c-0.51562 0-0.9375-0.41797-0.9375-0.9375 0-0.51562 0.41797-0.9375 0.9375-0.9375h21.043c0.51562 0 0.9375 0.41797 0.9375 0.9375zm70.824-66.988c0-0.011719-0.003907-0.027344-0.007813-0.039062-0.003906-0.027344-0.007813-0.054688-0.015625-0.082032-0.003906-0.015625-0.011719-0.03125-0.015625-0.046875-0.007813-0.023437-0.015625-0.046875-0.023437-0.070312-0.007813-0.015625-0.015626-0.03125-0.023438-0.046875-0.011719-0.019532-0.019531-0.042969-0.03125-0.0625-0.007812-0.015625-0.019531-0.027344-0.027344-0.042969-0.011718-0.019531-0.023437-0.039063-0.039062-0.058594-0.011719-0.015625-0.023438-0.027343-0.035156-0.039062-0.015626-0.015625-0.03125-0.035157-0.046876-0.050781-0.011718-0.011719-0.027343-0.023438-0.042968-0.035157-0.015625-0.015625-0.035156-0.03125-0.050782-0.042969-0.015624-0.011718-0.03125-0.019531-0.046874-0.03125-0.015626-0.011718-0.03125-0.023437-0.050782-0.035156 0 0-0.003906 0-0.003906-0.003906l-0.003906-0.003906-9.207-5.2188v-10.75c0-0.042969-0.003906-0.082032-0.007812-0.125 0-0.011719-0.003906-0.027344-0.007812-0.039063-0.003907-0.027343-0.007813-0.054687-0.015626-0.082031-0.003906-0.015625-0.011718-0.03125-0.015624-0.046875-0.007813-0.023437-0.015626-0.046875-0.023438-0.070313-0.007812-0.015624-0.015625-0.03125-0.023438-0.046874-0.011718-0.019532-0.019531-0.042969-0.03125-0.0625-0.007812-0.015626-0.019531-0.027344-0.027343-0.042969-0.011719-0.019531-0.023438-0.039063-0.039063-0.058594-0.011718-0.015625-0.023437-0.027344-0.035156-0.039063-0.015625-0.015624-0.03125-0.035156-0.046875-0.050781-0.011719-0.011719-0.027344-0.023437-0.039063-0.035156-0.015624-0.015625-0.035156-0.03125-0.050781-0.042969-0.015625-0.011718-0.03125-0.019531-0.046875-0.03125-0.015625-0.011718-0.03125-0.023437-0.050781-0.035156 0 0-0.003906 0-0.003906-0.003906l-0.003907-0.003906-9.6836-5.4883c-0.28516-0.16406-0.63672-0.16406-0.92188 0l-9.6836 5.4883-0.003906 0.003906s-0.003906 0-0.003906 0.003906c-0.019532 0.011719-0.035157 0.023438-0.050782 0.035156-0.015625 0.011719-0.03125 0.019532-0.046875 0.03125-0.019531 0.015625-0.035156 0.03125-0.050781 0.042969s-0.027344 0.023437-0.042969 0.035156c-0.015625 0.015625-0.03125 0.035157-0.046875 0.050781-0.011718 0.011719-0.023437 0.027344-0.035156 0.039063-0.015625 0.019531-0.027344 0.039063-0.039062 0.058594-0.007813 0.015625-0.019532 0.027343-0.027344 0.042969-0.011719 0.019531-0.019532 0.042968-0.03125 0.0625-0.007813 0.015624-0.015625 0.03125-0.023438 0.046874-0.007812 0.023438-0.015625 0.046876-0.023437 0.070313-0.003907 0.015625-0.011719 0.03125-0.015625 0.046875-0.007813 0.027344-0.011719 0.050781-0.015625 0.078125-0.003907 0.015625-0.007813 0.027344-0.007813 0.042969-0.003906 0.039062-0.007812 0.082031-0.007812 0.125v10.75l-9.207 5.2188-0.003906 0.003906s-0.003906 0-0.003906 0.003906c-0.015625 0.011719-0.03125 0.023438-0.046875 0.03125-0.015625 0.011719-0.035156 0.023438-0.050781 0.035156-0.015625 0.011719-0.03125 0.027344-0.046875 0.042969-0.015625 0.011719-0.03125 0.023438-0.042969 0.039063-0.015625 0.015625-0.027344 0.03125-0.042969 0.046875-0.011719 0.015625-0.027343 0.027343-0.039062 0.042969-0.015625 0.019531-0.023438 0.039062-0.039063 0.054687-0.011718 0.015625-0.019531 0.03125-0.03125 0.046875-0.011718 0.019531-0.019531 0.042969-0.03125 0.0625-0.007812 0.015625-0.015625 0.03125-0.023437 0.046875-0.007813 0.023437-0.015625 0.046875-0.023438 0.070313-0.003906 0.015624-0.011719 0.03125-0.015625 0.046874-0.007812 0.027344-0.011718 0.050782-0.015625 0.078126-0.003906 0.015624-0.007812 0.027343-0.007812 0.042968-0.003907 0.039063-0.007813 0.082032-0.007813 0.125v11.297c0 0.33594 0.17969 0.64844 0.47656 0.81641l9.6836 5.4883c0.019532 0.011719 0.042969 0.019531 0.0625 0.03125 0.015626 0.007812 0.027344 0.015625 0.042969 0.019531 0.023438 0.011719 0.050781 0.015625 0.074219 0.027344 0.015625 0.003906 0.027344 0.011718 0.042969 0.011718 0.027343 0.007813 0.054687 0.011719 0.082031 0.015626 0.011719 0.003906 0.023438 0.003906 0.035156 0.007812 0.039063 0.003906 0.082032 0.007812 0.12109 0.007812s0.082031-0.003906 0.12109-0.007812c0.011718 0 0.023437-0.003906 0.035156-0.007812 0.027344-0.003907 0.054688-0.007813 0.082031-0.015626 0.015625-0.003906 0.027344-0.007812 0.042969-0.015624 0.023438-0.007813 0.050781-0.015626 0.074219-0.023438 0.015625-0.007812 0.03125-0.015625 0.046875-0.023438 0.019531-0.007812 0.039062-0.019531 0.058594-0.027343l9.2188-5.2266 9.2188 5.2266c0.019531 0.011719 0.039062 0.019531 0.058593 0.027343 0.015625 0.007813 0.03125 0.015626 0.046875 0.023438 0.023438 0.011719 0.050782 0.015625 0.074219 0.023438 0.015625 0.003906 0.027344 0.011718 0.042969 0.015624 0.027344 0.007813 0.054687 0.011719 0.082031 0.015626 0.011719 0.003906 0.023437 0.003906 0.035156 0.007812 0.039063 0.003906 0.082031 0.007812 0.12109 0.007812s0.082031-0.003906 0.12109-0.007812c0.011719 0 0.023437-0.003906 0.035156-0.007812 0.027344-0.003907 0.054687-0.007813 0.082031-0.015626 0.015625-0.003906 0.027344-0.007812 0.042969-0.015624 0.023437-0.007813 0.050781-0.015626 0.074219-0.023438 0.015625-0.007812 0.03125-0.015625 0.046875-0.023438 0.019531-0.007812 0.039062-0.019531 0.058593-0.027343l9.6836-5.4883c0.29297-0.16797 0.47656-0.47656 0.47656-0.81641v-11.297c0-0.042968-0.003907-0.082031-0.007813-0.125zm-6.4023 4.3008 0.46094-0.26172 0.80078-0.45312v2.6055l-1.2656 0.71484v-2.6055zm-19.363 0 0.46094-0.26172 0.80078-0.45312v2.6055l-1.2656 0.71484v-2.6055zm-2.3086-2.3984 1.2383-0.70312 1.3711 0.77734-1.2383 0.70313zm9.6836-16.781 1.2383-0.70312 1.3711 0.77734-1.2383 0.70313zm6.8477 8.9727-7.8086 4.4258v-9.1445l1.3984-0.79297v3.1523c0 0.33203 0.17578 0.64062 0.46484 0.80859 0.14453 0.085937 0.30859 0.12891 0.47266 0.12891 0.16016 0 0.31641-0.039063 0.46094-0.12109l3.1367-1.7773c0.29297-0.16797 0.47656-0.47656 0.47656-0.81641v-4.2148l1.3984-0.79297zm-4.5352-6.5703 1.2656-0.71484v2.6055l-1.2656 0.71484zm-8.8789-0.26172 3.7344 2.1172v9.1445l-7.8086-4.4258v-9.1445zm16.254 14.645 1.2383-0.70312 1.3711 0.77734-1.2383 0.70312zm4.5117-1-2.8125-1.5938c-0.28516-0.16406-0.63672-0.16406-0.92188 0l-3.1367 1.7773c-0.29297 0.16797-0.47656 0.47656-0.47656 0.81641 0 0.33594 0.17969 0.64844 0.47656 0.81641l1.8359 1.0391-1.3711 0.77734-7.7812-4.4102 2.6719-1.5117 5.1133-2.8984 7.7812 4.4102-1.3711 0.77734zm-16.094-21.969 7.7812 4.4102-1.3711 0.77734-2.8125-1.5938c-0.28516-0.16406-0.63672-0.16406-0.92188 0l-3.1367 1.7773c-0.29297 0.16797-0.47656 0.47656-0.47656 0.81641 0 0.33594 0.17969 0.64844 0.47656 0.81641l1.8359 1.0391-1.3711 0.77734-7.7812-4.4102 7.7812-4.4102zm-9.6836 16.781 7.7812 4.4102-1.3711 0.77734-2.8125-1.5938c-0.28516-0.16406-0.63672-0.16406-0.92188 0l-3.1367 1.7773c-0.29297 0.16797-0.47656 0.47656-0.47656 0.81641 0 0.33594 0.17969 0.64844 0.47656 0.81641l1.8359 1.0391-1.3711 0.77734-7.7812-4.4102 7.7812-4.4102zm-8.7461 6.0156 4.6641 2.6406 3.1445 1.7812v9.1445l-7.8086-4.4258v-9.1445zm9.6836 4.4258 1.3984-0.79297v3.1523c0 0.33203 0.17578 0.64062 0.46484 0.80859 0.14453 0.085937 0.30859 0.12891 0.47266 0.12891 0.16016 0 0.31641-0.039062 0.46094-0.12109l3.1367-1.7773c0.29297-0.16797 0.47656-0.47656 0.47656-0.81641v-4.2148l1.3984-0.79297v9.1445l-7.8086 4.4258zm9.6836-4.4258 4.6641 2.6406 3.1445 1.7812v9.1445l-7.8086-4.4258v-9.1445zm9.6836 13.566v-9.1445l1.3984-0.79297v3.1523c0 0.33203 0.17578 0.64062 0.46484 0.80859 0.14453 0.085937 0.30859 0.12891 0.47266 0.12891 0.16016 0 0.31641-0.039063 0.46094-0.12109l3.1367-1.7773c0.29297-0.16797 0.47656-0.47656 0.47656-0.81641v-4.2148l1.3984-0.79297v9.1445z"/>
<text x="0.0" y="117.5" font-size="5.0" font-weight="bold" font-family="Arbeit Regular, Helvetica, Arial-Unicode, Arial, Sans-serif" fill="#000000">Created by Nakama Icon</text><text x="0.0" y="122.5" font-size="5.0" font-weight="bold" font-family="Arbeit Regular, Helvetica, Arial-Unicode, Arial, Sans-serif" fill="#000000">from Noun Project</text></svg>