<?xml version="1.0" encoding="UTF-8"?>
<svg id="Layer_1" xmlns="http://www.w3.org/2000/svg" version="1.1" viewBox="0 0 110 135">
  <!-- Generator: Adobe Illustrator 29.8.2, SVG Export Plug-In . SVG Version: 2.1.1 Build 3)  -->
  <defs>
    <style>
      .st0 {
        stroke: #000;
        stroke-miterlimit: 10;
        stroke-width: .5px;
      }
    </style>
  </defs>
  <path class="st0" d="M65.87,56.66c1.57.89,2.86,2.28,3.62,3.91.21.46.02,1.02-.45,1.23-.12.06-.26.09-.39.09-.35,0-.68-.2-.84-.54-.63-1.35-1.7-2.48-3.02-3.18-.09-.05-.16-.1-.23-.17-1.34-.84-2.44-2.02-3.18-3.41-.24-.45-.07-1.01.38-1.25.45-.24,1.01-.07,1.25.38.62,1.17,1.55,2.14,2.68,2.81.06.04.11.07.16.12h0ZM40.44,86.18c-.32.1-.64.14-.96.14-.86,0-1.67-.36-2.27-1.03-.92-1.03-1.18-2.57-.63-3.85,0-.01,0-.02.02-.03.83-1.76,1.04-3.63.61-5.16-.17.03-.33.06-.5.07-2.15.22-4.47-.78-6.04-2.6-1.29-1.5-2.13-3.55-2.43-5.92-.22-1.74-.04-3.12.57-4.21-1.52-2.31-2.04-5.16-1.37-7.77.57-2.23,1.92-4.02,3.7-4.9.6-.3,1.27-.49,1.96-.55.47-6.87,6.2-12.3,13.16-12.3,2.53,0,4.95.71,7.06,2.05,1.7-1.78,4.04-2.79,6.53-2.79,3.11,0,5.96,1.58,7.62,4.17.63-.14,1.28-.21,1.93-.21,4.03,0,7.61,2.73,8.71,6.57,2.86,1.18,4.74,3.98,4.74,7.11,0,2.73-1.44,5.23-3.77,6.62-1.12,3.02-3.98,5.02-7.23,5.02-.61,0-1.2-.07-1.79-.21-.96,3.85-4.43,6.63-8.5,6.63-2.32,0-4.75-.44-6.82-3.51-.37-.04-.74-.08-1.09-.12-3.39-.39-5.64-.64-6.83,3.45,0,.02-.01.04-.02.07-.41,1.11-.73,2.34-1.07,3.64-.9,3.45-1.93,7.36-5.02,9.5-.08.05-.16.1-.25.12h0ZM39.76,84.45c2.43-1.77,3.3-5.12,4.15-8.35.34-1.28.68-2.6,1.12-3.79,1.63-5.56,5.45-5.12,8.81-4.74.49.05,1,.11,1.49.15.29.02.56.18.71.43.61.98,1.23,1.64,1.86,2.09.65-.27,1.24-.66,1.72-1.15.82-.83,1.36-1.97,1.48-3.13.05-.51.51-.88,1.02-.83.51.05.88.51.83,1.02-.16,1.59-.87,3.1-2,4.25-.25.26-.53.49-.82.71.47.07.95.08,1.42.08,3.5,0,6.45-2.61,6.86-6.08,0,0,0-.02,0-.02,0-.03.01-.06.02-.09s.02-.06.03-.09c0,0,0-.02,0-.02,0-.02.02-.04.03-.05l.05-.09.05-.07s.04-.05.06-.07.04-.04.06-.06l.07-.06.07-.05.08-.05s.05-.02.08-.03c.03-.01.06-.02.09-.03.03,0,.06-.01.09-.02.03,0,.06,0,.09-.01h.16s.02,0,.02,0c.03,0,.06.01.09.02.03,0,.06.02.09.03,0,0,.02,0,.02,0,.69.27,1.42.41,2.16.41,1.83,0,3.49-.84,4.57-2.2-.43.07-.86.11-1.29.11-1.06,0-2.09-.21-3.05-.63-.47-.2-.69-.75-.48-1.22.2-.47.75-.69,1.22-.48.73.32,1.51.48,2.32.48.97,0,1.89-.23,2.75-.68,1.92-1.02,3.11-3,3.11-5.18,0-2.51-1.59-4.74-3.96-5.54-.61-.21-1.25-.32-1.9-.32-.81,0-1.6.16-2.34.49-.47.2-1.02,0-1.22-.48s0-1.02.48-1.22c.97-.43,2.01-.64,3.08-.64.27,0,.53.02.79.04-1.17-2.48-3.71-4.16-6.53-4.16-.36,0-.71.03-1.07.08.38,1.01.57,2.08.57,3.16,0,.51-.41.93-.93.93s-.93-.41-.93-.93c0-1.2-.28-2.33-.84-3.38,0,0,0,0,0,0-1.25-2.36-3.69-3.82-6.36-3.82-2.21,0-4.27,1-5.65,2.73-.96,1.2-1.49,2.64-1.55,4.16,0,.1,0,.2,0,.31,0,.51-.41.93-.93.93s-.93-.41-.93-.93c0-.12,0-.24,0-.36,0-.04,0-.08,0-.11,0-.08,0-.16.02-.24,0-.04,0-.09.01-.13,0-.07.02-.15.02-.23,0-.04.01-.09.02-.13.01-.08.02-.16.04-.23,0-.04.01-.08.02-.12.02-.1.04-.21.06-.31,0-.01,0-.02,0-.04.02-.11.05-.23.08-.34,0-.04.02-.07.03-.11.02-.08.04-.15.06-.23.01-.04.03-.09.04-.12.02-.07.04-.14.07-.21.02-.04.03-.09.04-.12.03-.07.05-.14.08-.21.02-.04.03-.08.04-.11.04-.09.07-.18.11-.26,0-.02.02-.04.03-.06.05-.11.1-.21.15-.31.02-.03.04-.07.05-.1.04-.07.07-.14.11-.21.02-.04.04-.08.07-.12.04-.06.07-.13.11-.19.02-.04.05-.08.07-.12.02-.02.03-.05.04-.07-1.78-1.09-3.8-1.66-5.91-1.66-6,0-10.92,4.68-11.32,10.58.84.2,1.58.6,2.17,1.17,1.12-.27,2.23,0,3.13.21.5.12.8.62.68,1.12-.12.5-.62.8-1.12.68-.75-.18-1.59-.39-2.28-.21-.44.11-.83.39-1.08.77s-.36.85-.29,1.29c.07.51-.28.98-.79,1.05-.04,0-.09,0-.13,0-.45,0-.85-.34-.91-.8-.12-.89.09-1.83.59-2.58.14-.2.29-.39.47-.57-.41-.25-.91-.4-1.45-.45-.68-.05-1.38.08-1.96.38-1.28.64-2.3,2.02-2.73,3.71-.49,1.92-.16,4.09.87,5.88,1.17-.83,2.78-1.16,4.39-.84,1.39.28,2.63.95,3.76,1.72.62-.99,1.61-1.66,2.37-2.18.42-.29,1-.18,1.29.24.29.42.18,1-.24,1.29-.96.66-1.79,1.27-2.06,2.09-.18.54-.08,1.19.25,1.65.33.46.92.76,1.49.76h0c.51,0,.93.41.93.93s-.41.93-.93.93h0c-1.16,0-2.31-.59-2.99-1.53-.48-.67-.72-1.5-.69-2.32-1.1-.79-2.28-1.5-3.54-1.75-1.16-.23-2.68,0-3.48,1.01,0,0-.01.01-.02.02,0,0-.01.02-.02.02,0,0,0,.01-.01.02-.55.74-.73,1.87-.54,3.36.25,2.02.95,3.73,2,4.95,1.18,1.38,2.89,2.13,4.45,1.97.31-.03.62-.11.93-.22,1.26-.48,2.17-1.53,2.32-2.69.07-.51.53-.86,1.04-.8s.86.53.8,1.04c-.2,1.54-1.22,2.95-2.67,3.78.62,2,.39,4.35-.66,6.59-.26.62-.13,1.38.31,1.87.23.25.61.51,1.18.39v.02ZM44.09,47.72c1.29.62,2.25,1.93,2.45,3.35,0,.03.01.05.02.08-.79.76-1.32,1.77-1.48,2.87-.07.51.28.98.79,1.05.04,0,.09,0,.13,0,.45,0,.85-.33.91-.8.13-.92.71-1.77,1.51-2.23.8-.46,1.84-.53,2.69-.18.47.19,1.02-.04,1.21-.51.19-.47-.04-1.02-.51-1.21-1.14-.46-2.44-.47-3.59-.04-.46-1.75-1.7-3.27-3.34-4.05-1.87-.89-4.12-.78-5.9.29-.44.27-.58.83-.32,1.27s.83.58,1.27.32c1.23-.74,2.85-.82,4.14-.2h0ZM71.49,57.78c.16,0,.31-.04.46-.12.45-.25.6-.82.35-1.26-.27-.48-.26-1.15.03-1.62.29-.47.88-.79,1.44-.75.51.03.95-.37.97-.88.03-.51-.37-.95-.88-.97-1.24-.06-2.46.58-3.11,1.63-.65,1.05-.68,2.43-.06,3.52.17.3.48.47.8.47h0ZM56.19,44.23c1.5.63,2.46,2.43,2.15,4.03-.06.33.05.67.31.89.26.21.61.28.93.16.83-.32,1.91-.24,2.9.21.89.4,1.62,1.18,1.96,2.09.14.37.49.6.87.6.11,0,.22-.02.32-.06.48-.18.72-.71.54-1.19-.52-1.38-1.59-2.53-2.93-3.13-.99-.45-2.03-.63-3.01-.55-.15-2.02-1.45-3.96-3.33-4.75-.47-.2-1.02.02-1.21.5-.2.47.02,1.02.5,1.21h0ZM51.09,58.02c-.22-.12-.38-.3-.42-.46-.11-.5-.6-.82-1.1-.71-.5.11-.82.6-.71,1.1.15.7.65,1.32,1.36,1.7.59.32,1.23.41,1.72.47.5.05.99.06,1.5.03-.8,1.47-1,3.27-.4,4.84.14.37.49.59.86.59.11,0,.22-.02.33-.06.48-.18.71-.72.54-1.2-.68-1.77.21-4.07,1.91-4.91.44-.22.63-.74.44-1.19s-.7-.68-1.16-.52c-1.48.51-2.66.68-3.83.56-.32-.04-.74-.09-1.05-.26h0ZM101.87,67.82c0,2.81-2.29,5.09-5.09,5.09-2.49,0-4.57-1.8-5.01-4.17h-14.53c-.51,0-.93-.41-.93-.93s.41-.93.93-.93h14.53c.44-2.37,2.52-4.17,5.01-4.17,2.81,0,5.09,2.29,5.09,5.09h0ZM100.02,67.82c0-1.79-1.45-3.24-3.24-3.24s-3.24,1.45-3.24,3.24,1.45,3.24,3.24,3.24,3.24-1.45,3.24-3.24ZM97.71,81.74c0,2.81-2.29,5.09-5.09,5.09-2.49,0-4.57-1.8-5.01-4.17h-8.3c-.25,0-.48-.1-.66-.27l-9.88-9.88c-.36-.36-.36-.95,0-1.31.36-.36.95-.36,1.31,0l9.61,9.61h7.91c.44-2.37,2.52-4.17,5.01-4.17,2.81,0,5.09,2.29,5.09,5.09h0ZM95.85,81.74c0-1.79-1.45-3.24-3.24-3.24s-3.24,1.45-3.24,3.24,1.45,3.24,3.24,3.24,3.24-1.45,3.24-3.24ZM13.22,72.92c-2.81,0-5.09-2.29-5.09-5.09s2.29-5.09,5.09-5.09c2.49,0,4.57,1.8,5.01,4.17h7.5c.51,0,.93.41.93.93s-.41.93-.93.93h-7.5c-.44,2.37-2.52,4.17-5.01,4.17h0ZM13.22,71.07c1.79,0,3.24-1.45,3.24-3.24s-1.45-3.24-3.24-3.24-3.24,1.45-3.24,3.24,1.45,3.24,3.24,3.24ZM31.35,82.4c-.17.17-.41.27-.66.27h-8.3c-.44,2.37-2.52,4.17-5.01,4.17-2.81,0-5.09-2.29-5.09-5.09s2.29-5.09,5.09-5.09c2.49,0,4.57,1.8,5.01,4.17h7.91l3-3c.36-.36.95-.36,1.31,0,.36.36.36.95,0,1.31l-3.28,3.28h0ZM20.63,81.75c0-1.79-1.45-3.24-3.24-3.24s-3.24,1.45-3.24,3.24,1.45,3.24,3.24,3.24,3.24-1.45,3.24-3.24ZM96.72,34.56c2.81,0,5.09,2.29,5.09,5.09s-2.29,5.09-5.09,5.09c-2.49,0-4.57-1.8-5.01-4.17h-14.53c-.51,0-.93-.41-.93-.93s.41-.93.93-.93h14.53c.44-2.37,2.52-4.17,5.01-4.17h0ZM96.72,36.41c-1.79,0-3.24,1.45-3.24,3.24s1.45,3.24,3.24,3.24,3.24-1.45,3.24-3.24-1.45-3.24-3.24-3.24ZM68.71,36.27c-.36-.36-.36-.95,0-1.31l9.88-9.88c.17-.17.41-.27.66-.27h8.3c.44-2.37,2.52-4.17,5.01-4.17,2.81,0,5.09,2.29,5.09,5.09s-2.29,5.09-5.09,5.09c-2.49,0-4.57-1.8-5.01-4.17h-7.91l-9.61,9.61c-.18.18-.42.27-.66.27s-.47-.09-.66-.27h0ZM89.31,25.73c0,1.79,1.45,3.24,3.24,3.24s3.24-1.45,3.24-3.24-1.45-3.24-3.24-3.24-3.24,1.45-3.24,3.24ZM8.13,39.65c0-2.81,2.29-5.09,5.09-5.09,2.49,0,4.57,1.8,5.01,4.17h14.53c.51,0,.93.41.93.93s-.41.93-.93.93h-14.53c-.44,2.37-2.52,4.17-5.01,4.17-2.81,0-5.09-2.29-5.09-5.09h0ZM9.98,39.65c0,1.79,1.45,3.24,3.24,3.24s3.24-1.45,3.24-3.24-1.45-3.24-3.24-3.24-3.24,1.45-3.24,3.24ZM12.29,25.73c0-2.81,2.29-5.09,5.09-5.09,2.49,0,4.57,1.8,5.01,4.17h8.3c.25,0,.48.1.66.27l9.88,9.88c.36.36.36.95,0,1.31-.18.18-.42.27-.66.27s-.47-.09-.66-.27l-9.61-9.61h-7.91c-.44,2.37-2.52,4.17-5.01,4.17-2.81,0-5.09-2.29-5.09-5.09h0ZM14.15,25.73c0,1.79,1.45,3.24,3.24,3.24s3.24-1.45,3.24-3.24-1.45-3.24-3.24-3.24-3.24,1.45-3.24,3.24ZM69.62,93.84h0v13.31c0,.36-.21.69-.54.84l-13.71,6.29s0,0-.01,0c-.03.02-.07.03-.1.04-.01,0-.02,0-.04,0-.03,0-.05.01-.09.02-.01,0-.02,0-.04,0-.04,0-.08,0-.12,0s-.08,0-.12,0c-.01,0-.02,0-.04,0-.03,0-.06-.01-.09-.02-.01,0-.02,0-.04,0-.04-.01-.07-.02-.1-.04,0,0,0,0-.01,0l-13.71-6.29c-.33-.15-.54-.48-.54-.84v-13.31h0v-.03s0-.07,0-.11c0-.02,0-.03,0-.04,0-.03.01-.05.02-.08,0-.02.01-.03.02-.05,0-.02.02-.05.03-.07,0-.02.02-.03.02-.05.01-.02.02-.04.04-.07,0-.02.02-.03.03-.04.02-.02.03-.04.05-.06,0-.01.02-.02.03-.04.02-.02.04-.04.06-.06,0,0,.02-.02.03-.03.03-.03.06-.05.1-.07h.02s.06-.05.09-.06c0,0,0,0,0,0l13.16-5.87v-14.7c0-.51.41-.93.93-.93s.93.41.93.93v14.7l13.16,5.87s0,0,0,0c.03.02.06.03.09.05h.02s.07.06.1.09c0,0,.02.02.03.03.02.02.04.04.06.06.01.01.02.02.03.04.02.02.03.04.05.06,0,.01.02.03.03.04.01.02.02.04.04.07,0,.02.02.03.02.05.01.02.02.05.03.07,0,.02.01.03.02.05,0,.03.01.05.02.08,0,.02,0,.03,0,.04,0,.04,0,.07,0,.11v.02h.02ZM43.52,93.86l10.88,4.99.58.27.58-.27,10.88-4.99-10.53-4.7v4.77c0,.51-.41.93-.93.93s-.93-.41-.93-.93v-4.77l-10.54,4.7ZM42.2,106.56l11.86,5.44v-11.27l-11.86-5.43v11.27h0ZM67.76,106.56v-11.27l-11.86,5.43v11.27l11.86-5.44h0ZM79.22,99.29v4.36c0,.51-.41.93-.93.93h-4.36c-.51,0-.93-.41-.93-.93v-4.36c0-.51.41-.93.93-.93h4.36c.51,0,.93.41.93.93ZM77.37,100.21h-2.5v2.5h2.5v-2.5ZM86.7,99.29v4.36c0,.51-.41.93-.93.93h-4.36c-.51,0-.93-.41-.93-.93v-4.36c0-.51.41-.93.93-.93h4.36c.51,0,.93.41.93.93ZM84.84,100.21h-2.5v2.5h2.5v-2.5ZM86.7,91.76v4.36c0,.51-.41.93-.93.93h-4.36c-.51,0-.93-.41-.93-.93v-4.36c0-.51.41-.93.93-.93h4.36c.51,0,.93.41.93.93ZM84.84,92.68h-2.5v2.5h2.5v-2.5ZM86.7,106.82v4.36c0,.51-.41.93-.93.93h-4.36c-.51,0-.93-.41-.93-.93v-4.36c0-.51.41-.93.93-.93h4.36c.51,0,.93.41.93.93ZM84.84,107.75h-2.5v2.5h2.5v-2.5ZM36.9,99.29v4.36c0,.51-.41.93-.93.93h-4.36c-.51,0-.93-.41-.93-.93v-4.36c0-.51.41-.93.93-.93h4.36c.51,0,.93.41.93.93ZM35.05,100.22h-2.5v2.5h2.5v-2.5ZM29.43,99.29v4.36c0,.51-.41.93-.93.93h-4.36c-.51,0-.93-.41-.93-.93v-4.36c0-.51.41-.93.93-.93h4.36c.51,0,.93.41.93.93ZM27.58,100.22h-2.5v2.5h2.5v-2.5ZM29.43,91.76v4.36c0,.51-.41.93-.93.93h-4.36c-.51,0-.93-.41-.93-.93v-4.36c0-.51.41-.93.93-.93h4.36c.51,0,.93.41.93.93ZM27.58,92.69h-2.5v2.5h2.5v-2.5ZM29.43,106.83v4.36c0,.51-.41.93-.93.93h-4.36c-.51,0-.93-.41-.93-.93v-4.36c0-.51.41-.93.93-.93h4.36c.51,0,.93.41.93.93ZM27.58,107.75h-2.5v2.5h2.5v-2.5Z"/>
</svg>