<?xml version="1.0" encoding="UTF-8"?>
<svg id="Layer_1" xmlns="http://www.w3.org/2000/svg" version="1.1" viewBox="0 0 110 135">
  <!-- Generator: Adobe Illustrator 29.8.2, SVG Export Plug-In . SVG Version: 2.1.1 Build 3)  -->
  <defs>
    <style>
      .st0 {
        stroke: #000;
        stroke-miterlimit: 10;
        stroke-width: .5px;
      }
    </style>
  </defs>
  <path class="st0" d="M95.83,48.63l-6.55,4.41,2.73,7.97c.2.58.02,1.23-.44,1.63-.47.4-1.13.47-1.68.19l-8.1-4.28-8.1,4.28c-.22.12-.46.17-.7.17-.35,0-.7-.12-.98-.36-.47-.4-.64-1.04-.44-1.63l3.11-9.06c.27-.78,1.12-1.2,1.91-.93.78.27,1.2,1.12.93,1.91l-1.88,5.48,5.45-2.88c.44-.23.96-.23,1.4,0l5.45,2.88-1.88-5.48c-.22-.64.02-1.35.58-1.73l4.52-3.04-5.53-1.1c-.45-.09-.83-.38-1.04-.79l-2.81-5.48-2.81,5.48c-.38.74-1.28,1.03-2.02.65-.74-.38-1.03-1.28-.65-2.02l4.14-8.08c.26-.5.77-.82,1.33-.82s1.08.31,1.33.82l3.81,7.44,8.35,1.66c.59.12,1.06.58,1.18,1.18.15.57-.1,1.18-.6,1.52h0ZM17.97,61.01c-.2.58-.02,1.23.44,1.63.47.4,1.13.47,1.68.19l8.1-4.28,8.1,4.28c.22.12.46.17.7.17.35,0,.7-.12.98-.36.47-.4.64-1.04.44-1.63l-3.11-9.06c-.27-.78-1.12-1.2-1.91-.93-.78.27-1.2,1.12-.93,1.91l1.88,5.48-5.45-2.88c-.44-.23-.96-.23-1.4,0l-5.45,2.88,1.88-5.48c.22-.64-.02-1.35-.58-1.73l-4.52-3.04,5.53-1.1c.45-.09.83-.38,1.04-.79l2.81-5.48,2.81,5.48c.38.74,1.28,1.03,2.02.65.74-.38,1.03-1.28.65-2.02l-4.14-8.08c-.26-.5-.77-.82-1.33-.82s-1.08.31-1.33.82l-3.81,7.44-8.35,1.66c-.59.12-1.06.58-1.18,1.18-.12.59.13,1.2.63,1.54l6.55,4.41-2.76,7.95ZM40.98,94h-11.98c-6.34,0-11.51,5.16-11.51,11.51v1.99c0,.83.67,1.5,1.5,1.5s1.5-.67,1.5-1.5v-1.99c0-4.69,3.82-8.51,8.51-8.51h11.99c4.69,0,8.51,3.82,8.51,8.51v1.99c0,.83.67,1.5,1.5,1.5s1.5-.67,1.5-1.5v-1.99c-.01-6.35-5.17-11.51-11.52-11.51h0ZM34.99,68c6.34,0,11.5,5.16,11.5,11.5s-5.16,11.5-11.5,11.5-11.5-5.16-11.5-11.5,5.16-11.5,11.5-11.5ZM34.99,71c-4.69,0-8.5,3.81-8.5,8.5s3.81,8.5,8.5,8.5,8.5-3.81,8.5-8.5-3.81-8.5-8.5-8.5ZM80.98,94h-11.98c-6.34,0-11.51,5.16-11.51,11.51v1.99c0,.83.67,1.5,1.5,1.5s1.5-.67,1.5-1.5v-1.99c0-4.69,3.82-8.51,8.51-8.51h11.99c4.69,0,8.51,3.82,8.51,8.51v1.99c0,.83.67,1.5,1.5,1.5s1.5-.67,1.5-1.5v-1.99c-.01-6.35-5.17-11.51-11.52-11.51h0ZM74.99,68c6.34,0,11.5,5.16,11.5,11.5s-5.16,11.5-11.5,11.5-11.5-5.16-11.5-11.5,5.16-11.5,11.5-11.5ZM66.49,79.5c0,4.69,3.81,8.5,8.5,8.5s8.5-3.81,8.5-8.5-3.81-8.5-8.5-8.5-8.5,3.81-8.5,8.5ZM66.28,62.81l-11.28-6.19-11.28,6.2c-.54.3-1.21.23-1.68-.16s-.66-1.04-.47-1.62l3.89-11.78-9.32-6.52c-.49-.34-.73-.95-.61-1.53.12-.59.58-1.04,1.17-1.17l11.64-2.4,5.32-10.79c.25-.53.77-.85,1.34-.85s1.09.32,1.35.84l5.32,10.79,11.64,2.4c.59.12,1.04.58,1.17,1.17.12.59-.12,1.19-.61,1.53l-9.32,6.52,3.89,11.78c.19.59.01,1.23-.47,1.62-.28.23-.62.35-.96.35-.27,0-.52-.06-.73-.2h0ZM64.37,58.35l-3.04-9.22c-.21-.63.02-1.32.56-1.7l7.39-5.17-8.95-1.85c-.45-.09-.84-.39-1.04-.81l-4.3-8.71-4.3,8.72c-.2.41-.59.71-1.04.81l-8.95,1.85,7.39,5.17c.54.38.77,1.07.56,1.7l-3.04,9.22,8.66-4.76c.23-.12.47-.19.72-.19s.5.06.72.19l8.66,4.75Z"/>
</svg>