<?xml version="1.0" encoding="UTF-8"?>
<svg id="Layer_1" xmlns="http://www.w3.org/2000/svg" version="1.1" viewBox="0 0 110 135">
  <!-- Generator: Adobe Illustrator 29.8.2, SVG Export Plug-In . SVG Version: 2.1.1 Build 3)  -->
  <defs>
    <style>
      .st0 {
        stroke: #000;
        stroke-miterlimit: 10;
        stroke-width: .2px;
      }
    </style>
  </defs>
  <path class="st0" d="M38.49,83.87c.52.5.53,1.34.03,1.86l-7.35,7.57c-.26.27-.6.4-.94.4s-.66-.12-.91-.37l-3.69-3.54c-.52-.5-.54-1.33-.04-1.86.5-.52,1.33-.54,1.86-.04l2.75,2.64,6.44-6.63c.5-.52,1.34-.53,1.86-.03h0ZM36.64,69.47l-6.44,6.63-2.75-2.64c-.52-.5-1.35-.48-1.86.04-.5.52-.48,1.35.04,1.86l3.69,3.54c.25.25.58.37.91.37s.68-.13.94-.4l7.35-7.57c.5-.52.49-1.35-.03-1.86-.52-.5-1.35-.49-1.86.03h0ZM34.51,62.46v-21.4c0-1.85,1.5-3.35,3.35-3.35h24.11c1.85,0,3.35,1.5,3.35,3.35v21.4c0,1.85-1.5,3.35-3.35,3.35h-24.11c-1.85,0-3.35-1.5-3.35-3.35ZM46.9,44.4h6.05v-4.06h-6.05v4.06ZM37.13,62.46c0,.39.33.73.73.73h24.11c.39,0,.73-.33.73-.73v-21.4c0-.39-.34-.73-.73-.73h-6.41v4.35c0,1.29-1.05,2.34-2.34,2.34h-6.62c-1.29,0-2.34-1.05-2.34-2.34v-4.35h-6.41c-.39,0-.73.33-.73.73v21.4ZM38.65,59.92v-3.06c0-.96.79-1.75,1.75-1.75h7.75c.96,0,1.75.79,1.75,1.75v3.06c0,.96-.79,1.75-1.75,1.75h-7.75c-.96,0-1.75-.79-1.75-1.75ZM41.27,59.05h6.01v-1.32h-6.01v1.32ZM91.02,87.97v4.46c0,1.47-1.1,2.72-2.57,2.89l-1.7.21c-.35,1.17-.82,2.3-1.39,3.37l1.06,1.35c.91,1.16.81,2.82-.23,3.86l-3.16,3.16c-1.04,1.04-2.7,1.14-3.86.23l-1.35-1.06c-1.07.58-2.2,1.04-3.37,1.39l-.21,1.7c-.18,1.46-1.42,2.56-2.89,2.56h-4.46c-1.47,0-2.72-1.1-2.89-2.56l-.21-1.7c-1.17-.35-2.3-.82-3.37-1.4l-1.35,1.06c-1.16.91-2.82.81-3.86-.23l-3.16-3.16c-1.03-1.03-1.14-2.67-.26-3.83h-29.21c-1.98,0-3.6-1.62-3.6-3.6v-63.39c0-1.98,1.62-3.6,3.6-3.6h14.97v-.26c0-1.54,1.25-2.79,2.79-2.79h4.12v-.67c0-1.7,1.39-3.09,3.09-3.09h4.77c1.7,0,3.09,1.39,3.09,3.09v.67h4.12c1.54,0,2.79,1.25,2.79,2.79v.26h14.97c1.98,0,3.6,1.62,3.6,3.6v.77c.85-.31,1.8-.37,2.74-.12l3.98,1.07c2.44.65,3.89,3.17,3.24,5.61l-8.57,31.97c.27.14.53.32.76.55l3.16,3.16c1.04,1.04,1.14,2.7.23,3.86l-1.06,1.35c.58,1.07,1.04,2.2,1.39,3.37l1.7.21c1.46.18,2.57,1.42,2.57,2.89h-.02ZM78.56,86.42l-.12.43c-.06.22-.18.43-.34.59l-6.6,6.58c-.39.39-.91.61-1.45.61-.18,0-.36-.02-.54-.07-.72-.19-1.27-.74-1.46-1.46l-2.43-9c-.06-.22-.06-.46,0-.68l.81-3.04c-4.34,1.18-7.52,5.18-7.52,9.82,0,5.61,4.57,10.18,10.18,10.18s10.18-4.57,10.18-10.18c0-1.32-.25-2.6-.73-3.79h0ZM74.63,87.19l-5.89-1.58,1.58,5.87,4.3-4.29ZM86.12,48.05l-7.75-2.08-9.88,36.85,7.75,2.07,9.88-36.85h0ZM80.54,37.86l-1.5,5.58,7.75,2.08,1.5-5.58c.28-1.04-.34-2.11-1.38-2.39l-3.98-1.07c-1.04-.28-2.11.34-2.39,1.38h0ZM40.16,32.58c0,.09.08.17.17.17h19.19c.09,0,.17-.08.17-.17v-3.14c0-.09-.08-.17-.17-.17h-5.44c-.73,0-1.31-.59-1.31-1.31v-1.98c0-.25-.21-.46-.46-.46h-4.77c-.25,0-.46.21-.46.46v1.98c0,.73-.59,1.31-1.31,1.31h-5.44c-.09,0-.17.08-.17.17v3.14h0ZM22.56,97.67h29.68c-.31-.69-.57-1.4-.79-2.13l-1.7-.21c-1.33-.16-2.36-1.21-2.54-2.51h-4.3c-.73,0-1.31-.59-1.31-1.31s.59-1.31,1.31-1.31h4.27v-2.23c0-.35.06-.68.18-.99h-4.45c-.73,0-1.31-.59-1.31-1.31s.59-1.31,1.31-1.31h8.7c.33-.98.74-1.94,1.23-2.86l-1.06-1.35c-.4-.52-.61-1.13-.62-1.75h-8.26c-.73,0-1.31-.59-1.31-1.31s.59-1.31,1.31-1.31h9.62l2.64-2.64c.24-.24.52-.43.82-.57h-13.09c-.73,0-1.31-.59-1.31-1.31s.59-1.31,1.31-1.31h21.33c.48-.98,1.48-1.64,2.62-1.64h2.8l8.34-31.11c.06-.24.14-.46.24-.68v-3.2c0-.54-.44-.98-.98-.98h-14.97v.26c0,1.54-1.25,2.79-2.79,2.79h-19.19c-1.54,0-2.79-1.25-2.79-2.79v-.26h-14.97c-.54,0-.98.44-.98.98v63.39c0,.54.44.98.98.98h0ZM58.49,72.56c.19.09.38.2.55.34l1.35,1.06c1.07-.57,2.2-1.04,3.37-1.39h-5.27ZM88.39,87.97c0-.15-.11-.27-.26-.29l-2.57-.31c-.54-.07-.98-.46-1.11-.98-.38-1.52-.98-2.98-1.79-4.32-.28-.46-.25-1.06.09-1.48l1.6-2.04c.09-.12.09-.28-.02-.39l-2.8-2.8-1.99,7.43c1.55,2.18,2.38,4.73,2.38,7.43,0,7.06-5.74,12.81-12.81,12.81s-12.81-5.74-12.81-12.81c0-6.34,4.71-11.73,10.9-12.66l1.78-6.63h-2.1c-.15,0-.26.1-.29.24,0,.03,0,.06,0,.09,0,.15-.02.29-.07.42l-.25,2.08c-.07.54-.46.98-.98,1.11-1.52.38-2.98.98-4.32,1.79-.46.28-1.06.25-1.48-.09l-2.04-1.6c-.12-.09-.28-.09-.39.02l-3.16,3.16c-.11.11-.12.27-.02.39l1.6,2.04c.34.43.37,1.02.09,1.48-.81,1.35-1.41,2.8-1.79,4.32-.13.53-.57.92-1.11.98l-2.57.31c-.15.02-.26.14-.26.29v4.46c0,.15.11.27.26.29l2.57.31c.54.07.98.46,1.11.98.38,1.52.98,2.98,1.79,4.32.28.46.25,1.06-.09,1.48l-1.6,2.04c-.09.12-.09.28.02.39l3.16,3.16c.11.11.27.12.39.02l2.04-1.6c.43-.34,1.02-.37,1.48-.09,1.35.81,2.8,1.41,4.32,1.79.53.13.92.57.98,1.11l.31,2.57c.02.15.14.26.29.26h4.46c.15,0,.27-.11.29-.26l.31-2.57c.07-.54.46-.98.98-1.11,1.52-.38,2.98-.98,4.32-1.79.46-.28,1.06-.25,1.48.09l2.04,1.6c.12.09.28.09.39-.02l3.16-3.16c.11-.11.12-.27.02-.39l-1.6-2.04c-.34-.43-.37-1.02-.09-1.48.81-1.35,1.41-2.8,1.79-4.32.13-.53.57-.92,1.11-.98l2.57-.31c.15-.02.26-.14.26-.29v-4.46h.01Z"/>
</svg>