<?xml version="1.0" encoding="UTF-8"?>
<svg id="Layer_1" xmlns="http://www.w3.org/2000/svg" version="1.1" viewBox="0 0 110 135">
  <!-- Generator: Adobe Illustrator 29.8.2, SVG Export Plug-In . SVG Version: 2.1.1 Build 3)  -->
  <defs>
    <style>
      .st0 {
        fill-rule: evenodd;
        stroke: #000;
        stroke-miterlimit: 10;
        stroke-width: 1.2px;
      }
    </style>
  </defs>
  <path class="st0" d="M22.23,73.49c3.89,0,7.4,1.59,9.95,4.14,2.57,2.57,4.15,6.1,4.15,9.96h0c-.04,12.82-13.1,23.87-13.14,23.9-.43.37-1.07.36-1.49,0-.34-.29-13.58-11.66-13.58-23.9,0-3.89,1.58-7.42,4.13-9.98,2.55-2.55,6.08-4.13,9.98-4.13h0ZM35.32,34.52s-.06.05-.09.08c-.08.06-.16.11-.25.15-.92.62-1.78,1.32-2.57,2.09-.07.11-.16.21-.27.3-.03.02-.06.05-.09.07-3.22,3.31-5.21,7.83-5.21,12.82s2.06,9.68,5.39,13,7.93,5.39,13,5.39,9.68-2.06,13-5.39c3.33-3.33,5.39-7.93,5.39-13,0-1.77-.25-3.48-.71-5.09-.44-1.52-1.06-2.95-1.85-4.28-1.37-.36-2.59-1.07-3.56-2.04-1.06-1.06-1.82-2.41-2.13-3.93-1.41-.93-2.96-1.68-4.61-2.2-1.04-.33-2.13-.57-3.24-.7-.02,0-.05,0-.07,0-.72-.09-1.46-.13-2.21-.13-3.65,0-7.04,1.05-9.9,2.89h0ZM32.89,33.42c-.46.34-.91.71-1.34,1.09l-1.11-1.43c-.12-.16-.17-.35-.14-.53.02-.18.11-.35.27-.47l.23-.18c.16-.12.35-.17.53-.14.18.02.35.11.47.27l1.08,1.4ZM29.92,36.12l-1.28-1.65c-.5-.65-.7-1.45-.6-2.21.1-.76.48-1.48,1.14-1.99l.23-.18c.65-.5,1.45-.7,2.21-.6.76.1,1.48.48,1.99,1.14l1.19,1.53c2.09-1.23,4.42-2.09,6.9-2.52v-2.31h-.64c-.89,0-1.71-.36-2.3-.95s-.95-1.4-.95-2.3.37-1.71.95-2.3c.59-.59,1.4-.95,2.3-.95h8.32c.89,0,1.71.37,2.3.95.59.59.95,1.4.95,2.3s-.37,1.71-.95,2.3c-.59.59-1.4.95-2.3.95h-.63v2.3c.91.16,1.8.38,2.67.65,1.34.42,2.63.98,3.84,1.66.24-1.72,1.05-3.27,2.22-4.44,1.42-1.42,3.38-2.3,5.55-2.3s4.13.88,5.55,2.3,2.3,3.38,2.3,5.55-.88,4.13-2.3,5.55c-1.26,1.26-2.94,2.09-4.82,2.27.54,1.09.99,2.24,1.33,3.43.52,1.82.8,3.74.8,5.72,0,5.71-2.32,10.88-6.05,14.62-3.74,3.74-8.91,6.05-14.62,6.05s-10.88-2.32-14.62-6.05c-3.74-3.74-6.05-8.91-6.05-14.62,0-5.35,2.02-10.22,5.36-13.9h0ZM59.25,33.29c-.4-.48-.33-1.2.16-1.6.49-.4,1.2-.33,1.6.16l1.22,1.48,2.88-3.05c.43-.46,1.15-.48,1.61-.05.46.43.48,1.15.05,1.61l-3.76,4s-.07.07-.11.1c-.48.4-1.2.33-1.6-.16l-2.05-2.48ZM30.38,51.15c-.63,0-1.14-.51-1.14-1.14s.51-1.14,1.14-1.14h1.13c.63,0,1.14.51,1.14,1.14s-.51,1.14-1.14,1.14h-1.13ZM46.37,64.86c0,.63-.51,1.14-1.14,1.14s-1.14-.51-1.14-1.14v-1.13c0-.63.51-1.14,1.14-1.14s1.14.51,1.14,1.14v1.13ZM60.07,48.87c.63,0,1.14.51,1.14,1.14s-.51,1.14-1.14,1.14h-1.13c-.63,0-1.14-.51-1.14-1.14s.51-1.14,1.14-1.14h1.13ZM44.08,35.16c0-.63.51-1.14,1.14-1.14s1.14.51,1.14,1.14v1.13c0,.63-.51,1.14-1.14,1.14s-1.14-.51-1.14-1.14v-1.13ZM48.19,48.86c.21.55.27,1.14.17,1.7-.14.8-.59,1.55-1.31,2.05-.64.45-1.39.63-2.11.57l-2.32,4.75c-.28.57-.96.8-1.52.52-.57-.28-.8-.96-.52-1.52l2.33-4.75c-.1-.11-.19-.22-.28-.34-.5-.72-.67-1.57-.53-2.37.14-.8.59-1.55,1.31-2.05.72-.5,1.57-.67,2.37-.53.3.05.61.15.89.3l6.38-5.79c.46-.42,1.19-.39,1.61.08.42.46.39,1.19-.08,1.61l-6.37,5.78ZM46.11,50.17c-.04.23-.16.44-.36.58-.2.14-.45.19-.68.15-.23-.04-.44-.16-.58-.36-.14-.2-.19-.45-.15-.68.04-.23.16-.44.36-.58.2-.14.45-.19.68-.15.23.04.44.16.58.36.14.2.19.45.15.68ZM66.96,29.12c1,1,1.63,2.39,1.63,3.93s-.62,2.93-1.63,3.93c-1,1-2.39,1.63-3.93,1.63s-2.93-.62-3.93-1.63c-1-1-1.63-2.39-1.63-3.93s.62-2.93,1.63-3.93c1-1,2.39-1.63,3.93-1.63s2.93.62,3.93,1.63ZM43.98,29.37c.41-.02.82-.04,1.24-.04s.83.01,1.24.04v-2.04h-2.48v2.04ZM40.39,23.4c-.18.18-.29.41-.29.68s.11.5.29.68.41.29.68.29h8.31c.26,0,.5-.11.68-.29.18-.18.29-.41.29-.68s-.11-.5-.29-.68-.41-.29-.68-.29h-8.32c-.26,0-.5.11-.68.29h0ZM92.76,62.66c0-.65-.55-1.18-1.2-1.14-.61.03-1.09.54-1.09,1.14v4.57c0,.65.55,1.18,1.2,1.14.61-.03,1.09-.54,1.09-1.14v-4.57ZM85.12,95.57c-.65,0-1.18.55-1.14,1.2.03.61.54,1.09,1.14,1.09h3.88v-2.29h-3.88ZM92.76,74.09c0-.65-.55-1.18-1.2-1.14-.61.03-1.09.54-1.09,1.14v.71c0,1.1-.29,2.14-.85,3.09-.47.8.14,1.79,1.07,1.73.38-.03.7-.23.89-.55.78-1.3,1.17-2.75,1.18-4.26v-.72s0,0,0,0ZM85.1,83.14c.7-.06,1.18-.73,1.02-1.41-.14-.55-.64-.91-1.2-.87-1.46.12-3.02.02-4.48.02-.65,0-1.18.55-1.14,1.2.03.61.54,1.09,1.14,1.09,1.51,0,3.14.1,4.66-.03h0ZM73.58,83.17c.65,0,1.18-.55,1.14-1.2-.03-.61-.54-1.09-1.14-1.09h-4.57c-.65,0-1.18.55-1.14,1.2.03.61.54,1.09,1.14,1.09h4.57ZM63.58,85.02c.64-.68.25-1.8-.68-1.92-.36-.05-.73.08-.98.34-1.24,1.3-2.03,2.91-2.27,4.69-.1.81.64,1.46,1.43,1.25.45-.13.77-.5.83-.96h0c.18-1.3.75-2.46,1.66-3.4h0ZM63.63,93.77c-.69-.68-1.85-.27-1.95.7-.03.35.09.67.33.92,1.27,1.27,2.86,2.09,4.64,2.37.81.12,1.48-.61,1.29-1.4-.12-.45-.47-.79-.94-.86-1.29-.21-2.45-.81-3.37-1.73h0ZM73.68,95.57c-.65,0-1.18.55-1.14,1.2.03.61.54,1.09,1.14,1.09h4.57c.65,0,1.18-.55,1.14-1.2-.03-.61-.54-1.09-1.14-1.09h-4.57ZM96.23,99.75c-.48-.82-1.69-.74-2.05.14-.13.33-.11.69.07,1,.54.93.82,1.96.82,3.04v.79c0,.65.55,1.18,1.2,1.14.61-.03,1.09-.54,1.09-1.14v-.79c0-1.48-.38-2.89-1.12-4.18h0ZM94.81,111.8c.39-.38.46-.98.17-1.44-.39-.61-1.23-.71-1.76-.2-.93.9-2.11,1.49-3.4,1.66-.87.12-1.29,1.13-.75,1.84.25.32.65.49,1.05.43,1.77-.24,3.4-1.04,4.68-2.29h0ZM83.12,114.16c.65,0,1.18-.55,1.14-1.2-.03-.61-.54-1.09-1.14-1.09h-4.57c-.65,0-1.18.55-1.14,1.2.03.61.54,1.09,1.14,1.09h4.57ZM71.68,114.16c.65,0,1.18-.55,1.14-1.2-.03-.61-.54-1.09-1.14-1.09h-4.57c-.65,0-1.18.55-1.14,1.2.03.61.54,1.09,1.14,1.09h4.57ZM60.25,114.16c.65,0,1.18-.55,1.14-1.2-.03-.61-.54-1.09-1.14-1.09h-4.57c-.65,0-1.18.55-1.14,1.2.03.61.54,1.09,1.14,1.09h4.57ZM48.81,114.16c.65,0,1.18-.55,1.14-1.2-.03-.61-.54-1.09-1.14-1.09h-4.57c-.65,0-1.18.55-1.14,1.21.03.61.54,1.09,1.14,1.09h4.57ZM37.38,114.16c.65,0,1.18-.55,1.14-1.2-.03-.61-.54-1.09-1.14-1.09h-4.57c-.65,0-1.18.55-1.14,1.2.03.61.54,1.09,1.14,1.09h4.57ZM90.72,28.24c1.36,0,2.6.55,3.5,1.45.89.89,1.45,2.13,1.45,3.5s-.55,2.6-1.45,3.5c-.89.89-2.13,1.45-3.5,1.45s-2.6-.55-3.5-1.45c-.89-.89-1.45-2.13-1.45-3.5s.55-2.6,1.45-3.5c.89-.89,2.13-1.45,3.5-1.45ZM92.6,31.31c-.48-.48-1.14-.78-1.88-.78s-1.4.3-1.88.78c-.48.48-.78,1.14-.78,1.88s.3,1.4.78,1.88c.48.48,1.14.78,1.88.78s1.4-.3,1.88-.78c.48-.48.78-1.14.78-1.88s-.3-1.4-.78-1.88ZM90.72,22.13c-3.08,0-5.87,1.25-7.89,3.27s-3.27,4.81-3.27,7.89c0,9.54,10.25,18.38,10.58,18.66.42.37,1.05.38,1.49,0,.03-.02,10.21-8.64,10.24-18.67h0c0-3.05-1.26-5.86-3.29-7.88-2.02-2.02-4.8-3.28-7.88-3.28h0ZM96.98,27.02c-1.61-1.61-3.82-2.61-6.26-2.61s-4.67.99-6.27,2.6c-1.61,1.61-2.6,3.82-2.6,6.27,0,7.18,6.76,14.13,9.04,16.27,2.22-2.1,8.68-8.83,8.71-16.27h0c0-2.42-1-4.65-2.62-6.27ZM22.23,80.32c-1.97,0-3.76.8-5.05,2.09-1.29,1.29-2.09,3.08-2.09,5.05s.8,3.76,2.09,5.05c1.29,1.29,3.08,2.09,5.05,2.09s3.76-.8,5.05-2.09c1.29-1.29,2.09-3.08,2.09-5.05s-.8-3.76-2.09-5.05c-1.29-1.29-3.08-2.09-5.05-2.09ZM25.67,84.03c-.88-.88-2.09-1.42-3.43-1.42s-2.55.54-3.43,1.42-1.42,2.09-1.42,3.43.54,2.55,1.42,3.43c.88.88,2.09,1.42,3.43,1.42s2.55-.54,3.43-1.42c.88-.88,1.42-2.09,1.42-3.43s-.54-2.55-1.42-3.43ZM30.57,79.25c-2.14-2.14-5.09-3.47-8.34-3.47s-6.22,1.32-8.36,3.46c-2.14,2.14-3.46,5.09-3.46,8.36,0,9.68,9.32,18.99,12.04,21.51,2.66-2.46,11.57-11.49,11.6-21.51h0c0-3.23-1.34-6.2-3.49-8.35h0Z"/>
</svg>