<?xml version="1.0" encoding="UTF-8"?>
<svg id="Layer_1" xmlns="http://www.w3.org/2000/svg" version="1.1" viewBox="0 0 98 122.5">
  <!-- Generator: Adobe Illustrator 29.8.2, SVG Export Plug-In . SVG Version: 2.1.1 Build 3)  -->
  <path d="M17.88,18.95c.37-.64,1.2-.86,1.84-.49l5.27,3.04c.65.37.87,1.2.49,1.84-.25.43-.7.67-1.17.67-.23,0-.46-.06-.67-.18l-5.27-3.04c-.64-.37-.86-1.2-.49-1.84ZM14.39,38.37h6.09c.75,0,1.35-.6,1.35-1.35s-.6-1.35-1.35-1.35h-6.09c-.74,0-1.35.6-1.35,1.35,0,.75.6,1.35,1.35,1.35ZM23.65,50.2l-5.27,3.04c-.65.37-.87,1.2-.49,1.84.25.43.7.67,1.17.67.23,0,.46-.06.67-.18l5.27-3.04c.65-.37.87-1.2.49-1.84-.37-.64-1.2-.86-1.84-.49ZM74.04,24.02c.23,0,.46-.06.67-.18l5.27-3.04c.64-.37.87-1.2.49-1.84-.37-.64-1.2-.87-1.84-.49l-5.27,3.04c-.64.37-.87,1.2-.49,1.84.25.43.7.67,1.17.67ZM83.97,35.67h-6.09c-.74,0-1.35.6-1.35,1.35s.6,1.35,1.35,1.35h6.09c.74,0,1.35-.6,1.35-1.35s-.6-1.35-1.35-1.35ZM79.98,53.25l-5.27-3.04c-.64-.37-1.47-.15-1.84.49-.37.65-.15,1.47.49,1.84l5.27,3.04c.21.12.44.18.67.18.47,0,.92-.24,1.17-.67.37-.64.15-1.47-.49-1.84ZM74.52,82.76c.69,1.2.88,2.6.51,3.94s-1.22,2.46-2.42,3.16l-25.45,14.7c-1.31.75-2.68,1.13-4.09,1.13-.73,0-1.47-.1-2.22-.3-.84-.23-1.63-.45-2.4-.67-4.11-1.17-7.17-2.04-11.94-1.04.15,1.08-.52,2.13-1.6,2.42l-3.39.91c-.19.05-.38.07-.57.07-.38,0-.75-.1-1.09-.29-.51-.29-.87-.76-1.02-1.33l-6.08-22.69c-.15-.56-.07-1.15.22-1.66.29-.51.77-.87,1.33-1.02l3.39-.91c1.17-.31,2.37.38,2.68,1.55h0l.06.21c2.01-.41,3.73-1.05,5.27-1.63,2.92-1.1,5.45-2.04,8.02-.56l6.15,3.55c1.51.87,3.07,1.08,4.75.63l3.2-.86v-3.83c-3.61-.5-6.58-3.01-7.61-6.44h-2.22c-1.67,0-3.03-1.36-3.03-3.03v-3.13c0-.62.19-1.2.51-1.69-.32-.48-.51-1.06-.51-1.69v-3.13c0-1.21.71-2.25,1.74-2.74-.43-.63-.97-1.31-1.68-2.12-4.88-5.52-7.45-11.82-7.45-18.2,0-5.49,2.25-10.65,6.34-14.55,4.06-3.87,9.47-6.04,15.24-6.11h.03c5.77.07,11.18,2.24,15.24,6.11,4.09,3.89,6.34,9.06,6.34,14.55,0,6.38-2.58,12.67-7.45,18.2-.71.8-1.25,1.48-1.68,2.12,1.03.49,1.74,1.53,1.74,2.74v3.13c0,.62-.19,1.2-.51,1.69.32.48.51,1.06.51,1.69v3.13c0,1.67-1.36,3.03-3.03,3.03h-2.21c-1.03,3.43-4,5.93-7.61,6.44v3.26c2.68-.11,5.17,1.65,5.9,4.34.11.42.17.84.19,1.26l10.8-6.24c1.2-.69,2.6-.88,3.94-.51,1.34.36,2.46,1.22,3.16,2.42ZM38.01,62.6h22.34c.18,0,.34-.15.34-.34v-3.13c0-.18-.15-.34-.34-.34h-22.34c-.18,0-.34.15-.34.34v3.13c0,.18.16.34.34.34ZM37.06,52.49c1.23,1.39,2.03,2.49,2.62,3.61h19.01c.59-1.11,1.39-2.21,2.62-3.61,4.43-5.02,6.78-10.7,6.78-16.41,0-9.77-8.48-17.83-18.9-17.96-10.42.14-18.9,8.19-18.9,17.96,0,5.71,2.34,11.39,6.78,16.41ZM38.01,69.1h22.34c.18,0,.34-.15.34-.34v-3.13c0-.18-.15-.34-.34-.34h-22.34c-.18,0-.34.15-.34.34v3.13c0,.18.16.34.34.34ZM49.18,75.63c2.7,0,5.05-1.54,6.09-3.83h-12.17c1.04,2.29,3.38,3.83,6.09,3.83ZM17.78,81.42h0ZM23.72,103.62l-5.82-21.71-2.42.65,5.82,21.71,2.42-.65ZM72.19,84.1c-.33-.57-.87-.99-1.52-1.16-.65-.17-1.32-.09-1.9.25l-13.34,7.7c-.76,1-1.85,1.78-3.15,2.13l-6.74,1.81c-.8.21-1.6.32-2.39.32s-1.49-.1-2.21-.29c-.72-.19-1.14-.93-.95-1.65s.94-1.14,1.65-.95c1.02.27,2.09.26,3.19-.03l6.74-1.81c.74-.2,1.35-.65,1.76-1.23.01-.02.02-.04.04-.06.5-.74.69-1.67.44-2.59-.45-1.69-2.19-2.69-3.88-2.24l-4.61,1.24c-2.38.64-4.67.34-6.8-.89l-6.15-3.55c-1.41-.81-2.93-.3-5.72.75-1.53.57-3.37,1.26-5.52,1.72l4.69,17.52c5.49-1.19,9-.19,13.36,1.06.75.21,1.53.44,2.36.66,1.51.41,2.91.22,4.27-.56l25.45-14.7c.57-.33.99-.87,1.16-1.52.17-.65.09-1.32-.25-1.9ZM38.24,46.35h-1.95c-.74,0-1.35-.6-1.35-1.35s.6-1.35,1.35-1.35h1.61l1.54-.84v-.73l-.45.3c-.22.15-.48.22-.74.22h-1.95c-.74,0-1.35-.6-1.35-1.35s.6-1.35,1.35-1.35h1.55l1.6-1.05v-.5h-3.15c-.74,0-1.35-.6-1.35-1.35s.6-1.35,1.35-1.35h3.15v-.5l-1.6-1.05h-1.55c-.74,0-1.35-.6-1.35-1.35s.6-1.35,1.35-1.35h1.95c.26,0,.52.08.74.22l.45.3v-.73l-1.54-.84h-1.61c-.74,0-1.35-.6-1.35-1.35s.6-1.35,1.35-1.35h1.95c.23,0,.45.06.65.17l.74.41c.17-.34.45-.62.79-.79l-.41-.74c-.11-.2-.17-.42-.17-.65v-1.95c0-.74.6-1.35,1.35-1.35s1.35.6,1.35,1.35v1.61l.85,1.54h.73l-.3-.45c-.15-.22-.22-.48-.22-.74v-1.95c0-.74.6-1.35,1.35-1.35s1.35.6,1.35,1.35v1.55l1.05,1.6h.5v-3.15c0-.74.6-1.35,1.35-1.35s1.35.6,1.35,1.35v3.15h.5l1.05-1.6v-1.55c0-.74.6-1.35,1.35-1.35s1.35.6,1.35,1.35v1.95c0,.26-.08.52-.22.74l-.3.45h.73l.85-1.54v-1.61c0-.74.6-1.35,1.35-1.35s1.35.6,1.35,1.35v1.95c0,.23-.06.45-.17.65l-.41.74c.34.17.62.45.79.79l.74-.41c.2-.11.42-.17.65-.17h1.95c.74,0,1.35.6,1.35,1.35s-.6,1.35-1.35,1.35h-1.61l-1.54.84v.73l.45-.3c.22-.15.48-.22.74-.22h1.95c.74,0,1.35.6,1.35,1.35s-.6,1.35-1.35,1.35h-1.55l-1.6,1.05v.5h3.15c.74,0,1.35.6,1.35,1.35s-.6,1.35-1.35,1.35h-3.15v.5l1.6,1.05h1.55c.74,0,1.35.6,1.35,1.35s-.6,1.35-1.35,1.35h-1.95c-.26,0-.52-.08-.74-.22l-.45-.3v.73l1.54.84h1.61c.74,0,1.35.6,1.35,1.35s-.6,1.35-1.35,1.35h-1.95c-.23,0-.45-.06-.65-.17l-.74-.41c-.17.34-.45.62-.79.79l.41.74c.11.2.17.42.17.65v1.95c0,.74-.6,1.35-1.35,1.35s-1.35-.6-1.35-1.35v-1.61l-.85-1.54h-.73l.3.45c.15.22.22.48.22.74v1.95c0,.74-.6,1.35-1.35,1.35s-1.35-.6-1.35-1.35v-1.55l-1.05-1.6h-.5v3.15c0,.74-.6,1.35-1.35,1.35s-1.35-.6-1.35-1.35v-3.15h-.5l-1.05,1.6v1.55c0,.74-.6,1.35-1.35,1.35s-1.35-.6-1.35-1.35v-1.95c0-.26.08-.52.22-.74l.3-.45h-.73l-.85,1.54v1.61c0,.74-.6,1.35-1.35,1.35s-1.35-.6-1.35-1.35v-1.95c0-.23.06-.45.17-.65l.41-.74c-.34-.17-.62-.45-.79-.79l-.74.41c-.2.11-.42.17-.65.17ZM42.13,29.94v14.13h14.13v-14.13h-14.13ZM42.86,41.99v-7.68c0-.36.14-.7.4-.95l2.29-2.29c.25-.25.6-.4.95-.4h7.68c.74,0,1.35.6,1.35,1.35v9.97c0,.75-.6,1.35-1.35,1.35h-9.97c-.74,0-1.35-.6-1.35-1.35ZM45.56,40.64h7.27v-7.27h-5.77l-1.5,1.5v5.77h0Z"/>
</svg>