<?xml version="1.0" encoding="UTF-8"?>
<svg id="Layer_1" xmlns="http://www.w3.org/2000/svg" version="1.1" viewBox="0 0 110 135">
  <!-- Generator: Adobe Illustrator 29.8.2, SVG Export Plug-In . SVG Version: 2.1.1 Build 3)  -->
  <defs>
    <style>
      .st0 {
        stroke: #000;
        stroke-miterlimit: 10;
      }
    </style>
  </defs>
  <path class="st0" d="M42.62,56.06c0-1.04-.84-1.88-1.88-1.88h-5.7c-1.04,0-1.88.84-1.88,1.88v19.15c0,1.04.84,1.88,1.88,1.88h5.7c1.04,0,1.88-.84,1.88-1.88v-19.15ZM40.94,75.21c0,.11-.1.21-.21.21h-5.7c-.11,0-.21-.1-.21-.21v-19.15c0-.11.1-.21.21-.21h5.7c.11,0,.21.1.21.21v19.15ZM23.49,77.09h5.7c1.04,0,1.88-.84,1.88-1.88v-8.12c0-1.04-.84-1.88-1.88-1.88h-5.7c-1.04,0-1.88.84-1.88,1.88v8.12c0,1.04.84,1.88,1.88,1.88ZM23.28,67.09c0-.11.1-.21.21-.21h5.7c.11,0,.21.1.21.21v8.12c0,.11-.1.21-.21.21h-5.7c-.11,0-.21-.1-.21-.21v-8.12ZM26.34,59.87c1.84,0,3.34-1.5,3.34-3.34,0-.59-.17-1.14-.44-1.62l6.88-6.57c.51.32,1.11.51,1.76.51,1.02,0,1.92-.46,2.53-1.18l5.5,2.68c-.04.21-.07.44-.07.67,0,1.84,1.5,3.34,3.34,3.34s3.34-1.5,3.34-3.34c0-.6-.17-1.15-.45-1.64l6.79-6.55c.51.31,1.1.5,1.74.5,1.84,0,3.34-1.5,3.34-3.34s-1.5-3.34-3.34-3.34-3.34,1.5-3.34,3.34c0,.6.17,1.15.45,1.64l-6.79,6.55c-.51-.31-1.1-.5-1.74-.5-1.02,0-1.92.46-2.53,1.18l-5.5-2.68c.04-.21.07-.44.07-.67,0-1.84-1.5-3.34-3.34-3.34s-3.34,1.5-3.34,3.34c0,.59.17,1.14.44,1.62l-6.88,6.57c-.51-.32-1.11-.51-1.76-.51-1.84,0-3.34,1.5-3.34,3.34,0,1.84,1.5,3.34,3.34,3.34ZM60.62,38.32c.92,0,1.68.75,1.68,1.68s-.75,1.68-1.68,1.68-1.68-.75-1.68-1.68.75-1.68,1.68-1.68ZM49.19,49.34c.92,0,1.68.75,1.68,1.68s-.75,1.68-1.68,1.68-1.68-.75-1.68-1.68.75-1.68,1.68-1.68ZM37.88,43.83c.92,0,1.68.75,1.68,1.68s-.75,1.68-1.68,1.68-1.68-.75-1.68-1.68.75-1.68,1.68-1.68ZM26.34,54.85c.92,0,1.68.75,1.68,1.68s-.75,1.68-1.68,1.68-1.68-.75-1.68-1.68.75-1.68,1.68-1.68ZM42.79,81.94h4.15c.46,0,.84.38.84.84s-.38.84-.84.84h-4.15c-.46,0-.84-.38-.84-.84s.38-.84.84-.84ZM20.77,82.78c0-.46.38-.84.84-.84h16.6c.46,0,.84.38.84.84s-.38.84-.84.84h-16.6c-.46,0-.84-.38-.84-.84ZM20.77,88.06c0-.46.38-.84.84-.84h5.28c.46,0,.84.38.84.84s-.38.84-.84.84h-5.28c-.46,0-.84-.38-.84-.84ZM49.57,88.06c0,.46-.38.84-.84.84h-17.27c-.46,0-.84-.38-.84-.84s.38-.84.84-.84h17.27c.46,0,.84.38.84.84ZM33.74,93.35c0,.46-.38.84-.84.84h-11.3c-.46,0-.84-.38-.84-.84s.37-.84.84-.84h11.3c.46,0,.84.38.84.84ZM43.8,93.35c0,.46-.38.84-.84.84h-5.48c-.46,0-.84-.38-.84-.84s.38-.84.84-.84h5.48c.46,0,.84.38.84.84ZM94.66,100.89l-7.5-7.5c-.52-.52-1.22-.81-1.96-.81-.2,0-.4.03-.6.07l-4.13-4.13c1.93-2.77,3.07-6.14,3.07-9.76,0-7.16-4.41-13.3-10.65-15.86v-31.52c0-2.57-2.09-4.67-4.67-4.67H28c-.22,0-.43.09-.59.25l-13.09,13.08c-.16.16-.25.37-.25.59v58.84c0,2.57,2.09,4.67,4.67,4.67h49.46c2.57,0,4.67-2.09,4.67-4.67v-4.84c1.16-.48,2.25-1.07,3.27-1.78l4.13,4.13c-.04.2-.07.39-.07.6,0,.74.29,1.44.81,1.96l7.5,7.5c.84.84,1.96,1.27,3.07,1.27s2.22-.42,3.07-1.27c.82-.82,1.27-1.91,1.27-3.07s-.45-2.25-1.27-3.07h0ZM81.86,78.75c0,8.54-6.94,15.48-15.48,15.48s-15.48-6.94-15.48-15.48,6.94-15.48,15.48-15.48,15.48,6.94,15.48,15.48ZM49.57,75.42h-3.23c-.11,0-.21-.1-.21-.21v-13.64c0-.11.1-.21.21-.21h5.7c.11,0,.21.1.21.21v7.49c-1.3,1.88-2.23,4.04-2.69,6.36h0ZM63.68,61.84c-2.21.35-4.28,1.12-6.12,2.24v-13.53c0-.11.09-.21.21-.21h5.7c.11,0,.21.1.21.21v11.29ZM27.16,29.55v7.23c0,1.66-1.35,3-3,3h-7.23l10.23-10.23ZM71.21,99.46c0,1.66-1.35,3-3,3H18.75c-1.66,0-3-1.34-3-3v-58.01h8.41c2.57,0,4.67-2.09,4.67-4.67v-8.41h39.37c1.66,0,3,1.35,3,3v30.93c-1.53-.45-3.15-.7-4.82-.7-.35,0-.69.03-1.04.05v-11.1c0-1.04-.84-1.88-1.88-1.88h-5.7c-1.04,0-1.88.84-1.88,1.88v14.68c-.7.54-1.36,1.14-1.96,1.79v-5.44c0-1.04-.84-1.88-1.88-1.88h-5.7c-1.04,0-1.88.84-1.88,1.88v13.64c0,1.04.84,1.88,1.88,1.88h2.98c-.05.55-.09,1.1-.09,1.66,0,9.46,7.69,17.15,17.15,17.15,1.68,0,3.29-.25,4.82-.7v4.26ZM79.43,89.85l3.67,3.67-1.96,1.96-3.67-3.67c.71-.6,1.36-1.25,1.96-1.96ZM93.48,105.85c-1.04,1.04-2.73,1.04-3.77,0l-7.5-7.5c-.21-.21-.32-.48-.32-.78s.11-.57.32-.78l2.21-2.21c.21-.21.48-.32.78-.32s.57.11.78.32l7.5,7.5c1.04,1.04,1.04,2.73,0,3.77ZM53.51,78.75c0,7.1,5.77,12.87,12.87,12.87s12.87-5.77,12.87-12.87-5.77-12.87-12.87-12.87-12.87,5.77-12.87,12.87ZM77.59,78.75c0,6.18-5.02,11.2-11.2,11.2s-11.2-5.02-11.2-11.2,5.02-11.2,11.2-11.2,11.2,5.02,11.2,11.2Z"/>
</svg>