<?xml version="1.0" encoding="UTF-8"?>
<svg id="Layer_1" xmlns="http://www.w3.org/2000/svg" version="1.1" viewBox="0 0 110 135">
  <!-- Generator: Adobe Illustrator 29.8.2, SVG Export Plug-In . SVG Version: 2.1.1 Build 3)  -->
  <defs>
    <style>
      .st0 {
        fill-rule: evenodd;
        stroke: #000;
        stroke-miterlimit: 10;
        stroke-width: 1.1px;
      }
    </style>
  </defs>
  <path class="st0" d="M55,111.07c-.79.83-1.89,1.35-3.12,1.35h-15.62c-2.38,0-4.3-1.92-4.3-4.3v-12.5c0-2.38,1.92-4.3,4.3-4.3h7.11c-.3-.59-.47-1.25-.47-1.95v-12.5c0-2.38,1.92-4.3,4.3-4.3h15.62c2.38,0,4.3,1.92,4.3,4.3v12.5c0,.7-.17,1.37-.47,1.95h7.11c2.38,0,4.3,1.92,4.3,4.3v12.5c0,2.38-1.92,4.3-4.3,4.3h-15.62c-1.23,0-2.34-.52-3.12-1.35h0ZM38.2,93.67h-1.95c-1.08,0-1.95.88-1.95,1.95v12.5c0,1.08.88,1.95,1.95,1.95h15.63c1.08,0,1.95-.88,1.95-1.95v-12.5c0-1.08-.88-1.95-1.95-1.95h-1.95v8.2c0,.43-.24.83-.62,1.04-.38.2-.84.18-1.2-.06l-4.04-2.69-4.04,2.69c-.36.24-.82.26-1.2.06-.38-.2-.62-.6-.62-1.04v-8.2ZM47.58,93.67h-7.03v6.02l2.87-1.91c.39-.26.91-.26,1.3,0l2.87,1.91v-6.02h0ZM49.14,74.92h-1.95c-1.08,0-1.95.88-1.95,1.95v12.5c0,1.08.88,1.95,1.95,1.95h15.62c1.08,0,1.95-.88,1.95-1.95v-12.5c0-1.08-.88-1.95-1.95-1.95h-1.95v8.2c0,.43-.24.83-.62,1.04-.38.2-.84.18-1.2-.06l-4.04-2.69-4.04,2.69c-.36.24-.82.26-1.2.06-.38-.2-.62-.6-.62-1.04v-8.2ZM58.52,74.92h-7.03v6.02l2.87-1.91c.39-.26.91-.26,1.3,0l2.87,1.91v-6.02h0ZM69.45,93.67h-7.03v6.02l2.87-1.91c.39-.26.91-.26,1.3,0l2.87,1.91v-6.02h0ZM56.17,108.12c0,1.08.88,1.95,1.95,1.95h15.62c1.08,0,1.95-.88,1.95-1.95v-12.5c0-1.08-.88-1.95-1.95-1.95h-1.95v8.2c0,.43-.24.83-.62,1.04-.38.2-.84.18-1.2-.06l-4.04-2.69-4.04,2.69c-.36.24-.82.26-1.2.06-.38-.2-.62-.6-.62-1.04v-8.2h-1.95c-1.08,0-1.95.88-1.95,1.95v12.5ZM14.77,51.37l-.88.38c-.84.36-1.82.27-2.58-.23-.77-.51-1.23-1.36-1.23-2.29v-5.97c0-1.09.65-2.08,1.66-2.51l41.57-17.82c1.08-.46,2.3-.46,3.39,0l41.57,17.82c1.01.43,1.66,1.42,1.66,2.51v5.97c0,.92-.46,1.78-1.23,2.29-.77.5-1.74.59-2.58.23l-.88-.38v59.88c0,.65-.52,1.17-1.17,1.17h-6.25c-.65,0-1.17-.52-1.17-1.17v-46.88c0-1.08-.88-1.95-1.95-1.95H25.31c-1.08,0-1.95.88-1.95,1.95v46.88c0,.65-.52,1.17-1.17,1.17h-6.25c-.65,0-1.17-.52-1.17-1.17v-59.88ZM55.46,31.77l41.57,17.82c.12.05.26.04.37-.04.11-.07.18-.2.18-.32v-5.97c0-.16-.09-.3-.24-.36l-41.57-17.82c-.49-.21-1.05-.21-1.54,0L12.66,42.9c-.14.06-.23.2-.23.36v5.97c0,.13.07.25.18.32.11.07.25.09.37.04l41.57-17.82c.3-.12.63-.12.92,0h0ZM17.11,50.36v59.72h3.91v-45.7c0-2.37,1.92-4.3,4.3-4.3h59.37c2.38,0,4.3,1.93,4.3,4.3v45.7h3.91v-59.72l-37.89-16.24-37.89,16.24ZM78.05,48.75v6.25c0,.65-.52,1.17-1.17,1.17h-43.75c-.65,0-1.17-.52-1.17-1.17v-6.25c0-.65.52-1.17,1.17-1.17h43.75c.65,0,1.17.52,1.17,1.17ZM75.7,49.92h-41.41v3.91h41.41v-3.91Z"/>
</svg>