<?xml version="1.0" encoding="UTF-8"?>
<svg id="Layer_1" xmlns="http://www.w3.org/2000/svg" version="1.1" viewBox="0 0 110 135">
  <!-- Generator: Adobe Illustrator 29.8.2, SVG Export Plug-In . SVG Version: 2.1.1 Build 3)  -->
  <path d="M75.39,41.32c.56,1.35,1.88,2.3,3.43,2.3,2.05,0,3.71-1.66,3.71-3.71s-1.66-3.71-3.71-3.71c-1.55,0-2.87.95-3.43,2.3h-2.39c-.38,0-.73.15-1,.41l-2.79,2.79c-2-1.9-4.38-3.41-7.01-4.39l5.11-5.11h1.62c.56,1.35,1.89,2.3,3.43,2.3,2.05,0,3.71-1.66,3.71-3.71s-1.66-3.71-3.71-3.71c-1.55,0-2.87.95-3.43,2.3h-2.2c-.38,0-.73.15-1,.41l-6.64,6.64c-1.24-.25-2.52-.39-3.82-.41-1.5-.02-2.98.12-4.42.41l-6.65-6.65c-.27-.27-.62-.41-1-.41h-2.2c-.56-1.35-1.89-2.3-3.43-2.3-2.05,0-3.71,1.66-3.71,3.71s1.66,3.71,3.71,3.71c1.55,0,2.87-.95,3.43-2.3h1.62l5.12,5.12c-2.57.97-4.95,2.46-7,4.41l-2.82-2.82c-.27-.27-.62-.41-1-.41h-2.39c-.56-1.35-1.88-2.3-3.43-2.3-2.05,0-3.71,1.66-3.71,3.71s1.66,3.71,3.71,3.71c1.55,0,2.87-.95,3.43-2.3h1.8l2.5,2.5c-2.83,3.56-4.4,7.93-4.46,12.56-.06,4.89,1.59,9.41,4.4,12.99l-2.44,2.44h-1.8c-.56-1.35-1.88-2.3-3.43-2.3-2.05,0-3.71,1.66-3.71,3.71s1.66,3.71,3.71,3.71c1.55,0,2.87-.95,3.43-2.3h2.39c.38,0,.73-.15,1-.41l2.75-2.75c1.98,1.91,4.34,3.44,6.96,4.45l-5.02,5.02h-1.62c-.56-1.35-1.89-2.3-3.43-2.3-2.05,0-3.71,1.66-3.71,3.71s1.66,3.71,3.71,3.71c1.55,0,2.87-.95,3.43-2.3h2.2c.38,0,.73-.15,1-.41l6.53-6.53c1.3.27,2.64.43,4.02.45h.27c1.44,0,2.85-.15,4.21-.43l6.51,6.51c.27.27.62.41,1,.41h2.2c.56,1.35,1.89,2.3,3.43,2.3,2.05,0,3.71-1.66,3.71-3.71s-1.66-3.71-3.71-3.71c-1.55,0-2.87.95-3.43,2.3h-1.62l-5-5c2.62-1,4.99-2.52,6.98-4.43l2.71,2.71c.27.27.62.41,1,.41h2.39c.56,1.35,1.88,2.3,3.43,2.3,2.05,0,3.71-1.66,3.71-3.71s-1.66-3.71-3.71-3.71c-1.55,0-2.87.95-3.43,2.3h-1.8l-2.39-2.39c2.72-3.45,4.38-7.78,4.43-12.5.06-4.95-1.63-9.52-4.5-13.12l2.46-2.46h1.8ZM78.82,39.02c.48,0,.88.39.88.88s-.39.88-.88.88-.88-.39-.88-.88.39-.88.88-.88ZM72.36,29.89c.48,0,.88.39.88.88s-.39.88-.88.88-.88-.39-.88-.88.39-.88.88-.88ZM37.56,31.64c-.48,0-.88-.39-.88-.88s.39-.88.88-.88.88.39.88.88-.39.88-.88.88ZM31.1,40.78c-.48,0-.88-.39-.88-.88s.39-.88.88-.88.88.39.88.88-.39.88-.88.88ZM31.1,74.09c-.48,0-.88-.39-.88-.88s.39-.88.88-.88.88.39.88.88-.39.88-.88.88ZM37.56,83.23c-.48,0-.88-.39-.88-.88s.39-.88.88-.88.88.39.88.88-.39.88-.88.88ZM42.57,43.88c1.71-1.67,3.7-2.95,5.85-3.8-.48.66-.94,1.41-1.36,2.22-.5.96-.94,1.99-1.33,3.09l-4.49-.06c.41-.5.86-.99,1.34-1.45h0ZM39.34,48.14l5.56.07c-.52,2.15-.85,4.47-.97,6.87l-6.66-.09c.22-2.43.93-4.75,2.07-6.86h0ZM39.14,64.72c-1.07-2.09-1.74-4.42-1.91-6.88l6.66.09c.05,2.39.32,4.71.79,6.87l-5.55-.07h0ZM40.96,67.57l4.48.06c.36,1.11.78,2.16,1.25,3.12.4.82.83,1.57,1.29,2.24-2.78-1.2-5.19-3.07-7.03-5.43h0ZM53.58,74.21c-1.59-.57-3.13-2.21-4.34-4.7-.29-.58-.54-1.2-.79-1.84l5.12.07v6.48h0ZM53.58,64.9l-5.98-.08c-.51-2.12-.81-4.45-.87-6.87l6.86.09v6.86h0ZM53.58,55.21l-6.82-.09c.12-2.43.48-4.75,1.05-6.87l5.77.07v6.88h0ZM53.58,45.5l-4.84-.06c.25-.64.53-1.25.83-1.82,1.16-2.22,2.56-3.75,4.01-4.41v6.3h0ZM72.36,81.47c.48,0,.88.39.88.88s-.39.88-.88.88-.88-.39-.88-.88.39-.88.88-.88ZM78.82,72.33c.48,0,.88.39.88.88s-.39.88-.88.88-.88-.39-.88-.88.39-.88.88-.88ZM69.03,45.69l-4.48-.06c-.36-1.11-.78-2.16-1.25-3.12-.4-.82-.84-1.57-1.3-2.24,2.78,1.2,5.19,3.07,7.03,5.43h0ZM56.42,39.05c1.59.57,3.13,2.21,4.34,4.7.29.58.54,1.2.79,1.84l-5.12-.07v-6.48h0ZM56.42,48.36l5.98.08c.51,2.13.81,4.46.87,6.89l-6.86-.09v-6.88ZM56.42,58.08l6.82.09c-.12,2.52-.49,4.82-1.03,6.84l-5.79-.07v-6.86h0ZM56.42,74.07v-6.3l4.86.06c-1.29,3.22-3.05,5.41-4.86,6.23ZM61.56,73.18c1.06-1.46,1.98-3.25,2.7-5.31l4.48.06c-1.9,2.31-4.37,4.13-7.19,5.25h0ZM70.65,65.12l-5.54-.07c.52-2.11.85-4.41.96-6.85l6.66.09c-.23,2.46-.96,4.77-2.08,6.83h0ZM72.76,55.46l-6.66-.09c-.05-2.4-.32-4.73-.79-6.89l5.55.07c1.07,2.1,1.75,4.44,1.91,6.91h0ZM92.9,32.24h-4.87v-7.89c0-.78-.63-1.42-1.42-1.42H23.37c-.78,0-1.42.63-1.42,1.42v7.89h-4.87c-3.56,0-6.46,2.9-6.46,6.46v52.77c0,3.56,2.9,6.46,6.46,6.46h23.27l-1.88,4.9c-2.09.46-3.65,2.33-3.65,4.56,0,2.57,2.09,4.67,4.67,4.67h31c2.57,0,4.67-2.09,4.67-4.67,0-2.23-1.57-4.09-3.65-4.56l-1.88-4.9h23.27c3.56,0,6.46-2.9,6.46-6.46v-52.77c-.01-3.56-2.91-6.46-6.48-6.46h0ZM24.79,25.76h60.41v61.72H24.79s0-61.72,0-61.72ZM13.45,38.7c0-2,1.63-3.63,3.63-3.63h4.87v52.41h-8.5v-48.79ZM70.49,105.56c1.01,0,1.84.82,1.84,1.84s-.82,1.84-1.84,1.84h-31c-1.01,0-1.84-.82-1.84-1.84s.82-1.84,1.84-1.84h31ZM41.56,102.72l1.83-4.79h23.21l1.83,4.79h-26.88,0ZM96.53,91.47c0,2-1.63,3.63-3.63,3.63H17.09c-2,0-3.63-1.63-3.63-3.63v-1.16h83.07v1.16ZM96.53,87.49h-8.5v-52.42h4.87c2,0,3.63,1.63,3.63,3.63v48.79h0Z"/>
</svg>