<?xml version="1.0" encoding="UTF-8"?>
<svg id="Layer_1" xmlns="http://www.w3.org/2000/svg" version="1.1" viewBox="0 0 110 135">
  <!-- Generator: Adobe Illustrator 29.8.2, SVG Export Plug-In . SVG Version: 2.1.1 Build 3)  -->
  <defs>
    <style>
      .st0 {
        fill-rule: evenodd;
        stroke: #000;
        stroke-miterlimit: 10;
        stroke-width: .5px;
      }
    </style>
  </defs>
  <path class="st0" d="M56.05,101.94h14.62v-2.95h-12.4c-.57,0-1.03-.46-1.03-1.03s.46-1.03,1.03-1.03h12.4v-29.94H21.03v29.94h13.41c.05,0,.11,0,.16,0,.81-.35,1.7-.55,2.64-.55,2.78,0,5.21,1.73,6.16,4.26,1.68-4.45,7.42-5.72,10.81-2.33.96.96,1.62,2.22,1.85,3.62h0ZM76.23,40.43c3.8,0,6.88,3.08,6.88,6.88s-3.08,6.88-6.88,6.88-6.88-3.08-6.88-6.88,3.08-6.88,6.88-6.88ZM79.64,43.91c-3.03-3.03-8.23-.88-8.23,3.41s5.2,6.44,8.23,3.41c1.88-1.88,1.88-4.94,0-6.82h0ZM74.33,31.76h0c-.51,0-.95.38-1.02.9l-.43,3.25c-.83.24-1.61.57-2.37.98l-2.54-1.95c-.41-.36-1.03-.35-1.42.04l-2.68,2.68h0c-.36.36-.41.95-.09,1.36l2,2.6c-.41.75-.74,1.54-.98,2.37l-3.16.41c-.55.03-.98.48-.98,1.03v3.79h0c0,.51.38.95.89,1.02l3.25.43c.24.83.57,1.61.98,2.37l-1.95,2.54c-.36.41-.35,1.03.04,1.42l2.68,2.68h0c.36.36.94.4,1.36.08l2.6-2c.75.41,1.54.74,2.37.98l.43,3.25c.07.5.5.89,1.02.89h3.76c.52.02.98-.36,1.05-.89l.43-3.25c.83-.24,1.61-.57,2.37-.98l2.54,1.95c.41.36,1.03.35,1.42-.04l2.68-2.68h0c.36-.36.41-.95.09-1.36l-2-2.6c.41-.75.74-1.54.98-2.37l3.25-.43c.5-.07.89-.5.89-1.02v-3.76c.02-.52-.36-.98-.89-1.05l-3.25-.43c-.24-.83-.57-1.61-.98-2.37l1.95-2.54c.36-.41.35-1.03-.04-1.42l-2.68-2.68h0c-.36-.36-.94-.4-1.36-.08l-2.6,2c-.75-.41-1.54-.74-2.37-.98l-.41-3.16c-.03-.55-.48-.98-1.03-.98h-3.79ZM77.22,33.82h-1.99l-.39,3c-.04.43-.35.8-.8.9-1.04.23-2.14.68-3.04,1.26-.36.23-.83.23-1.19-.05l-2.43-1.87-1.41,1.41,1.85,2.41c.27.33.31.81.07,1.2-.58.93-1.02,1.98-1.27,3.05-.09.41-.43.73-.87.79l-3.04.4v1.99l3,.39c.43.04.8.35.9.8.23,1.04.68,2.14,1.26,3.04.23.36.23.83-.05,1.19l-1.87,2.43,1.41,1.41,2.41-1.85c.33-.27.81-.31,1.2-.07.93.58,1.98,1.02,3.05,1.27.41.09.73.43.79.87l.4,3.04h1.99l.39-3.01c.04-.43.35-.8.8-.9,1.04-.23,2.14-.68,3.04-1.26.36-.23.83-.23,1.19.05l2.43,1.87,1.41-1.41-1.85-2.41c-.27-.33-.31-.81-.07-1.2.58-.93,1.02-1.98,1.27-3.05.09-.41.43-.73.87-.79l3.04-.4v-1.99l-3.01-.39c-.43-.04-.8-.35-.9-.8-.23-1.04-.68-2.14-1.26-3.04-.23-.36-.23-.83.05-1.19l1.87-2.43-1.41-1.41-2.41,1.85c-.33.27-.81.31-1.2.07-.93-.58-1.98-1.02-3.05-1.27-.41-.09-.73-.43-.79-.87l-.4-3.04h0ZM20,61.01c-.57,0-1.03-.46-1.03-1.03s.46-1.03,1.03-1.03h14.92c.57,0,1.03.46,1.03,1.03s-.46,1.03-1.03,1.03h-14.92ZM20,56.86c-.57,0-1.03-.46-1.03-1.03s.46-1.03,1.03-1.03h14.92c.57,0,1.03.46,1.03,1.03s-.46,1.03-1.03,1.03h-14.92ZM38.94,59.1c-.4-.4-.4-1.05,0-1.46.4-.4,1.05-.4,1.46,0l1.32,1.32,4.31-4.31c.4-.4,1.05-.4,1.46,0,.4.4.4,1.05,0,1.46l-5.04,5.04c-.4.4-1.05.4-1.46,0l-2.05-2.05h0ZM20,47.19c-.57,0-1.03-.46-1.03-1.03s.46-1.03,1.03-1.03h14.92c.57,0,1.03.46,1.03,1.03s-.46,1.03-1.03,1.03h-14.92ZM20,43.03c-.57,0-1.03-.46-1.03-1.03s.46-1.03,1.03-1.03h14.92c.57,0,1.03.46,1.03,1.03s-.46,1.03-1.03,1.03h-14.92ZM38.94,45.28c-.4-.4-.4-1.05,0-1.46s1.05-.4,1.46,0l1.32,1.32,4.31-4.31c.4-.4,1.05-.4,1.46,0,.4.4.4,1.05,0,1.46l-5.04,5.04c-.4.4-1.05.4-1.46,0l-2.05-2.05h0ZM24.12,25.45h17.1c.57,0,1.03.46,1.03,1.03v1.79h9.49c1.98,0,3.6,1.62,3.6,3.6v33.05h16.35c.57,0,1.03.46,1.03,1.03v3.04h13.13c1.43,0,2.68.73,3.39,1.98l5.3,9.29c.13.23.27.39.48.55l3.34,2.56c.99.76,1.52,1.83,1.53,3.08l.09,13.61c.02,2.18-1.73,3.93-3.91,3.93h-5.7c-.83,5.27-7.34,7.44-11.16,3.62-.96-.96-1.62-2.22-1.85-3.62h-21.34c-.83,5.27-7.34,7.44-11.16,3.62-.66-.66-1.17-1.45-1.5-2.33-1.68,4.45-7.42,5.72-10.81,2.33-.96-.96-1.62-2.22-1.85-3.62h-5.76c-.57,0-1.03-.46-1.03-1.03v-3.98h-3.93c-.57,0-1.03-.46-1.03-1.02h0v-10.43h-5.36c-1.98,0-3.6-1.62-3.6-3.6V31.88c0-1.98,1.62-3.6,3.6-3.6h9.49v-1.79c0-.57.46-1.03,1.03-1.03h0ZM42.25,30.34v1.59h8.23c.57,0,1.03.46,1.03,1.03v31.97h1.77V31.88c0-.85-.7-1.54-1.54-1.54h-9.49ZM42.25,33.99h7.2v30.94h-29.46c-.57,0-1.03.46-1.03,1.03v15.86h-3.08v-47.83h7.21v1.22c0,.57.46,1.03,1.03,1.03h17.1c.57,0,1.03-.46,1.03-1.03v-1.22h0ZM23.09,31.93h-8.23c-.57,0-1.03.46-1.03,1.03v49.89c0,.57.46,1.03,1.03,1.03h4.11v1.59h-5.36c-.85,0-1.54-.7-1.54-1.54V31.88c0-.85.7-1.54,1.54-1.54h9.49v1.59h0ZM40.19,27.51h-15.04v6.67h15.04v-6.67ZM83.89,101.02c-1.07,0-1.95.87-1.95,1.95s.87,1.95,1.95,1.95,1.95-.87,1.95-1.95-.87-1.95-1.95-1.95ZM49.55,101.02c1.07,0,1.95.87,1.95,1.95s-.87,1.95-1.95,1.95-1.95-.87-1.95-1.95.87-1.95,1.95-1.95ZM37.23,101.02c1.07,0,1.95.87,1.95,1.95s-.87,1.95-1.95,1.95-1.95-.87-1.95-1.95.87-1.95,1.95-1.95ZM52.75,99.77c1.77,1.77,1.77,4.63,0,6.39-2.84,2.84-7.72.82-7.72-3.2s4.88-6.04,7.72-3.2h0ZM31.98,98.99c-.64.85-1.09,1.85-1.26,2.95h-4.73v-2.95h5.99ZM40.43,99.77c1.77,1.77,1.77,4.63,0,6.39-2.84,2.84-7.72.82-7.72-3.2s4.88-6.04,7.72-3.2h0ZM97.94,98.93c-2.5.32-5.11-1.27-5.11-3.75s2.57-4.05,5.06-3.75l-.03-4.96c0-.59-.25-1.09-.73-1.46l-1.68-1.29h-16.65c-.57,0-1.03-.46-1.03-1.03v-7.04c0-.57.46-1.03,1.03-1.03h10.17l-1.5-2.63c-.34-.6-.91-.93-1.61-.93h-13.13v30.88h4.66c.83-5.27,7.34-7.44,11.16-3.62.96.96,1.62,2.22,1.85,3.62h5.7c1.04,0,1.86-.82,1.86-1.86v-1.14s0,0,0,0ZM97.9,93.51c-2.21-.45-4,1.52-2.39,2.82.62.5,1.56.69,2.41.51l-.02-3.33h0ZM25.73,78.98c-.57,0-1.03-.46-1.03-1.03s.46-1.03,1.03-1.03h8.16c.57,0,1.03.46,1.03,1.03s-.46,1.03-1.03,1.03h-8.16ZM25.73,73.65c-.57,0-1.03-.46-1.03-1.03s.46-1.03,1.03-1.03h16.33c.57,0,1.03.46,1.03,1.03s-.46,1.03-1.03,1.03h-16.33ZM90.14,76.68h-10.31v4.98h13.18c-.09-.12-.17-.25-.25-.38l-2.63-4.59ZM87.09,99.77c-2.84-2.84-7.72-.82-7.72,3.2s4.88,6.04,7.72,3.2c1.77-1.77,1.77-4.63,0-6.39h0Z"/>
</svg>