<?xml version="1.0" encoding="UTF-8"?>
<svg id="Layer_1" xmlns="http://www.w3.org/2000/svg" version="1.1" viewBox="0 0 110 135">
  <!-- Generator: Adobe Illustrator 29.8.2, SVG Export Plug-In . SVG Version: 2.1.1 Build 3)  -->
  <path d="M37.42,57.44c4.85,0,9.02-3.43,9.96-8.18.94-4.75-1.6-9.51-6.08-11.36-4.48-1.85-9.64-.29-12.33,3.75-2.69,4.03-2.16,9.4,1.27,12.83,1.91,1.91,4.49,2.98,7.19,2.97h0ZM31.8,41.67c2.27-2.27,5.69-2.95,8.65-1.72,2.97,1.23,4.9,4.12,4.9,7.34s-1.93,6.11-4.9,7.34c-2.96,1.23-6.38.55-8.65-1.72-3.09-3.1-3.09-8.12,0-11.23h0ZM32.88,52.35h0c-.1.43.07.88.43,1.14.36.26.84.28,1.22.05l2.88-1.71,2.89,1.71c.38.23.86.2,1.22-.06.36-.26.53-.71.43-1.14l-.73-3.27,2.51-2.21c.33-.29.46-.75.32-1.18s-.51-.72-.95-.76l-3.34-.32-1.33-3.07h0c-.18-.4-.57-.67-1.02-.67s-.84.27-1.02.67l-1.33,3.07-3.34.32h0c-.44.04-.81.34-.95.76s-.01.88.32,1.18l2.51,2.21-.73,3.27ZM35.93,46.76h0c.4-.04.75-.3.91-.67l.57-1.32.57,1.32c.16.37.51.63.92.66l1.43.14-1.08.95c-.3.27-.44.68-.35,1.08l.31,1.4-1.23-.73c-.35-.21-.78-.21-1.13,0l-1.23.73.31-1.4c.09-.4-.04-.81-.35-1.08l-1.08-.95,1.43-.13ZM80.5,61.57h-7.91c-.29,0-.58.12-.79.33-.21.21-.32.49-.32.79v7.91c0,.61.5,1.11,1.11,1.11h7.91c.61,0,1.11-.5,1.11-1.11v-7.91c0-.3-.11-.58-.32-.79-.21-.21-.49-.33-.79-.33h0ZM79.39,69.48h-5.69v-5.69h5.69v5.69ZM86.94,46.33l-6.25-6.25v-11.47c0-.29-.12-.58-.32-.79-.21-.21-.49-.32-.79-.32H30.04c-.61,0-1.11.5-1.11,1.11v6.01c-.7.32-1.23.91-1.48,1.64l-.9,2.51c-.04.11-.11.21-.2.29l-2.56,2.15h0c-.88.73-1.24,1.92-.91,3.02l.75,2.56h0c.04.11.04.23,0,.35l-.8,3.25c-.29,1.11.12,2.29,1.03,2.98l2.11,1.63c.09.07.17.16.21.28l.37.9h0s-3.57,13.32-3.57,13.32c-.12.44.04.9.39,1.17.36.27.84.3,1.23.08l3.95-2.28.39.67v23.93c0,.61.5,1.11,1.11,1.11h5.46v4.68h0c0,.29.12.57.32.79.21.21.49.32.79.32h7.62c2.21,3.47,5.6,5.94,10.25,7.48h0c.23.07.47.07.7,0,4.66-1.55,8.04-4.01,10.25-7.48h20.72c.29,0,.58-.11.79-.32.21-.21.33-.49.33-.79v-51.73c0-.29-.12-.57-.33-.79h0ZM74.56,37.08l8.92,8.92h-8.92v-8.92ZM78.47,29.72v8.14l-4.25-4.25c-.21-.21-.49-.32-.79-.32h-33.1l-1.36-.85c-.97-.61-2.21-.59-3.15.06l-2.21,1.5c-.09.07-.21.11-.33.11l-2.15.15v-4.54s47.32,0,47.32,0ZM25.21,51.6c-.21-.16-.31-.43-.24-.69l.81-3.25c.12-.49.11-1.01-.03-1.5l-.74-2.56c-.09-.26,0-.54.21-.7l2.56-2.15h0c.39-.32.69-.75.86-1.23l.9-2.51h0c.08-.25.31-.43.58-.44l3.34-.23h0c.51-.04,1-.21,1.42-.5l2.21-1.5c.11-.08.24-.12.37-.12s.25.04.36.11l2.84,1.78c.43.27.93.42,1.44.43l2.66.08h0c.27,0,.5.17.6.42l1.25,3.1c.19.47.5.89.91,1.2l2.11,1.63c.22.16.31.43.24.69l-.81,3.24c-.12.5-.11,1.01.03,1.5l.74,2.56c.09.25,0,.54-.21.7l-2.56,2.15h0c-.39.32-.69.75-.86,1.23l-.9,2.51h0c-.08.25-.31.43-.58.44l-3.34.24h0c-.51.03-1,.2-1.42.49l-2.2,1.5c-.22.16-.51.16-.73.02l-2.84-1.77c-.43-.27-.93-.43-1.44-.44l-2.66-.08c-.27,0-.51-.17-.6-.42l-1.26-3.1c-.19-.47-.5-.89-.91-1.2l-2.11-1.63ZM46.83,59.26l2.2,8.22-2.59-1.5h0c-.25-.15-.56-.19-.84-.11-.28.07-.53.26-.67.52l-1.5,2.59-2.25-8.39.03-.02h0c.1-.07.21-.11.33-.11l3.34-.23h0c.76-.05,1.46-.39,1.96-.96h0ZM28.4,65.98l-2.59,1.5,2.2-8.2c.52.56,1.25.88,2.01.9l2.66.08c.12,0,.23.04.33.1l.61.38-2.21,8.24-1.5-2.59h0c-.15-.25-.39-.44-.68-.52-.29-.08-.59-.04-.84.11h0ZM31.16,91.95v-19.18c.18.13.41.2.63.2.05,0,.1,0,.14,0,.45-.06.81-.38.93-.82l2.64-9.88v29.68h-4.35ZM54.84,105.22c-4.46-1.55-7.24-3.91-8.98-6.84h0c-.03-.06-.06-.11-.1-.17-2.75-4.79-2.8-11.1-2.84-17.98v-.41l11.92-4.03,11.92,4.03v.41c-.04,6.88-.09,13.18-2.84,17.98h0c-.04.05-.07.11-.1.17-1.74,2.93-4.52,5.29-8.98,6.84h0ZM66.64,97.74c.21-.46.39-.93.57-1.42,1.7-4.77,1.73-10.26,1.77-16.07,0-.4,0-.81,0-1.21,0-.48-.3-.91-.76-1.06l-13.03-4.41c-.23-.08-.48-.08-.71,0l-13.04,4.41c-.46.16-.76.58-.76,1.06,0,.41,0,.81,0,1.21.04,5.81.07,11.3,1.77,16.07.18.49.36.96.57,1.42h-5.31v-35.19c.45-.05.89-.22,1.27-.48l.23-.16,2.74,10.23h0c.12.43.48.75.93.81.05,0,.1,0,.14,0,.4,0,.77-.21.96-.55l2.28-3.95,3.95,2.28h0c.39.23.88.2,1.23-.08.36-.27.51-.73.39-1.17l-3.56-13.31c-.02-.07-.05-.14-.08-.21l.06-.17h0c.04-.11.11-.21.2-.28l2.56-2.15c.88-.73,1.24-1.92.91-3.02l-.74-2.56c-.04-.11-.04-.23,0-.35l.81-3.25h0c.29-1.11-.12-2.28-1.03-2.98l-2.11-1.63h0c-.09-.07-.17-.17-.21-.28l-1.26-3.1c-.1-.25-.23-.48-.39-.69h25.32v11.6h0c0,.61.5,1.11,1.11,1.11h11.6v49.52h-18.41ZM67.68,52.79c0,.29-.12.58-.33.79-.21.21-.49.33-.79.32h-10.72c-.61,0-1.11-.5-1.11-1.11s.5-1.11,1.11-1.11h10.72c.29,0,.58.11.79.32.21.21.32.49.32.79h0ZM67.68,57.26c0,.29-.12.57-.33.79-.21.21-.49.32-.79.32h-12.39c-.61,0-1.11-.5-1.11-1.11s.5-1.11,1.11-1.11h12.39c.29,0,.58.12.79.32.21.21.32.49.32.79h0ZM67.68,64.4h0c0,.29-.12.57-.33.78-.21.21-.49.33-.79.33h-10.53c-.61,0-1.11-.5-1.11-1.11s.5-1.11,1.11-1.11h10.53c.29,0,.58.12.79.32.21.21.32.49.32.79h0ZM67.68,68.88h0c0,.29-.12.57-.33.78-.21.21-.49.32-.79.32h-11.3c-.61,0-1.11-.5-1.11-1.11s.5-1.11,1.11-1.11h11.3c.61,0,1.11.5,1.11,1.11h0ZM67.68,39.55h0c0,.29-.12.57-.33.78-.21.21-.49.32-.79.32h-10.92c-.61,0-1.11-.5-1.11-1.11s.5-1.11,1.11-1.11h10.92c.61,0,1.11.5,1.11,1.11h0ZM67.68,44.02h0c0,.61-.5,1.11-1.11,1.11h-9.95c-.6-.02-1.08-.51-1.08-1.11s.48-1.09,1.08-1.11h9.95c.29,0,.58.12.79.33.21.21.32.49.32.79h0ZM80.5,49.96h-7.91c-.29,0-.58.12-.79.32-.21.21-.32.49-.32.79v7.91c0,.29.12.58.32.79.21.21.49.33.79.33h7.91c.29,0,.58-.12.79-.33.21-.21.32-.49.32-.79v-7.91c0-.29-.11-.57-.32-.79-.21-.21-.49-.32-.79-.32ZM79.39,57.87h-5.69v-5.69h5.69v5.69ZM80.5,73.18h-7.91c-.29,0-.58.12-.79.32-.21.21-.32.49-.32.79v7.91c0,.3.12.58.32.79.21.21.49.33.79.33h7.91c.3,0,.58-.12.79-.32.21-.21.32-.49.32-.79v-7.91c0-.29-.12-.58-.32-.79-.21-.21-.49-.32-.79-.32ZM79.39,81.09h-5.69v-5.69h5.69v5.69ZM80.5,84.79h-7.91c-.61,0-1.11.5-1.11,1.11v7.91c0,.29.12.58.32.79.21.21.49.32.79.32h7.91c.29,0,.58-.12.79-.32.21-.21.32-.49.32-.79v-7.91c0-.29-.12-.57-.32-.79-.21-.21-.49-.32-.79-.32h0ZM79.39,92.7h-5.69v-5.69h5.69v5.69ZM65.74,81.35c0-.48-.3-.9-.75-1.05l-9.79-3.31c-.23-.08-.48-.08-.71,0l-9.79,3.31c-.45.15-.76.58-.75,1.05.02,5.73.23,11.68,2.49,15.95h0c1.74,3.16,4.59,5.54,8.01,6.68.26.1.54.1.8,0,3.41-1.15,6.27-3.53,8-6.68,2.27-4.27,2.48-10.22,2.49-15.95h0ZM54.84,101.75h0c-2.75-.97-5.04-2.93-6.44-5.48-2.07-3.9-2.21-9.86-2.23-14.12l8.68-2.93,8.68,2.93c-.02,4.26-.16,10.22-2.23,14.12-1.4,2.56-3.7,4.52-6.45,5.49h0ZM61.97,85.2c-1.05-1.05-2.76-1.05-3.81,0l-4.86,4.86-1.79-1.79c-1.05-1.02-2.74-1.01-3.78.03-1.04,1.04-1.05,2.73-.03,3.78l3.7,3.7h0c1.05,1.05,2.76,1.05,3.81,0l6.77-6.76h0c1.05-1.06,1.05-2.76,0-3.82h0ZM60.4,87.44l-6.76,6.76c-.19.18-.48.18-.67,0l-3.7-3.7c-.18-.19-.18-.48,0-.67.18-.18.48-.18.67,0l2.58,2.58c.43.44,1.14.44,1.57,0l5.64-5.64c.19-.17.48-.16.66.02s.18.46.01.65h0Z"/>
</svg>