<?xml version="1.0" encoding="UTF-8"?>
<svg id="Layer_1" xmlns="http://www.w3.org/2000/svg" version="1.1" viewBox="0 0 110 135">
  <!-- Generator: Adobe Illustrator 29.8.2, SVG Export Plug-In . SVG Version: 2.1.1 Build 3)  -->
  <path d="M100.31,65.86h-7.19c-6.56-6.56-13.28-11.41-19.84-14.38l5-5c1.25.78,2.81,1.25,4.38,1.25,2.03,0,4.06-.78,5.47-2.34s2.34-3.44,2.34-5.47-.78-4.06-2.34-5.47c-1.41-1.41-3.44-2.34-5.47-2.34s-4.06.78-5.47,2.34c-1.41,1.41-2.34,3.44-2.34,5.47,0,1.56.47,2.97,1.25,4.38l-5.94,5.94c-4.53-1.72-9.06-2.66-13.59-2.97v-11.09c3.59-.78,6.25-3.91,6.25-7.66,0-4.38-3.44-7.81-7.81-7.81s-7.81,3.44-7.81,7.81c0,3.75,2.66,6.88,6.25,7.66v10.94c-4.53.16-9.06,1.09-13.59,2.97l-5.94-5.94c.78-1.25,1.25-2.81,1.25-4.38,0-2.03-.78-4.06-2.34-5.47-1.41-1.41-3.44-2.34-5.47-2.34s-4.06.78-5.47,2.34c-1.41,1.41-2.34,3.44-2.34,5.47s.78,4.06,2.34,5.47c1.41,1.41,3.44,2.34,5.47,2.34,1.56,0,2.97-.47,4.38-1.25l5,5c-6.72,3.12-13.28,7.97-19.84,14.38h-7.19c-.94,0-1.56.62-1.56,1.56s.62,1.56,1.56,1.56h7.19c6.56,6.56,13.28,11.41,20,14.53l-5.16,5.16c-1.25-.78-2.81-1.25-4.38-1.25-2.03,0-4.06.78-5.47,2.34-2.97,2.97-2.97,7.97,0,11.09,1.41,1.41,3.44,2.34,5.47,2.34s4.06-.78,5.47-2.34c2.66-2.66,2.97-6.72.94-9.84l6.09-6.09c4.53,1.72,9.06,2.66,13.59,2.81v11.25c-3.59.78-6.25,3.91-6.25,7.66,0,4.38,3.44,7.81,7.81,7.81s7.81-3.44,7.81-7.81c0-3.75-2.66-6.88-6.25-7.66v-11.25c4.53-.16,9.06-1.09,13.59-2.81l6.09,6.09c-2.03,2.97-1.72,7.19.94,9.84,1.41,1.41,3.44,2.34,5.47,2.34s4.06-.78,5.47-2.34c2.97-2.97,2.97-7.97,0-11.09-1.41-1.41-3.44-2.34-5.47-2.34-1.56,0-2.97.47-4.38,1.25l-5.16-5.16c6.72-3.12,13.28-7.97,20-14.53h7.19c.94,0,1.56-.62,1.56-1.56,0-.78-.62-1.41-1.56-1.41h0ZM79.38,36.48c.94-.94,2.03-1.41,3.28-1.41s2.5.47,3.28,1.41c.94.94,1.41,2.03,1.41,3.28s-.47,2.5-1.41,3.28c-1.72,1.72-4.84,1.72-6.56,0-.94-.94-1.41-2.03-1.41-3.28s.47-2.34,1.41-3.28h0ZM24.06,43.05c-.94-.94-1.41-2.03-1.41-3.28s.47-2.5,1.41-3.28c.94-.94,2.03-1.41,3.28-1.41s2.5.47,3.28,1.41c.94.94,1.41,2.03,1.41,3.28s-.47,2.34-1.41,3.28c-1.72,1.88-4.84,1.88-6.56,0h0ZM30.63,98.36c-1.72,1.72-4.84,1.72-6.56,0-1.88-1.88-1.88-4.84,0-6.56.94-.94,2.03-1.41,3.28-1.41s2.5.47,3.28,1.41c1.88,1.72,1.88,4.69,0,6.56h0ZM85.94,91.8c1.88,1.88,1.88,4.84,0,6.56-1.72,1.72-4.84,1.72-6.56,0-1.88-1.88-1.88-4.84,0-6.56.94-.94,2.03-1.41,3.28-1.41s2.34.47,3.28,1.41h0ZM19.69,67.42c6.72-6.56,13.44-11.25,20.16-14.06.16,0,.31-.16.31-.16,4.84-2.03,9.69-2.97,14.53-3.12h.62c4.84,0,9.69,1.09,14.53,3.12.16,0,.16.16.31.16,6.72,2.81,13.44,7.5,20.16,14.06-23.75,22.97-46.88,22.97-70.62,0h0ZM50.31,28.36c0-2.66,2.03-4.69,4.69-4.69s4.69,2.03,4.69,4.69-2.03,4.69-4.69,4.69-4.69-2.19-4.69-4.69ZM59.69,106.48c0,2.66-2.03,4.69-4.69,4.69s-4.69-2.03-4.69-4.69,2.03-4.69,4.69-4.69,4.69,2.19,4.69,4.69Z"/>
  <path d="M64.38,68.98h-7.81v-7.81c0-.94-.62-1.56-1.56-1.56-6.09,0-10.94,4.84-10.94,10.94s4.84,10.94,10.94,10.94,10.94-4.84,10.94-10.94c0-.94-.62-1.56-1.56-1.56h0ZM55,78.36c-4.38,0-7.81-3.44-7.81-7.81,0-3.75,2.66-6.88,6.25-7.66v7.66c0,.94.62,1.56,1.56,1.56h7.66c-.78,3.44-3.91,6.25-7.66,6.25Z"/>
  <path d="M61.25,53.36c-.94,0-1.56.62-1.56,1.56v9.38c0,.94.62,1.56,1.56,1.56h9.38c.94,0,1.56-.62,1.56-1.56,0-6.09-4.84-10.94-10.94-10.94h0ZM62.81,56.64c3.12.62,5.47,2.97,6.09,6.09h-6.09v-6.09Z"/>
</svg>