<?xml version="1.0" encoding="UTF-8"?>
<svg id="Layer_1" xmlns="http://www.w3.org/2000/svg" version="1.1" viewBox="0 0 110 135">
  <!-- Generator: Adobe Illustrator 29.8.2, SVG Export Plug-In . SVG Version: 2.1.1 Build 3)  -->
  <defs>
    <style>
      .st0 {
        stroke: #000;
        stroke-miterlimit: 10;
      }
    </style>
  </defs>
  <path class="st0" d="M72.96,45.02h-35.93c-2.34,0-4.23,1.89-4.23,4.23v35.93c0,2.34,1.89,4.23,4.23,4.23h35.93c2.34,0,4.23-1.89,4.23-4.23v-35.93c0-2.34-1.9-4.23-4.24-4.23h0ZM67.08,47.68h5.88c.88,0,1.59.71,1.59,1.59v29.14h-18.09v-9.44h3.17c.61,2.84,3.16,4.98,6.2,4.94,3.39-.04,6.16-2.8,6.2-6.2.04-3.04-2.1-5.59-4.94-6.2v-13.83ZM69.37,67.7c-.04,1.98-1.64,3.55-3.62,3.55s-3.62-1.64-3.62-3.62,1.61-3.62,3.62-3.62,3.65,1.66,3.62,3.69ZM35.44,49.26c0-.88.71-1.59,1.59-1.59h27.4v13.84c-2.39.52-4.29,2.41-4.8,4.8h-9.76v-6.79c2.5-.49,4.39-2.7,4.39-5.34,0-3-2.44-5.44-5.45-5.44-2.64,0-4.85,1.89-5.34,4.39h-8.02v-3.87ZM48.81,56.97c-1.53,0-2.8-1.25-2.8-2.8s1.25-2.79,2.8-2.79,2.8,1.25,2.8,2.79-1.27,2.8-2.8,2.8ZM43.09,78.62c-.8-.45-1.34-1.34-1.29-2.33.07-1.29,1.11-2.32,2.4-2.38,1.45-.07,2.64,1.09,2.64,2.52,0,1.92-2.08,3.14-3.75,2.2h0ZM44.92,86.78v-5.21c2.57-.29,4.58-2.48,4.58-5.14,0-2.86-2.29-5.16-5.14-5.17-2.86-.02-5.2,2.31-5.2,5.17,0,2.12,1.28,3.95,3.11,4.74v5.61h-5.24c-.88,0-1.59-.71-1.59-1.59v-29.41h8.17s.72,2.72,3.61,3.61v8.25c0,.73.59,1.32,1.32,1.32h5.27v17.81h-8.89ZM74.54,85.19c0,.87-.71,1.59-1.59,1.59h-16.5v-5.73h18.09v4.14Z"/>
  <path class="st0" d="M98.67,78.44c.72,0,1.31-.58,1.32-1.3.02-.74-.61-1.35-1.35-1.35h-8.81v-6.96h8.81c.74,0,1.36-.61,1.35-1.35-.02-.72-.6-1.3-1.32-1.3h-8.84v-6.96h8.84c.72,0,1.31-.58,1.32-1.3.02-.74-.61-1.35-1.35-1.35h-8.81v-6.96h8.81c.74,0,1.36-.61,1.35-1.35-.02-.72-.6-1.3-1.32-1.3h-8.84v-8.56c0-3.3-2.69-5.99-5.99-5.99h-8.29v-8.53c0-.74-.61-1.36-1.35-1.35-.72.02-1.3.6-1.3,1.32v8.56h-6.96v-8.54c0-.74-.61-1.36-1.35-1.35-.72.02-1.3.6-1.3,1.32v8.56h-6.96v-8.56c0-.72-.57-1.31-1.3-1.32-.74-.02-1.35.61-1.35,1.35v8.54h-6.96v-8.54c0-.74-.6-1.36-1.34-1.35-.72.02-1.3.6-1.3,1.32v8.56h-6.96v-8.54c0-.74-.61-1.36-1.35-1.35-.72.02-1.3.6-1.3,1.32v8.56h-8.51c-.07,0-.14,0-.21.02-3.1.22-5.56,2.84-5.56,5.98v8.56h-8.81c-.74,0-1.36.62-1.35,1.36.02.72.6,1.3,1.32,1.3h8.84v6.96h-8.81c-.74,0-1.36.61-1.35,1.35.02.72.6,1.3,1.32,1.3h8.84v6.96h-8.84c-.72,0-1.31.57-1.32,1.3-.02.74.61,1.35,1.35,1.35h8.81v6.96h-8.81c-.74,0-1.36.61-1.35,1.35.02.72.6,1.3,1.32,1.3h8.84v6.96h-8.81c-.74,0-1.36.61-1.35,1.35.02.72.6,1.3,1.32,1.3h8.84v8.75c0,.1.01.2.03.29.06.41.23,1.18.7,1.85,1.04,1.91,3.04,3.12,5.26,3.12h8.29v9.09c0,.74.61,1.36,1.35,1.35.72-.02,1.3-.6,1.3-1.32v-9.11h6.96v9.09c0,.74.61,1.36,1.35,1.35.72-.02,1.3-.6,1.3-1.32v-9.11h6.96v9.09c0,.74.61,1.36,1.35,1.35.72-.02,1.3-.6,1.3-1.32v-9.11h6.96v9.09c0,.74.61,1.36,1.35,1.35.72-.02,1.3-.6,1.3-1.32v-9.11h6.96v9.09c0,.74.61,1.36,1.35,1.35.72-.02,1.3-.6,1.3-1.32v-9.11c2.43,0,4.87.14,7.3.09,1.05-.02,2.24.07,3.2-.4.68-.33,1.27-.8,1.85-1.28.02-.02.05-.04.07-.06,1.2-1.14,1.86-2.68,1.86-4.34v-8.02h8.81c.74,0,1.36-.61,1.35-1.35-.02-.72-.6-1.3-1.32-1.3h-8.84v-6.96h8.82ZM26.15,99.41c-1.36,0-2.54-.84-3.09-2.08h0c-.02-.05-.25-.63-.25-2.68v-56.32c0-1.82,1.48-3.22,3.3-3.3h57.73c1.85,0,3.34,1.5,3.34,3.34v57.68c0,.4-.07.79-.2,1.15,0,0,0,.01,0,.02-.01.03-.02.06-.04.09-.07.16-.16.31-.26.46-.71,1.03-1.9,1.62-3.15,1.62H26.15s0,0,0,0Z"/>
</svg>