<?xml version="1.0" encoding="UTF-8"?>
<svg id="Layer_1" xmlns="http://www.w3.org/2000/svg" version="1.1" viewBox="0 0 110 135">
  <!-- Generator: Adobe Illustrator 29.8.2, SVG Export Plug-In . SVG Version: 2.1.1 Build 3)  -->
  <defs>
    <style>
      .st0 {
        stroke: #000;
        stroke-miterlimit: 10;
        stroke-width: .5px;
      }
    </style>
  </defs>
  <path class="st0" d="M31.73,53.07c-5.33,0-9.88-4.51-10.13-10.06v-.03l-.14-5.7h0c-.01-.5.23-.98.65-1.25l2.52-1.69h0c1.49-1,3.41-1.11,5-.27,2.38,1.23,6.09,2.54,10.32,1.79h0c.42-.08.85.03,1.18.3.33.27.53.66.54,1.09l.2,5.65v.12c-.26,5.56-4.81,10.07-10.13,10.07h0ZM24.53,42.88c.2,3.93,3.49,7.25,7.2,7.25s6.99-3.3,7.2-7.21l-.14-3.98c-4.34.35-8.06-1-10.53-2.28-.64-.33-1.41-.29-2.01.11l-1.84,1.24.12,4.87Z"/>
  <path class="st0" d="M52.88,73.44H10.47c-.81,0-1.46-.66-1.46-1.46v-4.88c0-3.78,2.13-7.29,5.42-8.94l.05-.02,11.11-5.09c.35-.29.39-.79.36-2.02,0-.23-.01-.45-.01-.68,0-.81.66-1.46,1.46-1.46s1.46.66,1.46,1.46v.59c.04,1.34.1,3.37-1.73,4.59-.07.05-.14.09-.21.12l-11.21,5.14c-2.3,1.17-3.78,3.63-3.78,6.3v3.43h39.48v-3.43c0-2.67-1.48-5.14-3.78-6.3l-11.22-5.14h0c-.07-.04-.14-.07-.21-.12-1.82-1.23-1.76-3.22-1.73-4.54,0-.2.01-.39.01-.59,0-.81.65-1.46,1.46-1.46s1.46.66,1.46,1.46c0,.22,0,.44-.01.66-.04,1.21.01,1.68.36,1.96l11.11,5.1.05.02c3.29,1.65,5.42,5.16,5.42,8.94v4.88h0c0,.39-.15.76-.43,1.04-.27.27-.65.43-1.04.43h0Z"/>
  <path class="st0" d="M26,64.69c-.16,0-.32-.02-.48-.05-.69-.15-1.27-.6-1.58-1.23l-3.18-6.52c-.35-.73-.05-1.6.68-1.96.73-.35,1.61-.05,1.96.68l2.81,5.79,9.88-8.21h0c.3-.25.69-.37,1.07-.33.39.04.74.22.99.52.52.62.43,1.54-.19,2.06l-10.49,8.73c-.41.34-.93.53-1.47.54h0Z"/>
  <path class="st0" d="M37.34,64.69c-.54,0-1.06-.19-1.47-.54l-10.48-8.73h0c-.62-.52-.7-1.44-.18-2.06s1.45-.7,2.07-.19l9.88,8.22,2.87-5.78h0c.36-.72,1.24-1.02,1.96-.66.72.36,1.02,1.24.66,1.96l-3.23,6.48c-.31.63-.9,1.09-1.59,1.23-.16.04-.32.05-.48.06h0Z"/>
  <path class="st0" d="M17.19,73.44c-.81,0-1.47-.66-1.47-1.47v-5.27c0-.81.66-1.46,1.47-1.46s1.46.65,1.46,1.46v5.27c0,.39-.15.76-.43,1.04-.28.27-.65.43-1.04.43h0Z"/>
  <path class="st0" d="M46.16,73.44c-.81,0-1.46-.66-1.46-1.47v-5.27c0-.81.66-1.46,1.46-1.46s1.46.65,1.46,1.46v5.27c0,.39-.16.76-.43,1.04-.27.27-.65.43-1.04.43h0Z"/>
  <path class="st0" d="M40.2,38.75c-.77,0-1.4-.59-1.46-1.35-.06-.76.47-1.44,1.22-1.57.21-.02.38-.18.39-.39,0-.13-.08-.25-.2-.32-.42-.25-.69-.68-.72-1.17-.03-.48.18-.95.57-1.25h0c.09-.06.15-.17.16-.28-.03-.24-.24-.41-.48-.39-.04,0-.08,0-.12.02-.57.12-1.15-.1-1.5-.57-.34-.47-.37-1.09-.08-1.6h0c.06-.11.09-.22.09-.35-.03-.46-.43-.81-.89-.78-.2,0-.38.05-.54.16-.36.24-.8.32-1.21.2-.41-.11-.75-.4-.94-.79-.16-.3-.49-.49-.84-.47-.31,0-.6.14-.77.39h0c-.27.41-.73.66-1.22.66s-.95-.25-1.22-.66c-.18-.25-.46-.4-.77-.39-.34,0-.66.18-.82.48-.18.39-.53.68-.94.79-.41.11-.86.04-1.21-.2-.16-.11-.35-.16-.54-.16-.46-.03-.86.32-.89.78,0,.12.03.24.09.35.29.5.26,1.13-.08,1.6-.34.47-.93.69-1.49.57-.04-.01-.08-.02-.12-.02-.24-.02-.45.15-.48.39,0,.11.06.22.15.28h0c.39.3.6.77.57,1.25-.03.49-.3.93-.72,1.17-.12.07-.19.19-.2.32.02.18.15.33.33.37.78.21,1.24,1.02,1.02,1.8s-1.02,1.24-1.8,1.02c-1.46-.38-2.47-1.7-2.49-3.2,0-.6.17-1.19.48-1.7-.18-.41-.28-.87-.28-1.32h0c.01-1.35.84-2.56,2.09-3.06.12-2.01,1.8-3.57,3.81-3.55.3,0,.6.03.9.1,1.27-1.15,3.14-1.34,4.61-.47,1.47-.87,3.34-.68,4.61.47h0c.29-.07.59-.1.89-.11,2.02-.02,3.69,1.54,3.82,3.55,1.25.5,2.07,1.71,2.08,3.06,0,.46-.09.91-.28,1.32.32.51.49,1.1.49,1.7-.02,1.64-1.21,3.02-2.83,3.27-.08.02-.17.02-.25.02h0Z"/>
  <path class="st0" d="M79.58,93.41c-4.98,0-9.46-3-11.37-7.6-1.91-4.6-.85-9.89,2.67-13.41,3.52-3.52,8.81-4.57,13.41-2.67,4.6,1.9,7.6,6.39,7.6,11.37-.01,6.79-5.52,12.29-12.31,12.3h0ZM79.58,71.71h0c-3.79,0-7.21,2.29-8.66,5.79-1.45,3.5-.65,7.54,2.03,10.22,2.68,2.68,6.71,3.48,10.22,2.03,3.5-1.45,5.79-4.87,5.79-8.66,0-5.18-4.2-9.37-9.38-9.38h0Z"/>
  <path class="st0" d="M99.53,110.08h-39.91c-.43,0-.84-.19-1.12-.52-.28-.33-.4-.77-.32-1.2,1.21-6.75,5.54-12.52,11.66-15.59,6.12-3.07,13.34-3.07,19.47,0,6.13,3.07,10.45,8.84,11.66,15.59.08.43-.04.87-.32,1.2-.28.33-.69.52-1.12.52h0ZM61.44,107.15h36.25c-1.48-5.31-5.22-9.71-10.23-12.02-5.01-2.32-10.78-2.32-15.79,0-5.01,2.31-8.75,6.71-10.23,12.02h0Z"/>
  <path class="st0" d="M59.62,60.14c-.55,0-1.06-.31-1.31-.8-.25-.49-.2-1.08.13-1.53l7.27-9.89h-1.53c-2.21,0-4-1.79-4-4v-15c0-2.2,1.8-3.99,4-3.99h29.75c2.21,0,4,1.79,4,4v15c0,2.21-1.79,4-4,4h-9.77l-23.89,12.06c-.2.1-.43.16-.66.16h0ZM64.18,27.86c-.59,0-1.07.48-1.07,1.07v15c0,.59.48,1.07,1.07,1.07h4.43c.55,0,1.05.31,1.3.8s.2,1.08-.13,1.52l-5.35,7.29,18.71-9.46c.2-.1.43-.16.66-.16h10.12c.59,0,1.07-.48,1.07-1.07v-15.01c0-.59-.48-1.06-1.07-1.06h-29.74Z"/>
  <path class="st0" d="M90.34,34.12h-20.93c-.81,0-1.46-.66-1.46-1.47s.66-1.46,1.46-1.46h20.93c.81,0,1.46.65,1.46,1.46s-.66,1.47-1.46,1.47Z"/>
  <path class="st0" d="M90.34,41.65h-20.93c-.81,0-1.46-.66-1.46-1.46s.66-1.46,1.46-1.46h20.93c.81,0,1.46.66,1.46,1.46s-.66,1.46-1.46,1.46Z"/>
  <path class="st0" d="M38.86,99.34c-3.89,0-7.56-1.12-10.34-3.15-2.93-2.13-4.53-5.02-4.53-8.11s1.61-5.98,4.53-8.11c2.78-2.03,6.45-3.15,10.34-3.15s7.56,1.12,10.35,3.15c2.92,2.13,4.52,5.02,4.52,8.11,0,2.72-1.28,5.34-3.61,7.38h0c-.61.53-1.54.47-2.07-.14-.54-.61-.47-1.54.14-2.07,1.19-1.04,2.61-2.79,2.61-5.17,0-4.59-5.35-8.33-11.94-8.33s-11.94,3.73-11.94,8.33,5.34,8.33,11.93,8.33c.81,0,1.46.66,1.46,1.46s-.66,1.46-1.46,1.46h0Z"/>
  <path class="st0" d="M53.48,102.45c-.1,0-.21-.01-.3-.03l-14.61-3.11h0c-.79-.17-1.3-.95-1.13-1.73.17-.79.95-1.3,1.74-1.13l14.61,3.11h0c.73.16,1.22.84,1.14,1.59-.08.74-.7,1.31-1.45,1.31h0Z"/>
  <path class="st0" d="M53.48,102.45c-.5,0-.96-.25-1.23-.66l-4.32-6.63c-.22-.32-.3-.72-.22-1.11.08-.39.3-.72.64-.94.33-.21.73-.29,1.11-.2.39.09.72.32.93.66l4.32,6.63h0c.29.45.32,1.02.06,1.5-.25.47-.75.77-1.29.77h0Z"/>
  <path class="st0" d="M42.17,86.45h-7.46c-.81,0-1.46-.66-1.46-1.46s.66-1.46,1.46-1.46h7.46,0c.81,0,1.47.66,1.47,1.46s-.66,1.46-1.47,1.46Z"/>
  <path class="st0" d="M42.17,92.65h-7.46c-.81,0-1.46-.66-1.46-1.47s.66-1.46,1.46-1.46h7.46,0c.81,0,1.47.65,1.47,1.46s-.66,1.47-1.47,1.47Z"/>
</svg>