<?xml version="1.0" encoding="UTF-8"?>
<svg id="Layer_1" xmlns="http://www.w3.org/2000/svg" version="1.1" viewBox="0 0 96 120">
  <!-- Generator: Adobe Illustrator 29.8.2, SVG Export Plug-In . SVG Version: 2.1.1 Build 3)  -->
  <defs>
    <style>
      .st0 {
        stroke: #000;
        stroke-miterlimit: 10;
      }
    </style>
  </defs>
  <path class="st0" d="M91.83,102.28h-1.09v-60.61c0-.65-.52-1.17-1.17-1.17h-12.28c-.64,0-1.17.52-1.17,1.17v60.61h-3.1v-36.26c0-.65-.52-1.17-1.17-1.17h-12.28c-.65,0-1.17.52-1.17,1.17v2.05c0,.65.52,1.17,1.17,1.17s1.17-.52,1.17-1.17v-.88h9.94v35.09h-9.94v-5.82c0-.64-.52-1.17-1.17-1.17s-1.17.52-1.17,1.17v5.82h-3.1v-5.45c5.33-2.68,9-8.2,9-14.57s-3.67-11.88-8.99-14.57v-11.29c0-.65-.52-1.17-1.17-1.17h-12.28c-.65,0-1.17.52-1.17,1.17v11.29c-5.33,2.68-8.99,8.2-8.99,14.57s3.67,11.88,8.99,14.57v5.45h-3.1v-5.82c0-.64-.52-1.17-1.17-1.17s-1.17.52-1.17,1.17v5.82h-9.94v-27.19h6.38c.65,0,1.17-.52,1.17-1.17s-.52-1.17-1.17-1.17h-7.55c-.65,0-1.17.52-1.17,1.17v28.36h-3.1v-17.39c0-.64-.52-1.17-1.17-1.17H6.42c-.64,0-1.17.52-1.17,1.17v17.39h-1.09c-.65,0-1.17.52-1.17,1.17s.52,1.17,1.17,1.17h87.66c.64,0,1.17-.52,1.17-1.17s-.52-1.17-1.17-1.17ZM78.47,42.84h9.94v59.44h-9.94v-59.44ZM43.03,57.58h9.94v9.16c-1.57-.5-3.24-.78-4.97-.78s-3.4.27-4.97.78c0,0,0-9.16,0-9.16ZM34.03,82.27c0-7.7,6.26-13.97,13.97-13.97s13.97,6.26,13.97,13.97-6.26,13.97-13.97,13.97-13.97-6.27-13.97-13.97ZM43.03,97.79c1.57.5,3.24.78,4.97.78s3.4-.27,4.97-.78v4.49h-9.94s0-4.49,0-4.49ZM7.59,86.05h9.94v16.23H7.59s0-16.23,0-16.23ZM12.56,69.69c3.06,0,5.55-2.49,5.55-5.55,0-.65-.11-1.28-.32-1.86l8.5-5.26c1.01,1.05,2.43,1.7,3.99,1.7,3.06,0,5.55-2.49,5.55-5.55,0-1.1-.32-2.12-.87-2.98l10.01-9.89c.87.57,1.92.91,3.03.91,1.64,0,3.17-.72,4.21-1.93l8.19,4.44c-.15.5-.22,1.03-.22,1.56,0,3.06,2.49,5.55,5.55,5.55s5.55-2.49,5.55-5.55c0-1.42-.54-2.71-1.41-3.69l11.34-15.58c.69.31,1.45.48,2.25.48,3.06,0,5.55-2.49,5.55-5.55s-2.49-5.55-5.55-5.55-5.55,2.49-5.55,5.55c0,1.42.53,2.71,1.41,3.69l-11.34,15.58c-.69-.31-1.45-.48-2.25-.48-1.64,0-3.17.72-4.21,1.93l-8.19-4.44c.15-.5.22-1.03.22-1.56,0-3.06-2.49-5.55-5.55-5.55s-5.55,2.49-5.55,5.55c0,1.1.32,2.12.87,2.98l-10.01,9.89c-.87-.57-1.92-.9-3.03-.9-3.06,0-5.55,2.49-5.55,5.55,0,.65.11,1.28.32,1.86l-8.5,5.26c-1.01-1.05-2.43-1.7-3.99-1.7-3.06,0-5.55,2.49-5.55,5.55s2.49,5.55,5.55,5.55ZM83.44,17.72c1.77,0,3.21,1.44,3.21,3.21s-1.44,3.21-3.21,3.21-3.21-1.44-3.21-3.21,1.44-3.21,3.21-3.21ZM62.9,43.75c.56-1.04,1.64-1.68,2.82-1.68,1.77,0,3.21,1.44,3.21,3.21s-1.44,3.21-3.21,3.21-3.21-1.44-3.21-3.21c0-.53.13-1.06.39-1.53ZM48,32.46c1.77,0,3.21,1.44,3.21,3.21,0,.53-.13,1.06-.39,1.53-.56,1.04-1.64,1.68-2.82,1.68-1.77,0-3.21-1.44-3.21-3.21s1.44-3.21,3.21-3.21ZM30.28,49.97c1.77,0,3.21,1.44,3.21,3.21s-1.44,3.21-3.21,3.21-3.21-1.44-3.21-3.21c0-1.77,1.44-3.21,3.21-3.21ZM12.56,60.93c1.77,0,3.21,1.44,3.21,3.21s-1.44,3.21-3.21,3.21-3.21-1.44-3.21-3.21,1.44-3.21,3.21-3.21ZM48,83.44c-.65,0-1.17-.52-1.17-1.17v-11.72c0-.65.52-1.17,1.17-1.17s1.17.52,1.17,1.17v10.55h8.95c.65,0,1.17.52,1.17,1.17s-.52,1.17-1.17,1.17h-10.12Z"/>
</svg>