<?xml version="1.0" encoding="UTF-8"?>
<svg id="Layer_1" xmlns="http://www.w3.org/2000/svg" version="1.1" viewBox="0 0 110 135">
  <!-- Generator: Adobe Illustrator 29.8.2, SVG Export Plug-In . SVG Version: 2.1.1 Build 3)  -->
  <defs>
    <style>
      .st0 {
        fill-rule: evenodd;
        stroke: #000;
        stroke-miterlimit: 10;
        stroke-width: 1.5px;
      }
    </style>
  </defs>
  <path class="st0" d="M59.41,49.59c1.81.45,3.54,1.16,5.13,2.13l4.43-3.25c.27-.2.65-.17.89.07l4.11,4.11c.25.25.27.66.04.92l-3.22,4.39c.96,1.59,1.68,3.32,2.13,5.13l5.43.83c.34.05.58.34.58.68v5.81c0,.35-.27.64-.61.68l-5.4.83c-.45,1.81-1.16,3.54-2.13,5.13l3.25,4.43c.2.27.17.65-.07.89l-4.11,4.11c-.25.25-.66.27-.92.04l-4.39-3.22c-1.59.96-3.32,1.68-5.13,2.13l-.83,5.43c-.05.34-.34.58-.68.58h-5.81c-.35,0-.64-.27-.68-.61l-.83-5.4c-1.81-.45-3.54-1.16-5.13-2.13l-4.43,3.25c-.27.2-.65.17-.89-.07l-4.11-4.11c-.25-.25-.27-.66-.04-.92l3.22-4.39c-.96-1.59-1.68-3.32-2.13-5.13l-5.43-.83c-.34-.05-.58-.34-.58-.68v-5.81c0-.35.27-.64.61-.68l5.4-.83c.45-1.81,1.17-3.54,2.13-5.13l-3.25-4.43c-.2-.27-.17-.65.07-.89l4.11-4.11c.25-.25.66-.27.92-.04l4.39,3.22c1.59-.96,3.32-1.68,5.13-2.13l.83-5.43c.05-.34.34-.58.68-.58h5.81c.35,0,.64.27.68.61l.83,5.4ZM37.78,49.32l-5.6-5.6c-.64-.64-1.6.33-.96.96l5.6,5.6c.63.64,1.6-.33.96-.96ZM36.81,84.72l-5.6,5.6c-.64.64.33,1.6.96.96l5.6-5.6c.64-.63-.33-1.6-.96-.96ZM72.22,85.69l5.6,5.6c.64.64,1.6-.33.96-.96l-5.6-5.6c-.63-.64-1.6.33-.96.96ZM73.19,50.29l5.6-5.6c.64-.64-.33-1.6-.96-.96l-5.6,5.59c-.63.64.33,1.6.97.97ZM29.83,66.82c.9,0,.9,1.37,0,1.37h-5.86c-.9,0-.9-1.37,0-1.37h5.86ZM54.32,92.67c0-.9,1.37-.9,1.37,0v5.86c0,.9-1.37.9-1.37,0v-5.86ZM80.13,68.19c-.9,0-.9-1.37,0-1.37h5.94c.9,0,.9,1.37,0,1.37h-5.94ZM55.68,42.34c0,.9-1.37.9-1.37,0v-5.86c0-.9,1.37-.9,1.37,0v5.86ZM15.48,66.82h5.39l-2.69-4.66h-5.38l2.69,4.66ZM22.6,67.11c.18.25.16.54,0,.79l-1.71,2.96-1.74,3.02c-.12.22-.36.34-.59.34h-6.96c-.27,0-.5-.16-.61-.39-.48-.91-1.24-2.09-1.73-3.01l-1.72-2.98c-.12-.22-.12-.48,0-.69l1.73-3.01c.24-.42,1.7-3.01,1.86-3.16.13-.12.3-.2.48-.2h6.96c.27,0,.5.16.61.38.48.91,1.24,2.09,1.73,3.01l1.68,2.92ZM20.86,68.19h-5.39l-2.69,4.66h5.39l1.54-2.67,1.15-1.99ZM11.61,72.17l-2.7-4.66,1.54-2.67,1.15-1.99,2.7,4.66-2.69,4.66ZM54.32,107.03v-5.39l-4.66,2.69v5.39l4.66-2.69ZM54.61,99.9c.25-.18.54-.16.79,0l2.96,1.71,3.02,1.74c.22.12.34.36.34.59v6.96c0,.27-.16.5-.38.61-.91.48-2.09,1.24-3.01,1.73l-2.98,1.72c-.22.12-.48.12-.69,0l-3.01-1.73c-.42-.24-3.01-1.7-3.16-1.86-.12-.13-.2-.3-.2-.48v-6.96c0-.27.16-.5.38-.61.91-.48,2.09-1.24,3.01-1.73l2.92-1.68ZM55.68,101.64v5.39l4.66,2.69v-5.39l-2.67-1.54-1.99-1.15ZM59.66,110.9l-4.66,2.7-2.67-1.54-1.99-1.15,4.66-2.7,4.66,2.69ZM94.52,68.19h-5.39l2.69,4.66h5.39l-2.69-4.66ZM87.4,67.9c-.18-.25-.16-.54,0-.79l1.71-2.96,1.74-3.02c.12-.22.36-.34.59-.34h6.96c.27,0,.5.16.61.38.48.91,1.24,2.09,1.73,3.01l1.72,2.98c.12.22.12.48,0,.69l-1.73,3.01c-.24.42-1.7,3.01-1.86,3.16-.13.12-.3.2-.48.2h-6.96c-.27,0-.5-.16-.61-.38-.48-.91-1.24-2.09-1.73-3.01l-1.68-2.92ZM89.14,66.82h5.39l2.69-4.66h-5.39l-1.54,2.67-1.15,1.99ZM98.39,62.84l2.7,4.66-1.54,2.67-1.15,1.99-2.7-4.66,2.69-4.66ZM55.68,27.98v5.39l4.66-2.69v-5.38l-4.66,2.69ZM55.39,35.11c-.25.18-.54.16-.79,0l-2.96-1.71-3.02-1.74c-.22-.12-.34-.36-.34-.59v-6.96c0-.27.16-.5.39-.61.91-.48,2.09-1.24,3.01-1.73l2.98-1.72c.22-.12.48-.12.69,0l3.01,1.73c.42.24,3.01,1.7,3.16,1.86.12.13.2.3.2.48v6.96c0,.27-.16.5-.38.61-.91.48-2.09,1.24-3.01,1.73l-2.92,1.68ZM54.32,33.37v-5.39l-4.66-2.69v5.39l2.67,1.54,1.99,1.15ZM50.34,24.11l4.66-2.7,2.67,1.54,1.99,1.15-4.66,2.7-4.66-2.69ZM88.82,94.88c3.55,0,6.44,2.88,6.44,6.44s-2.88,6.44-6.44,6.44-6.44-2.88-6.44-6.44c0-3.55,2.88-6.44,6.44-6.44ZM92.4,97.74c-3.19-3.19-8.66-.92-8.66,3.59s5.47,6.77,8.66,3.59c1.98-1.98,1.98-5.19,0-7.17h0ZM91.56,91.01l-.44-2.85h0c-.05-.33-.33-.58-.67-.58h-3.21c-.36-.03-.68.22-.73.58l-.44,2.85c-.91.24-1.79.61-2.6,1.08l-2.29-1.68c-.27-.23-.67-.21-.92.04l-2.31,2.31c-.23.23-.27.61-.07.89l1.71,2.33c-.47.81-.84,1.69-1.08,2.6l-2.85.44h0c-.33.05-.58.34-.58.68v3.21c-.03.36.22.68.58.73l2.85.44c.24.91.61,1.79,1.08,2.6l-1.68,2.29c-.23.27-.21.67.04.92l2.31,2.31c.23.23.61.27.89.07l2.33-1.71c.81.47,1.69.84,2.6,1.08l.44,2.85h0c.05.33.33.58.67.58h3.21c.36.03.68-.22.73-.58l.44-2.85c.91-.24,1.79-.61,2.6-1.08l2.29,1.68c.27.23.67.21.92-.04l2.31-2.31c.23-.23.27-.61.07-.89l-1.71-2.33c.47-.81.84-1.69,1.08-2.6l2.85-.44h0c.33-.05.58-.34.58-.68v-3.21c.03-.36-.22-.68-.58-.73l-2.85-.44c-.24-.91-.61-1.79-1.08-2.6l1.68-2.29c.23-.27.21-.67-.04-.92l-2.31-2.31c-.23-.23-.61-.27-.89-.07l-2.33,1.71c-.82-.47-1.69-.84-2.6-1.08ZM92.37,92.72c-.49-.2-1.01-.37-1.54-.48-.28-.05-.5-.27-.55-.57l-.42-2.73h-2.09l-.42,2.73c-.04.27-.25.5-.53.57-1.07.23-2.1.66-3.02,1.25-.23.15-.54.15-.77-.02l-2.23-1.63-1.48,1.48,1.62,2.21c.18.22.2.54.04.79-.56.88-1.04,1.97-1.25,3-.05.28-.27.5-.57.55l-2.73.42v2.09l2.73.42c.27.04.5.25.57.53.23,1.07.66,2.1,1.25,3.02.15.23.15.54-.02.77l-1.63,2.23,1.48,1.48,2.21-1.62c.22-.18.54-.2.79-.04.88.56,1.98,1.04,3,1.25.28.05.5.27.55.57l.42,2.73h2.09l.42-2.73c.04-.27.25-.5.53-.57,1.07-.23,2.1-.66,3.02-1.25.23-.15.54-.15.77.02l2.23,1.63,1.48-1.48-1.62-2.21c-.18-.22-.2-.54-.04-.79.56-.88,1.04-1.98,1.25-3,.05-.28.27-.5.57-.55l2.73-.42v-2.09l-2.73-.42c-.27-.04-.5-.25-.57-.53-.23-1.07-.66-2.1-1.25-3.02-.15-.23-.15-.54.02-.77l1.63-2.23-1.48-1.48-2.21,1.62c-.22.18-.54.2-.79.04-.45-.29-.94-.55-1.45-.76ZM21.18,94.88c3.55,0,6.44,2.88,6.44,6.44s-2.88,6.44-6.44,6.44-6.44-2.88-6.44-6.44,2.88-6.44,6.44-6.44ZM24.77,97.74c-3.18-3.19-8.66-.92-8.66,3.59s5.47,6.77,8.66,3.59c1.98-1.98,1.98-5.19,0-7.17h0ZM23.93,91.01l-.43-2.83c-.04-.34-.33-.61-.68-.61h-3.27c-.33,0-.62.24-.68.58l-.44,2.85c-.91.24-1.79.61-2.6,1.08l-2.29-1.68c-.27-.23-.67-.21-.92.04l-2.31,2.31c-.23.23-.27.61-.07.89l1.71,2.33c-.47.81-.84,1.69-1.08,2.6l-2.83.43c-.34.04-.61.33-.61.68v3.27c0,.33.24.62.58.68l2.85.44c.24.91.61,1.79,1.08,2.6l-1.68,2.29c-.23.27-.21.67.04.92l2.31,2.31c.23.23.61.27.89.07l2.33-1.71c.81.47,1.69.84,2.6,1.08l.43,2.83c.04.34.33.61.68.61h3.27c.33,0,.62-.24.68-.58l.44-2.85c.91-.24,1.79-.61,2.6-1.08l2.29,1.68c.27.23.67.21.92-.04l2.31-2.31c.23-.23.27-.61.07-.89l-1.71-2.33c.47-.81.84-1.69,1.08-2.6l2.83-.43c.34-.04.61-.33.61-.68v-3.27c0-.33-.24-.62-.58-.68l-2.85-.44c-.24-.91-.61-1.79-1.08-2.6l1.68-2.29c.23-.27.21-.67-.04-.92l-2.31-2.31c-.23-.23-.61-.27-.89-.07l-2.33,1.71c-.82-.47-1.69-.84-2.61-1.08ZM24.74,92.72c-.49-.2-1.01-.37-1.54-.48-.28-.05-.5-.27-.55-.57l-.42-2.73h-2.09l-.42,2.73c-.04.27-.25.5-.53.57-1.07.23-2.1.66-3.02,1.25-.23.15-.54.15-.77-.02l-2.23-1.63-1.48,1.48,1.62,2.21c.18.22.2.54.04.79-.56.88-1.04,1.97-1.25,3-.05.28-.27.5-.57.55l-2.72.42v2.09l2.73.42c.27.04.5.25.57.53.23,1.07.66,2.1,1.25,3.02.15.23.15.54-.02.77l-1.63,2.23,1.48,1.48,2.21-1.62c.22-.18.54-.2.79-.04.88.56,1.98,1.04,3,1.25.28.05.5.27.55.57l.42,2.73h2.09l.42-2.73c.04-.27.25-.5.53-.57,1.07-.23,2.1-.66,3.02-1.25.23-.15.54-.15.77.02l2.23,1.63,1.48-1.48-1.62-2.21c-.18-.22-.2-.54-.04-.79.56-.88,1.04-1.98,1.25-3,.05-.28.27-.5.57-.55l2.73-.42v-2.09l-2.73-.42c-.27-.04-.5-.25-.57-.53-.23-1.07-.66-2.1-1.25-3.02-.15-.23-.15-.54.02-.77l1.63-2.23-1.48-1.48-2.21,1.62c-.22.18-.54.2-.79.04-.46-.3-.95-.55-1.46-.77h0ZM88.81,27.25c3.55,0,6.44,2.88,6.44,6.44s-2.88,6.44-6.44,6.44-6.44-2.88-6.44-6.44c0-3.55,2.88-6.44,6.44-6.44ZM92.4,30.1c-3.19-3.19-8.66-.92-8.66,3.59s5.47,6.77,8.66,3.59c1.98-1.98,1.98-5.19,0-7.17h0ZM91.56,23.38l-.43-2.83c-.04-.34-.33-.61-.68-.61h-3.27c-.33,0-.62.24-.68.58l-.44,2.85c-.91.24-1.79.61-2.6,1.08l-2.29-1.68c-.27-.23-.67-.21-.92.04l-2.31,2.31c-.23.23-.27.61-.07.89l1.71,2.33c-.47.81-.84,1.69-1.08,2.6l-2.83.43c-.34.04-.61.33-.61.68v3.27c0,.33.24.62.58.68l2.85.44c.24.91.61,1.79,1.08,2.6l-1.68,2.29c-.23.27-.21.67.04.92l2.31,2.31c.23.23.61.27.89.07l2.33-1.71c.81.47,1.69.84,2.6,1.08l.43,2.83c.04.34.33.61.68.61h3.27c.33,0,.62-.24.68-.58l.44-2.85c.91-.24,1.79-.61,2.6-1.08l2.29,1.68c.27.23.67.21.92-.04l2.31-2.31c.23-.23.27-.61.07-.89l-1.71-2.33c.47-.81.84-1.69,1.08-2.6l2.83-.43c.34-.04.61-.33.61-.68v-3.26c0-.33-.24-.62-.58-.68l-2.85-.44c-.24-.91-.61-1.79-1.08-2.6l1.68-2.29c.23-.27.21-.67-.04-.92l-2.31-2.31c-.23-.23-.61-.27-.89-.07l-2.33,1.71c-.82-.47-1.69-.84-2.6-1.08ZM92.37,25.1c-.49-.2-1.01-.37-1.54-.48-.28-.05-.5-.27-.55-.57l-.42-2.73h-2.09l-.42,2.73c-.04.27-.25.5-.53.57-1.07.23-2.1.66-3.02,1.25-.23.15-.54.15-.77-.02l-2.23-1.63-1.48,1.48,1.62,2.21c.18.22.2.54.04.79-.56.88-1.04,1.97-1.25,3-.05.28-.27.5-.57.55l-2.73.42v2.09l2.73.42c.27.04.5.25.57.53.23,1.07.66,2.1,1.25,3.02.15.23.15.54-.02.77l-1.63,2.23,1.48,1.48,2.21-1.62c.22-.18.54-.2.79-.04.88.56,1.98,1.04,3,1.25.28.05.5.27.55.57l.42,2.73h2.09l.42-2.73c.04-.27.25-.5.53-.57,1.07-.23,2.1-.66,3.02-1.25.23-.15.54-.15.77.02l2.23,1.63,1.48-1.48-1.62-2.21c-.18-.22-.2-.54-.04-.79.56-.88,1.04-1.98,1.25-3,.05-.28.27-.5.57-.55l2.73-.42v-2.1s-2.72-.42-2.72-.42c-.27-.04-.5-.25-.57-.53-.23-1.07-.66-2.1-1.25-3.02-.15-.23-.15-.54.02-.77l1.63-2.23-1.48-1.48-2.21,1.62c-.22.18-.54.2-.79.04-.46-.29-.95-.55-1.46-.76ZM21.18,27.25c3.55,0,6.44,2.88,6.44,6.44s-2.88,6.44-6.44,6.44-6.44-2.88-6.44-6.44,2.88-6.44,6.44-6.44ZM24.77,30.1c-3.18-3.19-8.66-.92-8.66,3.59s5.47,6.77,8.66,3.59c1.98-1.98,1.98-5.19,0-7.17h0ZM23.93,23.38l-.43-2.83c-.04-.34-.33-.61-.68-.61h-3.27c-.33,0-.62.25-.68.59l-.44,2.85c-.91.24-1.79.61-2.6,1.08l-2.29-1.68c-.27-.23-.67-.21-.92.04l-2.31,2.31c-.23.23-.27.61-.07.89l1.71,2.33c-.47.81-.84,1.69-1.08,2.6l-2.83.43c-.34.04-.61.33-.61.68v3.27c0,.33.24.62.58.68l2.85.44c.24.91.61,1.79,1.08,2.6l-1.68,2.29c-.23.27-.21.67.04.92l2.31,2.31c.23.23.61.27.89.07l2.33-1.71c.81.47,1.69.84,2.6,1.08l.43,2.83c.04.34.33.61.68.61h3.27c.33,0,.62-.24.68-.58l.44-2.85c.91-.24,1.79-.61,2.6-1.08l2.29,1.68c.27.23.67.21.92-.04l2.31-2.31c.23-.23.27-.61.07-.89l-1.71-2.33c.47-.81.84-1.69,1.08-2.6l2.83-.43c.34-.04.61-.33.61-.68v-3.27c0-.33-.24-.62-.58-.68l-2.85-.44c-.24-.91-.61-1.79-1.08-2.6l1.68-2.29c.23-.27.21-.67-.04-.92l-2.31-2.31c-.23-.23-.61-.27-.89-.07l-2.33,1.71c-.82-.47-1.7-.84-2.61-1.08ZM24.74,25.1c-.49-.2-1.01-.37-1.54-.48-.28-.05-.5-.27-.55-.57l-.42-2.73h-2.09l-.42,2.73c-.04.27-.25.5-.53.57-1.07.23-2.1.66-3.02,1.25-.23.15-.54.15-.77-.02l-2.23-1.63-1.48,1.48,1.62,2.21c.18.22.2.54.04.79-.56.88-1.04,1.97-1.25,3-.05.28-.27.5-.57.55l-2.72.42v2.09l2.73.42c.27.04.5.25.57.53.23,1.07.66,2.1,1.25,3.02.15.23.15.54-.02.77l-1.63,2.23,1.48,1.48,2.21-1.62c.22-.18.54-.2.79-.04.88.56,1.98,1.04,3,1.25.28.05.5.27.55.57l.42,2.73h2.09l.42-2.73c.04-.27.25-.5.53-.57,1.07-.23,2.1-.66,3.02-1.25.23-.15.54-.15.77.02l2.23,1.63,1.48-1.48-1.62-2.21c-.18-.22-.2-.54-.04-.79.56-.88,1.04-1.97,1.25-3,.05-.28.27-.5.57-.55l2.73-.42v-2.1l-2.73-.42c-.27-.04-.5-.25-.57-.53-.23-1.07-.66-2.1-1.25-3.02-.15-.23-.15-.54.02-.77l1.63-2.23-1.48-1.48-2.21,1.62c-.22.18-.54.2-.79.04-.46-.29-.95-.55-1.46-.76h0ZM55,56.58c-6.04,0-10.93,4.89-10.93,10.93s4.89,10.93,10.93,10.93,10.93-4.89,10.93-10.93-4.89-10.93-10.93-10.93ZM61.76,60.75c-3.73-3.73-9.79-3.73-13.52,0-3.73,3.73-3.73,9.79,0,13.52,3.73,3.73,9.79,3.73,13.52,0,3.73-3.73,3.73-9.79,0-13.52ZM61.53,51.72c-.91-.38-1.87-.68-2.85-.9-.28-.05-.5-.27-.55-.57l-.81-5.3h-4.64l-.81,5.3c-.04.27-.25.5-.53.57-1.97.43-3.86,1.22-5.55,2.3-.23.15-.54.15-.77-.02l-4.33-3.18-3.28,3.28,3.16,4.31c.18.22.2.54.04.79-1.04,1.61-1.91,3.64-2.3,5.53-.05.28-.27.5-.57.55l-5.3.81v4.64l5.3.81c.27.04.5.25.57.53.43,1.97,1.22,3.86,2.3,5.55.15.23.15.54-.02.77l-3.18,4.33,3.28,3.28,4.31-3.16c.22-.18.54-.2.79-.04,1.61,1.04,3.64,1.91,5.53,2.3.28.05.5.27.55.57l.81,5.3h4.64l.81-5.3c.04-.27.25-.5.53-.57,1.97-.43,3.86-1.22,5.55-2.3.23-.15.54-.15.77.02l4.33,3.18,3.28-3.28-3.16-4.31c-.18-.22-.2-.54-.04-.79,1.04-1.61,1.91-3.64,2.3-5.53.05-.28.27-.5.57-.55l5.3-.81v-4.64l-5.3-.81c-.27-.04-.5-.25-.57-.53-.43-1.97-1.22-3.86-2.3-5.55-.15-.23-.15-.54.02-.77l3.18-4.33-3.28-3.28-4.31,3.16c-.22.18-.54.2-.79.04-.85-.54-1.74-1.01-2.68-1.4h0Z"/>
</svg>