<?xml version="1.0" encoding="UTF-8"?>
<svg id="Layer_1" xmlns="http://www.w3.org/2000/svg" version="1.1" viewBox="0 0 66 82.5">
  <!-- Generator: Adobe Illustrator 29.8.2, SVG Export Plug-In . SVG Version: 2.1.1 Build 3)  -->
  <defs>
    <style>
      .st0 {
        stroke: #000;
        stroke-miterlimit: 10;
        stroke-width: .3px;
      }
    </style>
  </defs>
  <path class="st0" d="M8.37,29.91h6.08c.52,0,.94-.42.94-.94v-6.08c0-.52-.42-.94-.94-.94h-6.08c-.52,0-.94.42-.94.94v6.08c0,.52.42.94.94.94ZM9.31,23.83h4.2v4.2h-4.2v-4.2Z"/>
  <path class="st0" d="M18.57,29.91h6.08c.52,0,.94-.42.94-.94v-6.08c0-.52-.42-.94-.94-.94h-6.08c-.52,0-.94.42-.94.94v6.08c0,.52.42.94.94.94ZM19.51,23.83h4.2v4.2h-4.2s0-4.2,0-4.2Z"/>
  <path class="st0" d="M14.45,41.36c.52,0,.94-.42.94-.94v-6.08c0-.52-.42-.94-.94-.94h-6.08c-.52,0-.94.42-.94.94v6.08c0,.52.42.94.94.94h6.08ZM9.31,35.28h4.2v4.2h-4.2v-4.2Z"/>
  <path class="st0" d="M18.57,41.36h6.08c.52,0,.94-.42.94-.94v-6.08c0-.52-.42-.94-.94-.94h-6.08c-.52,0-.94.42-.94.94v6.08c0,.52.42.94.94.94ZM19.51,35.28h4.2v4.2h-4.2s0-4.2,0-4.2Z"/>
  <path class="st0" d="M62.66,65.57l-6.37-8.99c1.53-2.06,2.45-4.61,2.45-7.37,0-5.39-3.46-9.98-8.27-11.68v-5.74c0-.52-.42-.94-.94-.94h-3.29v-3.76c0-.52-.42-.94-.94-.94h-1.5v-5.25c0-.52-.42-.94-.94-.94s-.94.42-.94.94v5.25h-8.23c-.52,0-.94.42-.94.94v3.76h-2.35v-12.78c0-.52-.42-.94-.94-.94h-2.67v-5.39c0-.52-.42-.94-.94-.94H7.18c-.52,0-.94.42-.94.94v5.39h-2.67c-.52,0-.94.42-.94.94v47.55c0,.52.42.94.94.94h45.95c.52,0,.94-.42.94-.94v-3.83l5.85,8.27c.6.85,1.49,1.41,2.52,1.58.22.04.44.06.66.06.8,0,1.57-.25,2.24-.72,1.75-1.23,2.17-3.66.93-5.41ZM34.62,28.03h9.73v2.82h-9.73v-2.82ZM51.75,60.36c1.21-.59,2.32-1.37,3.27-2.31l4.59,6.48-3.24,2.35-4.62-6.52ZM56.86,49.21c0,5.8-4.72,10.53-10.53,10.53s-10.53-4.72-10.53-10.53,4.72-10.53,10.53-10.53c5.8.01,10.53,4.73,10.53,10.53ZM48.58,32.73v4.29c-.73-.14-1.48-.22-2.25-.22-6.84,0-12.41,5.57-12.41,12.41,0,3.25,1.27,6.21,3.33,8.43v7.04h-6.86v-31.95h18.19ZM8.12,12.68h16.78v4.45H8.12v-4.45ZM4.51,19.01h24v12.76h0v32.9h-5.16v-18.25c0-.52-.42-.94-.94-.94h-11.8c-.52,0-.94.42-.94.94v18.26h-5.16V19.01ZM11.55,64.68v-17.32h9.92v17.32h-9.92ZM39.13,64.68v-5.38c2.03,1.46,4.52,2.32,7.2,2.32.77,0,1.52-.08,2.25-.22v3.28s-9.45,0-9.45,0ZM60.65,69.45c-.44.31-.96.43-1.49.34-.53-.09-.99-.38-1.3-.82l-.39-.55,3.24-2.35.42.59c.63.9.42,2.15-.48,2.79Z"/>
  <path class="st0" d="M43.84,48.9c-.37-.37-.96-.37-1.33,0-.37.37-.37.96,0,1.33l1.43,1.43c.18.18.42.28.67.28s.49-.1.67-.28l4.58-4.58c.37-.37.37-.96,0-1.33-.37-.37-.96-.37-1.33,0l-3.92,3.92-.77-.77Z"/>
  <path class="st0" d="M37.68,49.21c0,4.77,3.88,8.65,8.65,8.65s8.65-3.88,8.65-8.65-3.88-8.65-8.65-8.65c-4.77.01-8.65,3.89-8.65,8.65ZM53.09,49.21c0,3.73-3.03,6.76-6.76,6.76s-6.76-3.03-6.76-6.76,3.03-6.76,6.76-6.76,6.76,3.03,6.76,6.76Z"/>
</svg>