<?xml version="1.0" encoding="UTF-8"?>
<svg id="Layer_1" xmlns="http://www.w3.org/2000/svg" version="1.1" viewBox="0 0 492 615">
  <!-- Generator: Adobe Illustrator 29.8.2, SVG Export Plug-In . SVG Version: 2.1.1 Build 3)  -->
  <defs>
    <style>
      .st0 {
        fill-rule: evenodd;
        stroke: #000;
        stroke-miterlimit: 10;
        stroke-width: 3px;
      }
    </style>
  </defs>
  <path class="st0" d="M246.05,491.85h-30c-3.2,0-5.8-2.6-5.8-5.8v-29.5c-15.7-3.7-30.6-9.9-44.3-18.4l-20.9,20.9c-1.1,1.1-2.5,1.7-4.1,1.7s-3-.6-4.1-1.7l-42.4-42.4c-2.2-2.2-2.2-5.9,0-8.1l20.9-20.9c-8.5-13.8-14.6-28.6-18.4-44.3h-29.5c-3.2,0-5.8-2.6-5.8-5.8v-60c0-3.2,2.6-5.8,5.8-5.8h29.5c3.7-15.7,9.9-30.6,18.4-44.3l-20.9-20.9c-2.2-2.2-2.2-5.9,0-8.1l42.4-42.4c2.2-2.2,5.9-2.2,8.1,0l20.9,20.9c13.8-8.5,28.6-14.6,44.3-18.4v-29.6c0-3.2,2.6-5.8,5.8-5.8h30c3.2,0,5.8,2.6,5.8,5.8v84c0,3.2-2.6,5.8-5.8,5.8-48.9,0-88.8,39.8-88.8,88.8s39.8,88.8,88.8,88.8c3.2,0,5.8,2.6,5.8,5.8v84c0,3.1-2.6,5.7-5.7,5.7h0ZM221.75,480.25h18.5v-72.7c-11.5-.6-22.7-3.2-33.3-7.7-11.9-5.1-22.7-12.3-31.9-21.5s-16.4-19.9-21.5-31.9c-5.2-12.4-7.9-25.5-7.9-39s2.7-26.7,7.9-39c5.1-11.9,12.3-22.7,21.5-31.9s19.9-16.4,31.9-21.5c10.6-4.5,21.8-7.1,33.3-7.7v-72.7h-18.5v28.4c0,2.7-1.9,5.1-4.6,5.6-17.5,3.6-33.9,10.4-48.9,20.3-2.3,1.5-5.3,1.2-7.2-.7l-20.1-20.1-34.3,34.3,20.1,20.1c1.9,1.9,2.2,5,.7,7.2-9.8,15-16.7,31.4-20.3,48.9-.6,2.7-2.9,4.6-5.6,4.6h-28.3v48.5h28.4c2.7,0,5.1,1.9,5.6,4.6,3.6,17.5,10.4,33.9,20.3,48.9,1.5,2.3,1.2,5.3-.7,7.2l-20.1,20.1,34.3,34.3,20.1-20.1c1.9-1.9,5-2.2,7.2-.7,15,9.8,31.4,16.7,48.9,20.3,2.7.6,4.6,2.9,4.6,5.6l-.1,28.3h0Z"/>
  <path class="st0" d="M246.05,357.95c-27.8,0-50.5-22.7-50.5-50.5s22.7-50.5,50.5-50.5,50.5,22.7,50.5,50.5-22.7,50.5-50.5,50.5h0ZM246.05,268.55c-21.5,0-39,17.5-39,39s17.5,39,39,39,39-17.5,39-39c-.1-21.6-17.5-39-39-39Z"/>
  <path class="st0" d="M410.85,326.95c-10.7,0-19.5-8.7-19.5-19.5s8.7-19.5,19.5-19.5,19.5,8.7,19.5,19.5-8.8,19.5-19.5,19.5h0ZM410.85,299.55c-4.4,0-8,3.6-8,8s3.6,8,8,8,8-3.6,8-8-3.6-8-8-8Z"/>
  <path class="st0" d="M403.65,244.55c-10.7,0-19.5-8.7-19.5-19.5s8.7-19.5,19.5-19.5,19.5,8.7,19.5,19.5-8.8,19.5-19.5,19.5h0ZM403.65,217.15c-4.4,0-8,3.6-8,8s3.6,8,8,8,8-3.6,8-8-3.6-8-8-8Z"/>
  <path class="st0" d="M386.85,491.85c-10.7,0-19.5-8.7-19.5-19.5s8.7-19.5,19.5-19.5,19.5,8.7,19.5,19.5-8.8,19.5-19.5,19.5h0ZM386.85,464.35c-4.4,0-8,3.6-8,8s3.6,8,8,8,8-3.6,8-8-3.6-8-8-8Z"/>
  <path class="st0" d="M403.65,409.35c-10.7,0-19.5-8.7-19.5-19.5s8.7-19.5,19.5-19.5,19.5,8.7,19.5,19.5-8.8,19.5-19.5,19.5h0ZM403.65,381.95c-4.4,0-8,3.6-8,8s3.6,8,8,8,8-3.6,8-8-3.6-8-8-8Z"/>
  <path class="st0" d="M386.85,162.15c-10.7,0-19.5-8.7-19.5-19.5s8.7-19.5,19.5-19.5,19.5,8.7,19.5,19.5-8.8,19.5-19.5,19.5h0ZM386.85,134.65c-4.4,0-8,3.6-8,8s3.6,8,8,8,8-3.6,8-8-3.6-8-8-8Z"/>
  <path class="st0" d="M397.15,313.25h-106.4c-3.2,0-5.8-2.6-5.8-5.8s2.6-5.8,5.8-5.8h106.4c3.2,0,5.8,2.6,5.8,5.8s-2.6,5.8-5.8,5.8Z"/>
  <path class="st0" d="M277.65,281.65c-1.5,0-2.9-.6-4.1-1.7-2.2-2.2-2.2-5.9,0-8.1l50.8-50.8c1.1-1.1,2.5-1.7,4.1-1.7h61.5c3.2,0,5.8,2.6,5.8,5.8s-2.6,5.8-5.8,5.8h-59.1l-49.1,49c-1.2,1.1-2.6,1.7-4.1,1.7Z"/>
  <path class="st0" d="M389.95,395.65h-61.5c-1.5,0-3-.6-4.1-1.7l-50.8-50.8c-2.2-2.2-2.2-5.9,0-8.1s5.9-2.2,8.1,0l49.1,49.1h59.1c3.2,0,5.8,2.6,5.8,5.8s-2.5,5.7-5.7,5.7Z"/>
  <path class="st0" d="M246.05,268.55c-1.1,0-2.3-.3-3.3-1-2.6-1.8-3.3-5.4-1.5-8l82.4-120.1c1.1-1.6,2.9-2.5,4.7-2.5h44.7c3.2,0,5.8,2.6,5.8,5.8s-2.6,5.8-5.8,5.8h-41.7l-80.6,117.5c-1.1,1.6-2.9,2.5-4.7,2.5Z"/>
  <path class="st0" d="M373.15,478.05h-44.7c-1.9,0-3.7-.9-4.7-2.5l-82.4-120.1c-1.8-2.6-1.1-6.2,1.5-8s6.2-1.1,8,1.5l80.7,117.6h41.7c3.2,0,5.8,2.6,5.8,5.8-.1,3.2-2.7,5.7-5.9,5.7Z"/>
</svg>