<?xml version="1.0" encoding="UTF-8"?>
<svg id="Layer_1" xmlns="http://www.w3.org/2000/svg" version="1.1" viewBox="0 0 100 125">
  <!-- Generator: Adobe Illustrator 29.8.2, SVG Export Plug-In . SVG Version: 2.1.1 Build 3)  -->
  <defs>
    <style>
      .st0 {
        fill-rule: evenodd;
        stroke: #000;
        stroke-miterlimit: 10;
      }
    </style>
  </defs>
  <path class="st0" d="M89.86,77.27c.58.58.59,1.52.01,2.1l-9.21,9.29c-.29.29-.67.44-1.05.44s-.75-.14-1.04-.42l-5.14-5.01c-.59-.57-.6-1.51-.03-2.1.57-.59,1.51-.6,2.1-.03l4.08,3.98,8.17-8.25c.58-.58,1.52-.59,2.1-.01h0ZM52.07,86.53c-.49.26-.79.76-.79,1.31v4.52c0,.7-.57,1.27-1.27,1.27s-1.27-.57-1.27-1.27v-4.52c0-.55-.31-1.06-.79-1.31-1.47-.77-2.38-2.28-2.38-3.94,0-2.45,2-4.45,4.45-4.45s4.45,2,4.45,4.45c0,1.66-.91,3.17-2.38,3.94h0ZM50,75.17c-4.09,0-7.41,3.33-7.41,7.42,0,2.45,1.2,4.71,3.18,6.08v3.69c0,2.34,1.9,4.24,4.24,4.24s4.24-1.9,4.24-4.24v-3.69c1.98-1.38,3.18-3.63,3.18-6.08,0-4.09-3.33-7.42-7.41-7.42h0ZM81.65,95.64c6.98,0,12.66-5.68,12.66-12.66s-5.68-12.66-12.66-12.66-12.66,5.68-12.66,12.66,5.68,12.66,12.66,12.66h0ZM71.56,100.66v-5.76c-3.39-2.87-5.54-7.15-5.54-11.92s2.15-9.05,5.54-11.92c-.03-1.85-1.54-3.34-3.4-3.34H31.84c-1.88,0-3.4,1.53-3.4,3.4v29.55c0,1.88,1.53,3.4,3.4,3.4h36.32c1.88,0,3.4-1.53,3.4-3.4h0ZM50,48.21c-5.37,0-9.74,4.37-9.74,9.74v6.8h-4.51v-6.8c0-7.86,6.39-14.25,14.25-14.25s14.25,6.39,14.25,14.25v6.8h-4.51v-6.8c0-5.37-4.37-9.74-9.74-9.74h0ZM56.77,64.74v-6.8c0-3.73-3.04-6.77-6.77-6.77s-6.77,3.04-6.77,6.77v6.8h13.54ZM25.47,71.11c0-3.51,2.86-6.37,6.37-6.37h.94v-6.8c0-9.49,7.72-17.21,17.22-17.21s17.22,7.72,17.22,17.21v6.8h.94c2.85,0,5.27,1.88,6.08,4.47,2.21-1.19,4.73-1.87,7.41-1.87,3.95,0,7.55,1.47,10.31,3.9,1.54-2.76,2.36-5.85,2.36-9.04,0-8.63-5.86-16.08-14.26-18.13-.4-.1-.74-.36-.95-.72-.2-.36-.24-.79-.11-1.19.36-1.09.55-2.22.55-3.38,0-5.89-4.79-10.68-10.68-10.68-2.16,0-4.24.64-6.02,1.86-.66.45-1.56.3-2.03-.35-3.97-5.43-10.35-8.67-17.07-8.67-11.65,0-21.13,9.48-21.13,21.13,0,.05,0,.09,0,.14v.11c0,.73-.52,1.36-1.24,1.48-8.94,1.45-15.68,9.36-15.68,18.41,0,10.28,8.37,18.65,18.65,18.65h1.13v-9.74h0ZM97.28,62.2c0-4.86-1.68-9.63-4.72-13.45-2.67-3.35-6.31-5.85-10.34-7.15.19-.92.29-1.87.29-2.82,0-7.52-6.12-13.65-13.65-13.65-2.29,0-4.51.56-6.5,1.64-4.56-5.54-11.42-8.81-18.62-8.81-12.96,0-23.56,10.29-24.07,23.12-4.56,1.02-8.7,3.51-11.76,7.1-3.34,3.92-5.18,8.89-5.18,14,0,11.92,9.7,21.62,21.62,21.62h1.13v16.84c0,3.51,2.86,6.37,6.37,6.37h36.32c3.51,0,6.37-2.86,6.37-6.37v-3.78c2.14,1.1,4.56,1.72,7.12,1.72,8.62,0,15.63-7.01,15.63-15.63,0-3.56-1.2-6.85-3.21-9.48,2.1-3.4,3.21-7.28,3.21-11.3Z"/>
</svg>