<?xml version="1.0" encoding="UTF-8"?>
<svg id="Layer_1" xmlns="http://www.w3.org/2000/svg" version="1.1" viewBox="0 0 96 120">
  <!-- Generator: Adobe Illustrator 29.8.2, SVG Export Plug-In . SVG Version: 2.1.1 Build 3)  -->
  <defs>
    <style>
      .st0 {
        stroke: #000;
        stroke-miterlimit: 10;
        stroke-width: 1.1px;
      }
    </style>
  </defs>
  <path class="st0" d="M87.04,38.79h-16.93v-19.39c0-2.42-1.97-4.4-4.4-4.4H30.29c-2.42,0-4.4,1.97-4.4,4.4v19.39H8.96c-3.26,0-5.92,2.66-5.92,5.92v46.01c0,3.26,2.66,5.92,5.92,5.92h31.38l-2.18,6.03h-8.29c-.65,0-1.17.52-1.17,1.17s.52,1.17,1.17,1.17h37c.64,0,1.17-.52,1.17-1.17s-.52-1.17-1.17-1.17h-8.29l-2.18-6.03h30.61c3.26,0,5.92-2.65,5.92-5.92v-46.01c0-3.26-2.65-5.92-5.92-5.92ZM30.29,51.77c-1.14,0-2.06-.92-2.06-2.06v-20.02h39.54v20.01c0,1.13-.92,2.06-2.06,2.06H30.29ZM30.29,17.34h35.42c1.14,0,2.06.92,2.06,2.06v7.96H28.23v-7.96c0-1.13.92-2.06,2.06-2.06ZM8.96,41.13h16.93v8.59c0,2.42,1.97,4.4,4.4,4.4h1.94v13.58h-8.94c-.54-2.59-2.84-4.54-5.58-4.54-3.15,0-5.7,2.56-5.7,5.71s2.56,5.71,5.7,5.71c2.74,0,5.04-1.95,5.58-4.54h10.11c.65,0,1.17-.52,1.17-1.17v-14.75h6v8.53c-2.27.53-3.97,2.57-3.97,5.01,0,2.83,2.31,5.14,5.14,5.14s5.14-2.31,5.14-5.14c0-2.43-1.7-4.48-3.97-5.01v-8.53h10.17v16.67c-2.27.53-3.97,2.57-3.97,5.01,0,2.83,2.31,5.14,5.14,5.14s5.14-2.31,5.14-5.14c0-2.43-1.7-4.48-3.97-5.01v-16.67h6v14.75c0,.65.52,1.17,1.17,1.17h10.11c.54,2.59,2.84,4.54,5.58,4.54,3.15,0,5.71-2.56,5.71-5.7s-2.56-5.71-5.71-5.71c-2.75,0-5.04,1.95-5.58,4.54h-8.94v-13.58h1.94c2.42,0,4.4-1.97,4.4-4.4v-8.59h16.93c1.97,0,3.58,1.61,3.58,3.58v40.89H5.38v-40.89c0-1.98,1.61-3.58,3.58-3.58ZM21.07,68.86c0,1.86-1.51,3.37-3.37,3.37s-3.37-1.51-3.37-3.37,1.51-3.37,3.37-3.37c1.86,0,3.37,1.51,3.37,3.37ZM41.74,64.84c1.55,0,2.8,1.26,2.8,2.8s-1.26,2.8-2.8,2.8-2.8-1.26-2.8-2.8c0-1.55,1.26-2.8,2.8-2.8ZM54.26,72.98c1.55,0,2.8,1.26,2.8,2.8s-1.26,2.8-2.8,2.8-2.8-1.26-2.8-2.8,1.26-2.8,2.8-2.8ZM74.93,68.86c0-1.86,1.51-3.37,3.37-3.37s3.37,1.51,3.37,3.37-1.51,3.37-3.37,3.37-3.37-1.51-3.37-3.37ZM56.12,102.66h-15.46l2.18-6.03h11.11l2.18,6.03ZM87.04,94.3H8.96c-1.97,0-3.58-1.61-3.58-3.58v-2.78h85.23v2.78c0,1.97-1.61,3.58-3.58,3.58ZM42.42,36.57l-3.85,4.17,3.85,4.17c.44.47.41,1.21-.07,1.65-.22.21-.51.31-.79.31-.31,0-.63-.13-.86-.38l-4.58-4.96c-.41-.45-.41-1.14,0-1.59l4.58-4.96c.44-.47,1.18-.5,1.65-.07.47.44.5,1.18.06,1.65ZM59.87,39.94c.41.45.41,1.14,0,1.59l-4.58,4.96c-.23.25-.54.38-.86.38-.28,0-.57-.1-.79-.31-.47-.44-.5-1.18-.07-1.65l3.85-4.17-3.85-4.17c-.44-.47-.41-1.21.07-1.65.47-.44,1.21-.41,1.65.07l4.58,4.96ZM51.09,34.85l-3.95,12.46c-.16.5-.62.82-1.11.82-.12,0-.24-.02-.35-.06-.62-.19-.96-.85-.76-1.47l3.95-12.46c.19-.62.85-.96,1.47-.76.62.19.96.85.76,1.47ZM33.92,25.71c1.85,0,3.36-1.51,3.36-3.36s-1.51-3.36-3.36-3.36-3.36,1.51-3.36,3.36,1.51,3.36,3.36,3.36ZM33.92,21.33c.56,0,1.02.46,1.02,1.02s-.46,1.02-1.02,1.02-1.02-.46-1.02-1.02.46-1.02,1.02-1.02ZM41.91,25.71c1.85,0,3.36-1.51,3.36-3.36s-1.51-3.36-3.36-3.36-3.36,1.51-3.36,3.36,1.51,3.36,3.36,3.36ZM41.91,21.33c.56,0,1.02.46,1.02,1.02s-.46,1.02-1.02,1.02-1.02-.46-1.02-1.02.46-1.02,1.02-1.02ZM49.9,25.71c1.85,0,3.36-1.51,3.36-3.36s-1.51-3.36-3.36-3.36-3.36,1.51-3.36,3.36,1.51,3.36,3.36,3.36ZM49.9,21.33c.56,0,1.02.46,1.02,1.02s-.46,1.02-1.02,1.02-1.02-.46-1.02-1.02.46-1.02,1.02-1.02Z"/>
</svg>