<?xml version="1.0" encoding="UTF-8"?>
<svg id="Layer_1" xmlns="http://www.w3.org/2000/svg" version="1.1" viewBox="0 0 96 120">
  <!-- Generator: Adobe Illustrator 29.8.2, SVG Export Plug-In . SVG Version: 2.1.1 Build 3)  -->
  <defs>
    <style>
      .st0 {
        stroke: #000;
        stroke-miterlimit: 10;
      }
    </style>
  </defs>
  <path class="st0" d="M85.29,39.74h-16.17v-18.52c0-2.32-1.88-4.2-4.2-4.2H31.08c-2.32,0-4.2,1.88-4.2,4.2v18.52H10.71c-3.12,0-5.65,2.54-5.65,5.65v43.95c0,3.12,2.54,5.65,5.65,5.65h29.98l-2.08,5.76h-7.92c-.62,0-1.12.5-1.12,1.12s.5,1.12,1.12,1.12h35.35c.62,0,1.12-.5,1.12-1.12s-.5-1.12-1.12-1.12h-7.92l-2.08-5.76h29.24c3.12,0,5.65-2.54,5.65-5.65v-43.96c0-3.12-2.54-5.65-5.65-5.65ZM31.08,52.14c-1.08,0-1.97-.88-1.97-1.97v-19.12h37.77v19.12c0,1.08-.88,1.97-1.97,1.97H31.08ZM31.08,19.25h33.83c1.08,0,1.97.88,1.97,1.97v7.61H29.12v-7.61c0-1.08.88-1.97,1.97-1.97ZM10.71,41.97h16.17v8.2c0,2.32,1.88,4.2,4.2,4.2h1.86v12.97h-8.55c-.52-2.47-2.71-4.33-5.34-4.33-3.01,0-5.45,2.44-5.45,5.45s2.44,5.45,5.45,5.45c2.62,0,4.82-1.86,5.34-4.33h9.66c.62,0,1.12-.5,1.12-1.12v-14.09h5.73v8.14c-2.17.51-3.79,2.46-3.79,4.78,0,2.71,2.2,4.91,4.91,4.91s4.91-2.2,4.91-4.91c0-2.32-1.62-4.28-3.79-4.78v-8.14h9.72v15.92c-2.17.51-3.79,2.46-3.79,4.78,0,2.71,2.2,4.91,4.91,4.91s4.91-2.2,4.91-4.91c0-2.32-1.62-4.28-3.79-4.78v-15.92h5.73v14.09c0,.62.5,1.12,1.12,1.12h9.66c.52,2.47,2.71,4.33,5.34,4.33,3.01,0,5.45-2.44,5.45-5.45s-2.44-5.45-5.45-5.45c-2.62,0-4.82,1.86-5.34,4.33h-8.55v-12.97h1.86c2.32,0,4.2-1.88,4.2-4.2v-8.2h16.17c1.89,0,3.42,1.53,3.42,3.42v39.06H7.29v-39.06c0-1.89,1.53-3.42,3.42-3.42ZM22.28,68.46c0,1.77-1.44,3.22-3.22,3.22s-3.22-1.44-3.22-3.22,1.44-3.22,3.22-3.22c1.77,0,3.22,1.44,3.22,3.22ZM42.02,64.62c1.48,0,2.68,1.2,2.68,2.68s-1.2,2.68-2.68,2.68-2.68-1.2-2.68-2.68c0-1.48,1.2-2.68,2.68-2.68ZM53.98,72.4c1.48,0,2.68,1.2,2.68,2.68s-1.2,2.68-2.68,2.68-2.68-1.2-2.68-2.68,1.2-2.68,2.68-2.68ZM73.72,68.46c0-1.77,1.44-3.22,3.22-3.22s3.22,1.44,3.22,3.22-1.44,3.22-3.22,3.22-3.22-1.44-3.22-3.22ZM55.75,100.75h-14.77l2.08-5.76h10.61l2.08,5.76ZM85.29,92.77H10.71c-1.89,0-3.42-1.53-3.42-3.42v-2.66h81.42v2.66c0,1.89-1.53,3.42-3.42,3.42ZM42.67,37.61l-3.68,3.98,3.68,3.98c.42.45.39,1.16-.06,1.58-.21.2-.49.3-.76.3-.3,0-.6-.12-.82-.36l-4.38-4.74c-.39-.43-.39-1.09,0-1.52l4.38-4.74c.42-.45,1.12-.48,1.58-.06.45.42.48,1.12.06,1.58ZM59.34,40.84c.39.43.39,1.09,0,1.52l-4.38,4.74c-.22.24-.52.36-.82.36-.27,0-.54-.1-.76-.3-.45-.42-.48-1.12-.06-1.58l3.68-3.98-3.68-3.98c-.42-.45-.39-1.16.06-1.58.45-.42,1.16-.39,1.58.06l4.37,4.74ZM50.95,35.98l-3.77,11.91c-.15.48-.59.78-1.06.78-.11,0-.23-.02-.34-.05-.59-.19-.91-.81-.73-1.4l3.77-11.91c.19-.59.81-.91,1.4-.73.59.19.91.81.73,1.4ZM34.55,27.24c1.77,0,3.21-1.44,3.21-3.21s-1.44-3.21-3.21-3.21-3.21,1.44-3.21,3.21,1.44,3.21,3.21,3.21ZM34.55,23.06c.54,0,.98.44.98.98s-.44.98-.98.98-.98-.44-.98-.98.44-.98.98-.98ZM42.18,27.24c1.77,0,3.21-1.44,3.21-3.21s-1.44-3.21-3.21-3.21-3.21,1.44-3.21,3.21,1.44,3.21,3.21,3.21ZM42.18,23.06c.54,0,.98.44.98.98s-.44.98-.98.98-.98-.44-.98-.98.44-.98.98-.98ZM49.82,27.24c1.77,0,3.21-1.44,3.21-3.21s-1.44-3.21-3.21-3.21-3.21,1.44-3.21,3.21,1.44,3.21,3.21,3.21ZM49.82,23.06c.54,0,.98.44.98.98s-.44.98-.98.98-.98-.44-.98-.98.44-.98.98-.98Z"/>
</svg>