<svg id="Layer_1" viewBox="0 0 64 64" xmlns="http://www.w3.org/2000/svg" data-name="Layer 1"><path d="m51 40h2v2h-2z"/><path d="m51 44h2v2h-2z"/><path d="m51 48h2v2h-2z"/><path d="m51 52h2v2h-2z"/><path d="m51 56h2v2h-2z"/><path d="m47 40h2v2h-2z"/><path d="m47 44h2v2h-2z"/><path d="m43 40h2v2h-2z"/><path d="m51 36h2v2h-2z"/><path d="m11 40h2v2h-2z"/><path d="m11 44h2v2h-2z"/><path d="m11 48h2v2h-2z"/><path d="m11 52h2v2h-2z"/><path d="m11 56h2v2h-2z"/><path d="m19 52h2v2h-2z"/><path d="m23 48h2v2h-2z"/><path d="m19 56h2v2h-2z"/><path d="m23 52h2v2h-2z"/><path d="m23 56h2v2h-2z"/><path d="m39 52h2v2h-2z"/><path d="m39 48h2v2h-2z"/><path d="m39 56h2v2h-2z"/><path d="m43 52h2v2h-2z"/><path d="m43 56h2v2h-2z"/><path d="m15 40h2v2h-2z"/><path d="m15 44h2v2h-2z"/><path d="m19 40h2v2h-2z"/><path d="m11 36h2v2h-2z"/><path d="m60 60h-3v-30a1 1 0 0 0 -1.53-.85l-7.22 4.51a20 20 0 0 0 -28.59-27.38l1.24 1.56a18 18 0 1 1 22.1 28.39v-1.23a1 1 0 0 0 -1-1h-10a12 12 0 1 1 12-12 11.84 11.84 0 0 1 -2.32 7.08l1.62 1.18a13.82 13.82 0 0 0 2.7-8.26 14 14 0 1 0 -21.17 12h-2.83a1 1 0 0 0 -1 1v1.23a18 18 0 0 1 -3.94-24.23l-1.66-1.14a20 20 0 0 0 .35 22.8l-7.22-4.51a1 1 0 0 0 -1.53.85v30h-3v2h56zm-5 0h-6v-12a1 1 0 0 0 -.68-1l-3.32-1v-2h-2v1.28l-2-.67v-4.06l14-8.75zm-35.84-12 7.84-2.61v14.61h-10v-11.28l2-.67v2h2v-2.05zm5.84-7h14v2h-14zm10 14h-6v-2h6zm0-4h-6v-2h6zm0-4h-6v-2h6zm-6 10h6v3h-6zm8-11.61 7.84 2.61h-1.84v2h2v-2l2 .67v11.33h-10zm4-9.39v2.2l-1.29.8h-15.42l-1.29-.8v-2.2zm-32-4.2 14 8.75v4.06l-2 .67v-1.28h-2v2l-3.32 1.1a1 1 0 0 0 -.68.9v12h-6z"/><path d="m31 17h6v-2h-4v-2h-2v2a4 4 0 0 0 0 8h2a2 2 0 0 1 0 4h-6v2h4v2h2v-2a4 4 0 0 0 0-8h-2a2 2 0 0 1 0-4z"/></svg>