<?xml version="1.0" encoding="UTF-8"?>
<svg xmlns="http://www.w3.org/2000/svg" viewBox="0 0 64 64" width="512" height="512"><g id="Outline"><path d="M61,52H39a1,1,0,0,0-1,1v2H26V53a1,1,0,0,0-1-1H7V26a3,3,0,0,1,3-3H25a1,1,0,0,0,0-2H10a5.006,5.006,0,0,0-5,5V52H3a1,1,0,0,0-1,1v4a5.006,5.006,0,0,0,5,5H20a1,1,0,0,0,0-2H7a3,3,0,0,1-3-3V54H24v2a1,1,0,0,0,1,1H39a1,1,0,0,0,1-1V54H60v3a3,3,0,0,1-3,3H24a1,1,0,0,0,0,2H57a5.006,5.006,0,0,0,5-5V53A1,1,0,0,0,61,52Z"/><circle cx="52" cy="57" r="1"/><circle cx="56" cy="57" r="1"/><circle cx="8" cy="57" r="1"/><circle cx="12" cy="57" r="1"/><path d="M18,27a1,1,0,0,0-1,1v5H12a1,1,0,0,0-1,1V44a1,1,0,0,0,1,1H28a1,1,0,0,0,0-2H19V29h4v4a1,1,0,0,0,1,1h4a1,1,0,0,0,1-1V29h4v2.474A10.978,10.978,0,0,0,43.914,49.6a1,1,0,1,0-.53-1.928,9,9,0,1,1,3.21-1.628,1,1,0,1,0,1.245,1.564A10.98,10.98,0,0,0,49.479,32H51a1,1,0,0,0,1-1V23h2a3,3,0,0,1,3,3V49a1,1,0,0,0,2,0V26a5.006,5.006,0,0,0-5-5H52V14a1,1,0,0,0-1-1H47a1,1,0,0,0,0,2h3v2H44V3a1,1,0,0,0-1-1H35a1,1,0,0,0-1,1V6H29a1,1,0,0,0-1,1V27Zm-5,8h4v8H13ZM50,25H44V23h6Zm-2.695,5A10.958,10.958,0,0,0,44,28.426V27h6v3ZM50,19v2H44V19ZM36,4h6V6H36Zm-4.414,8,2,2H30V12Zm4.828,10-2-2H38v2Zm-4.828-6,2,2H30V16ZM38,16v2H36.414l-2-2Zm-8,4h1.586l2,2H30Zm8-6H36.414l-2-2H38ZM30,24h9a1,1,0,0,0,1-1V11a1,1,0,0,0-1-1H30V8H42V28.051c-.33-.03-.663-.051-1-.051a10.929,10.929,0,0,0-6,1.792V28a1,1,0,0,0-1-1H30Zm-3,5v3H25V29Z"/><path d="M41,36a1,1,0,0,1,1,1,1,1,0,0,0,2,0,3,3,0,0,0-2-2.816V33a1,1,0,0,0-2,0v1.184A2.993,2.993,0,0,0,41,40a1,1,0,1,1-1,1,1,1,0,0,0-2,0,3,3,0,0,0,2,2.816V45a1,1,0,0,0,2,0V43.816A2.993,2.993,0,0,0,41,38a1,1,0,0,1,0-2Z"/><path d="M11,30V27h3a1,1,0,0,0,0-2H10a1,1,0,0,0-1,1v4a1,1,0,0,0,2,0Z"/><path d="M53,45v3H51a1,1,0,0,0,0,2h3a1,1,0,0,0,1-1V45a1,1,0,0,0-2,0Z"/><path d="M11,50H22a1,1,0,0,0,0-2H11a1,1,0,0,0,0,2Z"/></g></svg>
