<svg height="512" viewBox="0 0 64 64" width="512" xmlns="http://www.w3.org/2000/svg"><g id="data"><path d="m15 16h2v2h-2z"/><path d="m19 16h2v2h-2z"/><path d="m61 46h-29v-12a3.006 3.006 0 0 0 -2.19-2.88 20.422 20.422 0 0 0 2.19-9.12c0-9.92-6.28-18-14-18s-14 8.08-14 18a20.326 20.326 0 0 0 2.2 9.12 3 3 0 0 0 -2.2 2.88v12h-1a1 1 0 0 0 -1 1v8a1 1 0 0 0 1 1h4v5a1 1 0 0 0 1 1h48a1 1 0 0 0 1-1v-5h4a1 1 0 0 0 1-1v-8a1 1 0 0 0 -1-1zm-55-24c0-8.82 5.38-16 12-16s12 7.18 12 16a18.6 18.6 0 0 1 -3.06 10.13 10.416 10.416 0 0 0 .06-1.13 17.866 17.866 0 0 0 -2.25-9.18 6.835 6.835 0 0 0 .25-1.82v-6a1 1 0 0 0 -.76-.97l-8-2a.978.978 0 0 0 -.69.08l-4 2a.988.988 0 0 0 -.55.89v6a6.835 6.835 0 0 0 .25 1.82 17.866 17.866 0 0 0 -2.25 9.18 10.047 10.047 0 0 0 .06 1.11 18.608 18.608 0 0 1 -3.06-10.11zm12 12.85-5.18-2.96 2.78-2.09a1.014 1.014 0 0 0 .4-.8v-2.29a7.042 7.042 0 0 0 4 0v2.29a1.014 1.014 0 0 0 .4.8l2.78 2.09zm3.99.02-3.99 6.27-3.99-6.27 3.49 2a1.027 1.027 0 0 0 1 0zm-7.99-9.13v2.76l-2.99 2.24a17.26 17.26 0 0 1 1.3-6.67 7.44 7.44 0 0 0 1.69 1.67zm-1-5.74v-5.38l3.12-1.56 6.88 1.72v5.22a5 5 0 0 1 -10 0zm9 8.5v-2.76a7.44 7.44 0 0 0 1.69-1.67 17.26 17.26 0 0 1 1.3 6.67zm-16 5.5a1 1 0 0 1 1-1h.26a19.509 19.509 0 0 0 3.06 3.73 1 1 0 0 0 1.64-1.02l-.03-.1c-.06-.18-.11-.37-.17-.55l5.4 8.48a1 1 0 0 0 1.68 0l5.44-8.54c-.07.24-.15.48-.22.71a1 1 0 0 0 .43 1.14 1.014 1.014 0 0 0 .53.15.977.977 0 0 0 .68-.27 18.824 18.824 0 0 0 3.05-3.73h.25a1 1 0 0 1 1 1v12h-24zm49 26h-46v-4h46zm5-6h-56v-6h56z"/><path d="m52 2c-4.82 0-10 1.25-10 4v8h-3a3.009 3.009 0 0 0 -3 3v24a3.009 3.009 0 0 0 3 3h16a3.009 3.009 0 0 0 3-3v-13.73c2.58-.71 4-1.86 4-3.27v-18c0-2.75-5.18-4-10-4zm-10 14h2v2.59l-.29-.3a1.008 1.008 0 0 0 -1.42 0l-.29.3zm14 25a1 1 0 0 1 -1 1h-16a1 1 0 0 1 -1-1v-24a1 1 0 0 1 1-1h1v5a.987.987 0 0 0 .62.92 1 1 0 0 0 1.09-.21l1.29-1.3 1.29 1.3a1.007 1.007 0 0 0 .71.29.838.838 0 0 0 .38-.08.987.987 0 0 0 .62-.92v-5h9a1 1 0 0 1 1 1zm4-17c0 .1-.42.66-2 1.19v-3.92a10.224 10.224 0 0 0 2-.75zm0-6c0 .1-.42.66-2 1.19v-2.19a3 3 0 0 0 -.47-1.6 11.488 11.488 0 0 0 2.47-.88zm0-6c0 .51-2.75 2-8 2s-8-1.49-8-2v-3.48a18.866 18.866 0 0 0 8 1.48 18.866 18.866 0 0 0 8-1.48zm-8-4c-5.25 0-8-1.49-8-2s2.75-2 8-2 8 1.49 8 2-2.75 2-8 2z"/><path d="m40 24h2v2h-2z"/><path d="m44 24h10v2h-10z"/><path d="m40 28h14v2h-14z"/><path d="m40 32h14v2h-14z"/><path d="m40 36h14v2h-14z"/></g></svg>