<?xml version="1.0" encoding="UTF-8"?>
<svg xmlns="http://www.w3.org/2000/svg" xmlns:xlink="http://www.w3.org/1999/xlink" version="1.1" id="Capa_1" x="0px" y="0px" viewBox="0 0 512 512" style="enable-background:new 0 0 512 512;" xml:space="preserve" width="512" height="512">
<g>
	<g>
		<path style="fill:none;stroke:#000000;stroke-width:15;stroke-linecap:round;stroke-linejoin:round;stroke-miterlimit:10;" d="&#10;&#9;&#9;&#9;M294.679,148V95.32c0-37.177-30.138-67.315-67.315-67.315H191"/>
		<path style="fill:none;stroke:#000000;stroke-width:15;stroke-linecap:round;stroke-linejoin:round;stroke-miterlimit:10;" d="&#10;&#9;&#9;&#9;M156,28.004h-5.946c-37.177,0-67.315,30.138-67.315,67.315V148"/>
		
			<line style="fill:none;stroke:#000000;stroke-width:15;stroke-linecap:round;stroke-linejoin:round;stroke-miterlimit:10;" x1="106" y1="483.996" x2="369.918" y2="483.996"/>
		<path style="fill:none;stroke:#000000;stroke-width:15;stroke-linecap:round;stroke-linejoin:round;stroke-miterlimit:10;" d="&#10;&#9;&#9;&#9;M123.984,302.789l-82.045,26.868C21.394,336.386,7.5,355.556,7.5,377.174v91.821c0,8.284,6.716,15,15,15H71"/>
		<path style="fill:none;stroke:#000000;stroke-width:15;stroke-linecap:round;stroke-linejoin:round;stroke-miterlimit:10;" d="&#10;&#9;&#9;&#9;M142,437H70c-2.761,0-5-2.239-5-5v-22c0-2.761,2.239-5,5-5h72c2.761,0,5,2.239,5,5v22C147,434.761,144.761,437,142,437z"/>
		<g>
			<g>
				<g>
					<g>
						<g>
							<g>
								
									<path style="fill:none;stroke:#000000;stroke-width:15;stroke-linecap:round;stroke-linejoin:round;stroke-miterlimit:10;" d="&#10;&#9;&#9;&#9;&#9;&#9;&#9;&#9;&#9;&#9;M105.895,205.497v-60.42h-8.458c-15.979,0-28.932,12.953-28.932,28.932v8.711c0,15.979,12.953,28.932,28.932,28.932h8.76&#10;&#9;&#9;&#9;&#9;&#9;&#9;&#9;&#9;&#9;C106.002,209.626,105.895,207.574,105.895,205.497z"/>
								
									<path style="fill:none;stroke:#000000;stroke-width:15;stroke-linecap:round;stroke-linejoin:round;stroke-miterlimit:10;" d="&#10;&#9;&#9;&#9;&#9;&#9;&#9;&#9;&#9;&#9;M279.982,145.078h-8.458v60.42c0,1.357-0.057,2.7-0.141,4.036h19.469c10.59-4.298,18.061-14.68,18.061-26.812v-8.711&#10;&#9;&#9;&#9;&#9;&#9;&#9;&#9;&#9;&#9;C308.913,158.031,295.96,145.078,279.982,145.078z"/>
							</g>
							<g>
								<g>
									
										<path style="fill:none;stroke:#000000;stroke-width:15;stroke-linecap:round;stroke-linejoin:round;stroke-miterlimit:10;" d="&#10;&#9;&#9;&#9;&#9;&#9;&#9;&#9;&#9;&#9;&#9;M146.852,264.954l-16.333,11.9c-4.106,2.992-6.535,7.766-6.535,12.847v69.783c0,3.984,4.703,6.103,7.687,3.463L178,322"/>
									
										<path style="fill:none;stroke:#000000;stroke-width:15;stroke-linecap:round;stroke-linejoin:round;stroke-miterlimit:10;" d="&#10;&#9;&#9;&#9;&#9;&#9;&#9;&#9;&#9;&#9;&#9;M169.526,269.128c-7.047,0-13.818-1.163-20.154-3.278v22.99c0,1.296,0.544,2.533,1.5,3.409l34.714,31.811&#10;&#9;&#9;&#9;&#9;&#9;&#9;&#9;&#9;&#9;&#9;c1.767,1.62,4.48,1.62,6.247,0l0.819-0.751v-54.181H169.526z"/>
									
										<path style="fill:none;stroke:#000000;stroke-width:15;stroke-linecap:round;stroke-linejoin:round;stroke-miterlimit:10;" d="&#10;&#9;&#9;&#9;&#9;&#9;&#9;&#9;&#9;&#9;&#9;M192.652,224.533c0-8.284,6.716-15,15-15h63.731c0.084-1.336,0.141-2.679,0.141-4.036v-65.905&#10;&#9;&#9;&#9;&#9;&#9;&#9;&#9;&#9;&#9;&#9;c0-14.631-11.861-26.493-26.493-26.493H132.387c-14.631,0-26.493,11.861-26.493,26.493v65.905&#10;&#9;&#9;&#9;&#9;&#9;&#9;&#9;&#9;&#9;&#9;c0,35.143,28.489,63.631,63.631,63.631h23.126V224.533z"/>
									
										<path style="fill:none;stroke:#000000;stroke-width:15;stroke-linecap:round;stroke-linejoin:round;stroke-miterlimit:10;" d="&#10;&#9;&#9;&#9;&#9;&#9;&#9;&#9;&#9;&#9;&#9;M192.652,236.01H182.62c-13.788,0-24.966-11.178-24.966-24.966"/>
									<g>
										<g>
											
												<line style="fill:none;stroke:#000000;stroke-width:15;stroke-linecap:round;stroke-linejoin:round;stroke-miterlimit:10;" x1="146.267" y1="148.415" x2="146.267" y2="163.943"/>
											
												<line style="fill:none;stroke:#000000;stroke-width:15;stroke-linecap:round;stroke-linejoin:round;stroke-miterlimit:10;" x1="231.151" y1="148.415" x2="231.151" y2="163.943"/>
										</g>
										
											<path style="fill:none;stroke:#000000;stroke-width:15;stroke-linecap:round;stroke-linejoin:round;stroke-miterlimit:10;" d="&#10;&#9;&#9;&#9;&#9;&#9;&#9;&#9;&#9;&#9;&#9;&#9;M188.709,159.657c-6.575,0-11.905,5.33-11.905,11.905c0,6.575,5.33,11.905,11.905,11.905"/>
									</g>
								</g>
							</g>
						</g>
					</g>
				</g>
			</g>
		</g>
	</g>
	<g>
		<path style="fill:none;stroke:#000000;stroke-width:15;stroke-linecap:round;stroke-linejoin:round;stroke-miterlimit:10;" d="&#10;&#9;&#9;&#9;M354.442,209.533h-146.79c-8.284,0-15,6.716-15,15v169.841c0,8.284,6.716,15,15,15h109.466"/>
		<path style="fill:none;stroke:#000000;stroke-width:15;stroke-linecap:round;stroke-linejoin:round;stroke-miterlimit:10;" d="&#10;&#9;&#9;&#9;M380.034,409.374H489.5c8.284,0,15-6.716,15-15V224.533c0-8.284-6.716-15-15-15h-0.552"/>
		<path style="fill:none;stroke:#000000;stroke-width:15;stroke-linecap:round;stroke-linejoin:round;stroke-miterlimit:10;" d="&#10;&#9;&#9;&#9;M410.316,287.039h-123.48c-5.523,0-10,4.477-10,10v40.944c0,5.523,4.477,10,10,10h30.282v-27.677c0-2.762,2.239-5,5-5h52.917&#10;&#9;&#9;&#9;c2.761,0,5,2.238,5,5v27.677h30.282c5.523,0,10-4.477,10-10v-40.944C420.316,291.516,415.839,287.039,410.316,287.039z"/>
		<path style="fill:none;stroke:#000000;stroke-width:15;stroke-linecap:round;stroke-linejoin:round;stroke-miterlimit:10;" d="&#10;&#9;&#9;&#9;M317.118,395v58.905h62.917V320.306c0-2.762-2.239-5-5-5h-52.917c-2.761,0-5,2.238-5,5V360"/>
		<path style="fill:none;stroke:#000000;stroke-width:15;stroke-linecap:round;stroke-linejoin:round;stroke-miterlimit:10;" d="&#10;&#9;&#9;&#9;M425.641,483.996h-159.13v-15.091c0-8.284,6.716-15,15-15h134.13c8.284,0,15,6.716,15,15v10.091&#10;&#9;&#9;&#9;C430.641,481.757,428.403,483.996,425.641,483.996z"/>
	</g>
	
		<line style="fill:none;stroke:#000000;stroke-width:15;stroke-linecap:round;stroke-linejoin:round;stroke-miterlimit:10;" x1="449" y1="367" x2="449" y2="377"/>
	
		<line style="fill:none;stroke:#000000;stroke-width:15;stroke-linecap:round;stroke-linejoin:round;stroke-miterlimit:10;" x1="472" y1="367" x2="472" y2="377"/>
	<g>
		<path style="fill:none;stroke:#000000;stroke-width:15;stroke-linecap:round;stroke-linejoin:round;stroke-miterlimit:10;" d="&#10;&#9;&#9;&#9;M504.5,171.478V151.79c0-3.402-2.758-6.161-6.16-6.161h-12.302c-2.62,0-4.958-1.658-5.811-4.135&#10;&#9;&#9;&#9;c-0.827-2.4-1.797-4.732-2.901-6.988c-1.154-2.36-0.679-5.19,1.178-7.048l8.704-8.704c2.406-2.406,2.406-6.307,0-8.712&#10;&#9;&#9;&#9;l-13.921-13.921c-2.406-2.406-6.306-2.406-8.712,0l-8.704,8.704c-1.858,1.858-4.688,2.333-7.048,1.178&#10;&#9;&#9;&#9;c-2.256-1.104-4.588-2.074-6.988-2.901c-2.478-0.854-4.135-3.191-4.135-5.811V84.99c0-3.402-2.758-6.16-6.16-6.16h-19.688&#10;&#9;&#9;&#9;c-3.402,0-6.16,2.758-6.16,6.16v12.302c0,2.621-1.658,4.958-4.135,5.811c-2.399,0.827-4.732,1.797-6.987,2.901&#10;&#9;&#9;&#9;c-2.36,1.154-5.19,0.679-7.048-1.178l-8.704-8.704c-2.406-2.406-6.306-2.406-8.712,0l-13.921,13.921&#10;&#9;&#9;&#9;c-2.406,2.406-2.406,6.306,0,8.712l8.704,8.704c1.858,1.858,2.333,4.688,1.178,7.048c-1.103,2.256-2.074,4.588-2.901,6.988&#10;&#9;&#9;&#9;c-0.854,2.478-3.191,4.135-5.811,4.135h-12.302c-3.402,0-6.16,2.758-6.16,6.161v19.688c0,3.402,2.758,6.16,6.16,6.16h12.302&#10;&#9;&#9;&#9;c2.621,0,4.958,1.658,5.811,4.135c0.827,2.399,1.797,4.732,2.901,6.988c1.154,2.36,0.679,5.19-1.178,7.048l-8.704,8.704&#10;&#9;&#9;&#9;c-2.406,2.406-2.406,6.306,0,8.712l13.921,13.921c2.406,2.406,6.306,2.406,8.712,0l8.704-8.704&#10;&#9;&#9;&#9;c1.858-1.857,4.688-2.333,7.048-1.178c2.256,1.103,4.588,2.074,6.988,2.901c2.478,0.854,4.135,3.191,4.135,5.811v12.302&#10;&#9;&#9;&#9;c0,3.402,2.758,6.161,6.16,6.161h19.688c3.402,0,6.16-2.758,6.16-6.161v-12.302c0-2.621,1.658-4.958,4.135-5.811&#10;&#9;&#9;&#9;c2.4-0.827,4.732-1.797,6.988-2.901c2.36-1.154,5.19-0.679,7.048,1.178l8.704,8.704c2.406,2.406,6.306,2.406,8.712,0&#10;&#9;&#9;&#9;l13.921-13.921c2.406-2.406,2.406-6.306,0-8.712l-8.704-8.704c-1.858-1.858-2.332-4.688-1.178-7.048&#10;&#9;&#9;&#9;c1.103-2.256,2.074-4.588,2.901-6.987c0.854-2.478,3.191-4.135,5.811-4.135h12.302C501.742,177.638,504.5,174.88,504.5,171.478z"/>
		<path style="fill:none;stroke:#000000;stroke-width:15;stroke-linecap:round;stroke-linejoin:round;stroke-miterlimit:10;" d="&#10;&#9;&#9;&#9;M448.134,159.913c1.01,15.988-12.171,29.169-28.159,28.159c-13.185-0.833-23.884-11.532-24.717-24.717&#10;&#9;&#9;&#9;c-1.01-15.988,12.171-29.169,28.159-28.159C436.601,136.029,447.3,146.728,448.134,159.913z"/>
	</g>
</g>















</svg>
