<svg id="Layer_1" enable-background="new 0 0 500 500" viewBox="0 0 500 500" xmlns="http://www.w3.org/2000/svg"><g><path d="m284.601 450.001h-69.203c-18.149 0-32.915-14.765-32.915-32.912v-69.203c0-18.147 14.766-32.912 32.915-32.912h69.203c18.15 0 32.915 14.766 32.915 32.912v69.203c0 18.148-14.765 32.912-32.915 32.912zm-69.203-120.086c-9.909 0-17.975 8.063-17.975 17.972v69.203c0 9.91 8.065 17.972 17.975 17.972h69.203c9.91 0 17.975-8.062 17.975-17.972v-69.203c0-9.909-8.065-17.972-17.975-17.972z"/><path d="m442.091 450.001h-69.203c-18.149 0-32.915-14.765-32.915-32.912v-69.203c0-18.147 14.766-32.912 32.915-32.912h69.203c18.144 0 32.909 14.766 32.909 32.912v69.203c0 18.148-14.766 32.912-32.909 32.912zm-69.203-120.086c-9.909 0-17.975 8.063-17.975 17.972v69.203c0 9.91 8.065 17.972 17.975 17.972h69.203c9.909 0 17.969-8.062 17.969-17.972v-69.203c0-9.909-8.06-17.972-17.969-17.972z"/><path d="m407.49 329.915c-4.126 0-7.471-3.344-7.471-7.47v-44.943h-39.089c-4.126 0-7.47-3.344-7.47-7.47v-29.422h-31.176c-4.126 0-7.471-3.344-7.471-7.47s3.345-7.471 7.471-7.471h38.646c4.126 0 7.47 3.345 7.47 7.471v29.422h39.09c4.126 0 7.47 3.345 7.47 7.471v52.413c-.001 4.125-3.345 7.469-7.47 7.469z"/><path d="m360.93 309.052h-29.005c-4.126 0-7.47-3.345-7.47-7.47 0-4.126 3.344-7.47 7.47-7.47h21.536v-24.079c0-4.126 3.344-7.471 7.47-7.471s7.47 3.345 7.47 7.471v31.549c-.001 4.125-3.345 7.47-7.471 7.47z"/><path d="m127.111 450.001h-69.202c-18.144 0-32.909-14.764-32.909-32.911v-69.203c0-18.147 14.765-32.912 32.909-32.912h69.202c18.15 0 32.915 14.766 32.915 32.912v69.203c0 18.147-14.764 32.911-32.915 32.911zm-69.202-120.086c-9.91 0-17.969 8.063-17.969 17.972v69.203c0 9.91 8.059 17.972 17.969 17.972h69.202c9.91 0 17.975-8.062 17.975-17.972v-69.203c0-9.909-8.065-17.972-17.975-17.972z"/><path d="m92.51 329.915c-4.126 0-7.47-3.344-7.47-7.47v-52.413c0-4.126 3.344-7.471 7.47-7.471h39.09v-29.421c0-4.126 3.344-7.471 7.471-7.471h38.651c4.127 0 7.471 3.345 7.471 7.471s-3.344 7.47-7.471 7.47h-31.182v29.423c0 4.126-3.344 7.47-7.47 7.47h-39.09v44.943c0 4.125-3.344 7.469-7.47 7.469z"/><path d="m168.074 309.052h-29.004c-4.127 0-7.471-3.345-7.471-7.47v-31.549c0-4.126 3.344-7.471 7.471-7.471 4.126 0 7.47 3.345 7.47 7.471v24.079h21.535c4.126 0 7.471 3.344 7.471 7.47-.001 4.125-3.346 7.47-7.472 7.47z"/><path d="m250 329.915c-4.126 0-7.471-3.344-7.471-7.47v-29.259c0-4.126 3.345-7.471 7.471-7.471s7.47 3.345 7.47 7.471v29.259c0 4.126-3.344 7.47-7.47 7.47z"/><path d="m250 178.457c-19.562 0-35.477-15.918-35.477-35.48s15.915-35.477 35.477-35.477 35.476 15.915 35.476 35.477-15.914 35.48-35.476 35.48zm0-56.017c-11.322 0-20.537 9.212-20.537 20.537s9.215 20.54 20.537 20.54c11.321 0 20.536-9.215 20.536-20.54s-9.215-20.537-20.536-20.537z"/><path d="m250 277.502c-53.335 0-96.726-43.391-96.726-96.726s43.391-96.728 96.726-96.728 96.726 43.393 96.726 96.728-43.391 96.726-96.726 96.726zm0-178.514c-45.095 0-81.785 36.691-81.785 81.788 0 45.098 36.69 81.785 81.785 81.785 45.094 0 81.785-36.688 81.785-81.785 0-45.096-36.691-81.788-81.785-81.788z"/><path d="m220.61 272.448c-.829 0-1.657-.138-2.463-.417-8.311-2.9-16.107-6.851-23.169-11.745-2.014-1.395-3.216-3.689-3.216-6.14v-36.287c0-19.294 15.699-34.993 34.993-34.993 4.126 0 7.47 3.345 7.47 7.471s-3.344 7.47-7.47 7.47c-11.06 0-20.053 8.997-20.053 20.053v32.261c2.077 1.293 4.225 2.497 6.437 3.606v-28.887c0-4.127 3.345-7.471 7.471-7.471s7.47 3.344 7.47 7.471v40.139c0 2.42-1.173 4.69-3.146 6.09-1.278.909-2.795 1.379-4.324 1.379z"/><path d="m279.39 272.448c-1.529 0-3.047-.47-4.325-1.38-1.972-1.4-3.146-3.671-3.146-6.09v-40.139c0-4.127 3.345-7.471 7.471-7.471s7.47 3.344 7.47 7.471v28.887c2.212-1.109 4.359-2.314 6.438-3.606v-32.261c0-11.056-8.994-20.053-20.053-20.053-4.126 0-7.47-3.344-7.47-7.47s3.344-7.471 7.47-7.471c19.293 0 34.992 15.699 34.992 34.993v36.287c0 2.451-1.202 4.745-3.215 6.14-7.061 4.893-14.859 8.845-23.168 11.745-.807.281-1.636.418-2.464.418z"/><path d="m101.795 413.512h-23.88c-4.127 0-7.47-3.344-7.47-7.47s3.344-7.471 7.47-7.471h21.727v-8.614h-16.41c-7.05 0-12.787-5.736-12.787-12.787v-12.92c0-7.05 5.737-12.786 12.787-12.786h23.881c4.126 0 7.47 3.344 7.47 7.47s-3.344 7.47-7.47 7.47h-21.728v8.614h16.41c7.051 0 12.787 5.737 12.787 12.787v12.921c0 7.049-5.736 12.786-12.787 12.786z"/><path d="m92.51 366.404c-4.126 0-7.47-3.344-7.47-7.47v-8.266c0-4.127 3.344-7.471 7.47-7.471s7.47 3.344 7.47 7.471v8.266c0 4.126-3.344 7.47-7.47 7.47z"/><path d="m92.51 421.776c-4.126 0-7.47-3.344-7.47-7.47v-8.263c0-4.126 3.344-7.471 7.47-7.471s7.47 3.345 7.47 7.471v8.263c0 4.126-3.344 7.47-7.47 7.47z"/><path d="m416.769 413.512h-23.881c-4.126 0-7.471-3.344-7.471-7.47s3.345-7.471 7.471-7.471h21.727v-8.614h-16.411c-7.05 0-12.787-5.736-12.787-12.787v-12.92c0-7.05 5.737-12.786 12.787-12.786h23.881c4.126 0 7.47 3.344 7.47 7.47s-3.345 7.47-7.47 7.47h-21.727v8.614h16.411c7.05 0 12.787 5.737 12.787 12.787v12.921c-.001 7.049-5.738 12.786-12.787 12.786z"/><path d="m407.49 366.404c-4.126 0-7.471-3.344-7.471-7.47v-8.266c0-4.127 3.345-7.471 7.471-7.471s7.47 3.344 7.47 7.471v8.266c-.001 4.126-3.345 7.47-7.47 7.47z"/><path d="m407.49 421.776c-4.126 0-7.471-3.344-7.471-7.47v-8.263c0-4.126 3.345-7.471 7.471-7.471s7.47 3.345 7.47 7.471v8.263c-.001 4.126-3.345 7.47-7.47 7.47z"/><path d="m370.004 216.233c-.56 0-1.132-.064-1.698-.198-4.021-.937-6.518-4.951-5.585-8.97.864-3.7 1.559-7.426 2.06-11.077.56-4.091 4.406-6.933 8.421-6.379 4.085.563 6.946 4.333 6.379 8.421-.566 4.101-1.342 8.282-2.305 12.426-.805 3.446-3.874 5.777-7.272 5.777z"/><path d="m368.902 155.478c-3.28 0-6.286-2.177-7.196-5.492-2.048-7.447-4.861-14.712-8.357-21.593-1.867-3.68-.403-8.176 3.274-10.043 3.689-1.867 8.176-.403 10.044 3.274 3.95 7.776 7.131 15.984 9.442 24.4 1.097 3.977-1.243 8.089-5.223 9.183-.66.183-1.325.271-1.984.271zm-237.775-.123c-.66 0-1.325-.087-1.99-.271-3.979-1.097-6.314-5.212-5.217-9.19 2.316-8.395 5.503-16.6 9.472-24.382 1.873-3.682 6.366-5.144 10.043-3.265 3.677 1.873 5.136 6.373 3.263 10.047-3.508 6.889-6.327 14.146-8.375 21.575-.917 3.312-3.922 5.486-7.196 5.486zm198.412-61.333c-1.699 0-3.414-.578-4.815-1.766-5.906-4.989-12.331-9.401-19.09-13.11-3.618-1.984-4.937-6.525-2.953-10.143 1.984-3.616 6.518-4.941 10.143-2.954 7.627 4.187 14.876 9.166 21.54 14.797 3.152 2.661 3.548 7.374.887 10.526-1.476 1.749-3.589 2.65-5.712 2.65zm-158.996-.073c-2.13 0-4.236-.902-5.719-2.655-2.655-3.155-2.258-7.867.899-10.526 6.665-5.623 13.918-10.595 21.558-14.779 3.618-1.981 8.159-.66 10.143 2.961 1.979 3.619.654 8.159-2.964 10.14-6.77 3.71-13.195 8.115-19.107 13.099-1.402 1.183-3.112 1.76-4.81 1.76zm91.846-28.398c-.251 0-.502-.012-.752-.038-7.599-.75-15.501-.77-23.169-.009-3.997.377-7.756-2.591-8.17-6.699-.403-4.106 2.592-7.762 6.699-8.17 8.632-.852 17.532-.849 26.122.014 4.102.408 7.102 4.068 6.694 8.173-.385 3.853-3.636 6.729-7.424 6.729z"/><path d="m129.995 216.233c-3.396 0-6.466-2.328-7.271-5.777-.963-4.144-1.739-8.325-2.306-12.426-.566-4.088 2.294-7.858 6.379-8.421 4.039-.554 7.862 2.288 8.421 6.379.502 3.651 1.197 7.376 2.06 11.077.934 4.018-1.564 8.033-5.585 8.97-.566.134-1.138.198-1.698.198z"/></g></svg>