<svg clip-rule="evenodd" fill-rule="evenodd" stroke-linejoin="round" stroke-miterlimit="2" viewBox="0 0 510 510" xmlns="http://www.w3.org/2000/svg"><path d="m128.553 457.388c.91 2.186 1.82 4.373 2.73 6.559l.003.007c1.999 4.833 2.002 9.702.028 14.564l-.012.03c-1.998 4.794-5.441 8.252-10.29 10.293l-.018.008s-28.202 11.691-28.202 11.691c-9.669 4.037-20.866-.595-24.876-10.257-15.91-38.231-31.844-76.462-47.754-114.692-2.039-4.825-2.046-9.723-.036-14.584 2.005-4.848 5.469-8.309 10.285-10.316l28.232-11.717c9.663-4.011 20.823.579 24.873 10.249l.003.008c.768 1.844 1.535 3.688 2.303 5.532 13.659-6.459 27.298-12.96 40.876-19.601 18.787-9.192 33.606-15.262 50.857-12.93 11.238 1.518 23.618 6.614 38.832 17.252l52.001 13.93c8.864 2.374 15.876 8.313 19.908 15.864l72.477-21.262c31.723-9.306 49.245-2.413 56.957 8.011 5.17 6.987 6.53 16.034 4.595 24.978-2.712 12.535-11.972 24.699-24.59 29.567l-110.125 42.436c-18.598 7.157-43.453 17.123-63.411 11.329l-58.669-17.02-.011-.003c-6.798-1.984-13.32-1.432-19.695 1.672zm-10.206 11.921c-1.747-4.199-46.051-110.602-47.751-114.686-1.073-2.558-4.026-3.778-6.585-2.716l-28.22 11.712c-1.276.532-2.193 1.453-2.725 2.739-.523 1.264-.534 2.537.008 3.814l.009.022c15.913 38.236 31.848 76.473 47.762 114.712l.001.003c1.058 2.548 4.009 3.774 6.569 2.702l28.193-11.688.019-.008c1.277-.546 2.2-1.456 2.748-2.752.505-1.282.501-2.573-.028-3.854zm4.815-24.871 16.53-8.041c9.63-4.69 19.482-5.522 29.739-2.528l58.67 17.02c8.151 2.366 17.271 1.198 26.259-1.105 9.976-2.556 19.791-6.6 28.218-9.843l110.117-42.433c8.255-3.185 14.169-11.262 15.943-19.464 1.056-4.88.657-9.876-2.164-13.688-2.407-3.253-6.498-5.462-12.342-6.361-7.331-1.128-16.997-.186-29.417 3.458l-72.666 21.317c.162 3.224-.167 6.523-1.044 9.798-4.548 16.983-22.183 27.169-39.154 22.594l-70.707-18.934c-3.733-.999-5.952-4.841-4.952-8.574.999-3.732 4.841-5.951 8.574-4.952l70.707 18.934.011.003c9.539 2.571 19.44-3.155 21.995-12.694 2.556-9.542-3.171-19.449-12.714-22.005l-53.203-14.252c-.804-.216-1.563-.572-2.241-1.054-13.293-9.434-23.907-14.21-33.641-15.526-14.59-1.971-26.94 3.859-42.829 11.632-13.832 6.765-27.727 13.387-41.642 19.965 10.648 25.577 21.304 51.154 31.953 76.733zm353.547-282.27 2.172-2.752c2.394-3.032 6.8-3.551 9.832-1.157s3.551 6.8 1.157 9.832l-14.489 18.353c-1.239 1.569-3.089 2.533-5.085 2.65-1.995.117-3.946-.625-5.359-2.038l-15.455-15.455c-2.732-2.732-2.732-7.168 0-9.899 2.732-2.732 7.168-2.732 9.9 0l3.529 3.529c-6.031-80.059-72.984-143.231-154.576-143.231-85.557 0-155.019 69.462-155.019 155.019s69.462 155.019 155.019 155.019c3.863 0 7 3.137 7 7s-3.137 7-7 7c-93.284 0-169.019-75.735-169.019-169.019s75.735-169.019 169.019-169.019c88.28 0 160.843 67.828 168.374 154.168zm-55.931 41.854c-17.549 0-26.36 21.265-13.948 33.676 5.824 5.824 5.824 15.299 0 21.124l-17.072 17.072c-5.825 5.824-15.3 5.824-21.124 0-12.412-12.411-33.676-3.6-33.676 13.948 0 8.27-6.686 14.93-14.93 14.93h-24.146c-8.244 0-14.93-6.66-14.93-14.93 0-17.57-21.254-26.37-33.676-13.948-5.828 5.828-15.281 5.828-21.107.002l-17.089-17.074c-5.824-5.825-5.824-15.3 0-21.124 12.411-12.411 3.611-33.676-13.948-33.676-8.243 0-14.93-6.686-14.93-14.93v-24.146c0-8.244 6.687-14.93 14.93-14.93 17.559 0 26.359-21.264 13.948-33.675-5.828-5.828-5.828-15.282 0-21.11l17.087-17.086c5.828-5.828 15.281-5.828 21.109 0 12.412 12.411 33.676 3.61 33.676-13.948 0-8.244 6.686-14.93 14.93-14.93h24.146c8.244 0 14.93 6.686 14.93 14.93 0 17.558 21.264 26.359 33.676 13.948 5.824-5.825 15.299-5.825 21.124 0l17.072 17.086c5.828 5.828 5.828 15.282 0 21.11-12.412 12.411-3.601 33.675 13.948 33.675 8.27 0 14.929 6.686 14.929 14.93v24.146c0 8.244-6.659 14.93-14.929 14.93zm0-14c.515 0 .929-.416.929-.93v-24.146c0-.513-.414-.93-.929-.93-30.003 0-45.067-36.355-23.848-57.575.362-.362.362-.949 0-1.311l-17.072-17.086c-.365-.365-.96-.365-1.325 0-21.219 21.22-57.575 6.173-57.575-23.847 0-.514-.417-.93-.93-.93h-24.146c-.514 0-.93.416-.93.93 0 30.02-36.356 45.067-57.575 23.847-.362-.362-.949-.362-1.311 0l-17.086 17.086c-.362.362-.362.949 0 1.311 21.219 21.22 6.173 57.575-23.848 57.575-.513 0-.93.417-.93.93v24.146c0 .514.417.93.93.93 30.021 0 45.067 36.356 23.848 57.575-.366.366-.366.96 0 1.325l17.086 17.072c.362.362.949.362 1.311 0 21.237-21.237 57.575-6.191 57.575 23.848 0 .515.416.93.93.93h24.146c.513 0 .93-.415.93-.93 0-30.003 36.356-45.067 57.575-23.848.365.366.96.366 1.325 0l17.072-17.072c.365-.365.365-.959 0-1.325-21.219-21.219-6.155-57.575 23.848-57.575zm-137.079 47.317c-23.857-9.648-40.756-33.076-40.756-60.313 0-35.449 28.602-64.416 63.914-65.01l7.358-10.975c1.811-2.701 5.244-3.799 8.287-2.651 3.042 1.149 4.893 4.242 4.467 7.467l-1.144 8.652c27.169 7.794 47.156 32.892 47.156 62.517 0 35.803-29.217 65.02-65.019 65.02-1.975 0-3.931-.089-5.862-.263l-9.368 11.705c-2.11 2.636-5.803 3.39-8.778 1.792s-4.385-5.093-3.351-8.309c0 0 1.262-3.928 3.096-9.632zm12.924-110.059c-22.678 5.178-39.68 25.536-39.68 49.746 0 21.018 12.826 39.142 31.055 46.941 4.512-14.038 9.419-29.303 9.419-29.303l-28.437-10.715c-2-.754-3.546-2.38-4.198-4.416s-.338-4.258.852-6.033zm27.342 1.304-3.874 29.306 27.465 13.458c1.907.934 3.287 2.685 3.751 4.757.464 2.073-.039 4.245-1.366 5.903l-36.622 45.757c25.593-2.692 45.662-24.454 45.662-50.739 0-22.518-14.716-41.704-35.016-48.442zm-14.8 5.13-26.985 40.248 26.408 9.951c3.493 1.315 5.338 5.139 4.196 8.692l-7.211 22.433 27.981-34.961-24.142-11.829c-2.7-1.323-4.254-4.223-3.86-7.204z"/></svg>