<svg id="Layer_1_1_" enable-background="new 0 0 64 64" height="512" viewBox="0 0 64 64" width="512" xmlns="http://www.w3.org/2000/svg"><path d="m21.61 45.602c-.538-.76-1.415-1.213-2.345-1.213-1.003 0-1.917.51-2.444 1.363s-.574 1.897-.097 2.849l.42.726-1.634-.545-2.565-5.13-.684-2.735c-.283-1.129-1.292-1.917-2.455-1.917-.745 0-1.448.326-1.93.895-.482.568-.688 1.315-.565 2.051l.068.409-.297-.347c-.95-1.108-2.581-1.332-3.795-.522-.652.435-1.091 1.099-1.236 1.869s.022 1.549.472 2.19l5.753 8.219c.138.196.299.377.482.538l3.962 3.466c.29.253.625.516.977.791 1.219.953 2.601 2.032 2.517 3.202l1.995.143c.16-2.231-1.748-3.723-3.281-4.921-.321-.25-.627-.489-.891-.721l-3.96-3.464c-.062-.055-.116-.115-.162-.181l-5.753-8.219c-.139-.198-.19-.438-.146-.674.044-.237.18-.441.381-.575.374-.25.875-.181 1.167.16l4.576 5.339c.329.384.752.681 1.26.869l2.691.898.016.032.032-.016 4.515 1.507.213.368c.087.152.133.326.133.501v1.193h2v-1.193c0-.525-.139-1.045-.403-1.502l-2.114-3.652c-.196-.393-.039-.725.038-.85.077-.124.304-.414.743-.414.283 0 .549.138.712.369 2.706 3.822 3.417 4.829 3.629 5.118l-.005.003c1.727 2.43 1.592 5.376 1.45 8.495-.024.535-.048 1.068-.063 1.599l1.999.055c.015-.518.038-1.039.062-1.562.151-3.319.308-6.753-1.818-9.745-.055-.081-3.62-5.119-3.62-5.119zm-9.545 2.031c-.157-.059-.297-.157-.407-.285l-1.763-2.057-.612-3.674c-.035-.211.059-.36.119-.43.059-.07.19-.187.404-.187.244 0 .455.165.514.4l.71 2.842c.018.071.043.14.076.205l1.719 3.439z"/><path d="m60.714 41.485c-1.213-.808-2.844-.584-3.796.523l-.297.346.068-.41c.123-.735-.083-1.482-.565-2.051-.481-.567-1.185-.893-1.93-.893-1.163 0-2.172.788-2.454 1.916l-.684 2.735-2.565 5.13-1.636.546.451-.78c.448-.897.401-1.942-.126-2.795-.527-.854-1.441-1.363-2.444-1.363-.931 0-1.808.453-2.345 1.213 0 0-3.565 5.038-3.623 5.119-2.125 2.991-1.968 6.425-1.817 9.744.024.523.047 1.045.062 1.562l1.999-.055c-.015-.53-.039-1.063-.063-1.599-.143-3.119-.277-6.065 1.45-8.495l-.005-.003c.212-.289.924-1.296 3.629-5.118.163-.231.43-.369.712-.369.439 0 .666.29.743.414.077.125.234.457.067.796l-2.143 3.707c-.263.457-.402.976-.402 1.502v1.193h2v-1.193c0-.175.046-.349.134-.5l.213-.369 4.515-1.507.032.016.016-.032 2.724-.909c.474-.177.897-.474 1.226-.857l4.576-5.338c.292-.342.793-.411 1.168-.161.201.134.336.338.38.575.044.236-.007.476-.146.674l-5.753 8.219c-.046.065-.101.126-.161.179l-3.961 3.466c-.264.231-.571.471-.892.721-1.533 1.198-3.441 2.689-3.281 4.921l1.995-.143c-.084-1.17 1.298-2.249 2.517-3.202.352-.275.687-.538.977-.791l3.963-3.468c.181-.159.343-.34.48-.536l5.753-8.219c.45-.642.617-1.42.472-2.19s-.581-1.436-1.233-1.871zm-8.373 5.863c-.109.128-.25.227-.373.273l-.793.265 1.719-3.438c.033-.065.058-.134.076-.205l.71-2.842c.059-.235.27-.4.514-.4.213 0 .345.117.404.188.06.069.154.219.119.43l-.612 3.674z"/><path d="m18 43h7c0 .553.448 1 1 1h12c.552 0 1-.447 1-1h7c.552 0 1-.447 1-1v-10c0-.553-.448-1-1-1h-7v-4c0-.553-.448-1-1-1h-1v-1c0-1.654-1.346-3-3-3h-1v-2.059c4.493-.499 8-4.316 8-8.941 0-4.963-4.038-9-9-9s-9 4.037-9 9c0 4.625 3.507 8.442 8 8.941v2.059h-1c-1.654 0-3 1.346-3 3v1h-1c-.552 0-1 .447-1 1v4h-7c-.552 0-1 .447-1 1v10c0 .553.448 1 1 1zm27-10v8h-6v-8zm-20-22c0-3.859 3.14-7 7-7s7 3.141 7 7-3.14 7-7 7-7-3.141-7-7zm8 31h-2v-2h2zm-4-17c0-.552.449-1 1-1h4c.551 0 1 .448 1 1v1h-6zm-2 3h10v14h-2v-3c0-.553-.448-1-1-1h-4c-.552 0-1 .447-1 1v3h-2zm-8 5h6v8h-6z"/><path d="m29 30h6v2h-6z"/><path d="m29 34h6v2h-6z"/><path d="m33 17v-1.184c1.161-.414 2-1.514 2-2.816 0-1.654-1.346-3-3-3-.551 0-1-.448-1-1s.449-1 1-1 1 .448 1 1h2c0-1.302-.839-2.402-2-2.816v-1.184h-2v1.184c-1.161.414-2 1.514-2 2.816 0 1.654 1.346 3 3 3 .551 0 1 .448 1 1s-.449 1-1 1-1-.448-1-1h-2c0 1.302.839 2.402 2 2.816v1.184z"/><path d="m21 36h2v2h-2z"/><path d="m41 36h2v2h-2z"/><path d="m51 37h6c.552 0 1-.447 1-1v-23h3c.382 0 .73-.218.898-.561.167-.343.125-.752-.109-1.054l-7-9c-.379-.486-1.2-.486-1.579 0l-7 9c-.234.302-.276.711-.109 1.054.169.343.517.561.899.561h3v23c0 .553.448 1 1 1zm-1.956-26 4.956-6.371 4.956 6.371h-1.956c-.552 0-1 .447-1 1v23h-4v-23c0-.553-.448-1-1-1z"/><path d="m7 37h6c.552 0 1-.447 1-1v-23h3c.382 0 .73-.218.898-.561.167-.343.125-.752-.109-1.054l-7-9c-.379-.486-1.2-.486-1.579 0l-7 9c-.234.302-.276.711-.109 1.054.169.343.517.561.899.561h3v23c0 .553.448 1 1 1zm-1.956-26 4.956-6.371 4.956 6.371h-1.956c-.552 0-1 .447-1 1v23h-4v-23c0-.553-.448-1-1-1z"/></svg>