<svg id="Sustainable_Infrastructure" viewBox="0 0 64 64" xmlns="http://www.w3.org/2000/svg" data-name="Sustainable Infrastructure"><path d="m48 34c-7.72 0-14 6.28-14 14s6.28 14 14 14 14-6.28 14-14-6.28-14-14-14zm0 26c-6.62 0-12-5.38-12-12s5.38-12 12-12 12 5.38 12 12-5.38 12-12 12z"/><path d="m54 45.27h-4.77l1.42-5.67c.12-.46-.11-.94-.54-1.15-.43-.2-.94-.08-1.23.3l-7.78 10.37c-.23.3-.26.71-.09 1.05s.52.55.89.55h4.77l-1.42 5.67c-.12.46.11.94.54 1.15.14.07.28.1.43.1.31 0 .61-.14.8-.4l7.78-10.37c.23-.3.26-.71.09-1.05s-.52-.55-.89-.55zm-5.61 6.81.53-2.11c.07-.3 0-.62-.18-.86-.19-.24-.48-.38-.79-.38h-4.05l3.61-4.81-.53 2.11c-.07.3 0 .62.18.86.19.24.48.38.79.38h4.05z"/><path d="m37.05 60h-7.05v-39.75l19.23 4.37c.45.1.77.51.77.97v5.67c0 .55.45 1 1 1s1-.45 1-1v-5.67c0-1.4-.99-2.63-2.34-2.92l-3.66-.83v-5.84c0-1.1-.9-2-2-2h-3v-3c0-.55-.45-1-1-1s-1 .45-1 1v3h-3c-1.1 0-2 .9-2 2v3.11l-4-.91v-13.2c0-1.65-1.35-3-3-3h-22c-1.65 0-3 1.35-3 3v54c0 1.65 1.35 3 3 3h32.05c.55 0 1-.45 1-1s-.45-1-1-1zm-1.05-44h4s0 0 0 0h4s0 5.39 0 5.39l-8-1.82v-3.56zm-8 12h-17v-4h17zm0-13h-17v-4h17zm-23 45c-.55 0-1-.45-1-1v-54c0-.55.45-1 1-1h22c.55 0 1 .45 1 1v4h-17c-1.1 0-2 .9-2 2v4c0 1.1.9 2 2 2h17v5h-17c-1.1 0-2 .9-2 2v4c0 1.1.9 2 2 2h17v5h-17c-1.1 0-2 .9-2 2v4c0 1.1.9 2 2 2h17v17zm23-19h-17v-4h17z"/></svg>