<?xml version="1.0"?>
<svg xmlns="http://www.w3.org/2000/svg" viewBox="0 0 64 64" width="512" height="512"><g id="Manager-Gear-Process-Management-Company"><rect x="37" y="14" width="2" height="2"/><rect x="43" y="14" width="2" height="2"/><path d="M41,21a3,3,0,0,0,3-3H42a1,1,0,0,1-2,0H38A3,3,0,0,0,41,21Z"/><path d="M62,25A21.07,21.07,0,0,0,47.2,4.95a7.99,7.99,0,0,0-12.4,0A21.087,21.087,0,0,0,20.23,22H17a1,1,0,0,0-.99.84l-.61,3.68a12.441,12.441,0,0,0-2.68,1.11L9.68,25.46a1,1,0,0,0-1.29.1L5.56,28.39a1,1,0,0,0-.1,1.29l2.17,3.04A12.441,12.441,0,0,0,6.52,35.4l-3.68.61A1,1,0,0,0,2,37v4a1,1,0,0,0,.84.99l3.68.61a12.441,12.441,0,0,0,1.11,2.68L5.46,48.32a1,1,0,0,0,.1,1.29l2.83,2.83a1,1,0,0,0,1.29.1l3.04-2.17a12.441,12.441,0,0,0,2.68,1.11l.61,3.68A1,1,0,0,0,17,56h4a1,1,0,0,0,.99-.84l.61-3.68a12.441,12.441,0,0,0,2.68-1.11l3.04,2.17a1,1,0,0,0,1.29-.1l.97-.97a10.873,10.873,0,0,0,.64,1.54l-1.63,2.17a1,1,0,0,0,.09,1.31l2.83,2.83a1,1,0,0,0,1.31.09l2.17-1.63a10.69,10.69,0,0,0,1.64.68l.38,2.68A1,1,0,0,0,39,62h4a1,1,0,0,0,.99-.86l.38-2.68a10.69,10.69,0,0,0,1.64-.68l2.17,1.63a1,1,0,0,0,1.31-.09l2.83-2.83a1,1,0,0,0,.09-1.31l-1.63-2.17a10.69,10.69,0,0,0,.68-1.64l2.68-.38A1,1,0,0,0,55,50V46a1,1,0,0,0-.86-.99l-2.68-.38A11.835,11.835,0,0,0,51,43.46,21.009,21.009,0,0,0,62,25ZM52,16a3.009,3.009,0,0,0-3-3V10a8.111,8.111,0,0,0-.36-2.38A19.083,19.083,0,0,1,60,25a18.872,18.872,0,0,1-4,11.62V36.6a9,9,0,0,0-5.93-8.45L45,26.3V23.92A8.06,8.06,0,0,0,48.74,19H49A3.009,3.009,0,0,0,52,16Zm-3,1V15a1,1,0,0,1,0,2ZM45.92,28.76l-1.08,1.66-1.82-1.81,1.04-.52ZM35,10a6,6,0,0,1,12,0v.97a2.009,2.009,0,0,1-1.6-1.48l-.43-1.73a.986.986,0,0,0-1.09-.75A1,1,0,0,0,43,8a3.009,3.009,0,0,1-3,3H35Zm0,3h5a5.012,5.012,0,0,0,3.93-1.91A3.99,3.99,0,0,0,47,12.98V17a6,6,0,0,1-12,0ZM32,35v6.73a19.141,19.141,0,0,1-4-2.91V36.6a6.988,6.988,0,0,1,4.61-6.57l1.54-.56,2.01,3.08a1.059,1.059,0,0,0,.74.45H37a1.007,1.007,0,0,0,.71-.29l.53-.54.72,1.08-.95,7.63a.953.953,0,0,0,.1.57l1.23,2.47A19.384,19.384,0,0,1,34,42.65V35Zm4.08-6.24,1.86-.67,1.04.52-1.82,1.81Zm1.65,16.96a19.234,19.234,0,0,0,6.54,0A4.039,4.039,0,0,1,45,48a4,4,0,0,1-8,0A4.039,4.039,0,0,1,37.73,45.72Zm2.3-4.9L40.88,34h.24l.85,6.82L41,42.76ZM41.46,32h-.92l-.85-1.27L41,29.41l1.31,1.32Zm.3-5H40.24L39,26.38V24.74a7.822,7.822,0,0,0,4,0v1.64ZM33.36,7.62A8.111,8.111,0,0,0,33,10v3a3,3,0,0,0,0,6h.26A8.06,8.06,0,0,0,37,23.92V26.3l-5.07,1.85A9,9,0,0,0,26,36.6v.02A18.872,18.872,0,0,1,22,25,19.083,19.083,0,0,1,33.36,7.62ZM33,15v2a1,1,0,0,1,0-2ZM24,39a5,5,0,1,1-5-5A5,5,0,0,1,24,39Zm4.79,11.42-2.88-2.05a1,1,0,0,0-1.11-.04,11.031,11.031,0,0,1-3.3,1.38,1,1,0,0,0-.77.81L20.15,54h-2.3l-.58-3.48a1,1,0,0,0-.77-.81,11.031,11.031,0,0,1-3.3-1.38,1,1,0,0,0-1.11.04L9.21,50.42,7.58,48.79l2.05-2.88a1,1,0,0,0,.04-1.11,11.031,11.031,0,0,1-1.38-3.3,1,1,0,0,0-.81-.77L4,40.15v-2.3l3.48-.58a1,1,0,0,0,.81-.77,11.031,11.031,0,0,1,1.38-3.3,1,1,0,0,0-.04-1.11L7.58,29.21l1.63-1.63,2.88,2.05a1,1,0,0,0,1.11.04,11.031,11.031,0,0,1,3.3-1.38,1,1,0,0,0,.77-.81L17.85,24h2.19c-.01.33-.04.66-.04,1a20.861,20.861,0,0,0,1.38,7.43A6.93,6.93,0,0,0,19,32a7,7,0,1,0,6.97,7.63,20.623,20.623,0,0,0,3.45,2.87,10.976,10.976,0,0,1-1.09,2.3,1,1,0,0,0,.04,1.11l2.05,2.88ZM53,46.87v2.26l-2.46.35a1.008,1.008,0,0,0-.83.74,8.6,8.6,0,0,1-.98,2.36,1,1,0,0,0,.06,1.11l1.5,2-1.6,1.6-2-1.5a1,1,0,0,0-1.11-.06,8.6,8.6,0,0,1-2.36.98,1.008,1.008,0,0,0-.74.83L42.13,60H39.87l-.35-2.46a1.008,1.008,0,0,0-.74-.83,8.6,8.6,0,0,1-2.36-.98.981.981,0,0,0-1.11.06l-2,1.5-1.6-1.6,1.5-2a1,1,0,0,0,.06-1.11,8.6,8.6,0,0,1-.98-2.36,1.113,1.113,0,0,0-.15-.31l.3-.3a1,1,0,0,0,.1-1.29l-2.17-3.04a15.022,15.022,0,0,0,.79-1.74,21.078,21.078,0,0,0,4.52,1.75,6,6,0,1,0,10.64,0,20.977,20.977,0,0,0,2.87-.95,8.488,8.488,0,0,1,.52,1.44,1.008,1.008,0,0,0,.83.74Zm1-8.05a19.141,19.141,0,0,1-4,2.91V35H48v7.65a19.384,19.384,0,0,1-5.34,1.27l1.23-2.47a.953.953,0,0,0,.1-.57l-.95-7.63.72-1.08.53.54A1.007,1.007,0,0,0,45,33h.1a1.059,1.059,0,0,0,.74-.45l2.01-3.08,1.54.56A6.988,6.988,0,0,1,54,36.6Z"/></g></svg>
