<svg height="496pt" viewBox="0 0 496 496" width="496pt" xmlns="http://www.w3.org/2000/svg"><path d="m440.023438 337.863281c14.601562-11.742187 23.976562-29.71875 23.976562-49.863281v-16c0-35.289062-28.710938-64-64-64s-64 28.710938-64 64v16c0 20.144531 9.375 38.113281 23.96875 49.855469-22.097656 5.046875-40.695312 20.265625-49.871094 41.160156-6.707031-4.199219-14.128906-7.34375-22.066406-9.152344 14.59375-11.742187 23.96875-29.71875 23.96875-49.863281v-16c0-35.289062-28.710938-64-64-64s-64 28.710938-64 64v16c0 20.144531 9.375 38.121094 23.976562 49.863281-7.9375 1.816407-15.359374 4.953125-22.066406 9.152344-9.175781-20.894531-27.773437-36.113281-49.871094-41.160156 14.585938-11.742188 23.960938-29.710938 23.960938-49.855469v-16c0-35.289062-28.710938-64-64-64s-64 28.710938-64 64v16c0 20.144531 9.375 38.121094 23.976562 49.863281-32 7.3125-55.976562 35.953125-55.976562 70.136719v48c0 4.414062 3.585938 8 8 8h144v24c0 4.414062 3.585938 8 8 8h176c4.414062 0 8-3.585938 8-8v-24h144c4.414062 0 8-3.585938 8-8v-48c0-34.183594-23.976562-62.824219-55.976562-70.136719zm-10.320313 46.632813-25.582031-15.351563c-2.535156-1.519531-5.695313-1.519531-8.234375 0l-25.582031 15.351563 4.625-32.398438c.359374-.019531.703124-.097656 1.070312-.097656h48c.359375 0 .710938.046875 1.070312.054688zm18.296875-112.496094c-17.648438 0-32-14.351562-32-32v-13.199219c18.617188 6.605469 32 24.34375 32 45.199219zm-48-48v16c0 17.648438-14.351562 32-32 32h-16c0-26.472656 21.527344-48 48-48zm-48 64h16c16.6875 0 31.390625-8.566406 40-21.519531 8.609375 12.960937 23.3125 21.519531 40 21.519531 0 26.472656-21.527344 48-48 48s-48-21.527344-48-48zm-74.296875 128.496094-25.582031-15.351563c-2.535156-1.519531-5.695313-1.519531-8.234375 0l-25.582031 15.351563 4.632812-32.441406c.351562-.007813.703125-.054688 1.0625-.054688h48c.359375 0 .710938.046875 1.070312.054688zm18.296875-112.496094c-17.648438 0-32-14.351562-32-32v-13.199219c18.617188 6.605469 32 24.34375 32 45.199219zm-48-48v16c0 17.648438-14.351562 32-32 32h-16c0-26.472656 21.527344-48 48-48zm-48 64h16c16.6875 0 31.390625-8.566406 40-21.519531 8.609375 12.960937 23.3125 21.519531 40 21.519531 0 26.472656-21.527344 48-48 48s-48-21.527344-48-48zm-74.296875 64.496094-25.582031-15.351563c-2.535156-1.519531-5.695313-1.519531-8.234375 0l-25.582031 15.351563 4.632812-32.441406c.351562-.007813.703125-.054688 1.0625-.054688h48c.367188 0 .710938.078125 1.070312.089844zm18.296875-112.496094c-17.648438 0-32-14.351562-32-32v-13.199219c18.617188 6.605469 32 24.34375 32 45.199219zm-48-48v16c0 17.648438-14.351562 32-32 32h-16c0-26.472656 21.527344-48 48-48zm-48 64h16c16.6875 0 31.390625-8.566406 40-21.519531 8.609375 12.960937 23.3125 21.519531 40 21.519531 0 26.472656-21.527344 48-48 48s-48-21.527344-48-48zm-32 120c0-24.710938 16.113281-45.695312 38.367188-53.113281l-6.289063 43.976562c-.4375 3.058594.921875 6.089844 3.496094 7.800781 2.578125 1.703126 5.898437 1.785157 8.546875.191407l27.878906-16.726563v57.871094h-72zm88 40v-57.871094l27.878906 16.726563c1.273438.769531 2.695313 1.144531 4.121094 1.144531 1.542969 0 3.089844-.449219 4.425781-1.335938 2.566407-1.703124 3.925781-4.742187 3.496094-7.800781l-6.28125-43.96875c16.238281 5.394531 29.261719 18.097657 35.054687 34.671875-12.785156 13.007813-20.695312 30.808594-20.695312 50.433594v8zm64-8c0-24.710938 16.113281-45.695312 38.367188-53.113281l-6.277344 43.976562c-.441406 3.058594.917968 6.089844 3.496094 7.800781 2.574218 1.710938 5.894531 1.785157 8.542968.191407l27.871094-16.726563v57.871094h-72zm160 40h-72v-57.871094l27.878906 16.726563c1.273438.769531 2.695313 1.144531 4.121094 1.144531 1.542969 0 3.089844-.449219 4.425781-1.335938 2.566407-1.703124 3.925781-4.742187 3.496094-7.800781l-6.28125-43.976562c22.246094 7.417969 38.359375 28.402343 38.359375 53.113281zm-4.695312-90.425781c5.792968-16.582031 18.816406-29.277344 35.054687-34.671875l-6.28125 43.96875c-.4375 3.058594.921875 6.089844 3.496094 7.800781 2.578125 1.710937 5.898437 1.785156 8.546875.191406l27.878906-16.734375v57.871094h-48v-8c0-19.625-7.910156-37.425781-20.695312-50.425781zm156.695312 58.425781h-72v-57.871094l27.878906 16.726563c1.273438.769531 2.695313 1.144531 4.121094 1.144531 1.542969 0 3.089844-.449219 4.425781-1.335938 2.566407-1.703124 3.925781-4.742187 3.496094-7.800781l-6.28125-43.976562c22.246094 7.417969 38.359375 28.402343 38.359375 53.113281zm0 0"/><path d="m248 144c-8.824219 0-16-7.175781-16-16h-16c0 14.863281 10.238281 27.289062 24 30.863281v17.136719h16v-17.136719c13.761719-3.574219 24-16 24-30.863281 0-17.648438-14.351562-32-32-32-8.824219 0-16-7.175781-16-16s7.175781-16 16-16 16 7.175781 16 16h16c0-14.863281-10.238281-27.289062-24-30.863281v-17.136719h-16v17.136719c-13.761719 3.574219-24 16-24 30.863281 0 17.648438 14.351562 32 32 32 8.824219 0 16 7.175781 16 16s-7.175781 16-16 16zm0 0"/><path d="m296 96h16v16h-16zm0 0"/><path d="m184 96h16v16h-16zm0 0"/><path d="m40 80c10.414062 0 19.214844-6.710938 22.527344-16h89.496094c-4.167969 9.976562-6.75 20.742188-7.617188 32h-33.878906c-3.3125-9.289062-12.113282-16-22.527344-16-13.230469 0-24 10.769531-24 24s10.769531 24 24 24c10.414062 0 19.214844-6.710938 22.527344-16h33.878906c4.105469 53.609375 48.945312 96 103.59375 96 36.71875 0 68.984375-19.183594 87.496094-48h97.976562c3.3125 9.289062 12.113282 16 22.527344 16 13.230469 0 24-10.769531 24-24s-10.769531-24-24-24c-10.414062 0-19.214844 6.710938-22.527344 16h-89.496094c4.167969-9.976562 6.75-20.742188 7.617188-32h33.878906c3.3125 9.289062 12.113282 16 22.527344 16 13.230469 0 24-10.769531 24-24s-10.769531-24-24-24c-10.414062 0-19.214844 6.710938-22.527344 16h-33.878906c-4.105469-53.609375-48.945312-96-103.59375-96-36.71875 0-68.984375 19.183594-87.496094 48h-97.976562c-3.3125-9.289062-12.113282-16-22.527344-16-13.230469 0-24 10.769531-24 24s10.769531 24 24 24zm416 64c4.40625 0 8 3.59375 8 8s-3.59375 8-8 8-8-3.59375-8-8 3.59375-8 8-8zm-368-32c-4.40625 0-8-3.59375-8-8s3.59375-8 8-8 8 3.59375 8 8-3.59375 8-8 8zm320-16c4.40625 0 8 3.59375 8 8s-3.59375 8-8 8-8-3.59375-8-8 3.59375-8 8-8zm-160-80c48.519531 0 88 39.480469 88 88s-39.480469 88-88 88-88-39.480469-88-88 39.480469-88 88-88zm-208 32c4.40625 0 8 3.59375 8 8s-3.59375 8-8 8-8-3.59375-8-8 3.59375-8 8-8zm0 0"/></svg>