<svg clip-rule="evenodd" fill-rule="evenodd" stroke-linejoin="round" stroke-miterlimit="2" viewBox="0 0 48 48" xmlns="http://www.w3.org/2000/svg"><path id="path192" d="m13 3c-.552 0-1 .448-1 1v3.033h-1c-.552 0-1 .448-1 1v4c0 2.418 1.718 4.437 4 4.901v6.066h-10c-.552 0-1 .448-1 1 0 1.016.074 2.032.221 3.041.057.387.334.704.709.814l2.677.784c.409 1.533 1.021 3.007 1.817 4.381l-1.342 2.445c-.188.343-.159.764.074 1.078 1.217 1.634 2.667 3.084 4.301 4.301.314.233.735.262 1.078.074l2.445-1.342c1.374.796 2.848 1.408 4.383 1.817-.001 0 .782 2.677.782 2.677.11.375.427.652.814.709 2.017.295 4.065.295 6.082 0 .387-.057.704-.334.814-.709l.784-2.677c1.533-.409 3.007-1.021 4.381-1.817l2.445 1.342c.343.188.764.159 1.078-.074 1.634-1.217 3.084-2.667 4.301-4.301.233-.314.262-.735.074-1.078l-1.342-2.445c.796-1.374 1.408-2.848 1.817-4.383 0 .001 2.677-.782 2.677-.782.375-.11.652-.427.709-.814.147-1.009.221-2.025.221-3.041 0-.552-.448-1-1-1h-6v-13c0-1.655-1.344-3-3-3v-2c0-.53-.211-1.039-.586-1.414s-.884-.586-1.414-.586h-4c-.53 0-1.039.211-1.414.586s-.586.884-.586 1.414v2c-1.656 0-3 1.345-3 3v13h-8v-6.066c2.282-.464 4-2.483 4-4.901v-4c0-.552-.448-1-1-1h-1v-3.033c0-.552-.448-1-1-1s-1 .448-1 1v3.033h-2v-3.033c0-.552-.448-1-1-1zm16 2h4v2h-4zm-2 4h8c.552 0 1 .448 1 1v13h-10v-13c0-.552.448-1 1-1zm-15 .033h6v3c0 1.656-1.344 3-3 3s-3-1.344-3-3zm18.994 2.967c-.321.002-.635.158-.826.445l-2 3c-.205.308-.223.701-.049 1.026.175.325.512.529.881.529h2.131l-.963 1.445c-.306.46-.182 1.081.277 1.387.46.306 1.081.182 1.387-.277l2-3c.205-.308.225-.701.051-1.026-.175-.325-.514-.529-.883-.529h-2.131l.963-1.445c.306-.46.182-1.081-.277-1.387-.173-.115-.368-.169-.561-.168zm-25.969 13h6.018c.512 6.708 6.119 12 12.957 12s12.445-5.292 12.957-12h6.018c-.02.374-.052.747-.094 1.119l-2.6.76c-.347.101-.612.382-.693.734-.398 1.718-1.079 3.358-2.012 4.854-.191.307-.201.693-.027 1.01l1.301 2.377c-.884 1.107-1.889 2.113-2.996 2.996 0 .001-2.377-1.301-2.377-1.301-.317-.174-.703-.164-1.01.027-1.496.933-3.136 1.614-4.854 2.012-.352.081-.633.346-.734.693l-.76 2.6c-1.408.159-2.83.159-4.238 0l-.76-2.6c-.101-.347-.382-.612-.734-.693-1.718-.398-3.358-1.079-4.854-2.012-.307-.191-.693-.201-1.01-.027l-2.377 1.301c-1.107-.884-2.113-1.889-2.996-2.996-.001 0 1.301-2.377 1.301-2.377.174-.317.164-.703-.027-1.01-.933-1.496-1.614-3.136-2.012-4.854-.081-.352-.346-.633-.693-.734l-2.6-.76c-.042-.372-.074-.745-.094-1.119zm8.022 0h1.777c.058.01.116.018.176.018s.118-.008.176-.018h19.777c-.506 5.603-5.22 10-10.953 10s-10.447-4.397-10.953-10z"/></svg>