<svg id="Layer_1" enable-background="new 0 0 512 512" height="512" viewBox="0 0 512 512" width="512" xmlns="http://www.w3.org/2000/svg"><path d="m366.443 137.095h-55.095l-53.247-19.673c-1.356-.498-2.849-.498-4.205.006l-53.118 19.667h-55.1c-3.349 0-6.062 2.72-6.062 6.066v118.84c0 .212.012.424.032.624 6.278 60.662 54.994 108.533 115.825 113.815.173.017.352.022.526.022.173 0 .347-.006.525-.022 60.777-5.268 109.543-53.132 115.947-113.805.017-.205.034-.418.034-.635v-118.84c.003-3.346-2.714-6.065-6.062-6.065zm-6.063 124.587c-5.689 52.539-46.523 94.295-98.316 101.81v-17.335c0-3.347-2.716-6.065-6.063-6.065-3.349 0-6.062 2.719-6.062 6.065v17.335c-51.829-7.525-92.618-49.286-98.196-101.804v-112.467h50.118c.72 0 1.432-.13 2.105-.379l45.973-17.02v16.737c0 3.348 2.713 6.065 6.062 6.065 3.347 0 6.063-2.718 6.063-6.065v-16.743l46.096 17.025c.668.249 1.385.379 2.099.379h50.121zm-55.701-51.174c0-26.846-21.838-48.683-48.678-48.683-26.776 0-48.56 21.837-48.56 48.683v19.07c-9.927 11.638-15.369 26.299-15.369 41.55 0 35.243 28.68 63.928 63.929 63.928s63.922-28.685 63.922-63.928c0-15.328-5.392-29.982-15.244-41.55zm3.121 60.62c0 28.565-23.241 51.802-51.799 51.802-28.56 0-51.798-23.236-51.798-51.802 0-13 4.883-25.491 13.771-35.158 1.021-1.113 1.595-2.583 1.595-4.097v-21.365c0-20.156 16.347-36.558 36.433-36.558 20.154 0 36.557 16.401 36.557 36.558v21.365c0 1.514.569 2.983 1.596 4.097 8.798 9.582 13.645 22.07 13.645 35.158zm-51.799-26.473c-9.236 0-16.749 7.569-16.749 16.874 0 7.086 4.447 13.124 10.687 15.561v14.806c0 3.348 2.713 6.061 6.062 6.061 3.347 0 6.063-2.713 6.063-6.061v-14.784c6.301-2.431 10.804-8.48 10.804-15.582 0-9.305-7.561-16.875-16.867-16.875zm0 12.126c2.614 0 4.741 2.127 4.741 4.748 0 2.539-2.127 4.617-4.741 4.617-2.551 0-4.624-2.078-4.624-4.617 0-2.577 2.118-4.748 4.624-4.748zm0-72.75c-14.53 0-26.346 11.877-26.346 26.477v6.358c0 1.975.954 3.819 2.571 4.954 1.61 1.145 3.678 1.421 5.534.754 12.104-4.34 24.657-4.286 36.6 0 .667.238 1.361.353 2.044.353 1.238 0 2.458-.374 3.489-1.106 1.617-1.135 2.577-2.979 2.577-4.954v-6.358c.001-14.601-11.875-26.478-26.469-26.478zm0 23.173c-4.716 0-9.442.526-14.123 1.567.851-7.091 6.855-12.613 14.123-12.613 7.195 0 13.357 5.62 14.235 12.613-4.704-1.041-9.467-1.567-14.235-1.567zm133.01-64.705h100.842c8.902 0 16.143-7.297 16.143-16.266 0-.189-.008-.368-.025-.548-.515-5.701-2.019-11.047-4.477-15.892-4.318-10.547-18.093-19.684-42.085-27.909-.173-.173-.427-.71-.606-1.692 9.275-10.308 12.445-24.68 10.563-47.218-1.411-18.528-16.506-26.971-29.934-26.971-13.426 0-28.515 8.442-29.932 26.927-1.876 22.576 1.293 36.954 10.57 47.262-.191.982-.441 1.52-.614 1.692-23.992 8.226-37.768 17.362-42.086 27.909-2.452 4.845-3.962 10.19-4.475 15.892-.018.18-.026.358-.026.548-.001 8.969 7.238 16.266 16.142 16.266zm-.731-27.415c.093-.185.18-.374.261-.564 1.561-4.009 8.24-12.109 35.321-21.322.188-.07.38-.146.57-.228 3.513-1.611 7.754-5.502 7.981-14.856.036-1.697-.643-3.329-1.869-4.513-7.958-7.645-10.637-19.505-8.957-39.703.833-10.89 9.559-15.767 17.844-15.767 8.287 0 17.014 4.877 17.847 15.81 1.681 20.155-1.001 32.016-8.959 39.66-1.226 1.184-1.9 2.815-1.862 4.513.223 9.354 4.461 13.245 7.974 14.856.192.081.377.157.576.228 27.075 9.213 33.749 17.313 35.322 21.322.074.19.155.38.255.564 1.769 3.429 2.869 7.255 3.281 11.372-.113 2.181-1.87 3.917-4.012 3.917h-100.842c-2.142 0-3.901-1.736-4.014-3.917.412-4.117 1.513-7.943 3.283-11.372zm113.213 358.208c-4.318-10.547-18.093-19.679-42.09-27.909-.168-.167-.413-.672-.59-1.595 9.146-10.248 12.41-25.033 10.551-47.316-1.405-18.446-16.506-26.85-29.934-26.85-13.431 0-28.527 8.403-29.932 26.813-1.856 22.314 1.405 37.105 10.558 47.354-.181.923-.429 1.428-.596 1.595-23.998 8.23-37.773 17.362-42.092 27.909-2.462 4.86-3.967 10.249-4.475 16.022-.018.184-.026.357-.026.536 0 8.903 7.239 16.146 16.143 16.146h100.842c8.902 0 16.143-7.242 16.143-16.146 0-.179-.008-.353-.025-.536-.51-5.774-2.012-11.163-4.477-16.023zm-11.64 20.579h-100.842c-2.11 0-3.901-1.72-4.014-3.803.408-4.189 1.512-8.053 3.282-11.487.093-.184.18-.373.261-.568 1.561-4.005 8.24-12.099 35.321-21.317.188-.065.38-.142.57-.229 3.513-1.605 7.754-5.468 7.981-14.729.036-1.699-.643-3.338-1.869-4.515-7.969-7.656-10.65-19.549-8.957-39.829.826-10.808 9.556-15.643 17.844-15.643 8.29 0 17.019 4.835 17.847 15.691 1.686 20.231-.996 32.124-8.959 39.78-1.226 1.177-1.905 2.815-1.862 4.515.223 9.261 4.461 13.123 7.98 14.729.186.087.376.163.569.229 27.075 9.219 33.749 17.313 35.322 21.317.074.195.155.385.255.568 1.772 3.435 2.874 7.298 3.281 11.487-.111 2.084-1.906 3.804-4.01 3.804zm-355.243-384.142c-4.352-10.502-18.087-19.612-41.967-27.811-.141-.18-.4-.695-.583-1.726 9.276-10.308 12.446-24.68 10.563-47.218-1.412-18.528-16.506-26.97-29.929-26.97-13.97 0-28.738 9.283-29.932 26.927-1.882 22.582 1.27 36.959 10.497 47.304-.156.973-.399 1.487-.553 1.649-23.931 8.209-37.701 17.33-42.053 27.844-2.371 4.455-3.92 9.777-4.611 15.816-.026.228-.038.456-.038.688 0 8.969 7.298 16.266 16.264 16.266h100.719c8.971 0 16.272-7.297 16.272-16.266 0-.232-.021-.461-.043-.688-.683-6.032-2.236-11.356-4.606-15.815zm-11.622 20.644h-100.719c-2.19 0-3.986-1.709-4.132-3.863.547-4.448 1.669-8.252 3.335-11.301.122-.223.234-.455.32-.689 1.574-4.009 8.254-12.109 35.325-21.322.197-.07.387-.146.575-.228 3.589-1.644 7.857-5.583 7.857-14.996 0-1.639-.663-3.2-1.833-4.346-7.895-7.683-10.547-19.549-8.866-39.785.738-10.852 9.49-15.712 17.845-15.712 8.279 0 17.008 4.871 17.844 15.81 1.683 20.155-.997 32.016-8.962 39.66-1.226 1.184-1.899 2.815-1.862 4.513.223 9.279 4.346 13.174 7.765 14.808.222.107.44.195.668.276 27.072 9.213 33.751 17.313 35.325 21.322.092.234.196.467.32.689 1.666 3.06 2.782 6.853 3.332 11.301-.143 2.154-1.945 3.863-4.137 3.863zm11.622 342.849c-4.352-10.498-18.081-19.603-41.967-27.807-.135-.162-.384-.645-.578-1.622 9.158-10.248 12.417-25.032 10.557-47.321-1.399-18.446-16.5-26.85-29.928-26.85-13.542 0-28.688 8.419-29.932 26.813-1.862 22.326 1.381 37.121 10.497 47.408-.168.943-.416 1.395-.553 1.546-23.931 8.208-37.701 17.317-42.053 27.833-2.415 4.535-3.92 9.761-4.611 15.956-.026.223-.038.45-.038.673 0 8.903 7.298 16.146 16.264 16.146h100.719c8.971 0 16.272-7.242 16.272-16.146 0-.223-.015-.45-.043-.673-.688-6.19-2.197-11.421-4.606-15.956zm-11.622 20.649h-100.719c-2.19 0-3.986-1.659-4.132-3.749.547-4.568 1.643-8.306 3.335-11.409.122-.229.234-.462.32-.696 1.574-4.009 8.248-12.108 35.325-21.321.197-.065.387-.142.575-.232 3.583-1.64 7.857-5.551 7.857-14.872 0-1.633-.663-3.201-1.833-4.346-7.899-7.688-10.558-19.597-8.866-39.899.732-10.775 9.49-15.594 17.845-15.594 8.285 0 17.014 4.835 17.844 15.691 1.688 20.231-.992 32.124-8.962 39.78-1.226 1.177-1.906 2.815-1.862 4.515.223 9.18 4.353 13.053 7.771 14.686.215.108.433.195.661.271 27.072 9.219 33.751 17.318 35.325 21.321.092.234.196.468.32.696 1.698 3.104 2.782 6.841 3.332 11.409-.142 2.09-1.944 3.749-4.136 3.749zm-68.101-167.046c2.264-2.474 6.093-2.647 8.568-.391l3.659 3.337v-44.479c0-3.348 2.712-6.064 6.057-6.064h55.823c3.35 0 6.062 2.717 6.062 6.064 0 3.349-2.712 6.066-6.062 6.066h-49.756v37.714l2.533-2.486c2.383-2.349 6.222-2.316 8.574.082 2.342 2.382 2.305 6.223-.082 8.567l-12.795 12.554c-.008.005-.015.011-.021.021l-.029.032c-.009.006-.02.011-.031.018-.552.537-1.203.966-1.932 1.264-.038.017-.075.017-.106.033-.68.259-1.405.422-2.178.422-.708 0-1.382-.146-2.013-.373-.069-.022-.141-.033-.198-.06-.651-.262-1.231-.63-1.752-1.081-.032-.032-.087-.043-.118-.075l-13.811-12.608c-2.467-2.247-2.648-6.089-.392-8.557zm24.351-150.135v37.713h49.756c3.35 0 6.062 2.718 6.062 6.065 0 3.343-2.712 6.061-6.062 6.061h-55.823c-3.345 0-6.057-2.718-6.057-6.061v-44.478l-3.659 3.336c-1.166 1.059-2.631 1.584-4.085 1.584-1.643 0-3.282-.667-4.482-1.974-2.256-2.47-2.075-6.305.391-8.567l13.811-12.604c.031-.032.081-.038.118-.07.527-.462 1.122-.836 1.789-1.097.07-.032.149-.037.229-.064.612-.212 1.257-.353 1.946-.353.029 0 .043.006.072.006.049 0 .087.011.135.011.721.032 1.415.173 2.051.429.021.005.044.01.063.021.711.293 1.342.715 1.883 1.241.018.011.034.018.043.028l12.845 12.608c2.387 2.344 2.424 6.174.082 8.572-2.352 2.387-6.191 2.42-8.58.076zm353.652 152.382v-37.714h-49.762c-3.344 0-6.057-2.718-6.057-6.066s2.713-6.064 6.057-6.064h55.825c3.348 0 6.061 2.717 6.061 6.064v44.479l3.658-3.337c2.479-2.257 6.31-2.078 8.562.391 2.256 2.468 2.083 6.305-.392 8.557l-13.802 12.608c-.038.032-.088.043-.125.075-.515.451-1.098.819-1.748 1.081-.066.026-.129.037-.202.06-.633.228-1.302.373-2.012.373-.769 0-1.495-.163-2.174-.422-.038-.011-.069-.017-.112-.033-.725-.298-1.368-.722-1.924-1.254-.009-.01-.026-.017-.037-.027l-12.843-12.603c-2.391-2.344-2.429-6.186-.081-8.572 2.34-2.398 6.181-2.431 8.572-.082zm24.343-150.134c-1.192 1.307-2.833 1.974-4.475 1.974-1.46 0-2.926-.525-4.086-1.584l-3.658-3.336v44.478c0 3.343-2.712 6.061-6.061 6.061h-55.825c-3.344 0-6.057-2.718-6.057-6.061 0-3.348 2.713-6.065 6.057-6.065h49.762v-37.715l-2.536 2.485c-2.385 2.344-6.227 2.311-8.572-.081-2.348-2.394-2.31-6.224.081-8.567l12.793-12.561c.005-.005.012-.011.018-.016l.032-.032c.006-.011.022-.011.033-.021.542-.527 1.183-.955 1.898-1.254.012-.006.029-.006.043-.011.65-.267 1.352-.413 2.09-.434.038 0 .071-.011.106-.011.024 0 .051-.006.076-.006.692 0 1.348.141 1.965.353.069.027.134.038.211.064.662.261 1.263.635 1.785 1.097.037.032.092.038.125.07l13.801 12.604c2.477 2.264 2.65 6.099.394 8.569z"/></svg>