<svg height="505pt" viewBox="-30 0 505 505.05923" width="505pt" xmlns="http://www.w3.org/2000/svg"><path d="m122.03125 195.128906h22.398438l-6.585938 10.050782c-1.410156 2.148437-1.527344 4.898437-.304688 7.160156 1.222657 2.265625 3.589844 3.675781 6.160157 3.675781h154.046875c2.570312 0 4.9375-1.410156 6.160156-3.675781 1.222656-2.261719 1.105469-5.011719-.304688-7.160156l-6.585937-10.050782h25.015625c2.59375-.003906 4.980469-1.441406 6.191406-3.738281 1.210938-2.296875 1.050782-5.074219-.417968-7.21875l-51.699219-75.511719c-1.304688-1.90625-3.464844-3.046875-5.777344-3.046875h-.117187c-2.351563.039063-4.527344 1.257813-5.789063 3.242188l-11.785156 18.542969-24.90625-38.027344v-27.328125h50.179687c2.757813-.003907 5.257813-1.625 6.382813-4.140625 1.128906-2.515625.671875-5.460938-1.164063-7.519532l-17.257812-19.363281 17.257812-19.363281c1.835938-2.058594 2.292969-5.003906 1.164063-7.519531-1.128907-2.515625-3.632813-4.136719-6.390625-4.136719h-57.171875c-3.867188 0-7 3.132812-7 7v82.371094l-23.566407 35.957031-10.535156-16.488281c-1.265625-1.980469-3.4375-3.195313-5.785156-3.230469-2.351562-.039063-4.5625 1.105469-5.890625 3.042969l-51.699219 75.515625c-1.46875 2.144531-1.628906 4.921875-.417968 7.222656 1.210937 2.296875 3.59375 3.738281 6.195312 3.738281zm105.691406-181.128906h34.566406l-11.019531 12.363281c-2.367187 2.65625-2.367187 6.660157 0 9.316407l11.019531 12.363281h-34.566406zm-71.066406 188.011719 64.066406-97.777344 64.070313 97.777344zm113.894531-76.695313 38.203125 55.8125h-20.910156l-26.785156-40.882812zm-97.023437-.019531 8.222656 12.871094-28.144531 42.960937h-18.300781zm0 0"/><path d="m271.066406 288.3125v-18.769531c-.03125-26.53125-21.53125-48.03125-48.058594-48.0625h-1.957031c-26.53125.03125-48.027343 21.53125-48.058593 48.0625v18.769531c.03125 26.53125 21.53125 48.027344 48.058593 48.058594h1.957031c26.527344-.03125 48.027344-21.527344 48.058594-48.058594zm-48.058594 34.058594h-1.957031c-18.800781-.023438-34.035156-15.257813-34.058593-34.058594v-18.769531c.023437-18.800781 15.257812-34.039063 34.058593-34.0625h1.957031c18.800782.023437 34.039063 15.261719 34.058594 34.0625v18.769531c-.019531 18.800781-15.257812 34.035156-34.058594 34.058594zm0 0"/><path d="m374.285156 290.875-27.511718-.097656h-.023438c-2.304688 0-4.460938 1.132812-5.765625 3.03125-1.304687 1.898437-1.59375 4.316406-.773437 6.46875l6.601562 17.226562c1.039062 2.707032 3.636719 4.492188 6.535156 4.492188h14.308594c2.890625.003906 5.488281-1.773438 6.535156-4.46875l6.597656-17.128906c.828126-2.148438.546876-4.566407-.753906-6.46875-1.300781-1.902344-3.449218-3.039063-5.753906-3.046876zm-11.429687 17.128906h-4.691407l-1.222656-3.1875 7.132813.023438zm0 0"/><path d="m319.582031 246.1875c.027344 21.664062 17.585938 39.21875 39.246094 39.238281h1.535156c21.664063-.023437 39.21875-17.578125 39.242188-39.242187v-14.734375c-.023438-21.660157-17.578125-39.214844-39.242188-39.242188h-1.535156c-21.660156.023438-39.214844 17.582031-39.242187 39.242188zm14-14.738281c.015625-13.9375 11.3125-25.226563 25.246094-25.242188h1.535156c13.9375.015625 25.226563 11.308594 25.242188 25.242188v14.738281c-.015625 13.933594-11.308594 25.226562-25.246094 25.238281h-1.53125c-13.933594-.015625-25.222656-11.304687-25.242187-25.242187zm0 0"/><path d="m99.15625 290.875-27.511719-.097656h-.023437c-2.324219 0-4.496094 1.152344-5.796875 3.074218-1.300781 1.921876-1.566407 4.367188-.703125 6.523438l6.601562 16.488281c1.0625 2.65625 3.636719 4.398438 6.5 4.398438h14.308594c2.855469.003906 5.429688-1.730469 6.5-4.382813l6.597656-16.386718c.867188-2.152344.613282-4.597657-.683594-6.523438-1.296874-1.925781-3.464843-3.085938-5.785156-3.09375zm-11.351562 16.390625h-4.84375l-.980469-2.449219 6.800781.023438zm0 0"/><path d="m83.699219 285.425781h1.53125c21.660156-.023437 39.21875-17.578125 39.242187-39.242187v-14.734375c-.027344-21.660157-17.582031-39.214844-39.242187-39.242188h-1.535157c-21.664062.023438-39.21875 17.582031-39.242187 39.242188v14.738281c.027344 21.664062 17.582031 39.21875 39.246094 39.238281zm-25.242188-53.976562c.015625-13.933594 11.308594-25.226563 25.242188-25.242188h1.53125c13.933593.015625 25.226562 11.308594 25.242187 25.242188v14.738281c-.019531 13.933594-11.308594 25.222656-25.242187 25.238281h-1.535157c-13.933593-.015625-25.226562-11.304687-25.242187-25.242187zm0 0"/><path d="m402.410156 288.390625h-10.929687c-2.941407 0-5.570313 1.835937-6.578125 4.597656l-14.054688 38.523438-.160156-2c-.289062-3.636719-3.328125-6.441407-6.976562-6.441407h-5.625c-3.648438 0-6.6875 2.804688-6.976563 6.441407l-.347656 4.300781-16.5625-41.050781c-1.070313-2.648438-3.636719-4.378907-6.492188-4.378907h-10.933593c-22.972657.023438-41.59375 18.644532-41.617188 41.617188v13.960938h-13.300781c-3.226563 0-6.03125 2.203124-6.800781 5.335937l-15.023438 61.378906-.945312-20.421875c-.171876-3.71875-3.21875-6.652344-6.941407-6.679687l-16.8125-.125h-.054687c-3.714844.003906-6.78125 2.902343-6.988282 6.613281l-1.359374 24.613281-17.96875-65.558593c-.835938-3.042969-3.597657-5.148438-6.753907-5.148438h-13.296875v-13.960938c-.027344-22.972656-18.644531-41.59375-41.621094-41.617187h-10.9375c-2.941406 0-5.566406 1.835937-6.574218 4.597656l-14.054688 38.523438-.160156-2c-.292969-3.636719-3.328125-6.4375-6.980469-6.4375h-5.625c-3.648437 0-6.683593 2.800781-6.976562 6.4375l-.347657 4.300781-16.5625-41.050781c-1.066406-2.644531-3.636718-4.378907-6.492187-4.378907h-10.929687c-22.976563.023438-41.5976568 18.648438-41.617188 41.625v83.8125c0 3.867188 3.132812 7 7 7h61.625l-.59375 7.402344c-.207031 2.542969.992188 5 3.128906 6.40625l10.863282 7.152344c2.359374 1.554688 5.425781 1.539062 7.765624-.042969l10.601563-7.15625c2.09375-1.410156 3.261719-3.84375 3.0625-6.359375l-.59375-7.394531h13.527344v60.964844c0 3.867187 3.136719 7 7 7h79.402343c-.058593 2.414062 1.132813 4.691406 3.15625 6.015625l13.925782 9.109375c2.351562 1.539062 5.394531 1.519531 7.730468-.042969l13.589844-9.109375c1.980469-1.335937 3.144532-3.585937 3.085938-5.972656h76.335937c3.863281 0 7-3.132813 7-7v-60.964844h16.140625l-.59375 7.394531c-.207031 2.546875.992188 5 3.128906 6.40625l10.863282 7.152344c2.359375 1.554688 5.425781 1.539062 7.765625-.042969l10.601562-7.15625c2.09375-1.410156 3.261719-3.84375 3.0625-6.359375l-.59375-7.394531h59.011719c3.863281 0 7-3.136719 7-7v-83.820313c-.027344-22.972656-18.644531-41.59375-41.621094-41.617187zm-388.378906 118.429687v-76.8125c.015625-15.246093 12.371094-27.601562 27.617188-27.617187h6.207031l25.273437 62.636719-3.351562 41.792968zm71.824219 20.699219-3.507813-2.308593 3.421875-42.65625 3.425781 42.710937zm15.90625-20.699219-3.351563-41.820312 22.839844-62.609375h6.035156c15.246094.015625 27.601563 12.371094 27.617188 27.617187v15.535157c-22.621094 5.789062-38.457032 26.160156-38.484375 49.511719v11.773437h-14.65625zm28.65625-11.765624c.023437-20.472657 16.613281-37.066407 37.085937-37.085938h9.359375l27.613281 100.730469-.898437 16.089843h-73.164063v-79.734374zm93.269531 94.597656-6.667969-4.359375 1.507813-27.132813.300781-.078125-.242187-.886719 3.320312-59.699218 3.507812.023437 2.984376 64.507813c0 .058594.003906.113281.007812.171875l1.648438 23.1875zm89.957031-14.871094h-70.316406l-.957031-13.488281-.050782-1.09375 25.027344-102.230469h9.207032c20.472656.019531 37.0625 16.613281 37.085937 37.085938v79.730468zm14-67.964844v-11.765625c-.03125-23.351562-15.867187-43.71875-38.488281-49.507812v-15.535157c.015625-15.246093 12.371094-27.601562 27.621094-27.621093h6.207031l25.273437 62.640625-3.351562 41.800781h-17.261719zm33.339844 20.699219-3.507813-2.308594 3.421876-42.652343 3.425781 42.707031zm69.046875-20.695313h-53.140625l-3.355469-41.820312 22.839844-62.609375h6.035156c15.246094.015625 27.601563 12.371094 27.621094 27.617187zm0 0"/><path d="m241.230469 347.132812-35.035157-.125h-.023437c-2.425781 0-4.679687 1.257813-5.957031 3.320313-1.273438 2.066406-1.390625 4.640625-.304688 6.8125l9.109375 18.21875c1.179688 2.355469 3.578125 3.851563 6.210938 3.871094l16.8125.125h.050781c2.652344 0 5.078125-1.5 6.261719-3.871094l9.109375-18.21875c1.085937-2.167969.972656-4.738281-.296875-6.800781s-3.515625-3.324219-5.9375-3.332032zm-13.441407 18.195313-8.164062-.0625-2.097656-4.210937 12.378906.042968zm0 0"/></svg>