<?xml version="1.0" encoding="UTF-8"?>
<svg id="Layer_1" xmlns="http://www.w3.org/2000/svg" version="1.1" viewBox="0 0 110 135">
  <!-- Generator: Adobe Illustrator 29.8.2, SVG Export Plug-In . SVG Version: 2.1.1 Build 3)  -->
  <defs>
    <style>
      .st0 {
        stroke: #000;
        stroke-miterlimit: 10;
        stroke-width: .5px;
      }
    </style>
  </defs>
  <path class="st0" d="M93.95,35.46h-14.42v-4.27c3.84-3.45,1.43-9.88-3.77-9.88-1.67,0-3.18.73-4.21,1.89h-11.38c-3.55-3.96-10.16-1.25-9.87,4.09l-6.55,6.55c-2.39-.64-5-.08-6.94,1.63h-20.75c-5.05,0-9.17,4.11-9.17,9.17v43.93c0,5.05,4.11,9.17,9.17,9.17h31.36c-.35,4.95-3.46,9.25-8.13,11.12l-.51.2h-11.14c-3.12,0-5.66,2.54-5.66,5.66,0,.52.42.95.95.95h65.09c.52,0,.95-.42.95-.95,0-3.12-2.54-5.66-5.66-5.66h-12.08l-.51-.2c-4.67-1.87-7.78-6.17-8.13-11.12h31.36c5.05,0,9.17-4.11,9.17-9.17v-43.93c0-5.06-4.11-9.17-9.17-9.17h0ZM93.95,37.34c4.02,0,7.28,3.27,7.28,7.28v40.83h-4.72v-42.45c0-.52-.42-.95-.95-.95h-14.48c-.32-.9-.86-1.7-1.56-2.33v-2.39h14.42ZM60.16,30.74h11.38c.14.16.29.3.44.44v4.28h-19.19s2.84-2.84,2.84-2.84c1.74.1,3.39-.61,4.53-1.88h0ZM79.53,43.95c0,2.08-1.69,3.77-3.77,3.77s-3.77-1.69-3.77-3.77,1.69-3.77,3.77-3.77,3.77,1.69,3.77,3.77ZM50.9,37.34h21.08v2.39c-.7.63-1.24,1.43-1.56,2.33h-21.14c.13-1.01.05-1.97-.2-2.89l1.82-1.82ZM74.81,73.19c0-2.6,2.12-4.72,4.72-4.72s4.72,2.12,4.72,4.72-2.12,4.72-4.72,4.72c-2.61,0-4.72-2.12-4.72-4.72ZM72.93,73.19c0,1.85.76,3.52,1.99,4.72h-15.3c2.65-2.59,2.65-6.84,0-9.43h15.3c-1.23,1.2-1.99,2.87-1.99,4.71ZM59.72,73.19c0,2.6-2.12,4.72-4.72,4.72s-4.72-2.12-4.72-4.72,2.12-4.72,4.72-4.72,4.72,2.12,4.72,4.72ZM35.19,73.19c0,2.6-2.12,4.72-4.72,4.72s-4.72-2.12-4.72-4.72,2.12-4.72,4.72-4.72,4.72,2.12,4.72,4.72ZM35.09,68.48h15.3c-2.65,2.59-2.65,6.84,0,9.43h-15.3c2.65-2.59,2.65-6.84,0-9.43ZM49.34,66.59h-15.09v-1.89h15.09v1.89ZM45.57,62.82h-7.55v-15.17c2.28,1.32,5.16,1.38,7.55,0v15.17ZM36.13,46.1v16.72h-2.83c-.52,0-.95.42-.95.95v2.83h-1.89c-3.64,0-6.61,2.96-6.61,6.61s2.96,6.61,6.61,6.61h49.05c3.64,0,6.61-2.96,6.61-6.61s-2.96-6.61-6.61-6.61h-28.3v-2.84c0-.52-.42-.95-.95-.95h-2.83v-16.72c.56-.63,1.01-1.36,1.34-2.15h21.02l-4.21,5.06c-.27.33-.29.8-.04,1.15l4.72,6.61c.3.42.89.52,1.32.22.43-.3.52-.89.22-1.32l-4.29-6.01,2.99-3.59c1.91,4.72,8.59,4.72,10.5,0l2.99,3.59-4.29,6.01c-.3.43-.2,1.01.22,1.32.43.3,1.02.2,1.32-.22l4.72-6.61c.25-.35.23-.82-.04-1.15l-4.21-5.05h12.92v41.51H15.38v-41.51h19.42c.32.79.77,1.52,1.33,2.15h0ZM77.64,38.61c-1.19-.42-2.52-.45-3.77,0v-6.31c1.19.42,2.52.45,3.77,0v6.31ZM75.75,23.19c2.08,0,3.77,1.69,3.77,3.77s-1.69,3.77-3.77,3.77-3.77-1.69-3.77-3.77,1.7-3.77,3.77-3.77ZM70.42,25.08c-.42,1.19-.45,2.52,0,3.77h-9.14c.42-1.19.45-2.52,0-3.77h9.14ZM55.95,23.19c2.08,0,3.77,1.69,3.77,3.77s-1.69,3.77-3.77,3.77-3.77-1.69-3.77-3.77c0-2.08,1.69-3.77,3.77-3.77ZM50.84,29.4c.56,1.16,1.5,2.11,2.67,2.67-1.33,1.33-4,4-5.21,5.21-.65-1.1-1.57-2.02-2.67-2.67l5.21-5.21ZM47.45,41.12c0,3.12-2.54,5.66-5.66,5.66s-5.66-2.54-5.66-5.66,2.54-5.66,5.66-5.66,5.66,2.54,5.66,5.66ZM16.06,37.34h19.2c-.82,1.41-1.16,3.04-.95,4.72H14.43c-.52,0-.95.42-.95.95v42.45h-4.71v-40.83c0-4.02,3.27-7.29,7.28-7.29h0ZM86.96,113.76H23.99c.42-1.62,1.9-2.83,3.65-2.83h55.66c1.76,0,3.23,1.2,3.66,2.83h0ZM67.11,109.04h-24.21c3.74-2.56,6.13-6.7,6.41-11.32h11.38c.29,4.62,2.67,8.76,6.41,11.32h0ZM93.95,95.83H16.05c-4.02,0-7.28-3.27-7.28-7.28v-1.21h92.45v1.21c0,4.01-3.27,7.28-7.28,7.28h0Z"/>
  <path class="st0" d="M55,71.31c1.56,0,2.83-1.27,2.83-2.83s-1.27-2.83-2.83-2.83-2.83,1.27-2.83,2.83,1.27,2.83,2.83,2.83ZM55,67.54c.52,0,.95.42.95.95s-.42.95-.95.95-.95-.42-.95-.95.43-.95.95-.95Z"/>
  <path class="st0" d="M55,65.64c-1.56,0-2.83,1.27-2.83,2.83s1.27,2.83,2.83,2.83,2.83-1.27,2.83-2.83-1.27-2.83-2.83-2.83ZM55,69.42c-.52,0-.95-.42-.95-.95s.42-.95.95-.95.95.42.95.95-.43.95-.95.95Z"/>
  <path class="st0" d="M55,71.31c1.56,0,2.83-1.27,2.83-2.83s-1.27-2.83-2.83-2.83-2.83,1.27-2.83,2.83,1.27,2.83,2.83,2.83ZM55,67.54c.52,0,.95.42.95.95s-.42.95-.95.95-.95-.42-.95-.95.43-.95.95-.95Z"/>
  <path class="st0" d="M53.11,69.42h3.77c.52,0,.95-.42.95-.95s-.42-.95-.95-.95h-3.77c-.52,0-.95.42-.95.95s.42.95.95.95Z"/>
  <path class="st0" d="M56.89,67.53h-3.77c-.52,0-.95.42-.95.95s.42.95.95.95h3.77c.52,0,.95-.42.95-.95s-.42-.95-.95-.95Z"/>
  <path class="st0" d="M53.11,69.42h3.77c.52,0,.95-.42.95-.95s-.42-.95-.95-.95h-3.77c-.52,0-.95.42-.95.95s.43.95.95.95Z"/>
</svg>