<?xml version="1.0"?>
<svg xmlns="http://www.w3.org/2000/svg" viewBox="0 0 64 64" width="512" height="512"><g id="hospital-doctor-virus-covid19-coronavirus"><path d="M27,15h2v2a1,1,0,0,0,1,1h4a1,1,0,0,0,1-1V15h2a1,1,0,0,0,1-1V10a1,1,0,0,0-1-1H35V7a1,1,0,0,0-1-1H30a1,1,0,0,0-1,1V9H27a1,1,0,0,0-1,1v4A1,1,0,0,0,27,15Zm1-4h2a1,1,0,0,0,1-1V8h2v2a1,1,0,0,0,1,1h2v2H34a1,1,0,0,0-1,1v2H31V14a1,1,0,0,0-1-1H28Z"/><path d="M61,56H59V28h1a1,1,0,0,0,1-1V23a1,1,0,0,0-1-1H45V20h1a1,1,0,0,0,1-1V15a1,1,0,0,0-1-1H42V3a1,1,0,0,0-1-1H23a1,1,0,0,0-1,1V14H18a1,1,0,0,0-1,1v4a1,1,0,0,0,1,1h1v2H4a1,1,0,0,0-1,1v4a1,1,0,0,0,1,1H5V56H3a1,1,0,0,0-1,1v4a1,1,0,0,0,1,1H61a1,1,0,0,0,1-1V57A1,1,0,0,0,61,56ZM59,24v2H45V24Zm-2,4V56H45V28ZM42,16h3v2H42ZM24,4H40V20H24ZM23,22H41a1,1,0,0,0,1-1V20h1V56H38V48h1a1,1,0,0,0,0-2H25a1,1,0,0,0,0,2h1v8H21V20h1v1A1,1,0,0,0,23,22ZM36,48v8H33V48Zm-5,0v8H28V48ZM19,16h3v2H19ZM5,24H19v2H5Zm14,4V56H7V28ZM60,60H4V58H60Z"/><path d="M26,44h4a1,1,0,0,0,1-1V39a1,1,0,0,0-1-1H26a1,1,0,0,0-1,1v4A1,1,0,0,0,26,44Zm1-4h2v2H27Z"/><path d="M34,44h4a1,1,0,0,0,1-1V39a1,1,0,0,0-1-1H34a1,1,0,0,0-1,1v4A1,1,0,0,0,34,44Zm1-4h2v2H35Z"/><path d="M26,37h4a1,1,0,0,0,1-1V32a1,1,0,0,0-1-1H26a1,1,0,0,0-1,1v4A1,1,0,0,0,26,37Zm1-4h2v2H27Z"/><path d="M34,37h4a1,1,0,0,0,1-1V32a1,1,0,0,0-1-1H34a1,1,0,0,0-1,1v4A1,1,0,0,0,34,37Zm1-4h2v2H35Z"/><path d="M26,30h4a1,1,0,0,0,1-1V25a1,1,0,0,0-1-1H26a1,1,0,0,0-1,1v4A1,1,0,0,0,26,30Zm1-4h2v2H27Z"/><path d="M34,30h4a1,1,0,0,0,1-1V25a1,1,0,0,0-1-1H34a1,1,0,0,0-1,1v4A1,1,0,0,0,34,30Zm1-4h2v2H35Z"/><path d="M49,43h4a1,1,0,0,0,1-1V38a1,1,0,0,0-1-1H49a1,1,0,0,0-1,1v4A1,1,0,0,0,49,43Zm1-4h2v2H50Z"/><path d="M49,50h4a1,1,0,0,0,1-1V45a1,1,0,0,0-1-1H49a1,1,0,0,0-1,1v4A1,1,0,0,0,49,50Zm1-4h2v2H50Z"/><path d="M49,36h4a1,1,0,0,0,1-1V31a1,1,0,0,0-1-1H49a1,1,0,0,0-1,1v4A1,1,0,0,0,49,36Zm1-4h2v2H50Z"/><path d="M11,43h4a1,1,0,0,0,1-1V38a1,1,0,0,0-1-1H11a1,1,0,0,0-1,1v4A1,1,0,0,0,11,43Zm1-4h2v2H12Z"/><path d="M11,50h4a1,1,0,0,0,1-1V45a1,1,0,0,0-1-1H11a1,1,0,0,0-1,1v4A1,1,0,0,0,11,50Zm1-4h2v2H12Z"/><path d="M11,36h4a1,1,0,0,0,1-1V31a1,1,0,0,0-1-1H11a1,1,0,0,0-1,1v4A1,1,0,0,0,11,36Zm1-4h2v2H12Z"/><path d="M48,54h6a1,1,0,0,0,0-2H48a1,1,0,0,0,0,2Z"/><path d="M16,52H10a1,1,0,0,0,0,2h6a1,1,0,0,0,0-2Z"/></g></svg>
