<?xml version="1.0" encoding="iso-8859-1"?>
<!-- Generator: Adobe Illustrator 19.0.0, SVG Export Plug-In . SVG Version: 6.00 Build 0)  -->
<svg version="1.1" id="Capa_1" xmlns="http://www.w3.org/2000/svg" xmlns:xlink="http://www.w3.org/1999/xlink" x="0px" y="0px"
	 viewBox="0 0 512.002 512.002" style="enable-background:new 0 0 512.002 512.002;" xml:space="preserve">
<g>
	<g>
		<path d="M511.967,439.342l-0.344-7.868c-0.176-4.02-3.577-7.145-7.597-6.959c-4.02,0.176-7.135,3.577-6.959,7.597l0.347,7.932
			c0.002,0.048,0.004,0.096,0.008,0.144c0.093,1.466-0.408,2.863-1.412,3.932c-0.998,1.064-2.35,1.65-3.806,1.65H449.58v-69.453
			c0-4.023-3.262-7.285-7.285-7.285s-7.285,3.262-7.285,7.285v69.453h-89.981l-10.871-97.282l3.07-10.821l11.414,8.335
			c2.298,1.678,4.961,2.491,7.601,2.491c3.79,0,7.533-1.676,10.077-4.871l38.374-48.201l55.875,19.747
			c18.937,6.693,32.005,23.976,33.309,44.046l1.201,27.458c0.175,4.02,3.596,7.127,7.596,6.96c4.02-0.176,7.136-3.577,6.96-7.596
			l-1.204-27.531c-0.002-0.048-0.005-0.096-0.008-0.144c-1.649-25.935-18.528-48.282-43-56.93l-81.565-28.827
			c-0.535-0.189-1.078-0.337-1.626-0.445c-0.216-0.043-0.433-0.074-0.65-0.105c-0.057-0.008-0.115-0.021-0.172-0.028
			c-3.58-0.447-7.256,0.766-9.859,3.372l-1.879,1.883l-16.035-8.049l-0.001-14.057c4.846-3.336,9.41-7.315,13.553-11.755
			c0.048-0.052,0.097-0.104,0.145-0.156c10.476-11.282,18.206-25.488,20.825-39.599c0.065-0.349,0.13-0.698,0.189-1.046
			c0.067-0.399,0.131-0.797,0.189-1.196c0.092-0.619,0.172-1.237,0.244-1.854c0.02-0.178,0.047-0.356,0.065-0.533
			c0.074-0.694,0.136-1.387,0.182-2.077h3.024c9.391,0,17.032-7.64,17.032-17.032v-19.09c0-2.763-1.21-5.182-2.488-6.965V120.92
			c0-4.774-0.485-9.436-1.41-13.94c-6.469-31.53-34.433-55.317-67.848-55.317h-50.037c-28.228,0-52.549,16.984-63.325,41.263
			l-36.189-33.901c-8.661-8.113-22.212-8.095-30.85,0.043l-45.775,43.122l-0.008-5.042c-0.004-2.889-1.133-5.604-3.179-7.644
			c-2.042-2.037-4.754-3.158-7.637-3.158c-0.005,0-0.011,0-0.016,0l-34.317,0.048c-5.964,0.009-10.81,4.868-10.803,10.834
			l0.094,57.59l-48.215,45.42c-4.38,4.126-6.892,9.711-7.071,15.726c-0.18,6.015,1.994,11.74,6.12,16.119
			c4.125,4.381,9.71,6.892,15.726,7.071c0.231,0.007,0.46,0.01,0.689,0.01c5.762,0,11.219-2.163,15.431-6.131l16.328-15.382
			l0.071,51.073c0.006,4.02,3.266,7.275,7.285,7.275c0.004,0,0.007,0,0.01,0c4.024-0.006,7.281-3.272,7.275-7.295l-0.091-64.76
			l103.573-97.57l45.616,42.732v4.766c-1.278,1.783-2.488,4.203-2.488,6.966v19.09c0,9.391,7.64,17.032,17.032,17.032h3.014
			c0.047,0.724,0.112,1.45,0.189,2.179c0.019,0.186,0.046,0.373,0.067,0.56c0.072,0.621,0.153,1.244,0.245,1.868
			c0.051,0.35,0.105,0.699,0.163,1.049c0.076,0.453,0.16,0.906,0.246,1.36c0.16,0.85,0.34,1.699,0.537,2.549
			c0.046,0.199,0.088,0.398,0.137,0.597c0.142,0.588,0.296,1.175,0.455,1.762c0.038,0.138,0.076,0.277,0.115,0.415
			c1.294,4.661,3.112,9.288,5.373,13.778c0.033,0.066,0.067,0.133,0.101,0.199c0.897,1.768,1.86,3.513,2.888,5.23
			c0.15,0.251,0.299,0.502,0.452,0.752c0.274,0.448,0.552,0.893,0.834,1.336c0.234,0.367,0.473,0.732,0.712,1.096
			c0.24,0.365,0.476,0.732,0.722,1.094c0.468,0.691,0.949,1.375,1.438,2.054c0.195,0.27,0.394,0.536,0.591,0.804
			c0.373,0.506,0.751,1.008,1.135,1.507c0.191,0.248,0.382,0.496,0.575,0.742c0.527,0.67,1.062,1.334,1.609,1.989
			c0.044,0.053,0.086,0.107,0.13,0.159c0.588,0.701,1.19,1.391,1.8,2.075c0.196,0.219,0.394,0.436,0.592,0.653
			c0.436,0.479,0.878,0.953,1.324,1.423c0.221,0.233,0.441,0.466,0.665,0.696c0.554,0.57,1.116,1.133,1.685,1.687
			c0.323,0.315,0.652,0.622,0.979,0.931c0.35,0.331,0.701,0.661,1.057,0.985c0.382,0.349,0.768,0.692,1.155,1.033
			c0.235,0.206,0.471,0.41,0.707,0.613c2.168,1.865,4.413,3.601,6.722,5.193L271,269.233l-16.031,8.051l-1.881-1.884
			c-3.202-3.209-8.034-4.306-12.307-2.796l-27.491,9.716l-0.072-51.868c-0.009-6.681-5.447-12.109-12.126-12.109
			c-0.006,0-0.011,0-0.017,0l-56.985,0.08c-3.239,0.005-6.283,1.27-8.57,3.564c-2.287,2.293-3.544,5.34-3.54,8.579l0.124,89.226
			c-0.192,0.219-0.375,0.446-0.564,0.667c-0.309,0.363-0.622,0.724-0.923,1.093c-0.19,0.233-0.371,0.473-0.557,0.709
			c-0.295,0.372-0.592,0.742-0.878,1.12c-0.183,0.242-0.357,0.491-0.537,0.736c-0.279,0.38-0.562,0.758-0.833,1.145
			c-0.175,0.249-0.341,0.505-0.512,0.757c-0.265,0.389-0.533,0.776-0.789,1.171c-0.168,0.259-0.327,0.525-0.492,0.787
			c-0.248,0.395-0.5,0.788-0.739,1.188c-0.161,0.27-0.313,0.545-0.471,0.817c-0.232,0.4-0.467,0.797-0.69,1.202
			c-0.153,0.278-0.296,0.561-0.445,0.841c-0.216,0.407-0.436,0.812-0.644,1.224c-0.144,0.286-0.279,0.577-0.419,0.866
			c-0.2,0.411-0.404,0.821-0.595,1.237c-0.139,0.301-0.267,0.608-0.401,0.912c-0.181,0.41-0.366,0.818-0.539,1.232
			c-0.128,0.308-0.246,0.621-0.37,0.931c-0.166,0.416-0.336,0.83-0.493,1.25c-0.12,0.32-0.229,0.644-0.344,0.966
			c-0.149,0.416-0.301,0.83-0.441,1.25c-0.111,0.331-0.21,0.667-0.315,1c-0.132,0.417-0.268,0.832-0.391,1.252
			c-0.1,0.339-0.188,0.683-0.283,1.025c-0.116,0.419-0.236,0.835-0.343,1.257c-0.089,0.351-0.167,0.706-0.251,1.059
			c-0.099,0.418-0.202,0.834-0.293,1.254c-0.078,0.362-0.145,0.729-0.217,1.093c-0.082,0.415-0.169,0.829-0.243,1.247
			c-0.066,0.374-0.121,0.752-0.181,1.128c-0.066,0.413-0.137,0.825-0.195,1.24c-0.054,0.383-0.095,0.769-0.142,1.153
			c-0.05,0.413-0.106,0.824-0.148,1.238c-0.04,0.393-0.068,0.79-0.101,1.185c-0.032,0.375-0.071,0.748-0.096,1.125l-46.866,0.065
			c-0.164,0-0.297-0.133-0.297-0.297l-0.061-43.951c-0.006-4.021-3.266-7.275-7.285-7.275c-0.003,0-0.007,0-0.01,0
			c-4.024,0.006-7.281,3.272-7.275,7.295l0.061,43.952c0.012,8.191,6.679,14.846,14.868,14.846c0.007,0,0.014,0,0.02,0l46.202-0.064
			l-2.914,66.621c-0.323,5.419,1.619,10.79,5.333,14.748c3.727,3.972,8.987,6.25,14.431,6.25h359.76
			c5.444,0,10.704-2.278,14.431-6.25C510.349,450.132,512.29,444.761,511.967,439.342z M96.592,100.919l0.024,14.973l-26.77,25.219
			l-0.065-40.154L96.592,100.919z M218.993,109.57c-0.073,0.438-0.146,0.876-0.21,1.317c-0.096,0.66-0.176,1.322-0.253,1.985
			c-0.052,0.449-0.109,0.896-0.153,1.347c-0.069,0.718-0.118,1.439-0.165,2.159c-0.026,0.393-0.061,0.783-0.08,1.178
			c-0.054,1.119-0.085,2.24-0.085,3.362v8.221L177.398,91.06c-2.807-2.629-7.176-2.624-9.976,0.014L27.987,222.426
			c-1.547,1.458-3.558,2.233-5.694,2.162c-2.124-0.064-4.097-0.951-5.555-2.498s-2.225-3.569-2.162-5.694
			c0.064-2.124,0.95-4.097,2.498-5.555L166.932,69.67c1.529-1.44,3.492-2.16,5.456-2.16c1.957,0,3.914,0.715,5.441,2.146
			l41.351,38.737C219.109,108.783,219.057,109.178,218.993,109.57z M394.517,179.925c0,1.357-1.104,2.461-2.461,2.461h-2.909V162.59
			c1.722,0.61,3.518,1.019,5.37,1.181V179.925z M232.591,182.387c-1.357,0-2.462-1.104-2.462-2.461v-16.17
			c1.852-0.163,3.648-0.571,5.37-1.182v19.813H232.591z M247.237,126.655l-2.401-0.704c-0.22-0.065-0.444-0.111-0.667-0.154
			c-2.008-0.39-4.098,0.075-5.751,1.313c-1.378,1.032-2.33,2.505-2.721,4.145c-0.13,0.547-0.198,1.112-0.198,1.686v9.015
			c0,1.961-0.765,3.803-2.154,5.187c-0.231,0.23-0.474,0.443-0.729,0.637v-1.834v-25.028c0-1.04,0.036-2.079,0.095-3.115
			c0.019-0.331,0.051-0.658,0.075-0.987c0.052-0.701,0.113-1.402,0.192-2.099c0.045-0.399,0.098-0.795,0.152-1.192
			c0.083-0.617,0.178-1.231,0.283-1.844c0.074-0.432,0.148-0.865,0.232-1.294c0.11-0.564,0.237-1.124,0.365-1.684
			c5.566-24.291,27.34-42.472,53.294-42.472h50.037c26.385,0,48.466,18.782,53.574,43.679c0.73,3.557,1.113,7.238,1.113,11.007
			v26.878c-0.254-0.194-0.497-0.407-0.728-0.637c-1.389-1.384-2.154-3.227-2.154-5.188v-9.03c0-0.574-0.068-1.139-0.198-1.686
			c-0.39-1.64-1.343-3.114-2.721-4.145c-0.003-0.002-0.007-0.004-0.01-0.006c-0.282-0.211-0.58-0.391-0.885-0.557
			c-0.089-0.048-0.178-0.091-0.269-0.136c-0.245-0.12-0.496-0.226-0.751-0.318c-0.08-0.029-0.157-0.062-0.238-0.087
			c-0.327-0.105-0.661-0.187-0.999-0.244c-0.073-0.012-0.147-0.017-0.22-0.027c-0.276-0.038-0.553-0.06-0.832-0.067
			c-0.055-0.001-0.109-0.013-0.164-0.013c-0.053,0-0.105,0.01-0.158,0.011c-0.216,0.005-0.432,0.022-0.648,0.046
			c-0.102,0.011-0.204,0.018-0.306,0.034c-0.315,0.049-0.629,0.113-0.938,0.204l-1.513,0.444l-6.673,1.957
			c-38.795,11.38-79.808,11.38-118.603,0L247.237,126.655z M250.343,198.144c-0.012-0.1-0.023-0.201-0.034-0.301
			c-0.068-0.626-0.122-1.25-0.16-1.871c-0.005-0.084-0.012-0.168-0.017-0.252c-0.039-0.703-0.062-1.403-0.062-2.098v-50.955
			c40.756,11.723,83.748,11.723,124.506,0v50.804c0,0.694-0.022,1.393-0.061,2.095c-0.005,0.094-0.013,0.19-0.019,0.284
			c-0.038,0.604-0.09,1.21-0.156,1.819c-0.013,0.123-0.027,0.246-0.041,0.369c-0.078,0.666-0.169,1.334-0.28,2.004
			c-0.004,0.021-0.006,0.043-0.01,0.064c-2.588,15.58-13.736,32.208-27.399,42.174c-0.098,0.071-0.195,0.143-0.293,0.213
			c-0.434,0.313-0.873,0.612-1.312,0.912c-0.24,0.162-0.477,0.33-0.718,0.489c-0.13,0.086-0.262,0.165-0.392,0.25
			c-0.442,0.286-0.885,0.57-1.332,0.843c-0.023,0.014-0.043,0.032-0.066,0.046c-4.062,2.47-8.283,4.325-12.519,5.379l-0.76,0.189
			c-15.54,3.863-19.107,3.857-34.707-0.077c-4.194-1.058-8.374-2.904-12.397-5.356c-0.01-0.006-0.018-0.014-0.028-0.02
			c-0.177-0.108-0.35-0.223-0.526-0.333c-0.458-0.286-0.915-0.573-1.368-0.875c-0.124-0.082-0.247-0.169-0.37-0.252
			C264.733,233.482,252.304,214.968,250.343,198.144z M198.656,232.915l0.076,54.55l-39.511,13.964
			c-0.764,0.27-1.52,0.553-2.268,0.849c-0.239,0.095-0.473,0.199-0.71,0.296c-0.189,0.078-0.378,0.157-0.566,0.236
			c-0.315,0.132-0.633,0.258-0.945,0.394c-0.386,0.169-0.764,0.352-1.145,0.528c-0.343,0.159-0.691,0.311-1.031,0.476
			c-0.353,0.171-0.697,0.353-1.046,0.53c-0.361,0.183-0.726,0.36-1.082,0.549c-0.313,0.166-0.619,0.343-0.928,0.514
			c-0.384,0.212-0.772,0.419-1.15,0.638c-0.293,0.169-0.578,0.349-0.868,0.523c-0.273,0.164-0.547,0.325-0.817,0.493l-0.104-74.468
			L198.656,232.915z M279.618,445.769h-89.981v-69.453c0-4.023-3.262-7.285-7.285-7.285s-7.285,3.262-7.285,7.285v69.453h-42.624
			c-1.456,0-2.808-0.586-3.806-1.65c-1.004-1.07-1.505-2.466-1.412-3.932c0.003-0.048,0.006-0.096,0.008-0.144l3.535-80.827
			c0.774-11.917,5.696-22.852,13.53-31.171c0.038-0.04,0.078-0.078,0.116-0.119c0.08-0.076,0.165-0.147,0.242-0.227
			c4.67-4.866,10.342-8.766,16.536-11.404c0.13-0.055,0.26-0.109,0.39-0.163c0.824-0.342,1.654-0.669,2.495-0.966l55.874-19.747
			l38.375,48.201c2.544,3.196,6.286,4.871,10.077,4.871c2.64,0,5.304-0.813,7.601-2.491l11.414-8.335l3.07,10.821L279.618,445.769z
			 M268.718,333.281l-34.232-42.998l9.521-3.365l4.41,4.417c0.952,0.953,1.927,1.873,2.913,2.778
			c0.282,0.259,0.567,0.512,0.852,0.766c0.772,0.69,1.554,1.365,2.345,2.026c0.259,0.216,0.515,0.437,0.776,0.65
			c1.022,0.834,2.058,1.646,3.111,2.431c0.204,0.152,0.413,0.296,0.619,0.447c0.874,0.64,1.757,1.263,2.651,1.869
			c0.325,0.22,0.65,0.438,0.977,0.654c0.916,0.604,1.842,1.191,2.777,1.759c0.198,0.121,0.393,0.247,0.592,0.366
			c1.119,0.668,2.252,1.307,3.397,1.924c0.306,0.165,0.616,0.322,0.924,0.484c0.89,0.467,1.787,0.918,2.692,1.354
			c0.339,0.163,0.676,0.328,1.017,0.487c1.182,0.551,2.373,1.084,3.578,1.583c0.067,0.028,0.136,0.052,0.204,0.08
			c1.146,0.471,2.304,0.912,3.469,1.335c0.36,0.131,0.722,0.256,1.083,0.382c0.963,0.335,1.932,0.654,2.907,0.957
			c0.309,0.096,0.616,0.197,0.927,0.29c1.249,0.373,2.506,0.72,3.773,1.039c0.266,0.067,0.534,0.125,0.8,0.189
			c0.679,0.164,1.356,0.333,2.039,0.481L268.718,333.281z M293.217,300.765c-0.893-0.23-1.782-0.472-2.665-0.733
			c-0.41-0.122-0.815-0.255-1.223-0.383c-0.676-0.213-1.35-0.432-2.02-0.664c-0.446-0.155-0.891-0.315-1.334-0.478
			c-0.631-0.232-1.257-0.474-1.881-0.723c-0.443-0.177-0.887-0.353-1.326-0.538c-0.647-0.273-1.288-0.561-1.927-0.852
			c-0.396-0.18-0.796-0.352-1.189-0.54c-0.973-0.464-1.937-0.947-2.89-1.452c-0.385-0.204-0.761-0.425-1.142-0.636
			c-0.606-0.335-1.211-0.671-1.808-1.023c-0.447-0.264-0.888-0.54-1.33-0.813c-0.522-0.323-1.043-0.65-1.558-0.987
			c-0.449-0.293-0.895-0.592-1.338-0.895c-0.509-0.348-1.012-0.705-1.513-1.066c-0.423-0.305-0.847-0.609-1.264-0.923
			c-0.109-0.082-0.215-0.17-0.324-0.253l11.671-5.862c4.466-1.695,7.418-5.932,7.419-10.768l0.001-8.186
			c1.776,0.652,3.568,1.209,5.37,1.664c8.949,2.256,14.977,3.381,21.016,3.381c5.97,0,11.95-1.1,20.771-3.293l0.76-0.189
			c1.871-0.465,3.73-1.044,5.573-1.721l0.001,8.346c0.001,4.835,2.953,9.073,7.42,10.768l11.674,5.86
			c-0.016,0.012-0.031,0.025-0.047,0.037c-0.159,0.121-0.315,0.246-0.475,0.366c-0.254,0.19-0.512,0.374-0.768,0.561
			c-0.123,0.09-0.249,0.176-0.373,0.265c-0.522,0.375-1.044,0.749-1.575,1.11c-0.021,0.015-0.043,0.029-0.065,0.043
			c-0.497,0.337-1,0.664-1.505,0.989c-0.351,0.227-0.704,0.45-1.059,0.671c-0.59,0.366-1.182,0.729-1.782,1.078
			c-0.184,0.107-0.371,0.209-0.556,0.315c-2.247,1.283-4.556,2.453-6.926,3.497c-0.063,0.028-0.126,0.056-0.189,0.083
			c-3.377,1.477-6.87,2.709-10.457,3.683c-0.02,0.005-0.04,0.011-0.059,0.016c-0.883,0.239-1.773,0.462-2.667,0.67
			c-0.058,0.014-0.117,0.026-0.176,0.039c-0.877,0.202-1.759,0.39-2.647,0.561c-1.141,0.22-2.296,0.412-3.437,0.578
			c-0.143,0.021-0.286,0.041-0.43,0.061c-0.269,0.038-0.54,0.067-0.81,0.102c-0.519,0.066-1.037,0.134-1.558,0.19
			c-0.231,0.025-0.462,0.047-0.693,0.07c-0.333,0.033-0.666,0.061-1,0.089c-0.652,0.055-1.305,0.104-1.96,0.143
			c-0.099,0.006-0.199,0.012-0.298,0.018c-0.338,0.019-0.675,0.04-1.013,0.054c-1.101,0.047-2.205,0.08-3.314,0.08
			c-1.173,0-2.34-0.033-3.504-0.085c-0.372-0.017-0.743-0.045-1.114-0.067c-0.796-0.047-1.591-0.102-2.382-0.174
			c-0.426-0.038-0.85-0.083-1.275-0.129c-0.746-0.08-1.49-0.171-2.231-0.272c-0.421-0.058-0.842-0.115-1.262-0.179
			c-0.788-0.121-1.571-0.259-2.352-0.405c-0.352-0.065-0.706-0.124-1.057-0.194c-1.111-0.223-2.215-0.467-3.311-0.738
			C293.628,300.88,293.424,300.818,293.217,300.765z M324.681,328.505l-3.428,12.084h-17.859l-3.429-12.084l12.358-9.024
			L324.681,328.505z M294.279,445.769l10.125-90.609h15.837l10.125,90.609H294.279z M331.961,315.604
			c7.224-1.584,14.182-4.041,20.753-7.32c0.15-0.075,0.299-0.15,0.448-0.225c2.465-1.247,4.872-2.61,7.219-4.086
			c0.408-0.256,0.817-0.51,1.22-0.773c0.589-0.384,1.174-0.776,1.755-1.175c0.559-0.383,1.111-0.776,1.662-1.171
			c0.465-0.335,0.934-0.662,1.394-1.007c0.968-0.724,1.921-1.471,2.861-2.236c0.336-0.274,0.665-0.557,0.998-0.836
			c0.724-0.606,1.44-1.224,2.147-1.855c0.312-0.278,0.624-0.556,0.933-0.839c0.963-0.884,1.915-1.783,2.844-2.712
			c0.012-0.012,0.025-0.023,0.037-0.035l2.205-2.208l2.205-2.208l9.52,3.365l-34.231,42.998l-24.148-17.634
			C331.841,315.633,331.9,315.617,331.961,315.604z"/>
	</g>
</g>
<g>
</g>
<g>
</g>
<g>
</g>
<g>
</g>
<g>
</g>
<g>
</g>
<g>
</g>
<g>
</g>
<g>
</g>
<g>
</g>
<g>
</g>
<g>
</g>
<g>
</g>
<g>
</g>
<g>
</g>
</svg>
