<?xml version="1.0" encoding="UTF-8"?>
<svg id="Layer_1" xmlns="http://www.w3.org/2000/svg" version="1.1" viewBox="0 0 100 125">
  <!-- Generator: Adobe Illustrator 29.8.2, SVG Export Plug-In . SVG Version: 2.1.1 Build 3)  -->
  <path d="M29.11,62.3h-8.23c-.69,0-1.25.56-1.25,1.25h0v11.45c0,.69.56,1.25,1.25,1.25h8.23c.69,0,1.25-.56,1.25-1.25h0v-11.45c0-.69-.56-1.25-1.25-1.25h0ZM27.86,73.76h-5.73v-8.95h5.73v8.95ZM42.73,50.27h-8.22c-.69,0-1.25.56-1.25,1.25v23.48c0,.69.56,1.25,1.25,1.25h8.23c.69,0,1.25-.56,1.25-1.25h0v-23.48c0-.69-.56-1.25-1.25-1.25,0,0,0,0,0,0ZM41.48,73.75h-5.73v-20.98h5.73v20.98ZM25,58.15c2.04,0,3.7-1.66,3.7-3.7,0-.47-.09-.93-.27-1.37l8.39-7.42c1.52.84,3.42.51,4.56-.8l7.14,2.82s0,.08,0,.12c0,2.04,1.67,3.69,3.72,3.68,2.04,0,3.69-1.67,3.68-3.72,0-.26-.03-.53-.09-.78l7.74-4.93c1.62,1.26,3.96.97,5.22-.66,1.26-1.62.97-3.96-.66-5.22-1.62-1.26-3.96-.96-5.22.66-.69.88-.94,2.03-.69,3.12l-7.74,4.94c-1.54-1.2-3.75-.99-5.04.48l-7.14-2.82s0-.08,0-.12c0-2.04-1.67-3.7-3.71-3.69-2.04,0-3.7,1.67-3.69,3.71,0,.46.09.92.26,1.35l-8.39,7.41c-.54-.3-1.16-.46-1.78-.47-2.05,0-3.7,1.66-3.7,3.7s1.66,3.7,3.7,3.7ZM65.83,37.92c.66,0,1.2.54,1.2,1.2s-.54,1.2-1.2,1.2-1.2-.54-1.2-1.2h0c0-.66.54-1.2,1.2-1.2ZM52.22,46.6c.66,0,1.2.54,1.2,1.2s-.54,1.2-1.2,1.2-1.2-.54-1.2-1.2.54-1.2,1.2-1.2h0ZM38.61,41.22c.66,0,1.2.54,1.2,1.2s-.54,1.2-1.2,1.2-1.2-.54-1.2-1.2.54-1.2,1.2-1.2h0ZM25,53.25c.66,0,1.2.54,1.2,1.2s-.54,1.2-1.2,1.2-1.2-.54-1.2-1.2c0-.66.54-1.2,1.2-1.2ZM75.52,28.73c1.75,0,3.17-1.42,3.17-3.17s-1.42-3.17-3.17-3.17-3.17,1.42-3.17,3.17c0,1.75,1.42,3.16,3.17,3.17ZM75.52,24.9c.37,0,.67.3.67.67s-.3.67-.67.67-.67-.3-.67-.67c0-.37.3-.66.67-.66h0ZM64.97,28.73c1.75,0,3.17-1.42,3.17-3.17s-1.42-3.17-3.17-3.17-3.17,1.42-3.17,3.17c0,1.75,1.42,3.16,3.17,3.17ZM64.97,24.9c.37,0,.67.3.67.67s-.3.67-.67.67-.67-.3-.67-.67c0-.37.3-.66.67-.66h0ZM54.42,28.73c1.75,0,3.17-1.42,3.17-3.17s-1.42-3.17-3.17-3.17-3.17,1.42-3.17,3.17c0,1.75,1.42,3.16,3.17,3.17ZM54.42,24.9c.37,0,.67.3.67.67s-.3.67-.67.67-.67-.3-.67-.67c0-.37.3-.66.67-.66h0ZM76.46,75.53c0-6.58-5.33-11.91-11.91-11.91s-11.91,5.33-11.91,11.91,5.33,11.91,11.91,11.91h0c6.57,0,11.9-5.33,11.91-11.91ZM55.14,75.53c0-5.2,4.21-9.41,9.41-9.41s9.41,4.21,9.41,9.41-4.21,9.41-9.41,9.41c-5.19,0-9.4-4.21-9.41-9.41ZM94.63,98.36l-11.63-11.63c-.49-.49-1.28-.49-1.77,0l-.34.34-3.1-3.1c.39-.61.73-1.24,1.04-1.89h5.75c.69,0,1.25-.56,1.25-1.25V20.27c0-.69-.56-1.25-1.25-1.25H6.25c-.69,0-1.25.56-1.25,1.25v60.55c0,.69.56,1.25,1.25,1.25h44.02c3.62,7.89,12.95,11.35,20.84,7.72.65-.3,1.28-.64,1.88-1.02l3.1,3.1-.34.34c-.49.49-.49,1.28,0,1.77l11.63,11.63c.49.49,1.28.49,1.77,0l5.48-5.48c.49-.49.49-1.28,0-1.77ZM83.33,29.6H26.3v-8.08h57.03v8.08ZM23.8,21.52v8.08H7.5v-8.08h16.3ZM7.5,79.57v-47.47h75.83v47.47h-3.6c.35-1.32.53-2.68.53-4.04,0-6.1-3.54-11.65-9.06-14.24v-13.07c0-.69-.56-1.25-1.25-1.25h-8.23c-.69,0-1.25.56-1.25,1.25v12.14c-.99.27-1.96.63-2.88,1.09v-4.55c0-.69-.56-1.25-1.25-1.25h-8.23c-.69,0-1.25.56-1.25,1.25v18.1c0,.69.56,1.25,1.25,1.25h.76c.05,1.12.22,2.23.51,3.32H7.5ZM68.7,60.38c-1.35-.37-2.75-.56-4.15-.56-.53,0-1.06.03-1.58.08v-10.43h5.73v10.91ZM49.36,71.54v-13.39h5.73v4.85c-.58.44-1.13.92-1.64,1.43-1.97,1.96-3.39,4.42-4.09,7.11ZM55.21,84.87c-5.15-5.16-5.15-13.52.01-18.67,5.16-5.15,13.52-5.15,18.67.01,4.58,4.58,5.15,11.81,1.36,17.06-.06.07-.12.14-.16.22-.74.98-1.61,1.85-2.59,2.58-.08.05-.15.1-.22.16-5.25,3.79-12.48,3.21-17.07-1.37h0ZM75,87.25c.22-.2.44-.4.66-.62s.42-.43.62-.66l2.86,2.86-1.27,1.27-2.86-2.86ZM88.27,102.96l-9.86-9.86.34-.34,3.04-3.04.34-.34,9.86,9.86-3.72,3.71Z"/>
</svg>