<svg id="hospital_employee" viewBox="0 0 64 64" xmlns="http://www.w3.org/2000/svg"><path d="m60.68 14.77h-4.88v-4.88c0-.55-.45-1-1-1h-6.02c-.55 0-1 .45-1 1v4.88h-4.88c-.55 0-1 .45-1 1v6.02c0 .55.45 1 1 1h4.88v4.88c0 .55.45 1 1 1h6.02c.55 0 1-.45 1-1v-4.88h4.88c.55 0 1-.45 1-1v-6.02c0-.55-.45-1-1-1zm-1 6.02h-4.88c-.55 0-1 .45-1 1v4.88h-4.02v-4.88c0-.55-.45-1-1-1h-4.88v-4.02h4.88c.55 0 1-.45 1-1v-4.88h4.02v4.88c0 .55.45 1 1 1h4.88z"/><path d="m60.68 60h-3.08v-22.22c0-.55-.45-1-1-1h-10.36c-.55 0-1 .45-1 1v22.22h-5.44l2.84-14.26c.06-.29-.02-.6-.21-.83s-.47-.37-.77-.37h-2.69v-3.09c0-2.63-1.53-5.01-3.88-6.08l-2.87-1.31s-.21-.07-.24-.08l-.86-.15c-1.16-.21-2.03-1.13-2.22-2.28 1.4.34 2.74.81 3.98 1.4.14.07.29.1.43.1.27 0 .53-.11.72-.31 3.18-3.34 5-8.09 5-13.02 0-9.78-6.98-17.73-15.55-17.73s-15.56 7.96-15.56 17.74c0 4.93 1.83 9.68 5.01 13.02.3.31.76.4 1.16.21 1.24-.59 2.58-1.05 3.97-1.4-.19 1.15-1.06 2.07-2.22 2.27l-.88.15s-.2.05-.25.08l-2.86 1.3c-2.36 1.07-3.88 3.46-3.88 6.08v3.09h-2.69c-.3 0-.58.13-.77.37-.19.23-.27.54-.21.83l2.84 14.26h-3.83c-.55 0-1 .45-1 1s.45 1 1 1h57.36c.55 0 1-.45 1-1s-.45-1-1-1zm-23.7-18.54v3.09h-8.94l4.23-8.26 2 .91c1.65.75 2.71 2.42 2.71 4.26zm-15.83 3.09-1.59-3.11c1.3.17 2.6.26 3.91.26s2.61-.09 3.91-.26l-1.59 3.11h-4.63zm-4.13-17.35c-.71-.96-1.22-2.1-1.47-3.3-.06-.3-.25-.55-.52-.69-.14-.08-.3-.11-.46-.11-.14 0-.27.03-.4.08-.01 0-.09.04-.1.05-.6.2-.8-.05-.89-.16-.36-.45-.42-1.4-.11-1.92.09-.15.15-.19.16-.19.08-.02.34.1.48.22.29.26.71.33 1.08.17.36-.16.59-.52.59-.91v-.63c1.62-.29 3.82-1.33 5.09-3.88 1.56 1.68 4.86 3.89 11.1 3.29v1.22c0 .39.23.74.59.91.35.16.77.1 1.07-.15.14-.12.36-.23.46-.23.02 0 .04-.04.18.19.31.51.25 1.46-.11 1.92-.09.12-.29.36-.89.16-.01 0-.09-.04-.1-.05-.27-.12-.59-.11-.86.03s-.46.39-.52.69c-.62 3.02-2.81 5.42-5.71 6.26-1.46.42-2.94.42-4.41 0-1.71-.49-3.17-1.51-4.25-2.96zm-3.12 3.66c-2.54-2.94-3.98-6.95-3.98-11.12 0-8.67 6.08-15.73 13.55-15.73s13.55 7.06 13.55 15.73c0 4.17-1.44 8.18-3.97 11.12-.92-.4-1.88-.72-2.87-1 1.34-1.21 2.36-2.77 2.91-4.56.88.06 1.67-.28 2.23-.98.88-1.11 1-2.95.26-4.19-.49-.81-1.12-1.07-1.57-1.14-.16-.03-.31-.03-.45-.02v-.88c0-.29-.13-.57-.35-.76s-.52-.28-.8-.23c-8.92 1.28-11.24-3.5-11.33-3.7-.17-.39-.55-.64-1-.59-.43.04-.78.34-.88.76-1.04 4.27-4.6 4.33-4.8 4.33-.26 0-.53.1-.72.29s-.3.45-.3.71v.07c-.14 0-.29 0-.45.02-.45.07-1.09.32-1.58 1.14-.74 1.24-.62 3.08.26 4.19.56.7 1.34 1.05 2.24.98.35 1.12.88 2.17 1.56 3.09.4.54.85 1.03 1.34 1.47-.98.28-1.94.6-2.86.99zm6.13 1c.23.08.45.16.69.23.91.26 1.84.39 2.75.39s1.85-.13 2.76-.39c.23-.07.46-.16.68-.24.28 1.85 1.6 3.37 3.4 3.88l-1.81 3.54c-3.35.59-6.72.59-10.06 0l-1.81-3.53c1.8-.5 3.12-2.02 3.41-3.86zm-10.06 9.61c0-1.84 1.06-3.52 2.71-4.26l1.99-.91 4.23 8.26h-8.93zm-.79 18.54-2.68-13.45h33.95l-2.68 13.45zm38.06 0v-21.22h8.36v21.22z"/><path d="m19.55 20.37c-.55 0-1 .45-1 1v.83c0 .55.45 1 1 1s1-.45 1-1v-.83c0-.55-.45-1-1-1z"/><path d="m27.4 23.2c.55 0 1-.45 1-1v-.83c0-.55-.45-1-1-1s-1 .45-1 1v.83c0 .55.45 1 1 1z"/><path d="m21.71 27.47c.08.04.8.4 1.76.4s1.69-.36 1.76-.4c.49-.25.67-.85.43-1.33-.25-.49-.84-.69-1.34-.45 0 0-.37.18-.85.18s-.84-.18-.84-.18c-.49-.25-1.09-.06-1.35.43-.25.49-.06 1.09.43 1.35z"/><path d="m23.47 49.72c-1.96 0-3.56 1.6-3.56 3.56s1.6 3.56 3.56 3.56 3.56-1.6 3.56-3.56-1.6-3.56-3.56-3.56zm0 5.13c-.86 0-1.56-.7-1.56-1.56s.7-1.56 1.56-1.56 1.56.7 1.56 1.56-.7 1.56-1.56 1.56z"/><path d="m53.02 41.09h-3.2c-.55 0-1 .45-1 1s.45 1 1 1h3.2c.55 0 1-.45 1-1s-.45-1-1-1z"/><path d="m53.02 45.31h-3.2c-.55 0-1 .45-1 1s.45 1 1 1h3.2c.55 0 1-.45 1-1s-.45-1-1-1z"/></svg>