<svg id="hospital_employee-2" viewBox="0 0 64 64" xmlns="http://www.w3.org/2000/svg"><path d="m60.68 14.77h-4.88v-4.88c0-.55-.45-1-1-1h-6.02c-.55 0-1 .45-1 1v4.88h-4.88c-.55 0-1 .45-1 1v6.02c0 .55.45 1 1 1h4.88v4.88c0 .55.45 1 1 1h6.02c.55 0 1-.45 1-1v-4.88h4.88c.55 0 1-.45 1-1v-6.02c0-.55-.45-1-1-1zm-1 6.02h-4.88c-.55 0-1 .45-1 1v4.88h-4.02v-4.88c0-.55-.45-1-1-1h-4.88v-4.02h4.88c.55 0 1-.45 1-1v-4.88h4.02v4.88c0 .55.45 1 1 1h4.88z"/><path d="m19.49 22.03c.55 0 1-.45 1-1v-.98c0-.55-.45-1-1-1s-1 .45-1 1v.98c0 .55.45 1 1 1z"/><path d="m27.46 22.03c.55 0 1-.45 1-1v-.98c0-.55-.45-1-1-1s-1 .45-1 1v.98c0 .55.45 1 1 1z"/><path d="m20.93 26.95c.11.07 1.14.66 2.55.66s2.43-.6 2.55-.66c.47-.28.62-.89.34-1.36s-.89-.63-1.37-.35c0 0-.67.38-1.52.38s-1.51-.38-1.51-.38c-.48-.29-1.09-.13-1.37.34s-.13 1.09.34 1.37z"/><path d="m60.68 60h-3.08v-22.22c0-.55-.45-1-1-1h-10.36c-.55 0-1 .45-1 1v22.22h-5.44l2.84-14.26c.06-.29-.02-.6-.21-.83s-.47-.37-.77-.37h-1.71v-4.51c0-2.74-1.61-5.25-4.11-6.37l-3.06-1.37s-.16-.06-.19-.06l-2.59-.57v-1.28c1.9-1.69 3.14-4.08 3.37-6.7.7-.06 1.31-.4 1.77-.97.79-1 .95-2.6.41-3.79l.26-3.5c.43-5.75-3.07-11.01-8.52-12.79-2.5-.82-5.15-.82-7.65 0-5.45 1.78-8.95 7.04-8.52 12.79l.26 3.5c-.54 1.2-.39 2.79.41 3.79.46.58 1.07.91 1.77.97.23 2.62 1.47 5.01 3.37 6.7v1.28l-2.59.57s-.16.05-.19.06l-3.06 1.38c-2.49 1.12-4.11 3.63-4.11 6.37v4.51h-1.71c-.3 0-.58.13-.77.37-.19.23-.27.54-.21.83l2.84 14.26h-3.83c-.55 0-1 .45-1 1s.45 1 1 1h57.36c.55 0 1-.45 1-1s-.45-1-1-1zm-22.72-19.97v4.51h-10.33l5.2-10.05 2.19.99c1.78.8 2.93 2.59 2.93 4.55zm-16.39 4.51-.05-.09.95-4.73h2.01l.95 4.73-.05.1h-3.81zm2.96-6.82h-2.11l-.41-1.55h2.92l-.41 1.55zm2.37 3.88-.57-2.85.8-3.06 2.19-2.15 1.57.35-4 7.71zm-6.63-37.09c2.1-.69 4.31-.69 6.41 0 4.57 1.5 7.51 5.91 7.15 10.74l-.16 2.19c-.08 0-.17-.02-.25-.01v-.94c0-1.34-.61-2.58-1.66-3.4s-2.4-1.09-3.69-.76c-1.4.36-2.94.54-4.59.54s-3.19-.18-4.59-.55c-1.29-.33-2.64-.06-3.69.76s-1.66 2.06-1.66 3.4v.94c-.08 0-.16 0-.25.01l-.17-2.19c-.36-4.83 2.58-9.25 7.15-10.74zm-4.74 18.28v-.23c0-.32-.15-.62-.41-.81-.17-.13-.38-.19-.59-.19-.1 0-.21.02-.3.05-.59.19-.77-.04-.86-.16-.35-.44-.4-1.35-.1-1.85.08-.12.13-.17.15-.17.07-.01.31.09.47.22.3.25.71.32 1.07.15.36-.16.58-.52.58-.91v-2.41c0-.72.32-1.38.88-1.82.56-.43 1.27-.58 1.97-.4 1.56.4 3.28.61 5.09.61s3.53-.21 5.09-.61c.69-.18 1.41-.03 1.97.4.56.44.89 1.1.89 1.82v2.41c0 .39.23.74.59.9.35.16.77.1 1.07-.15.15-.13.39-.23.46-.22.01 0 .07.05.15.18.3.5.25 1.41-.1 1.85-.09.11-.28.34-.86.16-.3-.1-.64-.04-.89.14-.26.19-.41.49-.41.81v.23c0 3.59-2.38 6.79-5.78 7.76-1.41.4-2.91.4-4.32 0-3.4-.98-5.78-4.17-5.78-7.76zm5.23 9.69c.89.25 1.8.38 2.71.38s1.83-.13 2.71-.38c.64-.18 1.25-.44 1.82-.74v.29l-2.19 2.14h-4.69l-2.19-2.14v-.29c.58.3 1.18.55 1.82.74zm-3.14 1.06 2.19 2.14.8 3.06-.57 2.86-3.99-7.72 1.57-.35zm-8.63 6.49c0-1.96 1.15-3.75 2.93-4.55l2.2-.99 5.2 10.05h-10.32v-4.51zm.19 19.97-2.68-13.45h33.95l-2.68 13.45h-28.58zm38.06 0v-21.22h8.36v21.22z"/><path d="m23.48 49.71c-1.96 0-3.56 1.6-3.56 3.56s1.6 3.56 3.56 3.56 3.56-1.6 3.56-3.56-1.6-3.56-3.56-3.56zm0 5.13c-.86 0-1.56-.7-1.56-1.56s.7-1.56 1.56-1.56 1.56.7 1.56 1.56-.7 1.56-1.56 1.56z"/><path d="m53.02 41.09h-3.2c-.55 0-1 .45-1 1s.45 1 1 1h3.2c.55 0 1-.45 1-1s-.45-1-1-1z"/><path d="m53.02 45.32h-3.2c-.55 0-1 .45-1 1s.45 1 1 1h3.2c.55 0 1-.45 1-1s-.45-1-1-1z"/></svg>