<svg id="Layer_1" height="512" viewBox="0 0 64 64" width="512" xmlns="http://www.w3.org/2000/svg"><path d="m30 44h12c.5527344 0 1-.4472656 1-1v-4c0-.5527344-.4472656-1-1-1h-12c-.5522461 0-1 .4472656-1 1v4c0 .5527344.4477539 1 1 1zm1-4h10v2h-10zm7-4h4c.5527344 0 1-.4472656 1-1v-4c0-.5522461-.4472656-1-1-1h-4c-.5527344 0-1 .4477539-1 1v4c0 .5527344.4472656 1 1 1zm1-4h2v2h-2zm-9 4h4c.5527344 0 1-.4472656 1-1v-4c0-.5522461-.4472656-1-1-1h-4c-.5522461 0-1 .4477539-1 1v4c0 .5527344.4477539 1 1 1zm1-4h2v2h-2zm-5 12c.5522461 0 1-.4472656 1-1v-12c0-.5522461-.4477539-1-1-1h-4c-.5522461 0-1 .4477539-1 1v12c0 .5527344.4477539 1 1 1zm-3-12h2v10h-2zm38.1416016 2.0097656-13.1416016-1.8768921v-5.1328735c0-.5522461-.4472656-1-1-1h-30c-.5522461 0-1 .4477539-1 1v5.1328735l-13.1416016 1.8768921c-.4926757.0703125-.8583984.4921875-.8583984.9902344v26c0 .5527344.4477539 1 1 1h14 9 12 9 14c.5527344 0 1-.4472656 1-1v-26c0-.4980469-.3662109-.9199219-.8583984-.9902344zm-57.1416016 1.8574219 12-1.7138672v25.8466797h-12zm14-2.8671875v-5h28v5 27h-7v-11c0-.5527344-.4472656-1-1-1-.5517578 0-1-.4482422-1-1 0-.5527344-.4472656-1-1-1h-8c-.5522461 0-1 .4472656-1 1 0 .5517578-.4487305 1-1 1-.5522461 0-1 .4472656-1 1v11h-7zm9 16.8291016c.8510742-.3017578 1.5268555-.9775391 1.8286133-1.8291016h2.1713867v12h-4zm6 10.1708984v-12h2.1708984c.3017579.8515625.9775391 1.5273438 1.8291016 1.8291016v10.1708984zm27 0h-12v-25.8466797l12 1.7138672zm-8-2h4c.5527344 0 1-.4472656 1-1v-4c0-.5527344-.4472656-1-1-1h-4c-.5527344 0-1 .4472656-1 1v4c0 .5527344.4472656 1 1 1zm1-4h2v2h-2zm-1-4h4c.5527344 0 1-.4472656 1-1v-4c0-.5527344-.4472656-1-1-1h-4c-.5527344 0-1 .4472656-1 1v4c0 .5527344.4472656 1 1 1zm1-4h2v2h-2zm-1-4h4c.5527344 0 1-.4472656 1-1v-4c0-.5527344-.4472656-1-1-1h-4c-.5527344 0-1 .4472656-1 1v4c0 .5527344.4472656 1 1 1zm1-4h2v2h-2zm-41 14h-4c-.5522461 0-1 .4472656-1 1v4c0 .5527344.4477539 1 1 1h4c.5522461 0 1-.4472656 1-1v-4c0-.5527344-.4477539-1-1-1zm-1 4h-2v-2h2zm1-12h-4c-.5522461 0-1 .4472656-1 1v4c0 .5527344.4477539 1 1 1h4c.5522461 0 1-.4472656 1-1v-4c0-.5527344-.4477539-1-1-1zm-1 4h-2v-2h2zm1-12h-4c-.5522461 0-1 .4472656-1 1v4c0 .5527344.4477539 1 1 1h4c.5522461 0 1-.4472656 1-1v-4c0-.5527344-.4477539-1-1-1zm-1 4h-2v-2h2zm18-24v3c0 .5522461.4477539 1 1 1h4c.5527344 0 1-.4477539 1-1v-3h3c.5527344 0 1-.4477539 1-1v-4c0-.5522461-.4472656-1-1-1h-3v-3c0-.5522461-.4472656-1-1-1h-4c-.5522461 0-1 .4477539-1 1v3h-3c-.5522461 0-1 .4477539-1 1v4c0 .5522461.4477539 1 1 1zm-2-4h3c.5522461 0 1-.4477539 1-1v-3h2v3c0 .5522461.4472656 1 1 1h3v2h-3c-.5527344 0-1 .4477539-1 1v3h-2v-3c0-.5522461-.4477539-1-1-1h-3zm5 12c6.0654297 0 11-4.9345703 11-11s-4.9345703-11-11-11-11 4.9345703-11 11 4.9345703 11 11 11zm0-20c4.9628906 0 9 4.0375977 9 9s-4.0371094 9-9 9c-4.9624023 0-9-4.0375977-9-9s4.0375977-9 9-9zm29 14h-3v-3c0-.5522461-.4472656-1-1-1h-4c-.5527344 0-1 .4477539-1 1v3h-3c-.5527344 0-1 .4477539-1 1v4c0 .5522461.4472656 1 1 1h3v3c0 .5522461.4472656 1 1 1h4c.5527344 0 1-.4477539 1-1v-3h3c.5527344 0 1-.4477539 1-1v-4c0-.5522461-.4472656-1-1-1zm-1 4h-3c-.5527344 0-1 .4477539-1 1v3h-2v-3c0-.5522461-.4472656-1-1-1h-3v-2h3c.5527344 0 1-.4477539 1-1v-3h2v3c0 .5522461.4472656 1 1 1h3zm-57 2h3v3c0 .5522461.4477539 1 1 1h4c.5522461 0 1-.4477539 1-1v-3h3c.5522461 0 1-.4477539 1-1v-4c0-.5522461-.4477539-1-1-1h-3v-3c0-.5522461-.4477539-1-1-1h-4c-.5522461 0-1 .4477539-1 1v3h-3c-.5522461 0-1 .4477539-1 1v4c0 .5522461.4477539 1 1 1zm1-4h3c.5522461 0 1-.4477539 1-1v-3h2v3c0 .5522461.4477539 1 1 1h3v2h-3c-.5522461 0-1 .4477539-1 1v3h-2v-3c0-.5522461-.4477539-1-1-1h-3z"/></svg>