<svg id="Layer_1" enable-background="new 0 0 512 512" viewBox="0 0 512 512" xmlns="http://www.w3.org/2000/svg"><path d="m480.168 341.707-1.084-.602c-.595-.329-1.198-.662-1.8-1.007-.056-.032-.113-.063-.169-.094-7.109-3.807-14.502-7.534-22.358-11.27 17.721-19.986 27.037-45.651 27.037-74.856v-54.828c0-40.112-14.577-74.316-41.143-96.88l9.73-42.126c.48-2.076-.014-4.256-1.34-5.923s-3.339-2.638-5.469-2.638h-160.356c-2.129 0-4.143.972-5.469 2.638-1.326 1.667-1.819 3.847-1.34 5.923l9.728 42.119c-5.951 5.039-11.35 10.683-16.075 16.841-2.349 3.063-1.771 7.448 1.291 9.798 1.269.973 2.764 1.443 4.249 1.443 2.098 0 4.173-.941 5.549-2.735 2.633-3.431 5.51-6.676 8.595-9.724l4.09 17.709c.472 2.042 1.836 3.765 3.715 4.693 1.88.927 4.077.963 5.985.095 16.283-7.404 37.541-11.481 59.857-11.481 22.317 0 43.575 4.077 59.858 11.481.919.418 1.906.627 2.892.627 1.06 0 2.119-.242 3.093-.722 1.88-.928 3.244-2.651 3.715-4.693l4.091-17.711c15.532 15.335 30.774 40.717 30.774 81.265v54.829c0 27.236-9.114 50.884-26.407 68.7-6.539-2.927-13.429-5.891-20.754-8.932l-5.793-15.444c1.35-.973 2.722-1.979 4.123-3.025 20.288-15.177 31.461-38.013 31.461-64.3v-43.597c0-2.169-1.007-4.216-2.726-5.538-1.719-1.323-3.955-1.773-6.051-1.217-3.74.991-7.726 1.493-11.847 1.493-24.747 0-49.403-18.026-59.96-43.837-1.074-2.627-3.63-4.343-6.468-4.343s-5.394 1.716-6.468 4.343c-10.557 25.811-35.225 43.837-59.989 43.837-4.102 0-8.078-.502-11.818-1.493-2.098-.555-4.333-.105-6.051 1.217-1.719 1.323-2.726 3.369-2.726 5.538v43.597c0 26.288 11.173 49.123 31.465 64.303 1.389 1.038 2.761 2.044 4.124 3.032l-5.797 15.433c-7.392 3.069-14.261 6.025-20.755 8.933-17.293-17.817-26.408-41.465-26.408-68.7 0-3.86-3.129-6.988-6.988-6.988s-6.988 3.129-6.988 6.988c0 29.205 9.316 54.871 27.039 74.858-2.752 1.311-5.434 2.624-8.089 3.941-7.854-4.055-16.066-8.044-24.862-12.073-4.491-2.056-9.142-4.122-13.973-6.218-4.072-1.757-8.28-3.542-12.624-5.347l-6.194-16.454c21.854-14.951 38.027-39.016 43.789-67.911 11.558-3.957 19.753-15.464 19.753-28.709 0-8.496-3.358-16.177-8.742-21.665v-53.477c0-17.347-14.113-31.46-31.46-31.46h-1.867v-4.243c0-19.456-21.747-32.028-55.404-32.028-28.781 0-59.718 9.024-82.756 24.141-29.216 19.17-44.658 46.423-44.658 78.813v19.158c-4.885 5.412-7.893 12.721-7.893 20.761 0 13.247 8.208 24.755 19.782 28.711 4.552 22.741 15.934 43.44 32.36 58.691 3.617 3.359 7.445 6.395 11.432 9.129l-6.231 16.553c-4.349 1.805-8.555 3.59-12.618 5.345-4.841 2.096-9.481 4.162-13.973 6.218-11.458 5.24-21.887 10.4-31.798 15.709-.978.509-1.996 1.058-3.263 1.787-20.49 11.657-32.247 31.868-32.247 55.442v59.983c0 3.853 3.134 6.986 6.986 6.986h291.911c.02 0 .039-.003.058-.003h35.677 56.526 112.856c3.859 0 6.988-3.129 6.988-6.988v-57.997c0-22.86-11.401-42.469-31.33-53.824zm-58.983-217.364c-16.731-6.168-36.906-9.517-57.791-9.517s-41.06 3.349-57.791 9.517l-4.763-20.624c-.048-.302-.119-.6-.207-.896l-8.63-37.365h142.783l-8.629 37.361c-.088.296-.159.594-.207.896zm-130.868 106.534v-35.231c2.177.232 4.387.349 6.62.349 25.941 0 51.661-15.843 66.456-39.819 14.793 23.976 40.502 39.819 66.429 39.819 2.244 0 4.464-.117 6.648-.35v35.232c0 21.775-9.183 40.635-25.852 53.106-2.727 2.036-5.33 3.917-7.847 5.67-.227.139-.445.288-.652.449-33.3 23.03-49.635 21.003-85.945-6.117-16.674-12.472-25.857-31.333-25.857-53.108zm-231.394-74.831c0-34.684 20.855-55.649 38.35-67.128 20.852-13.682 48.922-21.851 75.088-21.851 24.392 0 41.428 7.424 41.428 18.053v11.232c0 3.86 3.129 6.989 6.988 6.989h8.855c9.641 0 17.484 7.843 17.484 17.483v45.633c-1.909-.424-3.886-.65-5.913-.65-2.68 0-5.304.384-7.818 1.133l-6.163-24.842c-3.703-15.035-18.046-24.666-33.346-22.415l-44.581 6.533-40.124 1.175c-21.266.59-37.927 17.708-37.943 38.979-1.811-.372-3.665-.563-5.545-.563-2.329 0-4.592.302-6.762.857v-10.618zm10.892 61.833c-.48-3.05-2.905-5.422-5.963-5.837-7.31-.99-12.822-7.903-12.822-16.076 0-8.923 6.574-16.182 14.655-16.182 2.981 0 5.854.984 8.306 2.848 2.114 1.606 4.955 1.873 7.333.696 2.378-1.18 3.882-3.605 3.882-6.26v-10.666c0-13.435 10.926-24.668 24.366-25.04l40.541-1.188c.271-.009.541-.032.809-.071l44.989-6.593c8.145-1.202 15.772 3.929 17.746 11.942l8.261 33.298c.567 2.287 2.248 4.134 4.472 4.912 2.224.781 4.69.386 6.56-1.047 2.419-1.853 5.273-2.831 8.256-2.831 8.081 0 14.655 7.259 14.655 16.182 0 8.176-5.5 15.088-12.793 16.076-3.057.415-5.481 2.786-5.963 5.833-4.543 28.721-20.666 52.371-42.565 65.646-.273.141-.531.302-.779.474-12.047 7.122-25.795 11.132-40.314 11.132-14.513 0-28.253-4.004-40.292-11.116-.268-.188-.547-.363-.845-.514-21.878-13.28-37.972-36.917-42.495-65.618zm129.134 94.87-45.505 46.586-45.505-46.586 4.938-13.117c12.661 6.179 26.477 9.472 40.567 9.472 14.412 0 28.167-3.344 40.598-9.39zm-114.621 80.775c0 5.258-4.277 9.534-9.534 9.534s-9.534-4.277-9.534-9.534c0-5.236 4.27-9.497 9.521-9.504.004 0 .008.001.012.001s.009-.001.013-.001c5.252.006 9.522 4.267 9.522 9.504zm208.081 53.014h-277.928v-52.987c0-18.404 9.172-34.183 25.191-43.296 1.108-.639 1.966-1.108 2.775-1.527l.12-.06c7.964-4.282 16.288-8.444 25.241-12.656v35.087c-9.562 2.979-16.522 11.904-16.522 22.423 0 12.964 10.546 23.511 23.51 23.511 12.963 0 23.51-10.547 23.51-23.511 0-10.519-6.961-19.445-16.524-22.423v-41.454c5.195-2.297 10.616-4.627 16.293-6.997l50.372 51.568c1.315 1.346 3.117 2.105 4.999 2.105s3.684-.759 4.999-2.105l50.368-51.564c5.676 2.363 11.103 4.688 16.299 6.993v34.878c-12.075 2.687-22.581 12.397-22.581 28.604v17.965c0 3.86 3.129 6.988 6.988 6.988s6.988-3.129 6.988-6.988v-17.965c0-12.055 9.637-15.342 15.444-15.395.05.001.098.01.147.01.038 0 .074-.007.112-.007 4.109.026 8.035 1.421 10.786 3.846 3.11 2.742 4.688 6.627 4.688 11.547v17.965c0 3.86 3.129 6.988 6.988 6.988s6.988-3.129 6.988-6.988v-17.965c0-16.205-10.503-25.914-22.575-28.602v-28.512c8.767 4.114 16.945 8.219 24.794 12.418.135.073.269.144.403.217.053.029.105.057.158.084.014.007.028.015.042.022.951.491 1.875.991 2.768 1.502 15.989 9.112 25.161 24.891 25.161 43.296v52.985zm13.978.004v-52.99c0-2.198-.107-4.366-.309-6.501-.004-.041-.009-.081-.012-.122-.063-.656-.136-1.308-.218-1.958-.01-.084-.022-.167-.033-.25-.079-.607-.166-1.211-.261-1.812-.017-.106-.035-.212-.052-.318-.094-.579-.197-1.155-.306-1.729-.022-.116-.045-.232-.067-.348-.112-.567-.231-1.131-.357-1.692-.025-.113-.05-.226-.076-.338-.132-.57-.271-1.136-.418-1.699-.025-.098-.05-.197-.076-.295-.157-.591-.323-1.179-.496-1.763-.019-.065-.037-.131-.057-.196-.987-3.288-2.234-6.46-3.731-9.499-.037-.075-.076-.15-.114-.225-.257-.516-.52-1.029-.792-1.538-.068-.127-.138-.252-.207-.379-.247-.454-.498-.906-.756-1.354-.088-.152-.177-.302-.266-.453-.248-.42-.499-.839-.757-1.253-.101-.162-.203-.323-.305-.483-.254-.4-.513-.798-.776-1.193-.11-.165-.221-.33-.333-.494-.265-.389-.535-.774-.81-1.156-.115-.161-.231-.323-.348-.483-.283-.386-.571-.769-.864-1.149-.115-.149-.228-.299-.344-.447-.31-.396-.627-.787-.947-1.176-.104-.126-.206-.254-.312-.38-.36-.43-.728-.854-1.101-1.276-.07-.079-.137-.159-.207-.238-1.365-1.527-2.813-2.995-4.342-4.4-.033-.03-.067-.06-.1-.09-.469-.429-.945-.852-1.429-1.269-.09-.078-.183-.153-.273-.23-.433-.369-.87-.734-1.315-1.093-.113-.091-.228-.18-.342-.271-.43-.343-.865-.681-1.305-1.015-.122-.092-.245-.183-.367-.274-.443-.33-.891-.656-1.344-.977-.119-.084-.239-.168-.359-.251-.235-.164-.466-.332-.704-.493 8.423-3.996 17.42-8.005 27.374-12.211l10.223 58.329c.034.296.082.59.153.876l10.262 58.554h-20.424zm79.4 0h-44.786l-9.105-51.95c10.368 1.28 20.922 1.931 31.498 1.931s21.13-.651 31.498-1.931zm-56.42-66.381-10.591-60.427 5.045-13.432c13.288 8.361 25.723 13.518 38.875 13.652.182.002.363.003.545.003 12.104-.001 24.318-4.124 39.709-13.714l5.061 13.49-10.591 60.428c-22.313 3.159-45.74 3.159-68.053 0zm168.156 66.381h-97.547l10.262-58.556c.071-.285.119-.577.153-.873l10.223-58.334c6.881 2.907 13.362 5.748 19.525 8.561.007.003.013.006.02.009 10.925 4.988 20.857 9.891 30.273 14.931.632.361 1.264.71 1.888 1.055l.977.542c15.395 8.773 24.225 23.955 24.225 41.656v51.009zm-182.988-220.615c0-9.844 8.008-17.853 17.852-17.853s17.851 8.009 17.851 17.853c0 3.86-3.129 6.988-6.988 6.988s-6.988-3.129-6.988-6.988c0-2.137-1.739-3.876-3.876-3.876s-3.876 1.739-3.876 3.876c0 3.86-3.129 6.988-6.988 6.988-3.858 0-6.987-3.129-6.987-6.988zm62.014 0c0-9.844 8.008-17.853 17.852-17.853s17.852 8.009 17.852 17.853c0 3.86-3.129 6.988-6.988 6.988s-6.988-3.129-6.988-6.988c0-2.137-1.739-3.876-3.876-3.876s-3.876 1.739-3.876 3.876c0 3.86-3.129 6.988-6.988 6.988s-6.988-3.129-6.988-6.988zm-13.155 39.437c7.257 0 12.925-5.007 16.401-9.208 2.46-2.974 6.865-3.388 9.839-.929 2.973 2.461 3.389 6.865.928 9.839-7.728 9.338-17.122 14.274-27.168 14.274-10.045 0-19.439-4.936-27.168-14.274-2.46-2.973-2.045-7.378.928-9.838 2.974-2.461 7.378-2.044 9.839.928 3.476 4.201 9.144 9.208 16.401 9.208zm23.001-174.472c0 3.86-3.129 6.988-6.988 6.988h-9.025v8.996c0 3.86-3.129 6.988-6.988 6.988s-6.988-3.129-6.988-6.988v-8.996h-9.025c-3.859 0-6.988-3.129-6.988-6.988s3.129-6.988 6.988-6.988h9.025v-9.024c0-3.86 3.129-6.989 6.988-6.989s6.988 3.129 6.988 6.989v9.024h9.025c3.859 0 6.988 3.129 6.988 6.988zm-248.958 153.805c3.405 4.111 8.946 9.011 16.007 9.011 7.09 0 12.612-4.893 15.996-8.998 2.455-2.979 6.858-3.404 9.837-.947 2.978 2.454 3.402 6.859.947 9.836-7.487 9.083-16.998 14.086-26.78 14.086-9.888 0-19.145-4.866-26.77-14.073-2.462-2.972-2.048-7.377.924-9.839 2.973-2.463 7.378-2.049 9.839.924zm-23.799-46.751c-3.838 0-6.96 3.122-6.96 6.96 0 3.86-3.129 6.988-6.988 6.988s-6.988-3.129-6.988-6.988c0-11.544 9.392-20.937 20.936-20.937s20.935 9.393 20.935 20.937c0 3.86-3.129 6.988-6.988 6.988s-6.988-3.129-6.988-6.988c.001-3.838-3.121-6.96-6.959-6.96zm58.676 6.96c0-11.544 9.392-20.937 20.935-20.937 11.544 0 20.936 9.393 20.936 20.937 0 3.86-3.129 6.988-6.988 6.988s-6.988-3.129-6.988-6.988c0-3.838-3.123-6.96-6.96-6.96s-6.959 3.122-6.959 6.96c0 3.86-3.129 6.988-6.988 6.988s-6.988-3.128-6.988-6.988z"/></svg>