<svg id="_x33_0" enable-background="new 0 0 64 64" height="512" viewBox="0 0 64 64" width="512" xmlns="http://www.w3.org/2000/svg"><g><path d="m35.789 28.658.105-.211-1.789-.895-.105.212c-.381.762-1.147 1.236-2 1.236s-1.619-.474-2-1.236l-.105-.211-1.789.895.105.211c.722 1.444 2.174 2.341 3.789 2.341s3.067-.897 3.789-2.342z"/><circle cx="26" cy="22" r="1"/><circle cx="38" cy="22" r="1"/><path d="m32 51c-.551 0-1-.448-1-1s.449-1 1-1v-2c-1.654 0-3 1.346-3 3s1.346 3 3 3 3-1.346 3-3h-2c0 .552-.449 1-1 1z"/><path d="m61 21h-6v-8.184c1.161-.414 2-1.514 2-2.816 0-1.654-1.346-3-3-3-1.302 0-2.402.839-2.816 2h-5.418c-1.158-1.666-3.031-2.809-5.202-2.978-2.083-3.111-5.633-5.022-9.395-5.022h-8.169c-2.206 0-4 1.794-4 4 0 .74.215 1.424.567 2.019l-.155.155c-.55.55-1.007 1.166-1.375 1.826h-5.221c-.414-1.161-1.514-2-2.816-2-1.654 0-3 1.346-3 3 0 1.302.839 2.402 2 2.816v8.184h-2v1.757l-1.243-1.243-4.243 4.243 1.243 1.243h-1.757v6h1.758l-1.244 1.243 4.244 4.244 1.242-1.245v1.758h6v-1.758l1.243 1.244 4.244-4.244-1.244-1.242h1.757v-6h-1.757l1.243-1.243-4.243-4.243-1.243 1.243v-1.757h-2v-8.184c.847-.302 1.514-.969 1.816-1.816h4.437c-.161.646-.253 1.314-.253 1.997 0 1.491.406 2.956 1.173 4.236l1.117 1.861c-1.311.321-2.29 1.497-2.29 2.906 0 1.654 1.346 3 3 3h1.051c.372 4.103 3.003 7.563 6.639 9.118l-.349 1.395c-.094.378-.403.668-.786.74-9.013 1.69-15.555 9.573-15.555 18.743 0 4.413 3.59 8.004 8.004 8.004h2.996 20 2.996c4.414 0 8.004-3.591 8.004-8.004 0-4.505-1.585-8.694-4.261-11.996h12.261c1.103 0 2-.897 2-2v-18c0-1.103-.897-2-2-2zm-48.766 3.605c.674.279 1.434.17 1.998-.272l1.435 1.435c-.442.564-.552 1.323-.272 1.998.279.674.894 1.134 1.605 1.22v2.029c-.711.086-1.326.545-1.605 1.22s-.17 1.434.272 1.998l-1.435 1.435c-.563-.441-1.323-.553-1.998-.272-.674.278-1.134.893-1.219 1.604h-2.03c-.085-.711-.545-1.326-1.22-1.605-.672-.28-1.434-.17-1.998.272l-1.435-1.435c.442-.563.551-1.324.272-1.998s-.893-1.133-1.604-1.219v-2.029c.711-.086 1.326-.545 1.605-1.22s.17-1.434-.272-1.998l1.435-1.435c.562.442 1.322.551 1.998.272.674-.279 1.133-.894 1.219-1.605h2.029c.087.711.546 1.326 1.22 1.605zm-2.234-13.605c-.551 0-1-.449-1-1s.449-1 1-1 1 .449 1 1-.449 1-1 1zm51 14h-14v-2h14zm-23.556 11.253c-.382-.071-.691-.361-.785-.739l-.349-1.395c3.636-1.555 6.267-5.015 6.639-9.118h1.051c.352 0 .686-.072 1-.184v14.656c-2.2-1.572-4.758-2.695-7.556-3.22zm5.556 20.747h-22v-11c0-.552.449-1 1-1h20c.551 0 1 .448 1 1zm-7.352-19.486c.328.29.718.506 1.148.63l-.54 3.242-3.206-1.923zm-4.648 5.486h-2.056l2.056-1.234zm2 0v-1.234l2.056 1.234zm-4-21c0 1.654-1.346 3-3 3s-3-1.346-3-3 1.346-3 3-3 3 1.346 3 3zm-3-5c-1.13 0-2.162.391-3 1.026v-.79c0-.381.212-.724.553-.894l7.447-3.724v2.487l8.9-.89c.286-.03.559.062.771.253.212.193.329.456.329.742v2.816c-.838-.635-1.87-1.026-3-1.026zm18 6h-1v-2h1c.551 0 1 .449 1 1s-.449 1-1 1zm-6-4c1.654 0 3 1.346 3 3s-1.346 3-3 3-3-1.346-3-3 1.346-3 3-3zm16-10c.551 0 1 .449 1 1s-.449 1-1 1-1-.449-1-1 .449-1 1-1zm-8.517 8.247c.978-1.222 1.517-2.758 1.517-4.325 0-.667-.096-1.312-.274-1.922h4.458c.302.847.969 1.514 1.816 1.816v8.184h-6c-.061 0-.119.013-.179.018-.401-1.148-1.471-1.979-2.747-2.011zm-24.657-8.659.155-.155c.595.352 1.279.567 2.019.567h2v-2h-2c-1.103 0-2-.897-2-2s.897-2 2-2h8.169c3.248 0 6.303 1.73 7.974 4.515l.368.485h.566c2.715 0 4.923 2.208 4.923 4.922 0 1.114-.383 2.206-1.079 3.075l-.921 1.152v-1.939c0-.846-.36-1.657-.987-2.224-.627-.568-1.471-.844-2.312-.761l-6.701.67v-3.513l-10.342 5.171c-1.023.511-1.658 1.54-1.658 2.683v.821l-1.112-1.853c-.581-.969-.888-2.079-.888-3.207 0-1.665.648-3.231 1.826-4.409zm-1.826 13.412c0-.551.449-1 1-1h1v2h-1c-.551 0-1-.449-1-1zm4.279 4.185c.785.511 1.717.815 2.721.815 2.757 0 5-2.243 5-5 0-1.13-.391-2.162-1.026-3h4.051c-.634.838-1.025 1.87-1.025 3 0 2.757 2.243 5 5 5 1.004 0 1.936-.304 2.721-.815-.981 3.908-4.513 6.815-8.721 6.815s-7.74-2.907-8.721-6.815zm8.721 8.815c.826 0 1.627-.099 2.401-.272l.257 1.029-2.658 1.993-2.658-1.994.257-1.028c.774.173 1.575.272 2.401.272zm-3.647 2.514 2.599 1.949-3.206 1.923-.54-3.241c.429-.125.819-.341 1.147-.631zm-15.353 17.482c0-7.631 5.064-14.259 12.258-16.37l.728 4.374h-3.986c-1.654 0-3 1.346-3 3v7.509c-.603-.324-1.283-.509-2-.509v2c.853 0 1.619.474 2 1.236v3.764c0 .352.072.686.184 1h-.18c-3.311 0-6.004-2.693-6.004-6.004zm9 6.004c-.551 0-1-.448-1-1v-1h22v1c0 .552-.449 1-1 1zm22.996 0h-.18c.112-.314.184-.648.184-1v-3.764c.381-.762 1.147-1.236 2-1.236v-2c-.717 0-1.397.185-2 .509v-7.509c0-1.654-1.346-3-3-3h-3.986l.729-4.374c7.193 2.112 12.257 8.74 12.257 16.37 0 3.311-2.693 6.004-6.004 6.004zm2.004-20v-14h14l.001 14z"/><path d="m49 29h2v2h-2z"/><path d="m53 29h6v2h-6z"/><path d="m49 33h8v2h-8z"/><path d="m49 37h10v2h-10z"/><path d="m5 30c0 2.757 2.243 5 5 5s5-2.243 5-5-2.243-5-5-5-5 2.243-5 5zm5-3c1.654 0 3 1.346 3 3s-1.346 3-3 3-3-1.346-3-3 1.346-3 3-3z"/></g></svg>