<svg id="Layer_1" enable-background="new 0 0 68 68" height="512" viewBox="0 0 68 68" width="512" xmlns="http://www.w3.org/2000/svg"><g id="_x31_49"><path d="m4.3 64.2h4.1c.6 0 1-.4 1-1s-.4-1-1-1h-4.1c-.1 0-.3-.1-.3-.3v-8.4c0-5.7 4.5-10.5 10.2-10.8l7.6 7.7v11.8h-8.4c-.6 0-1 .4-1 1s.4 1 1 1h28c1.3 0 2.3-1 2.3-2.3v-3.6c.3.1.5.3.8.4.2.1.3.3.3.4v2.7c0 1.4 1.1 2.5 2.5 2.5h4.4c1.4 0 2.5-1.1 2.5-2.5v-2.7c0-.6 1-.4 3.2-2.1.2-.1.4-.1.5-.1l2.4 1.3c1.2.7 2.7.3 3.4-.9l2.2-3.8c.7-1.2.3-2.7-.9-3.4l-2.3-1.4c-.2-.1-.3-.3-.2-.4.2-1.1.1-2.5 0-3.5 0-.2.1-.3.2-.4l2.3-1.4c1.2-.7 1.6-2.2.9-3.4l-2.2-3.8c-.7-1.2-2.2-1.6-3.4-.9l-2.4 1.4c-.5.3-.8-.6-3.4-1.7-.2-.1-.3-.2-.3-.4v-2.7c0-1.4-1.1-2.5-2.5-2.5h-4.4c-1.4 0-2.5 1.1-2.5 2.5v2.7c0 .6-.9.3-3.2 2.1-.1.1-.4.2-.5.1l-2.4-1.4c-1.2-.7-2.7-.2-3.3.9l-.7 1.1c-.3.5-.1 1.1.4 1.4s1.1.1 1.4-.4c.6-.9.6-1.3.9-1.4h.4l2.4 1.4c.8.5 1.9.4 2.7-.2s1.6-1 2.4-1.4c1-.4 1.6-1.3 1.6-2.3v-2.7c0-.3.2-.5.5-.5h4.4c.3 0 .5.2.5.5v2.7c0 1 .6 1.9 1.6 2.3.9.4 1.7.8 2.4 1.4.8.6 1.9.7 2.7.2l2.4-1.4c.2-.1.5-.1.6.2 2.1 3.8 2.4 3.8 2.3 4.2-.1.3-.4.3-2.6 1.6-.9.5-1.4 1.5-1.2 2.4.1.8.1 2 0 2.9-.1 1 .4 1.9 1.2 2.4l2.3 1.4c.2.1.3.4.2.6-2.3 3.9-2.2 3.9-2.5 4s-.4-.2-2.7-1.4c-.9-.5-1.9-.4-2.8.2-.7.5-1.5 1-2.4 1.4-1 .4-1.6 1.3-1.6 2.3v2.7c0 .3-.2.5-.5.5h-4.4c-.2 0-.5-.2-.5-.5v-2.7c0-1-.6-1.9-1.6-2.3-.5-.2-1-.5-1.5-.8v-2.5c0-6.8-5.5-12.5-12.2-12.8-1.8-1.1-3-2.3-3.8-3.8 3.1-1.6 5.4-4.6 5.9-8.3l.6-4.5h1.1c1.6 0 3-1.3 3-3 0-1.5-1.1-2.7-2.5-2.9-.5-4.8-3.9-9.2-8.8-10.9 0-.1.1-1.3.1-1.2.1-1.2-.8-2.2-2-2.2h-4.6c-1.2 0-2.1 1-2 2.2l.1 1.2c-4.9 1.7-8.3 6.1-8.6 11.2-1.4.2-2.5 1.5-2.5 2.9 0 1.6 1.3 3 3 3h1.1l.6 4.5c.5 3.7 2.8 6.7 5.9 8.3-.7 1.5-2 2.8-3.8 3.8-6.8.3-12.3 6-12.3 12.9v8.4c0 1.2 1 2.2 2.3 2.2zm27.1-21.5c5.6.3 10.2 5.1 10.2 10.8v8.4c0 .1-.1.3-.3.3h-17.5v-11.8zm-4.6-33.6c3.8 1.5 6.4 5 6.8 9.1h-7.5zm-1.7-3.5c-1.5 19.3-.8 9.8-1 12.5h-2.7c-.1-1.3.4 4.6-1-12.5zm-6.4 3.5.7 9.1h-7.5c.4-4.1 3-7.6 6.8-9.1zm-8.3 13c-.5 0-1-.4-1-1s.4-1 1-1h24.7c.5 0 1 .4 1 1s-.4 1-1 1zm3.7 6.3-.5-4.2h18.4l-.5 4.2c-.6 4.3-4.3 7.7-8.7 7.7-4.4-.1-8.2-3.4-8.7-7.7zm5.8 9.2c.9.3 1.9.4 2.9.4s2-.1 2.9-.4c.8 1.6 2 3.1 3.7 4.3l-6.6 6.7-6.6-6.7c1.6-1.2 2.9-2.6 3.7-4.3z"/><path d="m28.3 54.9h8.8c.6 0 1-.4 1-1s-.4-1-1-1h-8.8c-.6 0-1 .4-1 1s.4 1 1 1z"/><path d="m46.9 40.6c-.6 0-1 .4-1 1v2.5h-1.2c-.6 0-1 .4-1 1s.4 1 1 1h1.2v5.8c0 .6.4 1 1 1s1-.4 1-1v-5.8h1.1c.6 0 1-.4 1-1s-.4-1-1-1h-1.2v-2.5c.1-.5-.4-1-.9-1z"/><path d="m55.2 40.6c-.6 0-1 .4-1 1v5.8h-1.2c-.6 0-1 .4-1 1s.4 1 1 1h1.2v2.5c0 .6.4 1 1 1s1-.4 1-1v-2.5h1.2c.6 0 1-.4 1-1s-.4-1-1-1h-1.2v-5.8c0-.5-.4-1-1-1z"/></g></svg>