<?xml version="1.0" encoding="iso-8859-1"?>
<!-- Generator: Adobe Illustrator 19.0.0, SVG Export Plug-In . SVG Version: 6.00 Build 0)  -->
<svg version="1.1" id="Capa_1" xmlns="http://www.w3.org/2000/svg" xmlns:xlink="http://www.w3.org/1999/xlink" x="0px" y="0px"
	 viewBox="0 0 512 512" style="enable-background:new 0 0 512 512;" xml:space="preserve">
<g>
	<g>
		<g>
			<path d="M472,432.805V400c0-4.416-3.584-8-8-8H264v-24h104c4.416,0,8-3.584,8-8V208c0-3.168-1.872-6.04-4.776-7.32
				l-48.041-21.188c-0.163-0.081-0.324-0.165-0.495-0.237c-0.074-0.031-0.149-0.052-0.224-0.08l-17.202-7.586
				C323.962,154.002,336,126.657,336,96c0-52.936-35.888-96-80-96s-80,43.064-80,96c0,30.657,12.038,58.002,30.737,75.589
				l-17.235,7.601c-0.06,0.024-0.122,0.04-0.182,0.065c-0.138,0.058-0.267,0.127-0.401,0.192l-48.143,21.232
				c-2.904,1.28-4.776,4.152-4.776,7.32v152c0,4.416,3.584,8,8,8h104v24H48c-4.416,0-8,3.584-8,8v32.805
				C21.764,436.521,8,452.683,8,472c0,22.056,17.944,40,40,40c22.056,0,40-17.944,40-40c0-19.317-13.764-35.479-32-39.195V408h88
				v24.805c-18.236,3.716-32,19.878-32,39.195c0,22.056,17.944,40,40,40c22.056,0,40-17.944,40-40c0-19.317-13.764-35.479-32-39.195
				V408h88v24.805c-18.236,3.716-32,19.878-32,39.195c0,22.056,17.944,40,40,40c22.056,0,40-17.944,40-40
				c0-19.317-13.764-35.479-32-39.195V408h88v24.805c-18.236,3.716-32,19.878-32,39.195c0,22.056,17.944,40,40,40
				c22.056,0,40-17.944,40-40c0-19.317-13.764-35.479-32-39.195V408h88v24.805c-18.236,3.716-32,19.878-32,39.195
				c0,22.056,17.944,40,40,40c22.056,0,40-17.944,40-40C504,452.683,490.236,436.521,472,432.805z M192,96c0-44.112,28.712-80,64-80
				c35.288,0,64,35.888,64,80s-28.712,80-64,80C220.712,176,192,140.112,192,96z M256,192c12.363,0,24.08-3.384,34.542-9.419
				l18.655,8.228L299.512,214l-19.364-6.649c-0.078-0.03-0.158-0.053-0.237-0.081l-21.312-7.318c-1.68-0.576-3.512-0.576-5.192,0
				l-21.181,7.273c-0.13,0.044-0.262,0.084-0.39,0.134L212.496,214l-9.686-23.194l18.648-8.225C231.92,188.616,243.637,192,256,192z
				 M279.552,293.136L256,316.688l-23.552-23.552l9.548-72.351L256,215.976l14.004,4.809L279.552,293.136z M152,213.216
				l36.166-15.951l12.45,29.815c1.64,3.896,5.992,5.856,9.984,4.488l14.497-4.979l-9.025,68.363
				c-0.328,2.464,0.512,4.944,2.272,6.704l32,32c1.56,1.56,3.608,2.344,5.656,2.344c2.048,0,4.096-0.784,5.656-2.344l32-32
				c1.76-1.76,2.6-4.24,2.272-6.704l-9.025-68.363l14.497,4.979c0.864,0.296,1.736,0.432,2.6,0.432c3.144,0,6.104-1.864,7.392-4.92
				l12.448-29.812L360,213.216V352H152V213.216z M72,472c0,13.232-10.768,24-24,24s-24-10.768-24-24s10.768-24,24-24
				S72,458.768,72,472z M176,472c0,13.232-10.768,24-24,24s-24-10.768-24-24s10.768-24,24-24S176,458.768,176,472z M280,472
				c0,13.232-10.768,24-24,24s-24-10.768-24-24s10.768-24,24-24S280,458.768,280,472z M384,472c0,13.232-10.768,24-24,24
				s-24-10.768-24-24s10.768-24,24-24S384,458.768,384,472z M464,496c-13.232,0-24-10.768-24-24s10.768-24,24-24s24,10.768,24,24
				S477.232,496,464,496z"/>
			<path d="M432,352c2.08,0,4.16-0.88,5.68-2.32c1.44-1.52,2.32-3.6,2.32-5.68c0-2.08-0.88-4.16-2.32-5.68
				c-3.04-2.96-8.4-2.96-11.36,0c-1.44,1.52-2.32,3.52-2.32,5.68c0,2.16,0.88,4.16,2.32,5.68C427.84,351.12,429.92,352,432,352z"/>
			<path d="M464,352c2.08,0,4.16-0.88,5.68-2.32c1.44-1.52,2.32-3.6,2.32-5.68c0-2.08-0.88-4.16-2.32-5.68
				c-3.04-2.96-8.4-2.96-11.36,0c-1.44,1.52-2.32,3.6-2.32,5.68c0,2.08,0.88,4.16,2.32,5.68C459.84,351.12,461.92,352,464,352z"/>
			<path d="M432,320c2.08,0,4.16-0.88,5.68-2.32c1.44-1.52,2.32-3.6,2.32-5.68c0-2.16-0.88-4.16-2.32-5.68
				c-2.96-2.96-8.32-2.96-11.36,0c-1.44,1.52-2.32,3.6-2.32,5.68c0,2.08,0.88,4.16,2.32,5.68C427.84,319.12,429.92,320,432,320z"/>
			<path d="M432,288c2.08,0,4.16-0.88,5.68-2.32c1.44-1.52,2.32-3.6,2.32-5.68c0-2.08-0.88-4.16-2.32-5.68
				c-2.96-2.96-8.32-2.96-11.36,0c-1.44,1.52-2.32,3.6-2.32,5.68c0,2.08,0.88,4.16,2.32,5.68C427.84,287.12,429.92,288,432,288z"/>
			<path d="M464,288c2.08,0,4.16-0.88,5.68-2.32c1.44-1.52,2.32-3.6,2.32-5.68c0-2.08-0.88-4.16-2.32-5.68
				c-3.04-2.96-8.32-2.96-11.36,0c-1.44,1.52-2.32,3.6-2.32,5.68c0,2.08,0.88,4.16,2.32,5.68C459.84,287.12,461.92,288,464,288z"/>
			<path d="M432,256c2.16,0,4.16-0.88,5.68-2.32c1.44-1.52,2.32-3.52,2.32-5.68c0-2.16-0.88-4.16-2.32-5.68
				c-2.96-2.96-8.4-2.96-11.36,0c-1.44,1.52-2.32,3.52-2.32,5.68c0,2.16,0.88,4.16,2.32,5.68C427.84,255.12,429.92,256,432,256z"/>
			<path d="M432,224c2.16,0,4.16-0.88,5.68-2.32c1.44-1.52,2.32-3.52,2.32-5.68c0-2.16-0.88-4.16-2.32-5.68
				c-2.96-2.96-8.4-2.96-11.36,0c-1.44,1.52-2.32,3.52-2.32,5.68c0,2.16,0.88,4.16,2.32,5.68C427.84,223.12,429.84,224,432,224z"/>
			<path d="M464,224c2.16,0,4.16-0.88,5.68-2.32c1.44-1.52,2.32-3.52,2.32-5.68c0-2.16-0.88-4.16-2.32-5.68
				c-2.96-2.96-8.4-2.96-11.36,0c-1.44,1.52-2.32,3.52-2.32,5.68c0,2.16,0.88,4.16,2.32,5.68C459.84,223.12,461.84,224,464,224z"/>
			<path d="M48,352c2.08,0,4.16-0.88,5.68-2.32c1.44-1.52,2.32-3.6,2.32-5.68c0-2.08-0.88-4.16-2.32-5.68
				c-3.04-2.96-8.32-2.96-11.36,0c-1.44,1.52-2.32,3.6-2.32,5.68c0,2.08,0.88,4.16,2.32,5.68C43.84,351.12,45.92,352,48,352z"/>
			<path d="M80,352c2.16,0,4.16-0.88,5.68-2.32c1.44-1.52,2.32-3.52,2.32-5.68c0-2.16-0.88-4.16-2.32-5.68
				c-2.96-2.96-8.32-2.96-11.36,0c-1.44,1.52-2.32,3.6-2.32,5.68c0,2.08,0.88,4.16,2.32,5.68C75.84,351.12,77.92,352,80,352z"/>
			<path d="M80,320c2.08,0,4.16-0.88,5.68-2.32c1.44-1.52,2.32-3.6,2.32-5.68c0-2.16-0.88-4.16-2.32-5.68
				c-2.96-2.96-8.32-2.96-11.36,0c-1.44,1.52-2.32,3.6-2.32,5.68c0,2.08,0.88,4.16,2.32,5.68C75.84,319.12,77.92,320,80,320z"/>
			<path d="M48,288c2.08,0,4.16-0.88,5.68-2.32c1.44-1.52,2.32-3.6,2.32-5.68c0-2.08-0.88-4.16-2.32-5.68
				c-2.96-2.96-8.32-2.96-11.36,0c-1.44,1.52-2.32,3.6-2.32,5.68c0,2.08,0.88,4.16,2.32,5.68C43.84,287.12,45.92,288,48,288z"/>
			<path d="M80,288c2.08,0,4.16-0.88,5.68-2.32c1.44-1.52,2.32-3.6,2.32-5.68c0-2.08-0.88-4.16-2.32-5.68
				c-2.96-2.96-8.32-2.96-11.36,0c-1.44,1.52-2.32,3.6-2.32,5.68c0,2.08,0.88,4.16,2.32,5.68C75.84,287.12,77.92,288,80,288z"/>
			<path d="M80,256c2.08,0,4.16-0.88,5.68-2.32c1.44-1.52,2.32-3.6,2.32-5.68s-0.88-4.16-2.32-5.68c-3.04-2.96-8.4-2.96-11.36,0
				c-1.44,1.52-2.32,3.6-2.32,5.68s0.88,4.16,2.32,5.68C75.84,255.12,77.92,256,80,256z"/>
			<path d="M48,224c2.08,0,4.16-0.88,5.68-2.32c1.44-1.52,2.32-3.52,2.32-5.68c0-2.16-0.88-4.16-2.32-5.68
				c-2.96-2.96-8.32-2.96-11.36,0c-1.44,1.52-2.32,3.6-2.32,5.68s0.88,4.16,2.32,5.68C43.84,223.12,45.92,224,48,224z"/>
			<path d="M80,224c2.08,0,4.16-0.88,5.68-2.32c1.44-1.52,2.32-3.52,2.32-5.68c0-2.16-0.88-4.16-2.32-5.68
				c-2.96-2.96-8.32-2.96-11.36,0c-1.44,1.52-2.32,3.6-2.32,5.68s0.88,4.16,2.32,5.68C75.84,223.12,77.92,224,80,224z"/>
			<path d="M112,352c2.16,0,4.16-0.88,5.68-2.32c1.44-1.52,2.32-3.6,2.32-5.68c0-2.08-0.88-4.16-2.32-5.68
				c-2.96-2.96-8.32-2.96-11.36,0c-1.44,1.52-2.32,3.6-2.32,5.68c0,2.08,0.88,4.16,2.32,5.68C107.84,351.12,109.92,352,112,352z"/>
			<path d="M112,320c2.08,0,4.16-0.88,5.68-2.32c1.44-1.52,2.32-3.6,2.32-5.68c0-2.16-0.88-4.16-2.32-5.68
				c-2.96-2.96-8.32-2.96-11.36,0c-1.44,1.52-2.32,3.6-2.32,5.68c0,2.08,0.88,4.16,2.32,5.68C107.84,319.12,109.92,320,112,320z"/>
			<path d="M112,288c2.08,0,4.16-0.88,5.68-2.32c1.44-1.52,2.32-3.6,2.32-5.68c0-2.08-0.88-4.16-2.32-5.68
				c-3.04-2.96-8.32-2.96-11.36,0c-1.44,1.52-2.32,3.6-2.32,5.68c0,2.08,0.88,4.16,2.32,5.68C107.84,287.12,109.92,288,112,288z"/>
			<path d="M112,256c2.08,0,4.16-0.88,5.68-2.32c1.44-1.52,2.32-3.6,2.32-5.68s-0.88-4.16-2.32-5.68c-3.04-2.96-8.32-2.96-11.36,0
				c-1.44,1.52-2.32,3.6-2.32,5.68s0.88,4.16,2.32,5.68C107.84,255.12,109.92,256,112,256z"/>
			<path d="M112,224c2.08,0,4.16-0.88,5.68-2.32c1.44-1.52,2.32-3.52,2.32-5.68c0-2.16-0.88-4.16-2.32-5.68
				c-2.96-2.96-8.32-2.96-11.36,0c-1.44,1.52-2.32,3.6-2.32,5.68s0.88,4.16,2.32,5.68C107.84,223.12,109.92,224,112,224z"/>
			<path d="M400,352c2.08,0,4.16-0.88,5.68-2.32c1.44-1.52,2.32-3.6,2.32-5.68c0-2.08-0.88-4.16-2.32-5.68
				c-3.04-2.96-8.4-2.96-11.36,0c-1.44,1.52-2.32,3.52-2.32,5.68c0,2.16,0.88,4.16,2.32,5.68C395.84,351.12,397.84,352,400,352z"/>
			<path d="M400,320c2.08,0,4.16-0.88,5.68-2.32c1.44-1.52,2.32-3.6,2.32-5.68c0-2.16-0.88-4.16-2.32-5.68
				c-2.96-2.96-8.32-2.96-11.36,0c-1.44,1.52-2.32,3.6-2.32,5.68c0,2.08,0.88,4.16,2.32,5.68C395.84,319.12,397.92,320,400,320z"/>
			<path d="M400,288c2.08,0,4.16-0.88,5.68-2.32c1.44-1.52,2.32-3.6,2.32-5.68c0-2.08-0.88-4.16-2.32-5.68
				c-2.96-2.96-8.32-2.96-11.36,0c-1.44,1.52-2.32,3.6-2.32,5.68c0,2.08,0.88,4.16,2.32,5.68C395.84,287.12,397.92,288,400,288z"/>
			<path d="M400,256c2.16,0,4.16-0.88,5.68-2.32c1.44-1.52,2.32-3.52,2.32-5.68c0-2.16-0.88-4.16-2.32-5.68
				c-2.96-2.96-8.4-2.96-11.36,0c-1.44,1.52-2.32,3.52-2.32,5.68c0,2.16,0.88,4.16,2.32,5.68C395.84,255.12,397.92,256,400,256z"/>
			<path d="M400,224c2.16,0,4.16-0.88,5.68-2.32c1.44-1.52,2.32-3.52,2.32-5.68c0-2.16-0.88-4.16-2.32-5.68
				c-2.96-2.96-8.4-2.96-11.36,0c-1.44,1.52-2.32,3.52-2.32,5.68c0,2.16,0.88,4.16,2.32,5.68C395.84,223.12,397.92,224,400,224z"/>
		</g>
	</g>
</g>
<g>
</g>
<g>
</g>
<g>
</g>
<g>
</g>
<g>
</g>
<g>
</g>
<g>
</g>
<g>
</g>
<g>
</g>
<g>
</g>
<g>
</g>
<g>
</g>
<g>
</g>
<g>
</g>
<g>
</g>
</svg>
