<svg id="Layer_1" enable-background="new 0 0 66 66" height="512" viewBox="0 0 66 66" width="512" xmlns="http://www.w3.org/2000/svg"><g><g><g><path d="m8.4 60.5c-.6 0-1-.4-1-1v-7.3c0-.6.4-1 1-1s1 .4 1 1v7.3c0 .6-.4 1-1 1z"/></g><g><path d="m19.7 29.8c-1.3 0-2.6-.3-3.9-.9-4.1-1.9-6.8-6.2-6.8-10.9 0-5.8 4.7-10.7 10.4-10.8h.2c5.6 0 10.2 4.7 10.4 10.5.1.1.1.3.1.4 0 4-2.2 8.1-5.4 10.2-1.6 1-3.3 1.5-5 1.5zm-.3-20.6c-4.6.1-8.4 4-8.4 8.8 0 3.9 2.2 7.5 5.6 9.1 3 1.4 5.5.5 7-.5 2.6-1.7 4.4-4.9 4.5-8.2-.1-.1-.1-.3-.1-.4 0-4.9-3.8-8.8-8.4-8.8z"/></g><g><path d="m35.9 41.6c-.3 0-.7-.2-.9-.5-1.2-2.1-3.2-3.6-5.6-4.2l-1.4-.4c-2.4-.6-4.2-3-4.2-5.6v-3.5c0-.6.4-1 1-1s1 .4 1 1v3.5c0 1.6 1.3 3.3 2.7 3.6l1.4.4c2.9.8 5.3 2.6 6.8 5.2.3.5.1 1.1-.4 1.4-.1.1-.2.1-.4.1z"/></g><g><path d="m29.9 61.3h-20.5c-4.6 0-8.4-3.8-8.4-8.4v-7.4c0-5 3.4-9.4 8.3-10.6l1.4-.4c1.5-.4 2.8-2.1 2.8-3.6v-3.4c0-.6.4-1 1-1s1 .4 1 1v3.4c0 2.5-1.9 5-4.2 5.6l-1.4.4c-4 1-6.8 4.5-6.8 8.6v7.4c0 3.5 2.9 6.4 6.4 6.4h20.5c1.7 0 3.2-.6 4.3-1.7.4-.4 1-.4 1.4 0s.4 1 0 1.4c-1.6 1.5-3.6 2.3-5.8 2.3z"/></g><g><path d="m16 42c-.3 0-.5-.1-.7-.3l-5.4-5.2c-.4-.4-.4-1 0-1.4s1-.4 1.4 0l4.7 4.6 2-1.8-4.3-3.7c-.4-.4-.5-1-.1-1.4s1-.5 1.4-.1l5.2 4.5c.2.2.3.5.3.8s-.1.6-.3.8l-3.6 3.1c-.1 0-.4.1-.6.1z"/></g><g><path d="m23.3 42c-.2 0-.5-.1-.7-.2l-3.6-3.1c-.2-.2-.3-.5-.3-.8s.1-.6.4-.8l4.4-3.8 1-1.1c.4-.4 1-.4 1.4-.1s.4 1 .1 1.4l-1 1.1s-.1.1-.1.1l-3.6 3 2 1.7 4.6-4.5c.4-.4 1-.4 1.4 0s.4 1 0 1.4l-5.3 5.4c-.2.2-.4.3-.7.3z"/></g><g><path d="m19.4 57.6c-.3 0-.6-.2-.8-.4l-3-4.5c-.1-.2-.2-.4-.2-.6l.6-11.4c0-.6.5-1 1.1-.9.6 0 1 .5.9 1.1l-.6 11 2 3 2.1-3-.7-11.5c0-.6.4-1 .9-1.1.5 0 1 .4 1.1.9l.7 11.8c0 .2 0 .4-.2.6l-3.1 4.5c-.2.3-.5.5-.8.5z"/></g><g><path d="m31 60.6c-.6 0-1-.4-1-1v-7.4c0-.6.4-1 1-1s1 .4 1 1v7.4c0 .6-.4 1-1 1z"/></g></g><g><g><path d="m59.9 61.2h-21.2c-2.9 0-5.1-2.2-5.1-5.1v-12.2c0-2.9 2.2-5.1 5.1-5.1h21.2c2.9 0 5.1 2.2 5.1 5.1v12.2c0 2.9-2.2 5.1-5.1 5.1zm-21.2-20.4c-1.7 0-3.1 1.4-3.1 3.1v12.2c0 1.7 1.4 3.1 3.1 3.1h21.2c1.7 0 3.1-1.4 3.1-3.1v-12.2c0-1.7-1.4-3.1-3.1-3.1z"/></g><g><path d="m64 47.6h-6.8c-.6 0-1-.4-1-1s.4-1 1-1h6.8c.6 0 1 .4 1 1s-.4 1-1 1z"/></g><g><path d="m52.7 47.6h-6.8c-.6 0-1-.4-1-1s.4-1 1-1h6.8c.6 0 1 .4 1 1s-.4 1-1 1z"/></g><g><path d="m41.3 47.6h-6.8c-.6 0-1-.4-1-1s.4-1 1-1h6.8c.6 0 1 .4 1 1s-.4 1-1 1z"/></g><g><g><path d="m56 49.8h-2.4c-1 0-1.7-.7-1.7-1.7v-2.7c0-1 .7-1.7 1.7-1.7h2.4c1 0 1.7.7 1.7 1.7v2.7c0 1-.7 1.7-1.7 1.7zm-2.1-2h1.8v-2.1h-1.8z"/></g><g><path d="m44.9 49.8h-2.4c-1 0-1.7-.7-1.7-1.7v-2.7c0-1 .7-1.7 1.7-1.7h2.4c1 0 1.7.7 1.7 1.7v2.6c.1.4 0 .8-.3 1.1-.3.5-.8.7-1.4.7zm-2.1-2h1.8v-2.1h-1.8z"/></g></g><g><path d="m55.9 40.8c-.6 0-1-.4-1-1v-2.5c0-1.1-.9-2-2-2h-7.3c-1.1 0-2 .9-2 2v2.5c0 .6-.4 1-1 1s-1-.4-1-1v-2.5c0-2.2 1.8-4 4-4h7.3c2.2 0 4 1.8 4 4v2.5c0 .6-.4 1-1 1z"/></g></g><g><g><path d="m48.1 31.4h-.1c-1.4-.2-3.5-.6-5.4-1.7-.4-.3-.6-.8-.4-1.3.6-1.1.5-1.9.2-2.1-.2-.2-1-.2-2.1.6-.4.3-1 .2-1.4-.2-1.3-1.7-2.2-3.4-2.6-5.1-.1-.5.2-1 .6-1.2 1.1-.4 1.7-1 1.6-1.4 0-.4-.8-.9-1.9-1.1-.5-.1-.9-.6-.8-1.1.2-1.9.8-3.7 1.7-5.4.3-.5.8-.6 1.3-.4 1.1.6 1.9.5 2.1.2.2-.2.2-1-.6-2.1-.3-.4-.2-1 .2-1.4 1.5-1.2 3.2-2 5-2.6.5-.1 1 .1 1.2.6.4 1.1 1 1.7 1.4 1.6.4 0 .9-.7 1.1-1.8.1-.5.6-.9 1.1-.8 1.7.4 3.8.8 5.7 1.9.4.3.6.8.4 1.3-.6 1.1-.5 1.9-.2 2.1.4.3 1.3.1 2.2-.6.4-.3 1-.2 1.4.2 1.3 1.7 2.2 3.4 2.6 5.1.1.5-.2 1-.6 1.2-1.1.4-1.7 1-1.6 1.4 0 .4.8.9 1.8 1.1.5.1.8.6.8 1.1-.2 2-.8 3.9-1.7 5.4-.3.4-.8.6-1.3.4-1.1-.6-1.9-.5-2.1-.2-.2.2-.2 1 .6 2.1.3.4.2 1-.2 1.4-1.5 1.2-3.2 2-5 2.6-.5.1-1-.1-1.2-.6-.4-1.1-1-1.7-1.4-1.6-.5 0-.9.7-1.1 1.8-.4.3-.8.6-1.3.6zm-3.7-3.1c1 .5 2.1.8 3 .9.5-1.5 1.4-2.4 2.6-2.5s2.3.7 3 2.1c1-.4 2-.9 2.8-1.4-.7-1.4-.7-2.8.1-3.7s2.1-1.1 3.6-.6c.4-.9.8-1.9.9-3-1.5-.5-2.4-1.5-2.5-2.6-.1-1.2.7-2.3 2.1-3.1-.3-.9-.8-1.9-1.5-2.8-1.4.7-2.8.7-3.7 0-.8-.8-1.1-2.1-.6-3.6-1-.5-2.1-.8-3-.9-.5 1.4-1.5 2.3-2.6 2.5-1.2.1-2.3-.7-3.1-2.1-1 .4-2 .9-2.8 1.4.7 1.4.7 2.8-.1 3.7s-2.1 1.1-3.6.6c-.4.9-.8 1.9-.9 3 1.5.5 2.5 1.4 2.6 2.6s-.7 2.3-2.1 3.1c.3.9.8 1.9 1.5 2.8 1.4-.7 2.8-.7 3.7.1.9.7 1.1 2 .6 3.5z"/></g><g><path d="m49.2 24.5c-1.4 0-2.7-.4-3.9-1.3-2.7-2.3-3.2-6.2-1.1-9 1.1-1.4 2.7-2.3 4.4-2.5s3.3.3 4.6 1.4c2.7 2.2 3.2 6.2 1.1 9-1.3 1.6-3.2 2.4-5.1 2.4zm.1-10.8c-.2 0-.3 0-.5 0-1.2.1-2.3.7-3 1.7-1.5 2-1.2 4.6.8 6.2 1.9 1.5 4.6 1.1 6.2-.8 1.5-1.9 1.1-4.6-.8-6.2-.8-.6-1.7-.9-2.7-.9z"/></g></g></g><g><g><g><path d="m8.4 60.5c-.6 0-1-.4-1-1v-7.3c0-.6.4-1 1-1s1 .4 1 1v7.3c0 .6-.4 1-1 1z"/></g><g><path d="m19.7 29.8c-1.3 0-2.6-.3-3.9-.9-4.1-1.9-6.8-6.2-6.8-10.9 0-5.8 4.7-10.7 10.4-10.8h.2c5.6 0 10.2 4.7 10.4 10.5.1.1.1.3.1.4 0 4-2.2 8.1-5.4 10.2-1.6 1-3.3 1.5-5 1.5zm-.3-20.6c-4.6.1-8.4 4-8.4 8.8 0 3.9 2.2 7.5 5.6 9.1 3 1.4 5.5.5 7-.5 2.6-1.7 4.4-4.9 4.5-8.2-.1-.1-.1-.3-.1-.4 0-4.9-3.8-8.8-8.4-8.8z"/></g><g><path d="m35.9 41.6c-.3 0-.7-.2-.9-.5-1.2-2.1-3.2-3.6-5.6-4.2l-1.4-.4c-2.4-.6-4.2-3-4.2-5.6v-3.5c0-.6.4-1 1-1s1 .4 1 1v3.5c0 1.6 1.3 3.3 2.7 3.6l1.4.4c2.9.8 5.3 2.6 6.8 5.2.3.5.1 1.1-.4 1.4-.1.1-.2.1-.4.1z"/></g><g><path d="m29.9 61.3h-20.5c-4.6 0-8.4-3.8-8.4-8.4v-7.4c0-5 3.4-9.4 8.3-10.6l1.4-.4c1.5-.4 2.8-2.1 2.8-3.6v-3.4c0-.6.4-1 1-1s1 .4 1 1v3.4c0 2.5-1.9 5-4.2 5.6l-1.4.4c-4 1-6.8 4.5-6.8 8.6v7.4c0 3.5 2.9 6.4 6.4 6.4h20.5c1.7 0 3.2-.6 4.3-1.7.4-.4 1-.4 1.4 0s.4 1 0 1.4c-1.6 1.5-3.6 2.3-5.8 2.3z"/></g><g><path d="m16 42c-.3 0-.5-.1-.7-.3l-5.4-5.2c-.4-.4-.4-1 0-1.4s1-.4 1.4 0l4.7 4.6 2-1.8-4.3-3.7c-.4-.4-.5-1-.1-1.4s1-.5 1.4-.1l5.2 4.5c.2.2.3.5.3.8s-.1.6-.3.8l-3.6 3.1c-.1 0-.4.1-.6.1z"/></g><g><path d="m23.3 42c-.2 0-.5-.1-.7-.2l-3.6-3.1c-.2-.2-.3-.5-.3-.8s.1-.6.4-.8l4.4-3.8 1-1.1c.4-.4 1-.4 1.4-.1s.4 1 .1 1.4l-1 1.1s-.1.1-.1.1l-3.6 3 2 1.7 4.6-4.5c.4-.4 1-.4 1.4 0s.4 1 0 1.4l-5.3 5.4c-.2.2-.4.3-.7.3z"/></g><g><path d="m19.4 57.6c-.3 0-.6-.2-.8-.4l-3-4.5c-.1-.2-.2-.4-.2-.6l.6-11.4c0-.6.5-1 1.1-.9.6 0 1 .5.9 1.1l-.6 11 2 3 2.1-3-.7-11.5c0-.6.4-1 .9-1.1.5 0 1 .4 1.1.9l.7 11.8c0 .2 0 .4-.2.6l-3.1 4.5c-.2.3-.5.5-.8.5z"/></g><g><path d="m31 60.6c-.6 0-1-.4-1-1v-7.4c0-.6.4-1 1-1s1 .4 1 1v7.4c0 .6-.4 1-1 1z"/></g></g><g><g><path d="m59.9 61.2h-21.2c-2.9 0-5.1-2.2-5.1-5.1v-12.2c0-2.9 2.2-5.1 5.1-5.1h21.2c2.9 0 5.1 2.2 5.1 5.1v12.2c0 2.9-2.2 5.1-5.1 5.1zm-21.2-20.4c-1.7 0-3.1 1.4-3.1 3.1v12.2c0 1.7 1.4 3.1 3.1 3.1h21.2c1.7 0 3.1-1.4 3.1-3.1v-12.2c0-1.7-1.4-3.1-3.1-3.1z"/></g><g><path d="m64 47.6h-6.8c-.6 0-1-.4-1-1s.4-1 1-1h6.8c.6 0 1 .4 1 1s-.4 1-1 1z"/></g><g><path d="m52.7 47.6h-6.8c-.6 0-1-.4-1-1s.4-1 1-1h6.8c.6 0 1 .4 1 1s-.4 1-1 1z"/></g><g><path d="m41.3 47.6h-6.8c-.6 0-1-.4-1-1s.4-1 1-1h6.8c.6 0 1 .4 1 1s-.4 1-1 1z"/></g><g><g><path d="m56 49.8h-2.4c-1 0-1.7-.7-1.7-1.7v-2.7c0-1 .7-1.7 1.7-1.7h2.4c1 0 1.7.7 1.7 1.7v2.7c0 1-.7 1.7-1.7 1.7zm-2.1-2h1.8v-2.1h-1.8z"/></g><g><path d="m44.9 49.8h-2.4c-1 0-1.7-.7-1.7-1.7v-2.7c0-1 .7-1.7 1.7-1.7h2.4c1 0 1.7.7 1.7 1.7v2.6c.1.4 0 .8-.3 1.1-.3.5-.8.7-1.4.7zm-2.1-2h1.8v-2.1h-1.8z"/></g></g><g><path d="m55.9 40.8c-.6 0-1-.4-1-1v-2.5c0-1.1-.9-2-2-2h-7.3c-1.1 0-2 .9-2 2v2.5c0 .6-.4 1-1 1s-1-.4-1-1v-2.5c0-2.2 1.8-4 4-4h7.3c2.2 0 4 1.8 4 4v2.5c0 .6-.4 1-1 1z"/></g></g><g><g><path d="m48.1 31.4h-.1c-1.4-.2-3.5-.6-5.4-1.7-.4-.3-.6-.8-.4-1.3.6-1.1.5-1.9.2-2.1-.2-.2-1-.2-2.1.6-.4.3-1 .2-1.4-.2-1.3-1.7-2.2-3.4-2.6-5.1-.1-.5.2-1 .6-1.2 1.1-.4 1.7-1 1.6-1.4 0-.4-.8-.9-1.9-1.1-.5-.1-.9-.6-.8-1.1.2-1.9.8-3.7 1.7-5.4.3-.5.8-.6 1.3-.4 1.1.6 1.9.5 2.1.2.2-.2.2-1-.6-2.1-.3-.4-.2-1 .2-1.4 1.5-1.2 3.2-2 5-2.6.5-.1 1 .1 1.2.6.4 1.1 1 1.7 1.4 1.6.4 0 .9-.7 1.1-1.8.1-.5.6-.9 1.1-.8 1.7.4 3.8.8 5.7 1.9.4.3.6.8.4 1.3-.6 1.1-.5 1.9-.2 2.1.4.3 1.3.1 2.2-.6.4-.3 1-.2 1.4.2 1.3 1.7 2.2 3.4 2.6 5.1.1.5-.2 1-.6 1.2-1.1.4-1.7 1-1.6 1.4 0 .4.8.9 1.8 1.1.5.1.8.6.8 1.1-.2 2-.8 3.9-1.7 5.4-.3.4-.8.6-1.3.4-1.1-.6-1.9-.5-2.1-.2-.2.2-.2 1 .6 2.1.3.4.2 1-.2 1.4-1.5 1.2-3.2 2-5 2.6-.5.1-1-.1-1.2-.6-.4-1.1-1-1.7-1.4-1.6-.5 0-.9.7-1.1 1.8-.4.3-.8.6-1.3.6zm-3.7-3.1c1 .5 2.1.8 3 .9.5-1.5 1.4-2.4 2.6-2.5s2.3.7 3 2.1c1-.4 2-.9 2.8-1.4-.7-1.4-.7-2.8.1-3.7s2.1-1.1 3.6-.6c.4-.9.8-1.9.9-3-1.5-.5-2.4-1.5-2.5-2.6-.1-1.2.7-2.3 2.1-3.1-.3-.9-.8-1.9-1.5-2.8-1.4.7-2.8.7-3.7 0-.8-.8-1.1-2.1-.6-3.6-1-.5-2.1-.8-3-.9-.5 1.4-1.5 2.3-2.6 2.5-1.2.1-2.3-.7-3.1-2.1-1 .4-2 .9-2.8 1.4.7 1.4.7 2.8-.1 3.7s-2.1 1.1-3.6.6c-.4.9-.8 1.9-.9 3 1.5.5 2.5 1.4 2.6 2.6s-.7 2.3-2.1 3.1c.3.9.8 1.9 1.5 2.8 1.4-.7 2.8-.7 3.7.1.9.7 1.1 2 .6 3.5z"/></g><g><path d="m49.2 24.5c-1.4 0-2.7-.4-3.9-1.3-2.7-2.3-3.2-6.2-1.1-9 1.1-1.4 2.7-2.3 4.4-2.5s3.3.3 4.6 1.4c2.7 2.2 3.2 6.2 1.1 9-1.3 1.6-3.2 2.4-5.1 2.4zm.1-10.8c-.2 0-.3 0-.5 0-1.2.1-2.3.7-3 1.7-1.5 2-1.2 4.6.8 6.2 1.9 1.5 4.6 1.1 6.2-.8 1.5-1.9 1.1-4.6-.8-6.2-.8-.6-1.7-.9-2.7-.9z"/></g></g></g></svg>