<svg id="Layer_1" viewBox="0 0 512 512" xmlns="http://www.w3.org/2000/svg" data-name="Layer 1"><path d="m506.694 289.144c-26.064-36.458-64.671-61.539-107.595-71.043 25.552-13.8 42.954-40.83 42.954-71.851 0-5.257-.505-10.484-1.496-15.605 1.205-.678 2.408-1.359 3.593-2.07 2.108-1.265 3.397-3.543 3.397-6.001v-51.474l25.05-6.712v24.608c-7.804 2.865-13.397 10.349-13.397 19.134 0 5.261 2.019 10.047 5.301 13.668l-1.106 2.377c-2.219 4.77-3.253 9.44-3.253 14.7v21.019c0 7.88 6.411 14.291 14.291 14.291h11.271c7.88 0 14.291-6.411 14.291-14.291v-21.019c0-5.258-1.033-9.929-3.252-14.7l-1.425-3.062c2.92-3.53 4.677-8.055 4.677-12.983 0-8.785-5.594-16.269-13.397-19.134v-28.359l1.148-.308c5.368-1.44 9.117-6.326 9.117-11.883s-3.749-10.444-9.119-11.885l-117.203-31.405c-5.684-1.522-10.979-1.521-16.662 0l-117.201 31.405h-.002c-5.452 1.462-9.116 6.238-9.116 11.884 0 5.557 3.749 10.444 9.118 11.884l40.196 10.77v51.474c0 2.458 1.289 4.736 3.397 6.001.146.088.296.168.442.255-1.239 5.7-1.869 11.537-1.869 17.42 0 31.021 17.402 58.051 42.954 71.851-42.924 9.505-81.53 34.587-107.595 71.044-.85 1.188-1.306 2.611-1.306 4.071v6.506c-4.413-.448-8.969.419-13.751 2.609-3.903 1.787-8.037 1.243-11.344-1.494-7.119-5.892-14.619-7.672-22.923-5.445-.714.191-1.401.414-2.075.651l-78.495-58.359c-1.026-.911-2.132-1.727-3.333-2.42-8.783-5.069-20.393-3.141-32.687 5.437-10.221 7.129-20.181 18.328-28.236 31.692-.432.712-.858 1.427-1.274 2.148-.424.734-.836 1.47-1.241 2.208-7.537 13.648-12.248 27.861-13.311 40.269-1.28 14.936 2.853 25.954 11.636 31.025 1.208.697 2.469 1.262 3.779 1.695l91.532 39.558c.475 1.638 1.074 3.168 1.798 4.592l-34.941 24.224c-2.283 1.583-3.414 4.367-2.882 7.094.532 2.728 2.627 4.882 5.338 5.489l18.484 4.146-.755 18.928c-.111 2.776 1.431 5.355 3.929 6.572.975.475 2.022.707 3.064.707 1.628 0 3.241-.567 4.532-1.665l32.407-27.526c1.296 1.148 2.74 2.192 4.354 3.124 1.67.964 3.354 1.711 5.054 2.265l-7.578 41.835c-.495 2.734.673 5.503 2.978 7.055s5.309 1.594 7.656.106l16.001-10.138 12.852 13.917c1.349 1.46 3.224 2.251 5.144 2.251.764 0 1.534-.125 2.281-.383 2.627-.906 4.469-3.279 4.694-6.049l3.45-42.374c1.537-.094 3.101-.343 4.693-.735l82.704 61.482c.217.161.444.311.679.446 3.908 2.253 8.26 3.325 12.869 3.325 17.478 0 38.633-15.433 53.077-40.45 18.255-31.62 17.891-64.856-.831-75.666-.233-.135-.476-.256-.724-.363l-15.406-6.657h164.903c3.866 0 7-3.134 7-7v-84.633c0-1.46-.456-2.884-1.306-4.071zm-27.098-174.617c-3.527 0-6.397-2.87-6.397-6.398s2.87-6.398 6.397-6.398 6.397 2.87 6.397 6.398-2.87 6.398-6.397 6.398zm6.397 45.366c0 .144-.146.291-.291.291h-11.271c-.145 0-.291-.147-.291-.291v-21.019c0-3.232.582-5.861 1.946-8.792l.816-1.754c.884.117 1.778.199 2.694.199 1.221 0 2.411-.127 3.574-.334l.878 1.887c1.363 2.932 1.945 5.562 1.945 8.794zm-65.414 79.327-30.208 48.846-20.079-19.858 33.442-34.565c5.721 1.555 11.34 3.427 16.844 5.577zm-129.707-120.677v-8.336c21.581 10.665 45.995 16.274 71.337 16.274s49.755-5.608 71.336-16.274v8.336c-21.103 11.834-45.678 18.071-71.336 18.071s-50.234-6.237-71.337-18.071zm66.63-99.863c3.301-.885 6.117-.885 9.416 0l109.097 29.233-109.447-9.894c-3.845-.336-7.253 2.491-7.602 6.341-.348 3.851 2.491 7.254 6.342 7.602l74.452 6.73-72.843 19.518c-3.298.884-6.113.884-9.415 0l-111.084-29.765zm-3.623 73.053c2.843.762 5.587 1.143 8.332 1.143s5.489-.381 8.33-1.142l63.006-16.882v19.544c-21.106 11.837-45.676 18.086-71.336 18.086s-50.23-6.249-71.337-18.086v-19.545zm-61.034 54.518c0-3.549.284-7.075.829-10.551 20.881 9.787 44.286 14.915 68.538 14.915 22.983 0 45.2-4.619 65.235-13.43.401 2.994.606 6.023.606 9.066 0 37.277-30.327 67.604-67.604 67.604s-67.604-30.327-67.604-67.604zm94.806 83.884-27.202 28.114-27.201-28.115c8.925-1.494 18.017-2.28 27.201-2.28s18.276.786 27.202 2.28zm-37.046 38.073-20.078 19.857-30.208-48.845c5.505-2.15 11.124-4.022 16.844-5.577zm-231.991 62.687c-4.3 7.448-4.52 15.152-.672 23.554 1.788 3.901 1.243 8.034-1.494 11.342-2.26 2.731-3.909 5.519-4.965 8.387l-67.007-28.959c1.348-.789 2.707-1.656 4.075-2.611 10.766-7.51 21.245-19.528 29.51-33.842 8.264-14.313 13.432-29.398 14.552-42.477.142-1.661.207-3.265.217-4.826l58.362 43.39c-1.353 1.961-2.501 4.193-3.44 6.72-1.494 4.021-4.803 6.56-9.075 6.963-9.198.865-15.761 4.908-20.062 12.358zm-44.855-83.61 1.55 1.152c2.779 2.837 4.023 8.862 3.355 16.658-.948 11.075-5.469 24.099-12.728 36.671-7.259 12.573-16.277 23-25.395 29.359-6.44 4.493-12.302 6.43-16.148 5.414l-1.692-.731c-1-.624-1.851-1.584-2.544-2.835.807.128 1.672.207 2.605.207 4.446 0 10.313-1.685 17.549-7.263 7.812-6.024 15.592-15.363 21.905-26.299 11.198-19.397 16.666-42.367 7.898-53.105.049 0 .104-.01.152-.01 1.334 0 2.505.264 3.492.78zm-42.853 34.257c.373-.646.754-1.283 1.136-1.918 10.794-17.812 22.354-24.707 26.085-24.707.352 0 .633.062.838.18 2.466 1.425 3.243 16.537-8.873 37.522-5.342 9.253-12.022 17.349-18.329 22.211-5.521 4.257-8.94 4.689-9.729 4.233-.791-.456-2.124-3.634-1.198-10.542.988-7.371 4.256-16.435 9.036-25.139.341-.614.682-1.229 1.036-1.841zm76.826 140.917-8.609-1.931 23.893-16.564c1.292.697 2.676 1.326 4.166 1.88 4.023 1.495 6.562 4.803 6.965 9.076.156 1.654.418 3.22.781 4.705l-22.085 18.758.352-8.815c.135-3.378-2.164-6.37-5.462-7.109zm75.195 46.343-5.986-6.482c-2.293-2.483-6.033-2.972-8.889-1.164l-7.452 4.722 5.182-28.607c1.407-.421 2.831-.954 4.276-1.617 3.9-1.789 8.034-1.244 11.341 1.493 1.28 1.059 2.573 1.985 3.88 2.779l-2.351 28.876zm7.398-42.44c-4.606-3.812-10.066-5.768-15.645-5.768-3.499 0-7.045.77-10.455 2.332-4.253 1.95-7.26 1.931-10.722-.069-3.461-1.998-4.981-4.592-5.421-9.251-.913-9.688-6.904-17.495-16.026-20.885-4.385-1.629-6.497-3.769-7.531-7.631-1.035-3.859-.275-6.768 2.708-10.373 6.204-7.496 7.489-17.252 3.437-26.099-1.949-4.256-1.931-7.262.068-10.723 1.999-3.462 4.592-4.982 9.251-5.421 9.689-.913 17.497-6.904 20.885-16.025 1.629-4.386 3.769-6.498 7.631-7.532 3.859-1.035 6.769-.275 10.373 2.708 7.495 6.203 17.253 7.487 26.1 3.437 4.257-1.949 7.262-1.931 10.723.068 3.461 1.998 4.981 4.592 5.421 9.252.912 9.687 6.903 17.494 16.025 20.884 4.386 1.63 6.497 3.769 7.531 7.631 1.035 3.859.275 6.769-2.708 10.373-6.204 7.495-7.489 17.252-3.436 26.101 1.949 4.254 1.93 7.26-.069 10.722-1.998 3.461-4.592 4.98-9.251 5.42-9.688.913-17.495 6.904-20.885 16.026-1.629 4.386-3.769 6.497-7.631 7.531-3.86 1.036-6.769.276-10.373-2.708zm150.607 34.175c-14.909 25.821-36.33 37.562-46.52 32.167l-77.741-57.793c1.956-2.349 3.546-5.172 4.78-8.496 1.495-4.023 4.804-6.562 9.075-6.965 9.198-.865 15.761-4.908 20.062-12.357 4.301-7.45 4.521-15.155.672-23.553-1.788-3.902-1.243-8.036 1.493-11.343 1.718-2.076 3.076-4.186 4.098-6.338l88.674 38.317c9.769 6.122 10.314 30.537-4.595 56.36zm153.067-89.687h-190.302l-45.022-19.455c-.132-.702-.283-1.408-.474-2.123-2.226-8.309-7.518-13.912-16.179-17.13-4.023-1.495-6.562-4.803-6.964-9.074-.687-7.287-3.374-12.914-8.16-17.078v-10.502c15.982-21.733 36.854-38.942 60.483-50.569l35.862 57.989c1.121 1.813 3.008 3.018 5.125 3.27.277.032.554.049.828.049 1.832 0 3.604-.72 4.923-2.023l26.329-26.04 26.331 26.04c1.317 1.304 3.09 2.023 4.922 2.023.274 0 .552-.017.828-.049 2.117-.253 4.004-1.456 5.125-3.27l35.862-57.989c23.63 11.627 44.501 28.836 60.483 50.568v75.362zm-274.483 18.302c5.384-9.326 6.814-20.19 4.027-30.593-2.787-10.401-9.458-19.096-18.784-24.48-19.252-11.112-43.956-4.494-55.073 14.757-11.114 19.252-4.495 43.958 14.757 55.073 6.212 3.587 13.105 5.418 20.093 5.418 3.501 0 7.027-.46 10.5-1.391 10.401-2.787 19.096-9.458 24.48-18.784zm-12.125-7c-7.257 12.568-23.382 16.887-35.948 9.632s-16.888-23.382-9.632-35.948c4.868-8.433 13.732-13.152 22.835-13.152 4.461 0 8.979 1.134 13.113 3.521 12.566 7.255 16.888 23.382 9.632 35.948z"/></svg>