<svg id="Layer_1" viewBox="0 0 512 512" xmlns="http://www.w3.org/2000/svg" data-name="Layer 1"><path d="m388.236 246.336c-36.435 0-66.076 29.654-66.076 66.104s29.642 66.076 66.076 66.076 66.104-29.642 66.104-66.076-29.654-66.104-66.104-66.104zm0 118.177c-28.713 0-52.072-23.359-52.072-52.072s23.359-52.101 52.072-52.101 52.1 23.372 52.1 52.101-23.372 52.072-52.1 52.072zm-7.753-65.993c.184 2.223 3.038 5.37 10.499 7.538 18.668 5.449 19.178 17.982 18.89 21.693-.642 7.966-6.112 14.691-14.28 17.571-.118.041-.236.082-.354.122v6.682c0 3.867-3.135 7.002-7.002 7.002s-7.002-3.135-7.002-7.002v-6.211c-4.316-1.157-8.339-3.527-11.631-7.003-2.659-2.807-2.539-7.238.269-9.897 2.808-2.658 7.238-2.54 9.897.269 4.461 4.709 9.675 3.357 11.166 2.833 2.257-.796 4.75-2.65 4.978-5.469.213-2.745-3.176-5.49-8.846-7.146-17.48-5.078-20.188-15.561-20.54-19.831-.641-7.77 4.177-15.508 11.987-19.255.854-.409 1.764-.776 2.72-1.091v-6.598c0-3.867 3.135-7.002 7.002-7.002s7.002 3.135 7.002 7.002v6.246c4.18 1.114 8.5 3.399 12.61 7.295 2.808 2.659 2.927 7.091.267 9.897-2.658 2.807-7.091 2.927-9.897.267-6.284-5.953-11.636-4.354-13.646-3.391-2.571 1.233-4.252 3.486-4.088 5.478zm122.337 118.177c-3.276-13.791-12.179-25.888-24.426-33.189-2.972-1.771-6.117-3.229-9.386-4.404 12.46-12.662 19.866-28.498 21.573-46.504 1.828-19.281-2.843-40.73-13.883-63.751-10.615-22.134-27.208-45.82-49.378-70.535 7.018-3.396 11.882-10.568 11.882-18.874 0-9.621-6.502-17.733-15.331-20.211l21.631-46.841c1.001-2.168.828-4.697-.458-6.708-1.287-2.012-3.511-3.229-5.898-3.229h-101.82c-2.389 0-4.612 1.218-5.898 3.23-1.287 2.012-1.459 4.541-.457 6.709l21.652 46.838c-8.843 2.477-15.354 10.589-15.354 20.211 0 8.307 4.873 15.48 11.903 18.875-12.458 13.878-22.679 26.894-31.007 39.082v-205.925c0-3.867-3.135-7.002-7.002-7.002h-110.722c-3.867 0-7.002 3.135-7.002 7.002v61.993h-86.994c-3.867 0-7.002 3.135-7.002 7.002v195.502c-8.067 1.648-15.692 3.437-22.677 5.193v-19.135c0-3.867-3.135-7.002-7.002-7.002h-53.774c-3.867 0-7.002 3.135-7.002 7.002v146.494c0 3.867 3.135 7.002 7.002 7.002h53.773c3.867 0 7.002-3.135 7.002-7.002v-27.127l8.769.976c21.838 2.461 25.983 4.458 43.434 12.86 2.023.975 4.211 2.028 6.609 3.171 31.691 15.098 56.293 26.808 76.432 36.393l31.624 15.056c25.715 12.255 37.52 17.683 50.197 17.683 9.92 0 20.375-3.326 38.435-9.306 4.851-1.606 10.348-3.427 16.58-5.422 99.521-31.89 149.298-47.819 149.298-47.82 3.485-1.115 5.524-4.727 4.678-8.286zm-26.179-85.419c-1.697 17.897-10.312 33.213-24.925 44.46-6.893-.316-14.064.461-21.295 2.391l-77.966 18.068-11.556 2.754c.824-5.743.603-12.336-2.28-18.615-3.403-7.412-9.762-12.756-18.903-15.89-1.062-.504-4.417-2.096-10.048-4.771-10.907-16.572-13.064-37.083-6.355-61.021 2.941-10.494 7.547-21.467 13.779-32.873.135-.215.257-.438.368-.667 11.171-20.271 27.479-41.913 48.78-64.698h44.022c59.047 63.167 68.738 105.98 66.379 130.861zm-48.44-214.823-19.386 41.979h-41.133l-19.406-41.979zm-69.928 55.983h4.924s.009 0 .014 0h.019 54.997c3.845 0 6.973 3.141 6.973 7.002s-3.128 6.973-6.973 6.973h-59.953c-3.86 0-7.001-3.128-7.001-6.973s3.141-7.002 7.001-7.002zm-150.83-133.965h96.718v221.789c-21.616 40.135-21.284 69.663-14.549 89.881-7.18-3.414-15.624-7.432-25.339-12.057-12.998-20.929-32.04-35.238-56.829-42.779v-256.834zm-93.996 68.995h79.992v184.411c-5.994-1.135-12.27-1.934-18.829-2.39-20.482-1.42-41.68.583-61.163 3.862zm-50.685 314.05h-39.77v-132.49h39.77zm281.812 37.949c-6.297 2.016-11.829 3.848-16.71 5.464-18.666 6.182-28.039 9.293-36.993 8.42-9.202-.888-19.899-5.986-41.214-16.145l-31.629-15.058c-20.138-9.585-44.738-21.294-76.428-36.392-2.38-1.133-4.55-2.179-6.557-3.145-17.757-8.551-23.739-11.432-47.95-14.16l-10.327-1.149v-71.692c9.647-2.478 19.828-4.863 30.268-6.884.518-.043 1.021-.138 1.5-.288 29.93-5.68 61.87-8.255 89.411-1.311.482.185.99.316 1.517.39 21.987 5.86 41.06 17.935 53.891 39.563.709 1.195 1.757 2.152 3.012 2.75 38.473 18.314 57.723 27.443 57.723 27.443.257.122.521.229.792.318 5.616 1.866 9.219 4.675 11.016 8.587 2.011 4.38 1.801 10.76-.502 17.373-2.101 4.269-5.846 7.495-10.586 9.085-4.785 1.604-10.089 1.307-14.557-.817l-84.246-40.025c-3.493-1.657-7.669-.172-9.329 3.319-1.659 3.493-.173 7.67 3.319 9.329l84.244 40.024c4.501 2.14 9.353 3.219 14.244 3.219 3.613 0 7.249-.589 10.779-1.773 6.369-2.138 11.745-6.002 15.604-11.128l20.795-4.956 78.038-18.086c.078-.018.157-.037.235-.059 13.906-3.734 26.802-2.401 37.291 3.851 7.141 4.257 12.734 10.719 15.948 18.257-16.622 5.32-64.159 20.541-142.599 45.675zm-113.178-352.991h48.812c3.867 0 7.002-3.135 7.002-7.002v-27.524c0-3.867-3.135-7.002-7.002-7.002h-48.812c-3.867 0-7.002 3.135-7.002 7.002v27.524c0 3.867 3.135 7.002 7.002 7.002zm7.002-27.524h34.809v13.521h-34.809zm-7.002 83.509h48.812c3.867 0 7.002-3.135 7.002-7.002v-27.496c0-3.867-3.135-7.002-7.002-7.002h-48.812c-3.867 0-7.002 3.135-7.002 7.002v27.496c0 3.867 3.135 7.002 7.002 7.002zm7.002-27.496h34.809v13.492h-34.809zm-7.002 83.509h48.812c3.867 0 7.002-3.135 7.002-7.002v-27.496c0-3.867-3.135-7.002-7.002-7.002h-48.812c-3.867 0-7.002 3.135-7.002 7.002v27.496c0 3.867 3.135 7.002 7.002 7.002zm7.002-27.496h34.809v13.492h-34.809zm-7.002 83.48h48.812c3.867 0 7.002-3.135 7.002-7.002v-27.496c0-3.867-3.135-7.002-7.002-7.002h-48.812c-3.867 0-7.002 3.135-7.002 7.002v27.496c0 3.867 3.135 7.002 7.002 7.002zm7.002-27.496h34.809v13.492h-34.809zm-89.462-81.751h32.003c3.867 0 7.002-3.135 7.002-7.002v-32.004c0-3.867-3.135-7.002-7.002-7.002h-32.003c-3.867 0-7.002 3.135-7.002 7.002v32.004c0 3.867 3.135 7.002 7.002 7.002zm7.002-32.004h17.999v18h-17.999zm10.517 83.509v-32.003c0-3.867-3.135-7.002-7.002-7.002h-32.004c-3.867 0-7.002 3.135-7.002 7.002v32.003c0 3.867 3.135 7.002 7.002 7.002h32.004c3.867 0 7.002-3.135 7.002-7.002zm-14.004-7.002h-18v-17.999h18z"/></svg>