<?xml version="1.0"?>
<svg xmlns="http://www.w3.org/2000/svg" id="Layer_1" data-name="Layer 1" viewBox="0 0 64 64"><path d="M6,9.636h4.7l4.383,9.775A1,1,0,0,0,16,20h.017a1,1,0,0,0,.909-.622l3.982-9.744h3.772a1,1,0,0,0,.893-.551l1.941-3.854,3.819,7.656a1,1,0,0,0,1.6.261l3.512-3.512h3.961a1,1,0,1,0,0-2H36.031a1,1,0,0,0-.707.293L32.5,10.752l-4.09-8.2A1,1,0,0,0,27.518,2h0a1,1,0,0,0-.893.55L24.062,7.636H20.235a1,1,0,0,0-.926.621l-3.353,8.206L12.262,8.227a1,1,0,0,0-.912-.591H6a1,1,0,0,0,0,2Z"/><path d="M44.915,9.636a1,1,0,1,0,0-2H43.586a1,1,0,0,0,0,2Z"/><path d="M52.226,9.636a3.469,3.469,0,1,0,0-2H48.612a1,1,0,0,0,0,2Zm3.3-2.469a1.469,1.469,0,1,1-1.468,1.469A1.47,1.47,0,0,1,55.53,7.167Z"/><path d="M31.458,40.062a1,1,0,0,0,1.072,0,3.735,3.735,0,0,0,.643-.546l9.776-9.776a4.087,4.087,0,0,0,.5-.575,8.567,8.567,0,0,0-.486-11.56,8.58,8.58,0,0,0-10.955-.955,8.562,8.562,0,0,0-11.458,12.53,3.826,3.826,0,0,0,.486.56l9.791,9.791A3.55,3.55,0,0,0,31.458,40.062ZM22.194,28.037a1.067,1.067,0,0,0-.085-.115A6.574,6.574,0,0,1,27.1,17.09a6.507,6.507,0,0,1,4.258,1.583,1,1,0,0,0,1.307,0,6.564,6.564,0,0,1,8.889.344,6.567,6.567,0,0,1,.345,8.887.994.994,0,0,0-.088.117,2.3,2.3,0,0,1-.273.3l-9.541,9.541L22.45,28.323A2.025,2.025,0,0,1,22.194,28.037Z"/><path d="M34.472,31.155V28.928H36.7a1,1,0,0,0,1-1V24.984a1,1,0,0,0-1-1H34.472V21.758a1,1,0,0,0-1-1H30.528a1,1,0,0,0-1,1v2.226H27.3a1,1,0,0,0-1,1v2.944a1,1,0,0,0,1,1h2.227v2.227a1,1,0,0,0,1,1h2.944A1,1,0,0,0,34.472,31.155Zm-2-3.227v2.227h-.944V27.928a1,1,0,0,0-1-1H28.3v-.944h2.227a1,1,0,0,0,1-1V22.758h.944v2.226a1,1,0,0,0,1,1H35.7v.944H33.472A1,1,0,0,0,32.472,27.928Z"/><path d="M16.36,62H29.2a1,1,0,0,0,1-1V55.192a1,1,0,0,0-1-1h-.223V51.614a9.008,9.008,0,0,0-3.7-7.263L11.2,34.1V28.344a1,1,0,0,0-.293-.707L6.47,23.205a1,1,0,0,0-1.707.707V43.475a1,1,0,0,0,.258.671L15.36,55.578V61A1,1,0,0,0,16.36,62ZM28.2,60H17.36V56.192H28.2ZM6.763,26.326,9.2,28.758V39.552a1,1,0,0,0,.293.707L16.825,47.6a1,1,0,0,0,1.414-1.414L11.2,39.138V36.575L24.1,45.968a7,7,0,0,1,2.873,5.646v2.578H16.8L6.763,43.09Z"/><path d="M34.8,62H47.64a1,1,0,0,0,1-1V55.578L58.979,44.146a1,1,0,0,0,.258-.671V23.912a1,1,0,0,0-1.707-.707L53.1,27.637a1,1,0,0,0-.293.707V34.1L38.722,44.351a9.008,9.008,0,0,0-3.7,7.263v2.578H34.8a1,1,0,0,0-1,1V61A1,1,0,0,0,34.8,62ZM46.64,60H35.8V56.192H46.64Zm-9.615-8.386A7,7,0,0,1,39.9,45.968l12.907-9.393v2.563l-7.044,7.043A1,1,0,0,0,47.175,47.6l7.337-7.336a1,1,0,0,0,.293-.707V28.758l2.432-2.432V43.09L47.2,54.192H37.025Z"/></svg>
