<svg id="Layer_1" enable-background="new 0 0 512 512" viewBox="0 0 512 512" xmlns="http://www.w3.org/2000/svg"><path d="m65.31 225.95c14.32 0 25.97-11.65 25.97-25.97s-11.65-25.97-25.97-25.97-25.96 11.65-25.96 25.97 11.65 25.97 25.96 25.97zm0-35.94c5.5 0 9.98 4.48 9.98 9.98s-4.48 9.98-9.98 9.98-9.98-4.48-9.98-9.98 4.48-9.98 9.98-9.98zm318.2 128.02-20.26 11.03c-.21-.43-.43-.85-.66-1.27-4.29-7.91-11.43-13.69-20.11-16.26-8.7-2.58-17.86-1.62-25.8 2.7l-36.13 19.65c-25.06-8.07-50.11-16.14-75.15-24.2-25.96-8.37-51.26-5.99-75.21 7.05l-62.5 34.02-6.57-11.41c-4.1-7.01-13.13-9.41-20.13-5.36l-33.65 19.34c-6.97 4.07-9.38 13.09-5.38 20.1.01.01.01.02.02.03l75.57 131.2c2.75 4.71 7.72 7.34 12.79 7.34 2.5 0 5.02-.64 7.31-1.98l33.56-19.32c3.42-1.95 5.87-5.12 6.9-8.93 1.04-3.82.53-7.8-1.44-11.22l-6.23-10.82 2.65-1.44c13.91-7.58 28.58-8.95 43.62-4.09l32.51 10.46c7.56 2.44 15.05 3.66 22.44 3.66 11.54 0 22.84-2.98 33.75-8.92l150.5-81.9c7.91-4.31 13.67-11.47 16.24-20.16 2.57-8.7 1.61-17.84-2.7-25.74-8.94-16.4-29.54-22.49-45.94-13.56zm-59.2 10.24c4.18-2.27 9.02-2.78 13.62-1.41 4.58 1.36 8.35 4.39 10.63 8.61.23.41.42.83.62 1.25l-34.83 18.96c-2.99-6.08-7.76-11.18-13.66-14.55zm-233.56 167.28-74.31-129.02 31.46-18.1 9.65 16.76c.02.05.04.09.07.14.07.13.15.24.22.37l64.36 111.76zm326.06-142.73c-1.36 4.6-4.4 8.38-8.56 10.65l-150.49 81.89c-13.91 7.57-28.59 8.95-43.65 4.09l-32.5-10.46c-19.36-6.26-38.26-4.49-56.17 5.26l-2.98 1.62-46.8-81.28 62.16-33.84c19.95-10.87 41.04-12.84 62.66-5.87 29.65 9.55 59.3 19.11 88.98 28.66 6.53 2.11 11.33 7.91 12.24 14.78.31 2.61.06 5.34-.73 7.72-1.44 4.51-4.58 8.2-8.84 10.38-4.27 2.19-9.11 2.6-13.64 1.14l-75.52-24.32c-4.2-1.35-8.71.96-10.06 5.16s.96 8.71 5.16 10.06l75.51 24.32c3.4 1.1 6.89 1.64 10.37 1.64 5.31 0 10.6-1.27 15.48-3.78 8.06-4.14 14.01-11.15 16.74-19.68.94-2.85 1.47-5.89 1.6-8.97l44.35-24.14c.15-.08.31-.16.45-.25l28.56-15.55c8.65-4.71 19.53-1.49 24.25 7.18 2.29 4.17 2.79 8.99 1.43 13.59zm48.5-140.73c0 8.26-5.03 15.36-12.19 18.4v4.33c0 4.42-3.58 7.99-7.99 7.99s-7.99-3.58-7.99-7.99v-3.51c-4.21-1.2-7.99-3.76-10.65-7.35-2.63-3.55-1.88-8.55 1.67-11.18s8.55-1.88 11.18 1.67c.76 1.03 1.96 1.64 3.21 1.64h2.78c2.2 0 4-1.79 4-4 0-2.2-1.79-4-4-4h-.43-.96c-.63 0-1.24-.08-1.83-.22-9.7-1.37-17.19-9.71-17.19-19.79 0-8.27 5.04-15.38 12.22-18.41v-4.29c0-4.42 3.58-7.99 7.99-7.99s7.99 3.58 7.99 7.99v3.49c4.22 1.21 7.99 3.79 10.64 7.4 2.61 3.56 1.84 8.56-1.72 11.17s-8.56 1.84-11.17-1.72c-.76-1.04-1.93-1.64-3.19-1.64h-2.78c-2.17 0-4 1.83-4 4 0 2.18 1.83 4.03 4 4.03h.43.96c.63 0 1.24.08 1.83.22 9.7 1.36 17.19 9.69 17.19 19.76zm-20.18-78.89c-36.89 0-66.9 30.01-66.9 66.9 0 36.87 30.01 66.87 66.9 66.87 36.87 0 66.87-30 66.87-66.87 0-36.89-30-66.9-66.87-66.9zm0 117.78c-28.07 0-50.91-22.83-50.91-50.88 0-28.07 22.84-50.91 50.91-50.91 28.06 0 50.88 22.84 50.88 50.91 0 28.05-22.83 50.88-50.88 50.88zm-444.85-38.55c-.55 2.05-.26 4.23.8 6.07l16.89 29.23c2.21 3.82 7.09 5.13 10.91 2.92l9.58-5.53c1.16.69 2.34 1.34 3.55 1.93v11.18c0 4.42 3.58 7.99 7.99 7.99h33.8c4.42 0 7.99-3.58 7.99-7.99v-12.9c.64-.37 1.27-.76 1.89-1.16l11.24 6.47c3.82 2.2 8.71.89 10.91-2.93l16.87-29.23c2.21-3.82.9-8.71-2.92-10.92l-11.97-6.91c0-.23 0-.45 0-.68s0-.45 0-.68l11.97-6.91c3.82-2.21 5.13-7.09 2.92-10.92l-16.87-29.23c-2.21-3.82-7.09-5.13-10.91-2.93l-11.24 6.47c-.62-.4-1.25-.79-1.89-1.16v-12.9c0-4.42-3.58-7.99-7.99-7.99h-33.79c-4.42 0-7.99 3.58-7.99 7.99v11.18c-1.2.6-2.38 1.24-3.55 1.93l-9.58-5.53c-3.82-2.2-8.71-.9-10.91 2.92l-16.9 29.26c-2.21 3.82-.9 8.71 2.92 10.92l8.86 5.13c-.04.83-.06 1.66-.06 2.47 0 .83.02 1.65.06 2.49l-8.86 5.09c-1.83 1.06-3.17 2.81-3.72 4.86zm27.54-45.27 6.94 4c2.75 1.58 6.17 1.39 8.73-.49 2.91-2.14 6.02-3.82 9.25-4.99 3.16-1.15 5.26-4.15 5.26-7.51v-8.45h17.8v9.75c0 3.14 1.83 5.98 4.69 7.28 2.7 1.23 5.3 2.83 7.71 4.77 2.57 2.06 6.14 2.33 8.99.69l8.78-5.06 8.88 15.39-9.32 5.39c-2.76 1.6-4.31 4.68-3.94 7.85.15 1.33.23 2.7.23 4.21 0 1.5-.08 2.91-.23 4.19-.38 3.17 1.17 6.26 3.94 7.86l9.32 5.39-8.88 15.39-8.78-5.06c-2.85-1.64-6.42-1.37-8.99.69-2.42 1.94-5.01 3.54-7.71 4.77-2.86 1.3-4.69 4.14-4.69 7.28v9.75h-17.8v-8.45c0-3.36-2.1-6.36-5.26-7.51-3.23-1.17-6.34-2.85-9.25-4.99-2.55-1.88-5.98-2.07-8.73-.49l-6.94 4-8.89-15.38 6.39-3.69c2.85-1.64 4.4-4.87 3.91-8.12-.3-1.99-.45-3.83-.45-5.63 0-1.81.15-3.64.45-5.59.5-3.25-1.05-6.48-3.9-8.13l-6.41-3.71zm228.1-129.63c-15.15 0-27.47 12.32-27.47 27.47s12.32 27.47 27.47 27.47 27.47-12.32 27.47-27.47c-.01-15.15-12.33-27.47-27.47-27.47zm0 38.95c-6.33 0-11.48-5.15-11.48-11.48s5.15-11.48 11.48-11.48 11.48 5.15 11.48 11.48-5.15 11.48-11.48 11.48zm-129.52 50.77h9.16v14.68c0 9.11 7.43 16.53 16.55 16.53h7.57v61.8h-7.57c-9.13 0-16.55 7.43-16.55 16.55v14.84c-12.2 1.49-21.69 11.9-21.69 24.5v16.7c0 4.41 3.58 7.99 7.99 7.99h268.3c4.41 0 7.99-3.58 7.99-7.99v-16.7c0-12.61-9.5-23.03-21.71-24.5v-14.84c0-9.13-7.41-16.55-16.53-16.55h-7.57v-61.8h7.57c9.11 0 16.53-7.41 16.53-16.53v-14.68h9.18c4.41 0 7.99-3.58 7.99-7.99v-26.48c0-2.7-1.36-5.21-3.62-6.69l-129.7-84.79c-2.66-1.74-6.09-1.74-8.75 0l-129.52 84.79c-2.26 1.48-3.62 3.99-3.62 6.69v26.48c.01 4.41 3.59 7.99 8 7.99zm247.07 140.2c4.8 0 8.7 3.9 8.7 8.7v8.7h-252.31v-8.7c0-4.8 3.9-8.7 8.7-8.7zm-13.55-31.21c.24 0 .54.25.54.57v14.66h-208.92v-14.66c0-.29.28-.57.57-.57zm-184.25-15.99v-61.8h14.77v61.8zm30.75 0v-61.8h26.19v61.8zm42.18 0v-61.8h14.8v61.8zm30.79 0v-61.8h26.19v61.8zm42.18 0v-61.8h14.8v61.8zm38.89-78.32c0 .28-.26.54-.54.54h-207.81c-.3 0-.57-.26-.57-.54v-14.68h208.91v14.68zm-226.07-44.83 121.52-79.55 121.73 79.55v14.16h-243.25z"/></svg>