<svg id="Layer_1" enable-background="new 0 0 512 512" viewBox="0 0 512 512" xmlns="http://www.w3.org/2000/svg"><path d="m324.89 160.13-9.77-5.63c.09-1.34.14-2.7.14-4.06s-.04-2.7-.13-4.04l9.78-5.65c3.82-2.21 5.13-7.1 2.92-10.92l-18.06-31.27c-2.21-3.82-7.09-5.13-10.91-2.93l-9.78 5.63c-2.25-1.52-4.6-2.88-7.01-4.06v-11.24c0-4.42-3.58-7.99-7.99-7.99h-36.14c-4.42 0-7.99 3.58-7.99 7.99v11.26c-2.41 1.19-4.75 2.54-7.01 4.06l-9.78-5.63c-3.82-2.2-8.71-.89-10.91 2.93l-18.06 31.27c-2.21 3.82-.9 8.71 2.92 10.92l9.78 5.65c-.09 1.33-.13 2.68-.13 4.04s.05 2.71.14 4.06l-9.77 5.63c-1.84 1.06-3.18 2.8-3.73 4.85s-.26 4.23.8 6.07l18.06 31.29c1.06 1.84 2.81 3.18 4.86 3.73s4.23.26 6.07-.8l9.77-5.65c2.25 1.52 4.59 2.87 7 4.06v11.29c0 4.42 3.58 7.99 7.99 7.99h36.14c4.42 0 7.99-3.58 7.99-7.99v-11.29c2.41-1.19 4.75-2.54 7-4.06l9.77 5.65c1.84 1.06 4.02 1.35 6.07.8s3.8-1.89 4.86-3.73l18.06-31.29c1.06-1.84 1.35-4.02.8-6.07-.57-2.06-1.91-3.81-3.75-4.87zm-26.19-16.69c.38 2.24.57 4.6.57 7s-.19 4.77-.57 7.05c-.55 3.29 1 6.58 3.89 8.24l7.39 4.26-10.06 17.44-7.39-4.27c-2.88-1.66-6.48-1.37-9.05.73-3.74 3.05-7.85 5.43-12.22 7.08-3.12 1.17-5.18 4.15-5.18 7.48v8.53h-20.15v-8.53c0-3.33-2.06-6.31-5.18-7.48-4.37-1.64-8.48-4.02-12.22-7.08-2.57-2.1-6.18-2.39-9.05-.73l-7.39 4.27-10.06-17.44 7.39-4.26c2.89-1.67 4.44-4.95 3.89-8.24-.38-2.28-.57-4.65-.57-7.05 0-2.41.19-4.76.57-7 .55-3.29-.99-6.58-3.88-8.25l-7.4-4.28 10.07-17.43 7.4 4.26c2.87 1.66 6.47 1.36 9.04-.73 3.74-3.05 7.85-5.43 12.22-7.08 3.12-1.17 5.18-4.15 5.18-7.48v-8.5h20.15v8.5c0 3.33 2.06 6.31 5.18 7.48 4.37 1.64 8.48 4.02 12.22 7.08 2.57 2.1 6.17 2.39 9.04.73l7.4-4.26 10.07 17.43-7.4 4.28c-2.91 1.67-4.45 4.96-3.9 8.25zm-42.71-25.31c-17.8 0-32.29 14.5-32.29 32.31s14.48 32.32 32.29 32.32c17.82 0 32.31-14.5 32.31-32.32s-14.5-32.31-32.31-32.31zm0 48.64c-8.99 0-16.3-7.32-16.3-16.33s7.31-16.33 16.3-16.33c9 0 16.33 7.32 16.33 16.33s-7.33 16.33-16.33 16.33zm185.98-46.85c-14.07 0-25.94 9.57-29.46 22.54h-55.38c-.79-10.02-3.04-19.63-6.53-28.63h46.65c4.41 0 7.99-3.58 7.99-7.99v-48.1c12.98-3.52 22.56-15.39 22.56-29.46 0-16.85-13.71-30.56-30.56-30.56-16.83 0-30.53 13.71-30.53 30.56 0 14.07 9.57 25.94 22.54 29.46v40.1h-46.55c-17.82-29.24-50.02-48.81-86.71-48.81-36.68 0-68.87 19.57-86.68 48.81h-46.55v-40.1c12.97-3.52 22.54-15.39 22.54-29.46 0-16.85-13.7-30.56-30.53-30.56-16.85 0-30.56 13.71-30.56 30.56 0 14.07 9.58 25.94 22.56 29.46v48.09c0 4.42 3.58 7.99 7.99 7.99h46.64c-3.5 9-5.75 18.61-6.53 28.63h-55.38c-3.52-12.97-15.39-22.54-29.46-22.54-16.85 0-30.56 13.7-30.56 30.53 0 16.85 13.71 30.56 30.56 30.56 14.07 0 25.94-9.58 29.46-22.56h55.33c.73 11.32 3 20.61 6.3 28.63h-46.36c-4.41 0-7.99 3.58-7.99 7.99v48.09c-12.98 3.52-22.56 15.41-22.56 29.49 0 16.83 13.71 30.53 30.56 30.53 16.83 0 30.53-13.7 30.53-30.53 0-14.08-9.57-25.96-22.54-29.49v-40.1h47.16c4.77 6.91 10.26 13.04 15.85 19.3 2.43 2.72 4.95 5.53 7.42 8.43 5.59 6.55 9.23 13.61 11 21.4-9.34 1.85-16.4 10.09-16.4 19.96 0 11.22 9.13 20.35 20.35 20.35h2.61c-.24 10.81-6.19 19.95-16.05 24.53-7.64 3.56-16.33 6.62-24.73 9.58-29.92 10.53-63.82 22.46-63.82 62.95v112.17c0 4.42 3.58 7.99 7.99 7.99h107.35 69.02 107.35c4.42 0 7.99-3.58 7.99-7.99v-112.17c0-40.49-33.91-52.42-63.82-62.95-8.4-2.96-17.09-6.01-24.74-9.58-9.85-4.58-15.8-13.72-16.05-24.53h2.61c11.22 0 20.35-9.13 20.35-20.35 0-9.87-7.06-18.12-16.4-19.96 1.77-7.79 5.41-14.84 11-21.4 2.47-2.9 4.99-5.71 7.42-8.43 5.59-6.25 11.08-12.39 15.85-19.29h47.16v40.1c-12.97 3.53-22.54 15.41-22.54 29.49 0 16.83 13.7 30.53 30.53 30.53 16.85 0 30.56-13.7 30.56-30.53 0-14.08-9.58-25.97-22.56-29.49v-48.09c0-4.42-3.58-7.99-7.99-7.99h-46.36c3.31-8.02 5.57-17.31 6.3-28.63h55.33c3.52 12.98 15.39 22.56 29.46 22.56 16.85 0 30.56-13.71 30.56-30.56 0-16.84-13.7-30.53-30.55-30.53zm-59.28-91.65c0-8.03 6.52-14.57 14.54-14.57 8.03 0 14.57 6.54 14.57 14.57 0 8.02-6.54 14.54-14.57 14.54-8.01 0-14.54-6.52-14.54-14.54zm-282.5 0c0-8.03 6.54-14.57 14.57-14.57 8.02 0 14.54 6.54 14.54 14.57 0 8.02-6.52 14.54-14.54 14.54-8.03 0-14.57-6.52-14.57-14.54zm29.12 244.38c0 8.02-6.52 14.54-14.54 14.54-8.03 0-14.57-6.52-14.57-14.54 0-8.03 6.54-14.57 14.57-14.57 8.01 0 14.54 6.53 14.54 14.57zm282.5 0c0 8.02-6.54 14.54-14.57 14.54-8.02 0-14.54-6.52-14.54-14.54 0-8.03 6.52-14.57 14.54-14.57 8.03 0 14.57 6.53 14.57 14.57zm-341.78-107.63c-8.03 0-14.57-6.54-14.57-14.57 0-8.02 6.54-14.54 14.57-14.54 8.02 0 14.54 6.52 14.54 14.54.01 8.03-6.52 14.57-14.54 14.57zm183.5 184.82h4.94l17.85 16.72-8.81 21.88h-23.02l-8.81-21.88zm50.41-22.1-4.73 38.37-7.76-7.27c-.06-.06-.13-.12-.2-.19l-18.23-17.08 21.66-22.35c2.61 3.22 5.71 6.09 9.26 8.52zm-83.2 30.91c-.06.06-.13.12-.19.18l-7.76 7.27-4.73-38.37c3.55-2.43 6.65-5.29 9.26-8.52l21.66 22.35zm-98.61 30.9c0-27.21 20.08-36.23 53.14-47.87 5.83-2.05 11.8-4.16 17.59-6.48l5.97 48.47c.37 2.99 2.38 5.51 5.21 6.54.89.32 1.81.48 2.72.48 2 0 3.96-.75 5.47-2.16l10.93-10.24 7.59 18.87-18.9 88.23c-.19.87-.23 1.77-.12 2.66l.7 5.68h-31.77v-68.14c0-4.42-3.58-7.99-7.99-7.99s-7.99 3.58-7.99 7.99v68.14h-42.55zm106.42 104.17-.78-6.3 17.78-82.99h20.89l17.78 82.99-.78 6.3zm161.32-104.17v104.17h-42.55v-68.14c0-4.42-3.58-7.99-7.99-7.99s-7.99 3.58-7.99 7.99v68.14h-31.77l.7-5.68c.11-.89.07-1.78-.12-2.66l-18.91-88.23 7.59-18.87 10.93 10.24c1.51 1.41 3.47 2.16 5.47 2.16.91 0 1.83-.16 2.72-.48 2.83-1.03 4.84-3.55 5.21-6.54l5.97-48.47c5.8 2.32 11.76 4.43 17.59 6.48 33.07 11.64 53.15 20.67 53.15 47.88zm-102.93-85.31-28.69 29.61h-4.48l-28.69-29.61c1.05-3.72 1.62-7.66 1.67-11.74h58.53c.04 4.07.6 8.01 1.66 11.74zm16.92-27.74h-95.73c-2.41 0-4.37-1.96-4.37-4.37 0-2.37 2-4.36 4.37-4.36h95.73c2.37 0 4.37 2 4.37 4.36 0 2.41-1.96 4.37-4.37 4.37zm10.46-64.8c-2.49 2.79-5.07 5.67-7.66 8.71-7.97 9.34-13.01 19.87-15.05 31.38h-71.21c-2.04-11.52-7.08-22.05-15.05-31.38-2.59-3.04-5.17-5.92-7.66-8.71-15.16-16.95-27.13-30.33-27.13-61.25 0-47.11 38.33-85.44 85.44-85.44 47.13 0 85.46 38.33 85.46 85.44-.01 30.91-11.98 44.3-27.14 61.25zm127.65-46.68c-8.02 0-14.54-6.54-14.54-14.57 0-8.02 6.52-14.54 14.54-14.54 8.03 0 14.57 6.52 14.57 14.54 0 8.03-6.54 14.57-14.57 14.57z"/></svg>