<svg id="Layer_1" enable-background="new 0 0 52 52" viewBox="0 0 52 52" xmlns="http://www.w3.org/2000/svg"><g><path d="m37.0921211 32.3342171 1.7441406.6801758-1.7529297.684082c-.3823242.1911621-.3991699.6533813-.2363281.9384766.2333984.3485107.6335449.4151611.9208984.2714844.027832-.0141602.0844727-.0424805 1.4819336-1.1767578-.1845703 1.1772461-.277832 1.8027344-.277832 1.8603516 0 .3855591.3303223.675293.6948242.675293.3598633 0 .6948242-.2874146.6948242-.675293 0-.0263672 0-.0805664-.2783203-1.8603516 1.394043 1.1318359 1.456543 1.1640625 1.4819336 1.1772461.2790527.1373901.6779785.0904541.9267578-.2827148.1721191-.3443604.1069336-.7283936-.2504883-.9316406l-1.7446289-.6801758 1.7626953-.6894531c.3032227-.1955566.4257813-.5620117.2260742-.9526367-.2770996-.4160156-.7563477-.3884888-.9208984-.2514648-.0263672.0131836-.0854492.0429688-1.4814453 1.1757813.2783203-1.7797852.2783203-1.8339844.2783203-1.8603516 0-.8936768-1.3896484-.8730469-1.3896484 0 0 .0219727 0 .0869141.277832 1.8603516-.8718262-.7070923-1.7907715-1.8478394-2.4067383-.9179688-.1611327.2836301-.1389159.7374265.2490235.9555662z"/><path d="m19.4773731 24.7463264c.8735352 0 1.6948242-.340332 2.3125-.9580078.2929688-.2929688.2929688-.7675781 0-1.0605469s-.7675781-.2929688-1.0605469 0c-.6689453.6689453-1.8344727.6689453-2.503418 0-.2929688-.2929688-.7675781-.2929688-1.0605469 0-.2929688.2924805-.2929688.7675781 0 1.0605469.6171876.6176758 1.4384767.9580078 2.3120118.9580078z"/><path d="m19.4773731 20.9030647c.4140625 0 .75-.3359375.75-.75v-.9360352c0-.4140625-.3359375-.75-.75-.75s-.75.3359375-.75.75v.9360352c0 .4140625.3359375.75.75.75z"/><path d="m2.5613582 40.3307991v6.8901367c0 1.5327148 1.2514648 2.7797852 2.7900388 2.7797852h28.219728c1.5385742 0 2.7900391-1.2470703 2.7900391-2.7797852v-4.2626343c.6914063.3965454 1.4199219.7677612 2.2236328 1.0888062.6777344.2715454 1.4697266.2780151 2.1635742 0 4.1831055-1.6708984 6.8271484-4.3452148 8.0830078-8.1757813.9006348-2.7440186.5026855-5.293396.6035156-10.7158203 0-1.2766724-1.2539063-2.1817627-2.4648438-1.7705078-1.8330078.6245117-3.8857422.1943359-6.2783203-1.3144531-.6342773-.3984375-1.440918-.3925781-2.0571289.0151367-2.2734375 1.5009766-3.7202148 2.0253906-6.2910156 1.1577148-1.2153339-.4116211-2.4448261.5249634-2.4448261 1.7792969v5.4202881c-.9208984-.4039307-1.7817383-.8121338-4.3105469-.9294434-.0180664-.0009766-.0366211-.0020752-.0546875-.0029907l-.6254883-2.9560547c1.4316406-1.2003784 2.4289551-2.8380737 2.8381348-4.6450806 1.7561035-.2618408 3.1120605-1.7698364 3.1120605-3.6030273 0-1.5505371-.9768066-2.8690195-2.34375-3.3954477 1.0097656-1.5605469 1.5039063-3.4063721 1.2138672-4.8052368-.2001953-.9672852-.7412109-1.7006836-1.5673828-2.1279292-.090332-.9482422-.5302734-1.7695313-1.309082-2.4433594-2.5368652-2.1950684-8.6791992-2.296936-11.6303701-1.7348633l-.0791016-1.1030273c-.0373535-.5203247-.581543-.8457031-1.059082-.6293945-2.4306641 1.1083984-3.71875 3.2773438-3.5527344 5.9663081-.7944336.5527344-1.269043 1.5595703-1.340332 2.8515625-.0693359 1.2539063.2692871 2.8352661 1.1228027 4.0684204-1.3012695.557312-2.2160645 1.8497934-2.2160645 3.3529673 0 1.8324585 1.3549805 3.3401489 3.1098633 3.6028442.4182129 1.8496094 1.4511719 3.5145264 2.9382324 4.7163696l-.5866699 2.8684692c-6.3229985.0663453-10.9970705 5.0952149-10.9970705 10.836731zm6.3090823 8.1699219v-3.4350586c0-.4140625-.3359375-.75-.75-.75-.414063 0-.7500005.3359375-.7500005.75v3.4350586h-2.019043c-.7114258 0-1.2900391-.5742188-1.2900391-1.2797852v-6.8901367c0-3.5910645 2.1174316-6.8251343 5.3598638-8.3863525l4.7329102 6.9649658c.6157227.906189 1.9047842 1.0303345 2.6831045.2553711l.0078125-.0079346.4609375 1.4237671-2.2961416 7.920105zm7.7016592-.0009766 2.0800781-7.175293h1.6264648l2.0800781 7.175293zm4.3232422-10.5300293-.5996094 1.8513184h-1.6591797l-.5998535-1.8526611 1.4284668-1.4246826zm-5.9079581-7.9758911.5048828-2.4685059c2.4562979 1.3178711 5.4631338 1.3839111 8.0759268-.0552979l.5314941 2.5117798c-.1013184.0977173-4.925293 4.7468262-4.6242676 4.4567871zm16.411376-4.9711304c0-.246521.2382813-.4349976.465332-.3583984 3.1079121 1.050293 5.0673847.3432617 7.5976582-1.3271484.1279297-.0854492.2929688-.0839844.4306641.0024414 2.7998047 1.7651367 5.2724609 2.2446289 7.5615234 1.465332.234375-.0824585.480957.0990601.480957.3505859-.0905762 5.3734741.2702637 7.8131104-.5288086 10.2480469-1.1088867 3.3828125-3.46875 5.7548828-7.2143555 7.2509766-.3344727.1328125-.7167969.1328125-1.050293 0-3.8696289-1.5454102-6.2651367-4.0332031-7.3247089-7.605957-.656494-2.2105713-.328369-4.0670777-.4179687-10.025879zm-1.4887695 7.1080323c.0268555 1.2562866.1760254 2.3595581.4682617 3.3446045.8041992 2.7113037 2.2946796 4.8535156 4.4829121 6.4993286v5.2462769c0 .7055664-.5786133 1.2797852-1.2900391 1.2797852h-1.6865253v-3.4350586c0-.4140625-.3359375-.75-.75-.75s-.75.3359375-.75.75v3.4350586h-6.463623l-2.2956543-7.9176636.4616699-1.425293.0065918.0065308c.7785645.7763062 2.0681152.6506348 2.6831055-.2553711l4.737793-6.9717407c.1330565.0629271.2661132.1246337.3955077.1935424zm-4.6938476-1.1334229c.871582.0268555 2.0390625.1655273 2.8613281.3862305l-4.5410156 6.6821289c-.0893555.1316528-.2749023.1467285-.3833008.0366211-.2226563-.2219849-2.715332-2.7070923-2.6137695-2.605957zm4.1420898-12.690918c0 .9243164-.581543 1.7148438-1.3959961 2.0214844v-4.0327148c.8144531.3046875 1.3959961 1.0913086 1.3959961 2.0112304zm-18.3652334 2.0214844c-.8144531-.3066406-1.3959961-1.097168-1.3959961-2.0214844 0-.9191284.5808105-1.704834 1.394043-2.0101318v3.7445068c0 .0109253.0019531.0215454.0019531.0324707zm-.3051758-9.3598642c.0463867-.8339844.3164063-1.4648438.7416992-1.730957.4125977-.2592773.6450195-.7080078.6074219-1.1713867-.1411133-1.7221675.4550781-3.1293941 1.6953125-4.0605464l.0102539.1435547c.0551758.7784424.7897949 1.3322144 1.5498047 1.1665039 2.5107412-.5328369 8.4470205-.4905396 10.578124 1.3540039.5043945.4360352.7670898.9365234.8037109 1.5297847.0288086.4663086.3110352.8803711.7373047 1.0810547.4580078.215332.7353516.5849609.8481445 1.1298828.2163086 1.0429688-.2128906 2.5244141-1.046875 3.7709961-.668457-.9775391-1.0839844-2.0380859-1.2636719-3.2182617-.1206055-.791748-.9233398-1.2682495-1.6679688-.9936523-3.0981445 1.1328125-6.3344727 1.1518555-9.6206045.0571289-.7241211-.2434082-1.4919434.2071533-1.6240234.9536133-.2241211 1.2724609-.5507813 2.6313477-1.2587891 3.4199219-.7158202-.8491213-1.158203-2.1933596-1.0898436-3.4316408zm1.8051758 9.1051645v-4.2998056c1.1691895-.9758911 1.6660156-2.6409912 1.9667969-4.2355347 3.4238272 1.0844727 6.8046865 1.0649414 10.0546865-.0600586.2832031 1.5521851.9321289 2.9217529 1.9467773 4.1798706v4.3831186c0 2.2104492-1.0566406 4.3144531-2.824707 5.6259766-2.4023438 1.7709961-5.8393555 1.7856445-8.2294912.0537109-1.8173828-1.2979126-2.9035645-3.4071045-2.9140625-5.6472778zm5.8989248 15.4216919-2.6142569 2.6079102c-.1083984.1077271-.2929688.0957642-.3833008-.0366211l-4.5351562-6.6743775c.7807617-.21875 2.1140137-.366333 2.9887695-.3939819.6323243.7431641 1.9711915 2.0336914 4.5439444 4.4970703z"/><path d="m23.4710255 18.2604866c.2832031-.281189.3027344-.7578735 0-1.0595703-.2797852-.2802734-.7797852-.2802734-1.0600586 0-.2983398.2982178-.286377.7733154 0 1.0595703.3051758.3051147.7832031.2786255 1.0600586 0z"/><path d="m16.5511036 18.2604866c.284668-.2846069.3010254-.7595215 0-1.0595703-.2797852-.2802734-.7797842-.2802734-1.0600576 0-.2983398.2971802-.286377.7732544 0 1.0595703.286621.2866211.7600088.2999268 1.0600576 0z"/><path d="m27.5179005 41.8351936h3.9892578c.4140625 0 .7500019-.3359375.7500019-.75s-.3359394-.75-.7500019-.75h-3.9892578c-.4140625 0-.75.3359375-.75.75s.3359375.75.75.75z"/><path d="m39.6668282 39.7897835c3.7358398 0 6.7749023-3.0395508 6.7749023-6.7753906s-3.0390625-6.7749023-6.7749023-6.7749023-6.7753906 3.0390625-6.7753906 6.7749023 3.0395507 6.7753906 6.7753906 6.7753906zm0-12.050293c2.9086914 0 5.2749023 2.3662109 5.2749023 5.2749023s-2.3662109 5.2753906-5.2749023 5.2753906-5.2753906-2.3666992-5.2753906-5.2753906 2.3666991-5.2749023 5.2753906-5.2749023z"/></g></svg>