<?xml version="1.0"?>
<svg xmlns="http://www.w3.org/2000/svg" data-name="Layer 1" id="Layer_1" viewBox="0 0 64 64"><path d="M10,44a4,4,0,1,0,4,4A4,4,0,0,0,10,44Zm0,6a2,2,0,1,1,2-2A2,2,0,0,1,10,50Z"/><path d="M2,63H18a1,1,0,0,0,1-1V58a5,5,0,0,0-5-5H12a1,1,0,0,0-.89.55L10,55.76,8.89,53.55A1,1,0,0,0,8,53H6a5,5,0,0,0-5,5v4A1,1,0,0,0,2,63Zm1-5a3,3,0,0,1,3-3H7.38l1.73,3.45a1,1,0,0,0,1.78,0L12.62,55H14a3,3,0,0,1,3,3v3H3Z"/><path d="M54,52a4,4,0,1,0-4-4A4,4,0,0,0,54,52Zm0-6a2,2,0,1,1-2,2A2,2,0,0,1,54,46Z"/><path d="M58,53H56a1,1,0,0,0-.89.55L54,55.76l-1.11-2.21A1,1,0,0,0,52,53H50a5,5,0,0,0-5,5v4a1,1,0,0,0,1,1H62a1,1,0,0,0,1-1V58A5,5,0,0,0,58,53Zm3,8H47V58a3,3,0,0,1,3-3h1.38l1.73,3.45a1,1,0,0,0,1.78,0L56.62,55H58a3,3,0,0,1,3,3Z"/><path d="M36,48a4,4,0,1,0-4,4A4,4,0,0,0,36,48Zm-6,0a2,2,0,1,1,2,2A2,2,0,0,1,30,48Z"/><path d="M36,53H34a1,1,0,0,0-.89.55L32,55.76l-1.11-2.21A1,1,0,0,0,30,53H28a5,5,0,0,0-5,5v4a1,1,0,0,0,1,1H40a1,1,0,0,0,1-1V58A5,5,0,0,0,36,53Zm3,8H25V58a3,3,0,0,1,3-3h1.38l1.73,3.45a1,1,0,0,0,1.78,0L34.62,55H36a3,3,0,0,1,3,3Z"/><path d="M50,41a1,1,0,0,0-1-1H47V27a1,1,0,0,0-.76-1L39,24.22V21a1,1,0,0,0-1-1H33V18h1a1,1,0,0,0,1-1V15h2a1,1,0,0,0,1-1V10a1,1,0,0,0-1-1H35V7a1,1,0,0,0-1-1H30a1,1,0,0,0-1,1V9H27a1,1,0,0,0-1,1v4a1,1,0,0,0,1,1h2v2a1,1,0,0,0,1,1h1v2H26a1,1,0,0,0-1,1v3.22L17.76,26A1,1,0,0,0,17,27V40H15a1,1,0,0,0,0,2H49A1,1,0,0,0,50,41ZM25,40H19V27.78l6-1.5Zm5-27H28V11h2a1,1,0,0,0,1-1V8h2v2a1,1,0,0,0,1,1h2v2H34a1,1,0,0,0-1,1v2H31V14A1,1,0,0,0,30,13Zm3,27H31V34h2Zm4,0H35V33a1,1,0,0,0-1-1H30a1,1,0,0,0-1,1v7H27V22H37Zm8,0H39V26.28l6,1.5Z"/><path d="M59,30a1,1,0,0,0,1-1A28,28,0,0,0,4,29a1,1,0,0,0,2,0,26,26,0,0,1,52,0A1,1,0,0,0,59,30Z"/></svg>
