<svg height="512" viewBox="0 0 128 128" width="512" xmlns="http://www.w3.org/2000/svg"><g><path d="m72.922 83.619a16.481 16.481 0 1 0 -17.844 0 22.653 22.653 0 0 0 -16.478 21.763v3.618a1.751 1.751 0 0 0 1.75 1.75h47.297a1.751 1.751 0 0 0 1.753-1.75v-3.618a22.653 22.653 0 0 0 -16.478-21.763zm-21.9-13.837a12.981 12.981 0 1 1 12.978 12.982 13 13 0 0 1 -12.981-12.982zm34.878 37.468h-43.8v-1.868a19.14 19.14 0 0 1 19.122-19.118h5.556a19.14 19.14 0 0 1 19.122 19.118z"/><path d="m34.005 68.032h-3.738a1.75 1.75 0 1 0 0 3.5h3.738a1.75 1.75 0 1 0 0-3.5z"/><path d="m97.733 68.032h-3.733a1.75 1.75 0 0 0 0 3.5h3.738a1.75 1.75 0 0 0 0-3.5z"/><path d="m86.616 44.692-2.644 2.643a1.75 1.75 0 1 0 2.475 2.475l2.643-2.643a1.75 1.75 0 1 0 -2.474-2.475z"/><path d="m64 41.538a1.751 1.751 0 0 0 1.75-1.75v-3.739a1.75 1.75 0 0 0 -3.5 0v3.739a1.751 1.751 0 0 0 1.75 1.75z"/><path d="m41.553 49.81a1.75 1.75 0 0 0 2.475-2.475l-2.644-2.643a1.75 1.75 0 0 0 -2.474 2.475z"/><path d="m25.187 23.288a1.751 1.751 0 0 0 1.75-1.75v-1.687a1.75 1.75 0 0 0 -3.5 0v1.687a1.751 1.751 0 0 0 1.75 1.75z"/><path d="m25.187 32.4a1.75 1.75 0 0 0 1.75-1.75v-1.688a1.75 1.75 0 0 0 -3.5 0v1.687a1.75 1.75 0 0 0 1.75 1.751z"/><path d="m28.9 27h1.687a1.75 1.75 0 0 0 0-3.5h-1.687a1.75 1.75 0 0 0 0 3.5z"/><path d="m19.788 27h1.687a1.75 1.75 0 0 0 0-3.5h-1.687a1.75 1.75 0 1 0 0 3.5z"/><path d="m95.864 30.374a1.749 1.749 0 0 0 1.75-1.75v-1.686a1.75 1.75 0 0 0 -3.5 0v1.686a1.75 1.75 0 0 0 1.75 1.75z"/><path d="m95.864 39.486a1.75 1.75 0 0 0 1.75-1.75v-1.687a1.75 1.75 0 0 0 -3.5 0v1.687a1.751 1.751 0 0 0 1.75 1.75z"/><path d="m101.264 30.587h-1.688a1.75 1.75 0 1 0 0 3.5h1.688a1.75 1.75 0 0 0 0-3.5z"/><path d="m93.9 32.337a1.75 1.75 0 0 0 -1.75-1.75h-1.685a1.75 1.75 0 1 0 0 3.5h1.687a1.75 1.75 0 0 0 1.748-1.75z"/><path d="m24.4 87.129a1.751 1.751 0 0 0 -1.75 1.75v1.687a1.75 1.75 0 0 0 3.5 0v-1.687a1.75 1.75 0 0 0 -1.75-1.75z"/><path d="m24.4 96.241a1.75 1.75 0 0 0 -1.75 1.75v1.687a1.75 1.75 0 0 0 3.5 0v-1.687a1.749 1.749 0 0 0 -1.75-1.75z"/><path d="m29.8 92.528h-1.689a1.75 1.75 0 0 0 0 3.5h1.689a1.75 1.75 0 0 0 0-3.5z"/><path d="m20.688 92.528h-1.688a1.75 1.75 0 0 0 0 3.5h1.688a1.75 1.75 0 1 0 0-3.5z"/></g></svg>