<svg height="512" viewBox="0 0 64 64" width="512" xmlns="http://www.w3.org/2000/svg"><g id="Outline"><g id="Outline-2" data-name="Outline"><path d="m7 62h40.129a1.952 1.952 0 0 0 .763-.154c13.633-5.776 14.522-16.533 14-24.123a1.925 1.925 0 0 0 -2.392-1.754 10.926 10.926 0 0 1 -7.5-1.235v-24.734h5a3.015 3.015 0 0 0 3-3 5.059 5.059 0 0 0 -5-5c-10.75-.024-43 0-43 0a5.006 5.006 0 0 0 -5 5v47h-2a3 3 0 0 0 -3 3 5.006 5.006 0 0 0 5 5zm45-55a3 3 0 0 1 6 0 1 1 0 0 1 -1 1h-5zm7.906 30.928c.505 7.557-.513 16.872-12.76 22.072-12.319-5.219-13.3-14.58-12.842-22.085 5.853 1.346 10.948-2.489 12.781-4.2 1.9 1.711 6.949 5.531 12.821 4.213zm-50.906-30.928a3 3 0 0 1 3-3h39a4.973 4.973 0 0 0 -1 3v26.495a18.7 18.7 0 0 1 -1.58-1.263 1.934 1.934 0 0 0 -2.581 0c-1.687 1.5-6.142 4.876-11.088 3.742a1.953 1.953 0 0 0 -2.389 1.746c-.33 4.84-.082 10.973 3.678 16.28h-27.04zm-4 49h32.664a22.634 22.634 0 0 0 5.036 4h-35.7a3 3 0 0 1 -3-3 1 1 0 0 1 1-1z"/><path d="m31 26a10 10 0 1 0 -10-10 10.011 10.011 0 0 0 10 10zm0-18a8 8 0 1 1 -8 8 8.009 8.009 0 0 1 8-8z"/><path d="m27 19h1v1a2 2 0 0 0 2 2h2a2 2 0 0 0 2-2v-1h1a2 2 0 0 0 2-2v-2a2 2 0 0 0 -2-2h-1v-1a2 2 0 0 0 -2-2h-2a2 2 0 0 0 -2 2v1h-1a2 2 0 0 0 -2 2v2a2 2 0 0 0 2 2zm0-4h2a1 1 0 0 0 1-1v-2h2v2a1 1 0 0 0 1 1h2v2h-2a1 1 0 0 0 -1 1v2h-2v-2a1 1 0 0 0 -1-1h-2z"/><path d="m13 31h29a1 1 0 0 0 0-2h-29a1 1 0 0 0 0 2z"/><path d="m13 37h16a1 1 0 0 0 0-2h-16a1 1 0 0 0 0 2z"/><path d="m13 43h16a1 1 0 0 0 0-2h-16a1 1 0 0 0 0 2z"/><circle cx="30" cy="50" r="1"/><path d="m21.884 48.712c-.809.661-1.336.61-1.754-.288-.836-1.794-2.317-1.594-4.455-.277a20.421 20.421 0 0 1 -2 1.193 3.935 3.935 0 0 1 .212-2.062 1 1 0 0 0 -1.922-.556c-.606 1.727-.591 4.5 1.6 4.6 1.293.062 3.622-2.023 4.67-2.216a2.941 2.941 0 0 0 4.873 1.183c.685-.53.942-.727 2.216.443a1 1 0 0 0 1.354-1.474c-2.321-2.125-3.715-1.427-4.794-.546z"/><path d="m54.922 42.044a3.035 3.035 0 0 0 -4.269-.116l-4.745 4.5-1.273-1.273a3.09 3.09 0 0 0 -4.269 0 3.021 3.021 0 0 0 0 4.268l3.35 3.352a3 3 0 0 0 4.212.057l6.879-6.518a3.033 3.033 0 0 0 .115-4.27zm-1.491 2.815-6.878 6.518a1.015 1.015 0 0 1 -1.422-.019l-3.351-3.352a1.019 1.019 0 0 1 1.441-1.44l1.961 1.961a1 1 0 0 0 1.395.019l5.452-5.166a1.019 1.019 0 1 1 1.4 1.479z"/></g></g></svg>