<?xml version="1.0"?>
<svg xmlns="http://www.w3.org/2000/svg" data-name="Layer 1" id="Layer_1" viewBox="0 0 64 64"><title/><path d="M7,8a6,6,0,1,0,6-6A6,6,0,0,0,7,8Zm6,4A4,4,0,0,1,9,8h8A4,4,0,0,1,13,12Zm3.44-6H9.56a4,4,0,0,1,6.88,0Z"/><path d="M45,8a6,6,0,1,0,6-6A6,6,0,0,0,45,8Zm6,4a4,4,0,0,1-4-4h8A4,4,0,0,1,51,12Zm3.44-6H47.56a4,4,0,0,1,6.88,0Z"/><path d="M54.05,14a1,1,0,0,0-1.12.47L51,17.89,49.07,14.5A1,1,0,0,0,48,14a10.44,10.44,0,0,0-7.63,7.23l-2-1.49a10,10,0,1,0-12.56,0l-2,1.49A10.44,10.44,0,0,0,16.05,14a1,1,0,0,0-1.12.47L13,17.89,11.07,14.5A1,1,0,0,0,10,14,10.77,10.77,0,0,0,2,24.51V32.2c0,3.2,1.08,4.47,3,6.19v20.1A3.51,3.51,0,0,0,8.82,62,3.65,3.65,0,0,0,12,58.31V39.51c0-.89.53-1.51,1-1.51s1,.62,1,1.51v19A3.51,3.51,0,0,0,17.51,62h.31A3.65,3.65,0,0,0,21,58.31V28.87l1.45,1a1,1,0,0,0,1.2-.07L32,22.59l8.35,7.17a1,1,0,0,0,1.2.07l1.45-1V58.31A3.65,3.65,0,0,0,46.18,62,3.51,3.51,0,0,0,50,58.49v-19c0-.89.53-1.51,1-1.51s1,.62,1,1.51v18.8A3.65,3.65,0,0,0,55.18,62h.31A3.51,3.51,0,0,0,59,58.49V38.39c1.92-1.72,3-3,3-6.19V24.51A10.77,10.77,0,0,0,54.05,14ZM24,12a8,8,0,1,1,8,8A8,8,0,0,1,24,12ZM22.92,27.75l-2.37-1.58a1,1,0,0,0-1-.05A1,1,0,0,0,19,27V58.31A1.63,1.63,0,0,1,17.64,60a1.51,1.51,0,0,1-1.15-.38A1.49,1.49,0,0,1,16,58.49v-19A3.29,3.29,0,0,0,13,36a3.29,3.29,0,0,0-3,3.51v18.8A1.63,1.63,0,0,1,8.64,60,1.49,1.49,0,0,1,7,58.49V25a1,1,0,0,0-2,0V35.56A4.67,4.67,0,0,1,4,32.2V24.51a8.8,8.8,0,0,1,5.73-8.32l2.4,4.22a1,1,0,0,0,1.74,0l2.4-4.22A8.29,8.29,0,0,1,22,23.11a1,1,0,0,0,1.58.7l3.93-2.88a10,10,0,0,0,2.37.84ZM60,32.2a4.67,4.67,0,0,1-1,3.36V25a1,1,0,0,0-2,0V38h0V58.49a1.49,1.49,0,0,1-.49,1.12,1.51,1.51,0,0,1-1.15.38A1.63,1.63,0,0,1,54,58.31V39.51A3.29,3.29,0,0,0,51,36a3.29,3.29,0,0,0-3,3.51v19a1.49,1.49,0,0,1-.49,1.12,1.51,1.51,0,0,1-1.15.38A1.63,1.63,0,0,1,45,58.31V27a1,1,0,0,0-.53-.88,1,1,0,0,0-1,.05l-2.37,1.58-7-6a10,10,0,0,0,2.37-.84l3.93,2.88a1,1,0,0,0,1.58-.7,8.29,8.29,0,0,1,5.74-6.92l2.4,4.22a1,1,0,0,0,1.74,0l2.4-4.22A8.8,8.8,0,0,1,60,24.51Z"/><path d="M38.21,34H37V32.43A2.43,2.43,0,0,0,34.57,30H29.43A2.43,2.43,0,0,0,27,32.43V34H25.79A2.79,2.79,0,0,0,23,36.79v8.42A2.79,2.79,0,0,0,25.79,48H38.21A2.79,2.79,0,0,0,41,45.21V36.79A2.79,2.79,0,0,0,38.21,34ZM29,32.43a.43.43,0,0,1,.43-.43h5.14a.43.43,0,0,1,.43.43V34H29ZM39,45.21a.79.79,0,0,1-.79.79H25.79a.79.79,0,0,1-.79-.79V36.79a.79.79,0,0,1,.79-.79H38.21a.79.79,0,0,1,.79.79Z"/><path d="M34,40H33V39a1,1,0,0,0-2,0v1H30a1,1,0,0,0,0,2h1v1a1,1,0,0,0,2,0V42h1a1,1,0,0,0,0-2Z"/><path d="M28.38,15H29v.63A2.38,2.38,0,0,0,31.38,18h1.25A2.38,2.38,0,0,0,35,15.63V15h.63A2.38,2.38,0,0,0,38,12.63V11.38A2.38,2.38,0,0,0,35.63,9H35V8.38A2.38,2.38,0,0,0,32.63,6H31.38A2.39,2.39,0,0,0,29,8.38V9h-.62A2.39,2.39,0,0,0,26,11.38v1.25A2.38,2.38,0,0,0,28.38,15ZM28,11.38a.38.38,0,0,1,.38-.38H30a1,1,0,0,0,1-1V8.38A.38.38,0,0,1,31.38,8h1.25a.38.38,0,0,1,.37.38V10a1,1,0,0,0,1,1h1.63a.38.38,0,0,1,.37.38v1.25a.38.38,0,0,1-.37.37H34a1,1,0,0,0-1,1v1.63a.38.38,0,0,1-.37.37H31.38a.38.38,0,0,1-.38-.37V14a1,1,0,0,0-1-1H28.38a.38.38,0,0,1-.38-.37Z"/></svg>
