<?xml version="1.0" encoding="UTF-8"?>
<svg xmlns="http://www.w3.org/2000/svg" id="OBJECT" viewBox="0 0 512 512" width="512" height="512"><path d="M504.5,467h-41V142H476a7.5,7.5,0,0,0,7.5-7.5v-30A7.5,7.5,0,0,0,476,97H433.5V74.5A7.5,7.5,0,0,0,426,67H408.5V37.5A7.5,7.5,0,0,0,401,30H371a7.5,7.5,0,0,0-7.5,7.5V67h-15V7.5A7.5,7.5,0,0,0,341,0H311a7.5,7.5,0,0,0-7.5,7.5V67H286a7.5,7.5,0,0,0-7.5,7.5V97H236a7.5,7.5,0,0,0-7.5,7.5v30A7.5,7.5,0,0,0,236,142h12.5v36.77l-60.64,16.54v-45.4a7.51,7.51,0,0,0-4.76-7L96.67,109a7.51,7.51,0,0,0-5.48,0L4.76,142.92a7.51,7.51,0,0,0-4.76,7v59.34A143.69,143.69,0,0,0,68.5,331.68V467H7.5A7.5,7.5,0,0,0,0,474.5v30A7.5,7.5,0,0,0,7.5,512h497a7.5,7.5,0,0,0,7.5-7.5v-30A7.5,7.5,0,0,0,504.5,467ZM378.5,45h15V67h-15Zm-60-30h15V67h-15Zm-25,67h125V97h-125Zm-50,30h225v15h-225Zm205,30V467h-45V412H411a7.5,7.5,0,0,0,0-15H301a7.5,7.5,0,0,0,0,15h7.5v55h-45V142Zm-100,270v55h-25V412Zm15,0h25v55h-25Zm-115-40v95h-105V372Zm0-163.23-61.56,16.79a146.25,146.25,0,0,0,.89-14.69l60.67-16.55ZM15,209.25V155l78.93-31,78.93,31v54.23A127.88,127.88,0,0,1,93.93,327.91,127.88,127.88,0,0,1,15,209.25ZM83.5,339.68c2.53,1.16,5.08,2.28,7.69,3.3a7.48,7.48,0,0,0,5.48,0,143.76,143.76,0,0,0,87.45-101.1l64.38-17.56V357H116a7.5,7.5,0,0,0,0,15h12.5v95h-45ZM497,497H15V482H497Z"/><path d="M296,222h40a7.5,7.5,0,0,0,7.5-7.5v-40A7.5,7.5,0,0,0,336,167H296a7.5,7.5,0,0,0-7.5,7.5v40A7.5,7.5,0,0,0,296,222Zm7.5-40h25v25h-25Z"/><path d="M376,222h40a7.5,7.5,0,0,0,7.5-7.5v-40A7.5,7.5,0,0,0,416,167H376a7.5,7.5,0,0,0-7.5,7.5v40A7.5,7.5,0,0,0,376,222Zm7.5-40h25v25h-25Z"/><path d="M296,302h40a7.5,7.5,0,0,0,7.5-7.5v-40A7.5,7.5,0,0,0,336,247H296a7.5,7.5,0,0,0-7.5,7.5v40A7.5,7.5,0,0,0,296,302Zm7.5-40h25v25h-25Z"/><path d="M376,302h40a7.5,7.5,0,0,0,7.5-7.5v-40A7.5,7.5,0,0,0,416,247H376a7.5,7.5,0,0,0-7.5,7.5v40A7.5,7.5,0,0,0,376,302Zm7.5-40h25v25h-25Z"/><path d="M296,382h40a7.5,7.5,0,0,0,7.5-7.5v-40A7.5,7.5,0,0,0,336,327H296a7.5,7.5,0,0,0-7.5,7.5v40A7.5,7.5,0,0,0,296,382Zm7.5-40h25v25h-25Z"/><path d="M376,382h40a7.5,7.5,0,0,0,7.5-7.5v-40A7.5,7.5,0,0,0,416,327H376a7.5,7.5,0,0,0-7.5,7.5v40A7.5,7.5,0,0,0,376,382Zm7.5-40h25v25h-25Z"/><path d="M146.81,214.26a7.5,7.5,0,0,0,0-10.61l-18-18a7.49,7.49,0,0,0-10.6,0l-34,34L69.61,205.15a7.5,7.5,0,0,0-10.61,0l-18,17.95a7.5,7.5,0,0,0,0,10.61l28.87,28.87a20.18,20.18,0,0,0,28.56,0ZM84.2,253.5A5.15,5.15,0,0,1,80.53,252L57,228.41l7.35-7.35L78.9,235.65a7.5,7.5,0,0,0,10.61,0l34-34L130.9,209l-43,43A5.17,5.17,0,0,1,84.2,253.5Z"/><path d="M174.94,452h42.12a7.5,7.5,0,0,0,0-15H174.94a7.5,7.5,0,0,0,0,15Z"/></svg>
