<?xml version="1.0"?>
<svg xmlns="http://www.w3.org/2000/svg" data-name="Layer 1" id="Layer_1" viewBox="0 0 64 64"><title/><path d="M32,20a1,1,0,0,1,1,1h2a3,3,0,0,0-2-2.816V17H31v1.184A2.993,2.993,0,0,0,32,24a1,1,0,1,1-1,1H29a3,3,0,0,0,2,2.816V29h2V27.816A2.993,2.993,0,0,0,32,22a1,1,0,0,1,0-2Z"/><path d="M3,54H4v7a1,1,0,0,0,1,1H9a1,1,0,0,0,1-1V59h2v2a1,1,0,0,0,1,1h4a1,1,0,0,0,1-1V54h1a1,1,0,0,0,.6-1.8l-8-6a1,1,0,0,0-1.2,0L7,48.75V47H5v3.25L2.4,52.2A1,1,0,0,0,3,54Zm8-5.75L16,52H6ZM6,54H16v6H14V58a1,1,0,0,0-1-1H9a1,1,0,0,0-1,1v2H6Z"/><path d="M59,50.25V47H57v1.75L53.6,46.2a1,1,0,0,0-1.2,0l-8,6A1,1,0,0,0,45,54h1v7a1,1,0,0,0,1,1h4a1,1,0,0,0,1-1V59h2v2a1,1,0,0,0,1,1h4a1,1,0,0,0,1-1V54h1a1,1,0,0,0,.6-1.8ZM58,60H56V58a1,1,0,0,0-1-1H51a1,1,0,0,0-1,1v2H48V54H58ZM48,52l5-3.75L58,52Z"/><path d="M61,22a1,1,0,0,0,.382-1.924L50,15.366V10h9a1,1,0,0,0,.768-1.64L57.8,6l1.966-2.36A1,1,0,0,0,59,2H49a1,1,0,0,0-1,1V14.539L32.382,8.076a1,1,0,0,0-.764,0L17,14.125V3a1,1,0,0,0-1-1H6a1,1,0,0,0-.768,1.64L7.2,6,5.232,8.36A1,1,0,0,0,6,10h9v4.952L2.618,20.076A1,1,0,0,0,3,22H5V42H3v2H61V42H59V22ZM50,4h6.865L55.732,5.36a1,1,0,0,0,0,1.28L56.865,8H50ZM8.135,8,9.268,6.64a1,1,0,0,0,0-1.28L8.135,4H15V8ZM9,42H7V22H9Zm4,0H11V22h2Zm4,0H15V22h2Zm4,0H19V22h2Zm4,0H23V27.33a10.026,10.026,0,0,0,2,2.8Zm4,0H27V31.647a9.9,9.9,0,0,0,2,.892Zm4,0H31V32.949a9.829,9.829,0,0,0,2,0Zm4,0H35V32.539a9.9,9.9,0,0,0,2-.892ZM32,31a8,8,0,1,1,8-8A8.009,8.009,0,0,1,32,31Zm9,11H39V30.129a10.026,10.026,0,0,0,2-2.8Zm4,0H43V22h2Zm4,0H47V22h2Zm4,0H51V22h2ZM50,20H41.539a10,10,0,0,0-19.078,0H8.032L32,10.082,55.968,20H50Zm7,22H55V22h2Z"/><path d="M27,46a5.006,5.006,0,0,1-5,5v2a7.008,7.008,0,0,0,7-7Z"/><path d="M35,46a7.008,7.008,0,0,0,7,7V51a5.006,5.006,0,0,1-5-5Z"/></svg>
