<svg height="512" viewBox="0 0 64 64" width="512" xmlns="http://www.w3.org/2000/svg"><g id="outline_create" data-name="outline create"><path d="m28.793 13.793-8.793 8.793-2.293-2.293-1.414 1.414 3 3a1 1 0 0 0 1.414 0l9.5-9.5z"/><path d="m27 27h-12v-12h10.375v-2h-11.375a1 1 0 0 0 -1 1v14a1 1 0 0 0 1 1h14a1 1 0 0 0 1-1v-8.75h-2z"/><path d="m21 40a18.836 18.836 0 0 0 11.133-3.626l5.042 5.037a1 1 0 0 0 0 1.414l11.169 11.175h-34.344v-14h-2v14h-2v-16h-2v16h-2a1 1 0 0 0 -1 1v2a5.006 5.006 0 0 0 5 5h44a4.941 4.941 0 0 0 2.13-.484 3.99 3.99 0 0 0 4.7-6.344l-4.83-4.828v-23.344a1 1 0 0 0 -1-1h-14v2h13v20.344l-2-2v-15.344a1 1 0 0 0 -1-1h-12v2h11v12.344l-7.172-7.172a1 1 0 0 0 -1.414 0l-5.037-5.041a18.769 18.769 0 0 0 3.367-8.131h8.256v-2h-8.049c.018-.333.049-.664.049-1s-.031-.667-.049-1h4.049v-2h-4.256a18.986 18.986 0 0 0 -32.179-10.435 19 19 0 0 0 13.435 32.435zm-11 20a3 3 0 0 1 -3-3v-1h43.344l3.977 3.977a3.128 3.128 0 0 1 -.321.023zm49.414-3.414a2 2 0 0 1 0 2.828 2.047 2.047 0 0 1 -2.828 0l-17.293-17.293 2.82-2.82zm-19.414-17.997-1.411 1.411-4.895-4.891c.248-.223.5-.434.741-.671s.448-.493.671-.741zm-9.806-8.4a13 13 0 1 1 3.806-9.189 12.91 12.91 0 0 1 -3.809 9.192zm1.414 1.415c.239-.238.454-.492.674-.743l1.414 1.415c-.222.249-.435.5-.672.742s-.493.45-.742.672l-1.415-1.414c.248-.216.501-.431.738-.669zm-22.629-22.625a16.995 16.995 0 0 1 25.968 21.726l-1.431-1.433a15 15 0 1 0 -4.244 4.243l1.433 1.431a17 17 0 0 1 -21.726-25.967z"/><path d="m39 2.077h6v2h-6z"/><path d="m48 7.077h7v2h-7z"/><path d="m57 7.077h2v2h-2z"/><path d="m47.807 14h6v2h-6z"/><path d="m43 11.077h2v2h-2z"/><path d="m51 22h2v2h-2z"/></g></svg>