<svg height="48" viewBox="0 0 48 48" width="48" xmlns="http://www.w3.org/2000/svg"><g id="_22-download" fill="none" stroke="#000" stroke-linejoin="round" stroke-width="2" data-name="22-download"><path d="m28 18h-6"/><path d="m10 47h31a6 6 0 0 0 6-6v-21a2 2 0 0 0 -2-2h-17c0-4-4-4-4-4h-7a2 2 0 0 0 -2 2v25.785a5.145 5.145 0 0 1 -4.509 5.192 5 5 0 0 1 -5.491-4.977v-3"/><path d="m1 9 8-8v6a2 2 0 0 1 -2 2h-2"/><path d="m15 39h-12a2 2 0 0 1 -2-2v-28l8-8h22a2 2 0 0 1 2 2v15"/><path d="m33 6h4a2 2 0 0 1 2 2v10"/><circle cx="25" cy="40" r="2"/><path d="m23 40h-4"/><path d="m27 40h16"/><circle cx="31" cy="32" r="2"/><path d="m29 32h-10"/><path d="m33 32h10"/><circle cx="37" cy="24" r="2"/><path d="m35 24h-16"/><path d="m39 24h4"/><path d="m5 31v4h4"/><path d="m5 29v-2"/></g></svg>