<svg id="Outline_1_" height="512" viewBox="0 0 512 512" width="512" xmlns="http://www.w3.org/2000/svg"><path d="m493.657 386.343c-.832-.832-20.1-19.755-61.657-34.168v-208.175h24c3.139 0 5.988-1.836 7.285-4.694s.803-6.211-1.265-8.573l-56-64c-1.519-1.737-3.713-2.733-6.02-2.733s-4.501.996-6.021 2.732l-56 64c-2.067 2.362-2.561 5.715-1.265 8.573 1.297 2.858 4.146 4.694 7.285 4.694h24v29.466l-80-32.941v-44.524h24c3.139 0 5.988-1.836 7.285-4.694s.803-6.211-1.265-8.573l-56-64c-1.518-1.737-3.712-2.733-6.019-2.733s-4.501.996-6.02 2.732l-56 64c-2.067 2.362-2.562 5.715-1.265 8.573 1.297 2.859 4.146 4.695 7.285 4.695h24v44.525l-80 32.941v-29.466h24c3.139 0 5.988-1.836 7.285-4.694s.803-6.211-1.265-8.573l-56-64c-1.518-1.737-3.713-2.733-6.02-2.733s-4.502.996-6.021 2.732l-56 64c-2.067 2.362-2.562 5.715-1.265 8.573 1.298 2.859 4.147 4.695 7.286 4.695h24v208.175c-41.556 14.412-60.824 33.336-61.657 34.168-1.64 1.641-2.488 3.911-2.323 6.225.165 2.313 1.325 4.441 3.18 5.833l27.871 20.902-14.88 66.962c-.796 3.583.949 7.249 4.232 8.891 1.14.57 2.363.845 3.574.845 2.279 0 4.518-.974 6.078-2.794.455-.533 46.66-53.207 137.925-53.207 4.419 0 8-3.582 8-8v-22.214c28.423 20.57 58.233 36.228 60.3 37.306 1.159.604 2.429.907 3.7.907s2.54-.303 3.7-.907c2.067-1.078 31.878-16.737 60.3-37.306v22.214c0 4.418 3.582 8 8 8 47.456 0 82.391 14.435 103.34 26.545 22.784 13.17 34.482 26.541 34.586 26.661 1.56 1.82 3.798 2.794 6.078 2.794 1.211 0 2.435-.274 3.574-.845 3.283-1.642 5.028-5.308 4.232-8.891l-14.88-66.962 27.87-20.902c1.855-1.392 3.016-3.52 3.18-5.833.165-2.313-.683-4.584-2.323-6.224zm-108.888-81.178c15.486 4.708 25.95 9.232 31.231 11.746v78.447c-11.452-4.863-31.125-11.953-59.09-17.71 4.027-4.576 7.453-9.161 10.036-13.68 7.082-12.393 13.022-34.498 17.823-58.803zm-8.769-177.165h-14.37l38.37-43.852 38.37 43.852h-14.37c-4.418 0-8 3.582-8 8v163.371c-6.655-2.824-16.09-6.401-28.307-10.037 7.917-45.699 12.004-93.393 12.279-96.664.292-3.476-1.701-6.739-4.926-8.067l-11.046-4.549v-44.054c0-4.418-3.582-8-8-8zm-144-48h-14.37l38.37-43.852 38.37 43.852h-14.37c-4.418 0-8 3.582-8 8v45.936l-12.954-5.334c-1.951-.803-4.141-.803-6.092 0l-12.954 5.334v-45.936c0-4.418-3.581-8-8-8zm-86.946 283.969c2.582 4.519 6.009 9.104 10.036 13.68-27.965 5.756-47.638 12.846-59.09 17.71v-78.446c5.287-2.517 15.749-7.04 31.231-11.747 4.801 24.304 10.741 46.409 17.823 58.803zm-71.424-235.969 38.37-43.852 38.37 43.852h-14.37c-4.419 0-8 3.582-8 8v44.054l-11.046 4.548c-3.225 1.328-5.218 4.592-4.926 8.067.275 3.27 4.362 50.964 12.279 96.664-12.217 3.636-21.651 7.213-28.307 10.037v-163.37c0-4.418-3.581-8-8-8zm-20.448 337.561 10.628-47.826c.682-3.067-.496-6.25-3.01-8.136l-23.839-17.879c7.804-5.724 21.977-14.642 43.039-22.536v38.816c0 2.846 1.519 5.474 3.977 6.907.66.385 1.364.66 2.086.841l-.003.013 51.251 12.813c-28.199 5.666-50.152 15.656-65.341 24.516-7.323 4.271-13.584 8.547-18.788 12.471zm122.818-43.807-63.147-15.787c12.822-4.668 31.511-10.289 55.952-14.659 2.324 2.075 4.73 4.13 7.195 6.161zm79.999 9.165c-16.1-8.773-79.905-44.88-97.053-74.888-17.415-30.478-28.029-133.247-30.445-158.88l127.499-52.5 127.5 52.5c-2.415 25.64-13.025 128.393-30.445 158.88-17.135 29.984-80.958 66.112-97.056 74.888zm87.196-39.61c24.442 4.37 43.132 9.991 55.952 14.658l-63.147 15.787v-24.284c2.464-2.031 4.871-4.086 7.195-6.161zm108.005 18.291c-2.514 1.886-3.691 5.068-3.01 8.136l10.628 47.826c-5.205-3.925-11.465-8.2-18.788-12.472-15.189-8.86-37.142-18.851-65.341-24.516l51.251-12.813-.002-.006c.719-.18 1.419-.453 2.077-.835 2.466-1.432 3.984-4.067 3.984-6.919v-38.816c21.069 7.897 35.242 16.816 43.04 22.536z"/><path d="m367.98 208.556c.244-3.506-1.829-6.761-5.108-8.022l-104-40c-1.849-.711-3.896-.711-5.744 0l-104 40c-3.28 1.262-5.352 4.517-5.108 8.022.309 4.444 7.773 109.206 25.035 139.413 17.464 30.563 80.408 65.559 83.079 67.034 1.204.665 2.535.997 3.867.997s2.664-.332 3.867-.997c2.671-1.475 65.614-36.471 83.079-67.034 17.26-30.207 24.724-134.969 25.033-139.413zm-111.981 190.256c-19.463-11.203-61.247-38.12-73.053-58.781-12.047-21.083-19.924-93.697-22.526-126.698l95.58-36.762 95.581 36.762c-2.6 32.998-10.474 105.606-22.526 126.698-11.795 20.639-53.59 47.571-73.056 58.781z"/><path d="m321.569 256.155-37.003-7.4-22.166-29.555c-1.511-2.015-3.882-3.2-6.4-3.2s-4.889 1.186-6.4 3.2l-22.166 29.555-37.003 7.4c-2.694.539-4.924 2.423-5.904 4.989-.98 2.567-.576 5.457 1.073 7.655l21.854 29.139-7.299 36.492c-.559 2.797.413 5.68 2.55 7.566 2.138 1.889 5.12 2.495 7.824 1.593l45.471-15.156 45.47 15.157c.828.275 1.682.41 2.529.41 1.922 0 3.811-.692 5.295-2.003 2.138-1.887 3.109-4.77 2.55-7.566l-7.299-36.492 21.855-29.139c1.649-2.198 2.054-5.088 1.073-7.655-.98-2.567-3.21-4.451-5.904-4.99zm-31.969 35.045c-1.366 1.82-1.891 4.137-1.445 6.369l5.296 26.482-34.921-11.641c-.821-.273-1.675-.41-2.53-.41s-1.709.137-2.53.41l-34.922 11.641 5.296-26.482c.446-2.232-.079-4.549-1.445-6.369l-16.383-21.845 27.552-5.511c1.93-.386 3.65-1.47 4.831-3.045l17.6-23.467 17.6 23.467c1.181 1.575 2.901 2.659 4.831 3.045l27.552 5.511z"/></svg>