<svg id="Layer_1" enable-background="new 0 0 512 512" viewBox="0 0 512 512" xmlns="http://www.w3.org/2000/svg"><path d="m321.63 83.58c18.23 0 33 14.77 33 33 0 18.2-14.77 33-33 33s-33-14.8-33-33c.01-18.23 14.77-33 33-33zm13.44 19.56c-11.93-11.93-32.43-3.43-32.43 13.44s20.49 25.34 32.43 13.44c7.4-7.43 7.4-19.45 0-26.88zm116.76-51.5c18.23 0 33 14.77 33 33s-14.77 33-33 33-33-14.77-33-33 14.77-33 33-33zm13.43 19.56c-11.93-11.93-32.43-3.43-32.43 13.44s20.49 25.37 32.43 13.44c7.4-7.44 7.4-19.46 0-26.88zm-117.12 121.01c-.14.06-.28.11-.45.17-7.85 2.92-15.05 6.86-21.29 11.68-13.83 10.6-23.07 25.29-24.94 41.73-.4 3.83-3.85 6.6-7.71 6.18-3.83-.43-6.58-3.88-6.18-7.71 3.17-28.29 23.44-51 49.32-62.56l-7.94-25c-1.16-3.69.88-7.63 4.56-8.79s7.63.88 8.79 4.56l7.74 24.43c21.06-6.09 44.19-5.41 64.71 1.84l18.23-57.2c1.16-3.66 5.1-5.7 8.76-4.54s5.7 5.07 4.54 8.76l-18.68 58.59c23.33 12.22 40.93 33.79 43.85 59.9.4 3.83-2.35 7.29-6.18 7.71-3.86.43-7.31-2.35-7.74-6.18-1.84-16.44-11.08-31.12-24.92-41.73-23.05-17.68-56.27-22.11-84.47-11.84zm-255.26-108.63c18.2 0 32.97 14.77 32.97 33s-14.77 33-32.97 33c-18.23 0-33-14.77-33-33s14.77-33 33-33zm13.4 19.56c-11.93-11.93-32.4-3.43-32.4 13.44s20.47 25.34 32.4 13.44c7.43-7.43 7.43-19.45 0-26.88zm-49.63 299.96h110.15l-16.64-65.17h-110.15zm131.41 0h38.92l.57-2.83v-56.72l.11-4.37c-.6-19.45-18.45-27.67-33.79-28.74l-7.14.03c-5.9 3.69-12.78 5.81-20.15 5.81-6.55 0-12.7-1.67-18.14-4.62l-14.74.45c-10.49.31-17.69 4.11-21 11.85l42.92-.03c3.34 0 6.15 2.38 6.83 5.53l14.94 58.51c3.74-5.39 9.78-8.84 16.61-8.84h6.72v-35.57c0-3.86 3.12-7 7-7 3.86 0 7 3.15 7 7v42.55c0 3.88-3.15 7-7 7h-13.72c-4.78-.01-7.69 5.4-5.94 9.99zm53.29 0h25.6l-19.53-74.72c-1.13-4.42 2.21-8.7 6.77-8.73h69c3.97-15.76 16.87-25.34 36.06-25.91l.94-.03c-17.92-27.21 1.19-64.15 33.25-64.15 31.49 0 50.68 35.8 33.93 63.07 21.12 3.15 42.15 16.02 42.94 41.95.03 1.64.03 3.23-.08 4.79v56.89c0 2.95-.62 5.75-1.76 8.31 19.93 6.72 26.31 32.2 11.14 47.4-5.19 5.19-12.36 8.39-20.24 8.39h-406.58c-25.23 0-38.32-30.76-20.21-48.87 2.83-2.83 6.26-5.07 10.09-6.55l-18.45-72.28c-1.13-4.42 2.24-8.7 6.77-8.7h67.04c4-16.04 16.67-25.23 36-25.82-17.46-27.1 1.19-63.86 32.54-63.86 30.87 0 49.55 35.66 33.22 62.79 20.81 3.23 41.02 16.16 41.81 41.75.06 1.62.03 3.2-.06 4.79v56.66c.01.96-.07 1.9-.19 2.83zm40 0h113.56l-18.14-69.45h-113.53zm137.93 0h31.69c1.47-.48 2.75-1.36 3.69-2.47.99-1.22 1.56-2.72 1.56-4.37v-56.96h.03l.11-4.31c-.6-19.73-19.25-27.84-34.75-28.94h-7.6c-6.01 3.71-13.07 5.84-20.58 5.84-6.69 0-13.01-1.67-18.57-4.65l-15.22.45c-10.74.31-18.28 4.11-21.74 11.96h44.25c3.46 0 6.32 2.49 6.92 5.78l15.36 58.85c3.77-5.61 10.06-9.24 17.12-9.24h7.12v-35.74c0-3.86 3.12-7 7-7 3.85 0 7 3.15 7 7v42.75c0 3.86-3.15 7-7 7h-14.12c-7.65-.01-9.35 11.39-2.27 14.05zm40.09 14.01h-406.58c-12.81 0-19.62 15.65-10.32 24.97 2.66 2.64 6.32 4.28 10.32 4.28h406.57c12.81 0 19.64-15.65 10.35-24.94-2.66-2.67-6.32-4.31-10.34-4.31zm-236.3-365.47c18.2 0 33 14.77 33 33s-14.8 33-33 33c-18.23 0-33-14.77-33-33s14.77-33 33-33zm13.41 19.56c-11.91-11.93-32.4-3.43-32.4 13.44s20.49 25.37 32.4 13.44c7.43-7.44 7.43-19.46 0-26.88zm-117.1 121.01c-.14.06-.31.11-.45.17-7.88 2.92-15.05 6.86-21.32 11.68-13.8 10.6-23.05 25.29-24.92 41.73-.43 3.83-3.88 6.6-7.71 6.18-3.83-.43-6.6-3.88-6.18-7.71 3.17-28.29 23.44-51 49.29-62.56l-7.91-25c-1.16-3.69.88-7.63 4.56-8.79s7.63.88 8.79 4.56l7.74 24.43c21.06-6.09 44.19-5.41 64.71 1.84l18.23-57.2c1.16-3.66 5.07-5.7 8.76-4.54 3.66 1.16 5.7 5.07 4.54 8.76l-18.68 58.59c23.33 12.22 40.9 33.79 43.82 59.9.43 3.83-2.32 7.29-6.18 7.71-3.83.43-7.29-2.35-7.71-6.18-1.87-16.41-11.11-31.12-24.92-41.73-23.03-17.68-56.26-22.11-84.46-11.84zm209.71 150.26c23.27 0 35.32 28.97 18.74 46.09-16.64 17.18-45.16 4.9-45.16-19.05 0-14.71 11.68-27.04 26.42-27.04zm8.73 17.75c-7.77-8.02-21.17-2.38-21.17 9.3s13.41 17.32 21.17 9.33c4.93-5.11 4.93-13.56 0-18.63zm74.01-108.77c-16.36-16.87-44.5-4.93-44.5 19.28 0 24.24 28.15 36.17 44.5 19.3 10.26-10.6 10.26-27.98 0-38.58zm-309.23 94.14c22.82 0 34.61 28.8 18.42 45.89-16.27 17.18-44.33 4.99-44.33-18.94 0-14.56 11.34-26.95 25.91-26.95zm8.33 17.66c-7.48-7.88-20.24-2.24-20.24 9.3s12.76 17.21 20.24 9.3c4.79-5.05 4.79-13.53 0-18.6zm73.39-107.21c-15.85-16.72-42.97-4.79-42.97 19.25 0 24.01 27.13 35.94 42.97 19.22 9.98-10.55 10.01-27.92 0-38.47z"/></svg>