<?xml version="1.0" encoding="UTF-8" standalone="no"?>
<!-- Created with Inkscape (http://www.inkscape.org/) -->

<svg
   version="1.1"
   id="svg2721"
   xml:space="preserve"
   width="682.66669"
   height="682.66669"
   viewBox="0 0 682.66669 682.66669"
   xmlns="http://www.w3.org/2000/svg"
   xmlns:svg="http://www.w3.org/2000/svg"><defs
     id="defs2725"><clipPath
       clipPathUnits="userSpaceOnUse"
       id="clipPath2735"><path
         d="M 0,512 H 512 V 0 H 0 Z"
         id="path2733" /></clipPath></defs><g
     id="g2727"
     transform="matrix(1.3333333,0,0,-1.3333333,0,682.66667)"><g
       id="g2729"><g
         id="g2731"
         clip-path="url(#clipPath2735)"><g
           id="g2737"
           transform="translate(328.145,472.4355)"><path
             d="m 0,0 h -72.145 c -5.046,0 -9.798,2.376 -12.826,6.413 l -12.024,16.032 c -4.542,6.055 -11.67,9.619 -19.239,9.619 h -76.153 c -8.854,0 -16.032,-7.177 -16.032,-16.032 v -192.387 c 0,-8.854 7.178,-16.032 16.032,-16.032 H 48.097 c 8.854,0 16.032,7.178 16.032,16.032 V -16.032 C 64.129,-7.178 56.951,0 48.097,0 H 32.064"
             style="fill:none;stroke:#000000;stroke-width:15;stroke-linecap:round;stroke-linejoin:round;stroke-miterlimit:10;stroke-dasharray:none;stroke-opacity:1"
             id="path2739" /></g><g
           id="g2741"
           transform="translate(315.4629,95.6885)"><path
             d="m 0,0 c 3.009,-7.43 4.666,-15.551 4.666,-24.06 0,-35.417 -28.711,-64.128 -64.129,-64.128 -35.417,0 -64.129,28.711 -64.129,64.128 0,35.418 28.712,64.13 64.129,64.13 15.163,0 29.096,-5.262 40.074,-14.06"
             style="fill:none;stroke:#000000;stroke-width:15;stroke-linecap:round;stroke-linejoin:round;stroke-miterlimit:10;stroke-dasharray:none;stroke-opacity:1"
             id="path2743" /></g><g
           id="g2745"
           transform="translate(272.0322,87.6611)"><path
             d="m 0,0 c 0,-8.854 -7.178,-16.032 -16.032,-16.032 -8.855,0 -16.032,7.178 -16.032,16.032 0,8.854 7.177,16.032 16.032,16.032 C -7.178,16.032 0,8.854 0,0 Z"
             style="fill:none;stroke:#000000;stroke-width:15;stroke-linecap:round;stroke-linejoin:round;stroke-miterlimit:10;stroke-dasharray:none;stroke-opacity:1"
             id="path2747" /></g><g
           id="g2749"
           transform="translate(288.0645,17.7705)"><path
             d="M 0,0 V 13.778 C 0,22.632 -7.178,29.81 -16.032,29.81 h -32.065 c -8.854,0 -16.032,-7.178 -16.032,-16.032 V 0"
             style="fill:none;stroke:#000000;stroke-width:15;stroke-linecap:round;stroke-linejoin:round;stroke-miterlimit:10;stroke-dasharray:none;stroke-opacity:1"
             id="path2751" /></g><g
           id="g2753"
           transform="translate(135.7583,71.6289)"><path
             d="m 0,0 c 0,-35.417 -28.712,-64.129 -64.129,-64.129 -35.418,0 -64.129,28.712 -64.129,64.129 0,35.417 28.711,64.129 64.129,64.129 C -28.712,64.129 0,35.417 0,0 Z"
             style="fill:none;stroke:#000000;stroke-width:15;stroke-linecap:round;stroke-linejoin:round;stroke-miterlimit:10;stroke-dasharray:none;stroke-opacity:1"
             id="path2755" /></g><g
           id="g2757"
           transform="translate(87.6611,87.6611)"><path
             d="m 0,0 c 0,-8.854 -7.178,-16.032 -16.032,-16.032 -8.854,0 -16.032,7.178 -16.032,16.032 0,8.854 7.178,16.032 16.032,16.032 C -7.178,16.032 0,8.854 0,0 Z"
             style="fill:none;stroke:#000000;stroke-width:15;stroke-linecap:round;stroke-linejoin:round;stroke-miterlimit:10;stroke-dasharray:none;stroke-opacity:1"
             id="path2759" /></g><g
           id="g2761"
           transform="translate(103.6934,17.7705)"><path
             d="M 0,0 V 13.778 C 0,22.632 -7.178,29.81 -16.032,29.81 h -32.065 c -8.854,0 -16.032,-7.178 -16.032,-16.032 V 0"
             style="fill:none;stroke:#000000;stroke-width:15;stroke-linecap:round;stroke-linejoin:round;stroke-miterlimit:10;stroke-dasharray:none;stroke-opacity:1"
             id="path2763" /></g><g
           id="g2765"
           transform="translate(504.5,71.6289)"><path
             d="m 0,0 c 0,-35.417 -28.711,-64.129 -64.129,-64.129 -35.417,0 -64.129,28.712 -64.129,64.129 0,35.417 28.712,64.129 64.129,64.129 C -28.711,64.129 0,35.417 0,0 Z"
             style="fill:none;stroke:#000000;stroke-width:15;stroke-linecap:round;stroke-linejoin:round;stroke-miterlimit:10;stroke-dasharray:none;stroke-opacity:1"
             id="path2767" /></g><g
           id="g2769"
           transform="translate(456.4033,87.6611)"><path
             d="m 0,0 c 0,-8.854 -7.178,-16.032 -16.032,-16.032 -8.855,0 -16.032,7.178 -16.032,16.032 0,8.854 7.177,16.032 16.032,16.032 C -7.178,16.032 0,8.854 0,0 Z"
             style="fill:none;stroke:#000000;stroke-width:15;stroke-linecap:round;stroke-linejoin:round;stroke-miterlimit:10;stroke-dasharray:none;stroke-opacity:1"
             id="path2771" /></g><g
           id="g2773"
           transform="translate(472.4355,17.7705)"><path
             d="M 0,0 V 13.778 C 0,22.632 -7.178,29.81 -16.032,29.81 h -32.065 c -8.854,0 -16.032,-7.178 -16.032,-16.032 V 0"
             style="fill:none;stroke:#000000;stroke-width:15;stroke-linecap:round;stroke-linejoin:round;stroke-miterlimit:10;stroke-dasharray:none;stroke-opacity:1"
             id="path2775" /></g><g
           id="g2777"
           transform="translate(231.9526,199.8872)"><path
             d="m 0,0 h 184.37 c 13.281,0 24.048,-10.767 24.048,-24.048 v -40.081"
             style="fill:none;stroke:#000000;stroke-width:15;stroke-linecap:round;stroke-linejoin:round;stroke-miterlimit:10;stroke-dasharray:none;stroke-opacity:1"
             id="path2779" /></g><g
           id="g2781"
           transform="translate(71.6289,135.7583)"><path
             d="m 0,0 v 40.081 c 0,13.281 10.767,24.048 24.048,24.048 h 104.21"
             style="fill:none;stroke:#000000;stroke-width:15;stroke-linecap:round;stroke-linejoin:round;stroke-miterlimit:10;stroke-dasharray:none;stroke-opacity:1"
             id="path2783" /></g><g
           id="g2785"
           transform="translate(256,280.0483)"><path
             d="M 0,0 V -144.29"
             style="fill:none;stroke:#000000;stroke-width:15;stroke-linecap:round;stroke-linejoin:round;stroke-miterlimit:10;stroke-dasharray:none;stroke-opacity:1"
             id="path2787" /></g><g
           id="g2789"
           transform="translate(223.9355,344.1772)"><path
             d="m 0,0 h -16.032 c -17.709,0 -32.065,14.356 -32.065,32.064 v 10e-4 c 0,17.708 14.356,32.064 32.065,32.064 H 0 c 17.708,0 32.064,-14.356 32.064,-32.064 V 32.064 C 32.064,14.356 17.708,0 0,0 Z"
             style="fill:none;stroke:#000000;stroke-width:15;stroke-linecap:round;stroke-linejoin:round;stroke-miterlimit:10;stroke-dasharray:none;stroke-opacity:1"
             id="path2791" /></g><g
           id="g2793"
           transform="translate(304.0967,344.1772)"><path
             d="m 0,0 h -16.032 c -17.709,0 -32.065,14.356 -32.065,32.064 v 10e-4 c 0,17.708 14.356,32.064 32.065,32.064 H 0 c 17.709,0 32.064,-14.356 32.064,-32.064 V 32.064 C 32.064,14.356 17.709,0 0,0 Z"
             style="fill:none;stroke:#000000;stroke-width:15;stroke-linecap:round;stroke-linejoin:round;stroke-miterlimit:10;stroke-dasharray:none;stroke-opacity:1"
             id="path2795" /></g><g
           id="g2797"
           transform="translate(215.9194,376.2417)"><path
             d="M 0,0 H 80.161"
             style="fill:none;stroke:#000000;stroke-width:15;stroke-linecap:round;stroke-linejoin:round;stroke-miterlimit:10;stroke-dasharray:none;stroke-opacity:1"
             id="path2799" /></g></g></g></g></svg>
