<svg id="Layer_5" enable-background="new 0 0 62 62" height="512" viewBox="0 0 62 62" width="512" xmlns="http://www.w3.org/2000/svg"><g><path d="m57 40h-12.76c-1.945-3.67-5.326-6.343-9.24-7.442v-4.558h14c4.962 0 9-4.038 9-9 0-4.825-3.817-8.776-8.59-8.991-1.753-5.933-7.157-10.009-13.41-10.009-5.496 0-10.388 3.148-12.683 8.089-4.556-.617-8.888 2.025-10.57 6.131-.568-.146-1.152-.22-1.747-.22-3.86 0-7 3.14-7 7s3.14 7 7 7h16v4.558c-3.914 1.099-7.295 3.772-9.24 7.442h-12.76c-2.757 0-5 2.243-5 5v4c0 2.757 2.243 5 5 5h12.76c2.585 4.877 7.709 8 13.24 8s10.655-3.123 13.24-8h12.76c2.757 0 5-2.243 5-5v-4c0-2.757-2.243-5-5-5zm-22-28h4v2h-2v6h2v2h-4zm-24 14c-2.757 0-5-2.243-5-5s2.243-5 5-5c.682 0 1.345.136 1.969.404l1.039.446.316-1.086c1.144-3.934 5.218-6.483 9.386-5.576l.829.181.313-.789c1.828-4.605 6.204-7.58 11.148-7.58 5.591 0 10.39 3.802 11.669 9.247l.19.807.982-.046c.053-.004.105-.008.159-.008 3.86 0 7 3.14 7 7s-3.14 7-7 7h-14v-2h4c1.103 0 2-.897 2-2v-2c0-1.103-.897-2-2-2v-2c1.103 0 2-.897 2-2v-2c0-1.103-.897-2-2-2h-4v-1c0-1.103-.897-2-2-2h-4c-1.103 0-2 .897-2 2v17zm18-17h4v23.141c-.658-.091-1.326-.141-2-.141s-1.342.05-2 .141zm2 25c4.43 0 8.559 2.312 10.93 6h-2.482c-2.101-2.54-5.143-4-8.448-4s-6.347 1.46-8.448 4h-2.482c2.371-3.688 6.5-6 10.93-6zm5.64 6h-11.28c1.581-1.285 3.548-2 5.64-2s4.058.715 5.64 2zm-5.64 20c-4.43 0-8.559-2.312-10.93-6h2.482c2.101 2.54 5.143 4 8.448 4s6.347-1.46 8.448-4h2.482c-2.371 3.688-6.5 6-10.93 6zm-5.64-6h11.28c-1.581 1.285-3.548 2-5.64 2s-4.058-.715-5.64-2zm34.64-5c0 1.654-1.346 3-3 3h-52c-1.654 0-3-1.346-3-3v-4c0-1.654 1.346-3 3-3h52c1.654 0 3 1.346 3 3z"/><path d="m10 44h2v2h-2z"/><path d="m10 48h2v2h-2z"/><path d="m12 46h2v2h-2z"/><path d="m8 46h2v2h-2z"/><path d="m20 44h2v2h-2z"/><path d="m20 48h2v2h-2z"/><path d="m22 46h2v2h-2z"/><path d="m18 46h2v2h-2z"/><path d="m30 44h2v2h-2z"/><path d="m30 48h2v2h-2z"/><path d="m32 46h2v2h-2z"/><path d="m28 46h2v2h-2z"/><path d="m40 44h2v2h-2z"/><path d="m40 48h2v2h-2z"/><path d="m42 46h2v2h-2z"/><path d="m38 46h2v2h-2z"/><path d="m50 44h2v2h-2z"/><path d="m50 48h2v2h-2z"/><path d="m52 46h2v2h-2z"/><path d="m48 46h2v2h-2z"/><path d="m47.464 58.536-1.414 1.414c1.365 1.365 3.157 2.047 4.95 2.047s3.585-.682 4.95-2.047l-1.414-1.414c-1.95 1.949-5.122 1.949-7.072 0z"/><path d="m53.122 57.121-1.415-1.414c-.377.378-1.036.378-1.413 0l-1.415 1.414c.566.567 1.32.879 2.121.879s1.555-.312 2.122-.879z"/><path d="m15.95 34.05c-2.729-2.729-7.17-2.729-9.899 0l1.414 1.414c1.949-1.949 5.122-1.949 7.071 0z"/><path d="m8.878 36.879 1.415 1.414c.377-.378 1.036-.378 1.413 0l1.415-1.414c-1.133-1.134-3.109-1.134-4.243 0z"/><path d="m8 21h2c0-.551.449-1 1-1v-2c-1.654 0-3 1.346-3 3z"/><path d="m54 19h-2c0 1.654-1.346 3-3 3v2c2.757 0 5-2.243 5-5z"/></g></svg>