<?xml version="1.0" encoding="UTF-8"?>
<svg id="Capa_1" xmlns="http://www.w3.org/2000/svg" version="1.1" viewBox="0 0 512 512">
  <!-- Generator: Adobe Illustrator 29.8.2, SVG Export Plug-In . SVG Version: 2.1.1 Build 3)  -->
  <rect x="73.98" y="112.36" width="41.09" height="13.79"/>
  <rect x="106.34" y="190.48" width="41.09" height="13.79" transform="translate(-102.4 147.53) rotate(-45)"/>
  <rect x="119.99" y="20.59" width="13.79" height="41.09" transform="translate(8.08 101.77) rotate(-45)"/>
  <rect x="396.92" y="112.36" width="41.09" height="13.79"/>
  <rect x="378.21" y="176.83" width="13.79" height="41.09" transform="translate(-26.77 330.12) rotate(-45)"/>
  <rect x="364.56" y="34.24" width="41.09" height="13.79" transform="translate(83.71 284.36) rotate(-45)"/>
  <path d="M439.68,327.99h-5c11.28-10.02,18.41-24.62,18.41-40.86,0-30.14-24.52-54.65-54.65-54.65s-54.65,24.52-54.65,54.65c0,16.24,7.13,30.84,18.41,40.86h-5c-2.35,0-4.69.17-7.01.49-8.45-17.08-26.05-28.86-46.36-28.86h-11.55v-10.84c6.99-.85,12.42-6.81,12.42-14.03v-44.95c0-17.51,6.92-34.52,18.98-46.67,17.84-17.98,27.66-41.83,27.66-67.15,0-52.58-42.77-95.35-95.35-95.35-.45,0-.9,0-1.36.01-24.91.35-48.39,10.33-66.11,28.12-17.72,17.79-27.62,41.3-27.88,66.21-.27,25.79,9.61,50.05,27.81,68.31,11.97,12.01,18.83,28.96,18.83,46.53v44.95c0,7.22,5.44,13.18,12.42,14.03v10.84h-11.55c-19.81,0-37.76,11.38-46.37,28.85-2.31-.31-4.65-.48-6.99-.48h-5c11.28-10.02,18.41-24.62,18.41-40.86,0-30.14-24.52-54.65-54.65-54.65s-54.65,24.52-54.65,54.65c0,16.24,7.13,30.84,18.41,40.86h-5c-28.5,0-51.69,23.19-51.69,51.69v111.68h470.74v-111.68c0-28.5-23.19-51.69-51.69-51.69ZM72.7,287.13c0-22.53,18.33-40.86,40.86-40.86s40.86,18.33,40.86,40.86-18.33,40.86-40.86,40.86-40.86-18.33-40.86-40.86ZM130.32,341.79l-16.76,34.15-16.76-34.15h33.51ZM157.3,342.17c-.08.44-.15.88-.21,1.33-.05.31-.1.63-.14.94-.06.46-.11.92-.16,1.39-.03.3-.07.59-.1.89-.05.51-.08,1.02-.11,1.54-.01.25-.04.5-.05.76-.03.77-.05,1.53-.05,2.3v126.26h-85.76v-92.82h-13.79v92.82h-22.51v-97.89c0-20.9,17-37.9,37.9-37.9h9.12l25.22,51.41v8.21h13.79v-8.21l25.22-51.41h9.12c.85,0,1.7.03,2.54.08-.02.1-.03.2-.05.3ZM198.23,173.55c-15.57-15.62-24.02-36.37-23.79-58.43.46-43.88,36.52-80.07,80.39-80.68.39,0,.78,0,1.17,0,44.97,0,81.56,36.59,81.56,81.56,0,21.66-8.4,42.06-23.66,57.44-13.01,13.11-21.07,30.85-22.68,49.49h-28.32s0-80.58,0-80.58c9.24-2.93,15.95-11.59,15.95-21.78,0-12.6-10.25-22.85-22.85-22.85s-22.85,10.25-22.85,22.85c0,10.2,6.71,18.85,15.95,21.78v80.58h-28.31c-1.6-18.69-9.62-36.38-22.56-49.36ZM285.01,313.42h0s-29.01,59.12-29.01,59.12l-29.01-59.12h58.01ZM233.51,299.63v-10.73h44.98v10.73h-44.98ZM221.43,275.11h0c-.19,0-.35-.16-.35-.35v-11.86h69.83v11.86c0,.19-.16.35-.35.35h-69.13ZM290.91,236.71v12.4h-69.83v-12.4h69.83ZM246.94,120.55c0-4.99,4.06-9.06,9.06-9.06s9.06,4.06,9.06,9.06-4.06,9.06-9.06,9.06-9.06-4.06-9.06-9.06ZM341.73,477.58h-25.29v-117.37h-13.79v117.37h-93.3v-117.37h-13.79v117.37h-25.29v-126.26c0-.54.01-1.09.03-1.63.05-1.08.14-2.16.27-3.23.34-2.67.97-5.3,1.88-7.85,5.36-15.07,19.71-25.19,35.71-25.19h3.46l37.47,76.38v48.83h13.79v-48.83l37.47-76.38h3.46c16.9,0,31.25,11.12,36.12,26.43.03.08.06.16.08.24.17.56.33,1.13.48,1.7.04.16.07.31.11.47.1.41.2.83.29,1.24.05.21.08.43.13.65.07.37.14.73.2,1.11.04.23.07.46.1.69.05.37.1.74.14,1.11.03.23.05.45.07.68.04.4.07.8.09,1.21.01.2.03.39.04.59.03.6.05,1.2.05,1.8v126.26h0ZM357.58,287.13c0-22.53,18.33-40.86,40.86-40.86s40.86,18.33,40.86,40.86-18.33,40.86-40.86,40.86-40.86-18.33-40.86-40.86ZM415.2,341.79l-16.76,34.15-16.76-34.15h33.51ZM477.58,477.58h-22.51v-92.82h-13.79v92.82h-85.76v-126.26c0-.84-.02-1.69-.06-2.53-.01-.29-.04-.58-.06-.87-.04-.54-.07-1.09-.12-1.63-.03-.35-.08-.7-.12-1.04-.06-.47-.11-.95-.18-1.42-.06-.38-.12-.75-.18-1.13-.05-.28-.08-.56-.13-.83.84-.06,1.69-.08,2.54-.08h9.12l25.22,51.41v8.21h13.79v-8.21l25.22-51.41h9.12c20.9,0,37.9,17,37.9,37.9v97.89h0Z"/>
  <path d="M194.86,115.95c0-.87.02-1.73.05-2.58l-13.78-.57c-.04,1.05-.07,2.11-.07,3.16,0,19.94,7.74,38.7,21.8,52.84l9.78-9.72c-11.47-11.53-17.79-26.85-17.79-43.11Z"/>
  <path d="M328.26,96.04l-13.3,3.66c1.36,4.94,2.09,10.08,2.17,15.25l13.79-.22c-.1-6.34-1-12.62-2.67-18.69Z"/>
  <path d="M284.71,46.72l-5.29,12.74c14.66,6.08,26.63,17.95,32.85,32.55l12.69-5.41c-7.62-17.89-22.29-32.42-40.25-39.88Z"/>
  <rect x="391.54" y="412.72" width="13.79" height="14.65"/>
  <rect x="391.54" y="437.71" width="13.79" height="14.65"/>
  <rect x="106.67" y="412.72" width="13.79" height="14.65"/>
  <rect x="106.67" y="437.71" width="13.79" height="14.65"/>
</svg>