<?xml version="1.0" encoding="UTF-8"?>
<svg id="Layer_1" xmlns="http://www.w3.org/2000/svg" version="1.1" viewBox="0 0 110 135">
  <!-- Generator: Adobe Illustrator 29.8.2, SVG Export Plug-In . SVG Version: 2.1.1 Build 3)  -->
  <defs>
    <style>
      .st0 {
        stroke: #000;
        stroke-miterlimit: 10;
        stroke-width: .5px;
      }
    </style>
  </defs>
  <path class="st0" d="M99,81.41l-3.63-.63c-.31-.05-.52-.23-.62-.53-.23-.65-.5-1.29-.79-1.91-.13-.29-.11-.56.07-.82l2.12-3.02c.97-1.38.81-3.26-.38-4.45l-3.34-3.34c-1.2-1.2-3.07-1.36-4.45-.38l-3.01,2.12c-.26.18-.54.21-.83.07-.65-.31-1.27-.57-1.91-.79-.3-.11-.47-.32-.52-.63l-.63-3.62c-.29-1.67-1.72-2.88-3.42-2.88h-1.04v-24.07c-.01-.73-.61-1.33-1.34-1.33h-15.03c-.73,0-1.33.59-1.33,1.33v29.61c-.28.16-.54.35-.78.59l-3.34,3.34c-1.2,1.2-1.36,3.07-.38,4.45l2.12,3.01c.18.26.21.54.07.82-.3.62-.56,1.26-.79,1.9-.11.3-.32.48-.63.53l-1.83.32v-32.91c0-.73-.59-1.33-1.33-1.33h-15.03c-.73,0-1.33.59-1.33,1.33v37.69h-5.57s0-26.01,0-26.01c0-.73-.59-1.33-1.33-1.33h-15.03c-.73,0-1.33.59-1.33,1.33v26.02h-2.93c-.73,0-1.33.59-1.33,1.33s.59,1.33,1.33,1.33h39.2v1.04c0,1.7,1.21,3.13,2.88,3.42l3.63.63c.31.05.52.23.62.52.22.63.48,1.26.79,1.92.14.28.11.56-.07.82l-2.12,3.01c-.98,1.38-.82,3.26.38,4.45l3.35,3.36c1.2,1.2,3.06,1.36,4.45.38l3.01-2.12c.26-.18.54-.21.82-.07.62.3,1.26.56,1.9.79.3.11.48.32.53.63l.63,3.63c.29,1.66,1.73,2.88,3.42,2.88h4.73c1.7,0,3.13-1.21,3.42-2.88l.63-3.63c.05-.31.23-.52.52-.62.63-.22,1.26-.48,1.92-.79.29-.14.56-.11.82.07l3.02,2.12c1.38.97,3.26.81,4.45-.38l3.34-3.34c1.2-1.2,1.36-3.06.38-4.45l-2.12-3.01c-.18-.26-.21-.54-.07-.83.31-.66.57-1.28.79-1.91.11-.3.32-.48.63-.53l3.62-.63c1.67-.29,2.88-1.72,2.88-3.42v-4.73c0-1.7-1.21-3.13-2.88-3.43h0ZM73.94,37.84v22.74h-1.04c-1.69,0-3.13,1.21-3.42,2.88l-.63,3.63c-.05.31-.23.52-.53.63-.65.23-1.29.49-1.91.79-.28.14-.56.11-.82-.07l-3.01-2.12c-.32-.22-.66-.39-1.02-.49v-27.99h12.38ZM15.04,85.87v-24.69h12.38v24.69h-12.38ZM38.3,85.87v-36.36h12.38v32.16c-1.21.55-2.03,1.77-2.03,3.16v1.04h-10.35ZM99.22,89.57c0,.4-.27.73-.68.8l-3.63.63c-1.25.21-2.25,1.05-2.68,2.26-.19.55-.41,1.09-.68,1.65-.55,1.14-.44,2.45.29,3.5l2.12,3.01c.23.33.2.77-.09,1.05l-3.34,3.34c-.29.29-.71.32-1.05.09l-3.02-2.12c-1.04-.73-2.35-.84-3.49-.3-.57.27-1.11.49-1.67.69-1.2.43-2.03,1.43-2.25,2.67l-.63,3.64c-.07.39-.39.67-.8.67h-4.73c-.4,0-.73-.28-.8-.67l-.63-3.63c-.21-1.25-1.05-2.25-2.26-2.68-.56-.2-1.12-.43-1.65-.68-.48-.23-.99-.34-1.5-.34-.7,0-1.39.21-2,.64l-3.01,2.12c-.33.23-.77.2-1.05-.09l-3.34-3.34c-.29-.29-.32-.71-.09-1.05l2.12-3.02c.73-1.04.84-2.35.3-3.49-.27-.57-.49-1.11-.69-1.67-.43-1.2-1.43-2.03-2.68-2.25l-3.63-.63c-.4-.07-.68-.39-.68-.8v-4.73c0-.4.28-.73.68-.8l3.63-.63c1.25-.21,2.25-1.05,2.68-2.26.2-.56.43-1.12.68-1.65.55-1.15.44-2.45-.3-3.49l-2.12-3.02c-.23-.33-.2-.76.09-1.04l3.34-3.34c.29-.29.71-.32,1.05-.09l3.02,2.12c1.04.73,2.35.84,3.49.3.54-.26,1.09-.49,1.66-.69,1.2-.43,2.04-1.43,2.25-2.68l.63-3.62c.07-.4.4-.68.8-.68h4.73c.4,0,.73.28.8.68l.63,3.62c.21,1.25,1.05,2.25,2.25,2.68,0,0,0,0,0,0,.55.19,1.09.41,1.65.68,1.14.55,2.45.44,3.5-.29l3.02-2.12c.33-.23.76-.2,1.04.09l3.34,3.34c.29.29.32.71.09,1.05l-2.12,3.02c-.73,1.04-.84,2.35-.3,3.49.26.54.49,1.09.69,1.66.43,1.2,1.43,2.04,2.68,2.25l3.62.63c.4.07.68.4.68.8v4.72Z"/>
  <path class="st0" d="M75.27,73.64c-7.48,0-13.56,6.09-13.56,13.56s6.09,13.56,13.56,13.56,13.56-6.09,13.56-13.56-6.08-13.56-13.56-13.56ZM75.27,98.1c-6.02,0-10.91-4.89-10.91-10.91s4.89-10.91,10.91-10.91,10.91,4.89,10.91,10.91-4.89,10.91-10.91,10.91Z"/>
  <path class="st0" d="M80.31,37.84h4.12v24.13c0,.73.59,1.33,1.33,1.33h9.34c.73,0,1.33-.59,1.33-1.33v-24.12h4.12c.5,0,.96-.28,1.18-.73.23-.45.19-.98-.11-1.38l-10.12-13.99c-.25-.34-.65-.55-1.08-.55s-.83.2-1.08.55l-10.11,13.99c-.29.4-.34.94-.11,1.38.23.45.68.73,1.18.73h0ZM90.43,24.79l7.52,10.4h-2.84c-.73,0-1.33.59-1.33,1.33v24.12h-6.69v-24.12c0-.73-.59-1.33-1.33-1.33h-2.84l7.52-10.4Z"/>
  <path class="st0" d="M83.27,83.39s0-.04,0-.06c0-.02,0-.05,0-.07,0-.02,0-.05-.02-.07s0-.04-.02-.06c0-.02-.02-.04-.02-.06l-.02-.06s-.02-.04-.03-.06c0-.02-.02-.04-.03-.06,0-.02-.02-.04-.03-.05-.01-.02-.02-.04-.04-.05-.02-.02-.03-.04-.04-.06-.01-.02-.02-.03-.03-.05-.05-.07-.12-.13-.19-.19-.02-.02-.03-.02-.05-.04-.02-.02-.04-.03-.05-.04-.02-.02-.04-.02-.06-.04-.02,0-.03-.02-.05-.03-.02-.01-.04-.02-.07-.03-.02,0-.04-.02-.05-.02-.02,0-.04-.02-.07-.02-.02,0-.04-.02-.05-.02-.02,0-.05-.01-.07-.02-.02,0-.04,0-.06-.02-.03,0-.05,0-.08-.01-.02,0-.03,0-.05,0-.05,0-.09,0-.13,0h-3.69c-.73,0-1.33.59-1.33,1.33s.59,1.33,1.33,1.33h.48l-2.48,2.48-2.06-2.07c-.25-.25-.59-.39-.94-.39s-.69.14-.94.39l-4.68,4.68c-.52.52-.52,1.36,0,1.88.26.26.6.39.94.39s.68-.13.94-.39l3.73-3.74,2.06,2.06c.25.25.59.39.94.39s.69-.14.94-.39l3.42-3.42v.48c0,.73.59,1.33,1.33,1.33s1.33-.59,1.33-1.33v-3.69s0-.09,0-.13h0Z"/>
</svg>