<?xml version="1.0" encoding="UTF-8"?>
<svg id="Layer_1" xmlns="http://www.w3.org/2000/svg" version="1.1" viewBox="0 0 491.5 614.38">
  <!-- Generator: Adobe Illustrator 29.8.2, SVG Export Plug-In . SVG Version: 2.1.1 Build 3)  -->
  <defs>
    <style>
      .st0 {
        fill-rule: evenodd;
        stroke: #000;
        stroke-miterlimit: 10;
        stroke-width: 2px;
      }
    </style>
  </defs>
  <path class="st0" d="M38.35,485.04h415V129.44H38.35v355.6h0ZM458.05,494.44H33.55c-2.6,0-4.7-2.1-4.7-4.7V124.64c0-2.6,2.1-4.7,4.7-4.7h424.4c2.6,0,4.7,2.1,4.7,4.7v365.1c.1,2.6-2,4.7-4.6,4.7h0Z"/>
  <path class="st0" d="M458.05,196.84H33.55c-2.6,0-4.7-2.1-4.7-4.7s2.1-4.7,4.7-4.7h424.4c2.6,0,4.7,2.1,4.7,4.7.1,2.6-2,4.7-4.6,4.7h0Z"/>
  <path class="st0" d="M390.25,150.64c-1.5,0-2.8,1.3-2.8,2.8v10c0,1.5,1.3,2.8,2.8,2.8h27.5c1.5,0,2.8-1.3,2.8-2.8v-10c0-1.5-1.3-2.8-2.8-2.8h-27.5ZM417.75,175.64h-27.5c-6.8,0-12.2-5.5-12.2-12.2v-10c0-6.8,5.5-12.2,12.2-12.2h27.5c6.8,0,12.2,5.5,12.2,12.2v10c.1,6.7-5.4,12.2-12.2,12.2h0Z"/>
  <path class="st0" d="M320.25,150.64c-1.5,0-2.8,1.3-2.8,2.8v10c0,1.5,1.3,2.8,2.8,2.8h27.5c1.5,0,2.8-1.3,2.8-2.8v-10c0-1.5-1.3-2.8-2.8-2.8h-27.5ZM347.75,175.64h-27.5c-6.8,0-12.2-5.5-12.2-12.2v-10c0-6.8,5.5-12.2,12.2-12.2h27.5c6.8,0,12.2,5.5,12.2,12.2v10c.1,6.7-5.4,12.2-12.2,12.2h0Z"/>
  <path class="st0" d="M250.25,150.64c-1.5,0-2.8,1.3-2.8,2.8v10c0,1.5,1.3,2.8,2.8,2.8h27.5c1.5,0,2.8-1.3,2.8-2.8v-10c0-1.5-1.3-2.8-2.8-2.8h-27.5ZM277.75,175.64h-27.5c-6.7,0-12.2-5.5-12.2-12.2v-10c0-6.8,5.5-12.2,12.2-12.2h27.5c6.8,0,12.2,5.5,12.2,12.2v10c.1,6.7-5.4,12.2-12.2,12.2h0Z"/>
  <path class="st0" d="M122.65,285.44c-14.2,0-26.6,10.6-28.8,24.6-.3,2.1-2,3.7-4.1,4-14.4,1.9-25.3,14.3-25.3,28.9,0,16.1,13.1,29.1,29.1,29.1h125.4c18.5,0,33.6-15.1,33.6-33.6s-15.1-33.6-33.6-33.6c-3,0-6,.4-8.8,1.2-1.7.5-3.5-.1-4.7-1.3-1.2-1.3-1.6-3.1-1-4.8,3.6-10.4,2-21.5-4.4-30.6-6.4-9-16.4-14.1-27.4-14.1-16.5,0-30.8,12.3-33.3,28.6-.2,1.4-1.1,2.7-2.3,3.4s-2.7.8-4.1.3c-3.1-1.5-6.7-2.1-10.3-2.1h0ZM219.05,381.44h-125.4c-21.3,0-38.6-17.3-38.6-38.6,0-18.1,12.7-33.8,30.1-37.7,4.2-17.1,19.5-29.3,37.5-29.3,2.9,0,5.8.3,8.6,1,5.2-18.2,22.1-31.4,41.5-31.4,14.1,0,26.9,6.6,35.1,18.1,6.6,9.3,9.2,20.7,7.5,31.7,1.2-.1,2.5-.2,3.7-.2,23.8,0,43.1,19.3,43.1,43.1.1,24-19.3,43.3-43.1,43.3h0Z"/>
  <path class="st0" d="M90.15,309.84c-1.3,0-2.6-.5-3.5-1.6-7.1-8-11-18.4-11-29.1,0-24.2,19.7-43.9,43.9-43.9,14.3,0,27.7,7,36,18.7,1.5,2.1,1,5.1-1.1,6.6s-5.1,1-6.6-1.2c-6.5-9.2-17-14.7-28.2-14.7-19,0-34.5,15.5-34.5,34.5,0,8.4,3.1,16.5,8.6,22.8,1.7,2,1.5,5-.4,6.7-1,.8-2.1,1.2-3.2,1.2h0Z"/>
  <path class="st0" d="M119.55,231.14c-2.6,0-4.7-2.1-4.7-4.7v-9.2c0-2.6,2.1-4.7,4.7-4.7s4.7,2.1,4.7,4.7v9.2c0,2.6-2.1,4.7-4.7,4.7h0Z"/>
  <path class="st0" d="M145.85,238.24c-.8,0-1.6-.2-2.4-.6-2.3-1.3-3-4.2-1.7-6.5l4.6-7.9c1.3-2.3,4.2-3,6.5-1.7s3,4.2,1.7,6.5l-4.6,7.9c-.8,1.4-2.4,2.3-4.1,2.3h0Z"/>
  <path class="st0" d="M66.75,283.94h-9.2c-2.6,0-4.7-2.1-4.7-4.7s2.1-4.7,4.7-4.7h9.2c2.6,0,4.7,2.1,4.7,4.7.1,2.6-2.1,4.7-4.7,4.7Z"/>
  <path class="st0" d="M73.85,257.54c-.8,0-1.6-.2-2.4-.6l-7.9-4.6c-2.3-1.3-3-4.2-1.7-6.5s4.2-3,6.5-1.7l7.9,4.6c2.3,1.3,3,4.2,1.7,6.5-.9,1.5-2.5,2.3-4.1,2.3h0Z"/>
  <path class="st0" d="M93.15,238.24c-1.6,0-3.2-.8-4.1-2.4l-4.6-7.9c-1.3-2.3-.5-5.2,1.7-6.5,2.3-1.3,5.2-.5,6.5,1.7l4.6,7.9c1.3,2.3.5,5.2-1.7,6.5-.8.5-1.6.7-2.4.7h0Z"/>
  <path class="st0" d="M170.65,446.44h-13.2c-2.6,0-4.7-2.1-4.7-4.7s2.1-4.7,4.7-4.7h13.2c.4,0,.8-.4.8-.8v-11.8c0-.4-.4-.8-.8-.8h-13.2c-2.6,0-4.7-2.1-4.7-4.7s2.1-4.7,4.7-4.7h13.2c5.7,0,10.3,4.6,10.3,10.3v11.8c0,5.5-4.6,10.1-10.3,10.1h0Z"/>
  <path class="st0" d="M170.65,469.34h-13.2c-2.6,0-4.7-2.1-4.7-4.7s2.1-4.7,4.7-4.7h13.2c.4,0,.8-.4.8-.8v-11.8c0-.4-.4-.8-.8-.8h-13.2c-2.6,0-4.7-2.1-4.7-4.7s2.1-4.7,4.7-4.7h13.2c5.7,0,10.3,4.6,10.3,10.3v11.8c0,5.5-4.6,10.1-10.3,10.1h0Z"/>
  <path class="st0" d="M205.75,469.34h-13.2c-2.6,0-4.7-2.1-4.7-4.7s2.1-4.7,4.7-4.7h13.2c.4,0,.8-.4.8-.8v-11.8c0-.4-.4-.8-.8-.8-2.6,0-4.7-2.1-4.7-4.7s2.1-4.7,4.7-4.7c5.7,0,10.3,4.6,10.3,10.3v11.8c0,5.5-4.6,10.1-10.3,10.1Z"/>
  <path class="st0" d="M205.75,446.44h-7.6c-5.7,0-10.3-4.6-10.3-10.3v-11.8c0-5.7,4.6-10.3,10.3-10.3h13.2c2.6,0,4.7,2.1,4.7,4.7s-2.1,4.7-4.7,4.7h-13.2c-.4,0-.8.4-.8.8v11.8c0,.4.4.8.8.8h7.6c2.6,0,4.7,2.1,4.7,4.7,0,2.8-2.1,4.9-4.7,4.9h0Z"/>
  <path class="st0" d="M232.55,405.64c-2.5,0-4.5,2-4.5,4.5s2,4.5,4.5,4.5,4.5-2,4.5-4.5-2-4.5-4.5-4.5ZM232.55,424.14c-7.7,0-14-6.3-14-14s6.3-14,14-14,14,6.3,14,14-6.3,14-14,14Z"/>
  <path class="st0" d="M136.15,423.74h-62.9c-2.6,0-4.7-2.1-4.7-4.7s2.1-4.7,4.7-4.7h62.9c2.6,0,4.7,2.1,4.7,4.7.1,2.6-2,4.7-4.7,4.7Z"/>
  <path class="st0" d="M136.15,446.44h-62.9c-2.6,0-4.7-2.1-4.7-4.7s2.1-4.7,4.7-4.7h62.9c2.6,0,4.7,2.1,4.7,4.7.1,2.6-2,4.7-4.7,4.7Z"/>
  <path class="st0" d="M136.15,469.14h-62.9c-2.6,0-4.7-2.1-4.7-4.7s2.1-4.7,4.7-4.7h62.9c2.6,0,4.7,2.1,4.7,4.7.1,2.6-2,4.7-4.7,4.7Z"/>
  <path class="st0" d="M434.05,381.44h-136.3c-2.6,0-4.7-2.1-4.7-4.7v-116.6c0-2.6,2.1-4.7,4.7-4.7s4.7,2.1,4.7,4.7v111.8h131.6c2.6,0,4.7,2.1,4.7,4.7s-2.1,4.8-4.7,4.8Z"/>
  <path class="st0" d="M337.05,381.44c-2.6,0-4.7-2.1-4.7-4.7v-51.6h-12v51.6c0,2.6-2.1,4.7-4.7,4.7s-4.7-2.1-4.7-4.7v-56.3c0-2.6,2.1-4.7,4.7-4.7h21.4c2.6,0,4.7,2.1,4.7,4.7v56.3c0,2.6-2.1,4.7-4.7,4.7Z"/>
  <path class="st0" d="M377.55,381.44c-2.6,0-4.7-2.1-4.7-4.7v-68.7h-12v68.7c0,2.6-2.1,4.7-4.7,4.7s-4.7-2.1-4.7-4.7v-73.5c0-2.6,2.1-4.7,4.7-4.7h21.5c2.6,0,4.7,2.1,4.7,4.7v73.5c-.1,2.6-2.2,4.7-4.8,4.7h0Z"/>
  <path class="st0" d="M418.05,381.44c-2.6,0-4.7-2.1-4.7-4.7v-51.6h-12v51.6c0,2.6-2.1,4.7-4.7,4.7s-4.7-2.1-4.7-4.7v-56.3c0-2.6,2.1-4.7,4.7-4.7h21.4c2.6,0,4.7,2.1,4.7,4.7v56.3c0,2.6-2.1,4.7-4.7,4.7Z"/>
  <path class="st0" d="M335.95,286.74c-1.8,0-3.6-1.1-4.4-2.9-1-2.4.1-5.2,2.5-6.2l21.3-9c2.4-1,5.2.1,6.2,2.5s-.1,5.2-2.5,6.2l-21.3,9c-.6.2-1.2.4-1.8.4h0ZM397.75,286.74c-.6,0-1.2-.1-1.8-.4l-21.3-9c-2.4-1-3.5-3.8-2.5-6.2s3.8-3.5,6.2-2.5l21.3,9c2.4,1,3.5,3.8,2.5,6.2-.9,1.8-2.6,2.9-4.4,2.9h0Z"/>
  <path class="st0" d="M407.35,280.34c-3.1,0-5.7,2.6-5.7,5.7s2.6,5.7,5.7,5.7,5.7-2.6,5.7-5.7-2.6-5.7-5.7-5.7ZM407.35,301.24c-8.4,0-15.2-6.8-15.2-15.2s6.8-15.2,15.2-15.2,15.2,6.8,15.2,15.2c-.1,8.4-6.9,15.2-15.2,15.2h0Z"/>
  <path class="st0" d="M366.85,263.14c-3.1,0-5.7,2.6-5.7,5.7s2.6,5.7,5.7,5.7,5.7-2.6,5.7-5.7-2.6-5.7-5.7-5.7ZM366.85,284.04c-8.4,0-15.2-6.8-15.2-15.2s6.8-15.2,15.2-15.2,15.2,6.8,15.2,15.2c-.1,8.4-6.9,15.2-15.2,15.2Z"/>
  <path class="st0" d="M326.35,280.34c-3.1,0-5.7,2.6-5.7,5.7s2.6,5.7,5.7,5.7,5.7-2.6,5.7-5.7-2.6-5.7-5.7-5.7h0ZM326.35,301.24c-8.4,0-15.2-6.8-15.2-15.2s6.8-15.2,15.2-15.2,15.2,6.8,15.2,15.2c-.1,8.4-6.9,15.2-15.2,15.2h0Z"/>
  <path class="st0" d="M312.05,413.24h-20.1c-2.6,0-4.7-2.1-4.7-4.7s2.1-4.7,4.7-4.7h20.1c2.6,0,4.7,2.1,4.7,4.7s-2.1,4.7-4.7,4.7h0ZM434.05,413.24h-101.3c-2.6,0-4.7-2.1-4.7-4.7s2.1-4.7,4.7-4.7h101.3c2.6,0,4.7,2.1,4.7,4.7s-2.1,4.7-4.7,4.7h0Z"/>
  <path class="st0" d="M312.05,441.34h-20.1c-2.6,0-4.7-2.1-4.7-4.7s2.1-4.7,4.7-4.7h20.1c2.6,0,4.7,2.1,4.7,4.7s-2.1,4.7-4.7,4.7h0ZM434.05,441.34h-101.3c-2.6,0-4.7-2.1-4.7-4.7s2.1-4.7,4.7-4.7h101.3c2.6,0,4.7,2.1,4.7,4.7s-2.1,4.7-4.7,4.7h0Z"/>
  <path class="st0" d="M312.05,469.34h-20.1c-2.6,0-4.7-2.1-4.7-4.7s2.1-4.7,4.7-4.7h20.1c2.6,0,4.7,2.1,4.7,4.7s-2.1,4.7-4.7,4.7h0ZM434.05,469.34h-101.3c-2.6,0-4.7-2.1-4.7-4.7s2.1-4.7,4.7-4.7h101.3c2.6,0,4.7,2.1,4.7,4.7s-2.1,4.7-4.7,4.7h0Z"/>
</svg>