<?xml version="1.0" encoding="UTF-8"?>
<svg id="Layer_1" xmlns="http://www.w3.org/2000/svg" version="1.1" viewBox="0 0 110 135">
  <!-- Generator: Adobe Illustrator 29.8.2, SVG Export Plug-In . SVG Version: 2.1.1 Build 3)  -->
  <defs>
    <style>
      .st0 {
        fill-rule: evenodd;
        stroke: #000;
        stroke-miterlimit: 10;
        stroke-width: .25px;
      }
    </style>
  </defs>
  <path class="st0" d="M61.03,64.95c-.37.57-.2,1.33.37,1.7.57.36,1.33.2,1.7-.38,1-1.55,1.52-3.34,1.52-5.19,0-5.31-4.32-9.63-9.62-9.63s-9.62,4.32-9.62,9.63c0,1.85.53,3.64,1.52,5.19.37.58,1.12.74,1.7.38.57-.38.74-1.13.37-1.7-.74-1.15-1.13-2.49-1.13-3.86,0-3.95,3.21-7.16,7.16-7.16s7.16,3.21,7.16,7.16c0,1.37-.39,2.71-1.12,3.86h0ZM65.09,52.07c.55-.41,1.32-.28,1.72.26,5.21,7.03,3.03,17.25-4.71,21.51-.19.11-.39.16-.6.16-1.23,0-1.72-1.69-.6-2.31,6.44-3.59,8.26-11.97,3.92-17.89-.4-.55-.29-1.32.26-1.72h0ZM49.08,71.69c.59.33.81,1.08.48,1.67-.34.61-1.08.82-1.68.49-7.73-4.27-9.92-14.48-4.71-21.51.4-.54,1.18-.66,1.72-.26.55.41.66,1.17.26,1.72-4.34,5.92-2.51,14.31,3.92,17.89h0ZM87.73,76.01c0-1.46-1.77-2.22-2.82-1.17-1.02,1.02-.33,2.82,1.17,2.82.93,0,1.65-.75,1.65-1.65ZM73.97,46.49v27.34c0,1.29-1.04,2.32-2.32,2.32h-12.69v-11.13c0-2.2-1.79-4-4-4s-4,1.8-4,4v11.14s-12.61,0-12.61,0c-1.28,0-2.32-1.04-2.32-2.32v-27.34c0-1.29,1.05-2.32,2.33-2.32h33.31c1.28,0,2.32,1.04,2.32,2.32h0ZM58.95,84.26c0-.84.69-1.53,1.53-1.53s1.53.68,1.53,1.53v2.44c0,.68.55,1.22,1.23,1.22s1.23-.55,1.23-1.22c0-.85.69-1.54,1.53-1.54s1.53.68,1.53,1.54v2.43c0,.68.55,1.22,1.23,1.22s1.23-.55,1.23-1.22c0-.85.69-1.54,1.53-1.54s1.53.68,1.53,1.54c0,6.11-.21,11.25-2.79,16.54h-15.96c-.95-1.64-2.82-4.25-3.66-5.72-.32-.57-.5-1.09-.59-1.74l-.45-3.2c-.61-3.29-2.45-5.69-5.45-7.12-2.23-1.06-3.06-2.34-2.73-3.05.34-.74,1.94-1.22,4.07-.27l6.11,3.1c.82.41,1.79-.18,1.79-1.1l.02-21.56c0-.84.69-1.53,1.54-1.53s1.54.68,1.54,1.53v19.24c0,.68.55,1.23,1.23,1.23s1.23-.55,1.23-1.23h0ZM56.2,34.58h-2.41c-3.07,0-5.56,2.5-5.56,5.57v1.56h13.54v-1.56c0-3.07-2.5-5.57-5.56-5.57h0ZM42.96,41.71v-1.56c0-5.98,4.86-10.84,10.83-10.84h2.41c5.97,0,10.83,4.86,10.83,10.84v1.56h-2.8v-1.56c0-4.43-3.6-8.03-8.03-8.03h-2.41c-4.43,0-8.03,3.6-8.03,8.03v1.56h-2.8ZM25.57,76.01c0-1.46-1.77-2.22-2.82-1.17-1.03,1.02-.32,2.82,1.17,2.82.94,0,1.66-.75,1.66-1.65ZM25.57,60.17c0-.91-.74-1.66-1.66-1.66s-1.65.75-1.65,1.66.74,1.65,1.65,1.65c.91,0,1.66-.74,1.66-1.65ZM25.57,44.31c0-1.49-1.81-2.2-2.82-1.17-1.05,1.05-.28,2.83,1.17,2.83.91,0,1.66-.74,1.66-1.66h0ZM84.91,45.48c1.05,1.05,2.82.29,2.82-1.17s-1.81-2.2-2.82-1.17c-.65.65-.65,1.7,0,2.34ZM84.42,60.17c0,.9.74,1.65,1.66,1.65s1.65-.75,1.65-1.65-.74-1.66-1.65-1.66-1.66.75-1.66,1.66ZM88.99,73.1c1.61,1.6,1.61,4.21,0,5.82-1.62,1.62-4.2,1.62-5.82,0-1.3-1.3-1.55-3.26-.74-4.82l-4.15-4.15h-1.84s0,3.88,0,3.88c0,2.64-2.15,4.79-4.79,4.79h-12.69v1.96c2.2-.92,4.66.29,5.35,2.51,2.16-1.04,4.8.09,5.53,2.43,2.59-1.24,5.7.64,5.7,3.61,0,6.48-.26,12.33-3.41,18.35-.21.41-.63.65-1.09.65h-17.44c-.46,0-.88-.25-1.09-.66-.86-1.66-3.02-4.62-3.98-6.3-.48-.84-.76-1.65-.89-2.61l-.44-3.11c-.48-2.53-1.77-4.22-4.07-5.31-4.14-1.96-4.69-4.63-3.91-6.32.89-1.92,3.77-3.08,7.35-1.46.02.01.03.01.05.02l4.35,2.21v-5.96s-12.6,0-12.6,0c-2.64,0-4.79-2.14-4.79-4.79v-3.89h-1.84s-4.15,4.16-4.15,4.16c1.43,2.74-.57,6.03-3.65,6.03-1.1,0-2.13-.44-2.91-1.21-2.59-2.58-.74-7.03,2.91-7.03.68,0,1.33.17,1.91.47l4.51-4.52c.23-.23.54-.35.86-.35l2.36-.02v-6.08h-5.71c-.53,1.67-2.09,2.88-3.93,2.88-2.27,0-4.12-1.85-4.12-4.11s1.85-4.12,4.12-4.12c1.84,0,3.41,1.21,3.93,2.89h5.71v-6.08l-2.36-.02c-.32,0-.63-.12-.86-.35l-4.51-4.52c-1.59.82-3.54.55-4.82-.74-1.61-1.61-1.61-4.21,0-5.82,2.61-2.62,7.03-.72,7.03,2.91,0,.68-.16,1.33-.47,1.91l4.15,4.15h1.84s0-3.88,0-3.88c0-2.64,2.15-4.79,4.79-4.79h2.16v-1.56c0-7.34,5.96-13.29,13.29-13.29h2.41c7.33,0,13.29,5.96,13.29,13.29v1.56h2.16c2.64,0,4.79,2.15,4.79,4.79v3.89h1.84s4.15-4.16,4.15-4.16c-1.42-2.73.57-6.03,3.65-6.03,2.26,0,4.12,1.84,4.12,4.12,0,3.1-3.27,5.08-6.03,3.65l-4.51,4.52c-.23.23-.54.35-.86.35l-2.36.02v6.08h5.71c.52-1.67,2.09-2.89,3.93-2.89,2.27,0,4.12,1.85,4.12,4.12s-1.85,4.11-4.12,4.11c-1.84,0-3.41-1.21-3.93-2.89h-5.73v6.08l2.36.02c.32,0,.63.12.86.35l4.51,4.52c1.6-.82,3.54-.55,4.82.74h0ZM46.23,50.77c.4.55,1.16.69,1.71.29,4.18-2.99,9.88-2.98,14.09,0,.55.39,1.32.26,1.71-.29.39-.56.26-1.33-.29-1.72-5.06-3.59-11.87-3.59-16.94,0-.55.39-.68,1.16-.29,1.72h0Z"/>
</svg>