<?xml version="1.0" encoding="UTF-8"?>
<svg id="Layer_1" xmlns="http://www.w3.org/2000/svg" version="1.1" viewBox="0 0 110 135">
  <!-- Generator: Adobe Illustrator 29.8.2, SVG Export Plug-In . SVG Version: 2.1.1 Build 3)  -->
  <defs>
    <style>
      .st0 {
        stroke: #000;
        stroke-miterlimit: 10;
        stroke-width: .25px;
      }
    </style>
  </defs>
  <path class="st0" d="M60.86,77.18l1.27-6.36c3.11-1,5.98-2.67,8.42-4.86l6.14,2.08c.7.24,1.48-.05,1.86-.7l4.33-7.5c.37-.64.24-1.46-.32-1.95l-4.87-4.28c.34-1.59.51-3.23.51-4.86s-.17-3.27-.51-4.86l4.87-4.28c.56-.49.7-1.31.32-1.95l-4.33-7.5c-.37-.64-1.15-.94-1.86-.7l-6.14,2.08c-2.43-2.2-5.31-3.86-8.42-4.86l-1.27-6.36c-.15-.72-.79-1.25-1.53-1.25h-8.65c-.75,0-1.39.53-1.53,1.26l-1.27,6.36c-3.11,1-5.98,2.67-8.42,4.86l-6.14-2.08c-.7-.24-1.48.05-1.86.7l-4.33,7.5c-.37.64-.24,1.46.32,1.95l4.87,4.28c-.34,1.59-.51,3.23-.51,4.86s.17,3.27.51,4.87l-4.87,4.28c-.56.49-.7,1.31-.32,1.95l4.33,7.5c.37.64,1.15.94,1.85.7l6.14-2.08c2.43,2.2,5.31,3.86,8.42,4.86l1.27,6.36c.14.73.79,1.26,1.53,1.26h8.65c.75-.01,1.39-.54,1.54-1.27h0ZM59.25,69.29l-1.2,6.02h-6.09l-1.2-6.02c-.12-.58-.55-1.04-1.11-1.2-3.27-.9-6.27-2.64-8.7-5.02-.42-.41-1.04-.55-1.59-.37l-5.82,1.97-3.05-5.28,4.61-4.05c.44-.39.63-.99.48-1.56-.42-1.63-.64-3.33-.64-5.03s.21-3.39.64-5.03c.15-.57-.04-1.18-.48-1.56l-4.61-4.05,3.05-5.28,5.82,1.97c.56.19,1.18.05,1.59-.37,2.43-2.38,5.43-4.12,8.7-5.03.57-.16,1-.62,1.11-1.2l1.2-6.01h6.09l1.2,6.02c.12.58.55,1.04,1.12,1.2,3.27.9,6.27,2.64,8.7,5.03.42.41,1.04.55,1.59.37l5.82-1.97,3.05,5.28-4.61,4.05c-.44.39-.63.99-.48,1.56.42,1.63.64,3.33.64,5.03s-.21,3.39-.64,5.03c-.15.57.04,1.18.48,1.56l4.61,4.05-3.05,5.28-5.82-1.97c-.56-.19-1.18-.05-1.59.37-2.43,2.38-5.43,4.12-8.7,5.02-.57.15-1,.61-1.11,1.19Z"/>
  <path class="st0" d="M69.61,39.48l.56-.56c.61-.61.61-1.6,0-2.21-.61-.61-1.6-.61-2.21,0l-1.71,1.71c-3.61-1.22-8.44-3.12-10.15-4.83-.61-.61-1.6-.61-2.21,0-2.32,2.32-10.45,5.01-13.39,5.85-.67.2-1.13.81-1.13,1.51,0,5.43,1.89,11.28,5.18,16.04,3.2,4.63,7.1,7.39,10.44,7.39s7.24-2.77,10.44-7.39c3.29-4.77,5.18-10.61,5.18-16.04,0-.66-.41-1.23-1.02-1.46h0ZM62.87,55.21c-2.54,3.67-5.62,6.04-7.87,6.04s-5.34-2.37-7.87-6.04c-2.71-3.92-4.35-8.64-4.6-13.11,2.72-.84,9.12-2.96,12.47-5.38,2.24,1.62,5.84,3.1,8.79,4.16l-8.79,8.79-3.58-3.58c-.61-.61-1.6-.61-2.21,0-.61.61-.61,1.6,0,2.21l4.69,4.69c.3.3.7.46,1.11.46s.8-.15,1.11-.46l11-11c.12.04.25.08.36.11-.25,4.48-1.89,9.2-4.6,13.11h0Z"/>
  <path class="st0" d="M93.58,87.36c2.15-2.15,2.07-4.99,2.03-6.69,0-.2-.01-22.54-.01-22.54,0-.86-.7-1.56-1.56-1.56-9.7,0-10.94,7.52-10.94,14.06v3.03c-2.28-.78-4.91-.27-6.72,1.55l-10.01,9.95c-2.45,2.45-3.58,5.28-3.58,8.92v7.81c-.85.02-1.54.71-1.54,1.56v3.12c-.86,0-1.56.7-1.56,1.56v6.25c0,.86.7,1.56,1.56,1.56h20.31c.86,0,1.56-.7,1.56-1.56v-6.25c0-.86-.7-1.56-1.56-1.56v-3.12c0-.86-.7-1.56-1.56-1.56h-.02v-.91l13.61-13.6ZM80,112.81h-17.19v-3.12h17.19v3.12ZM64.38,106.56v-1.56h14.06v1.56h-14.06ZM65.91,101.87v-7.81c0-2.79.82-4.86,2.66-6.7l10.01-9.95c1.32-1.32,3.46-1.32,4.79,0,1.32,1.32,1.32,3.46,0,4.79l-7.62,7.64c-.61.61-.61,1.6,0,2.21s1.6.61,2.21,0l7.62-7.63c2.3-2.3,2.52-5.91.65-8.45v-5.34c0-7.2,1.72-10.31,6.25-10.85,0,0,0,20.75.01,20.97.04,1.35.09,3.2-1.12,4.4l-14.06,14.06c-.29.29-.46.69-.46,1.11v1.56h-10.94Z"/>
  <path class="st0" d="M48.75,106.56v-3.12c0-.86-.69-1.55-1.54-1.56v-7.81c0-3.64-1.14-6.47-3.59-8.92l-10-9.94c-1.82-1.82-4.45-2.33-6.73-1.55v-3.03c0-6.55-1.24-14.06-10.94-14.06-.86,0-1.56.7-1.56,1.56,0,0,0,22.34-.01,22.54-.04,1.7-.12,4.54,2.03,6.69l13.6,13.61v.92h-.02c-.86,0-1.56.7-1.56,1.56v3.12c-.86,0-1.56.7-1.56,1.56v6.25c0,.86.7,1.56,1.56,1.56h20.31c.86,0,1.56-.7,1.56-1.56v-6.25c0-.86-.7-1.56-1.56-1.56h0ZM32.69,99.21l-14.06-14.06c-1.2-1.2-1.15-3.05-1.12-4.4,0-.23.01-20.97.01-20.97,4.52.54,6.25,3.66,6.25,10.85v5.33c-1.87,2.55-1.65,6.15.64,8.45l7.62,7.64c.61.61,1.6.61,2.21,0,.61-.61.61-1.6,0-2.21l-7.62-7.64c-1.32-1.32-1.32-3.46,0-4.79,1.32-1.32,3.46-1.32,4.79,0l10,9.94c1.84,1.84,2.67,3.91,2.67,6.71v7.81h-10.94v-1.56c0-.41-.16-.81-.46-1.11h0ZM31.56,105h14.06v1.56h-14.06v-1.56ZM47.19,112.81h-17.19v-3.12h17.19v3.12Z"/>
</svg>