<?xml version="1.0" encoding="UTF-8"?>
<svg id="Layer_1" xmlns="http://www.w3.org/2000/svg" version="1.1" viewBox="0 0 68 85">
  <!-- Generator: Adobe Illustrator 29.8.2, SVG Export Plug-In . SVG Version: 2.1.1 Build 3)  -->
  <path d="M62.8,45.2h-4.4v-2.9c2.8-.5,5-2.9,5-5.9,0-3.2-2.5-5.8-5.7-6l-9.9-9.9c-.2-4.2-3.7-7.5-8-7.5-4,0-7.3,3-7.9,6.8l-3.9,4c-.4.4-.4,1,0,1.4.4.4,1,.4,1.4,0l2.6-2.6c.3,1.6,1.1,3,2.2,4.1l-7.6,7.6c-.7-1.4-1.8-2.5-3.1-3.3l2.8-2.8c.4-.4.4-1,0-1.4s-1-.4-1.4,0l-3.5,3.5c-.4-.1-.9-.1-1.3-.1-4,0-7.3,3.3-7.3,7.3v10.5c-3.4,2.4-5.4,6.2-5.4,10.3v8h-1.4c-2.2,0-4,1.8-4,4v3.2c0,.6.4,1,1,1h11c.6,0,1-.4,1-1s-.4-1-1-1H4v-2.1c0-1.1.9-2,2-2,33,0,23.2,0,28.1,0,1.1,0,2,.9,2,2v2.1h-18.1c-.6,0-1,.4-1,1s.4,1,1,1h19.1c.6,0,1-.4,1-1v-3.1c0-2.2-1.8-4-4-4h-1.4v-8c0-4.1-2-8-5.4-10.3,0-11,.1-10.5-.1-11.5l8.6-8.6c2.3,1.3,5.1,1.4,7.6.2l8,8c-.1,3.1,2.1,5.6,5,6.1v2.9h-4.4c-1.8,0-3.2,1.5-3.2,3.2s1.3,3.1,2.9,3.2v4c0,.2.1.4.2.6l1.9,2.7c.3.5.9.6,1.4.2.5-.3.6-.9.2-1.4l-1.7-2.4v-3.7h7.4v3.7l-1.7,2.4c-.3.5-.2,1.1.2,1.4.5.3,1.1.2,1.4-.2l1.9-2.7c.1-.2.2-.4.2-.6v-4c1.6-.1,2.9-1.5,2.9-3.1,0-1.8-1.5-3.3-3.2-3.3ZM14.8,37.5c0-2.9,2.4-5.3,5.3-5.3s5.3,2.4,5.3,5.3v15.4c0,2.9-2.4,5.3-5.3,5.3s-5.3-2.4-5.3-5.3c0,0,0-15.4,0-15.4ZM30.7,58.4v8H9.4v-8c0-3,1.2-5.8,3.4-7.8v2.3c0,4,3.3,7.3,7.3,7.3s7.3-3.3,7.3-7.3v-2.3c2.1,2,3.3,4.8,3.3,7.8ZM33.8,21.1c0-3.3,2.7-6,6-6s6,2.7,6,6-2.7,6-6,6-6-2.7-6-6ZM45.1,27.1c1.2-1,2-2.4,2.5-3.9l7.7,7.7c-1.5.6-2.6,1.7-3.3,3.1l-6.9-6.9ZM53.4,36.4c0-2.2,1.8-4,4-4s4,1.8,4,4-1.8,4-4,4-4-1.8-4-4ZM62.8,49.7h-10.8c-.7,0-1.2-.6-1.2-1.2,0-.7.6-1.2,1.2-1.2h10.8c.7,0,1.2.6,1.2,1.2s-.6,1.2-1.2,1.2Z"/>
  <path d="M39.8,17.1c-2.2,0-4,1.8-4,4s1.8,4,4,4,4-1.8,4-4-1.8-4-4-4ZM39.8,23.1c-1.1,0-2-.9-2-2s.9-2,2-2,2,.9,2,2-.9,2-2,2Z"/>
  <path d="M20.1,41.2c1.9,0,3.5-1.6,3.5-3.5s-1.6-3.5-3.5-3.5-3.5,1.6-3.5,3.5,1.5,3.5,3.5,3.5ZM20.1,36.2c.8,0,1.5.7,1.5,1.5s-.7,1.5-1.5,1.5-1.5-.7-1.5-1.5.6-1.5,1.5-1.5Z"/>
  <path d="M20.1,56.2c1.9,0,3.5-1.6,3.5-3.5s-1.6-3.5-3.5-3.5-3.5,1.6-3.5,3.5,1.5,3.5,3.5,3.5ZM20.1,51.2c.8,0,1.5.7,1.5,1.5s-.7,1.5-1.5,1.5-1.5-.7-1.5-1.5.6-1.5,1.5-1.5Z"/>
  <path d="M19,10.5c-9.4,0-17,7.6-17,17,0,.6.4,1,1,1s1-.4,1-1c0-8.3,6.7-15,15-15,.6,0,1-.4,1-1s-.5-1-1-1Z"/>
  <path d="M19,15.1c-6.9,0-12.4,5.5-12.4,12.4,0,.6.4,1,1,1s1-.4,1-1c0-5.7,4.7-10.4,10.4-10.4.6,0,1-.4,1-1s-.5-1-1-1Z"/>
  <path d="M19,19.6c-4.3,0-7.8,3.5-7.8,7.9,0,.6.4,1,1,1s1-.4,1-1c0-3.2,2.6-5.9,5.8-5.9.6,0,1-.4,1-1s-.5-1-1-1Z"/>
</svg>