<?xml version="1.0" encoding="UTF-8"?>
<svg id="Layer_1" xmlns="http://www.w3.org/2000/svg" version="1.1" viewBox="0 0 100 125">
  <!-- Generator: Adobe Illustrator 29.8.2, SVG Export Plug-In . SVG Version: 2.1.1 Build 3)  -->
  <path d="M91.1,70.18c2.25-.66,3.9-2.75,3.9-5.21,0-2.99-2.44-5.43-5.43-5.43h-2.28c-2.39,0-4.43,1.55-5.15,3.71l-2.18-5.43c-1.41-3.51-3.82-6.49-6.95-8.61-2.58-1.75-5.52-2.81-8.6-3.13v-5.42c0-.24.2-.44.44-.44h10.27c1.7,0,3.08-1.38,3.08-3.08v-4.4c.58-.2,1.12-.52,1.56-.97.77-.77,1.19-1.79,1.19-2.88s-.42-2.11-1.19-2.88c-.77-.77-1.79-1.19-2.88-1.19s-2.11.42-2.88,1.19h0c-1.59,1.59-1.59,4.18,0,5.77.45.45.98.77,1.56.97v4.4c0,.24-.2.44-.44.44h-10.27c-1.7,0-3.08,1.38-3.08,3.08v5.32h-10.46v-3.22c.57-.19,1.11-.51,1.56-.97,1.59-1.59,1.59-4.18,0-5.77h0c-1.59-1.59-4.18-1.59-5.77,0-1.59,1.59-1.59,4.18,0,5.77.46.45.99.77,1.56.97v3.22h-10.46v-5.32c0-1.7-1.38-3.08-3.08-3.08h-10.27c-.24,0-.44-.2-.44-.44v-4.4c.58-.2,1.12-.52,1.56-.97.77-.77,1.19-1.79,1.19-2.88s-.42-2.11-1.19-2.88h0c-.77-.77-1.79-1.19-2.88-1.19s-2.11.42-2.88,1.19-1.19,1.79-1.19,2.88.42,2.11,1.19,2.88c.45.45.98.77,1.56.97v4.4c0,1.7,1.38,3.08,3.08,3.08h10.27c.24,0,.44.2.44.44v5.42c-2.63.28-5.19,1.11-7.49,2.44-.63.37-.84,1.17-.48,1.8.36.63,1.17.84,1.8.48,2.47-1.43,5.29-2.19,8.15-2.19h24.86c6.68,0,12.6,4,15.09,10.19l3.71,9.24H18.77l3.72-9.24c.72-1.78,1.73-3.41,3.02-4.83.49-.54.45-1.37-.09-1.86-.54-.49-1.37-.45-1.86.09-1.5,1.65-2.68,3.55-3.51,5.62l-2.18,5.43c-.72-2.15-2.76-3.71-5.15-3.71h-2.28c-3,0-5.43,2.44-5.43,5.43,0,2.46,1.65,4.54,3.9,5.21-2.37,1.85-3.9,4.73-3.9,7.97v16.06c0,2.18,1.77,3.96,3.95,3.96h.87v5.37c0,2.18,1.77,3.96,3.95,3.96h12.61c2.18,0,3.95-1.77,3.95-3.96v-5.37h37.85v5.37c0,2.18,1.77,3.96,3.96,3.96h12.61c2.18,0,3.96-1.77,3.96-3.96v-5.37h2.32c2.18,0,3.96-1.77,3.96-3.96v-16.06c0-3.23-1.53-6.11-3.9-7.97ZM75.86,27.86c.27-.27.63-.42,1.02-.42s.75.15,1.02.42c.27.27.42.63.42,1.02s-.15.75-.42,1.02c-.27.27-.63.42-1.02.42s-.75-.15-1.02-.42c-.56-.56-.56-1.48,0-2.04ZM48.98,37.88c.28-.28.65-.42,1.02-.42s.74.14,1.02.42c.56.56.56,1.48,0,2.04s-1.47.56-2.04,0c-.56-.56-.56-1.48,0-2.04ZM22.1,27.86c.27-.27.63-.42,1.02-.42s.75.15,1.02.42h0c.27.27.42.63.42,1.02s-.15.75-.42,1.02c-.27.27-.63.42-1.02.42s-.75-.15-1.02-.42c-.27-.27-.42-.63-.42-1.02s.15-.75.42-1.02ZM80.72,81.52h5.36c.34,0,.67-.13.91-.36l5.14-4.9c.16.61.25,1.24.25,1.9v2.73l-3.85,3.67c-.33.31-.76.49-1.21.49h-16.62c.24-.54.37-1.13.37-1.76s-.13-1.22-.37-1.76h4.28c.73,0,1.32-.59,1.32-1.32s-.59-1.32-1.32-1.32H14.46l-5.38-5.13c1.36-1.86,3.56-3.07,6.03-3.07h69.79c2.47,0,4.67,1.21,6.03,3.07l-5.38,5.13h-4.83c-.73,0-1.32.59-1.32,1.32,0,.73.59,1.32,1.32,1.32ZM33.34,85.03c-.97,0-1.76-.79-1.76-1.76s.79-1.76,1.76-1.76h33.32c.97,0,1.76.79,1.76,1.76s-.79,1.76-1.76,1.76h-33.32ZM7.64,78.15c0-.66.09-1.29.24-1.9l5.14,4.9c.24.23.57.36.91.36h15.39c-.24.54-.37,1.13-.37,1.76s.13,1.22.37,1.76H12.7c-.45,0-.89-.17-1.21-.49l-3.85-3.67v-2.73h0ZM84.5,64.98c0-1.54,1.25-2.79,2.79-2.79h2.28c1.54,0,2.79,1.25,2.79,2.79s-1.25,2.79-2.79,2.79h-5.07v-2.79ZM7.64,64.98c0-1.54,1.25-2.79,2.79-2.79h2.28c1.54,0,2.79,1.25,2.79,2.79v2.79h-5.07c-1.54,0-2.79-1.25-2.79-2.79ZM27.72,103.54c0,.73-.59,1.32-1.32,1.32h-12.62c-.73,0-1.32-.59-1.32-1.32v-5.37h15.25v5.37ZM86.09,103.54c0,.73-.59,1.32-1.32,1.32h-12.62c-.73,0-1.32-.59-1.32-1.32v-5.37h15.25v5.37ZM91.04,95.53h-23.7v-2.22c0-.73-.59-1.32-1.32-1.32s-1.32.59-1.32,1.32v2.22h-5.38v-2.22c0-.73-.59-1.32-1.32-1.32s-1.32.59-1.32,1.32v2.22h-5.38v-2.22c0-.73-.59-1.32-1.32-1.32s-1.32.59-1.32,1.32v2.22h-5.38v-2.22c0-.73-.59-1.32-1.32-1.32s-1.32.59-1.32,1.32v2.22h-5.38v-2.22c0-.73-.59-1.32-1.32-1.32s-1.32.59-1.32,1.32v2.22H8.95c-.73,0-1.32-.59-1.32-1.32v-9.69l2.03,1.93c.82.78,1.9,1.21,3.03,1.21h74.61c1.14,0,2.21-.43,3.03-1.21l2.03-1.93v9.69c0,.73-.59,1.32-1.32,1.32Z"/>
  <path d="M44.44,31.66c-.51.51-.51,1.35,0,1.86.51.51,1.35.51,1.87,0,2.04-2.04,5.36-2.04,7.4,0,.26.26.6.39.93.39s.67-.13.93-.39c.51-.51.51-1.35,0-1.86-3.07-3.07-8.06-3.07-11.13,0Z"/>
  <path d="M57.65,29.23c.34,0,.67-.13.93-.39.51-.52.51-1.35,0-1.86-4.73-4.73-12.42-4.73-17.15,0-.51.52-.51,1.35,0,1.86.51.51,1.35.51,1.87,0,3.7-3.7,9.72-3.7,13.42,0,.26.26.59.39.93.39Z"/>
  <path d="M40.27,24.16c5.36-5.36,14.09-5.36,19.45,0,.26.26.6.39.93.39s.67-.13.93-.39c.51-.52.51-1.35,0-1.86-6.39-6.39-16.79-6.39-23.18,0-.51.52-.51,1.35,0,1.86.52.52,1.35.52,1.87,0Z"/>
</svg>