<?xml version="1.0" encoding="UTF-8"?>
<svg id="Layer_1" xmlns="http://www.w3.org/2000/svg" version="1.1" viewBox="0 0 110 135">
  <!-- Generator: Adobe Illustrator 29.8.2, SVG Export Plug-In . SVG Version: 2.1.1 Build 3)  -->
  <defs>
    <style>
      .st0 {
        fill-rule: evenodd;
        stroke: #000;
        stroke-miterlimit: 10;
        stroke-width: .75px;
      }
    </style>
  </defs>
  <path class="st0" d="M40.2,65.02c-2.31,0-3.48,2.81-1.84,4.45,1.64,1.64,4.45.47,4.45-1.84,0-1.44-1.17-2.61-2.61-2.61ZM63.9,71.25v2.76c0,1.26-1.91,1.26-1.91,0v-2.76c-2.5-.72-3.34-3.88-1.48-5.74,2.16-2.16,5.88-.62,5.88,2.43,0,1.55-1.04,2.89-2.49,3.31h0ZM64.02,66.86c-.96-.96-2.61-.28-2.61,1.08s1.65,2.04,2.61,1.08c.6-.6.6-1.57,0-2.16h0ZM45.99,57.18l3.81,3.04c.24.19.36.46.36.75h0v4.08c0,1.26-1.91,1.26-1.91,0v-3.62l-3.45-2.75c-2.27,1.61-5.43-.01-5.43-2.81,0-3.06,3.71-4.6,5.88-2.43.98.97,1.28,2.45.75,3.75h0ZM43.89,54.78c-.96-.96-2.61-.28-2.61,1.08s1.65,2.04,2.61,1.08c.59-.6.59-1.57,0-2.16h0ZM44.21,91.9c-1.33-3.75-3.57-6.84-6.65-9.73-10.44-9.83-10.73-26.35-.55-36.53,9.94-9.94,26.05-9.94,35.99,0,10.17,10.17,9.89,26.7-.55,36.53-3.07,2.89-5.32,5.98-6.65,9.73-.04.1-.05.2-.05.3h-4.3c.25-.17.41-.46.41-.79v-7.96s10.08-9.86,10.08-9.86c.2-.2.3-.46.29-.72v-9.02c2.05-.44,3.57-2.27,3.57-4.42,0-4.01-4.87-6.03-7.71-3.2-2.54,2.54-1.23,6.87,2.24,7.61v8.66l-10.02,9.81c-.21.18-.34.44-.34.73v8.36c0,.32.16.61.41.79h-4.8c.25-.17.41-.46.41-.79v-37.33c2.05-.44,3.55-2.27,3.55-4.41,0-4.01-4.87-6.04-7.71-3.2-2.54,2.54-1.23,6.86,2.24,7.61v37.34c0,.32.16.61.41.79h-4.8c.25-.17.41-.46.41-.79v-13.3c0-.27-.11-.5-.28-.68l-6.18-6.85c1.56-1.79,1.46-4.48-.21-6.16-2.84-2.84-7.71-.82-7.71,3.2,0,3.29,3.42,5.46,6.39,4.11l6.09,6.75v12.93c0,.32.16.61.41.79h-4.3c0-.09-.02-.2-.05-.3h0ZM73.1,57.59c-1.64-1.64-4.45-.47-4.45,1.84s2.81,3.48,4.45,1.84c1.02-1.01,1.02-2.66,0-3.68h0ZM56.84,47.82c-1.64-1.64-4.45-.47-4.45,1.84s2.81,3.48,4.45,1.84c1.02-1.02,1.02-2.66,0-3.68h0ZM65.45,109.31h-13.8c-1.26,0-1.26-1.91,0-1.91h14.57c.21-.93.16-1.93.16-2.89h-14.72c-1.26,0-1.26-1.91,0-1.91h14.72v-3.08h-22.74v6.47c0,3.55,2.91,6.46,6.46,6.46h9.81c2.32,0,4.39-1.23,5.54-3.14h0ZM68.29,99.5v6.49c0,4.57-3.73,8.38-8.38,8.38h-9.81c-4.61,0-8.38-3.77-8.38-8.38v-6.49c-3-.34-4.37-4.04-2.18-6.22.75-.75,1.64-1.07,2.75-1.07-1.24-3.31-3.29-6.06-6.03-8.64-11.21-10.55-11.55-28.32-.6-39.27,10.68-10.68,28.01-10.68,38.7,0,10.95,10.95,10.6,28.73-.6,39.27-2.74,2.58-4.79,5.33-6.03,8.64,1.11,0,2,.32,2.75,1.07,2.18,2.19.82,5.89-2.18,6.22h0ZM85.73,83.63l6.12,3.55c1.09.63,2.04-1.02.96-1.65l-6.12-3.55c-1.09-.63-2.04,1.02-.96,1.65ZM91.07,65.74c-1.25,0-1.25-1.91,0-1.91h7.08c1.25,0,1.25,1.91,0,1.91h-7.08ZM86.74,47.56l6.13-3.53c1.09-.62.14-2.28-.95-1.65l-6.13,3.53c-1.09.63-.14,2.28.95,1.65ZM73.91,33.99l3.55-6.12c.63-1.09-1.02-2.04-1.65-.96l-3.55,6.12c-.63,1.09,1.02,2.04,1.65.96ZM23.26,81.88l-6.13,3.53c-1.09.62-.14,2.28.95,1.65l6.13-3.53c1.09-.62.14-2.28-.95-1.65ZM18.93,63.72c1.25,0,1.25,1.91,0,1.91h-7.08c-1.25,0-1.25-1.91,0-1.91h7.08ZM24.27,45.81l-6.12-3.55c-1.09-.63-2.04,1.02-.96,1.65l6.12,3.55c1.09.63,2.04-1.02.96-1.65ZM37.84,32.99l-3.53-6.13c-.62-1.09-2.28-.14-1.65.95l3.53,6.13c.62,1.09,2.28.14,1.65-.95ZM56.01,28.65c0,1.25-1.91,1.25-1.91,0v-7.08c0-1.25,1.91-1.25,1.91,0v7.08ZM67.88,94.12h-25.76c-1.53,0-2.34,1.87-1.23,2.98.56.56,1.1.51,1.78.51h25.21c1.53,0,2.34-1.87,1.23-2.98-.32-.31-.75-.51-1.23-.51h0Z"/>
</svg>