<?xml version="1.0" encoding="UTF-8"?>
<svg id="Layer_1" xmlns="http://www.w3.org/2000/svg" version="1.1" viewBox="0 0 1024 1280">
  <!-- Generator: Adobe Illustrator 29.8.2, SVG Export Plug-In . SVG Version: 2.1.1 Build 3)  -->
  <defs>
    <style>
      .st0 {
        stroke: #000;
        stroke-miterlimit: 10;
        stroke-width: 2px;
      }
    </style>
  </defs>
  <path class="st0" d="M667.47,908.65c-17.34,0-34.97-1.7-52.62-5.11-35.64-6.89-58.08-24.49-61.58-48.28-.29-1.99-.45-3.91-.59-5.78-.24-3.03-.57-7.17-1.6-8.12-.81-.74-3.74-1.23-6.09-1.62-1.7-.28-3.46-.58-5.31-1.03-10.49-2.58-19.4-10.13-24.42-20.72-2.95-6.21-4.24-12.8-3.87-19.15-9.58,1.38-19.29,3.21-29.21,5.09-19.8,3.75-40.27,7.63-61.02,7.8h-1.33c-59.35,0-117.65-32.47-148.83-82.99l17.02-10.5c27.61,44.74,79.25,73.5,131.8,73.5h1.17c18.96-.15,37.66-3.7,57.46-7.45,26.54-5.03,53.99-10.23,81.86-6.42,5.58.76,11.04,1.87,16.33,2.95,8.68,1.76,16.88,3.43,25.01,3.52,14.65.19,29.05-4.73,44.29-9.91,5.94-2.02,12.08-4.11,18.27-5.89,23.36-6.72,47.5-9.1,71.72-7.07,34.79,2.91,72.22,21.23,77.41,55.61,2.65,17.57-4.26,36.75-18.48,51.29-10.59,10.83-24.63,19.14-44.18,26.17-26.1,9.37-54.25,14.11-83.21,14.11ZM531.9,796.75c-1.06,3.87-.57,8.44,1.43,12.66,2.4,5.06,6.57,8.75,11.14,9.88,1.11.27,2.42.49,3.81.72,4.96.83,11.14,1.86,16.33,6.62,6.83,6.27,7.51,14.94,8.01,21.28.13,1.61.25,3.12.44,4.45,3.19,21.71,35.7,29.63,45.58,31.55,43.59,8.43,86.91,5.6,125.28-8.19,16.6-5.97,28.25-12.75,36.64-21.33,9.71-9.94,14.7-23.09,13-34.33-3.54-23.46-33.22-36.49-59.29-38.67-21.8-1.82-43.5.32-64.52,6.37-5.74,1.65-11.38,3.57-17.36,5.6-16.16,5.5-32.87,11.17-50.96,10.97-10.02-.11-19.55-2.05-28.76-3.92-5.2-1.06-10.12-2.06-15.06-2.73-8.54-1.17-17.09-1.37-25.71-.93Z"/>
  <path class="st0" d="M609.02,973.38c-8.13,0-16.55-3.78-22.99-10.67-5.38-5.75-8.71-12.6-11.65-18.65-.54-1.12-1.09-2.24-1.64-3.34-6.49-12.97-14.87-24.89-24.91-35.42-9.29-9.73-19.78-18.09-30.88-26.94-7.49-5.97-15.24-12.14-22.57-18.77-23.22-20.97-36.64-42.92-39.89-65.22l19.79-2.88c2.56,17.57,13.83,35.49,33.51,53.26,6.87,6.21,14.37,12.19,21.63,17.97,11.14,8.88,22.66,18.06,32.89,28.77,11.42,11.97,20.95,25.52,28.32,40.27.59,1.17,1.17,2.36,1.74,3.55,2.54,5.24,4.95,10.19,8.26,13.73,3.05,3.26,7.33,5.02,9.96,4.09,4.63-1.63,5.66-11.36,3.49-18.96-.76-2.66-1.72-5.39-2.75-8.28-3.29-9.31-7.01-19.87-4.64-31.36l19.59,4.04c-1.25,6.03,1.26,13.14,3.92,20.66,1.08,3.05,2.19,6.2,3.12,9.45,4.74,16.58.71,37.39-16.07,43.32-2.65.92-5.42,1.38-8.23,1.38Z"/>
  <path class="st0" d="M279.5,735.21c-.21,0-.41-.01-.62-.02l1.16-19.97c-3.72-.22-7.2,1.8-8.89,5.13-1.2,2.36-1.63,5.9.73,8.78-4.95-6.03-12.96-10.48-25.25-14.01-3.25-.94-6.53-1.76-10-2.63-8.31-2.09-16.9-4.25-25.22-8.06-12.66-5.79-22.09-14.77-26.74-25.22-4.52-.93-8.83-2.03-13.05-3.33-14.01-4.31-24.55-10.32-32.22-18.38-6.52-6.86-10.84-15.12-14.55-23.03-5.4-11.52-11.04-25.33-12.04-40.46-1.01-15.28,3.17-29.47,11.57-39.74-1.08-15.87,1.41-31.65,7.43-46.97,6.14-15.63,15.38-29.74,23.57-41.74l.38-.56.45-.5c18.61-20.67,27.89-25.24,56.12-35.2,5.52-19.5,16.78-36.61,32.11-48.62,13.12-10.29,27.59-14.96,40.74-13.36,15.05-19.65,35.43-30.43,53.71-38.41,3.55-1.56,7.79-3.34,12.19-4.77,5.77-1.87,12.04-3.22,19.19-4.15,17.85-2.32,36.43-1.31,53.97,2.9,23.53-11.26,49.87-16.87,76.44-16.23,26.2.63,51.5,7.3,73.5,19.35,18.33-7.21,37.12-8.49,55.94-3.79,18,4.49,33.99,13.84,45.58,26.56,25.34-.96,48.89,5.26,70.05,18.5,21.77,13.63,37.94,33.62,45.01,55.43,30.72,13.48,54.22,42.82,61.91,77.74l-19.53,4.3c-6.54-29.7-27.79-55.32-54.15-65.25l-4.86-1.83-1.3-5.03c-4.85-18.81-18.58-36.45-37.69-48.41-18.89-11.82-40.1-16.95-63.08-15.22l-5.28.4-3.29-4.14c-9.03-11.35-22.6-19.75-38.21-23.64-16.21-4.05-31.79-2.53-47.64,4.63l-4.74,2.14-4.48-2.66c-40.67-24.13-95.04-25.44-138.53-3.35l-3.42,1.74-3.7-.99c-16.1-4.32-33.36-5.47-49.92-3.32-5.92.77-11.02,1.86-15.59,3.34-3.55,1.16-7.08,2.64-10.35,4.08-17.27,7.54-36.59,17.79-49.01,36.71l-4.18,6.36-7.24-2.33c-8.41-2.7-19.51.45-29.69,8.44-13.12,10.29-22.47,25.45-26.31,42.71l-1.21,5.43-5.25,1.83c-30.48,10.65-36.23,13.01-52.48,30.98-7.47,10.98-15.81,23.76-21.09,37.22-5.4,13.74-7.33,27.88-5.76,42.03l.54,4.84-3.48,3.41c-6.35,6.22-9.7,16.61-8.96,27.81.78,11.82,5.59,23.46,10.2,33.3,3.45,7.37,6.63,13.21,10.92,17.72,5.24,5.5,12.97,9.77,23.62,13.05,5.16,1.59,10.5,2.83,16.33,3.8l6.51,1.08,1.56,6.42c1.72,7.06,8.38,13.85,17.82,18.17,6.66,3.05,14,4.89,21.77,6.85,3.48.87,7.08,1.78,10.66,2.81,10.31,2.97,25.18,8.33,35.19,20.57,2.52,3.06,4,8.26,1.63,12.94-1.84,3.6-5.51,5.82-9.5,5.82Z"/>
  <path class="st0" d="M879.62,581.83c-3.56-11.74-8.53-20.23-13.79-29.22-1.36-2.32-2.77-4.72-4.12-7.15l17.46-9.76c1.26,2.25,2.55,4.46,3.92,6.8,5.36,9.15,11.44,19.52,15.68,33.53l-19.15,5.8Z"/>
  <path class="st0" d="M803.57,830.26l-3.92-19.61c31.91-6.38,71.03-26.43,85.13-63.58,8.76-23.05,6.39-48.61,2.87-65.99l-.41-2.04.44-2.04c3.8-17.75,4.64-36.06,2.49-54.43l19.86-2.33c2.33,19.85,1.53,39.65-2.37,58.91,3.81,19.91,5.93,48.43-4.18,75.03-14.22,37.44-52.5,66.6-99.91,76.08Z"/>
  <path class="st0" d="M757.78,640.24c-19.45,0-35.27-15.82-35.27-35.27s15.82-35.27,35.27-35.27,35.27,15.82,35.27,35.27-15.82,35.27-35.27,35.27ZM757.78,589.7c-8.42,0-15.27,6.85-15.27,15.27s6.85,15.27,15.27,15.27,15.27-6.85,15.27-15.27-6.85-15.27-15.27-15.27Z"/>
  <polygon class="st0" points="669.95 772.71 649.95 772.27 651.58 697.95 732.23 614.07 746.65 627.93 671.4 706.19 669.95 772.71"/>
  <path class="st0" d="M674.53,536.03c-19.45,0-35.27-15.82-35.27-35.27s15.82-35.27,35.27-35.27,35.27,15.82,35.27,35.27-15.82,35.27-35.27,35.27ZM674.53,485.49c-8.42,0-15.27,6.85-15.27,15.27s6.85,15.27,15.27,15.27,15.27-6.85,15.27-15.27-6.85-15.27-15.27-15.27Z"/>
  <path class="st0" d="M442.66,443.63c-19.45,0-35.27-15.82-35.27-35.27s15.82-35.27,35.27-35.27,35.27,15.82,35.27,35.27-15.82,35.27-35.27,35.27ZM442.66,393.09c-8.42,0-15.27,6.85-15.27,15.27s6.85,15.27,15.27,15.27,15.27-6.85,15.27-15.27-6.85-15.27-15.27-15.27Z"/>
  <path class="st0" d="M537.69,728.78c-19.45,0-35.27-15.82-35.27-35.27s15.82-35.27,35.27-35.27,35.27,15.82,35.27,35.27-15.82,35.27-35.27,35.27ZM537.69,678.24c-8.42,0-15.27,6.85-15.27,15.27s6.85,15.27,15.27,15.27,15.27-6.85,15.27-15.27-6.85-15.27-15.27-15.27Z"/>
  <path class="st0" d="M625.19,639.48c-19.45,0-35.27-15.82-35.27-35.27s15.82-35.27,35.27-35.27,35.27,15.82,35.27,35.27-15.82,35.27-35.27,35.27ZM625.19,588.94c-8.42,0-15.27,6.85-15.27,15.27s6.85,15.27,15.27,15.27,15.27-6.85,15.27-15.27-6.85-15.27-15.27-15.27Z"/>
  <path class="st0" d="M411.46,724.87c-19.45,0-35.27-15.82-35.27-35.27s15.82-35.27,35.27-35.27,35.27,15.82,35.27,35.27-15.82,35.27-35.27,35.27ZM411.46,674.33c-8.42,0-15.27,6.85-15.27,15.27s6.85,15.27,15.27,15.27,15.27-6.85,15.27-15.27-6.85-15.27-15.27-15.27Z"/>
  <path class="st0" d="M430.73,578.54c-19.45,0-35.27-15.82-35.27-35.27s15.82-35.27,35.27-35.27,35.27,15.82,35.27,35.27-15.82,35.27-35.27,35.27ZM430.73,528c-8.42,0-15.27,6.85-15.27,15.27s6.85,15.27,15.27,15.27,15.27-6.85,15.27-15.27c0-8.42-6.85-15.27-15.27-15.27Z"/>
  <path class="st0" d="M317.63,651.05c-19.45,0-35.27-15.82-35.27-35.27s15.82-35.27,35.27-35.27,35.27,15.82,35.27,35.27-15.82,35.27-35.27,35.27ZM317.63,600.51c-8.42,0-15.27,6.85-15.27,15.27s6.85,15.27,15.27,15.27,15.27-6.85,15.27-15.27-6.85-15.27-15.27-15.27Z"/>
  <path class="st0" d="M819.6,728.26c-19.45,0-35.27-15.82-35.27-35.27s15.82-35.27,35.27-35.27,35.27,15.82,35.27,35.27-15.82,35.27-35.27,35.27ZM819.6,677.72c-8.42,0-15.27,6.85-15.27,15.27s6.85,15.27,15.27,15.27,15.27-6.85,15.27-15.27-6.85-15.27-15.27-15.27Z"/>
  <rect class="st0" x="844.96" y="682.74" width="53.98" height="20" transform="translate(-19.92 25.84) rotate(-1.68)"/>
  <path class="st0" d="M553.86,514.32c-19.45,0-35.27-15.82-35.27-35.27s15.82-35.27,35.27-35.27,35.27,15.82,35.27,35.27-15.82,35.27-35.27,35.27ZM553.86,463.78c-8.42,0-15.27,6.85-15.27,15.27s6.85,15.27,15.27,15.27,15.27-6.85,15.27-15.27-6.85-15.27-15.27-15.27Z"/>
  <polygon class="st0" points="519.83 669.89 507.93 598.96 447.89 565.77 457.57 548.27 526.05 586.12 539.55 666.59 519.83 669.89"/>
  <path class="st0" d="M271.9,545.48c-19.45,0-35.27-15.82-35.27-35.27s15.82-35.27,35.27-35.27,35.27,15.82,35.27,35.27-15.82,35.27-35.27,35.27ZM271.9,494.94c-8.42,0-15.27,6.85-15.27,15.27s6.85,15.27,15.27,15.27,15.27-6.85,15.27-15.27-6.85-15.27-15.27-15.27Z"/>
  <polygon class="st0" points="702.31 507.44 697.29 488.08 739.5 477.15 774.98 428.45 791.14 440.23 751.44 494.71 702.31 507.44"/>
  <polygon class="st0" points="296.56 492.92 280.24 481.36 306.34 444.52 281.43 381.73 300.03 374.35 328.93 447.22 296.56 492.92"/>
  <rect class="st0" x="369.03" y="745.16" width="80.28" height="20" transform="translate(-350.88 1155.17) rotate(-89.31)"/>
  <rect class="st0" x="420.75" y="333.24" width="20" height="49.75" transform="translate(-73.36 113.84) rotate(-13.89)"/>
  <polygon class="st0" points="200.79 678.58 185.57 665.6 229.6 614 288.01 611.74 288.79 631.72 239.12 633.64 200.79 678.58"/>
  <rect class="st0" x="654.37" y="616.8" width="20" height="64.04" transform="translate(-264.21 639) rotate(-43.72)"/>
  <polygon class="st0" points="575.88 458.92 556.96 452.42 575.15 399.48 565.26 338 585 334.82 595.69 401.24 575.88 458.92"/>
</svg>