<?xml version="1.0" encoding="UTF-8"?>
<svg id="Layer_1" xmlns="http://www.w3.org/2000/svg" version="1.1" viewBox="0 0 512 640">
  <!-- Generator: Adobe Illustrator 29.8.2, SVG Export Plug-In . SVG Version: 2.1.1 Build 3)  -->
  <path d="M376,108v4h16v-4c-.02-15.46-12.54-27.98-28-28h-156v16h156c6.62,0,11.99,5.38,12,12Z"/>
  <path d="M136,108c0-6.62,5.38-11.99,12-12h44v-16h-44c-15.46.02-27.98,12.54-28,28v4h16v-4Z"/>
  <path d="M136,532v-132h-16v132c.02,15.46,12.54,27.98,28,28h156v-16h-156c-6.62,0-11.99-5.38-12-12Z"/>
  <path d="M376,532c0,6.62-5.38,11.99-12,12h-44v16h44c15.46-.02,27.98-12.54,28-28v-132h-16v132Z"/>
  <path d="M448,366c0,1.1-.9,2-2,2h-86v16h86c9.94-.01,17.99-8.06,18-18v-126h-16v126Z"/>
  <path d="M446,128H66c-9.94.01-17.99,8.06-18,18v220c.01,9.94,8.06,17.99,18,18h86v-16h-86c-1.1,0-2-.9-2-2v-220c0-1.1.9-2,2-2h380c1.1,0,2,.9,2,2v78h16v-78c-.01-9.94-8.06-17.99-18-18Z"/>
  <path d="M190,256c9.94-.01,17.99-8.06,18-18v-60c-.01-9.94-8.06-17.99-18-18h-92c-9.94.01-17.99,8.06-18,18v60c.01,9.94,8.06,17.99,18,18h92ZM192,238c0,1.1-.9,2-2,2h-26.18l9.6-24h18.58v22ZM192,178v22h-18.58l-9.6-24h26.18c1.1,0,2,.9,2,2ZM146.58,176l12.8,32-12.8,32h-5.17l-12.8-32,12.8-32h5.17ZM98,176h26.18l-9.6,24h-18.58v-22c0-1.1.9-2,2-2ZM96,238v-22h18.58l9.6,24h-26.18c-1.1,0-2-.9-2-2Z"/>
  <path d="M432,188c-.02-15.46-12.54-27.98-28-28h-40c-15.46,0-28,12.54-28,28s12.54,28,28,28h60c4.42,0,8-3.58,8-8v-20ZM416,200h-52c-6.63,0-12-5.37-12-12s5.37-12,12-12h40c6.62,0,11.99,5.38,12,12v12Z"/>
  <rect x="80" y="328" width="40" height="16"/>
  <rect x="136" y="328" width="72" height="16"/>
  <rect x="80" y="288" width="16" height="16"/>
  <rect x="112" y="288" width="16" height="16"/>
  <rect x="144" y="288" width="16" height="16"/>
  <rect x="176" y="288" width="16" height="16"/>
  <rect x="208" y="288" width="16" height="16"/>
  <rect x="384" y="240" width="48" height="16"/>
  <rect x="336" y="240" width="32" height="16"/>
  <path d="M296,318v18c0,4.42,3.58,8,8,8h90c20.98-.02,37.98-17.02,38-38v-18c0-4.42-3.58-8-8-8h-90c-20.98.02-37.98,17.02-38,38ZM416,306c-.01,12.14-9.86,21.99-22,22h-82v-10c.01-12.14,9.86-21.99,22-22h82v10Z"/>
  <path d="M174.75,422.26c.01.09.03.19.05.28,6.61,35.89,26.91,67.79,57.16,89.8l19.4,14.12c2.79,2.03,6.57,2.04,9.38.03l18.49-13.28c30.67-22.03,51.23-54.11,57.9-90.33.02-.09.03-.18.05-.28l6.74-45.44c.54-3.67-1.5-7.22-4.94-8.6l-80-32c-1.91-.76-4.03-.76-5.94,0l-32,12.8,5.94,14.86,29.04-11.61,71.16,28.46-5.79,39.04c-5.95,32.07-24.22,60.52-51.48,80.1l-13.79,9.91-14.73-10.72c-26.88-19.57-44.93-47.84-50.81-79.63l-5.72-38.7,26.13-10.45-5.94-14.86-32,12.8c-3.44,1.38-5.49,4.93-4.94,8.6l6.67,45.09Z"/>
  <path d="M247.81,456.06c2.12,0,4.16-.84,5.66-2.34l48-48-11.31-11.32-42.34,42.35-18.34-18.35-11.32,11.32,24,24c1.5,1.5,3.54,2.35,5.66,2.35Z"/>
</svg>