<?xml version="1.0" encoding="UTF-8"?>
<svg id="Layer_1" xmlns="http://www.w3.org/2000/svg" version="1.1" viewBox="0 0 110 135">
  <!-- Generator: Adobe Illustrator 29.8.2, SVG Export Plug-In . SVG Version: 2.1.1 Build 3)  -->
  <path d="M96.12,62.71c-2.13,0-3.95,1.4-4.56,3.34h-13.82c-.8,0-1.45.65-1.45,1.45s.65,1.45,1.45,1.45h13.83c.61,1.94,2.43,3.34,4.56,3.34,2.64,0,4.79-2.15,4.79-4.79,0-2.64-2.14-4.79-4.79-4.79h0ZM96.12,69.38c-1.04,0-1.89-.85-1.89-1.89s.85-1.89,1.89-1.89,1.89.85,1.89,1.89c0,1.04-.84,1.89-1.89,1.89ZM96.12,38.98c-2.13,0-3.95,1.41-4.56,3.34h-7.89c-.52,0-1,.28-1.25.72l-5.32,9.21h-4.02c-.8,0-1.45.65-1.45,1.45s.65,1.45,1.45,1.45h4.86c.52,0,1-.28,1.25-.72l5.32-9.21h7.05c.61,1.93,2.43,3.34,4.56,3.34,2.64,0,4.79-2.14,4.79-4.79.01-2.63-2.14-4.79-4.79-4.79h0ZM96.12,45.65c-1.04,0-1.89-.85-1.89-1.89s.85-1.89,1.89-1.89,1.89.85,1.89,1.89c0,1.04-.84,1.89-1.89,1.89ZM58.99,41.38h8.83c.52,0,1-.28,1.25-.72l5.54-9.6c.33.07.67.11,1.02.11,2.64,0,4.79-2.15,4.79-4.79,0-2.64-2.13-4.8-4.77-4.8s-4.79,2.15-4.79,4.79c0,1.25.48,2.38,1.25,3.22l-5.12,8.88h-7.99c-.8,0-1.45.65-1.45,1.45-.02.8.64,1.46,1.43,1.46h0ZM75.65,24.48c1.04,0,1.89.85,1.89,1.89s-.85,1.89-1.89,1.89-1.89-.85-1.89-1.89c0-1.04.84-1.89,1.89-1.89ZM75.65,113.4c2.64,0,4.79-2.14,4.79-4.79s-2.15-4.79-4.79-4.79c-.35,0-.7.04-1.02.11l-5.54-9.6c-.25-.45-.73-.72-1.25-.72h-8.83c-.8,0-1.45.65-1.45,1.45s.65,1.45,1.45,1.45h7.99l5.12,8.88c-.78.85-1.25,1.99-1.25,3.22-.01,2.64,2.14,4.78,4.79,4.78h0ZM77.53,108.63c0,1.04-.85,1.89-1.89,1.89s-1.89-.85-1.89-1.89.85-1.89,1.89-1.89,1.89.85,1.89,1.89ZM96.12,86.44c-2.13,0-3.95,1.41-4.56,3.34h-7.05l-5.32-9.21c-.25-.45-.73-.72-1.25-.72h-4.86c-.8,0-1.45.65-1.45,1.45s.65,1.45,1.45,1.45h4.02l5.32,9.21c.25.45.73.72,1.25.72h7.89c.61,1.94,2.43,3.34,4.56,3.34,2.64,0,4.79-2.15,4.79-4.79.01-2.63-2.14-4.79-4.79-4.79h0ZM96.12,93.12c-1.04,0-1.89-.85-1.89-1.89s.85-1.89,1.89-1.89,1.89.85,1.89,1.89c0,1.04-.84,1.89-1.89,1.89ZM10.26,76.33l8.18,1.61,3.33,8.03-4.64,6.93c-.39.57-.3,1.35.18,1.84l10.47,10.47c.49.49,1.25.56,1.84.18l6.93-4.65,8.03,3.33,1.61,8.18c.13.68.73,1.17,1.42,1.17h7.4c.8,0,1.45-.66,1.45-1.45v-19.96c0-.8-.65-1.45-1.45-1.45-12.72,0-23.06-10.35-23.06-23.06s10.35-23.05,23.06-23.05c.8,0,1.45-.65,1.45-1.45v-19.97c0-.8-.64-1.45-1.45-1.45h-7.41c-.7,0-1.29.49-1.42,1.17l-1.61,8.18-8.03,3.34-6.93-4.65c-.57-.39-1.35-.32-1.84.18l-10.47,10.46c-.49.49-.56,1.25-.18,1.84l4.64,6.93-3.33,8.03-8.18,1.61c-.68.13-1.16.72-1.16,1.42v14.82c0,.69.49,1.29,1.17,1.42h0ZM11.99,61.28l7.78-1.53c.48-.09.88-.42,1.06-.87l3.93-9.46c.18-.45.13-.96-.13-1.37l-4.42-6.59,8.79-8.79,6.58,4.42c.41.28.92.33,1.37.13l9.47-3.93c.45-.18.78-.58.87-1.06l1.53-7.78h4.75v17.12c-13.66.75-24.52,12.09-24.52,25.92s10.87,25.16,24.51,25.92v17.1h-4.75l-1.53-7.78c-.09-.48-.42-.88-.87-1.06l-9.47-3.93c-.45-.18-.96-.13-1.37.13l-6.58,4.42-8.79-8.79,4.42-6.58c.28-.41.32-.92.13-1.37l-3.93-9.47c-.18-.45-.58-.78-1.06-.87l-7.78-1.53v-12.41s.01,0,.01,0ZM68.49,52.48c-.08-.09-.16-.16-.25-.22-3.55-3.08-8.17-4.95-13.23-4.95s-9.7,1.87-13.25,4.96c-.08.06-.15.12-.22.2-4.13,3.7-6.73,9.07-6.73,15.04s2.63,11.41,6.82,15.11c.07.07.14.13.21.2,3.54,3.05,8.14,4.9,13.17,4.9s9.61-1.84,13.15-4.89c.09-.06.17-.13.25-.22,4.16-3.7,6.79-9.09,6.79-15.09,0-5.97-2.59-11.32-6.7-15.03h0ZM72.24,66.05h-6.44c-.11-3.2-.61-6.18-1.42-8.78,1.03-.54,2.02-1.17,2.95-1.89,2.74,2.8,4.56,6.52,4.91,10.66h0ZM61.73,51.57c1.18.5,2.3,1.13,3.34,1.88-.55.4-1.12.75-1.71,1.08-.48-1.1-1.02-2.09-1.62-2.96ZM60.71,55.7c-1.37.48-2.8.79-4.25.91v-6.08c1.41.63,2.77,2.14,3.88,4.36.13.27.25.55.38.82h0ZM49.68,54.9c1.11-2.22,2.47-3.73,3.88-4.36v6.08c-1.46-.12-2.89-.43-4.25-.91.11-.29.24-.57.38-.82h0ZM46.65,54.52c-.59-.33-1.16-.68-1.71-1.08,1.03-.75,2.15-1.38,3.34-1.88-.59.88-1.13,1.87-1.62,2.96ZM53.55,59.53v6.52h-6.44c.11-2.72.51-5.3,1.2-7.61,1.67.59,3.44.96,5.24,1.09ZM53.55,68.95v6.65c-1.79.13-3.54.49-5.21,1.08-.7-2.33-1.11-4.96-1.22-7.73h6.44ZM53.55,78.51v5.95c-1.41-.63-2.77-2.14-3.88-4.36-.11-.22-.22-.46-.33-.7,1.35-.46,2.76-.77,4.21-.89h0ZM48.28,83.43c-1.15-.49-2.25-1.1-3.25-1.82.54-.38,1.09-.72,1.66-1.04.47,1.06,1,2.01,1.58,2.86ZM60.33,80.1c-1.11,2.22-2.47,3.73-3.88,4.36v-5.95c1.44.12,2.86.43,4.2.89-.1.25-.21.48-.32.71h0ZM63.31,80.58c.57.32,1.13.66,1.67,1.04-1.01.71-2.1,1.33-3.25,1.82.58-.86,1.11-1.8,1.58-2.86ZM56.45,75.6v-6.65h6.44c-.11,2.77-.53,5.4-1.22,7.73-1.68-.59-3.43-.95-5.21-1.08h0ZM56.45,66.05v-6.52c1.8-.13,3.56-.5,5.25-1.09.67,2.3,1.08,4.89,1.2,7.61h-6.44ZM42.68,55.38c.93.71,1.92,1.35,2.95,1.89-.8,2.59-1.3,5.57-1.42,8.78h-6.44c.35-4.14,2.15-7.86,4.91-10.66h0ZM37.77,68.95h6.44c.12,3.25.63,6.27,1.45,8.89-1.02.53-1.99,1.15-2.91,1.85-2.8-2.8-4.63-6.56-4.98-10.73h0ZM67.26,79.69c-.92-.7-1.9-1.32-2.92-1.85.83-2.62,1.34-5.64,1.45-8.89h6.44c-.34,4.16-2.18,7.92-4.97,10.73h0Z"/>
</svg>