<?xml version="1.0" encoding="UTF-8"?>
<svg id="Layer_1" xmlns="http://www.w3.org/2000/svg" version="1.1" viewBox="0 0 110 135">
  <!-- Generator: Adobe Illustrator 29.8.2, SVG Export Plug-In . SVG Version: 2.1.1 Build 3)  -->
  <defs>
    <style>
      .st0 {
        fill-rule: evenodd;
      }
    </style>
  </defs>
  <path class="st0" d="M34.15,60.75c.38-1.18.84-2.29,1.4-3.38l-2.95-5.34c-.33-.6-.21-1.33.26-1.79h0l5.11-5.11c.51-.51,1.29-.58,1.88-.21l5.25,2.9c1.09-.57,2.21-1.03,3.38-1.4l1.69-5.85c.19-.66.79-1.09,1.45-1.09h0s7.23,0,7.23,0c.73,0,1.35.52,1.48,1.22l1.65,5.73c1.18.38,2.29.84,3.38,1.4l5.34-2.95c.6-.33,1.33-.21,1.79.25l5.11,5.11c.51.51.58,1.29.21,1.88l-2.9,5.25c.57,1.09,1.03,2.21,1.4,3.38l5.85,1.69c.66.19,1.09.79,1.09,1.45h0v7.23c0,.73-.52,1.35-1.22,1.48l-5.73,1.65c-.38,1.17-.84,2.29-1.4,3.38l2.95,5.34c.33.6.21,1.33-.25,1.79l-5.11,5.11c-.51.51-1.29.58-1.88.21l-5.25-2.9c-1.09.57-2.21,1.03-3.38,1.4l-1.69,5.85c-.19.66-.79,1.09-1.45,1.09h0s-7.23,0-7.23,0c-.73,0-1.35-.52-1.48-1.22l-1.65-5.73c-1.18-.38-2.29-.84-3.38-1.4l-5.34,2.95c-.6.33-1.33.21-1.79-.25h0s-5.11-5.11-5.11-5.11c-.51-.51-.58-1.29-.21-1.88l2.9-5.25c-.57-1.09-1.03-2.21-1.4-3.38l-5.85-1.69c-.66-.19-1.09-.79-1.09-1.45h0v-7.23c0-.73.52-1.35,1.22-1.48l5.73-1.66ZM101.63,67.5c0-3.82-2.78-6.99-6.43-7.6-1.5-7.94-5.36-15.23-10.98-20.93l-2.49-6.64c-.4-1.13-1.82-1.36-2.56-.51l-1.52,1.74c-4.45-2.94-9.46-4.99-14.74-6-.39-3.89-3.68-6.93-7.67-6.93s-7.28,3.04-7.67,6.93c-7.91,1.51-15.18,5.36-20.87,10.96l-6.64,2.49c-1.13.4-1.36,1.82-.51,2.56l1.74,1.53c-2.94,4.45-4.99,9.46-6,14.74-3.89.39-6.93,3.68-6.93,7.67s3.04,7.28,6.93,7.67c1.51,7.91,5.36,15.17,10.96,20.86l2.48,6.7h0c.38,1.05,1.78,1.35,2.54.48l1.56-1.76c4.45,2.94,9.46,5,14.75,6,.39,3.89,3.67,6.93,7.66,6.93s7.28-3.04,7.67-6.93c7.91-1.51,15.17-5.36,20.87-10.96l6.69-2.52c1.04-.39,1.33-1.79.46-2.54l-1.74-1.52c2.95-4.46,5.01-9.5,6.01-14.81,3.65-.61,6.43-3.79,6.43-7.61h0ZM92.15,75c-3.4-.8-5.94-3.86-5.94-7.5s2.54-6.7,5.94-7.5c-1.45-7.14-4.92-13.64-9.99-18.82l-6.86-1.57c-1.09-.25-1.6-1.6-.75-2.52l1.08-1.24c-3.96-2.56-8.36-4.35-13.02-5.28-.96,3.17-3.9,5.48-7.38,5.48s-6.43-2.31-7.38-5.48c-7.19,1.43-13.73,4.91-18.94,10.01l-1.58,6.86c-.25,1.09-1.6,1.6-2.52.75l-1.23-1.08c-2.56,3.96-4.35,8.36-5.28,13.02,3.17.96,5.48,3.9,5.48,7.38s-2.31,6.43-5.48,7.38c1.43,7.19,4.91,13.73,10.01,18.94l6.85,1.61c1.07.25,1.62,1.6.71,2.55l-1.04,1.18c3.96,2.56,8.36,4.35,13.02,5.27.96-3.17,3.9-5.48,7.38-5.48s6.43,2.31,7.38,5.48c7.19-1.43,13.73-4.91,18.94-10.01l1.57-6.86c.25-1.09,1.6-1.6,2.52-.75l1.25,1.09c2.55-3.93,4.33-8.29,5.26-12.91h0ZM97.24,70.81c-.87.87-2,1.32-3.14,1.37-.12-.01-.24-.01-.35,0-1.14-.04-2.27-.5-3.14-1.37-2.9-2.9-.91-7.85,3.13-8,.12.01.23.01.35,0,4.05.14,6.04,5.09,3.14,8ZM25.24,43.11l-.27,1.18-.64-.56s-.05-.04-.07-.07l-.82-.72,2.02-.75-.21.91ZM30.85,97.52l1.18.28-.53.6s-.06.07-.09.1l-.73.82-.75-2.02.91.21ZM85.24,91.89l.27-1.19.65.57s.05.05.08.07l.81.71-2.01.76.2-.91ZM79.63,37.5l-1.19-.27.56-.64s.05-.05.07-.08l.71-.82.76,2.02-.91-.21ZM19.39,70.81c-1.83,1.83-4.8,1.83-6.62,0-2.95-2.95-.85-8,3.31-8s6.25,5.05,3.31,8ZM58.56,109.98c-1.83,1.83-4.8,1.83-6.62,0-2.95-2.95-.85-8,3.31-8,4.16,0,6.25,5.05,3.31,8ZM58.56,31.65c-1.83,1.83-4.8,1.83-6.62,0-.85-.85-1.28-1.88-1.36-2.91,0-.02,0-.05,0-.07-.16-2.51,1.75-5.02,4.68-5.02s4.84,2.51,4.68,5.02c0,.02,0,.05,0,.07-.09,1.03-.52,2.06-1.37,2.91h0ZM48.09,67.73l3.64,5.24c.58.84,1.75.86,2.4.11l8.15-9.18c.55-.62.5-1.58-.12-2.13-.62-.55-1.58-.5-2.13.12l-6.91,7.78-2.55-3.67c-.48-.68-1.42-.86-2.1-.38-.68.48-.85,1.42-.38,2.11h0ZM41.18,67.5c0,7.77,6.3,14.07,14.07,14.07s14.07-6.3,14.07-14.07-6.3-14.07-14.07-14.07-14.07,6.3-14.07,14.07ZM47.43,59.69c-4.31,4.31-4.31,11.31,0,15.62s11.31,4.31,15.62,0,4.31-11.31,0-15.62-11.31-4.31-15.62,0ZM37.57,60.18c-.3.72-.55,1.45-.76,2.18-.14.49-.51.89-1.04,1.05l-5.55,1.6v4.97l5.49,1.59c.51.13.94.52,1.09,1.06.36,1.29,1.05,3.06,1.74,4.21.28.45.32,1.04.05,1.53l-2.79,5.06,3.51,3.51,5.06-2.79c.44-.24,1-.26,1.47.01,1.32.75,2.8,1.36,4.27,1.77.49.14.89.51,1.05,1.04l1.6,5.55h4.97l1.59-5.49c.13-.51.52-.94,1.06-1.09,1.29-.36,3.06-1.05,4.21-1.74.45-.28,1.04-.32,1.53-.05l5.06,2.79,3.51-3.51-2.79-5.06c-.24-.44-.26-1,.01-1.47.75-1.32,1.36-2.8,1.77-4.27.14-.49.51-.89,1.04-1.05l5.55-1.6v-4.97l-5.49-1.59c-.51-.13-.94-.52-1.09-1.06-.36-1.29-1.05-3.06-1.74-4.21-.28-.45-.32-1.04-.05-1.53l2.79-5.06-3.51-3.51-5.06,2.79c-.44.24-1,.26-1.47-.01-1.32-.75-2.8-1.36-4.27-1.77-.49-.14-.89-.51-1.05-1.04l-1.6-5.55h-4.97l-1.59,5.49c-.13.51-.52.94-1.06,1.09-1.29.36-3.06,1.05-4.21,1.74-.45.28-1.04.32-1.53.05l-5.06-2.79-3.51,3.51,2.79,5.06c.24.44.26,1-.01,1.47-.37.66-.71,1.36-1.01,2.09h0Z"/>
</svg>