<?xml version="1.0" encoding="UTF-8"?>
<svg id="Layer_1" xmlns="http://www.w3.org/2000/svg" version="1.1" viewBox="0 0 110 135">
  <!-- Generator: Adobe Illustrator 29.8.2, SVG Export Plug-In . SVG Version: 2.1.1 Build 3)  -->
  <defs>
    <style>
      .st0 {
        fill-rule: evenodd;
        stroke: #000;
        stroke-miterlimit: 10;
        stroke-width: .75px;
      }
    </style>
  </defs>
  <path class="st0" d="M24.02,97.47h22.91v-3.89h-22.91v3.89s0,0,0,0ZM48.87,98.44v5.83c0,.54-.43.97-.97.97h-4.71v4.86c0,.54-.43.97-.97.97h-13.5c-.54,0-.97-.44-.97-.98v-4.86h-4.71c-.54,0-.97-.43-.97-.97v-11.66c0-.54.43-.97.97-.97h2.34v-5.67c-3.27-1.78-6.03-4.39-7.97-7.55-1.98-3.23-3.13-7.02-3.13-11.08,0-5.85,2.37-11.15,6.21-14.98,3.84-3.84,9.13-6.21,14.98-6.21s11.15,2.37,14.98,6.21c3.84,3.84,6.21,9.13,6.21,14.98,0,1.02-.07,2.02-.21,3.02-.08.57-.19,1.14-.32,1.7h17.45c.84,0,1.61.34,2.16.9.55.55.9,1.32.9,2.16v11.82c0,.84-.34,1.61-.9,2.16-.55.55-1.32.9-2.16.9h-2.54v13.49c0,.39-.23.73-.56.88l-4.16,2.35c.11.38.17.79.17,1.2,0,1.18-.48,2.25-1.25,3.02-.77.77-1.84,1.25-3.02,1.25s-2.25-.48-3.02-1.25c-.77-.77-1.25-1.84-1.25-3.02s.48-2.25,1.25-3.02c.77-.77,1.84-1.25,3.02-1.25s2.25.48,3.02,1.25c.04.04.08.09.12.13l3.73-2.11v-12.92h-4.88v5.24c0,.39-.23.73-.56.88l-4.16,2.35c.11.38.17.79.17,1.2,0,1.18-.48,2.25-1.25,3.02-.77.77-1.84,1.25-3.02,1.25s-2.25-.48-3.02-1.25c-.77-.77-1.25-1.84-1.25-3.02s.48-2.25,1.25-3.02c.77-.77,1.84-1.25,3.02-1.25s2.25.48,3.02,1.25c.04.04.08.09.12.13l3.73-2.11v-4.68h-11.41c-.84,0-1.61-.34-2.16-.9-.55-.55-.9-1.32-.9-2.16v-2.38c-.16.12-.32.23-.49.34-.56.38-1.14.73-1.75,1.06v5.67h2.34c.54,0,.97.43.97.97v5.84ZM60.57,106.29c-.42.42-.68,1-.68,1.64s.26,1.22.68,1.64c.42.42,1,.68,1.64.68s1.22-.26,1.64-.68c.42-.42.68-1,.68-1.64s-.26-1.22-.68-1.64-1-.68-1.64-.68-1.22.26-1.64.68ZM68.81,48.78c2.28,0,4.35-.93,5.84-2.42,1.5-1.5,2.42-3.56,2.42-5.84s-.93-4.35-2.42-5.84c-1.5-1.5-3.56-2.42-5.84-2.42s-4.35.93-5.84,2.42c-1.5,1.5-2.42,3.56-2.42,5.84s.93,4.35,2.42,5.84c1.5,1.5,3.56,2.42,5.84,2.42ZM64.34,44.99c1.14,1.14,2.73,1.85,4.47,1.85s3.33-.71,4.47-1.85,1.85-2.73,1.85-4.47-.71-3.33-1.85-4.47c-1.14-1.14-2.73-1.85-4.47-1.85s-3.33.71-4.47,1.85c-1.14,1.14-1.85,2.73-1.85,4.47,0,1.75.71,3.33,1.85,4.47ZM64.65,51.39l.63,5.89c.02.52.45.93.97.93h5.12c.49,0,.91-.37.96-.87l.64-5.96c.1-.04.2-.08.29-.12.1-.04.2-.08.29-.12l4.61,3.72c.38.35.98.34,1.35-.03l3.62-3.62c.35-.34.38-.9.07-1.29l-3.76-4.66c.04-.1.09-.2.12-.29.04-.1.08-.2.12-.29l5.89-.63c.52-.02.93-.45.93-.97v-5.12c0-.49-.37-.91-.87-.96l-5.96-.64c-.04-.1-.08-.2-.12-.29-.04-.1-.08-.2-.12-.29l3.72-4.61c.35-.38.34-.98-.03-1.35l-3.62-3.62c-.34-.35-.9-.38-1.29-.07l-4.66,3.76c-.1-.04-.2-.09-.29-.12s-.19-.08-.29-.12l-.63-5.89c-.02-.52-.45-.93-.97-.93h-5.12c-.49,0-.91.37-.96.87l-.64,5.96c-.1.04-.2.08-.29.12-.1.04-.2.08-.29.12l-4.61-3.72c-.38-.35-.98-.34-1.35.03l-3.62,3.62c-.35.34-.38.9-.07,1.29l3.76,4.66c-.04.1-.09.2-.12.29-.04.1-.08.2-.12.29l-5.89.63c-.52.02-.93.45-.93.97v5.12c0,.49.37.91.87.96l5.96.64c.04.1.08.2.12.29.04.1.08.2.12.29l-3.72,4.61c-.35.38-.34.98.03,1.35l3.62,3.62c.34.35.9.38,1.29.07l4.66-3.76c.1.04.2.09.29.12.1.04.2.07.3.11h0ZM65.1,49.48c.24.1.47.19.7.26.38.1.66.43.71.83l.61,5.7h3.37l.61-5.7c.04-.37.29-.7.67-.82.24-.08.49-.17.75-.27.25-.1.49-.21.72-.33.33-.17.75-.14,1.05.11l4.46,3.6,2.39-2.39-3.58-4.44c-.25-.29-.31-.71-.12-1.07.12-.23.23-.47.34-.72.1-.24.19-.47.26-.7.1-.38.43-.66.83-.71l5.7-.61v-3.38l-5.7-.61c-.37-.04-.7-.29-.82-.67-.08-.24-.17-.49-.27-.75-.1-.25-.21-.49-.33-.72-.17-.33-.14-.75.11-1.05l3.6-4.46-2.39-2.39-4.44,3.58c-.29.25-.71.31-1.07.12-.23-.12-.47-.23-.72-.34-.24-.1-.47-.19-.7-.26-.38-.1-.66-.43-.71-.83l-.61-5.7h-3.38l-.61,5.7c-.04.37-.29.7-.67.82-.24.08-.49.17-.75.27-.25.1-.49.21-.72.33-.33.17-.75.14-1.05-.11l-4.46-3.6-2.39,2.39,3.58,4.44c.25.29.31.71.12,1.07-.12.23-.23.47-.34.72-.1.24-.19.47-.26.7-.1.38-.43.66-.83.71l-5.7.61v3.38l5.7.61c.37.04.7.29.82.67.08.24.17.49.27.75.1.25.21.49.33.72.17.33.14.75-.11,1.05l-3.6,4.46,2.39,2.39,4.44-3.58c.29-.25.71-.31,1.07-.12.23.12.48.23.73.34h0ZM38.66,67.42h7.3c.54,0,.97.43.97.97v8.22c0,.54-.43.97-.97.97h-6.33v14.06h3.98v-6.25c0-.36.2-.7.54-.87.71-.36,1.4-.77,2.07-1.22.55-.37,1.08-.77,1.57-1.18v-7c0-.84.34-1.61.9-2.16.55-.55,1.32-.9,2.16-.9h3.28c.16-.64.29-1.3.39-1.98.13-.89.19-1.8.19-2.75,0-5.32-2.15-10.12-5.64-13.6-3.48-3.48-8.29-5.64-13.6-5.64s-10.12,2.15-13.6,5.64c-3.48,3.48-5.64,8.29-5.64,13.6,0,3.69,1.04,7.14,2.84,10.07,1.85,3.01,4.51,5.47,7.66,7.09.35.15.59.49.59.89v6.25h3.98v-14.06h-6.34c-.54,0-.97-.43-.97-.97v-8.22c0-.54.43-.97.97-.97h7.3c.54,0,.97.43.97.97v7.25h4.44v-7.25c0-.54.43-.97.97-.97h0ZM37.69,77.58h-4.44v14.06h4.44v-14.06ZM31.31,69.36h-5.36v6.28h5.36v-6.28ZM39.64,75.64h5.36v-6.28h-5.36v6.28ZM62.22,76.54c-1.24,0-2.36.5-3.18,1.32s-1.32,1.93-1.32,3.18.5,2.36,1.32,3.18,1.93,1.32,3.18,1.32,2.36-.5,3.18-1.32,1.32-1.93,1.32-3.18-.5-2.36-1.32-3.18-1.94-1.32-3.18-1.32ZM64.02,79.23c-.46-.46-1.1-.75-1.8-.75s-1.34.29-1.8.75c-.46.46-.75,1.1-.75,1.8s.29,1.34.75,1.8c.46.46,1.1.75,1.8.75s1.34-.29,1.8-.75c.46-.46.75-1.1.75-1.8s-.29-1.34-.75-1.8ZM41.25,105.24h-11.55v3.89h11.56v-3.89ZM53.75,98.04c-.42.42-.68,1-.68,1.64s.26,1.22.68,1.64c.42.42,1,.68,1.64.68s1.22-.26,1.64-.68c.42-.42.68-1,.68-1.64s-.26-1.22-.68-1.64c-.42-.42-1-.68-1.64-.68s-1.22.26-1.64.68ZM73.57,74h-22.72c-.3,0-.59.12-.79.33-.2.2-.33.48-.33.79v11.82c0,.31.12.59.33.79s.48.33.79.33h22.71c.3,0,.59-.12.79-.33s.33-.48.33-.79v-11.82c0-.31-.12-.59-.32-.79-.2-.21-.48-.33-.79-.33h0ZM92.57,34.76c1.38,4.12,1.57,8.56.59,12.78-.96,4.07-3.03,7.94-6.21,11.12-3.18,3.18-7.05,5.25-11.12,6.21-4.22.99-8.66.8-12.78-.59-.51-.17-1.05.11-1.23.61-.17.51.1,1.05.61,1.23,4.47,1.5,9.27,1.71,13.84.64,4.42-1.04,8.61-3.28,12.06-6.72,3.44-3.44,5.68-7.63,6.72-12.06,1.07-4.56.86-9.37-.64-13.84-.17-.51-.72-.78-1.23-.61-.5.17-.78.72-.61,1.23h0ZM88.57,38.61c.58,2.97.43,6.05-.45,8.96-.85,2.8-2.39,5.43-4.61,7.65s-4.86,3.75-7.65,4.61c-2.9.88-5.99,1.04-8.96.45-.53-.1-1.04.24-1.14.77-.1.53.24,1.04.77,1.14,3.27.64,6.68.48,9.89-.5,3.1-.95,6.02-2.64,8.46-5.08s4.14-5.36,5.08-8.46c.98-3.21,1.14-6.62.5-9.89-.1-.53-.61-.87-1.14-.77-.53.11-.87.62-.77,1.14h0ZM46.93,99.41h-22.91v3.89h18.21s4.71,0,4.71,0v-3.89Z"/>
</svg>