<?xml version="1.0" encoding="UTF-8"?>
<svg id="Layer_1" xmlns="http://www.w3.org/2000/svg" version="1.1" viewBox="0 0 110 135">
  <!-- Generator: Adobe Illustrator 29.8.2, SVG Export Plug-In . SVG Version: 2.1.1 Build 3)  -->
  <path d="M93.96,88.8c-1.54-.46-4.25-1.26-8.47-2.52v-3.21c2.62-2.37,4.11-5.71,4.11-9.27v-.32h1.13c4.12,0,6.5-4.66,4.14-8v-7.32c0-6.81-5.54-12.35-12.35-12.35h-10.86c-2.95,0-5.66,1.04-7.78,2.77-3.25-5.94-8.55-10.68-14.83-13.22-.44-.83-1.26-1.44-2.25-1.59-4.11-.62-3.95-.54-4.01-.7-.09-.24-.2-.48-.3-.72-.07-.16-.13.02,2.34-3.33.91-1.23.79-2.91-.3-4l-2.66-2.67c-1.09-1.09-2.77-1.21-4-.3-3.35,2.47-3.17,2.41-3.33,2.34-.71-.31-.81-.3-.83-.42l-.59-3.89c-.23-1.51-1.51-2.61-3.04-2.61h-3.77c-1.54,0-2.81,1.1-3.04,2.62-.62,4.11-.54,3.95-.7,4.01-.72.28-.79.36-.88.29l-3.16-2.34c-1.23-.91-2.92-.79-4,.3l-2.67,2.67c-1.09,1.09-1.21,2.77-.3,4,2.47,3.35,2.41,3.17,2.35,3.33-.32.72-.3.81-.42.83l-3.89.59c-1.52.23-2.62,1.51-2.62,3.04v3.77c0,1.54,1.1,2.81,2.62,3.04,4.11.62,3.95.54,4.01.7.28.72.36.79.29.88l-2.34,3.17c-.59.8-.74,1.79-.48,2.68-1.57,3.66-2.37,7.55-2.37,11.57,0,10.06,5.05,19.12,13.17,24.5l-8.93,6.27c-.39.27-.62.72-.62,1.2v8.94c-2.52.65-4.38,2.94-4.38,5.66,0,3.22,2.62,5.84,5.84,5.84s5.84-2.62,5.84-5.84c0-2.72-1.86-5.01-4.38-5.66v-8.18l9.4-6.59c3.68,1.89,7.74,2.99,11.97,3.2v11.58c-2.52.65-4.38,2.94-4.38,5.66,0,3.22,2.62,5.84,5.84,5.84s5.84-2.62,5.84-5.84c0-2.72-1.86-5.01-4.38-5.66v-11.58c4.17-.21,8.26-1.3,11.96-3.2l3.9,2.74c-2.64,2.36-4.26,5.79-4.26,9.46v11.94c0,2.53,2.06,4.59,4.59,4.59h42.71c2.54,0,4.59-2.06,4.59-4.59v-11.94c0-5.57-3.73-10.57-9.07-12.16h0ZM16.69,109.2c0,1.61-1.31,2.91-2.91,2.91s-2.91-1.31-2.91-2.91,1.3-2.91,2.91-2.91h0c1.61,0,2.91,1.31,2.91,2.91h0ZM82.56,85.06v1.84c-2.73,3.71-1.73,2.35-5.47,7.45l-5.47-7.45v-1.84c3.56,1.73,7.6,1.62,10.94,0h0ZM69.58,89.08l5.42,7.38-4.73,3.38-3.96-9.79,3.27-.97ZM74.24,108.83h5.71l2.79,5.74h-11.22l2.72-5.74ZM79.74,105.9h-5.31l-1.23-4.55,3.89-2.79,3.89,2.79-1.23,4.55ZM83.9,99.84l-4.73-3.38c1.23-1.68,4.24-5.77,5.42-7.38l3.27.97-3.96,9.79ZM86.67,73.81c0,12.52-19.16,12.74-19.16,0v-10.35c1.97.89,3.84.42,5.43-1,3.48,1.89,8.27,3.5,13.73.77v10.59h0ZM46.71,87.63c2.1-2.35,3.89-5.59,5.22-9.55h7.61c-3.14,4.36-7.59,7.74-12.83,9.55h0ZM11.67,64.1h10.18c.11,3.84.61,7.6,1.5,11.05h-8.55c-1.8-3.32-2.9-7.07-3.12-11.05h0ZM14.52,55.06c1.08,1.09,2.77,1.21,4,.3l3.17-2.34c.09-.07.15.01.88.29.03.01.05.03.07.05-.46,2.52-.72,5.14-.79,7.8h-10.18c.14-2.57.64-5.06,1.5-7.46l1.34,1.35ZM47.21,43.55c.6,1.12,1.14,2.33,1.62,3.64h-4.89c-1.51-2.05-1.53-1.98-1.46-2.13.11-.24.21-.48.3-.72.06-.15,3.97-.66,4.43-.79h0ZM44.53,52.39c.62-.62.93-1.45.9-2.27h4.34c.94,3.41,1.49,7.18,1.6,11.05h-11.83v-5.21c.84.04,1.68-.26,2.32-.9l2.67-2.67ZM64.58,70.57h-1.13c-2.83,0-2.83-4.29,0-4.29h1.13v4.29ZM61.74,50.83c-1.53,2.05-2.43,4.6-2.43,7.35v2.99h-5.01c-.11-3.84-.61-7.6-1.5-11.05h8.57c.12.23.25.47.37.71h0ZM39.53,78.07h9.29c-2.22,6.02-5.62,9.98-9.29,10.83v-10.83ZM39.53,75.15v-11.05h11.83c-.11,3.87-.66,7.64-1.6,11.05h-10.23ZM36.6,61.17h-11.83c.02-.53.04-1.06.07-1.59.43.23.93.36,1.45.36h3.77c1.54,0,2.81-1.1,3.04-2.62.62-4.11.54-3.95.7-4.01.72-.28.79-.36.88-.29l1.91,1.41v6.73ZM24.78,64.1h11.83v11.05h-10.23c-.94-3.41-1.49-7.18-1.6-11.05h0ZM36.6,78.07v10.83c-3.66-.84-7.07-4.81-9.29-10.83h9.29ZM61.37,75.15h-8.57c.88-3.45,1.39-7.21,1.5-11.05h5.01v1.4c-2.07,2.93-.52,7.01,2.95,7.85-.27.61-.57,1.21-.88,1.79h0ZM90.73,70.57h-1.13v-4.29h1.13c2.84,0,2.84,4.29,0,4.29ZM71.66,48.76h10.86c5.2,0,9.42,4.23,9.42,9.42v5.32c-.37-.09-.8-.15-1.21-.15h-1.13v-2.73c0-1.19-1.35-1.88-2.32-1.19-4.3,3.08-8.58,3.05-13.85-.07-.61-.36-1.39-.23-1.86.3-1.45,1.69-2.55,1.8-4.51-.09-.93-.9-2.49-.24-2.49,1.05v2.73c-1.09,0-1.61-.04-2.34.14v-5.32c0-5.19,4.23-9.42,9.42-9.42h0ZM59.53,47.19h-7.6c-.73-2.16-1.61-4.12-2.61-5.86.11-.47.09-.57.09-2.59,4.02,1.91,7.52,4.85,10.12,8.45h0ZM16.25,46.96c.66-.89.78-2.07.33-3.09-.23-.52-.7-2.24-2.66-2.54l-3.89-.59c-.2-.03-.12-.02-.12-3.92,0-.2-.02-.12,4.02-.73,1.94-.29,2.41-1.98,2.66-2.54.45-1.02.33-2.2-.33-3.09-2.4-3.25-2.47-3.21-2.32-3.36,2.74-2.74,2.69-2.8,2.86-2.68l3.17,2.34c1.58,1.17,3.11.3,3.68.09,1.04-.4,1.79-1.33,1.95-2.41l.59-3.89c0-.07.07-.12.14-.12,3.89,0,3.89-.07,3.92.12l.59,3.89c.29,1.94,1.98,2.41,2.54,2.66,1.02.45,2.2.33,3.09-.33,3.26-2.4,3.21-2.47,3.36-2.32,2.73,2.73,2.8,2.69,2.68,2.86l-2.34,3.17c-.66.89-.78,2.07-.33,3.09.23.52.7,2.24,2.66,2.54,4.04.61,4.02.54,4.02.73,0,3.92.07,3.89-.12,3.92l-3.89.59c-1.09.16-2.02.91-2.41,1.95-.21.54-1.09,2.09.09,3.68,2.41,3.26,2.47,3.21,2.32,3.36l-2.67,2.67c-.14.14-.1.08-3.36-2.32-1.59-1.18-3.14-.29-3.68-.09-1.04.4-1.79,1.33-1.95,2.41-.61,4.04-.54,4.02-.73,4.02-3.9,0-3.89.07-3.92-.12l-.59-3.89c-.29-1.94-1.98-2.41-2.54-2.66-1.02-.45-2.2-.33-3.09.33-3.26,2.41-3.21,2.47-3.36,2.32l-2.67-2.67c-.14-.14-.08-.09,2.33-3.35ZM16.64,78.07h7.57c1.33,3.96,3.12,7.19,5.21,9.54-5.18-1.8-9.63-5.18-12.79-9.54ZM40.99,109.2c0,1.61-1.31,2.91-2.91,2.91s-2.91-1.31-2.91-2.91,1.31-2.91,2.91-2.91,2.91,1.31,2.91,2.91ZM54.27,87.13c4.5-2.98,8.09-7.12,10.38-11.98.32,3.05,1.75,5.86,4.04,7.93v3.21l-4.74,1.41h0l-3.73,1.11c-.79.23-1.54.54-2.25.92l-3.69-2.59ZM54.07,112.91v-11.94c0-4.29,2.87-8.13,6.98-9.36l2.45-.73,4.76,11.77c.36.88,1.44,1.2,2.21.64l.19-.14,1.1,4.05-3.48,7.35h-12.54c-.92,0-1.67-.75-1.67-1.66h0ZM100.11,112.91c0,.92-.75,1.66-1.66,1.66h-12.44l-3.58-7.36,1.1-4.05.19.14c.77.55,1.86.23,2.21-.64l4.76-11.77,2.45.73c4.11,1.22,6.98,5.07,6.98,9.36v11.93ZM28.19,46.79c4.45,0,8.07-3.62,8.07-8.07s-3.62-8.07-8.07-8.07-8.07,3.62-8.07,8.07c0,4.45,3.62,8.07,8.07,8.07ZM28.19,33.59c2.83,0,5.14,2.3,5.14,5.13s-2.3,5.14-5.14,5.14-5.14-2.3-5.14-5.14c0-2.83,2.31-5.13,5.14-5.13Z"/>
</svg>