<?xml version="1.0" encoding="UTF-8"?>
<svg id="Layer_1" xmlns="http://www.w3.org/2000/svg" version="1.1" viewBox="0 0 110 135">
  <!-- Generator: Adobe Illustrator 29.8.2, SVG Export Plug-In . SVG Version: 2.1.1 Build 3)  -->
  <defs>
    <style>
      .st0 {
        stroke: #000;
        stroke-miterlimit: 10;
      }
    </style>
  </defs>
  <path class="st0" d="M97.32,59.53l-5.26-.95c-.62-.11-1.07-.52-1.24-1.13-.8-2.84-1.94-5.59-3.39-8.17-.31-.55-.28-1.16.08-1.68l3.05-4.4c.94-1.36.78-3.2-.39-4.37l-6.5-6.5c-1.17-1.17-3.01-1.34-4.37-.39l-4.4,3.05c-.52.36-1.13.39-1.68.08-2.58-1.45-5.33-2.59-8.17-3.39-.61-.17-1.02-.62-1.13-1.24l-.95-5.26c-.3-1.63-1.71-2.81-3.37-2.81h-9.2c-1.66,0-3.07,1.18-3.37,2.81l-.95,5.26c-.11.62-.52,1.07-1.13,1.24-2.84.8-5.59,1.93-8.17,3.39-.55.31-1.16.28-1.68-.08l-4.4-3.05c-1.36-.94-3.2-.78-4.37.39l-6.5,6.5c-1.17,1.17-1.34,3.01-.39,4.37l3.05,4.39c.36.52.39,1.13.08,1.68-1.45,2.58-2.59,5.33-3.39,8.17-.17.61-.62,1.02-1.24,1.13l-5.26.95c-1.63.3-2.81,1.71-2.81,3.37v9.2c0,1.66,1.18,3.07,2.81,3.37l5.26.95c.62.11,1.07.52,1.24,1.13.8,2.84,1.93,5.59,3.39,8.17.31.55.28,1.16-.08,1.68l-3.05,4.4c-.94,1.36-.78,3.2.39,4.37l6.5,6.5c1.17,1.17,3.01,1.34,4.37.39l4.39-3.05c.52-.36,1.13-.39,1.68-.08,2.58,1.45,5.33,2.59,8.17,3.39.61.17,1.02.62,1.13,1.24l.95,5.26c.3,1.63,1.71,2.81,3.37,2.81h9.2c1.66,0,3.07-1.18,3.37-2.81l.95-5.26c.11-.62.52-1.07,1.13-1.24,2.84-.8,5.59-1.93,8.17-3.39.55-.31,1.16-.28,1.68.08l4.4,3.05c1.36.94,3.2.78,4.37-.39l6.5-6.5c1.17-1.17,1.34-3.01.39-4.37l-3.05-4.39c-.36-.52-.39-1.13-.08-1.68,1.45-2.58,2.59-5.33,3.39-8.17.17-.61.62-1.02,1.24-1.13l5.26-.95c1.63-.3,2.81-1.71,2.81-3.37v-9.2c0-1.65-1.18-3.07-2.81-3.36ZM98.29,72.1c0,.78-.54,1.42-1.3,1.55l-5.26.95c-1.32.24-2.32,1.15-2.68,2.45-.76,2.7-1.84,5.31-3.22,7.77-.66,1.17-.59,2.52.17,3.63l3.05,4.39c.44.64.37,1.47-.18,2.02l-6.5,6.5c-.55.55-1.38.62-2.02.18l-4.4-3.05c-1.1-.77-2.46-.83-3.63-.17-2.45,1.38-5.06,2.46-7.76,3.22-1.29.36-2.2,1.36-2.45,2.68l-.95,5.26c-.14.77-.78,1.3-1.55,1.3h-9.2c-.78,0-1.42-.53-1.55-1.29l-.95-5.26c-.24-1.32-1.15-2.32-2.45-2.68-2.7-.76-5.31-1.84-7.77-3.22-.54-.3-1.11-.45-1.69-.45-.68,0-1.34.21-1.94.62l-4.39,3.05c-.64.44-1.47.37-2.02-.18l-6.5-6.5c-.55-.55-.62-1.38-.18-2.02l3.05-4.4c.77-1.1.83-2.46.17-3.63-1.38-2.45-2.46-5.06-3.22-7.76-.36-1.29-1.36-2.21-2.68-2.45l-5.26-.95c-.77-.14-1.3-.78-1.3-1.55v-9.2c0-.78.54-1.42,1.3-1.55l5.26-.95c1.32-.24,2.32-1.15,2.68-2.45.76-2.7,1.84-5.31,3.22-7.77.66-1.17.59-2.53-.17-3.63l-3.05-4.39c-.44-.64-.37-1.47.18-2.02l6.5-6.5c.55-.55,1.38-.62,2.02-.18l4.4,3.05c1.1.77,2.46.83,3.63.17,2.45-1.38,5.06-2.46,7.76-3.22,1.29-.36,2.2-1.36,2.45-2.68l.95-5.26c.14-.77.78-1.3,1.55-1.3h9.2c.78,0,1.42.54,1.55,1.3l.95,5.26c.24,1.32,1.15,2.32,2.45,2.68,2.7.76,5.31,1.84,7.76,3.22,1.17.66,2.53.59,3.63-.17l4.4-3.05c.64-.44,1.47-.37,2.02.18l6.5,6.5c.55.55.62,1.38.18,2.02l-3.05,4.4c-.77,1.1-.83,2.46-.17,3.63,1.38,2.45,2.46,5.06,3.22,7.76.36,1.29,1.36,2.2,2.68,2.45l5.26.95c.77.14,1.3.78,1.3,1.55v9.19ZM55,38.26c-16.12,0-29.24,13.12-29.24,29.24s13.12,29.24,29.24,29.24,29.24-13.12,29.24-29.24-13.12-29.24-29.24-29.24ZM55,94.9c-15.11,0-27.4-12.29-27.4-27.4s12.29-27.4,27.4-27.4,27.4,12.29,27.4,27.4-12.29,27.4-27.4,27.4ZM38.4,51.35c-9.16,9.16-9.16,24.06,0,33.21.17.17.41.27.65.27s.48-.1.65-.27l7.24-7.24c.17-.17.27-.41.27-.65s-.1-.48-.27-.65c-2.15-2.15-3.34-5.02-3.34-8.06s1.19-5.91,3.34-8.06c4.45-4.45,11.68-4.45,16.12,0,2.57,2.57,3.73,6.21,3.2,9.75l-6.92-4.54c-.93-1.41-2.52-2.35-4.34-2.35-2.86,0-5.19,2.33-5.19,5.19s2.33,5.19,5.19,5.19c.37,0,.73-.04,1.07-.11l8.09,1.69c-.34.45-.7.89-1.1,1.29-.17.17-.27.41-.27.65s.1.48.27.65l7.24,7.24c.36.36.94.36,1.3,0,4.43-4.43,6.88-10.33,6.88-16.6s-2.44-12.17-6.88-16.6c-9.16-9.15-24.06-9.15-33.21,0h0ZM40.38,52.03c3.88-3.57,8.75-5.46,13.69-5.66v8.39c-2.79.19-5.52,1.26-7.76,3.21l-5.94-5.94ZM45.01,76.64l-5.95,5.95c-3.57-3.89-5.44-8.77-5.65-13.72h8.39c.2,2.88,1.3,5.59,3.21,7.77h0ZM41.8,67.03h-8.4c.21-4.94,2.1-9.81,5.67-13.69l5.94,5.94c-1.89,2.18-3.01,4.88-3.21,7.76h0ZM55.92,54.76v-8.39c4.94.21,9.81,2.1,13.69,5.66l-5.94,5.94c-2.23-1.95-4.97-3.02-7.76-3.21h0ZM64.99,59.26l5.93-5.93c3.57,3.88,5.46,8.75,5.67,13.7h-8.39c-.2-2.84-1.31-5.58-3.21-7.77h0ZM51.65,67.95c0-1.85,1.5-3.35,3.35-3.35s3.35,1.5,3.35,3.35-1.5,3.35-3.35,3.35c-1.85,0-3.35-1.5-3.35-3.35ZM60.19,67.95s0-.05,0-.09l9.27,6.07-10.85-2.26c.98-.95,1.59-2.27,1.59-3.73h0ZM70.94,82.59l-5.95-5.95c.41-.48.78-.99,1.12-1.52l2.96.62c.12.03.25.04.38.04.73,0,1.41-.44,1.7-1.14.34-.82.05-1.76-.69-2.25l-2.53-1.65c.13-.62.22-1.25.27-1.87h8.38c-.2,4.94-2.07,9.83-5.64,13.72h0ZM55,77.55c-3.74,0-6.79,3.05-6.79,6.79s3.05,6.79,6.79,6.79,6.79-3.05,6.79-6.79-3.04-6.79-6.79-6.79ZM55,89.29c-2.73,0-4.95-2.22-4.95-4.95s2.22-4.95,4.95-4.95,4.95,2.22,4.95,4.95c0,2.73-2.21,4.95-4.95,4.95ZM58.74,81.63c.36.36.36.94,0,1.3l-4.12,4.12c-.17.17-.41.27-.65.27s-.48-.1-.65-.27l-2.06-2.06c-.36-.36-.36-.94,0-1.3.36-.36.94-.36,1.3,0l1.41,1.41,3.47-3.47c.36-.36.95-.36,1.3,0h0Z"/>
</svg>