<?xml version="1.0" encoding="UTF-8"?>
<svg id="Layer_1" xmlns="http://www.w3.org/2000/svg" version="1.1" viewBox="0 0 110 135">
  <!-- Generator: Adobe Illustrator 29.8.2, SVG Export Plug-In . SVG Version: 2.1.1 Build 3)  -->
  <path d="M73.85,84.44c0,.7-.6,1.3-1.3,1.3h-36.4c-.7,0-1.3-.6-1.3-1.3v-33.6c0-.7.6-1.3,1.3-1.3s1.3.6,1.3,1.3v32.3h35c.8,0,1.4.6,1.4,1.3h0ZM74.65,57.94c.4.4.5,1,.3,1.5s-.7.8-1.2.8h-2.6v20.4c0,.7-.6,1.3-1.3,1.3h-29.49c-.7,0-1.3-.6-1.3-1.3v-5c0-.7.6-1.3,1.3-1.3h4.6v-2c0-.7.6-1.3,1.3-1.3h4.6v-3.7c0-.7.6-1.3,1.3-1.3h4.6v-2c0-.7.6-1.3,1.3-1.3h4.6v-2.3h-2.71c-.5,0-1-.3-1.2-.8s-.1-1.1.3-1.5l6.9-6.7c.5-.5,1.3-.5,1.9,0l6.8,6.5ZM41.65,79.24h3.2v-2.3h-3.2v2.3ZM47.55,79.24h3.2v-5.6h-3.2v5.6ZM53.45,79.24h3.2v-10.6h-3.2v10.6ZM59.35,79.24h3.2v-14h-3.2v14ZM70.45,57.54l-3.6-3.5-3.6,3.5h.7c.7,0,1.3.6,1.3,1.3v20.4h3.2v-20.3c0-.7.6-1.3,1.3-1.3h.7v-.1ZM99.55,86.94c.5.5.5,1.4,0,1.9-.3.3-.6.4-1,.4s-.7-.1-1-.4l-8-8-9.7,9.8,2.9,2.9c1.3-.5,2.9-.3,4,.7.7.7,1.1,1.6,1.1,2.6s-.4,1.9-1.1,2.6c-.7.7-1.6,1.1-2.6,1.1s-1.9-.4-2.6-1.1c-.7-.7-1.1-1.6-1.1-2.6,0-.5.1-1,.3-1.4l-2.79-2.9-9.8,9.8,8,8c.5.5.5,1.4,0,1.9-.3.3-.6.4-1,.4s-.7-.1-.9-.4l-8-8-4.5,4.5c-.1.1-1.7,1.7-4.2,2.5-.8.3-1.8.5-2.8.5-2,0-4.3-.7-6.5-3l-4.5-4.5-8,8c-.3.3-.6.4-.9.4s-.7-.1-.9-.4c-.5-.5-.5-1.4,0-1.9l8-8-10-9.8-2.8,2.8c.2.4.3.9.3,1.4,0,1-.4,1.9-1.1,2.6-.7.7-1.6,1.1-2.6,1.1s-1.9-.4-2.6-1.1c-.7-.7-1.1-1.6-1.1-2.6s.4-1.9,1.1-2.6c1-1,2.6-1.3,4-.8l2.9-2.9-9.8-9.8-8,8c-.3.3-.6.4-.9.4s-.7-.1-.9-.4c-.5-.5-.5-1.4,0-1.9l8-8-4.5-4.5c-2.3-2.3-5.4-8.2,0-13.6l4.5-4.5-8-8c-.5-.5-.5-1.4,0-1.9s1.4-.5,1.9,0l8,8,9.8-9.8-2.8-2.8c-.4.2-.9.3-1.4.3-1,0-1.9-.4-2.6-1.1-.7-.7-1.1-1.6-1.1-2.6s.4-1.9,1.1-2.6c1.4-1.4,3.7-1.4,5.1,0,.7.7,1.1,1.6,1.1,2.6,0,.5-.1,1-.3,1.4l2.8,2.8,9.8-9.8-8-8c-.5-.5-.5-1.4,0-1.9s1.4-.5,1.9,0l8,8,4.5-4.5c2.3-2.3,8.2-5.4,13.6,0l4.5,4.5,8-8c.5-.5,1.4-.5,1.9,0s.5,1.4,0,1.9l-8,8,9.8,9.8,2.8-2.8c-.2-.4-.3-.9-.3-1.4,0-1,.4-1.9,1.1-2.6,1.4-1.4,3.7-1.4,5.1,0,.7.7,1.1,1.6,1.1,2.6s-.4,1.9-1.1,2.6c-.7.7-1.6,1.1-2.6,1.1-.5,0-1-.1-1.4-.3l-2.9,3,9.8,9.8,8-8c.5-.5,1.4-.5,1.9,0s.5,1.4,0,1.9l-8,8,4.5,4.5c.1.1,1.7,1.7,2.5,4.2.8,2.4,1,5.9-2.5,9.4l-4.5,4.5,8,8ZM83.15,38.54c0,.2.1.5.3.7.3.3,1,.3,1.3,0,.2-.2.3-.4.3-.7s-.1-.5-.3-.7-.4-.3-.7-.3-.5.1-.7.3c-.1.2-.2.4-.2.7h0ZM26.45,39.14c.2-.2.3-.4.3-.7s-.1-.5-.3-.7c-.2-.2-.4-.3-.7-.3s-.5.1-.7.3c-.2.2-.3.4-.3.7s.1.5.3.7c.5.4,1.1.4,1.4,0h0ZM26.75,96.75c0-.2-.1-.5-.3-.7-.2-.2-.4-.3-.7-.3s-.5.1-.7.3-.3.4-.3.7.1.5.3.7c.3.3,1,.3,1.3,0,.3-.2.4-.4.4-.7h0ZM84.05,95.84c-.2,0-.5.1-.7.3s-.3.4-.3.7.1.5.3.7c.3.3,1,.3,1.3,0,.2-.2.3-.4.3-.7s-.1-.5-.3-.7c-.1-.2-.3-.3-.6-.3h0ZM94.15,72.54c2-2,2.7-4.3,1.9-6.6-.6-1.8-1.8-3.1-1.9-3.1l-17.2-17.19-17.1-17.2c-4.8-4.8-9.6-.2-9.8,0L15.75,62.75c-.5.5-4.7,5,0,9.8l5.5,5.5,11.7,11.6,17.2,17.2c.5.5,5,4.7,9.8,0l34.2-34.3Z"/>
</svg>