<?xml version="1.0" encoding="UTF-8"?>
<svg id="Layer_1" xmlns="http://www.w3.org/2000/svg" version="1.1" viewBox="0 0 110 135">
  <!-- Generator: Adobe Illustrator 29.8.2, SVG Export Plug-In . SVG Version: 2.1.1 Build 3)  -->
  <defs>
    <style>
      .st0 {
        fill-rule: evenodd;
        stroke: #000;
        stroke-miterlimit: 10;
        stroke-width: .5px;
      }
    </style>
  </defs>
  <path class="st0" d="M55.95,91.09v8.38c9.88-7.6,21.68-11.79,34.12-12.32l-4.45-5.57c-5.93-.58-11.99.14-17.26,1.85-5.22,1.69-9.66,4.35-12.4,7.66h0ZM73.93,38.67c-1.09.63-2.04-1.02-.96-1.65l4.3-2.48c1.09-.63,2.04,1.02.96,1.65l-4.3,2.48ZM66.34,30.65c-.63,1.09-2.28.13-1.65-.96l2.48-4.3c.63-1.09,2.28-.13,1.65.96l-2.48,4.3ZM37.01,37.67c.46.26.61.84.35,1.3-.26.46-.84.61-1.3.35l-4.3-2.48c-.46-.26-.61-.84-.35-1.3.26-.46.84-.61,1.3-.35l4.3,2.48ZM45.02,30.08c.62,1.09-1.02,2.04-1.65.95l-2.48-4.3c-.26-.46-.11-1.04.35-1.3.46-.26,1.04-.11,1.3.35l2.48,4.3ZM55.76,27.51c0,1.26-1.91,1.26-1.91,0v-4.96c0-1.26,1.91-1.26,1.91,0v4.96ZM59.17,74.85c.97-.14,1.75-.94,1.75-1.93v-1.86c.43-.06.81-.25,1.11-.52h0c.39-.35.63-.85.63-1.41,0-.43.03-1.81-.04-2.15l-.02-.68c0-1.34-.02-3.62,3.43-6.87,3.41-3.21,5.39-7.71,5.39-12.48,0-9.57-7.28-15.6-16.63-15.6-9.35,0-16.63,6.03-16.63,15.6,0,4.77,1.98,9.27,5.39,12.48,3.43,3.23,3.52,5.53,3.58,6.89.01.29.02.54.05.79-.01.1-.02.18-.02.23v1.8c0,1,.78,1.8,1.75,1.93v1.86c0,.99.79,1.79,1.75,1.93v1.86c0,.55.24,1.05.63,1.41h0c.37.34.87.55,1.41.55h4.38c1.1,0,2.05-.86,2.05-1.95v-1.86ZM52.74,74.88h4.39c.05,0,.1.02.12.04v1.8s-.13.04-.13.04h-4.38c-.05,0-.1-.02-.13-.05h0s0-1.8,0-1.8c.03-.02.07-.04.13-.04ZM50.99,69.17h-1.75c-.05,0-.1-.02-.13-.04v-1.79s.13-.05.13-.05h11.37l.14.05v1.79s-.08.04-.14.04h-9.62ZM50.99,71.08h7.89c.05,0,.1.02.12.04v1.8s-.13.04-.13.04h-6.13c-.23,0-1.79.04-1.88-.04v-1.8s0,0,0,0c.02-.03.07-.05.12-.05h0ZM53.61,47.87v-1.11c0-1.66-1.36-3.02-3.02-3.02h-.64c-.83,0-1.59.34-2.13.89-1.91,1.91-.53,5.15,2.13,5.15h1.74v15.59h-2.68c-.14-1.68-.75-4.16-4.13-7.35-3.05-2.87-4.79-6.83-4.79-11.09,0-8.51,6.42-13.69,14.72-13.69s14.71,5.18,14.71,13.69c0,4.26-1.74,8.22-4.79,11.09-3.38,3.18-3.93,5.66-4.01,7.35h-2.77s0-15.6,0-15.6h1.71c.83,0,1.59-.34,2.13-.89,1.91-1.91.53-5.15-2.13-5.15h-.64c-.83,0-1.59.34-2.13.89-1,1-.89,1.99-.89,3.24h-2.39ZM56.04,49.78v15.59h-2.43v-15.59h2.43ZM59.66,45.66c.3,0,.58.12.78.32.71.71.18,1.89-.78,1.89h-1.74v-1.11c0-.3.12-.58.32-.78.41-.4.86-.32,1.42-.32h0ZM50.59,45.66c.61,0,1.11.5,1.11,1.11v1.11h-1.74c-.96,0-1.49-1.18-.78-1.89.4-.4.85-.32,1.42-.32h0ZM49.1,67.34h0ZM51.22,99.76c-9.74-6.95-21.26-10.61-33.25-10.76-.8-.01-1.22-.93-.73-1.55l5.89-7.38c.17-.21.41-.34.67-.36,6.32-.68,12.79.07,18.42,1.9,5.25,1.7,9.78,4.35,12.78,7.67,3-3.32,7.52-5.96,12.77-7.67,5.63-1.82,12.11-2.57,18.42-1.9.25.02.5.14.67.36l5.89,7.38c.49.61.06,1.54-.73,1.55-11.99.15-23.52,3.81-33.25,10.76,11.35-6.34,21.64-8.92,35.15-8.57.53.01.94.45.93.98s-.45.94-.98.93c-13.07-.33-22.96,2.12-33.95,8.21,12.94-5.12,22.05-7.15,36.64-4.9,1.25.19.95,2.08-.29,1.89-13.24-2.04-21.86-.48-33.49,3.95,13.58-3.43,22.25-2.71,35.72-.55.52.08.88.57.79,1.09-.08.52-.57.88-1.09.79-12.38-1.98-20.59-2.78-32.87.02l33.82,3.58c1.66.18,2.88,1.67,2.71,3.34-.1.93-.43,1.64-1.13,2.2-.6.49-1.39.75-2.22.66l-38.82-4.11c-2.52,2.21-6.83,2.21-9.36,0l-38.82,4.1c-1.66.18-3.16-1.04-3.34-2.7-.1-.93.08-1.68.64-2.38.49-.61,1.21-1.03,2.05-1.11l33.82-3.58c-12.28-2.8-20.49-2-32.87-.02-.52.08-1.01-.27-1.09-.79-.08-.52.27-1.01.79-1.09,13.47-2.16,22.14-2.88,35.72.55-11.63-4.43-20.25-5.99-33.49-3.95-1.25.19-1.54-1.7-.29-1.89,14.58-2.25,23.7-.21,36.64,4.9-11-6.1-20.88-8.54-33.95-8.21-.53.01-.96-.4-.98-.93-.01-.53.4-.96.93-.98,13.5-.34,23.78,2.24,35.14,8.57h0ZM54.04,91.09c-2.74-3.31-7.18-5.97-12.4-7.66-5.27-1.71-11.33-2.43-17.26-1.85l-4.45,5.57c12.43.54,24.23,4.73,34.12,12.32v-8.38ZM48.66,105.09l-37.62,3.98c-1.49.16-1.24,2.56.26,2.4l37.69-3.99c-.33-.75-.45-1.57-.33-2.39h0ZM61.33,105.09c.12.82,0,1.64-.33,2.39l37.69,3.99c1.5.16,1.75-2.25.26-2.4l-37.62-3.98ZM58.24,103.45c-2.81-2.21-7.71-.66-7.71,2.26s4.9,4.46,7.71,2.26c1.62-1.28,1.62-3.24,0-4.52Z"/>
</svg>