<?xml version="1.0" encoding="UTF-8"?>
<svg id="Layer_1" xmlns="http://www.w3.org/2000/svg" version="1.1" viewBox="0 0 110 135">
  <!-- Generator: Adobe Illustrator 29.8.2, SVG Export Plug-In . SVG Version: 2.1.1 Build 3)  -->
  <defs>
    <style>
      .st0 {
        fill-rule: evenodd;
        stroke: #000;
        stroke-miterlimit: 10;
        stroke-width: .25px;
      }
    </style>
  </defs>
  <path class="st0" d="M11.28,25.79h87.44c2.02,0,3.64,1.64,3.65,3.65v60.3c0,2.02-1.63,3.65-3.65,3.65h-32.6v4.88h5.96c3.34,0,6.04,2.71,6.05,6.05v3.77c0,.61-.5,1.11-1.11,1.11h-44.02c-.3,0-.58-.12-.79-.33-.21-.21-.33-.49-.32-.79v-3.77c0-3.34,2.71-6.05,6.05-6.05h5.96v-4.88H11.28c-2.02,0-3.65-1.64-3.65-3.65V29.44c0-2.01,1.63-3.64,3.65-3.65h0ZM53.38,41.39l2.82-.3-8.23,6.91h0c-1.75-1.29-4.17-1.11-5.7.43-.12.13-.25.26-.36.4l-4.23-1.82c.2-1.35-.23-2.72-1.18-3.71-.95-.98-2.3-1.46-3.66-1.31-1.36.16-2.56.94-3.26,2.12s-.81,2.61-.3,3.88l-6.03,4.47c-1.71-1.38-4.19-1.27-5.77.26-1.59,1.53-1.79,3.99-.48,5.76,1.31,1.77,3.73,2.29,5.64,1.21,1.92-1.07,2.74-3.41,1.93-5.45l6.03-4.47h0c1.74,1.4,4.26,1.27,5.84-.32.13-.13.25-.26.36-.4l4.23,1.82c-.2,1.37.25,2.75,1.22,3.73.97.98,2.35,1.45,3.72,1.26,1.37-.19,2.57-1.02,3.23-2.23.67-1.21.72-2.66.16-3.92l8.28-6.95-.78,2.75c-.15.59.2,1.18.77,1.34.58.16,1.18-.16,1.36-.73l1.77-6.23c.1-.36.02-.73-.22-1.02-.23-.28-.6-.43-.96-.39l-6.43.7h0c-.29.03-.57.17-.75.4-.19.23-.28.52-.25.82.03.29.18.57.41.75.23.18.53.27.82.23h0ZM66.79,70.57h24.65c.3,0,.59-.11.81-.31.21-.21.34-.5.34-.8s-.12-.59-.34-.8c-.21-.21-.51-.32-.81-.31h-24.65c-.3-.01-.59.1-.81.31-.21.21-.34.5-.34.8s.12.59.34.8c.22.21.51.32.81.31ZM66.79,82.28h24.65c.3,0,.59-.11.81-.31.21-.21.34-.5.34-.8s-.12-.59-.34-.8c-.21-.21-.51-.32-.81-.31h-24.65c-.3,0-.59.11-.81.31-.21.21-.34.5-.34.8s.12.59.34.8c.22.21.51.32.81.31ZM66.79,76.43h24.65c.61,0,1.11-.5,1.11-1.11s-.5-1.11-1.11-1.11h-24.65c-.61,0-1.11.5-1.11,1.11s.5,1.11,1.11,1.11h0ZM78.16,53.48l-4.64,8.05c1.56.77,3.28,1.17,5.02,1.17,5.45,0,10.12-3.87,11.14-9.21h-11.51ZM71.63,60.35l4.78-8.28v-11.85c-4.12.79-7.47,3.79-8.71,7.8-1.23,4.02-.15,8.38,2.82,11.35.35.35.72.68,1.12.98h0ZM80.88,36.65h0c-.05,0-.1-.01-.14-.01-.29,0-.58.12-.79.32-.21.21-.32.49-.32.79v11.4c0,.61.5,1.11,1.11,1.11h11.48c.29-.02.57-.16.76-.39.19-.22.29-.51.26-.8-.53-6.6-5.76-11.85-12.35-12.41h0ZM87.74,42.14h0c-1.61-1.61-3.66-2.7-5.89-3.12v9.02h9.02c-.42-2.23-1.51-4.29-3.12-5.89h0ZM78.62,38.96v-.09h0c-.05-.61-.58-1.07-1.19-1.02-7.23.6-12.71,6.8-12.42,14.05.29,7.25,6.25,12.99,13.51,13,7.04,0,12.9-5.39,13.5-12.4,0-.05.01-.09.01-.14,0-.61-.5-1.11-1.11-1.11h-12.3v-12.29h0ZM22.03,54.35c-.73-.73-1.88-.85-2.73-.27-.86.57-1.2,1.67-.8,2.62.39.96,1.41,1.5,2.42,1.3,1.01-.2,1.75-1.09,1.75-2.12,0-.57-.23-1.12-.63-1.53h0ZM46.89,49.99c-.73-.73-1.87-.84-2.73-.27-.86.57-1.2,1.67-.8,2.63.39.95,1.41,1.5,2.42,1.3s1.74-1.09,1.75-2.12c0-.57-.23-1.12-.63-1.53h0ZM34.87,44.81c-.73-.73-1.88-.84-2.73-.27-.86.57-1.2,1.68-.8,2.63.39.95,1.41,1.5,2.42,1.3,1.01-.2,1.74-1.09,1.74-2.12,0-.57-.23-1.12-.63-1.53h0ZM53.45,50.87c-.61,0-1.11.5-1.11,1.11v31.31c0,.61.5,1.11,1.11,1.11h7.87c.61,0,1.11-.5,1.11-1.11v-31.31c0-.61-.5-1.11-1.11-1.11h-7.87ZM60.2,53.09h-5.64v29.09h5.64v-29.09h0ZM41.43,60.49c-.29,0-.57.12-.79.32-.21.21-.32.49-.32.79v21.69c0,.61.5,1.11,1.11,1.11h7.86c.61,0,1.11-.5,1.11-1.11v-21.68c0-.3-.12-.58-.32-.79-.21-.21-.49-.33-.79-.33h-7.86ZM48.18,62.71h-5.64v19.47h5.64v-19.47ZM29.41,55.31c-.61,0-1.11.5-1.11,1.11v26.87c0,.61.5,1.11,1.11,1.11h7.87c.61,0,1.11-.5,1.11-1.11v-26.87c0-.61-.5-1.11-1.11-1.11h-7.87ZM36.16,57.53h-5.64v24.65h5.64v-24.65ZM17.39,67.92c-.61,0-1.11.5-1.11,1.11v14.27c0,.61.5,1.11,1.11,1.11h7.86c.29,0,.58-.11.79-.32.21-.21.32-.49.32-.79v-14.27c0-.61-.5-1.11-1.11-1.11h-7.86ZM24.14,70.13h-5.64v12.04h5.64v-12.04ZM63.89,93.4h-17.78v4.88h17.78v-4.88ZM72.07,100.5h-34.14c-2.11,0-3.82,1.72-3.83,3.83v2.65h41.8v-2.66c0-2.11-1.71-3.82-3.83-3.83h0ZM13.96,29.75c-.63,0-1.23.25-1.67.7h0c-.45.45-.7,1.05-.7,1.68v54.94c0,.62.25,1.23.7,1.67h0c.45.45,1.05.7,1.68.71h82.08c.63,0,1.23-.25,1.67-.7h0c.45-.45.7-1.05.7-1.68v-54.94c0-1.31-1.07-2.38-2.38-2.38H13.96ZM96.03,31.97H13.96s-.08.02-.11.04c-.03.03-.05.07-.04.11v54.94s.01.08.04.11c.03.03.07.05.11.04h82.08s.08-.01.11-.04c.03-.03.05-.07.04-.11v-54.94c0-.09-.07-.16-.16-.16h0ZM98.72,28.02H11.28c-.79,0-1.43.64-1.43,1.43v60.3c0,.79.64,1.43,1.43,1.43h87.44c.79,0,1.43-.64,1.43-1.43V29.44c0-.79-.64-1.42-1.43-1.43Z"/>
</svg>