<?xml version="1.0" encoding="UTF-8"?>
<svg id="Layer_1" xmlns="http://www.w3.org/2000/svg" version="1.1" viewBox="0 0 100 125">
  <!-- Generator: Adobe Illustrator 29.8.2, SVG Export Plug-In . SVG Version: 2.1.1 Build 3)  -->
  <defs>
    <style>
      .st0 {
        stroke: #000;
        stroke-miterlimit: 10;
      }
    </style>
  </defs>
  <path class="st0" d="M44.59,56.63l-11.7,5c-.67.31-.95,1.1-.64,1.77.13.28.36.51.64.64l6.48,2.67v4.51c0,.48.26.93.69,1.15,1.51.77,3.18,1.18,4.87,1.18h.21c1.63-.04,3.22-.44,4.67-1.18.41-.22.67-.64.68-1.11l.15-4.64h0l2.09-.89v3.68l-.65,1.36c-.23.5-.02,1.1.48,1.33.14.06.28.09.43.09.14,0,.28-.04.41-.1.14.08.3.13.47.14h.13c.14-.02.28-.07.41-.14h.24c.18,0,.36-.05.52-.14.47-.28.63-.9.35-1.37,0,0,0,0,0,0l-.75-1.25v-4.46l2.41-1c.67-.31.95-1.1.64-1.77-.13-.28-.36-.51-.64-.64l-11.66-4.8c-.29-.14-.62-.15-.92-.02ZM45.11,71.53c-1.29.03-2.56-.24-3.73-.77v-3.29l3.27,1.35c.14.06.29.09.44.09.16,0,.31-.04.46-.1l3.07-1.31-.1,3.26c-1.07.48-2.23.75-3.41.77ZM54,63.02c-5.23-1.41-8.61-2.3-8.61-2.3-.54-.14-1.08.18-1.22.72s.18,1.08.72,1.22h0s2.34.61,6.14,1.63l-1.8.76c-.06.03-.11.07-.16.11l-3.93,1.68-4.34-1.79c-.06,0-.12,0-.18,0l-5.38-2.21,9.86-4.19,9.8,4-.89.37Z"/>
  <path class="st0" d="M89,59.08c-2.89.02-5.35,2.1-5.86,4.95h-19.67c-.28-5.3-2.83-10.22-7-13.51l8.71-8.72c.54.31,1.15.48,1.77.48,2.05.02,3.73-1.64,3.75-3.69.02-2.05-1.64-3.73-3.69-3.75s-3.73,1.64-3.75,3.69c0,.66.17,1.31.49,1.88l-9,9c-5.93-3.74-13.48-3.76-19.43-.06L15.9,29.83c.71-1,1.1-2.19,1.1-3.42-.03-3.29-2.71-5.93-6-5.9-3.29.03-5.93,2.71-5.9,6,.03,3.27,2.68,5.9,5.95,5.9,1.23,0,2.43-.38,3.43-1.1l19.2,19.1c-4.23,3.28-6.82,8.24-7.11,13.58h-5.71c-.55-1.94-2.58-3.07-4.52-2.52-1.94.55-3.07,2.58-2.52,4.52.55,1.94,2.58,3.07,4.52,2.52,1.22-.35,2.17-1.3,2.52-2.52h5.71c.21,4.23,1.87,8.27,4.7,11.42l-16.2,16.2c-2.69-1.93-6.44-1.31-8.37,1.39-1.93,2.69-1.31,6.44,1.39,8.37s6.44,1.31,8.37-1.39c1.49-2.08,1.5-4.87.02-6.95l16.2-16.21c7.1,6.41,17.93,6.32,24.92-.22l6.19,6.47c-.34.55-.51,1.18-.52,1.83,0,2.02,1.63,3.66,3.65,3.67s3.66-1.63,3.67-3.65c0-2.02-1.63-3.66-3.65-3.67,0,0,0,0,0,0-.59,0-1.18.15-1.7.43l-6.23-6.55c2.69-3.1,4.26-7,4.48-11.1h19.61c.55,3.24,3.63,5.42,6.87,4.87s5.42-3.63,4.87-6.87c-.48-2.84-2.94-4.93-5.82-4.95ZM67,36.96c.92,0,1.66.74,1.66,1.66s-.74,1.66-1.66,1.66-1.66-.74-1.66-1.66c0-.89.7-1.62,1.59-1.66h.07ZM11.05,30.35c-2.21.03-4.02-1.74-4.05-3.95-.03-2.21,1.74-4.02,3.95-4.05s4.02,1.74,4.05,3.95c0,.04,0,.07,0,.11-.03,2.17-1.78,3.91-3.95,3.94ZM17.36,66.69c-.92.01-1.67-.72-1.68-1.64-.01-.92.72-1.67,1.64-1.68.92-.01,1.67.72,1.68,1.64,0,0,0,.01,0,.02,0,.91-.73,1.65-1.64,1.66ZM11.63,102.41c-2.21.03-4.02-1.74-4.05-3.95-.03-2.21,1.74-4.02,3.95-4.05,2.21-.03,4.02,1.74,4.05,3.95,0,.02,0,.03,0,.05,0,2.19-1.76,3.97-3.95,4ZM68.63,86.9c0,.92-.73,1.66-1.65,1.67s-1.66-.73-1.67-1.65.73-1.66,1.65-1.67c0,0,0,0,0,0,.88.02,1.59.73,1.62,1.61l.04.04ZM45,81.53c-4.34,0-8.5-1.71-11.59-4.76,0-.03,0-.06,0-.09-.03-.02-.06-.04-.09-.06-6.4-6.48-6.32-16.92.16-23.32,6.48-6.4,16.92-6.32,23.32.16,6.4,6.48,6.32,16.92-.16,23.32-3.1,3.06-7.28,4.77-11.64,4.75ZM89,68.98c-2.18-.03-3.93-1.82-3.9-4,.03-2.18,1.82-3.93,4-3.9,2.14.03,3.87,1.76,3.9,3.9,0,2.21-1.79,4-4,4Z"/>
</svg>