<?xml version="1.0" encoding="UTF-8"?>
<svg id="Layer_1" xmlns="http://www.w3.org/2000/svg" version="1.1" viewBox="0 0 110 135">
  <!-- Generator: Adobe Illustrator 29.8.2, SVG Export Plug-In . SVG Version: 2.1.1 Build 3)  -->
  <defs>
    <style>
      .st0 {
        fill-rule: evenodd;
        stroke: #000;
        stroke-miterlimit: 10;
        stroke-width: .75px;
      }
    </style>
  </defs>
  <path class="st0" d="M20.21,88.34l1.49-1.03c1.7-1.18,4.04-.74,5.22.95l.34.49,9.76-7.09c1.54-1.12,3.3-1.41,5.15-1.03,1.72.36,3.36.72,4.9,1.06,3.79.84,6.94,1.54,9.82,1.75,2.78.23,4.91,2.41,4.02,4.94,3.34-1.45,7-3.45,9.57-5.1,2.05-1.38,3.59-2.54,4.77-3.43,3.47-2.63,4.27-3.23,6.43-1.01l.02.02.05.06c5.07,5.86-19.45,19.78-19.52,19.82-.04.02-.09.04-.13.06-3.1,1.42-7.71,1.33-14.93,1.18-2.29-.05-4.86-.1-7.7-.11-.54,0-1.09.04-1.52.38l-1.69,1.35.45.64h0c1.19,1.7.73,4.07-.94,5.21l-1.55,1.07c-1.7,1.18-4.04.74-5.22-.95l-9.79-13.97h0c-1.18-1.69-.75-4.05.94-5.21h0s.07-.04.07-.04ZM26.65,70.4c1.62,0,2.44-1.97,1.29-3.12s-3.12-.33-3.12,1.29c0,1.01.82,1.82,1.83,1.82ZM29.14,71.07c1.95-1.95,1-5.26-1.64-5.92v-6.07h6.3v2.15c-.01.38.23.73.61.84l5.2,1.5c.3.95.68,1.85,1.14,2.74l-2.59,4.7c-.21.33-.17.77.12,1.05l4.81,4.81c.26.26.67.33,1.01.14l4.74-2.62c.89.46,1.79.83,2.74,1.14l1.5,5.2c.1.35.43.61.81.61h6.78c.38.01.73-.23.84-.61l1.5-5.2c.95-.3,1.85-.68,2.73-1.14l4.7,2.59c.33.21.77.17,1.05-.12l4.81-4.81c.26-.26.33-.67.14-1.01l-2.62-4.74c.46-.89.83-1.79,1.14-2.74l5.13-1.48c.39-.08.69-.42.69-.84v-2.18h6.29v6.06c-1.55.39-2.67,1.79-2.67,3.42,0,3.13,3.8,4.71,6.02,2.49,1.95-1.95,1-5.26-1.64-5.92v-6.92c0-.47-.38-.85-.85-.85h-7.14v-2.18h0c0-.47-.38-.85-.85-.85h-5.16s0-6.29,0-6.29h6.07c.38,1.55,1.79,2.68,3.42,2.68,3.13,0,4.71-3.8,2.49-6.02-1.95-1.95-5.26-1-5.92,1.64h-6.92c-.47,0-.85.38-.85.85v7.15h-5.1c-.64-.02-1.03.54-.88,1.07,1.73,6.43-3.1,12.8-9.8,12.8s-11.53-6.4-9.8-12.8c.14-.54-.26-1.07-.82-1.07h-5.16v-7.15c0-.47-.38-.85-.85-.85h-6.92c-.38-1.55-1.79-2.68-3.42-2.68-3.13,0-4.71,3.8-2.49,6.02,1.95,1.95,5.26,1,5.92-1.64h6.07v6.3h-5.16c-.47,0-.85.38-.85.85v2.18h-7.15c-.47,0-.85.38-.85.85v6.91c-1.55.39-2.67,1.79-2.67,3.42,0,3.14,3.8,4.71,6.02,2.5h0ZM35.48,58.16v2.47l4.99,1.44c.29.07.53.29.62.59.28.95.84,2.38,1.33,3.22.16.25.18.58.02.86l-2.53,4.58,3.91,3.91,4.58-2.53c.25-.13.55-.14.81,0,1.02.56,2.14,1.02,3.27,1.36.27.08.49.29.57.58l1.45,5.03h5.53l1.44-4.99c.07-.29.29-.53.59-.62.95-.28,2.38-.84,3.22-1.33.25-.16.58-.18.86-.02l4.58,2.53,3.91-3.91-2.53-4.58c-.13-.25-.14-.55,0-.81.56-1.02,1.02-2.14,1.36-3.27.08-.27.29-.49.58-.57l5.03-1.45v-4.58h-10.12c1.24,7.29-4.35,13.88-11.68,13.88s-12.92-6.59-11.68-13.88h-10.12v2.11ZM86.64,69.86c-.71-.71-.71-1.87,0-2.58,1.15-1.15,3.12-.33,3.12,1.29s-1.97,2.44-3.12,1.29h0ZM28.48,47.21c0-1.01.82-1.82,1.82-1.82,1.62,0,2.44,1.97,1.29,3.12-1.14,1.14-3.11.33-3.11-1.29ZM85.55,48.5c-.71.71-1.87.71-2.58,0-1.15-1.15-.33-3.12,1.29-3.12s2.44,1.97,1.29,3.12h0ZM53.43,54.64c-.63-1.63-1.48-3.25-2.83-4.54-4.02-3.85-4.12-10.11-.22-14.02,3.81-3.81,10-3.81,13.81,0,3.89,3.89,3.8,10.22-.21,14.02-1.31,1.24-2.23,2.98-2.84,4.55h-1.41v-9.61c1.06,0,1.94.13,2.76-.69,1.49-1.49.41-4.02-1.66-4.02-.83,0-1.46.02-2.12.69-.73.73-.69,1.43-.69,2.32h-1.44c0-.89.04-1.59-.69-2.32-.67-.67-1.3-.69-2.12-.69-2.08,0-3.15,2.53-1.66,4.02.82.82,1.71.69,2.78.69v9.61h-1.44ZM56.57,54.64v-9.61h1.46v9.61h-1.46ZM62.95,54.7c1.8.38,2.51,2.63,1.18,3.96-.36.36-.84.61-1.38.67.38,1.27-.38,2.59-1.64,2.93.5,1.51-.64,3.08-2.23,3.08h-3.18c-1.6,0-2.73-1.57-2.23-3.08-1.26-.34-2.01-1.66-1.64-2.93-1.92-.23-2.78-2.6-1.38-4,.32-.32.73-.55,1.18-.64-.52-1.21-1.21-2.42-2.2-3.37-4.69-4.49-4.84-11.85-.25-16.44,4.48-4.48,11.73-4.48,16.22,0,4.57,4.57,4.48,11.92-.25,16.45-.98.93-1.7,2.19-2.2,3.37h0ZM62.47,56.34c.86,0,.86,1.3,0,1.3h-10.36c-.86,0-.86-1.3,0-1.3h10.36ZM64.62,31.27l1.04-1.97c.22-.41.06-.93-.36-1.14-.41-.22-.93-.06-1.14.36l-1.04,1.97c-.22.41-.06.93.36,1.14.41.22.93.06,1.14-.36ZM51.46,30.48l-1.04-1.97c-.22-.41-.73-.57-1.14-.36-.41.22-.57.73-.36,1.14l1.04,1.97c.22.41.73.57,1.14.36.41-.21.57-.73.36-1.14ZM58.14,28.95c0,1.12-1.7,1.12-1.7,0v-2.28c0-1.12,1.71-1.12,1.71,0v2.28ZM54.22,42.02c.18,0,.34.07.46.19.27.27.19.66.19,1.11h-1.12c-.57,0-.88-.7-.46-1.11.25-.25.55-.19.93-.19ZM60.82,42.02c.86,0,.86,1.31,0,1.31h-1.12c0-.45-.07-.85.19-1.11.25-.25.55-.2.93-.2h0ZM55.7,62.35h3.18c.86,0,.86,1.3,0,1.3h-3.18c-.86,0-.86-1.3,0-1.3ZM60.5,59.34c.86,0,.86,1.3,0,1.3h-6.41c-.86,0-.86-1.3,0-1.3h6.41ZM69.14,36.87l1.8-1.14c.39-.25.52-.77.27-1.17-.25-.39-.77-.52-1.17-.27l-1.8,1.14c-.39.25-.52.77-.27,1.17.25.39.77.52,1.17.27h0ZM45.77,35.43l-1.8-1.14c-.39-.25-.92-.13-1.17.27-.25.39-.13.92.27,1.17l1.8,1.14c.39.25.92.13,1.17-.27.25-.39.13-.92-.27-1.17h0ZM28.24,90.13l7.05,10.06,1.62-1.29c.78-.61,1.62-.74,2.57-.74,2.88.01,5.44.06,7.73.11,6.99.14,11.44.23,14.19-1.03.4-.23,22.88-13.05,19.05-17.25-1.11-1.12-1.69-.68-4.17,1.2-1,.76-2.96,2.26-4.9,3.53-3.02,1.98-10.3,5.89-13.92,6.66-4.95,1.05-7.75.4-12.96-.75-1.09-.24-.72-1.89.37-1.66,4.43.98,7.44,1.69,11.48.89,1.61-.32,3.06-1.32,3.07-2.62.01-1.2-1.25-1.98-2.68-2.12-2.97-.21-6.18-.93-10.04-1.79-1.5-.33-3.1-.69-4.87-1.05-1.38-.29-2.67-.09-3.82.74l-9.78,7.11ZM22.66,88.7l-1.55,1.07h0c-.92.64-1.16,1.95-.51,2.85h0l9.79,13.96c.65.93,1.94,1.17,2.87.52l1.55-1.07c.92-.65,1.15-1.96.51-2.85h0l-9.79-13.97c-.65-.92-1.94-1.16-2.87-.52Z"/>
</svg>