<?xml version="1.0" encoding="UTF-8"?>
<svg id="Layer_1" xmlns="http://www.w3.org/2000/svg" version="1.1" viewBox="0 0 66 82.5">
  <!-- Generator: Adobe Illustrator 29.8.2, SVG Export Plug-In . SVG Version: 2.1.1 Build 3)  -->
  <path d="M55.72,47.56c0,1.64,1.27,2.91,2.91,2.91s2.91-1.27,2.91-2.91c0-1.27-.82-2.36-2-2.73v-4.36c0-.55-.36-.91-.91-.91h-4.27c-.18-4.82-1.82-9.45-5.36-12.9l5.09-5.09c.27.09.64.18,1,.18,1.64,0,2.91-1.27,2.91-2.91s-1.27-2.91-2.91-2.91-2.91,1.27-2.91,2.91c0,.55.18,1.18.45,1.64l-5.09,5.09c-3.36-2.63-7.81-3.82-12.99-3.54v-4.18c1.18-.36,2-1.45,2-2.73.09-1.64-1.18-2.91-2.82-2.91s-2.91,1.27-2.91,2.91c0,1.27.82,2.36,2,2.73v4.18c-3.27.36-8.63,1.73-11.45,3.45l-5.09-5.09c1.27-1.91-.09-4.54-2.45-4.54-1.64,0-2.91,1.27-2.91,2.91s1.27,2.91,2.91,2.91c.36,0,.64-.09,1-.18l5,5c-2.82,2.36-4.63,5.72-5.27,9l-5.18-1-.82-5.91c1-.45,1.73-1.45,1.73-2.63,0-1.64-1.27-2.91-2.91-2.91s-2.91,1.27-2.91,2.91c0,1.36,1,2.54,2.27,2.82l.91,6.63c.09.36.36.73.73.73l6,1.18c0,.55-.09,1.18,0,1.73.09.91-.09,2.82-1.91,4.54-.55.36-3.36,2.64-2.91,5,.18,1.27,1.18,2.18,3,2.82-.45,1.36-.64,3.09.55,4.09.09.82.36,2.27,1.18,3.09-.27,1.27-.55,3.82.73,5.36.82,1,2.09,1.36,3.63,1.09l7.54-.91c.91-.09,1.18.27,1.73,2.36.36,1.54.91,3.82,3.18,3.82h.45l16.54-2.09c.82-.09,1.64-.55,2.09-1.27.45-.73.64-1.54.45-2.45-.36-1.45-.64-2.54-.91-3.54-.91-3.63-.91-3.82-.64-4.27.18-.18.27-.45.45-.64l4.82,3.73c-.09.27-.18.64-.18.91,0,1.64,1.27,2.91,2.91,2.91s2.91-1.27,2.91-2.91-1.27-2.91-2.91-2.91c-.64,0-1.18.18-1.64.55l-4.91-3.82c2.45-4.18,3.82-8.81,3.91-13.27h3.36v3.45c-1.27.64-2.09,1.64-2.09,2.91ZM55.17,17.76c.64,0,1.09.45,1.09,1.09s-.45,1.09-1.09,1.09-1.09-.45-1.09-1.09.45-1.09,1.09-1.09ZM33.73,14.04c.64,0,1.09.45,1.09,1.09s-.45,1.09-1.09,1.09-1.09-.45-1.09-1.09.45-1.09,1.09-1.09ZM12.83,18.85c0-.64.45-1.09,1.09-1.09,1.45,0,1.45,2.18,0,2.18-.64,0-1.09-.55-1.09-1.09ZM6.29,25.94c0-.64.45-1.09,1.09-1.09s1.09.45,1.09,1.09-.45,1.09-1.09,1.09c-.64,0-1.09-.45-1.09-1.09ZM58.08,60.83c0,.64-.45,1.09-1.09,1.09s-1.09-.45-1.09-1.09.45-1.09,1.09-1.09,1.09.55,1.09,1.09ZM48.63,65.92c-.18.27-.45.45-.82.55l-16.45,2.09c-.91.09-1.18-.27-1.73-2.36-.36-1.54-.91-3.82-3.18-3.82h-.45l-7.54.91c-1.45.18-1.91-.36-2.09-.45-.91-1.09-.45-3.54-.18-4.36.18-.45-.18-1-.64-1.09-.27-.09-.64-1.18-.73-2.27,0-.27-.18-.64-.45-.73-.91-.55-.09-2.45.18-2.91.27-.55,0-1.18-.55-1.27-1.54-.45-2.54-1.09-2.64-1.73-.36-2.18,5.27-3.91,4.91-9.36-.36-4.82,2.73-10.81,8.09-12.9,25.62-9.81,34.26,11.99,24.17,28.08h0c-.27.45-.64,1-.91,1.45-.82,1.18-.64,1.91.36,5.72.27.91.55,2.09.91,3.45,0,.36-.09.73-.27,1ZM58.62,48.66c-.64,0-1.09-.45-1.09-1.09s.45-1.09,1.09-1.09,1.09.45,1.09,1.09-.45,1.09-1.09,1.09Z"/>
  <path d="M35.82,38.02c0,.45.36.91.91.91s.91-.45.91-.91c0-.27-.09-.45-.27-.64-.55-.55-1.54-.27-1.54.64Z"/>
  <path d="M35.82,40.57c0,.55.45.91.91.91s.91-.36.91-.91c0-.27-.09-.45-.27-.64-.55-.55-1.54-.18-1.54.64Z"/>
  <path d="M35.82,43.2c0,.45.36.91.91.91.45,0,.91-.36.91-.91,0-.27-.09-.45-.27-.64-.55-.55-1.54-.18-1.54.64Z"/>
  <path d="M42.63,39.21c.36-.36.36-.91,0-1.27s-.91-.36-1.27,0c-.55.73-1.82,1.36-1.82,3.09,0,1.64,1.27,2.36,1.64,2.82.36.36.91.36,1.27,0s.36-.91,0-1.27c-.09-.18-1.82-1.27-.73-2.27l.91-1.09Z"/>
  <path d="M45.99,40.39c.82-.91,1.18-2.18,1.18-3.36,0-2.54-1.82-4.72-4.27-5.27v-.18c0-2.73-2.27-5-5.09-5-1.73,0-3.27.82-4.18,2.18-.91-1.27-2.45-2.18-4.18-2.18-2.73,0-5,2.27-5.09,5v.18c-2.27.45-4.09,2.63-4.09,5.18,0,1.27.45,2.45,1.18,3.36-1.18,1.09-1.91,2.54-1.91,4.18,0,2.91,2.18,5.27,5.09,5.54.45,2.36,2.45,4.18,5,4.18,1.73,0,3.27-.82,4.18-2.18.91,1.27,2.45,2.18,4.18,2.18,2.45,0,4.54-1.82,5-4.18,2.82-.27,5.09-2.64,5.09-5.54-.18-1.54-.91-3.09-2.09-4.09ZM29.55,52.47c-4.36,0-4.09-6.45,0-6.45.55,0,.91-.36.91-.91s-.36-.91-.91-.91c-2.45,0-4.45,1.73-4.91,4-1.91-.27-3.36-1.82-3.36-3.73,0-1.36.73-2.64,1.91-3.27.27-.18.45-.45.45-.73s-.09-.64-.36-.82c-.82-.73-1.36-1.73-1.36-2.82,0-1.73,1.18-3.09,2.82-3.45.73,1.82,2.54,3.18,4.63,3.18.55,0,.91-.36.91-.91s-.36-.91-.91-.91c-1.54,0-2.82-1.09-3.09-2.45v-.09c-.09-.18-.09-.45-.09-.64,0-1.82,1.45-3.27,3.27-3.27s3.27,1.45,3.27,3.27v17.63c.09,1.82-1.36,3.27-3.18,3.27ZM42.81,48.29c-.45-2.27-2.45-4-4.91-4-.55,0-.91.36-.91.91s.36.91.91.91c4.18,0,4.36,6.45,0,6.45-1.82,0-3.27-1.45-3.27-3.27v-17.72c0-1.82,1.45-3.27,3.27-3.27s3.27,1.45,3.27,3.27c0,.27,0,.45-.09.64v.09c-.36,1.45-1.64,2.45-3.09,2.45-.55,0-.91.36-.91.91s.36.91.91.91c2.09,0,3.91-1.27,4.63-3.18,1.64.36,2.82,1.82,2.82,3.45,0,1.09-.45,2.09-1.36,2.82-.27.18-.36.45-.36.82,0,.27.18.55.45.73,1.18.64,1.91,1.91,1.91,3.27,0,2-1.45,3.54-3.27,3.82Z"/>
  <path d="M29.91,38.02c0,.55.36.91.91.91s.91-.45.91-.91c0-.27-.09-.45-.27-.64-.55-.55-1.54-.27-1.54.64Z"/>
  <path d="M29.91,40.57c0,.55.45.91.91.91s.91-.45.91-.91c0-.27-.09-.45-.27-.64-.55-.55-1.54-.18-1.54.64Z"/>
  <path d="M29.91,43.2c0,.55.36.91.91.91s.91-.36.91-.91c0-.27-.09-.45-.27-.64-.55-.55-1.54-.27-1.54.64Z"/>
  <path d="M26.19,37.93c-.36-.36-.91-.36-1.27,0s-.36.91,0,1.27c.55.64,2,1.54,1,2.54l-.73.73c-.82.82.45,2.09,1.27,1.27.36-.45,1.64-1.18,1.64-2.82-.09-1.64-1.36-2.36-1.91-3Z"/>
</svg>