<?xml version="1.0" encoding="UTF-8"?>
<svg id="Layer_1" xmlns="http://www.w3.org/2000/svg" version="1.1" viewBox="0 0 110 135">
  <!-- Generator: Adobe Illustrator 29.8.2, SVG Export Plug-In . SVG Version: 2.1.1 Build 3)  -->
  <defs>
    <style>
      .st0 {
        stroke: #000;
        stroke-miterlimit: 10;
        stroke-width: .5px;
      }
    </style>
  </defs>
  <path class="st0" d="M102.68,89.02l-9.34-16.17c-.32-.56-1.04-.75-1.59-.43l-.99.57-2.09-3.62c3.26-2.81,5.6-6.54,6.74-10.78,1.5-5.61.73-11.46-2.17-16.49-1.67-2.89-3.93-5.32-6.62-7.13l-1.5,1.8c2.49,1.64,4.57,3.84,6.1,6.49,2.59,4.49,3.28,9.71,1.94,14.72-1.1,4.1-3.45,7.64-6.73,10.22l-4.8,2.77c-3.87,1.56-8.12,1.82-12.22.72-5-1.34-9.18-4.55-11.77-9.04-2.59-4.48-3.28-9.71-1.94-14.72.43-1.61,1.05-3.13,1.85-4.54.02-.04.05-.07.07-.11.43-.75.9-1.46,1.42-2.14,1.53-1.99,3.46-3.68,5.7-4.98,2.99-1.73,6.3-2.61,9.67-2.61,1.6,0,3.21.2,4.8.6l1.63-1.96c-.26-.08-.52-.15-.77-.22-5.61-1.5-11.47-.73-16.49,2.17-3.1,1.79-5.66,4.26-7.51,7.21l-19.05-6.18c-.41-.14-.87-.03-1.18.28l-29,28.68c-.46.45-.46,1.19,0,1.65.23.23.53.35.83.35s.59-.11.82-.34l28.49-28.18,17.94,5.82c-.6,1.24-1.09,2.55-1.46,3.91-1.5,5.61-.73,11.46,2.17,16.48,2.2,3.82,5.43,6.81,9.32,8.69v37.63h-3.99v-35.33c0-.64-.52-1.17-1.17-1.17h-11.7c-.64,0-1.17.52-1.17,1.17v35.32h-3.99v-36.56c0-.64-.52-1.17-1.16-1.17h-11.7c-.64,0-1.17.52-1.17,1.17v36.56h-3.99v-16.06c0-.64-.52-1.17-1.16-1.17h-11.7c-.64,0-1.17.52-1.17,1.17v16.05h-3.21c-.64,0-1.17.52-1.17,1.17v4.83c0,.64.52,1.17,1.17,1.17h74.69c.64,0,1.17-.52,1.17-1.17v-4.83c0-.64-.52-1.17-1.17-1.17h-3.37v-35.92c.86-.18,1.71-.42,2.55-.71l2.1,3.62-1,.57c-.27.16-.46.41-.54.71s-.04.62.12.89l9.34,16.17c.86,1.49,2.25,2.55,3.91,3,.56.15,1.12.22,1.69.22,1.12,0,2.22-.29,3.21-.86,3.07-1.77,4.13-5.72,2.36-8.8h0ZM49.22,75.98h9.37v34.16h-9.37v-34.16ZM31.19,74.74h9.37v35.4h-9.37v-35.4ZM13.17,95.26h9.37v14.88h-9.37v-14.88ZM81.15,114.97H8.8v-2.5h72.35v2.5ZM76.61,110.14h-9.36v-36.66c.5.18,1.02.33,1.54.47,1.87.5,3.77.75,5.66.75.73,0,1.45-.04,2.17-.11v35.55ZM83.68,72.61c.54-.25,1.07-.53,1.59-.83.52-.3,1.03-.62,1.52-.96l1.94,3.35-3.11,1.8-1.94-3.35ZM99.15,95.8c-.95.55-2.06.69-3.12.41s-1.95-.96-2.5-1.91l-8.75-15.16.99-.57s0,0,0,0l5.13-2.96s.01,0,.02-.01l.97-.56,8.75,15.16c1.12,1.96.45,4.48-1.51,5.61h0ZM87.24,20.03h6.23l-21.93,26.35-8.3-2.7c.46-.55.95-1.07,1.5-1.56.73-.65,1.54-1.24,2.42-1.75,2.59-1.5,5.52-2.14,8.43-1.9l1.76-2.12c-.99-.18-1.98-.27-2.96-.27-2.92,0-5.8.77-8.4,2.26-1.43.82-2.68,1.82-3.76,2.96-.67.7-1.27,1.45-1.79,2.24-.05.06-.09.12-.13.19-.53.81-.98,1.66-1.36,2.54-2.03,4.72-1.89,10.32.87,15.1,2.25,3.9,5.89,6.69,10.24,7.86,1.45.39,2.93.58,4.39.58,2.92,0,5.81-.77,8.41-2.27,3.9-2.25,6.69-5.88,7.86-10.23,1.16-4.35.57-8.89-1.68-12.79-1.38-2.39-3.28-4.36-5.54-5.8l-1.51,1.81c2.06,1.25,3.79,3.01,5.03,5.16,1.94,3.36,2.46,7.27,1.45,11.02-1,3.75-3.41,6.88-6.77,8.82-.88.51-1.79.91-2.73,1.22v-13.8c0-.64-.52-1.17-1.17-1.17h-11.69c-.64,0-1.17.52-1.17,1.17v11c-1.21-1.05-2.26-2.3-3.09-3.73-2.33-4.04-2.49-8.75-.85-12.77.25-.61.54-1.19.87-1.76l9.72,3.16c.12.04.24.06.36.06.34,0,.67-.15.9-.42l22.71-27.3v7.13c0,.64.52,1.17,1.17,1.17s1.17-.52,1.17-1.17v-9.46c0-.64-.53-1.17-1.17-1.17h-9.46c-.64,0-1.17.52-1.17,1.17,0,.64.52,1.16,1.17,1.16h0ZM67.25,54.12h9.36v13.19c-1.96.3-3.98.2-5.96-.33-1.2-.32-2.34-.79-3.4-1.39v-11.48Z"/>
</svg>