<?xml version="1.0" encoding="UTF-8"?>
<svg id="Layer_1" xmlns="http://www.w3.org/2000/svg" version="1.1" viewBox="0 0 110 135">
  <!-- Generator: Adobe Illustrator 29.8.2, SVG Export Plug-In . SVG Version: 2.1.1 Build 3)  -->
  <defs>
    <style>
      .st0 {
        stroke: #000;
        stroke-miterlimit: 10;
        stroke-width: .5px;
      }
    </style>
  </defs>
  <path class="st0" d="M103.55,41.48c0,.4-.18.79-.49,1.04l-12.98,10.6c-.24.2-.55.3-.85.3-.2,0-.39-.04-.57-.13-.47-.22-.77-.69-.77-1.21v-2.8h-25.22c-.74,0-1.34-.6-1.34-1.34s.6-1.34,1.34-1.34h26.57c.74,0,1.34.6,1.34,1.34v1.32l9.52-7.77-9.52-7.77v1.32c0,.74-.6,1.34-1.34,1.34h-21.74c-.74,0-1.34-.6-1.34-1.34s.6-1.34,1.34-1.34h20.4v-2.8c0-.52.3-.99.77-1.21s1.02-.16,1.42.17l12.98,10.6c.31.25.49.63.49,1.04h0ZM67.82,66.81l-1.91-3.32c-.42-.73-1.11-1.26-1.93-1.48-.82-.22-1.68-.11-2.4.32l-1.84,1.06c-.64.37-.86,1.19-.49,1.83.37.64,1.19.86,1.83.49l1.84-1.06c.15-.09.3-.07.37-.05.07.02.21.07.3.23l1.91,3.31c.13.23.05.54-.18.68l-3.35,1.94c-.54.31-.79.94-.62,1.54.39,1.32.58,2.7.58,4.09s-.2,2.77-.58,4.09c-.17.59.08,1.23.62,1.54l3.36,1.94c.14.09.2.22.22.29.02.07.04.22-.04.37l-1.91,3.32c-.09.15-.22.21-.3.23s-.22.04-.37-.05l-3.36-1.94c-.54-.31-1.21-.21-1.64.23-1.93,2.02-4.37,3.43-7.07,4.08-.6.14-1.02.68-1.02,1.3v3.88c0,.27-.22.49-.49.49h-3.83c-.27,0-.49-.22-.49-.49v-3.88c0-.62-.43-1.16-1.03-1.3-2.7-.65-5.14-2.06-7.07-4.08-.43-.45-1.11-.54-1.64-.23l-3.36,1.95c-.15.09-.3.07-.37.05-.07-.02-.21-.07-.3-.23l-1.91-3.32c-.09-.15-.07-.3-.05-.37.02-.07.07-.21.23-.29l3.35-1.94c.54-.31.79-.94.62-1.54-.39-1.32-.58-2.7-.58-4.09s.2-2.76.58-4.09c.17-.59-.08-1.23-.62-1.54l-3.35-1.94c-.23-.13-.31-.44-.18-.67l1.91-3.32c.09-.15.22-.21.3-.23.07-.02.22-.04.38.05l2.38,1.37c.64.37,1.46.15,1.83-.49.37-.64.15-1.46-.49-1.83l-2.37-1.36c-.73-.43-1.59-.54-2.41-.32-.82.22-1.51.74-1.93,1.48l-1.92,3.32c-.86,1.52-.34,3.45,1.16,4.33l2.47,1.43c-.28,1.25-.42,2.52-.42,3.81s.14,2.57.42,3.81l-2.47,1.43c-.73.42-1.26,1.1-1.48,1.92-.22.82-.11,1.68.31,2.41l1.91,3.32c.42.73,1.11,1.26,1.93,1.48.82.22,1.68.11,2.4-.32l2.48-1.43c1.89,1.76,4.14,3.06,6.6,3.81v2.86c0,1.75,1.42,3.17,3.17,3.17h3.83c1.75,0,3.17-1.42,3.17-3.17v-2.86c2.46-.76,4.71-2.06,6.6-3.81l2.47,1.43c.73.43,1.59.54,2.41.32.82-.22,1.51-.74,1.93-1.48l1.91-3.32c.42-.73.53-1.59.31-2.41-.22-.82-.75-1.5-1.47-1.91l-2.47-1.43c.28-1.25.42-2.53.42-3.81s-.14-2.56-.42-3.81l2.47-1.43c1.51-.88,2.04-2.82,1.16-4.34h0ZM41.32,69.24c-.55-.49-1.4-.43-1.89.12-1.7,1.94-2.64,4.43-2.64,7.02,0,5.86,4.77,10.63,10.63,10.63s10.63-4.77,10.63-10.63c0-2.48-.87-4.89-2.45-6.79-.47-.57-1.32-.64-1.89-.17-.57.47-.64,1.32-.17,1.89,1.18,1.41,1.83,3.22,1.83,5.07,0,4.39-3.57,7.95-7.95,7.95s-7.95-3.57-7.95-7.95c0-1.93.7-3.79,1.98-5.25.48-.55.43-1.4-.12-1.89h0ZM98.06,82.45c0,7.75-6.3,14.06-14.06,14.06-.22,0-.43,0-.65-.02-3.55,5.87-8.53,10.8-14.44,14.29-6.34,3.74-13.61,5.72-21.02,5.72-11.07,0-21.47-4.31-29.3-12.13-7.82-7.82-12.13-18.23-12.13-29.29,0-15,8.15-28.87,21.26-36.19.64-.36,1.46-.13,1.82.52.36.64.13,1.46-.52,1.82-12.27,6.85-19.89,19.82-19.89,33.85,0,21.36,17.38,38.75,38.75,38.75,13.16,0,25.48-6.76,32.59-17.77-3.48-.9-6.44-3.11-8.32-6.06-2.28,3.7-5.37,6.84-9.07,9.18-4.54,2.87-9.8,4.39-15.19,4.39-15.7,0-28.48-12.78-28.48-28.48,0-10.78,5.97-20.52,15.58-25.4.66-.34,1.47-.07,1.8.59.34.66.07,1.47-.59,1.8-8.71,4.43-14.12,13.25-14.12,23.02,0,14.23,11.57,25.8,25.8,25.8,9.66,0,18.36-5.27,22.84-13.8-.51-1.45-.79-3-.79-4.62,0-7.75,6.31-14.06,14.06-14.06,7.75,0,14.06,6.3,14.06,14.06h0ZM95.38,82.45c0-6.27-5.11-11.38-11.38-11.38s-11.38,5.11-11.38,11.38,5.11,11.38,11.38,11.38c6.27,0,11.38-5.11,11.38-11.38ZM88.37,78.01l-6.04,6.04-2.71-2.71c-.52-.52-1.37-.52-1.89,0-.52.52-.52,1.37,0,1.89l3.66,3.66c.25.25.59.39.95.39s.7-.14.95-.39l6.98-6.99c.52-.52.52-1.37,0-1.89-.52-.52-1.38-.52-1.9,0h0ZM31.14,34.95c0-9.07,7.38-16.44,16.45-16.44s16.44,7.38,16.44,16.44c0,5.05-2.27,9.74-6.22,12.88-1.13.9-1.83,1.97-2.2,3.37l-.26.98c1.42.61,2.42,2.03,2.42,3.67,0,1.02-.39,1.95-1.02,2.65.63.71,1.02,1.63,1.02,2.65,0,2.2-1.79,3.99-3.99,3.99h-.31c-.19,2.31-2.12,4.13-4.48,4.13h-2.79c-2.36,0-4.3-1.82-4.48-4.13h-.31c-2.2,0-3.99-1.79-3.99-3.99,0-1.02.39-1.95,1.02-2.65-.63-.71-1.02-1.63-1.02-2.65,0-1.64,1-3.06,2.42-3.67l-.26-.98c-.37-1.4-1.07-2.47-2.21-3.37-3.96-3.14-6.23-7.84-6.23-12.88h0ZM54.42,34.19c0-3.77-3.06-6.82-6.82-6.82s-6.82,3.06-6.82,6.82,3.06,6.82,6.82,6.82,6.82-3.06,6.82-6.82ZM41.49,54.54h-.08c-.72,0-1.31.59-1.31,1.31s.59,1.31,1.31,1.31h12.38c.72,0,1.31-.59,1.31-1.31s-.59-1.31-1.31-1.31h-12.3ZM50.77,65.16h-6.36c.17.83.9,1.45,1.78,1.45h2.79c.88,0,1.61-.62,1.78-1.45h0ZM55.1,61.16c0-.72-.59-1.31-1.31-1.31h-12.38c-.72,0-1.31.59-1.31,1.31s.59,1.31,1.31,1.31h12.38c.72,0,1.31-.59,1.31-1.31ZM33.82,34.95c0,4.22,1.9,8.15,5.21,10.78,1.59,1.26,2.61,2.82,3.13,4.79l.36,1.35h3.74v-8.26c-4.61-.65-8.16-4.62-8.16-9.41,0-5.24,4.27-9.51,9.51-9.51s9.5,4.27,9.5,9.51c0,4.79-3.55,8.76-8.16,9.41v8.26h3.74l.36-1.35c.52-1.96,1.54-3.52,3.12-4.79,3.31-2.63,5.21-6.56,5.21-10.78,0-7.59-6.18-13.77-13.77-13.77s-13.78,6.18-13.78,13.77h0Z"/>
</svg>