<?xml version="1.0" encoding="UTF-8"?>
<svg id="Layer_1" xmlns="http://www.w3.org/2000/svg" version="1.1" viewBox="0 0 100 125">
  <!-- Generator: Adobe Illustrator 29.8.2, SVG Export Plug-In . SVG Version: 2.1.1 Build 3)  -->
  <defs>
    <style>
      .st0 {
        fill-rule: evenodd;
        stroke: #000;
        stroke-miterlimit: 10;
        stroke-width: .75px;
      }
    </style>
  </defs>
  <path class="st0" d="M84.68,98.04h-22.86v6.14h22.86v-6.14ZM19.94,30.78v-2.02h-2.69v2.02h2.69ZM64.31,20.83l-42.64,7.41v2.54h41.71l.93-9.95ZM91.03,30.78v-1.19h-1.85v1.19h1.85ZM88.13,27.89l-5.47-5.78.6,8.67h4.2v-2.05c0-.4.28-.75.67-.84h0ZM26.79,41.98v4.38h4.16v-4.38h-4.16ZM29.77,58.39c-.48-.5-1.28-.51-1.78-.03-.5.48-.51,1.28-.03,1.78.48.5,1.28.51,1.78.03.01-.01.02-.02.03-.03.48-.47.49-1.25.02-1.74,0,0-.01-.01-.02-.02ZM69.82,41.98l8.49,9.28c-.08-3.09-.15-6.18-.21-9.28h-8.28ZM67.87,67.61l11.53,12.41-.52-11.99-10.53-11.44s-.49,11.01-.49,11.01ZM78.84,96.32l-11.79-12.48-.48,12.48h12.26ZM67.16,81.45l.59-11.45,11.76,12.66.41,12.3-12.75-13.51ZM33.26,40.26v-7.76H13.43v7.76h19.83ZM42.97,40.26v-7.76h-8v7.76h8ZM54.42,32.5v7.76h8.16l.64-7.76h-8.8ZM52.69,40.26v-7.76h-8v7.76h8ZM86.9,32.5v7.76h6.34v-7.76h-6.34ZM85.18,40.26v-7.76h-1.79l.53,7.76h1.26ZM57.96,41.98l2.28,5.63h6.71c.05-1.88.1-3.75.14-5.63h-9.13ZM66.79,52.67h-9.16c-.35,0-.67-.21-.8-.54l-4.05-10.14h-20.12v5.24c0,.48-.39.86-.86.86h-2.08v8.34c1.57.46,2.47,2.11,2,3.67-.14.48-.4.91-.76,1.27-.35.35-.78.6-1.25.74v2.2c1.85,1.93,2.31,3.63,2.04,4.87-.68,3.23-5.81,3.25-5.86-1.49,0-.47.4-.85.88-.84.45,0,.82.37.84.82.03,2.63,2.19,2.44,2.47,1.16.17-.79-.24-1.98-1.78-3.51-.19-.16-.3-.4-.3-.65v-2.55c-1.57-.46-2.46-2.11-2-3.68.28-.96,1.04-1.72,2-2v-8.34h-2.08c-.47,0-.86-.38-.86-.86h0v-5.25h-12.49c-.48,0-.86-.39-.86-.86v-9.48c0-.48.39-.86.86-.86h2.96v-2.88c0-.48.39-.86.86-.86h2.14l46.53-8.09c.06-.01.13-.02.19-.02h16.39c.25,0,.48.11.64.29l8.18,8.64h1.42c.48,0,.86.39.86.86v2.05h1.34c.48,0,.86.39.86.86h0v9.48c0,.48-.38.86-.86.86h-14.29c.09,5.03.21,10.08.39,15.15l.63,15.92c.35,7.76.64,15.5.84,23.28h3.86c.48,0,.86.39.86.86h0v7.86c0,.48-.38.86-.86.86h-24.59c-.48,0-.86-.39-.86-.86h0v-7.86c0-.48.38-.86.86-.86h3.91c.12-3.76.26-7.5.42-11.23.41-9.33.98-18.65,1.35-27.97,0,0,.17-4.45.17-4.45ZM68.54,51.77c.09-2.79.17-5.58.24-8.38l9.61,10.5c.03,1.1.07,2.2.1,3.3.09,2.74.19,5.47.3,8.2l-10.32-11.23.08-2.39h0ZM54.63,41.98h1.47l2.76,6.81c.13.33.45.54.8.54h7.24c-.02.54-.03,1.08-.05,1.62h-8.64l-3.58-8.96ZM72.23,29.46l-6.3-7.52-.81,8.66-.69,7.97,7.81-9.11h0ZM81.27,40.26l-7.92-9.46-8.1,9.46h16.02ZM74.48,29.47l7.6,9.07c-.06-.88-.12-1.77-.18-2.67l-.97-13.93-6.44,7.52ZM67.1,20.65l6.27,7.49,6.41-7.49h-12.68ZM14.72,88.64h-3v7.28h3v-7.28ZM10.85,86.92c-.47,0-.86.38-.86.86,0,0,0,0,0,0v9.01c0,.48.39.86.86.86h4.73c.48,0,.86-.39.86-.86v-9.01c0-.48-.39-.86-.86-.86h-4.73ZM29.6,88.64h-3.01v7.28h3.01v-7.28ZM25.73,86.92c-.47,0-.86.38-.86.86h0v9.01c0,.48.39.86.86.86h4.73c.48,0,.86-.39.86-.86h0v-9.01c0-.47-.38-.86-.86-.86h-4.73ZM39.23,88.64h-3v7.28h3v-7.28ZM35.37,86.92c-.47,0-.86.38-.86.86h0v9.01c0,.48.39.86.86.86h4.73c.48,0,.86-.39.86-.86v-9.01c0-.48-.39-.86-.86-.86h-4.73ZM50.98,88.64h-2.32v7.28h2.32v-7.28h0ZM47.8,86.92c-.48,0-.86.39-.86.86h0v9.01c0,.48.39.86.86.86h4.04c.48,0,.86-.39.86-.86h0v-9.01c0-.47-.38-.86-.86-.86h-4.04ZM14.72,71.32h-3v7.28h3v-7.28h0ZM10.85,69.6c-.48,0-.86.39-.86.86,0,0,0,0,0,0v9c0,.48.38.86.86.86h4.73c.48,0,.86-.39.86-.86v-9c0-.48-.39-.86-.86-.86h-4.73ZM50.97,71.32h-2.32v7.28h2.32v-7.28ZM47.8,69.6c-.48,0-.86.39-.86.86v9c0,.48.39.86.86.86h4.04c.48,0,.86-.39.86-.86v-9c0-.48-.39-.86-.86-.86h-4.04ZM55.64,106.07H5.9c-.48,0-.86-.39-.86-.86h0v-47.87c0-.48.39-.86.86-.86.19,0,.38.07.54.19l14.95,10.31c.27.15.43.44.43.75v10.05h17.89v-7.15c0-.32.17-.61.45-.76l14.97-9.3c.39-.27.93-.18,1.2.21.1.14.16.32.16.49v43.93c0,.48-.39.86-.86.86h0ZM45.29,104.35h9.48v-41.52l-13.34,8.28v6.67h2.99c.48,0,.86.39.86.86v25.7h0ZM21.82,104.35h21.74v-24.84h-21.74s0,24.84,0,24.84ZM6.76,104.35h13.34v-36.16l-13.34-9.2v45.36Z"/>
</svg>