<?xml version="1.0" encoding="UTF-8"?>
<svg id="Layer_1" xmlns="http://www.w3.org/2000/svg" version="1.1" viewBox="0 0 512 640">
  <!-- Generator: Adobe Illustrator 29.8.2, SVG Export Plug-In . SVG Version: 2.1.1 Build 3)  -->
  <polygon points="280 267.3 312 235.3 312 248 328 248 328 208 288 208 288 224 300.7 224 280 244.7 264 228.7 222.3 270.3 233.7 281.7 264 251.3 280 267.3"/>
  <path d="M478.3,368.8c1.1-2.8,1.7-5.8,1.7-8.8v-160c0-13.2-10.8-24-24-24h-88v-4.7l49-49-11.3-11.3-49,49h-62.1c-6.4,0-12.5,2.5-17,7l-88,88c-9.4,9.4-9.4,24.6,0,33.9l34.3,34.3v30.1c-9.6,3.4-16,12.5-16,22.6v24h8v17.4c0,2.1-.8,4.2-2.3,5.7l-9.9,9.9c-.8-1.2-1.7-2.3-2.8-3.3l-17.9-17.9c-4.5-4.5-7-10.6-7-17v-23.4l10.3-10.3c7.5-7.5,7.5-19.8,0-27.3-2.8-2.8-6.4-4.7-10.4-5.4v-52.5c0-3.7-.9-7.4-2.5-10.7l-21.4-43v-22.1c0-13.2-10.8-24-24-24h-64c-13.2,0-24,10.8-24,24v22.1l-21.5,42.9c-1.7,3.3-2.5,7-2.5,10.7v260.3c0,13.2,10.8,24,24,24h144c5.9,0,11.6-2.2,16-6.1,4.4,4,10.1,6.1,16,6.1h256c13.2,0,24-10.8,24-24v-144c0-10.8-7.3-20.3-17.7-23.2ZM400,192h32v48h-32v-48ZM384,192v64h64v-64h8c4.4,0,8,3.6,8,8v160c0,4.4-3.6,8-8,8h-128c-4.4,0-8-3.6-8-8v-68.7l41-41c4.5-4.5,7-10.6,7-17v-41.3h16ZM286.6,368c-3.4-9.6-12.5-16-22.6-16h-24v-12.8c9.5,8.5,24,8.1,33-.9l31-31v52.7c0,2.7.5,5.4,1.4,8h-18.8ZM336,384h32v48h-32v-48ZM201,266.3l88-88c1.5-1.5,3.5-2.3,5.7-2.3h46.1l-10.3,10.3,11.3,11.3,10.3-10.3v46.1c0,2.1-.8,4.2-2.3,5.7l-88,88c-3.1,3.1-8.2,3.1-11.3,0l-49.5-49.4c-3.1-3.2-3.1-8.2,0-11.4ZM224,376c0-4.4,3.6-8,8-8h32c4.4,0,8,3.6,8,8v8h-48v-8ZM175,349.7l-10.3,10.3h-41.4l-10.3-10.3c-1.3-1.3-1.3-3.4,0-4.7.6-.6,1.5-1,2.3-1h57.4c1.8,0,3.3,1.5,3.3,3.3,0,.9-.3,1.7-1,2.4h0ZM131.1,232l-16,32H36.9l16-32h78.2ZM144,241.9l11.1,22.1h-22.1l11-22.1ZM160,280v48h-32v-48h32ZM64,192h64c4.4,0,8,3.6,8,8v16H56v-16c0-4.4,3.6-8,8-8ZM32,536v-256h80v48.3c-10.5,1.8-17.5,11.8-15.7,22.3.7,3.9,2.6,7.5,5.4,10.4l10.3,10.3v23.4c0,6.4-2.5,12.5-7,17l-18,18c-4.5,4.5-7,10.6-7,17v89.3c0,2.7.5,5.4,1.4,8h-41.4c-4.4,0-8-3.6-8-8ZM184,544h-80c-4.4,0-8-3.6-8-8v-89.4c0-2.1.8-4.2,2.3-5.7l17.9-17.9c7.5-7.5,11.7-17.7,11.7-28.3v-18.7h32v18.7c0,10.6,4.2,20.8,11.7,28.3l17.9,17.9c1.5,1.5,2.3,3.5,2.3,5.7v89.4c.2,4.4-3.4,8-7.8,8ZM216,544c-4.4,0-8-3.6-8-8v-81.4c0-2.1.8-4.2,2.3-5.7l14.6-14.6c4.5-4.5,7-10.6,7-17v-17.3h32v17.4c0,6.4,2.5,12.5,7,17l14.6,14.6c1.5,1.5,2.3,3.5,2.3,5.7v81.3c0,4.4-3.6,8-8,8h-63.8ZM352.7,504h-15.7c3.3-12.7,14-22.1,27-23.7-5.9,6.7-9.8,14.9-11.3,23.7ZM352.7,520c1.5,8.8,5.4,17,11.4,23.7-13-1.6-23.7-11-27-23.7h15.6ZM368,512c0-17.7,14.3-32,32-32s32,14.3,32,32-14.3,32-32,32-32-14.3-32-32ZM480,536c0,4.4-3.6,8-8,8h-36.3c17.7-19.7,16-50-3.7-67.7-8.8-7.9-20.2-12.3-32.1-12.3h-32c-26.5,0-48,21.4-48,47.9,0,11.8,4.4,23.3,12.3,32.1h-29.6c.9-2.6,1.4-5.3,1.4-8v-81.4c0-6.4-2.5-12.5-7-17l-14.7-14.6c-1.5-1.5-2.3-3.5-2.3-5.7v-17.3h8v-16h32v64h64v-64h88c4.4,0,8,3.6,8,8v144Z"/>
  <polygon points="240 144 256 144 256 120 280 120 280 104 256 104 256 80 240 80 240 104 216 104 216 120 240 120 240 144"/>
  <polygon points="104 152 120 152 120 136 136 136 136 120 120 120 120 104 104 104 104 120 88 120 88 136 104 136 104 152"/>
  <polygon points="472 104 472 80 456 80 456 104 432 104 432 120 456 120 456 144 472 144 472 120 496 120 496 104 472 104"/>
  <path d="M144,432c-17.7,0-32,14.3-32,32s14.3,32,32,32,32-14.3,32-32-14.3-32-32-32ZM144,480c-8.8,0-16-7.2-16-16s7.2-16,16-16,16,7.2,16,16-7.2,16-16,16Z"/>
  <path d="M248,480c-13.3,0-24,10.7-24,24s10.7,24,24,24,24-10.7,24-24h0c0-13.2-10.8-24-24-24ZM248,512c-4.4,0-8-3.6-8-8s3.6-8,8-8,8,3.6,8,8-3.6,8-8,8Z"/>
  <rect x="232" y="448" width="32" height="16"/>
  <rect x="112" y="512" width="64" height="16"/>
</svg>