<?xml version="1.0" encoding="UTF-8"?>
<svg id="Layer_1" xmlns="http://www.w3.org/2000/svg" version="1.1" viewBox="0 0 110 135">
  <!-- Generator: Adobe Illustrator 29.8.2, SVG Export Plug-In . SVG Version: 2.1.1 Build 3)  -->
  <defs>
    <style>
      .st0 {
        stroke: #000;
        stroke-miterlimit: 10;
        stroke-width: .25px;
      }
    </style>
  </defs>
  <path class="st0" d="M26.13,53.15h.92v.93c0,1.8,1.46,3.26,3.26,3.26h3.48c1.16,2.13,3.42,3.58,6.02,3.58s4.86-1.45,6.02-3.58h18.46c1.16,2.13,3.42,3.58,6.02,3.58s4.86-1.45,6.02-3.58h2.76c1.8,0,3.26-1.46,3.26-3.26v-5.59c0-4-3.02-7.31-6.9-7.76l-.68-2.62c-.98-3.76-4.26-6.29-8.15-6.29h-5.17v-9.83c0-.64-.53-1.16-1.17-1.16H26.13c-.64,0-1.16.52-1.16,1.16v30c0,.64.52,1.16,1.16,1.16h0ZM30.31,55.02c-.51,0-.93-.42-.93-.93v-.93h3.65c-.04.31-.07.62-.07.93s.02.63.07.93h-2.72ZM39.8,58.6c-2.49,0-4.52-2.03-4.52-4.52s2.03-4.52,4.52-4.52,4.52,2.03,4.52,4.52c-.01,2.5-2.03,4.52-4.52,4.52ZM39.8,47.24c-2.59,0-4.86,1.45-6.02,3.59h-6.49v-4.57h31.79v4.57h-13.27c-1.16-2.13-3.42-3.59-6.01-3.59h0ZM46.57,55.02c.04-.31.07-.62.07-.93s-.02-.63-.07-.93h16.93c-.04.31-.07.62-.07.93s.02.63.07.93h-16.93ZM70.29,58.6c-2.49,0-4.52-2.03-4.52-4.52s2.03-4.52,4.52-4.52,4.52,2.03,4.52,4.52c0,2.5-2.03,4.52-4.52,4.52ZM79.06,55.02h-2c.04-.31.07-.62.07-.93s-.02-.63-.07-.93h2.94v.93c0,.51-.42.93-.94.93ZM72.48,38.7l.52,1.97h-7.48v-6.53h1.07c2.81,0,5.18,1.83,5.89,4.56h0ZM63.19,34.14v7.7c0,.64.52,1.16,1.16,1.16h10.15c3.03,0,5.49,2.46,5.49,5.49v2.34h-3.69c-1.16-2.13-3.42-3.59-6.02-3.59s-4.86,1.45-6.02,3.59h-2.86v-5.73s0-10.96,0-10.96h1.79ZM27.29,23.15h31.79v20.79h-31.79s0-20.79,0-20.79ZM39.8,50.7c-1.86,0-3.38,1.52-3.38,3.38s1.52,3.38,3.38,3.38,3.38-1.52,3.38-3.38-1.52-3.38-3.38-3.38ZM39.8,55.14c-.58,0-1.06-.47-1.06-1.06s.47-1.06,1.06-1.06,1.06.47,1.06,1.06-.48,1.06-1.06,1.06ZM70.29,50.7c-1.86,0-3.38,1.52-3.38,3.38s1.52,3.38,3.38,3.38,3.38-1.52,3.38-3.38c0-1.86-1.52-3.38-3.38-3.38ZM70.29,55.14c-.58,0-1.06-.47-1.06-1.06s.47-1.06,1.06-1.06,1.06.47,1.06,1.06c0,.59-.48,1.06-1.06,1.06ZM72.88,75.05c0-.79-.62-1.43-1.41-1.46l-2.67-.08c-.31-1.02-.71-2.01-1.22-2.95l1.83-1.94c.54-.58.53-1.47-.03-2.03l-4.26-4.26c-.56-.56-1.45-.57-2.03-.03l-1.94,1.83c-.94-.51-1.93-.91-2.95-1.22l-.08-2.66c-.02-.79-.66-1.41-1.46-1.41h-6.03c-.79,0-1.43.62-1.46,1.41l-.08,2.66c-1.02.31-2.01.72-2.95,1.22l-1.93-1.82c-.58-.54-1.47-.53-2.03.03l-4.26,4.26c-.56.56-.57,1.45-.03,2.03l1.83,1.94c-.51.94-.92,1.93-1.22,2.95l-2.67.08c-.79.02-1.41.66-1.41,1.46v6.03c0,.79.62,1.43,1.41,1.46l2.66.08c.31,1.02.72,2.01,1.22,2.95l-1.83,1.94c-.54.58-.53,1.47.03,2.03l4.26,4.26c.56.56,1.45.57,2.03.03l1.94-1.83c.94.51,1.93.91,2.95,1.22l.08,2.67c.03.79.67,1.41,1.46,1.41h6.03c.79,0,1.43-.62,1.46-1.41l.08-2.67c1.02-.31,2.01-.71,2.95-1.22l1.94,1.83c.58.54,1.47.53,2.03-.03l4.26-4.26c.56-.56.57-1.45.03-2.03l-1.83-1.94c.5-.94.91-1.92,1.22-2.95l2.67-.08c.79-.02,1.41-.66,1.41-1.46v-6.04ZM68.09,80.32c-.66.02-1.2.46-1.37,1.1-.32,1.24-.81,2.43-1.46,3.54-.33.56-.26,1.26.19,1.74l1.69,1.8-3.08,3.08-1.8-1.69c-.48-.45-1.18-.53-1.74-.19-1.1.65-2.29,1.15-3.54,1.46-.64.16-1.08.71-1.1,1.37l-.08,2.46h-4.35l-.08-2.47c-.02-.65-.46-1.2-1.1-1.37-1.25-.32-2.44-.81-3.54-1.47-.56-.34-1.27-.26-1.74.19l-1.79,1.69-3.07-3.07,1.69-1.79c.45-.48.53-1.18.19-1.74-.66-1.11-1.15-2.3-1.47-3.54-.16-.64-.71-1.08-1.37-1.1l-2.46-.07v-4.35l2.46-.07c.66-.02,1.21-.46,1.37-1.1.32-1.25.81-2.44,1.47-3.54.33-.56.26-1.26-.19-1.74l-1.69-1.79,3.07-3.07,1.79,1.69c.48.45,1.18.53,1.74.19,1.1-.66,2.3-1.15,3.54-1.47.64-.16,1.08-.71,1.1-1.37l.07-2.46h4.35l.07,2.46c.02.66.46,1.21,1.1,1.37,1.25.32,2.44.81,3.54,1.46.56.33,1.26.26,1.74-.19l1.8-1.69,3.08,3.08-1.69,1.8c-.45.48-.53,1.18-.19,1.74.65,1.1,1.15,2.29,1.46,3.54.16.64.71,1.08,1.37,1.1l2.46.08v4.35l-2.45.05ZM53.64,71.14c-1.85,0-3.59.72-4.9,2.03-1.31,1.31-2.03,3.05-2.03,4.9s.72,3.59,2.03,4.9c1.31,1.31,3.05,2.03,4.9,2.03s3.59-.72,4.9-2.03c1.31-1.31,2.03-3.05,2.03-4.9s-.72-3.59-2.03-4.9c-1.31-1.31-3.05-2.03-4.9-2.03ZM56.9,81.32c-.87.87-2.02,1.35-3.25,1.35s-2.38-.48-3.25-1.35c-.87-.87-1.35-2.02-1.35-3.25s.48-2.39,1.35-3.25c.87-.87,2.03-1.35,3.25-1.35s2.38.48,3.25,1.35c.87.87,1.35,2.02,1.35,3.25-.01,1.23-.48,2.38-1.35,3.25ZM53.64,66.01c-3.22,0-6.25,1.25-8.53,3.53s-3.53,5.31-3.53,8.53,1.25,6.25,3.53,8.53,5.3,3.53,8.53,3.53,6.25-1.25,8.53-3.53,3.53-5.31,3.53-8.53-1.25-6.25-3.53-8.53-5.31-3.53-8.53-3.53ZM60.52,84.95c-1.84,1.84-4.28,2.85-6.88,2.85s-5.04-1.01-6.88-2.85c-3.79-3.79-3.79-9.97,0-13.76,1.84-1.84,4.28-2.85,6.88-2.85s5.04,1.01,6.88,2.85c3.8,3.79,3.8,9.96,0,13.76ZM31.56,96.72c1.17-2.73,1.2-5.76.09-8.52-1.11-2.76-3.23-4.92-5.96-6.09-2.74-1.17-5.76-1.2-8.52-.09-2.76,1.11-4.92,3.23-6.09,5.96-1.17,2.73-1.2,5.76-.09,8.52.7,1.73,1.79,3.22,3.18,4.39l-4.09,7.79c-.46.87-.52,1.88-.18,2.85.37,1.04,1.17,1.89,2.18,2.32.5.21,1.03.32,1.56.32.56,0,1.11-.12,1.63-.35.93-.42,1.62-1.16,1.93-2.1l2.78-8.31c.44.05.89.08,1.34.08,1.4,0,2.81-.27,4.15-.81,2.77-1.1,4.93-3.22,6.09-5.96h0ZM15,110.99c-.13.4-.44.61-.68.72-.41.18-.91.18-1.32.01-.41-.18-.75-.54-.9-.96-.09-.24-.15-.61.05-.99l3.98-7.57c.27.14.55.28.84.4.25.11.5.2.75.29l-2.72,8.1ZM24.61,100.53c-2.18.88-4.58.85-6.74-.07-2.16-.92-3.84-2.63-4.72-4.82-.88-2.18-.85-4.58.07-6.74.92-2.16,2.63-3.84,4.82-4.72,1.06-.43,2.18-.64,3.29-.64,1.17,0,2.34.24,3.45.71,2.16.92,3.84,2.63,4.72,4.82.88,2.18.85,4.58-.07,6.74-.93,2.17-2.64,3.84-4.82,4.72ZM78.83,88.37c0,4.24,3.45,7.69,7.69,7.69s7.69-3.45,7.69-7.69-3.45-7.69-7.69-7.69-7.69,3.45-7.69,7.69ZM91.89,88.37c0,2.96-2.41,5.37-5.37,5.37s-5.37-2.41-5.37-5.37,2.41-5.37,5.37-5.37,5.37,2.41,5.37,5.37ZM90,98.46h-6.96c-5.69,0-10.31,4.63-10.31,10.31v4.24c0,.64.52,1.16,1.16,1.16h25.26c.64,0,1.16-.52,1.16-1.16v-4.24c0-5.69-4.62-10.31-10.31-10.31h0ZM97.99,111.85h-22.94v-3.07c0-4.41,3.58-7.99,7.99-7.99h6.96c4.41,0,7.99,3.57,7.99,7.98v3.07ZM17.63,78.06c0-7.23,2.13-14.2,6.17-20.16.36-.53,1.08-.67,1.61-.31.53.36.67,1.08.31,1.61-3.77,5.57-5.77,12.09-5.77,18.85,0,.64-.52,1.16-1.16,1.16-.64.02-1.16-.5-1.16-1.15h0ZM71.01,108.31c.3.57.09,1.27-.48,1.57-5.16,2.75-11,4.2-16.89,4.2-8.99,0-17.59-3.33-24.24-9.37-.47-.43-.51-1.17-.08-1.64.43-.47,1.17-.51,1.64-.08,6.21,5.65,14.26,8.77,22.67,8.77,5.51,0,10.97-1.36,15.8-3.92.57-.3,1.27-.09,1.57.47h0ZM82.72,58.81c.55-.34,1.26-.17,1.6.38,3.49,5.66,5.34,12.19,5.34,18.88v.06c0,.64-.52,1.16-1.16,1.16s-1.16-.52-1.16-1.16v-.06c0-6.26-1.73-12.36-4.99-17.66-.35-.55-.18-1.27.37-1.6h0Z"/>
</svg>