<?xml version="1.0" encoding="UTF-8"?>
<svg id="Layer_1" xmlns="http://www.w3.org/2000/svg" version="1.1" viewBox="0 0 110 135">
  <!-- Generator: Adobe Illustrator 29.8.2, SVG Export Plug-In . SVG Version: 2.1.1 Build 3)  -->
  <defs>
    <style>
      .st0 {
        fill-rule: evenodd;
        stroke: #000;
        stroke-miterlimit: 10;
        stroke-width: .5px;
      }
    </style>
  </defs>
  <path class="st0" d="M78.03,99.34l-.89,1.55c-.04.07-.1.1-.18.08l-2.47-.52c-.39-.08-.79.03-1.09.3-.97.9-2.16,1.59-3.41,1.97-.38.12-.68.41-.8.79l-.77,2.39c-.03.08-.08.12-.17.12h-1.78c-.08,0-.13-.04-.16-.12l-.77-2.39c-.13-.38-.42-.67-.8-.79-1.27-.39-2.44-1.07-3.41-1.97-.3-.27-.7-.38-1.09-.3l-2.47.52c-.08.02-.14,0-.18-.08l-.89-1.54c-.04-.07-.04-.14.02-.2l1.68-1.87c.27-.29.37-.7.29-1.09-.29-1.29-.29-2.66,0-3.95.09-.39-.02-.79-.29-1.09l-1.68-1.87c-.06-.06-.06-.12-.02-.2l.89-1.55c.04-.07.1-.1.18-.08l2.47.52c.38.08.79-.03,1.09-.3.97-.9,2.14-1.59,3.41-1.97.38-.12.68-.41.8-.79l.77-2.39c.03-.08.08-.12.16-.12h1.78c.09,0,.14.04.17.12l.77,2.39c.13.38.42.67.8.79,1.25.39,2.44,1.07,3.41,1.97.29.27.7.38,1.09.3l2.47-.52c.08-.02.14,0,.18.08l.89,1.55c.04.07.04.13-.02.2l-1.68,1.87c-.27.29-.37.7-.29,1.09.29,1.29.29,2.66,0,3.95-.09.39.02.79.29,1.09l1.68,1.87c.06.06.06.12.02.19ZM95.68,94.4v-.43c-.05-.29-.21-.56-.45-.75l-4.21-3.27c-.53-.41-1.3-.32-1.71.21s-.31,1.3.21,1.71l1.43,1.11h-12.32c-.03-.22-.06-.44-.09-.66l1.27-1.42c.77-.84.89-2.07.32-3.05l-.89-1.55c-.57-.98-1.7-1.48-2.8-1.25l-1.87.4c-.97-.8-2.08-1.44-3.25-1.88l-.59-1.81c-.35-1.08-1.35-1.8-2.49-1.8h-1.78c-1.12,0-2.12.72-2.48,1.8l-.59,1.81c-1.18.44-2.28,1.08-3.25,1.88l-1.87-.4c-1.11-.23-2.23.27-2.8,1.25l-.89,1.55c-.57.98-.44,2.21.32,3.05l1.27,1.42c-.04.22-.07.44-.09.66H21.41c-2.57,0-4.65-2.09-4.65-4.65v-14.36c0-2.57,2.09-4.65,4.65-4.65h5.36c.03.29.07.58.12.87l-1.43,1.59c-.8.88-.93,2.17-.34,3.2l.98,1.69c.6,1.03,1.77,1.56,2.94,1.31l2.1-.45c1.08.9,2.31,1.61,3.61,2.09l.67,2.04c.36,1.13,1.41,1.89,2.61,1.89h1.95c1.18,0,2.23-.76,2.6-1.89l.67-2.04c1.31-.48,2.54-1.2,3.61-2.09l2.1.45c1.16.25,2.35-.28,2.94-1.31l.98-1.69c.6-1.03.46-2.32-.33-3.2l-1.44-1.59c.05-.29.09-.58.12-.87h36.59c3.91,0,7.09-3.18,7.09-7.09v-14.36c0-3.91-3.18-7.09-7.09-7.09h-8.22c-.03-.29-.06-.58-.11-.87l1.43-1.59c.79-.88.93-2.17.33-3.2l-.97-1.69c-.6-1.03-1.78-1.56-2.94-1.31l-2.1.45c-1.08-.89-2.31-1.61-3.62-2.09l-.66-2.04c-.37-1.13-1.42-1.89-2.61-1.89h-1.95c-1.2,0-2.23.76-2.61,1.89l-.66,2.04c-1.31.48-2.55,1.2-3.62,2.09l-2.1-.45c-1.16-.25-2.34.28-2.94,1.31l-.97,1.69c-.6,1.03-.46,2.32.33,3.2l1.43,1.59c-.05.29-.09.58-.11.87h-24.75c-.53-1.87-2.25-3.25-4.3-3.25-2.46,0-4.47,2-4.47,4.47s2.01,4.47,4.47,4.47c2.05,0,3.77-1.38,4.3-3.25h24.75c.02.29.06.58.11.87l-1.43,1.59c-.79.89-.93,2.17-.33,3.2l.97,1.69c.6,1.03,1.77,1.55,2.94,1.31l2.1-.45c1.08.9,2.31,1.61,3.62,2.09l.66,2.04c.37,1.13,1.41,1.89,2.61,1.89h1.95c1.18,0,2.23-.76,2.61-1.89l.66-2.04c1.31-.48,2.55-1.2,3.62-2.09l2.1.45c1.16.25,2.34-.28,2.94-1.31l.97-1.69c.6-1.03.46-2.32-.33-3.2l-1.43-1.59c.05-.29.08-.58.11-.87h8.22c2.56,0,4.64,2.09,4.64,4.65v14.36c0,2.57-2.09,4.65-4.64,4.65h-36.59c-.03-.29-.07-.58-.12-.87l1.44-1.59c.79-.88.93-2.17.33-3.2l-.98-1.69c-.59-1.03-1.77-1.55-2.94-1.31l-2.1.45c-1.08-.9-2.31-1.61-3.61-2.09l-.67-2.04c-.36-1.13-1.41-1.89-2.6-1.89h-1.95c-1.2,0-2.24.76-2.61,1.89l-.67,2.04c-1.3.48-2.54,1.2-3.61,2.09l-2.1-.45c-1.16-.25-2.34.28-2.94,1.31l-.98,1.69c-.59,1.03-.46,2.32.34,3.2l1.43,1.59c-.05.29-.09.58-.12.87h-5.36c-3.91,0-7.09,3.18-7.09,7.09v14.36c0,3.91,3.18,7.09,7.09,7.09h34.68c.02.22.05.44.09.66l-1.27,1.42c-.77.84-.89,2.07-.32,3.05l.89,1.55c.57.98,1.7,1.48,2.8,1.25l1.87-.4c.97.8,2.08,1.44,3.25,1.88l.59,1.82c.35,1.08,1.35,1.8,2.48,1.8h1.78c1.14,0,2.14-.72,2.49-1.8l.59-1.82c1.18-.44,2.28-1.08,3.25-1.88l1.87.4c1.11.23,2.23-.27,2.8-1.25l.89-1.55c.57-.98.44-2.21-.32-3.05l-1.27-1.42c.03-.22.06-.44.09-.66h12.26l-1.37,1.06c-.93.73-.37,2.18.75,2.18.25,0,.52-.08.75-.26l4.21-3.27c.24-.19.4-.45.45-.75h0ZM27.23,62.44l.98-1.69c.07-.12.18-.17.31-.14l2.7.57c.39.08.79-.03,1.09-.3,1.08-1,2.38-1.75,3.77-2.18.38-.12.69-.41.8-.79l.85-2.62c.04-.13.14-.21.29-.21h1.95c.14,0,.23.07.27.21l.85,2.62c.13.38.42.67.8.79,1.39.43,2.7,1.18,3.77,2.18.29.27.7.38,1.09.3l2.7-.57c.14-.03.25.02.32.14l.97,1.69c.07.12.06.25-.04.35l-1.84,2.05c-.27.29-.36.7-.27,1.09.31,1.43.31,2.94,0,4.37-.09.39.01.79.27,1.09l1.84,2.05c.1.1.11.23.04.35l-.98,1.69c-.07.12-.18.17-.31.14l-2.7-.57c-.39-.08-.79.03-1.09.3-1.08,1-2.38,1.75-3.77,2.18-.38.12-.68.41-.8.79l-.85,2.62c-.04.13-.14.2-.27.2h-1.95c-.15,0-.25-.07-.29-.2l-.85-2.62c-.12-.38-.42-.67-.8-.79-1.39-.43-2.7-1.18-3.77-2.18-.29-.27-.7-.38-1.09-.3l-2.7.57c-.14.03-.25-.02-.31-.14l-.98-1.69c-.07-.12-.06-.25.04-.35l1.84-2.05c.27-.29.37-.7.29-1.09-.32-1.43-.32-2.94,0-4.37.09-.39-.02-.79-.29-1.09l-1.84-2.05c-.1-.11-.11-.23-.04-.35h0ZM79.12,47.66l-.97,1.69c-.07.12-.19.17-.32.14l-2.7-.57c-.38-.08-.79.03-1.08.3-1.08,1-2.39,1.75-3.78,2.18-.37.12-.68.41-.79.79l-.85,2.62c-.05.13-.15.21-.29.21h-1.95c-.14,0-.25-.07-.29-.21l-.85-2.62c-.12-.38-.42-.67-.79-.79-1.4-.43-2.7-1.18-3.78-2.18-.29-.27-.7-.38-1.08-.3l-2.7.57c-.13.03-.25-.02-.31-.14l-.98-1.69c-.07-.12-.05-.24.04-.35l1.84-2.05c.27-.29.37-.7.29-1.09-.32-1.43-.32-2.94,0-4.37.09-.39-.02-.79-.29-1.09l-1.84-2.05c-.09-.1-.11-.23-.04-.34l.98-1.69c.07-.12.19-.17.31-.14l2.7.57c.38.08.79-.03,1.08-.3,1.08-1,2.38-1.75,3.78-2.18.37-.12.68-.41.79-.79l.85-2.62c.04-.13.15-.2.29-.2h1.95c.14,0,.23.07.29.2l.85,2.62c.12.38.42.67.79.79,1.39.43,2.7,1.18,3.78,2.18.29.27.7.38,1.08.3l2.7-.57c.14-.03.25.02.32.14l.97,1.69c.07.12.06.24-.03.34l-1.84,2.05c-.27.29-.37.7-.29,1.09.32,1.43.32,2.94,0,4.37-.09.39.02.79.29,1.09l1.84,2.05c.09.1.09.23.03.35h0ZM26.1,44.02c-1.12,0-2.02-.91-2.02-2.03s.9-2.03,2.02-2.03,2.03.91,2.03,2.03c0,1.12-.9,2.03-2.03,2.03ZM38.99,65.14c1.64,0,2.96,1.33,2.96,2.96s-1.32,2.96-2.96,2.96-2.96-1.33-2.96-2.96c0-1.63,1.33-2.96,2.96-2.96ZM38.99,73.5c-2.98,0-5.4-2.42-5.4-5.4s2.42-5.4,5.4-5.4,5.4,2.42,5.4,5.4c0,2.98-2.42,5.4-5.4,5.4ZM67.36,44.95c-1.62,0-2.95-1.33-2.95-2.96s1.32-2.96,2.95-2.96,2.96,1.33,2.96,2.96-1.32,2.96-2.96,2.96ZM67.36,36.59c2.98,0,5.4,2.42,5.4,5.4s-2.42,5.4-5.4,5.4-5.4-2.42-5.4-5.4,2.43-5.4,5.4-5.4ZM67.36,97.17c1.64,0,2.96-1.33,2.96-2.96s-1.32-2.96-2.96-2.96-2.95,1.33-2.95,2.96,1.32,2.96,2.95,2.96ZM67.36,88.81c-2.97,0-5.4,2.42-5.4,5.4s2.43,5.4,5.4,5.4,5.4-2.42,5.4-5.4-2.42-5.4-5.4-5.4Z"/>
</svg>