<?xml version="1.0" encoding="UTF-8"?>
<svg id="Layer_1" xmlns="http://www.w3.org/2000/svg" version="1.1" viewBox="0 0 110 135">
  <!-- Generator: Adobe Illustrator 29.8.2, SVG Export Plug-In . SVG Version: 2.1.1 Build 3)  -->
  <defs>
    <style>
      .st0 {
        stroke: #000;
        stroke-miterlimit: 10;
        stroke-width: .75px;
      }
    </style>
  </defs>
  <path class="st0" d="M70.84,52.81c0-8.73-7.11-15.84-15.84-15.84s-15.84,7.11-15.84,15.84c0,7.03,2.81,10.73,5.29,13.99,1.65,2.18,3.1,4.08,3.38,6.68h-1.99c-.52,0-.94.42-.94.94v6.1c0,.52.42.94.94.94h3.22c.33,2.99,2.87,5.32,5.94,5.32s5.61-2.33,5.94-5.32h3.22c.52,0,.94-.42.94-.94v-6.1c0-.52-.42-.94-.94-.94h-1.99c.29-2.59,1.73-4.5,3.38-6.68,2.48-3.26,5.29-6.96,5.29-13.99h0ZM43.37,61.96c-1.34-2.31-2.33-5.11-2.33-9.14,0-7.7,6.27-13.97,13.97-13.97s13.97,6.27,13.97,13.97c0,4.18-1.06,7.03-2.47,9.38-.89-1.87-2.24-3.52-3.9-4.77-1.12-.84-2.35-1.49-3.65-1.92,2.04-1.33,3.38-3.63,3.38-6.24,0-4.11-3.34-7.45-7.46-7.45s-7.46,3.34-7.46,7.45c0,2.61,1.35,4.91,3.38,6.24-3.21,1.07-5.9,3.37-7.43,6.45h0ZM54.88,54.85c-3.08,0-5.58-2.5-5.58-5.58s2.5-5.58,5.58-5.58,5.58,2.5,5.58,5.58-2.5,5.58-5.58,5.58ZM55.01,84.9c-2.04,0-3.73-1.5-4.05-3.45h8.1c-.32,1.95-2.01,3.45-4.05,3.45h0ZM63.23,75.35v4.23h-16.44v-4.23h16.44ZM64.07,65.67c-1.79,2.36-3.5,4.61-3.78,7.81h-10.57c-.28-3.21-1.98-5.45-3.78-7.81-.46-.6-.91-1.2-1.36-1.83,1.61-4.27,5.69-7.11,10.29-7.11s8.83,2.93,10.38,7.35c-.39.54-.79,1.07-1.19,1.59h0ZM54.07,33.49v-3.49c0-.52.42-.94.94-.94s.94.42.94.94v3.49c0,.52-.42.94-.94.94s-.94-.42-.94-.94ZM42.79,33.53c-.26-.45-.11-1.02.34-1.28.45-.26,1.02-.11,1.28.34l1.75,3.03c.26.45.11,1.02-.34,1.28-.15.09-.31.12-.47.12-.32,0-.64-.17-.81-.47l-1.75-3.03ZM34.44,40.94c.26-.45.83-.6,1.28-.34l3.03,1.75c.45.26.6.83.34,1.28-.17.3-.49.47-.81.47-.16,0-.32-.04-.47-.12l-3.03-1.75c-.45-.26-.6-.83-.34-1.28h0ZM63.86,35.62l1.75-3.03c.26-.45.83-.6,1.28-.34.45.26.6.83.34,1.28l-1.75,3.03c-.17.3-.49.47-.81.47-.16,0-.32-.04-.46-.12-.45-.26-.6-.83-.34-1.28h0ZM70.92,43.63c-.26-.45-.11-1.02.34-1.28l3.03-1.75c.45-.26,1.02-.11,1.28.34.26.45.11,1.02-.34,1.28l-3.03,1.75c-.15.09-.31.12-.47.12-.32,0-.64-.17-.81-.47h0ZM82.53,76.53h-14.41c-.52,0-.93.41-.94.93-.03,3.18-1.29,6.17-3.54,8.42-2.35,2.35-5.44,3.53-8.53,3.53s-6.18-1.18-8.53-3.52c-2.25-2.25-3.5-5.24-3.53-8.42,0-.52-.42-.93-.94-.93h-14.64c-.52,0-.94.42-.94.94v5.23c0,.52.42.94.94.94h4.22c.55,2.09,1.38,4.09,2.46,5.95l-2.98,2.98c-.18.18-.27.41-.27.66s.1.49.27.66l7.39,7.39c.37.37.96.37,1.32,0l2.98-2.98c1.87,1.09,3.86,1.91,5.95,2.46v4.22c0,.52.42.94.94.94h10.46c.52,0,.94-.42.94-.94v-4.23c2.09-.55,4.08-1.37,5.95-2.46l2.98,2.98c.37.37.96.37,1.32,0l7.4-7.39c.18-.18.27-.41.27-.66s-.1-.49-.27-.66l-2.98-2.98c1.09-1.87,1.91-3.86,2.46-5.95h4.23c.52,0,.94-.42.94-.94v-5.23c0-.52-.42-.94-.94-.94h0ZM81.59,81.76h-4.02c-.44,0-.81.3-.91.73-.55,2.39-1.49,4.66-2.79,6.75-.23.37-.18.85.13,1.16l2.84,2.84-6.07,6.07-2.84-2.84c-.31-.31-.79-.36-1.16-.13-2.08,1.3-4.35,2.24-6.74,2.79-.43.1-.73.48-.73.91v4.02h-8.59v-4.02c0-.44-.3-.81-.73-.91-2.39-.55-4.66-1.49-6.74-2.79-.37-.23-.85-.18-1.16.13l-2.84,2.84-6.07-6.07,2.84-2.84c.31-.31.36-.79.13-1.16-1.3-2.08-2.24-4.35-2.79-6.74-.1-.43-.48-.73-.91-.73h-4.02v-3.36h12.81c.25,3.32,1.66,6.42,4.04,8.8,5.44,5.43,14.28,5.43,19.71,0,2.38-2.38,3.79-5.47,4.04-8.8h12.57v3.36h0ZM77.38,36.05l3.96,2.87-1.52,4.64c-.12.39.01.81.34,1.05.33.24.77.24,1.1,0l3.95-2.88,3.95,2.88c.16.12.36.18.55.18s.39-.06.55-.18c.33-.24.46-.66.34-1.05l-1.52-4.64,3.96-2.87c.33-.24.47-.66.34-1.05-.12-.39-.48-.65-.89-.65h-4.89s-1.5-4.64-1.5-4.64c-.12-.39-.48-.65-.89-.65s-.77.26-.89.65l-1.5,4.65h-4.89c-.41,0-.77.25-.89.64s.01.81.34,1.05h0ZM83.5,36.24c.41,0,.77-.26.89-.65l.82-2.54.82,2.54c.12.39.48.65.89.65h2.67s-2.16,1.57-2.16,1.57c-.33.24-.47.66-.34,1.05l.83,2.54-2.16-1.57c-.16-.12-.36-.18-.55-.18s-.39.06-.55.18l-2.16,1.57.83-2.54c.12-.39-.01-.81-.34-1.05l-2.17-1.57h2.68s0,0,0,0ZM16.96,36.05l3.96,2.87-1.52,4.64c-.12.39.01.81.34,1.05.16.12.36.18.55.18s.39-.06.55-.18l3.95-2.88,3.95,2.88c.33.24.77.24,1.1,0,.33-.24.46-.66.34-1.05l-1.52-4.64,3.96-2.87c.33-.24.47-.66.34-1.05-.12-.39-.48-.65-.89-.65h-4.89s-1.5-4.64-1.5-4.64c-.12-.39-.48-.65-.89-.65s-.77.26-.89.65l-1.5,4.65h-4.89c-.41,0-.77.25-.89.64s.01.81.34,1.05h0ZM23.08,36.24c.41,0,.77-.26.89-.65l.82-2.54.82,2.54c.12.39.48.65.89.65h2.67s-2.16,1.57-2.16,1.57c-.33.24-.47.66-.34,1.05l.83,2.54-2.16-1.57c-.16-.12-.36-.18-.55-.18s-.39.06-.55.18l-2.16,1.57.83-2.54c.12-.39-.01-.81-.34-1.05l-2.16-1.57h2.67s0,0,0,0ZM28.86,74.84v-14.07h3.08c.35,0,.67-.2.83-.51s.13-.69-.07-.97c-1.53-2.13-3.07-4.26-4.6-6.39l-2.62-3.63c-.18-.25-.46-.39-.76-.39s-.59.14-.76.39l-.21.29c-2.34,3.24-4.67,6.48-7.01,9.73-.21.29-.23.66-.07.97s.48.51.83.51h3.07v14.07c0,.52.42.94.94.94h6.4c.52,0,.94-.42.94-.94h0ZM26.98,59.83v14.07h-4.53v-14.07c0-.52-.42-.94-.94-.94h-2.18c1.8-2.5,3.59-4.99,5.39-7.48l1.86,2.58c1.18,1.63,2.36,3.27,3.53,4.9h-2.19c-.52,0-.94.42-.94.94h0ZM86.03,49.26c-.18-.24-.46-.39-.76-.39s-.58.14-.76.39l-.21.29c-2.34,3.24-4.67,6.48-7.01,9.73-.21.29-.23.66-.07.97s.48.51.83.51h3.07v14.07c0,.52.42.94.94.94h6.41c.52,0,.94-.42.94-.94v-14.07h3.07c.35,0,.67-.2.83-.51s.13-.69-.07-.97c-2.41-3.34-4.81-6.68-7.22-10.02h0ZM88.48,58.89c-.52,0-.94.42-.94.94v14.07h-4.54v-14.07c0-.52-.42-.94-.94-.94h-2.18c1.8-2.5,3.59-4.99,5.39-7.48,1.8,2.49,3.59,4.99,5.39,7.48h-2.18Z"/>
</svg>