<?xml version="1.0" encoding="UTF-8"?>
<svg id="Layer_1" xmlns="http://www.w3.org/2000/svg" version="1.1" viewBox="0 0 64 80">
  <!-- Generator: Adobe Illustrator 29.8.2, SVG Export Plug-In . SVG Version: 2.1.1 Build 3)  -->
  <path d="M32,58c5,0,9.78-2.09,13.17-5.77l.12-.09h0c6.7-7.34,6.19-18.73-1.15-25.43-7.34-6.7-18.73-6.19-25.43,1.15-6.7,7.34-6.19,18.73,1.15,25.43,3.32,3.03,7.65,4.71,12.14,4.71ZM16.09,41.67l9.17,10,1.48-1.36-9.53-10.38,1.62.35c5.11,1.11,9.67,5.42,10.83,10.23l1.34,5.49c-7.8-.49-14.11-6.55-14.91-14.33ZM33,56l1.31-5.44c1.16-4.81,5.72-9.12,10.83-10.23l1.62-.35-9.5,10.34,1.48,1.36,9.17-10c-.81,7.77-7.11,13.83-14.91,14.32ZM32,24c7.93,0,14.66,5.83,15.81,13.67l-3.06.65c-5.83,1.27-11,6.2-12.35,11.73l-.4,1.65-.4-1.65c-1.33-5.53-6.52-10.46-12.35-11.73l-3.06-.65c1.15-7.84,7.88-13.66,15.81-13.67Z"/>
  <path d="M4,34c-.55,0-1,.45-1,1v10c0,.55.45,1,1,1h3.73c.6,2.44,1.57,4.77,2.87,6.92l-2.6,2.64c-.4.38-.41,1.02-.03,1.41,0,0,.02.02.03.03l7,7c.39.39,1.02.39,1.41,0l2.64-2.64c2.15,1.32,4.5,2.3,6.95,2.91v3.73c0,.55.45,1,1,1h10c.55,0,1-.45,1-1v-3.73c2.44-.6,4.77-1.57,6.92-2.87l2.64,2.6c.38.4,1.02.41,1.41.03,0,0,.02-.02.03-.03l7-7c.39-.39.39-1.02,0-1.41l-2.6-2.67c1.3-2.15,2.27-4.48,2.87-6.92h3.73c.55,0,1-.45,1-1v-10c0-.55-.45-1-1-1h-3.73c-.6-2.44-1.57-4.77-2.87-6.92l2.6-2.64c.4-.38.41-1.02.03-1.41,0,0-.02-.02-.03-.03l-7-7c-.39-.39-1.02-.39-1.41,0l-2.67,2.6c-2.15-1.3-4.48-2.27-6.92-2.87v-3.73c0-.55-.45-1-1-1h-10c-.55,0-1,.45-1,1v3.73c-2.44.6-4.77,1.57-6.92,2.87l-2.64-2.6c-.38-.4-1.02-.41-1.41-.03,0,0-.02.02-.03.03l-7,7c-.39.39-.39,1.02,0,1.41l2.64,2.64c-1.32,2.15-2.3,4.5-2.91,6.95h-3.73ZM9.5,35.21c.58-2.75,1.67-5.37,3.21-7.72.26-.4.21-.92-.13-1.26l-2.5-2.49,5.66-5.66,2.49,2.5c.34.34.86.39,1.26.13,2.35-1.54,4.97-2.63,7.72-3.21.47-.1.8-.52.79-1v-3.5h8v3.53c-.01.48.32.9.79,1,2.75.58,5.37,1.67,7.72,3.21.4.26.92.21,1.26-.13l2.49-2.5,5.66,5.66-2.5,2.49c-.34.34-.39.86-.13,1.26,1.54,2.35,2.63,4.97,3.21,7.72.1.47.52.8,1,.79h3.5v8h-3.53c-.48-.01-.9.32-1,.79-.58,2.75-1.67,5.37-3.21,7.72-.26.4-.21.92.13,1.26l2.5,2.49-5.66,5.66-2.49-2.5c-.34-.34-.86-.39-1.26-.13-2.35,1.54-4.97,2.63-7.72,3.21-.47.1-.8.52-.79,1v3.47h-7.97v-3.53c.01-.48-.32-.9-.79-1-2.75-.58-5.37-1.67-7.72-3.21-.4-.26-.92-.21-1.26.13l-2.49,2.5-5.66-5.66,2.5-2.49c.34-.34.39-.86.13-1.26-1.53-2.34-2.62-4.95-3.21-7.69-.1-.47-.52-.8-1-.79h-3.5v-8h3.53c.47,0,.87-.33.97-.79Z"/>
  <path d="M22.59,38.91l9,4c.26.12.56.12.82,0l9-4c.36-.16.59-.52.59-.91v-8c0-.39-.23-.75-.59-.91l-9-4c-.26-.12-.56-.12-.82,0l-9,4c-.36.16-.59.52-.59.91v8c0,.39.23.75.59.91ZM24,31.54l7,3.11v5.81l-7-3.11v-5.81ZM33,40.46v-5.81l7-3.11v5.81l-7,3.11ZM32,27.09l6.54,2.91-6.54,2.91-6.54-2.91,6.54-2.91Z"/>
</svg>