<?xml version="1.0" encoding="UTF-8"?>
<svg id="Layer_1" xmlns="http://www.w3.org/2000/svg" version="1.1" viewBox="0 0 110 135">
  <!-- Generator: Adobe Illustrator 29.8.2, SVG Export Plug-In . SVG Version: 2.1.1 Build 3)  -->
  <defs>
    <style>
      .st0 {
        stroke: #000;
        stroke-miterlimit: 10;
        stroke-width: .5px;
      }
    </style>
  </defs>
  <path class="st0" d="M95.82,80.23h-3.92c1.45-4.07,2.19-8.33,2.19-12.69,0-.52-.42-.94-.94-.94h-18.07c-.52,0-.94.42-.94.94,0,9.81-7.98,17.79-17.79,17.79h0c-9.81,0-17.79-7.98-17.79-17.79s7.98-17.79,17.79-17.79c.52,0,.94-.42.94-.94v-18.07c0-.52-.41-.94-.93-.94-9.75,0-18.97,3.69-26.02,10.4H9.06c-.52,0-.94.42-.94.94s.42.94.94.94h19.44c-6.39,6.97-9.89,15.93-9.89,25.47s3.5,18.5,9.89,25.47H9.06c-.52,0-.94.42-.94.94s.42.94.94.94h21.28c7.05,6.71,16.27,10.4,26.01,10.4h0c1,0,2-.04,3-.12v7.48c0,.52.42.94.94.94h35.54c.52,0,.94-.42.94-.94v-31.48c0-.52-.42-.94-.94-.94h0ZM30.64,42.53l4.86,6.05c.18.23.46.35.73.35.21,0,.41-.07.59-.21.4-.32.47-.91.14-1.32l-4.98-6.19c6.42-5.95,14.67-9.31,23.43-9.54v16.21c-10.1.48-18.23,8.61-18.71,18.71h-16.21c.23-9.08,3.8-17.56,10.15-24.07h0ZM55.42,103.4c-8.75-.22-17.01-3.58-23.43-9.54l4.98-6.19c.32-.4.26-.99-.14-1.32-.4-.32-.99-.26-1.32.14l-4.86,6.05c-6.34-6.51-9.91-14.99-10.15-24.07h16.21c.48,10.1,8.61,18.23,18.71,18.71v16.21ZM57.29,103.4v-16.21c10.1-.48,18.23-8.61,18.71-18.71h16.21c-.1,4.05-.88,8-2.3,11.76h-2.97c-.52,0-.94.42-.94.94v5.82h-7.95c-.52,0-.94.42-.94.94v5.83h-7.95c-.52,0-.94.42-.94.94v6.96h-7.95c-.52,0-.94.42-.94.94v.69c-.68.05-1.37.09-2.06.11h0ZM61.22,104.14v-.61h7.01v8.18h-7.01v-7.57ZM70.11,102.59v-6.96h7.01v16.08h-7.01v-9.12ZM78.99,94.7v-5.83h7.01v22.84h-7.01v-17.01ZM94.89,111.71h-7.01v-29.6h7.01v29.6ZM8.12,35.29c0-.52.42-.94.94-.94h21.04c.52,0,.94.42.94.94s-.42.94-.94.94H9.06c-.52,0-.94-.42-.94-.94ZM8.12,29.43c0-.52.42-.94.94-.94h21.04c.52,0,.94.42.94.94s-.42.94-.94.94H9.06c-.52,0-.94-.42-.94-.94ZM8.12,23.58c0-.52.42-.94.94-.94h21.04c.52,0,.94.42.94.94s-.42.94-.94.94H9.06c-.52,0-.94-.41-.94-.93h0ZM31.04,99.79c0,.52-.42.94-.94.94H9.06c-.52,0-.94-.41-.94-.93s.42-.94.94-.94h21.04c.52,0,.94.42.94.94h0ZM31.04,105.64c0,.52-.42.94-.94.94H9.06c-.52,0-.94-.42-.94-.94s.42-.94.94-.94h21.04c.52,0,.94.42.94.94ZM31.04,111.49c0,.52-.42.94-.94.94H9.06c-.52,0-.94-.42-.94-.94s.42-.94.94-.94h21.04c.52,0,.94.42.94.94ZM101.86,44.5s0-.03,0-.04c0-.03,0-.05-.02-.08,0-.02-.01-.03-.02-.05l-.02-.07-.02-.05s-.02-.04-.03-.06c0-.02-.02-.03-.03-.04-.01-.02-.02-.04-.04-.06-.01-.02-.02-.03-.04-.04-.02-.02-.03-.04-.05-.05-.01-.01-.03-.02-.04-.04-.02-.02-.04-.03-.05-.04s-.03-.02-.05-.03-.03-.02-.05-.04c0,0,0,0,0,0h0s-9.21-5.22-9.21-5.22v-10.75s0-.08,0-.12c0-.01,0-.03,0-.04,0-.03,0-.05-.02-.08,0-.02-.01-.03-.02-.05,0-.02-.02-.05-.02-.07,0-.02-.02-.03-.02-.05-.01-.02-.02-.04-.03-.06,0-.02-.02-.03-.03-.04-.01-.02-.02-.04-.04-.06-.01-.02-.02-.03-.04-.04-.02-.02-.03-.04-.05-.05-.01-.01-.03-.02-.04-.04-.02-.02-.04-.03-.05-.04-.02-.01-.03-.02-.05-.03-.02-.01-.03-.02-.05-.04,0,0,0,0,0,0h0s-9.68-5.49-9.68-5.49c-.29-.16-.64-.16-.92,0l-9.68,5.49h0s0,0,0,0c-.02.01-.04.02-.05.04-.02.01-.03.02-.05.03-.02.02-.04.03-.05.04s-.03.02-.04.04c-.02.02-.03.04-.05.05-.01.01-.02.03-.04.04-.02.02-.03.04-.04.06,0,.02-.02.03-.03.04-.01.02-.02.04-.03.06,0,.02-.02.03-.02.05,0,.02-.02.05-.02.07,0,.02-.01.03-.02.05,0,.03-.01.05-.02.08,0,.02,0,.03,0,.04,0,.04,0,.08,0,.12v10.75l-9.21,5.22h0s0,0,0,0c-.02.01-.03.02-.05.03-.02.01-.04.02-.05.04s-.03.03-.05.04c-.02.01-.03.02-.04.04-.02.02-.03.03-.04.05-.01.02-.03.03-.04.04-.02.02-.02.04-.04.05-.01.02-.02.03-.03.05-.01.02-.02.04-.03.06l-.02.05-.02.07s-.01.03-.02.05c0,.03-.01.05-.02.08,0,.02,0,.03,0,.04,0,.04,0,.08,0,.12v11.3c0,.34.18.65.48.82l9.68,5.49s.04.02.06.03c.02,0,.03.02.04.02.02.01.05.02.07.03.02,0,.03.01.04.01.03,0,.05.01.08.02.01,0,.02,0,.04,0,.04,0,.08,0,.12,0s.08,0,.12,0c.01,0,.02,0,.04,0,.03,0,.05,0,.08-.02.02,0,.03,0,.04-.02.02,0,.05-.02.07-.02l.05-.02s.04-.02.06-.03l9.22-5.23,9.22,5.23s.04.02.06.03l.05.02s.05.02.07.02c.02,0,.03.01.04.02.03,0,.05.01.08.02.01,0,.02,0,.04,0,.04,0,.08,0,.12,0s.08,0,.12,0c.01,0,.02,0,.04,0,.03,0,.05,0,.08-.02.02,0,.03,0,.04-.02.02,0,.05-.02.07-.02l.05-.02s.04-.02.06-.03l9.68-5.49c.29-.17.48-.48.48-.82v-11.3s0-.08,0-.12h-.01ZM95.46,48.8l.46-.26.8-.45v2.61l-1.27.71v-2.61h0ZM76.1,48.8l.46-.26.8-.45v2.61l-1.27.71v-2.61h0ZM73.79,46.4l1.24-.7,1.37.78-1.24.7-1.37-.78ZM83.47,29.62l1.24-.7,1.37.78-1.24.7-1.37-.78ZM90.32,38.6l-7.81,4.43v-9.14l1.4-.79v3.15c0,.33.18.64.46.81.14.09.31.13.47.13s.32-.04.46-.12l3.14-1.78c.29-.17.48-.48.48-.82v-4.21l1.4-.79v9.14ZM85.78,32.02l1.27-.71v2.61l-1.27.71v-2.61ZM76.9,31.76l3.73,2.12v9.14l-7.81-4.43v-9.14l4.07,2.31ZM93.16,46.41l1.24-.7,1.37.78-1.24.7-1.37-.78ZM97.67,45.41l-2.81-1.59c-.29-.16-.64-.16-.92,0l-3.14,1.78c-.29.17-.48.48-.48.82s.18.65.48.82l1.84,1.04-1.37.78-7.78-4.41,2.67-1.51,5.11-2.9,7.78,4.41-1.37.78h0ZM81.58,23.44l7.78,4.41-1.37.78-2.81-1.59c-.29-.16-.64-.16-.92,0l-3.14,1.78c-.29.17-.48.48-.48.82s.18.65.48.82l1.84,1.04-1.37.78-7.78-4.41,7.78-4.41h0ZM71.89,40.22l7.78,4.41-1.37.78-2.81-1.59c-.29-.16-.64-.16-.92,0l-3.14,1.78c-.29.17-.48.48-.48.82s.18.65.48.82l1.84,1.04-1.37.78-7.78-4.41,7.78-4.41h0ZM63.15,46.24l4.66,2.64,3.14,1.78v9.14l-7.81-4.43v-9.14h0ZM72.83,50.66l1.4-.79v3.15c0,.33.18.64.46.81.14.09.31.13.47.13s.32-.04.46-.12l3.14-1.78c.29-.17.48-.48.48-.82v-4.21l1.4-.79v9.14l-7.81,4.43v-9.14ZM82.51,46.24l4.66,2.64,3.14,1.78v9.14l-7.81-4.43v-9.14h0ZM92.2,59.8v-9.14l1.4-.79v3.15c0,.33.18.64.46.81.14.09.31.13.47.13s.32-.04.46-.12l3.14-1.78c.29-.17.48-.48.48-.82v-4.21l1.4-.79v9.14l-7.81,4.43Z"/>
</svg>