<?xml version="1.0" encoding="UTF-8"?>
<svg id="Layer_1" xmlns="http://www.w3.org/2000/svg" version="1.1" viewBox="0 0 66 82.5">
  <!-- Generator: Adobe Illustrator 29.8.2, SVG Export Plug-In . SVG Version: 2.1.1 Build 3)  -->
  <defs>
    <style>
      .st0 {
        stroke: #000;
        stroke-miterlimit: 10;
        stroke-width: .25px;
      }
    </style>
  </defs>
  <path class="st0" d="M36.43,60.36l.53-3.52c1.5-.38,2.94-.97,4.28-1.77l2.86,2.11c.3.22.71.19.98-.07l3.8-3.8c.26-.26.29-.68.07-.98l-2.11-2.86c.8-1.34,1.39-2.78,1.77-4.28l3.52-.52c.37-.05.64-.37.64-.74v-5.37c0-.37-.27-.69-.64-.74l-3.52-.52c-.38-1.51-.98-2.94-1.77-4.28l2.11-2.86c.22-.3.19-.71-.07-.98l-3.8-3.8c-.26-.26-.68-.29-.98-.07l-2.86,2.11c-1.34-.8-2.77-1.39-4.28-1.77l-.53-3.52c-.06-.37-.37-.64-.74-.64h-5.37c-.37,0-.69.27-.74.64l-.53,3.52c-1.5.38-2.94.97-4.28,1.77l-2.86-2.11c-.3-.22-.71-.19-.98.07l-3.8,3.8c-.26.26-.29.68-.07.98l2.11,2.86c-.8,1.33-1.39,2.77-1.77,4.28l-3.52.52c-.37.05-.64.37-.64.74v5.37c0,.37.27.69.64.74l3.52.52c.38,1.5.97,2.94,1.77,4.28l-2.11,2.86c-.22.3-.19.71.07.98l3.8,3.8c.26.26.68.29.98.07l2.86-2.11c1.34.8,2.77,1.39,4.28,1.77l.53,3.52c.06.37.37.64.74.64h5.37c.37,0,.68-.27.74-.64ZM35.54,56.12l-.5,3.38h-4.08l-.5-3.38c-.05-.31-.28-.56-.58-.62-1.68-.37-3.28-1.03-4.74-1.96-.26-.17-.6-.16-.85.03l-2.75,2.03-2.89-2.89,2.03-2.75c.19-.25.2-.59.03-.85-.94-1.46-1.6-3.05-1.96-4.74-.07-.3-.31-.54-.62-.58l-3.38-.5v-4.08l3.38-.5c.31-.05.56-.28.62-.58.37-1.69,1.03-3.29,1.96-4.74.17-.26.16-.6-.03-.85l-2.03-2.75,2.89-2.88,2.75,2.03c.25.18.59.2.85.03,1.46-.93,3.05-1.59,4.74-1.96.3-.07.54-.31.58-.62l.5-3.38h4.08l.5,3.38c.05.31.28.56.58.62,1.68.37,3.28,1.03,4.74,1.96.26.17.6.16.85-.03l2.75-2.03,2.88,2.88-2.03,2.75c-.19.25-.2.59-.03.85.93,1.46,1.59,3.05,1.96,4.74.07.3.31.54.62.58l3.38.5v4.08l-3.38.5c-.31.05-.56.28-.62.58-.37,1.68-1.03,3.28-1.96,4.74-.17.26-.16.6.03.85l2.03,2.75-2.88,2.89-2.75-2.03c-.25-.19-.59-.2-.85-.03-1.46.93-3.05,1.59-4.74,1.96-.3.06-.53.31-.58.62Z"/>
  <path class="st0" d="M33,33.25c-4.41,0-8,3.59-8,8s3.59,8,8,8,8-3.59,8-8-3.59-8-8-8ZM33,47.75c-3.59,0-6.5-2.92-6.5-6.5s2.92-6.5,6.5-6.5,6.5,2.92,6.5,6.5-2.91,6.5-6.5,6.5Z"/>
  <path class="st0" d="M33,68.5c-14.75,0-26.79-11.78-27.23-26.42l1.7,1.7c.15.15.34.22.53.22s.38-.07.53-.22c.29-.29.29-.77,0-1.06l-3-3c-.29-.29-.77-.29-1.06,0l-3,3c-.29.29-.29.77,0,1.06s.77.29,1.06,0l1.74-1.74c.42,15.49,13.14,27.96,28.73,27.96.41,0,.75-.34.75-.75s-.34-.75-.75-.75Z"/>
  <path class="st0" d="M64.53,38.72c-.29-.29-.77-.29-1.06,0l-1.74,1.74c-.42-15.49-13.14-27.96-28.73-27.96-.41,0-.75.34-.75.75s.34.75.75.75c14.75,0,26.79,11.78,27.23,26.42l-1.7-1.7c-.29-.29-.77-.29-1.06,0s-.29.77,0,1.06l3,3c.15.15.34.22.53.22s.38-.07.53-.22l3-3c.29-.29.29-.77,0-1.06Z"/>
  <path class="st0" d="M2.27,30.14c-.04.19,0,.4.1.56l3.25,5.05c.22.35.69.45,1.04.23l2.42-1.56c1.08.87,2.32,1.53,3.68,1.97.08.03.16.04.23.04.32,0,.61-.2.71-.52.13-.39-.09-.82-.48-.95-1.35-.44-2.56-1.13-3.59-2.04-.25-.22-.62-.25-.9-.07l-2.25,1.45-2.43-3.78,2.24-1.44c.28-.18.41-.53.31-.85-.3-.97-.45-1.97-.45-2.98s.15-2.01.45-2.98c.1-.32-.03-.67-.31-.85l-2.24-1.44,2.43-3.78,2.25,1.45c.28.18.65.15.9-.07,1.16-1.02,2.5-1.75,3.98-2.17.32-.09.55-.39.55-.72v-2.69h4.5v2.67c0,.34.22.63.55.72,1.48.42,2.82,1.15,3.98,2.17.25.22.62.25.9.07l2.25-1.45,2.23,3.47c.22.35.69.45,1.04.23.35-.22.45-.69.22-1.04l-2.64-4.1c-.22-.35-.69-.45-1.04-.23l-2.42,1.56c-1.07-.85-2.29-1.52-3.58-1.96v-2.86c0-.41-.34-.75-.75-.75h-6c-.41,0-.75.34-.75.75v2.87c-1.29.44-2.51,1.1-3.58,1.96l-2.42-1.56c-.35-.22-.81-.12-1.03.23l-3.25,5.05c-.11.17-.14.37-.1.56.04.19.16.36.33.47l2.4,1.55c-.24.94-.36,1.9-.36,2.87s.13,1.93.36,2.87l-2.41,1.55c-.16.11-.28.28-.32.47Z"/>
  <path class="st0" d="M16.4,20c1.88,0,3.63,1.02,4.56,2.66.2.36.66.49,1.02.28s.49-.66.28-1.02c-1.2-2.11-3.45-3.42-5.87-3.42-3.72,0-6.75,3.03-6.75,6.75,0,3.09,2.1,5.78,5.1,6.54.06.02.12.02.18.02.33,0,.64-.23.73-.57.1-.4-.14-.81-.54-.91-2.34-.59-3.97-2.68-3.97-5.08.01-2.9,2.36-5.25,5.26-5.25Z"/>
  <path class="st0" d="M63.63,51.79l-3.25-5.05c-.11-.17-.28-.29-.47-.33-.19-.04-.4,0-.56.1l-2.42,1.56c-1.08-.87-2.32-1.53-3.68-1.97-.39-.13-.82.09-.95.48s.09.82.48.95c1.35.44,2.56,1.13,3.59,2.04.25.22.62.25.9.07l2.25-1.45,2.43,3.78-2.24,1.44c-.28.18-.41.53-.31.85.3.97.45,1.97.45,2.98s-.15,2.01-.45,2.98c-.1.32.03.67.31.85l2.24,1.44-2.43,3.78-2.25-1.45c-.28-.18-.65-.15-.9.07-1.16,1.02-2.5,1.76-3.98,2.17-.32.09-.55.39-.55.72v2.67h-4.5v-2.67c0-.34-.22-.63-.55-.72-1.48-.42-2.82-1.15-3.98-2.17-.25-.22-.62-.25-.9-.07l-2.25,1.45-2.23-3.47c-.22-.35-.69-.45-1.04-.23-.35.22-.45.69-.22,1.04l2.64,4.1c.11.17.28.29.47.33.2.04.4,0,.57-.1l2.42-1.56c1.08.86,2.28,1.52,3.58,1.96v2.89c0,.41.34.75.75.75h6c.41,0,.75-.34.75-.75v-2.87c1.3-.44,2.5-1.09,3.58-1.96l2.42,1.56c.17.11.37.14.56.1s.36-.16.47-.33l3.25-5.05c.22-.35.12-.81-.22-1.04l-2.41-1.54c.24-.94.36-1.9.36-2.87s-.12-1.93-.36-2.87l2.41-1.55c.34-.22.44-.69.22-1.04Z"/>
  <path class="st0" d="M49.6,62.5c-1.88,0-3.63-1.02-4.56-2.66-.21-.36-.66-.49-1.02-.28-.36.2-.49.66-.28,1.02,1.2,2.11,3.45,3.42,5.87,3.42,3.72,0,6.75-3.03,6.75-6.75,0-3.09-2.1-5.78-5.1-6.54-.4-.1-.81.14-.91.54s.14.81.54.91c2.34.59,3.97,2.68,3.97,5.08-.01,2.91-2.36,5.26-5.26,5.26Z"/>
</svg>