<?xml version="1.0" encoding="UTF-8"?>
<svg id="Layer_1" xmlns="http://www.w3.org/2000/svg" version="1.1" viewBox="0 0 110 135">
  <!-- Generator: Adobe Illustrator 29.8.2, SVG Export Plug-In . SVG Version: 2.1.1 Build 3)  -->
  <defs>
    <style>
      .st0 {
        fill-rule: evenodd;
      }
    </style>
  </defs>
  <path class="st0" d="M11.89,39.83c.33,0,.63-.13.84-.35.21-.21.35-.52.35-.84s-.13-.63-.35-.84c-.21-.21-.52-.35-.84-.35s-.63.13-.84.35c-.21.21-.35.52-.35.84s.13.63.35.84c.21.22.51.35.84.35ZM69.95,79.2c-.05.05-.1.1-.15.14l-4.28,3.84c-.21.22-.5.36-.83.36h-17.32v2.71h18.81l18.23-16.35.04-.04c.47-.41,1.19-.36,1.6.11l.9,1.03,1.13-6.18-6.25.35.92,1.07c.4.46.36,1.17-.1,1.59l-6.96,6.24c-.05.05-.1.1-.15.14l-5.57,5ZM67.94,77.95v-18.25c0-.63.51-1.14,1.14-1.14h5.76c.63,0,1.14.51,1.14,1.14v11.04l4.32-3.87-1.7-1.97c-.41-.47-.36-1.19.12-1.6.2-.17.44-.26.68-.27h0s9.99-.57,9.99-.57c.62-.04,1.16.45,1.2,1.07,0,.11,0,.23-.03.33l-1.79,9.84c-.11.62-.7,1.02-1.32.91-.26-.05-.49-.18-.65-.37l-1.69-1.93-17.74,15.91c-.21.2-.49.29-.75.29h0s-20.37,0-20.37,0c-.63,0-1.14-.51-1.14-1.14v-4.99c0-.63.51-1.14,1.14-1.14h18.03l3.69-3.31ZM73.7,72.79l-3.48,3.12v-15.07h3.48v11.94ZM58.14,62.35h5.76c.63,0,1.14.51,1.14,1.14v14.94c0,.63-.51,1.14-1.14,1.14h-5.76c-.63,0-1.14-.51-1.14-1.14v-14.94c0-.62.51-1.13,1.14-1.13h0ZM62.76,64.62v12.66h-3.48v-12.66h3.48ZM47.19,66.12h5.76c.63,0,1.14.51,1.14,1.14v11.16c0,.63-.51,1.14-1.14,1.14h-5.76c-.63,0-1.14-.51-1.14-1.14v-11.16c0-.63.51-1.14,1.14-1.14h0ZM51.81,68.4v8.89h-3.48v-8.89h3.48ZM34.71,27.61c-.5-.18-.95-.46-1.32-.82-.63-.63-1.02-1.5-1.02-2.45s.39-1.82,1.02-2.45c.63-.63,1.5-1.02,2.45-1.02s1.82.39,2.45,1.02c.63.63,1.02,1.5,1.02,2.45s-.39,1.82-1.02,2.45c-.37.37-.82.65-1.32.82v4.79c2.59.23,4.95,1.24,6.86,2.79v-6.03c0-.63.51-1.14,1.14-1.14h3.61c.18-.5.46-.95.82-1.32.63-.63,1.5-1.02,2.45-1.02s1.82.39,2.45,1.02c.63.63,1.02,1.5,1.02,2.45s-.39,1.82-1.02,2.45c-.63.63-1.5,1.02-2.45,1.02s-1.82-.39-2.45-1.02c-.37-.37-.65-.82-.82-1.32h-2.47v7.3c1.32,1.81,2.16,3.98,2.37,6.34h3.29v-5.29c0-.63.51-1.14,1.14-1.14.04,0,.07,0,.1,0h3.51c.17-.5.46-.95.83-1.32.63-.63,1.5-1.02,2.45-1.02s1.82.39,2.45,1.02c.63.63,1.02,1.5,1.02,2.45s-.39,1.82-1.02,2.45-1.5,1.02-2.45,1.02-1.82-.39-2.45-1.02c-.37-.37-.65-.82-.83-1.32h-2.47v4.16h3.03c.63,0,1.14.51,1.14,1.14v.93h39.04c1.19,0,2.27.48,3.05,1.27s1.27,1.86,1.27,3.05v46.48c0,1.19-.48,2.27-1.27,3.05s-1.86,1.27-3.05,1.27h-28.28v4.9h5.37c1.07,0,2.04.47,2.73,1.23.68.73,1.09,1.74,1.09,2.84v2.93c0,.63-.51,1.14-1.14,1.14h-31.56c-.63,0-1.14-.51-1.14-1.14v-2.93c0-1.1.42-2.11,1.09-2.84.7-.76,1.66-1.23,2.73-1.23h5.37v-4.9h-26.48c-1.19,0-2.27-.48-3.05-1.26s-1.27-1.86-1.27-3.05v-33.66c-.46-.14-.9-.4-1.27-.77l-2.91-2.92c-.5-.5-.79-1.12-.88-1.78-.08-.65.05-1.33.41-1.93l1.45-2.45c.07-.12.11-.24.12-.36,0-.12-.02-.25-.08-.38-.1-.21-.19-.42-.27-.63-.1-.24-.18-.45-.25-.64-.05-.13-.12-.23-.2-.31-.09-.08-.2-.14-.34-.17l-2.76-.7c-.68-.18-1.26-.56-1.66-1.08-.41-.52-.64-1.18-.64-1.88v-2.07c0-.63.51-1.14,1.14-1.14h3.03v-4.16h-2.47c-.17.5-.46.95-.83,1.32-.63.63-1.5,1.02-2.45,1.02s-1.82-.39-2.45-1.02-1.02-1.5-1.02-2.45.39-1.82,1.02-2.45,1.5-1.02,2.45-1.02,1.82.39,2.45,1.02c.37.37.65.82.83,1.32h3.51s.07,0,.1,0c.63,0,1.14.51,1.14,1.14v5.29h3.29c.2-2.36,1.05-4.53,2.37-6.34v-7.3h-2.47c-.18.5-.46.95-.82,1.32-.63.63-1.5,1.02-2.45,1.02s-1.82-.39-2.45-1.02c-.63-.63-1.02-1.5-1.02-2.45s.39-1.82,1.02-2.45c.63-.63,1.5-1.02,2.45-1.02s1.82.39,2.45,1.02c.37.37.65.82.82,1.32h3.61c.63,0,1.14.51,1.14,1.14v6.03c1.91-1.55,4.27-2.55,6.86-2.79v-4.79ZM35,25.17c.21.21.52.35.84.35s.63-.13.84-.35c.21-.21.35-.52.35-.84s-.13-.63-.35-.84c-.21-.21-.52-.35-.84-.35s-.63.13-.84.35c-.21.21-.35.52-.35.84,0,.33.14.63.35.84ZM48.48,46.2h7.46v.93c0,.18-.06.35-.16.48-.1.13-.25.23-.43.27l-2.75.7c-.5.12-.93.36-1.29.69-.36.32-.64.74-.82,1.22-.08.22-.15.4-.21.56-.08.19-.16.37-.24.55v.02c-.05.07-.08.15-.1.23-.14.39-.2.79-.18,1.18.02.49.17.96.43,1.4l1.45,2.45c.09.16.13.34.11.5-.02.16-.1.32-.23.46l-2.91,2.92c-.13.13-.29.2-.45.23-.17.02-.35-.02-.5-.11l-2.44-1.45c-.44-.26-.91-.4-1.4-.43-.48-.02-.97.07-1.44.29-.18.08-.36.16-.55.24-.18.07-.36.14-.55.21h0c-.48.18-.89.46-1.21.82-.32.36-.56.8-.68,1.29l-.7,2.76c-.05.18-.14.33-.27.43-.13.1-.3.16-.48.16h-4.12c-.18,0-.36-.06-.48-.16-.13-.1-.23-.25-.27-.43l-.7-2.76c-.12-.5-.36-.93-.68-1.29-.32-.36-.74-.64-1.21-.82-.22-.08-.4-.15-.55-.21-.14-.06-.28-.12-.42-.18-.04-.02-.09-.04-.13-.06-.46-.21-.95-.3-1.43-.28-.49.03-.96.17-1.4.43l-2.44,1.45c-.09.05-.19.09-.29.11-.01,0-.02,0-.04,0-.06,0-.12,0-.18,0-.16-.02-.32-.1-.45-.23l-2.92-2.92c-.13-.13-.21-.29-.23-.46s.01-.34.11-.5l1.45-2.45c.26-.44.4-.91.43-1.4.02-.48-.07-.96-.28-1.43-.08-.18-.16-.36-.24-.55-.06-.15-.13-.34-.21-.55-.18-.48-.46-.89-.82-1.22-.36-.32-.8-.56-1.29-.69l-2.75-.7c-.18-.05-.33-.14-.43-.27s-.16-.3-.16-.48v-.93h7.46c.28,3.04,1.62,5.77,3.66,7.8,2.3,2.3,5.47,3.71,8.97,3.71s6.68-1.42,8.97-3.71c2.02-2.05,3.37-4.77,3.65-7.81h0ZM43.21,37.67c-1.88-1.88-4.49-3.05-7.36-3.05s-5.48,1.16-7.36,3.05c-1.82,1.82-2.97,4.32-3.05,7.09.03.1.04.2.04.31s-.01.21-.04.3c.09,2.74,1.23,5.22,3.04,7.03,1.88,1.88,4.49,3.05,7.36,3.05s5.48-1.16,7.36-3.05,2.96-4.29,3.04-7.03c-.03-.1-.04-.2-.04-.3s.02-.21.04-.3c-.07-2.77-1.22-5.27-3.05-7.09ZM19.83,30.35c.33,0,.63-.13.84-.35.21-.21.35-.52.35-.84s-.13-.63-.35-.84c-.21-.21-.52-.35-.84-.35s-.63.13-.84.35c-.21.21-.35.52-.35.84s.13.63.35.84c.21.21.51.35.84.35ZM51.03,29.99c.21.21.52.35.84.35s.63-.13.84-.35c.21-.21.35-.52.35-.84s-.13-.63-.35-.84c-.21-.21-.52-.35-.84-.35s-.63.13-.84.35c-.21.21-.35.52-.35.84,0,.33.13.63.35.84ZM58.96,39.48c.21.21.52.35.84.35s.63-.13.84-.35c.21-.21.35-.52.35-.84s-.13-.63-.35-.84c-.21-.21-.52-.35-.84-.35s-.63.13-.84.35-.35.52-.35.84.14.63.35.84ZM52.78,51.02s.04-.04.05-.06c.09-.08.2-.14.34-.17l2.75-.7c.68-.18,1.26-.56,1.66-1.08.18-.23.32-.47.43-.74h39.26c.56,0,1.07.23,1.44.6.37.37.6.88.6,1.44v46.48c0,.56-.23,1.07-.6,1.44-.37.37-.88.6-1.44.6h-29.41s-40.79,0-40.79,0c-.56,0-1.07-.23-1.44-.6-.37-.37-.6-.88-.6-1.44v-33.86c.05-.03.11-.06.17-.1l2.44-1.45s.09-.05.14-.07v33.62c0,.63.51,1.14,1.14,1.14h66.49c.63,0,1.14-.51,1.14-1.14v-42.77c0-.63-.5-1.14-1.13-1.14h-42.64ZM30.06,62.22c.03.05.05.12.07.18l.7,2.76c.18.68.56,1.26,1.08,1.66.52.41,1.18.64,1.88.64h4.12c.7,0,1.36-.23,1.88-.64.52-.41.91-.98,1.08-1.66l.7-2.76c.04-.14.09-.25.17-.34.08-.09.18-.16.32-.21.21-.08.42-.16.63-.25.21-.09.41-.18.62-.27.13-.06.25-.09.37-.08.12,0,.24.05.36.12l2.44,1.45c.61.36,1.29.49,1.94.41.66-.08,1.29-.38,1.79-.88l2.92-2.92c.5-.5.79-1.12.88-1.78.08-.65-.05-1.33-.41-1.93l-1.44-2.43h42.12v40.5H30.06s0-31.57,0-31.57ZM66.72,101.1h-10.9v4.9h10.9v-4.9ZM74.36,108.27h-26.18c-.41,0-.79.19-1.07.49-.3.33-.49.79-.49,1.3v1.79h29.28v-1.79c0-.51-.19-.97-.49-1.3-.27-.3-.65-.49-1.06-.49h0Z"/>
</svg>