<?xml version="1.0" encoding="UTF-8"?>
<svg id="Layer_1" xmlns="http://www.w3.org/2000/svg" version="1.1" viewBox="0 0 512 640">
  <!-- Generator: Adobe Illustrator 29.8.2, SVG Export Plug-In . SVG Version: 2.1.1 Build 3)  -->
  <defs>
    <style>
      .st0 {
        fill-rule: evenodd;
        stroke: #000;
        stroke-miterlimit: 10;
        stroke-width: .25px;
      }
    </style>
  </defs>
  <path class="st0" d="M187.67,440.47h136.66v-9.25c-.02-5.1-4.15-9.23-9.25-9.25h-118.16c-5.1.02-9.23,4.15-9.25,9.25v9.25ZM85.64,314.5h29.02v-106.87c.02-10.54,8.56-19.08,19.1-19.1h78.29l-8.14-28.01c-18.4,2.18-35.09-10.96-37.27-29.36s10.96-35.09,29.36-37.27c18.4-2.18,35.09,10.96,37.27,29.36,1.69,14.25-5.87,27.99-18.8,34.2l9.03,31.08h154.73c10.54.02,19.08,8.56,19.1,19.1v106.87h29.02c4.36-21.88,31.61-30.5,47.67-14.45,11.03,10.98,11.07,28.83.08,39.86-.03.03-.06.06-.08.08-16.06,16.05-43.31,7.43-47.67-14.45h-29.02v47.79c-.02,10.54-8.56,19.08-19.1,19.1h-42.03l93.1,93.1c22.11-15.82,53.02.1,53.02,27.28-.02,18.51-15.03,33.51-33.54,33.53-27.2,0-43.13-30.89-27.28-53.01l-100.9-100.91h-14.77v18.5h9.25c11.2.02,20.27,9.09,20.29,20.29v14.77c0,3.05-2.47,5.52-5.52,5.52h-147.7c-3.05,0-5.52-2.47-5.52-5.52v-14.77c.02-11.2,9.09-20.27,20.29-20.29h9.25v-18.5h-14.77l-84.73,84.74c14.48,18.79,10.99,45.76-7.81,60.24-18.79,14.48-45.76,10.99-60.24-7.81-14.48-18.79-10.99-45.76,7.81-60.24,15.45-11.91,36.99-11.91,52.44,0l76.92-76.92h-42.02c-10.54-.02-19.08-8.56-19.1-19.1v-47.79h-29.02c-4.36,21.88-31.61,30.5-47.67,14.45-11.03-10.98-11.07-28.83-.08-39.86.03-.03.06-.06.08-.08,16.06-16.05,43.31-7.43,47.67,14.45ZM70.12,307.85c-10.76-10.75-29.41-3.22-29.41,12.17s18.65,22.92,29.41,12.17c6.7-6.73,6.7-17.6,0-24.33ZM95.5,481.06l-.53-.53c-12.6-12.31-32.8-12.07-45.11.53-12.31,12.6-12.07,32.8.53,45.11,12.6,12.31,32.8,12.07,45.11-.53,12.11-12.39,12.11-32.18,0-44.58ZM433.12,496.65l-.51.51c-4.07,4.19-6.34,9.81-6.33,15.66,0,20.09,24.35,29.98,38.43,15.9,14.05-14.05,4.17-38.39-15.93-38.39-5.85-.01-11.47,2.26-15.67,6.32h0ZM215.89,111.32c-14.08-14.08-38.43-4.18-38.43,15.9s24.36,29.98,38.43,15.9c8.76-8.79,8.76-23.01,0-31.81ZM466.26,307.85c-10.76-10.75-29.41-3.22-29.41,12.17s18.65,22.92,29.41,12.17c6.7-6.73,6.7-17.6,0-24.33ZM403.13,156.05c-9.29.02-16.81,7.54-16.84,16.82,0,14.83,18.08,22.52,28.72,11.9,10.67-10.65,2.95-28.72-11.88-28.72ZM407.25,168.78c-2.26-2.27-5.93-2.28-8.2-.03-2.27,2.26-2.28,5.93-.03,8.2s5.93,2.28,8.2.03c0,0,.02-.02.03-.03,2.24-2.26,2.24-5.91,0-8.18ZM403.13,146.3c14.66-.03,26.56,11.83,26.58,26.49,0,.03,0,.05,0,.08,0,3.05,2.47,5.52,5.52,5.52s5.52-2.47,5.52-5.52c-.02-20.77-16.86-37.59-37.62-37.61-3.05,0-5.52,2.47-5.52,5.52s2.47,5.52,5.52,5.52h0ZM403.13,125.52c26.14-.03,47.34,21.14,47.37,47.28,0,.03,0,.05,0,.08,0,3.05,2.47,5.52,5.52,5.52s5.52-2.47,5.52-5.52c-.02-32.24-26.16-58.38-58.41-58.39-3.05,0-5.52,2.47-5.52,5.52s2.47,5.52,5.52,5.52h0ZM403.13,104.73c37.62-.02,68.14,30.47,68.16,68.1v.04c0,3.05,2.47,5.52,5.52,5.52s5.52-2.47,5.52-5.52c-.01-43.73-35.46-79.17-79.19-79.18-3.05,0-5.52,2.47-5.52,5.52s2.47,5.52,5.52,5.52h0ZM267.51,256.76c11.76.01,22.48,6.77,27.57,17.38,1.3,2.76.11,6.05-2.64,7.35-.72.34-1.52.52-2.32.53l-19.43.02-3.09,5.34c1.03,1.79,2.06,3.55,3.09,5.34h19.43c3.04,0,5.52,2.45,5.53,5.5,0,1.03-.28,2.03-.82,2.91-7.57,15.09-25.94,21.18-41.03,13.61-.57-.29-1.13-.59-1.68-.91l-25.66,14.81,2.54,2.54,6.51-6.51h0c1.87-1.86,4.81-2.14,7-.65,4.46,3.05,11.06,6.04,16.4,6.88,2.78.33,4.87,2.69,4.87,5.48v9.2h7.46v-9.2h.01c0-2.65,1.89-4.92,4.49-5.41,5.89-1.11,11.5-3.41,16.48-6.76,2.2-1.71,5.32-1.51,7.29.46l6.51,6.51,5.28-5.28-6.51-6.51h0c-1.87-1.88-2.15-4.82-.65-7.01,3.05-4.46,6.04-11.06,6.88-16.4.33-2.78,2.69-4.87,5.48-4.87h9.2v-7.46h-9.2c-2.65-.01-4.92-1.9-5.41-4.51-1.11-5.89-3.41-11.5-6.76-16.48-1.71-2.2-1.51-5.32.46-7.29l6.51-6.51-5.28-5.28-6.51,6.51h0c-1.87,1.86-4.81,2.14-7,.65-4.51-3.08-11.01-6.04-16.4-6.88-2.78-.33-4.87-2.69-4.87-5.48v-9.2h-7.46v9.2h-.01c0,2.65-1.89,4.92-4.49,5.41-5.89,1.12-11.5,3.42-16.48,6.76-2.2,1.71-5.32,1.51-7.29-.46l-6.51-6.51-5.28,5.28,6.51,6.51h0c1.87,1.88,2.15,4.82.65,7.01-3.38,4.94-5.73,10.52-6.88,16.4-.33,2.78-2.69,4.87-5.48,4.87h-9.2v7.46h8.82l19.76-11.41c3.5-13.49,15.67-22.91,29.6-22.92h0ZM216.57,334.33l6.28,6.28h.01c3.38,3.39,8.88,3.4,12.28.02,0,0,.01-.01.02-.02l5.06-5.06c3.94,2.24,8.15,3.98,12.52,5.19v7.16c0,2.31.92,4.52,2.55,6.15h.01c1.62,1.63,3.83,2.55,6.14,2.55h12.13c4.81,0,8.7-3.9,8.71-8.71v-7.16c4.37-1.21,8.58-2.95,12.52-5.19l5.07,5.07h.01c3.21,3.23,8.38,3.42,11.82.43l9.06-9.01c3.39-3.4,3.39-8.91,0-12.31l-5.06-5.06c2.24-3.94,3.98-8.15,5.19-12.52h7.16c4.8-.02,8.69-3.91,8.71-8.71v-12.14c-.02-4.8-3.91-8.69-8.71-8.71h-7.16c-1.21-4.37-2.95-8.57-5.19-12.52l5.07-5.07c3.39-3.4,3.39-8.91,0-12.31l-8.58-8.58h-.01c-3.21-3.23-8.37-3.42-11.81-.43l-5.55,5.5c-3.94-2.24-8.15-3.98-12.52-5.19v-7.16c0-4.81-3.9-8.7-8.71-8.71h-12.13c-4.8.01-8.69,3.9-8.71,8.71v7.16c-4.37,1.2-8.58,2.95-12.52,5.19l-5.06-5.06h-.01c-3.39-3.39-8.89-3.4-12.29-.01,0,0,0,0-.01.01l-8.58,8.58h.01c-3.4,3.4-3.41,8.9-.03,12.29,0,0,.01.01.02.02l5.06,5.06c-2.62,4.61-3.48,7.58-5.19,12.52h-7.16c-4.81,0-8.7,3.9-8.71,8.71v12.13c.02,2.79,1.36,5.4,3.61,7.05l-17.17,9.91c-8.86,4.91-12.07,16.08-7.15,24.95.05.09.1.17.15.26h.01c5.07,8.75,16.27,11.75,25.03,6.7l13.81-7.97h0ZM277.91,270.78c-9.18-5.73-21.27-2.93-27,6.26-1.35,2.17-2.27,4.57-2.69,7.09h-.01c-.27,1.63-1.25,3.04-2.68,3.86l-55.31,31.93c-3.61,1.92-4.98,6.39-3.06,10,.03.06.06.11.09.17h0c2.04,3.48,6.49,4.67,10,2.69l52.22-30.15c1.94-1.18,4.4-1.05,6.21.33,6.6,5.02,15.64,5.34,22.58.8h-10.73c-1.97-.01-3.78-1.06-4.77-2.76-2.08-3.61-4.14-7.2-6.22-10.8-2.21-3.77.8-6.73,2.93-10.69l3.1-5.38c.92-1.9,2.85-3.11,4.97-3.11h10.73l-.33-.21h0ZM133.76,372.63h244.48c3.05,0,5.52-2.47,5.52-5.52s-2.47-5.52-5.52-5.52h-244.48c-3.05,0-5.52,2.47-5.52,5.52s2.47,5.52,5.52,5.52ZM294.79,392.43h-77.58v18.5h77.58v-18.5h0ZM378.24,199.57h-244.48c-4.44.02-8.04,3.62-8.06,8.06v165.7c.02,4.44,3.62,8.04,8.06,8.06h244.47c4.44-.02,8.04-3.62,8.06-8.06v-165.7c-.02-4.44-3.62-8.04-8.06-8.06h0Z"/>
</svg>