<?xml version="1.0" encoding="UTF-8"?>
<svg id="Layer_1" xmlns="http://www.w3.org/2000/svg" version="1.1" viewBox="0 0 110 135">
  <!-- Generator: Adobe Illustrator 29.8.2, SVG Export Plug-In . SVG Version: 2.1.1 Build 3)  -->
  <defs>
    <style>
      .st0 {
        stroke: #000;
        stroke-miterlimit: 10;
      }
    </style>
  </defs>
  <path class="st0" d="M99.22,30.02H10.79c-1.46,0-2.66,1.46-2.66,3.26v69.14c0,1.41,1.2,2.57,2.66,2.57h88.43c1.47,0,2.66-1.15,2.66-2.57v-57.91s0-11.22,0-11.22c0-1.8-1.2-3.26-2.66-3.26h0ZM9.76,33.28c0-.95.54-1.62,1.02-1.62h88.43c.48,0,1.02.66,1.02,1.62v10.41H9.76v-10.41ZM100.24,102.41c0,.51-.46.93-1.02.93H10.79c-.57,0-1.02-.41-1.02-.93v-57.09h90.48v57.09ZM70.68,33.9c-2.08,0-3.77,1.69-3.77,3.77s1.69,3.77,3.77,3.77,3.77-1.69,3.77-3.77c0-2.08-1.69-3.77-3.77-3.77ZM70.68,39.8c-1.18,0-2.13-.96-2.13-2.13s.96-2.13,2.13-2.13,2.13.96,2.13,2.13c0,1.18-.95,2.13-2.13,2.13ZM81.11,33.9c-2.08,0-3.77,1.69-3.77,3.77s1.69,3.77,3.77,3.77,3.77-1.69,3.77-3.77c0-2.08-1.69-3.77-3.77-3.77ZM81.11,39.8c-1.18,0-2.13-.96-2.13-2.13s.96-2.13,2.13-2.13,2.13.96,2.13,2.13c0,1.18-.95,2.13-2.13,2.13ZM91.53,33.9c-2.08,0-3.77,1.69-3.77,3.77s1.69,3.77,3.77,3.77,3.77-1.69,3.77-3.77c0-2.08-1.69-3.77-3.77-3.77ZM91.53,39.8c-1.18,0-2.13-.96-2.13-2.13s.96-2.13,2.13-2.13,2.13.96,2.13,2.13c0,1.18-.95,2.13-2.13,2.13ZM19.94,78.8c.31,0,.61-.06.89-.16v20.1c0,1.65,1.34,2.99,2.99,2.99h.16c.86,0,1.62-.36,2.17-.94.02.02.04.04.06.06.57.57,1.32.88,2.11.88h.12c.8,0,1.55-.31,2.11-.88.57-.57.88-1.32.88-2.11l-.03-20.1c.28.11.58.16.89.16,1.39,0,2.52-1.13,2.52-2.52v-15.41c0-1.76-1.41-3.27-3.08-3.3h-.02l-11.22.16c-1.7.03-3.09,1.44-3.09,3.14v15.41c0,1.39,1.13,2.52,2.53,2.52h0ZM19.04,60.87c0-.82.66-1.49,1.48-1.51l11.2-.15c.77.02,1.46.81,1.46,1.66v15.41c0,.49-.4.89-.89.89s-.89-.4-.89-.89v-12.54c0-.45-.37-.82-.82-.82s-.82.37-.82.82v12.54l.03,22.47c0,.36-.14.7-.39.96-.26.26-.6.4-.96.4h-.12c-.36,0-.7-.14-.96-.4s-.4-.6-.4-.96l.02-20.9c0-.45-.37-.82-.82-.82s-.82.37-.82.82l-.02,20.9h0c0,.75-.61,1.36-1.35,1.36h-.16c-.75,0-1.35-.61-1.35-1.35v-22.47s0-12.54,0-12.54c0-.45-.37-.82-.82-.82s-.82.37-.82.82v12.54c0,.49-.4.89-.89.89s-.89-.4-.89-.89v-15.41ZM26.11,57.32c2.73,0,4.95-2.33,4.95-5.2s-2.22-5.2-4.95-5.2-4.95,2.33-4.95,5.2c0,2.86,2.22,5.2,4.95,5.2ZM26.11,48.56c1.83,0,3.31,1.6,3.31,3.56s-1.49,3.56-3.31,3.56-3.31-1.6-3.31-3.56c0-1.96,1.48-3.56,3.31-3.56ZM43.86,59.92c0-.45.37-.82.82-.82h8.52c.35,0,.66.22.78.55l.41,1.21,1.76-6.31c.1-.36.44-.61.81-.6.38.01.7.27.78.64l1,4.5h5.3c.38,0,.71.27.8.64l.95,4.22,2.61-11.37c.09-.37.42-.64.8-.64s.71.26.8.64l1.5,6.51h6.58c.35,0,.67.23.78.56l.67,2.03.97-5.18c.07-.34.34-.61.68-.66.34-.05.68.12.85.43l1.51,2.82h8.24c.45,0,.82.37.82.82s-.37.82-.82.82h-8.73c-.3,0-.58-.17-.72-.43l-.64-1.2-1.13,6.02c-.07.37-.38.64-.75.66s-.71-.21-.83-.56l-1.48-4.48h-6.64c-.38,0-.71-.26-.8-.64l-.84-3.66-2.61,11.41c-.09.37-.42.64-.8.64h0c-.38,0-.71-.27-.8-.64l-1.6-7.11h-5.3c-.38,0-.71-.27-.8-.64l-.43-1.95-1.6,5.72c-.1.35-.41.59-.77.6-.36,0-.68-.21-.8-.55l-1.07-3.18h-7.94c-.45,0-.82-.37-.82-.82h0ZM51.32,72.78h-4.01c-.45,0-.82.37-.82.82v4.01c0,.45.37.82.82.82h4.01c.45,0,.82-.37.82-.82v-4.01c0-.45-.37-.82-.82-.82ZM50.5,76.79h-2.37v-2.37h2.37v2.37ZM51.32,81.92h-4.01c-.45,0-.82.37-.82.82v4.01c0,.45.37.82.82.82h4.01c.45,0,.82-.37.82-.82v-4.01c0-.45-.37-.82-.82-.82ZM50.5,85.93h-2.37v-2.37h2.37v2.37ZM51.32,91.06h-4.01c-.45,0-.82.37-.82.82v4.01c0,.45.37.82.82.82h4.01c.45,0,.82-.37.82-.82v-4.01c0-.45-.37-.82-.82-.82ZM50.5,95.06h-2.37v-2.37h2.37v2.37ZM89.97,75.6c0,.45-.37.82-.82.82h-31.7c-.45,0-.82-.37-.82-.82s.37-.82.82-.82h31.7c.45,0,.82.37.82.82ZM89.97,84.74c0,.45-.37.82-.82.82h-31.7c-.45,0-.82-.37-.82-.82s.37-.82.82-.82h31.7c.45,0,.82.37.82.82ZM89.97,93.88c0,.45-.37.82-.82.82h-31.7c-.45,0-.82-.37-.82-.82s.37-.82.82-.82h31.7c.45,0,.82.37.82.82Z"/>
</svg>