<?xml version="1.0" encoding="UTF-8"?>
<svg id="Layer_1" xmlns="http://www.w3.org/2000/svg" version="1.1" viewBox="0 0 110 135">
  <!-- Generator: Adobe Illustrator 29.8.2, SVG Export Plug-In . SVG Version: 2.1.1 Build 3)  -->
  <path d="M49.06,85.09c-.76,0-1.37.61-1.37,1.37v16.24c0,2.38-1.94,4.31-4.31,4.31h-18.15c-2.38,0-4.31-1.94-4.31-4.31v-32.88c0-2.38,1.94-4.31,4.31-4.31h18.15c2.38,0,4.31,1.94,4.31,4.31v9.18h-3.2c-.47,0-.89.28-1.07.7l-1.43,3.28-2.75-9.79c-.14-.52-.62-.87-1.16-.86-.54.02-1,.39-1.11.92l-2.51,11.32-.94-2.49c-.17-.45-.61-.76-1.09-.76h-5.73c-.65,0-1.17.52-1.17,1.17s.52,1.17,1.17,1.17h4.93l2.05,5.41c.17.46.61.76,1.09.76.03,0,.05,0,.09,0,.52-.04.95-.41,1.06-.92l2.35-10.6,2.38,8.47c.13.48.55.82,1.05.85.49.04.96-.25,1.16-.7l2.43-5.6h9.95c.65,0,1.17-.52,1.17-1.17s-.52-1.17-1.17-1.17h-4.79v-9.18c0-3.89-3.16-7.05-7.05-7.05h-18.15c-3.89,0-7.05,3.16-7.05,7.05v32.88c0,3.89,3.16,7.05,7.05,7.05h18.15c3.89,0,7.05-3.16,7.05-7.05v-16.24c0-.76-.61-1.37-1.37-1.37h0Z"/>
  <path d="M71.89,69.61h-5.35c-.65,0-1.17.52-1.17,1.17v3.39h-3.39c-.65,0-1.17.52-1.17,1.17v5.35c0,.65.52,1.17,1.17,1.17h3.39v3.39c0,.65.52,1.17,1.17,1.17h5.35c.65,0,1.17-.52,1.17-1.17v-3.39h3.39c.65,0,1.17-.52,1.17-1.17v-5.35c0-.65-.52-1.17-1.17-1.17h-3.39v-3.39c0-.65-.52-1.17-1.17-1.17ZM75.28,76.51v3h-3.39c-.65,0-1.17.52-1.17,1.17v3.39h-3v-3.39c0-.65-.52-1.17-1.17-1.17h-3.39v-3h3.39c.65,0,1.17-.52,1.17-1.17v-3.39h3v3.39c0,.65.52,1.17,1.17,1.17h3.39Z"/>
  <path d="M88.48,64.4c-2.59-2.98-6.33-4.69-10.27-4.69h-.03c-3.3,0-6.49,1.22-8.95,3.38-4.71-4.14-11.75-4.56-16.93-.84-.61.44-.75,1.3-.31,1.91.44.61,1.3.75,1.91.31,4.45-3.2,10.6-2.57,14.32,1.45.26.28.62.44,1,.44s.75-.16,1-.44c2.05-2.21,4.95-3.48,7.96-3.48h.05c3.14,0,6.12,1.37,8.19,3.75,3.93,4.53,3.45,11.41-1.08,15.34-.03.03-.06.05-.09.09-2.25,2.34-6.98,6.76-13.68,12.78-.83.75-1.62,1.45-2.35,2.1-.73-.65-1.52-1.36-2.35-2.1-1.58-1.42-4.38-4.05-6.84-6.38-1.31-1.23-2.55-2.39-3.43-3.22-.55-.52-1.42-.48-1.93.07-.52.55-.48,1.42.07,1.93.88.82,2.11,1.98,3.42,3.21,2.48,2.33,5.29,4.97,6.89,6.41,1.2,1.08,2.31,2.07,3.27,2.92.26.23.59.34.91.34s.65-.12.91-.35c.95-.85,2.07-1.85,3.27-2.92,6.8-6.12,11.44-10.45,13.78-12.88,5.62-4.93,6.21-13.51,1.3-19.16h0Z"/>
  <path d="M34.01,52.35h8.57v1.85c0,.31.12.61.34.83l2.78,2.77c.23.23.53.34.83.34s.6-.12.83-.34c.46-.46.46-1.2,0-1.66l-2.43-2.43v-1.36h2.69c.76,0,1.37-.61,1.37-1.37s-.61-1.37-1.37-1.37h-2.68c1.48-.49,2.55-1.89,2.55-3.53,0-2.05-1.67-3.73-3.73-3.73s-3.73,1.67-3.73,3.73c0,1.64,1.07,3.04,2.55,3.53h-8.57c-2.49,0-4.52-2.03-4.52-4.52,0-2.16,1.54-4.04,3.66-4.44.28-.05.57-.08.86-.08.11,0,.2,0,.3.01.96.06,1.85.42,2.59,1.04.26.21.57.32.88.32.39,0,.78-.17,1.05-.49.48-.58.4-1.44-.18-1.93-1.19-.99-2.62-1.56-4.15-1.66h-.04c.58-1.84,2.29-3.17,4.32-3.17.15,0,.3,0,.46.02.16.02.32.04.49.08,1,.21,1.91.77,2.56,1.58.27.34.66.51,1.06.51.3,0,.61-.1.86-.3.59-.48.68-1.34.2-1.92-.74-.91-1.69-1.62-2.75-2.09.96-2.68,3.56-4.55,6.47-4.55,2.09,0,4.03.93,5.34,2.55.34.42.63.88.86,1.37.23.49.73.78,1.23.78.2,0,.39-.04.59-.13.68-.32.97-1.14.65-1.82-.15-.32-.32-.62-.5-.92.8-.66,1.81-1.03,2.88-1.03,2.22,0,4.1,1.63,4.46,3.79-1.13.51-2.13,1.3-2.88,2.3-.45.61-.32,1.46.28,1.91.24.18.53.27.81.27.42,0,.83-.19,1.1-.55.61-.82,1.48-1.41,2.45-1.67.16-.04.3-.11.43-.2.15.04.3.06.47.05.09,0,.18,0,.29,0,2.04,0,3.76,1.35,4.33,3.21-.01,0-.02,0-.04,0-.02,0-.04,0-.05.02l-.07.02s-.03.01-.05.02c-.02,0-.05.02-.07.03l-.05.02s-.05.02-.07.04c-.02,0-.03.02-.04.02-.02.02-.05.04-.08.05,0,0-.02.01-.03.02-.03.02-.06.05-.09.08l-.02.02s-.04.04-.06.07c0,.01-.02.02-.03.04-.02.02-.03.04-.05.06,0,.02-.02.03-.03.04-.02.02-.03.04-.04.06l-.02.05s-.02.04-.03.06l-.02.05s-.02.05-.03.07c0,.02-.01.04-.02.05,0,.02-.02.05-.02.07,0,.02,0,.04-.02.05,0,.02,0,.05-.02.08,0,.02,0,.03,0,.05,0,.03,0,.06,0,.09v.04s0,.09,0,.13c.05.75.71,1.32,1.47,1.26.19-.02.37-.02.55,0,.14,0,.28.02.41.04,2.23.3,3.91,2.23,3.91,4.48,0,2.49-2.03,4.52-4.52,4.52h-8.46c1.48-.49,2.55-1.89,2.55-3.53,0-2.05-1.67-3.73-3.73-3.73s-3.73,1.67-3.73,3.73c0,1.64,1.07,3.04,2.55,3.54v4.09l-2.43,2.43c-.46.46-.46,1.2,0,1.66.23.23.53.34.83.34s.6-.12.83-.34l2.78-2.77c.22-.22.34-.52.34-.83v-1.85h8.46c4,0,7.26-3.26,7.26-7.26,0-3.23-2.16-6.05-5.17-6.95-.52-3.5-3.54-6.2-7.18-6.2-.1,0-.2,0-.29,0-.64-3.37-3.62-5.9-7.12-5.9-1.71,0-3.34.59-4.62,1.66-1.75-1.58-4.02-2.46-6.42-2.46-4.18,0-7.91,2.77-9.15,6.7h-.2c-3.68,0-6.73,2.75-7.2,6.3-2.86,1.01-4.84,3.73-4.84,6.84,0,4,3.26,7.26,7.26,7.26h0ZM43.76,44.7c.76,0,1.38.62,1.38,1.38s-.62,1.38-1.38,1.38-1.38-.62-1.38-1.38.62-1.38,1.38-1.38ZM62.06,44.7c.76,0,1.38.62,1.38,1.38s-.62,1.38-1.38,1.38-1.38-.62-1.38-1.38.62-1.38,1.38-1.38Z"/>
  <path d="M52.89,59.7c.65,0,1.17-.52,1.17-1.17v-6.19h2.93c.76,0,1.37-.61,1.37-1.37s-.61-1.37-1.37-1.37h-2.93v-5.39c1.48-.49,2.55-1.89,2.55-3.53,0-2.05-1.67-3.73-3.73-3.73s-3.73,1.67-3.73,3.73c0,1.64,1.07,3.04,2.55,3.53v14.31c0,.65.52,1.17,1.17,1.17h0ZM52.89,39.31c.76,0,1.38.62,1.38,1.38s-.62,1.38-1.38,1.38-1.38-.62-1.38-1.38.62-1.38,1.38-1.38Z"/>
</svg>