<?xml version="1.0" encoding="UTF-8"?>
<svg id="Layer_1" xmlns="http://www.w3.org/2000/svg" version="1.1" viewBox="0 0 96 120">
  <!-- Generator: Adobe Illustrator 29.8.2, SVG Export Plug-In . SVG Version: 2.1.1 Build 3)  -->
  <path d="M10.81,81.61c.41.71.17,1.62-.54,2.03-.23.14-.49.2-.74.2-.51,0-1.01-.26-1.28-.74-4.94-8.48-7-18.13-5.97-27.91,1.29-12.21,7.25-23.19,16.8-30.92,9.55-7.73,21.53-11.27,33.74-9.99,8.14.86,15.8,3.82,22.34,8.62l-.96-3.35c-.22-.79.23-1.61,1.02-1.83.79-.22,1.61.23,1.83,1.02l2.25,7.89c.12.44.04.91-.23,1.28-.27.37-.69.59-1.15.61l-8.2.3s-.04,0-.05,0c-.79,0-1.45-.63-1.48-1.43-.03-.82.61-1.51,1.43-1.53l4.32-.15c-6.23-4.72-13.59-7.63-21.43-8.46C28.92,14.74,7.71,31.91,5.23,55.5c-.96,9.15.97,18.18,5.59,26.11ZM87.75,36.9c-.41-.71-1.32-.95-2.03-.53-.71.41-.95,1.32-.54,2.03,4.62,7.93,6.55,16.96,5.58,26.11-2.32,22.06-21.03,38.51-42.74,38.51-1.5,0-3.01-.08-4.53-.24-7.84-.82-15.2-3.74-21.43-8.46l4.32-.15c.82-.03,1.46-.72,1.43-1.54-.03-.82-.71-1.46-1.54-1.43l-8.2.29c-.46.02-.88.24-1.15.61s-.35.84-.23,1.28l2.25,7.89c.19.65.78,1.08,1.43,1.08.14,0,.27-.02.41-.06.79-.22,1.24-1.05,1.02-1.83l-.96-3.35c6.54,4.79,14.2,7.76,22.34,8.62,1.64.17,3.27.26,4.9.26,10.49,0,20.58-3.56,28.84-10.25,9.54-7.73,15.51-18.71,16.8-30.92,1.03-9.78-1.03-19.44-5.97-27.91ZM53.84,51.45v6.41c1.01-.96,2.12-1.8,3.33-2.5v-10.85c0-.82.66-1.48,1.48-1.48h7.35c.82,0,1.48.66,1.48,1.48v8.54c9.04.76,16.16,8.35,16.16,17.58,0,9.73-7.92,17.64-17.64,17.64-5.35,0-10.15-2.39-13.38-6.16-.09.02-.17.03-.27.03h-7.35c-.82,0-1.48-.66-1.48-1.48v-29.21c0-.82.66-1.48,1.48-1.48h7.35c.82,0,1.48.66,1.48,1.48ZM50.57,79.17c-1.41-2.53-2.21-5.45-2.21-8.54,0-3.31.92-6.41,2.51-9.06v-8.63h-4.39v26.24h4.08ZM60.14,53.99c1.39-.49,2.86-.81,4.39-.94v-7.06h-4.39v8ZM51.33,70.63c0,8.09,6.58,14.68,14.68,14.68s14.68-6.58,14.68-14.68-6.58-14.68-14.68-14.68-14.68,6.59-14.68,14.68ZM38.7,57.68c.82,0,1.48.66,1.48,1.48v21.49c0,.82-.66,1.48-1.48,1.48h-7.35c-.82,0-1.48-.66-1.48-1.48v-21.49c0-.82.66-1.48,1.48-1.48h7.35ZM37.22,60.64h-4.39v18.53h4.39v-18.53ZM16.22,80.65v-14.1c0-.82.66-1.48,1.48-1.48h7.35c.82,0,1.48.66,1.48,1.48v14.1c0,.82-.66,1.48-1.48,1.48h-7.35c-.82,0-1.48-.66-1.48-1.48ZM19.19,79.17h4.39v-11.14h-4.39v11.14ZM17.42,60.99c17.72-6.17,33.36-15.11,46.53-26.6l-.26,1.76c-.12.81.44,1.56,1.25,1.68.07.01.14.02.21.02.72,0,1.36-.53,1.47-1.27l.85-5.83c.06-.44-.07-.89-.37-1.21-.3-.33-.73-.5-1.18-.48l-5.88.32c-.82.04-1.44.74-1.4,1.56.04.82.74,1.44,1.56,1.4l1.68-.09c-12.86,11.19-28.13,19.91-45.44,25.94-.77.27-1.18,1.12-.91,1.89.21.61.79,1,1.4,1,.16,0,.33-.03.49-.08ZM52.84,70.63c0-7.26,5.9-13.16,13.16-13.16s13.16,5.9,13.16,13.16-5.9,13.16-13.16,13.16-13.16-5.9-13.16-13.16ZM55.81,70.63c0,5.62,4.57,10.19,10.19,10.19s10.19-4.57,10.19-10.19-4.57-10.19-10.19-10.19-10.19,4.57-10.19,10.19ZM66.12,74.88c-.94.02-2.14-.35-2.42-1.47-.2-.79-1-1.28-1.8-1.08-.79.2-1.28,1-1.08,1.8.44,1.78,1.85,3.08,3.7,3.54v.35c0,.82.66,1.48,1.48,1.48s1.48-.66,1.48-1.48v-.32c1.17-.25,2.18-.8,2.84-1.57.71-.81,1.01-1.83.87-2.94-.27-2.2-1.93-3.57-4.95-4.06-2.08-.34-2.11-1.05-2.13-1.31-.05-.98,1-1.3,1.32-1.37.72-.16,2.08-.09,2.63,1.22.32.76,1.19,1.11,1.94.79.75-.32,1.11-1.19.79-1.94-.68-1.63-1.96-2.54-3.32-2.91v-.36c0-.82-.66-1.48-1.48-1.48s-1.48.66-1.48,1.48v.38c-2.12.59-3.45,2.3-3.35,4.34.06,1.26.74,3.46,4.61,4.1,2.35.38,2.44,1.16,2.48,1.49.04.35-.06.52-.17.65-.34.39-1.15.68-1.97.7Z"/>
</svg>