<?xml version="1.0" encoding="UTF-8"?>
<svg id="Layer_1" xmlns="http://www.w3.org/2000/svg" version="1.1" viewBox="0 0 110 135">
  <!-- Generator: Adobe Illustrator 29.8.2, SVG Export Plug-In . SVG Version: 2.1.1 Build 3)  -->
  <defs>
    <style>
      .st0 {
        fill-rule: evenodd;
        stroke: #000;
        stroke-miterlimit: 10;
        stroke-width: .5px;
      }
    </style>
  </defs>
  <path class="st0" d="M41.06,45.12H12.06v3.7h29v-3.7ZM68.93,48.82h29v-3.7h-29v3.7ZM60.48,28.61l-1.72-3.53h-7.52l-1.72,3.53h10.96ZM59.27,39.22v-4.15h-8.55v4.16h8.55ZM48.66,39.22h-2.5v-8.54h17.67v8.54h-2.5v-5.19c0-.27-.11-.54-.3-.73-.2-.19-.46-.3-.73-.3h-10.6c-.57,0-1.03.46-1.03,1.03v5.19h0ZM37.99,32.99h-16.02v1.98h16.02v-1.98ZM28.95,43.07v-6.03h-4.23v6.03h4.23ZM31.02,37.04v6.03h4.23v-6.03h-4.23ZM25.06,55.11h-3.33v3.33h3.33v-3.33ZM20.7,53.05h5.39c.27,0,.54.11.73.3.2.19.3.46.3.73v5.39c0,.57-.46,1.03-1.03,1.03h-5.39c-.57,0-1.03-.46-1.03-1.03v-5.39c0-.57.46-1.03,1.03-1.03h0ZM35.33,55.11h-3.33s0,3.32,0,3.32h3.33v-3.33h0ZM30.97,53.05h5.39c.57,0,1.03.46,1.03,1.03v5.39c0,.57-.46,1.03-1.03,1.03h-5.39c-.57,0-1.03-.46-1.03-1.03v-5.39c0-.57.46-1.03,1.03-1.03ZM25.06,68.2h-3.33v3.33h3.33v-3.33ZM20.7,66.14h5.39c.27,0,.54.11.73.3.2.19.3.46.3.73v5.39c0,.57-.46,1.03-1.03,1.03h-5.39c-.57,0-1.03-.46-1.03-1.03v-5.39c0-.57.46-1.03,1.03-1.03h0ZM35.33,68.2h-3.33v3.33h3.33v-3.33h0ZM30.97,66.14h5.39c.57,0,1.03.46,1.03,1.03v5.39c0,.57-.46,1.03-1.03,1.03h-5.39c-.57,0-1.03-.46-1.03-1.03v-5.4c0-.57.46-1.03,1.03-1.03ZM78,55.11h-3.33v3.33h3.33s0-3.33,0-3.33ZM73.64,53.05h5.39c.57,0,1.03.46,1.03,1.03v5.39c0,.57-.46,1.03-1.03,1.03h-5.39c-.57,0-1.03-.46-1.03-1.03v-5.39c0-.57.46-1.03,1.03-1.03ZM88.27,55.11h-3.33v3.33h3.33v-3.33ZM83.91,53.05h5.39c.27,0,.54.11.73.3.2.19.3.46.3.73v5.39c0,.57-.46,1.03-1.03,1.03h-5.39c-.57,0-1.03-.46-1.03-1.03v-5.39c0-.57.46-1.03,1.03-1.03h0ZM78,68.2h-3.33v3.33h3.33s0-3.33,0-3.33ZM73.64,66.14h5.39c.57,0,1.03.46,1.03,1.03v5.39c0,.57-.46,1.03-1.03,1.03h-5.39c-.57,0-1.03-.46-1.03-1.03v-5.4c0-.57.46-1.03,1.03-1.03ZM88.27,68.2h-3.33v3.33h3.33v-3.33ZM83.91,66.14h5.39c.27,0,.54.11.73.3.2.19.3.46.3.73v5.39c0,.57-.46,1.03-1.03,1.03h-5.39c-.57,0-1.03-.46-1.03-1.03v-5.39c0-.57.46-1.03,1.03-1.03h0ZM51.53,50.09h-3.33v3.33h3.33v-3.33ZM47.17,48.03h5.39c.57,0,1.03.46,1.03,1.03v5.39c0,.57-.46,1.03-1.03,1.03h-5.39c-.57,0-1.03-.46-1.03-1.03v-5.39c0-.57.46-1.03,1.03-1.03h0ZM61.8,50.09h-3.33v3.33h3.33v-3.33ZM57.44,48.03h5.39c.57,0,1.03.46,1.03,1.03v5.39c0,.57-.46,1.03-1.03,1.03h-5.39c-.57,0-1.03-.46-1.03-1.03v-5.39c0-.57.46-1.03,1.03-1.03h0ZM51.53,63.5h-3.33v3.33h3.33v-3.33ZM47.17,61.44h5.39c.57,0,1.03.46,1.03,1.04v5.39c0,.57-.46,1.03-1.03,1.03h-5.39c-.57,0-1.03-.46-1.03-1.03v-5.39c0-.57.46-1.03,1.03-1.03h0ZM61.8,63.5h-3.33v3.33h3.33v-3.33ZM57.44,61.44h5.39c.57,0,1.03.46,1.03,1.04v5.39c0,.57-.46,1.03-1.03,1.03h-5.39c-.57,0-1.03-.46-1.03-1.03v-5.39c0-.57.46-1.03,1.03-1.03h0ZM58.27,74.7h-6.53v3.3c0,.46-.3.86-.73.98-.9.27-1.77.63-2.59,1.08-.41.21-.9.14-1.22-.19l-2.27-2.32-4.62,4.62,2.26,2.31c.34.32.42.82.2,1.23-.43.81-.79,1.66-1.06,2.54-.11.46-.52.79-1,.79h-3.3v6.53h3.3c.46,0,.86.3.99.73.27.88.62,1.72,1.04,2.54.25.41.19.94-.15,1.27l-2.34,2.34,4.62,4.62,2.34-2.33h0c.32-.32.81-.39,1.21-.18.81.43,1.66.79,2.54,1.06.46.11.79.52.79,1v3.3h6.53v-3.3h0c0-.45.3-.86.73-.98.88-.28,1.72-.62,2.54-1.04.41-.25.93-.2,1.27.14l2.34,2.34,4.62-4.62-2.33-2.34h0c-.32-.32-.39-.82-.18-1.22.44-.81.79-1.66,1.06-2.54.11-.46.52-.79,1-.79h3.3v-6.53h-3.3c-.46,0-.86-.3-.99-.73-.26-.88-.61-1.73-1.04-2.54-.25-.41-.19-.93.15-1.27l2.33-2.34-4.62-4.62-2.33,2.33c-.32.32-.81.39-1.21.18-.81-.44-1.66-.79-2.54-1.06-.46-.11-.79-.52-.79-1v-3.3ZM35.33,93.34H15.99v-42.45h25.07v27.59l-2.95,2.95c-.39.39-.4,1.04,0,1.44l2.49,2.55-.65,1.57h-3.59c-.27,0-.54.11-.73.3-.19.19-.3.46-.3.73v5.32ZM74.67,95.4v1.2c0,.57-.46,1.03-1.03,1.03h-3.59l-.64,1.55,2.54,2.54c.2.19.3.45.3.73s-.11.54-.3.73l-6.07,6.07c-.4.4-1.05.4-1.46,0l-2.54-2.54c-.5.24-1.02.46-1.55.64v3.59c0,.57-.46,1.03-1.03,1.03h-8.59c-.57,0-1.03-.46-1.03-1.03v-3.59l-1.55-.64-2.54,2.54c-.41.4-1.05.4-1.46,0l-6.07-6.07c-.2-.19-.3-.45-.3-.73s.11-.54.3-.73l2.54-2.54c-.24-.51-.46-1.02-.64-1.55h-3.59c-.57,0-1.03-.46-1.03-1.03v-1.2H14.96c-.57,0-1.03-.46-1.03-1.03v-43.48h-2.9c-.27,0-.54-.11-.73-.3-.19-.19-.3-.45-.3-.73v-5.76c0-.27.11-.54.3-.73.2-.19.46-.3.73-.3h2.99v-11.22c.02-.56.48-1,1.03-1s1.02.44,1.03,1v11.22h6.57v-6.03h-1.72c-.57,0-1.03-.46-1.03-1.03v-4.04c0-.57.46-1.03,1.03-1.03h18.08c.27,0,.54.11.73.3.19.2.3.46.3.73v4.05h0c0,.57-.46,1.03-1.03,1.03h-1.71v6.03h3.76v-2.82c0-.57.46-1.03,1.03-1.03h2.01v-9.57c0-.57.46-1.03,1.03-1.03h2.1l2.4-4.95c.16-.39.54-.65.96-.65h8.8c.39,0,.76.23.93.58l2.44,5.01h2.1c.27,0,.54.11.73.3.2.2.3.46.3.73v9.57h2.01c.57,0,1.03.46,1.03,1.03v2.82h30.03c.27,0,.54.11.73.3.2.2.3.46.3.73v5.76c0,.57-.46,1.03-1.03,1.03h-2.9v43.48c0,.57-.46,1.03-1.03,1.03h-20.37ZM68.94,78.43v-27.53h25.07v42.45h-19.34v-5.32c0-.27-.11-.54-.3-.73-.2-.2-.46-.3-.73-.3h-3.59l-.64-1.55,2.54-2.54c.2-.2.3-.46.3-.73s-.11-.54-.3-.73l-3.01-3.01h0ZM50.7,72.64c-.57,0-1.03.46-1.03,1.03v3.59l-1.55.64-2.42-2.48h0c-.19-.22-.46-.36-.75-.37-.29-.01-.57.1-.77.3l-1.07,1.07v-35.14h23.75v35.08l-1-1c-.4-.4-1.05-.4-1.46,0l-2.54,2.54-1.55-.64v-3.59c0-.57-.46-1.03-1.03-1.03h-8.59ZM60.45,86.85h0c2.21,2.21,2.87,5.53,1.67,8.41-1.2,2.88-4.01,4.76-7.13,4.76s-5.93-1.88-7.13-4.76c-1.2-2.88-.54-6.2,1.67-8.41,1.45-1.45,3.41-2.26,5.46-2.26s4.01.81,5.46,2.26h0ZM55,82.53c3.95,0,7.52,2.38,9.03,6.04,1.52,3.66.68,7.86-2.12,10.66-2.8,2.8-7,3.63-10.66,2.12-3.65-1.51-6.04-5.08-6.04-9.03,0-5.4,4.38-9.78,9.78-9.78h0ZM88.27,81.28h-3.33v3.33h3.33v-3.33ZM83.91,79.22c-.57,0-1.03.46-1.03,1.03v5.39c0,.27.11.54.3.73.19.2.45.3.73.3h5.39c.27,0,.54-.11.73-.3.2-.19.3-.45.3-.73v-5.39c0-.57-.46-1.03-1.03-1.03h-5.39ZM25.06,81.28h-3.33v3.33h3.33v-3.33ZM20.7,79.22c-.57,0-1.03.46-1.03,1.03v5.39c0,.27.11.54.3.73.19.2.45.3.73.3h5.39c.27,0,.54-.11.73-.3.2-.19.3-.45.3-.73v-5.39c0-.57-.46-1.03-1.03-1.03h-5.39Z"/>
</svg>