<?xml version="1.0" encoding="UTF-8"?>
<svg id="Layer_1" xmlns="http://www.w3.org/2000/svg" version="1.1" viewBox="0 0 110 135">
  <!-- Generator: Adobe Illustrator 29.8.2, SVG Export Plug-In . SVG Version: 2.1.1 Build 3)  -->
  <defs>
    <style>
      .st0 {
        stroke: #000;
        stroke-miterlimit: 10;
        stroke-width: .25px;
      }
    </style>
  </defs>
  <path class="st0" d="M101.67,89.98v5.58c0,1.05-.71,1.93-1.74,2.15l-3.59.77c-.2.55-.42,1.09-.67,1.62l2,3.09c.57.88.45,2.01-.29,2.75l-3.94,3.94c-.74.74-1.87.86-2.75.29l-3.09-1.99c-.53.25-1.07.48-1.62.67l-.77,3.59c-.22,1.02-1.1,1.74-2.15,1.74h-5.57c-1.05,0-1.93-.71-2.15-1.74l-.77-3.59c-.55-.2-1.09-.42-1.62-.67l-3.09,1.99c-.88.57-2.01.45-2.75-.29l-1.31-1.31H9.49c-.64,0-1.16-.52-1.16-1.16,0-2.63,2.14-4.77,4.77-4.77h2.2v-59.44s-.75,0-.75,0c-1.83,0-3.31-1.49-3.31-3.31s1.49-3.31,3.31-3.31h5.96v-11.13c0-2.55,2.07-4.62,4.62-4.62h40.42c2.55,0,4.62,2.07,4.62,4.62v11.13h5.96c1.83,0,3.31,1.49,3.31,3.31s-1.49,3.31-3.31,3.31h-.74v29.65c.3-.89,1.12-1.49,2.08-1.49h5.57c1.05,0,1.93.71,2.15,1.74l.77,3.59c.55.2,1.09.42,1.62.67l3.09-2c.88-.57,2.01-.45,2.75.29l3.94,3.94c.74.74.86,1.87.29,2.75l-1.99,3.09c.25.53.48,1.07.67,1.62l3.59.77c1.03.23,1.74,1.11,1.74,2.16h0ZM22.84,36.57h45.02v-11.13c0-1.27-1.03-2.3-2.3-2.3H25.14c-1.27,0-2.3,1.03-2.3,2.3v11.13ZM14.55,40.88h61.6c.55,0,.99-.44.99-.99s-.44-.99-.99-.99H14.55c-.55,0-.99.44-.99.98,0,.54.45.99.99.99ZM17.63,102.63h18.06v-13.63s-.48,0-.48,0c-1.53,0-2.77-1.24-2.77-2.77s1.24-2.77,2.77-2.77h20.32c1.53,0,2.77,1.24,2.77,2.77s-1.24,2.77-2.77,2.77h-.49v13.63h8.2l1.64-2.54c-.25-.53-.48-1.07-.67-1.62l-3.6-.77c-1.02-.22-1.74-1.1-1.74-2.15v-5.58c0-1.05.71-1.93,1.74-2.15l3.59-.77c.2-.55.42-1.09.67-1.62l-1.99-3.09c-.57-.88-.45-2.01.29-2.75l1.5-1.5h-7.13c-.64,0-1.16-.52-1.16-1.16v-10.09c0-.64.52-1.16,1.16-1.16h10.09c.64,0,1.16.52,1.16,1.16v8.17c.37.02.73.14,1.06.35l3.09,1.99c.05-.02.09-.04.14-.06v-34.09H17.63v59.43ZM66.47,68h-7.77v7.77h7.77v-7.77ZM55.51,86.68c.24,0,.44-.2.44-.44s-.2-.44-.44-.44h-20.32c-.24,0-.44.2-.44.45s.2.44.44.44h20.32ZM38.01,89v13.63h6.18v-13.63h-6.18ZM46.51,102.63h6.18v-13.63h-6.18v13.63ZM63.47,106.24l-.31-.31c-.28-.28-.47-.62-.57-.97H13.1c-.93,0-1.74.52-2.15,1.28h52.52ZM99.35,90.08l-3.56-.76c-.75-.16-1.36-.69-1.61-1.42-.18-.51-.39-1.02-.63-1.52-.34-.69-.29-1.5.13-2.15l1.98-3.06-3.8-3.8-3.06,1.98c-.65.42-1.45.47-2.15.13-.49-.24-1-.45-1.51-.63-.73-.26-1.26-.86-1.42-1.61l-.76-3.56h-5.37l-.76,3.56c-.16.75-.69,1.36-1.42,1.61-.51.18-1.02.39-1.51.63-.7.34-1.5.29-2.15-.13l-3.06-1.98-3.8,3.8,1.98,3.06c.42.65.47,1.45.13,2.15-.24.49-.45,1-.63,1.51-.26.73-.86,1.26-1.61,1.42l-3.56.76v5.37l3.56.76c.75.16,1.36.69,1.61,1.42.18.51.39,1.02.63,1.51.34.69.29,1.5-.13,2.15l-1.98,3.06,3.8,3.8,3.06-1.98c.65-.42,1.45-.47,2.15-.13.49.24,1,.45,1.51.63.73.26,1.26.86,1.42,1.61l.76,3.56h5.37l.76-3.56c.16-.75.69-1.36,1.42-1.61.51-.18,1.02-.39,1.51-.63.7-.34,1.5-.29,2.15.13l3.06,1.98,3.8-3.8-1.98-3.06c-.42-.65-.47-1.45-.13-2.15.24-.49.45-1,.63-1.51.26-.73.86-1.26,1.61-1.42l3.56-.76v-5.36ZM91.99,92.76c0,6.46-5.26,11.72-11.72,11.72s-11.72-5.26-11.72-11.72,5.26-11.72,11.72-11.72c6.46,0,11.72,5.26,11.72,11.72ZM89.67,92.76c0-5.18-4.22-9.4-9.4-9.4s-9.4,4.22-9.4,9.4,4.22,9.4,9.4,9.4,9.4-4.21,9.4-9.4ZM21.91,59.82v-10.09c0-.64.52-1.16,1.16-1.16h10.09c.64,0,1.16.52,1.16,1.16v10.09c0,.64-.52,1.16-1.16,1.16h-10.09c-.64,0-1.16-.52-1.16-1.16ZM24.23,58.67h7.77v-7.77h-7.77v7.77ZM39.14,59.82v-10.09c0-.64.52-1.16,1.16-1.16h10.1c.64,0,1.16.52,1.16,1.16v10.09c0,.64-.52,1.16-1.16,1.16h-10.1c-.64,0-1.16-.52-1.16-1.16ZM41.47,58.67h7.77v-7.77h-7.77v7.77ZM56.37,59.82v-10.09c0-.64.52-1.16,1.16-1.16h10.09c.64,0,1.16.52,1.16,1.16v10.09c0,.64-.52,1.16-1.16,1.16h-10.08c-.65,0-1.17-.52-1.17-1.16h0ZM58.7,58.67h7.77v-7.77h-7.77v7.77ZM33.16,78.09h-10.09c-.64,0-1.16-.52-1.16-1.16v-10.09c0-.64.52-1.16,1.16-1.16h10.09c.64,0,1.16.52,1.16,1.16v10.09c0,.64-.51,1.16-1.16,1.16ZM32,68h-7.77v7.77h7.77v-7.77ZM39.14,76.93v-10.09c0-.64.52-1.16,1.16-1.16h10.1c.64,0,1.16.52,1.16,1.16v10.09c0,.64-.52,1.16-1.16,1.16h-10.1c-.64,0-1.16-.52-1.16-1.16ZM41.47,75.77h7.77v-7.77h-7.77v7.77Z"/>
</svg>