<?xml version="1.0" encoding="UTF-8"?>
<svg id="Layer_1" xmlns="http://www.w3.org/2000/svg" version="1.1" viewBox="0 0 110 135">
  <!-- Generator: Adobe Illustrator 29.8.2, SVG Export Plug-In . SVG Version: 2.1.1 Build 3)  -->
  <defs>
    <style>
      .st0 {
        fill-rule: evenodd;
        stroke: #000;
        stroke-miterlimit: 10;
        stroke-width: .75px;
      }
    </style>
  </defs>
  <path class="st0" d="M53.89,112.38H11.88c-.57,0-1.03-.46-1.03-1.03V23.65c0-.57.46-1.03,1.03-1.03h43.63c.57,0,1.03.46,1.03,1.03v68.79c0,.57-.46,1.03-1.03,1.03s-1.03-.46-1.03-1.03V24.68H12.91v85.64h40.99c.57,0,1.03.46,1.03,1.03s-.46,1.03-1.03,1.03h0Z"/>
  <path class="st0" d="M20.52,40.01h7.54v-8.16h-7.54v8.16ZM29.09,42.07h-9.6c-.57,0-1.03-.46-1.03-1.03v-10.22c0-.57.46-1.03,1.03-1.03h9.6c.57,0,1.03.46,1.03,1.03v10.21c0,.57-.46,1.03-1.03,1.03h0Z"/>
  <path class="st0" d="M39.32,40.01h7.54v-8.16h-7.54v8.16ZM47.89,42.07h-9.6c-.57,0-1.03-.46-1.03-1.03v-10.22c0-.57.46-1.03,1.03-1.03h9.6c.57,0,1.03.46,1.03,1.03v10.21c0,.57-.46,1.03-1.03,1.03h0Z"/>
  <path class="st0" d="M39.32,78.92h7.54v-8.16h-7.54v8.16ZM47.89,80.97h-9.6c-.57,0-1.03-.46-1.03-1.03v-10.22c0-.57.46-1.03,1.03-1.03h9.6c.57,0,1.03.46,1.03,1.03v10.21c0,.57-.46,1.03-1.03,1.03h0Z"/>
  <path class="st0" d="M20.92,78.92h7.54v-8.16h-7.54v8.16ZM29.49,80.97h-9.6c-.57,0-1.03-.46-1.03-1.03v-10.22c0-.57.46-1.03,1.03-1.03h9.6c.57,0,1.03.46,1.03,1.03v10.21c0,.57-.46,1.03-1.03,1.03h0Z"/>
  <path class="st0" d="M39.32,59.47h7.54v-8.16h-7.54v8.16ZM47.89,61.52h-9.6c-.57,0-1.03-.46-1.03-1.03v-10.22c0-.57.46-1.03,1.03-1.03h9.6c.57,0,1.03.46,1.03,1.03v10.21c0,.57-.46,1.03-1.03,1.03h0Z"/>
  <path class="st0" d="M20.92,59.47h7.54v-8.16h-7.54v8.16ZM29.49,61.52h-9.6c-.57,0-1.03-.46-1.03-1.03v-10.22c0-.57.46-1.03,1.03-1.03h9.6c.57,0,1.03.46,1.03,1.03v10.21c0,.57-.46,1.03-1.03,1.03h0Z"/>
  <path class="st0" d="M47.7,112.38c-.57,0-1.03-.46-1.03-1.03v-14.3h-7.16v14.3c0,.57-.46,1.03-1.03,1.03s-1.03-.46-1.03-1.03v-15.32c0-.57.46-1.03,1.03-1.03h9.22c.57,0,1.03.46,1.03,1.03v15.32c0,.57-.46,1.03-1.03,1.03h0Z"/>
  <path class="st0" d="M28.9,97.05h-8.43c-.57,0-1.03-.46-1.03-1.03s.46-1.03,1.03-1.03h8.43c.57,0,1.03.46,1.03,1.03s-.46,1.03-1.03,1.03Z"/>
  <path class="st0" d="M28.9,106.08h-8.43c-.57,0-1.03-.46-1.03-1.03s.46-1.03,1.03-1.03h8.43c.57,0,1.03.46,1.03,1.03s-.46,1.03-1.03,1.03Z"/>
  <path class="st0" d="M54.92,110.32h42.18v-11.7c0-6.45-5.25-11.7-11.7-11.7h-3.11l-5.46,7.01c-.2.25-.5.39-.81.39s-.62-.14-.81-.39l-5.46-7.01h-3.11c-6.45,0-11.7,5.25-11.7,11.7v11.7h0ZM98.13,112.38h-44.23c-.57,0-1.03-.46-1.03-1.03v-12.73c0-7.59,6.17-13.76,13.76-13.76h3.62c.32,0,.62.14.81.39l4.96,6.36,4.96-6.36c.2-.25.49-.39.81-.39h3.61c7.59,0,13.76,6.17,13.76,13.76v12.73c0,.57-.46,1.03-1.03,1.03h0Z"/>
  <path class="st0" d="M62.52,112.38c-.57,0-1.03-.46-1.03-1.03v-13.21c0-.57.46-1.03,1.03-1.03s1.03.46,1.03,1.03v13.21c0,.57-.46,1.03-1.03,1.03ZM89.5,112.38c-.57,0-1.03-.46-1.03-1.03v-13.21c0-.57.46-1.03,1.03-1.03s1.03.46,1.03,1.03v13.21c0,.57-.46,1.03-1.03,1.03Z"/>
  <path class="st0" d="M76.01,112.38c-.48,0-.9-.33-1-.8l-5.77-25.46c-.12-.55.22-1.11.77-1.23.55-.12,1.11.22,1.23.77l4.77,21.04,4.77-21.04c.12-.55.68-.9,1.23-.77.55.12.9.68.78,1.23l-5.77,25.46c-.11.47-.52.8-1,.8h0Z"/>
  <path class="st0" d="M70.24,86.91c-.34,0-.68-.17-.87-.48-.3-.48-.16-1.11.32-1.42.86-.54,1.4-2.38,1.41-4.8,0-.57.46-1.02,1.03-1.02h0c.57,0,1.03.46,1.02,1.03,0,1.89-.33,5.25-2.38,6.54-.17.11-.36.16-.55.16h0Z"/>
  <path class="st0" d="M81.78,86.91c-.18,0-.38-.05-.55-.16-2.05-1.29-2.37-4.65-2.38-6.54,0-.57.45-1.03,1.02-1.03h0c.57,0,1.02.46,1.03,1.02.01,2.43.55,4.27,1.41,4.81.48.3.62.94.32,1.42-.2.31-.53.48-.87.48h0Z"/>
  <path class="st0" d="M66.21,66.29c7.77.54,12.48-6.22,12.53-6.29.23-.33.62-.5,1.01-.43.39.06.71.34.82.73,1.07,3.64,3.8,5.1,5.18,5.62,1.89-5.78-1.05-8.32-2.04-8.98-1.61-1.08-3.31-1.07-3.96-.44-.33.32-.84.38-1.24.14-4.73-2.83-7.82-.94-9.57,1.14-2.65,3.14-3.21,7.63-2.73,8.52h0ZM67.13,68.38c-.44,0-.89-.02-1.36-.06-.07,0-.13-.02-.2-.04-.46-.13-1.27-.58-1.5-2.09-.46-2.95,1.4-8.96,5.39-11.66,1.96-1.32,5.16-2.35,9.5,0,1.55-.89,3.89-.64,5.89.69,1.36.91,5.55,4.48,2.5,12.32-.18.46-.66.73-1.15.64-.21-.04-4.71-.95-6.94-5.57-1.91,2.11-6.1,5.77-12.14,5.77h0Z"/>
  <path class="st0" d="M76.01,82.31c-2.8,0-5.45-1.38-7.46-3.88-2.17-2.69-3.49-6.53-3.82-11.1-.04-.57.38-1.06.95-1.1.57-.04,1.06.38,1.1.95.3,4.16,1.46,7.6,3.37,9.96,1.62,2.01,3.7,3.12,5.87,3.12h.02c2.18,0,4.27-1.13,5.89-3.16,1.9-2.39,3.06-5.86,3.34-10.05.04-.57.54-1,1.09-.96.57.04.99.53.95,1.09-.31,4.61-1.62,8.47-3.79,11.19-2.02,2.53-4.68,3.93-7.49,3.94h-.02Z"/>
  <path class="st0" d="M76.01,112.38c-.34,0-.68-.17-.87-.48l-10.68-16.9c-.2-.31-.21-.71-.04-1.04.18-.33.52-.53.89-.54l1.78-.02-1.09-2.08c-.18-.34-.15-.74.06-1.05l3.32-4.95c.32-.47.96-.6,1.43-.28.47.32.6.95.28,1.43l-2.98,4.45,1.59,3.02c.16.32.16.7-.03,1-.18.31-.51.5-.87.5l-1.62.02,9.7,15.35c.3.48.16,1.11-.32,1.42-.17.11-.36.16-.55.16h0Z"/>
  <path class="st0" d="M76.01,112.38c-.19,0-.38-.05-.55-.16-.48-.3-.62-.94-.32-1.42l9.7-15.35-1.62-.02c-.36,0-.68-.2-.87-.5s-.19-.69-.02-1l1.59-3.02-2.98-4.45c-.32-.47-.19-1.11.28-1.43.47-.32,1.11-.19,1.43.28l3.33,4.95c.21.31.23.72.05,1.05l-1.09,2.07,1.78.02c.37,0,.71.21.89.54.18.33.16.72-.04,1.04l-10.68,16.9c-.2.31-.53.48-.87.48h0Z"/>
</svg>