<?xml version="1.0" encoding="UTF-8"?>
<svg id="Layer_1" xmlns="http://www.w3.org/2000/svg" version="1.1" viewBox="0 0 110 135">
  <!-- Generator: Adobe Illustrator 29.8.2, SVG Export Plug-In . SVG Version: 2.1.1 Build 3)  -->
  <path d="M100.16,96.98c1.06-1,1.71-2.4,1.71-3.92,0-2.97-2.42-5.39-5.39-5.39-.52,0-1.05.08-1.52.22l-2.49.73c0-.09.02-.16.02-.25,0-2.97-2.42-5.39-5.39-5.39-.52,0-1.05.08-1.52.22l-7.16,2.11s0-.04,0-.06c0-2.97-2.42-5.39-5.39-5.39-.52,0-1.05.08-1.52.22l-15.15,4.46-13.56-2.8c-.1-.02-.21-.03-.32-.03h-9.38c-.14,0-.29.02-.43.06l-9,2.57c-.25-2.35-2.22-4.19-4.64-4.19h-9.38c-.86,0-1.56.7-1.56,1.57v28.12c0,.86.7,1.56,1.56,1.56h9.38c2.04,0,3.75-1.31,4.4-3.12h7.85l18.51,6.17c.16.05.33.08.49.08h23.44c.18,0,.35-.03.52-.09l24.01-8.48c2.15-.76,3.59-2.8,3.59-5.08,0-1.51-.64-2.88-1.71-3.89h0ZM95.86,90.88c.18-.05.4-.09.62-.09,1.25,0,2.27,1.02,2.27,2.27,0,.96-.61,1.82-1.44,2.12l-1.05.32c-.43.02-.86.09-1.29.21l-21.44,6.3h-11.87l-8.44-4.69h11.94c.85,0,1.64-.21,2.36-.56l22.66-4.22c.05-.01.11-.02.16-.04l5.53-1.63h0ZM86.49,86.19c.18-.05.4-.09.62-.09,1.25,0,2.27,1.02,2.27,2.27,0,.45-.16.85-.4,1.22l-18.48,3.44c.09-.38.14-.77.14-1.18,0-.33-.04-.65-.09-.96l15.96-4.7ZM72.43,83.07c.18-.05.4-.09.62-.09,1.25,0,2.27,1.02,2.27,2.27,0,.38-.12.74-.31,1.07l-5.91,1.74c-.96-.99-2.29-1.62-3.76-1.67l-2.45-.51,9.55-2.81h0ZM19.06,108.26h-7.81v-25h7.81c.86,0,1.56.7,1.56,1.56v21.88c0,.86-.7,1.56-1.56,1.56ZM97.24,103l-23.76,8.39h-22.92l-18.51-6.17c-.16-.05-.33-.08-.49-.08h-7.81v-17.57l9.59-2.74h9l22.5,4.66c.1.02.21.03.32.03,1.29,0,2.34,1.05,2.34,2.34s-1.05,2.34-2.34,2.34h-17.97c-.71,0-1.34.48-1.51,1.17-.18.69.13,1.41.75,1.76l14.06,7.81c.23.13.49.2.76.2h12.5c.15,0,.3-.02.44-.06l21.66-6.37c.69-.2,1.41-.07,1.99.36.57.43.91,1.09.91,1.81,0,.95-.61,1.81-1.51,2.13h0Z"/>
  <path d="M30.03,40.78l13.94,10.13-5.32,16.39c-.21.64.02,1.35.57,1.75.55.39,1.29.4,1.84,0l13.94-10.13,13.94,10.13c.27.2.6.3.92.3s.64-.1.92-.3c.55-.4.78-1.1.57-1.75l-5.32-16.39,13.94-10.13c.55-.4.78-1.1.57-1.75-.21-.64-.81-1.08-1.48-1.08h-17.23l-5.32-16.39c-.21-.64-.81-1.08-1.48-1.08s-1.28.44-1.48,1.08l-5.32,16.39h-17.23c-.68,0-1.28.44-1.48,1.08-.21.64.02,1.35.57,1.75h0ZM49.32,41.08c.68,0,1.28-.44,1.48-1.08l4.19-12.9,4.19,12.9c.21.64.81,1.08,1.48,1.08h13.56l-10.97,7.97c-.55.4-.78,1.1-.57,1.75l4.19,12.9-10.97-7.97c-.27-.2-.6-.3-.92-.3s-.64.1-.92.3l-10.97,7.97,4.19-12.9c.21-.64-.02-1.35-.57-1.75l-10.97-7.97h13.56,0Z"/>
  <path d="M84.69,47.33c0,.86.7,1.56,1.56,1.56h6.25c.86,0,1.56-.7,1.56-1.56s-.7-1.56-1.56-1.56h-6.25c-.86,0-1.56.7-1.56,1.56Z"/>
  <path d="M82.06,33.26c.27,0,.54-.07.78-.21l5.41-3.12c.75-.43,1-1.39.57-2.13-.43-.75-1.39-1-2.13-.57l-5.41,3.12c-.75.43-1,1.39-.57,2.13.29.5.81.78,1.36.78h0Z"/>
  <path d="M21.74,29.93l5.41,3.12c.25.14.52.21.78.21.54,0,1.07-.28,1.36-.78.43-.75.18-1.7-.57-2.13l-5.41-3.12c-.75-.43-1.7-.18-2.13.57-.43.75-.18,1.7.57,2.13h0Z"/>
  <path d="M17.5,48.89h6.25c.86,0,1.56-.7,1.56-1.56s-.7-1.56-1.56-1.56h-6.25c-.86,0-1.56.7-1.56,1.56s.7,1.56,1.56,1.56Z"/>
  <path d="M27.16,61.6l-5.41,3.12c-.75.43-1,1.39-.57,2.13.29.5.81.78,1.36.78.27,0,.54-.07.78-.21l5.41-3.12c.75-.43,1-1.39.57-2.13-.43-.75-1.39-1-2.13-.57h0Z"/>
  <path d="M82.84,61.6c-.75-.43-1.7-.18-2.13.57-.43.75-.18,1.7.57,2.13l5.41,3.12c.25.14.52.21.78.21.54,0,1.07-.28,1.36-.78.43-.75.18-1.7-.57-2.13l-5.41-3.12h0Z"/>
</svg>