<?xml version="1.0" encoding="UTF-8"?>
<svg id="Layer_1" xmlns="http://www.w3.org/2000/svg" version="1.1" viewBox="0 0 110 135">
  <!-- Generator: Adobe Illustrator 29.8.2, SVG Export Plug-In . SVG Version: 2.1.1 Build 3)  -->
  <defs>
    <style>
      .st0 {
        stroke: #000;
        stroke-miterlimit: 10;
        stroke-width: .25px;
      }
    </style>
  </defs>
  <path class="st0" d="M101.15,102.03h-4.83v-46.33c0-3.24-2.64-5.88-5.88-5.88h-17.94v-5.38c5.25,0,4.22.55,4.33-4.49h5.03c1.11,3.25,6.05,2.46,6.05-1.02s-4.94-4.27-6.05-1.02h-6.05c-.55,0-1.02.46-1.02,1.02v3.48h-2.29v-1.59c0-1.61-1.3-2.9-2.9-2.9h-1.59v-2.3h3.48c.55,0,1.02-.46,1.02-1.02v-6.05c3.25-1.11,2.48-6.05-1.02-6.05s-4.27,4.94-1.02,6.05v5.03c-5.07.09-4.49-.89-4.49,4.33h-9.95v-6.51c3.25-1.11,2.46-6.05-1.02-6.05s-4.27,4.94-1.02,6.05v6.51h-9.95c0-5.25.55-4.22-4.49-4.33v-5.03c3.27-1.11,2.48-6.05-1.02-6.05s-4.27,4.92-1.02,6.05v6.05c0,.55.46,1.02,1.02,1.02h3.48v2.29h-1.59c-1.61,0-2.9,1.3-2.9,2.9v1.59h-2.29v-3.48c0-.55-.46-1.02-1.02-1.02h-6.05c-1.11-3.25-6.05-2.46-6.05,1.02s4.94,4.27,6.05,1.02h5.03c.09,5.07-.91,4.49,4.33,4.49v5.38h-17.94c-3.24,0-5.88,2.62-5.88,5.88v46.33h-4.84c-.55,0-1.02.46-1.02,1.02,0,5.21,4.23,9.45,9.45,9.45h75.4c5.09.11,9.56-4.36,9.45-9.45.02-.57-.44-1.02-1-1.02h0ZM84.79,37.84c1.43.02,1.43,2.13,0,2.16-1.43-.02-1.43-2.13,0-2.16ZM70.39,25.61c.02-1.43,2.13-1.43,2.16,0-.02,1.42-2.12,1.42-2.16,0ZM38.53,26.7c-1.43-.02-1.43-2.13,0-2.16,1.42.02,1.42,2.13,0,2.16ZM25.23,40c-1.43-.02-1.43-2.13,0-2.16,1.43.04,1.43,2.15,0,2.16ZM53.94,28.48c.02-1.43,2.13-1.43,2.16,0-.04,1.41-2.15,1.41-2.16,0ZM39.55,40.79c0-.48.39-.87.87-.87h29.19c.48,0,.87.39.87.87v29.19c0,.48-.39.87-.87.87h-29.19c-.48,0-.87-.39-.87-.87v-29.19ZM56.08,82.31c-.02,1.43-2.13,1.43-2.16,0,.04-1.41,2.14-1.41,2.16,0ZM33.18,70.85h-5.03c-1.11-3.25-6.05-2.48-6.05,1.02s4.94,4.27,6.05,1.02h6.05c.55,0,1.02-.46,1.02-1.02v-3.48h2.29v1.59c0,1.61,1.3,2.9,2.9,2.9h1.59v2.29h-3.47c-.55,0-1.02.46-1.02,1.02v6.05c-3.25,1.11-2.46,6.05,1.02,6.05s4.27-4.94,1.02-6.05v-5.03c5.07-.09,4.49.91,4.49-4.33h9.95v6.51c-3.25,1.11-2.46,6.05,1.02,6.05s4.27-4.94,1.02-6.05v-6.51h9.95c0,5.23-.55,4.23,4.49,4.33v5.03c-3.25,1.11-2.46,6.05,1.02,6.05s4.27-4.94,1.02-6.05v-6.05c0-.55-.46-1.02-1.02-1.02h-3.46v-2.29h1.59c1.61,0,2.9-1.3,2.9-2.9v-1.59h2.29v3.48c0,.55.46,1.02,1.02,1.02h6.05c1.11,3.25,6.05,2.46,6.05-1.02s-4.94-4.27-6.05-1.02h-5.03c-.11-5.05.91-4.49-4.33-4.49v-9.95h6.51c.91,2.76,4.96,2.76,5.86,0h4.86v41.05H20.29v-41.06h4.86c.91,2.76,4.96,2.76,5.86,0h6.51v9.95c-5.27,0-4.23-.55-4.35,4.5h0ZM26.3,71.86c-.02,1.43-2.13,1.43-2.16,0,.04-1.42,2.14-1.41,2.16,0ZM39.6,85.16c-.02,1.43-2.13,1.43-2.16,0,.04-1.4,2.15-1.4,2.16,0ZM71.47,84.09c1.43,0,1.44,2.13.02,2.16-1.41-.04-1.43-2.13-.02-2.16ZM83.71,71.86c.02-1.43,2.13-1.43,2.16,0-.04,1.43-2.14,1.43-2.16,0ZM80.86,55.4c.02-1.41,2.13-1.43,2.16,0-.04,1.41-2.14,1.41-2.16,0ZM27.01,55.4c.02-1.41,2.13-1.43,2.16,0-.04,1.41-2.14,1.41-2.16,0ZM15.73,55.7c0-2.11,1.72-3.85,3.85-3.85h17.94v2.52h-6.49c-.96-2.76-4.94-2.76-5.88,0h-5.57c-.72,0-1.33.59-1.33,1.33v43.81h73.52v-43.81c0-.72-.59-1.33-1.33-1.33h-5.55c-.96-2.76-4.94-2.76-5.88,0h-6.49v-2.52h17.94c2.13,0,3.85,1.72,3.85,3.85v46.33H15.73v-46.33ZM70.64,104.06c-.7,1.31-2.09,2.18-3.64,2.18h-23.97c-1.55,0-2.94-.87-3.64-2.18h31.26ZM92.72,110.46H17.32c-3.75,0-6.86-2.79-7.34-6.4h27.24c.81,2.5,3.14,4.22,5.82,4.22h23.97c2.68,0,5.01-1.74,5.82-4.22h27.24c-.44,3.57-3.75,6.47-7.36,6.4h0ZM60.54,55.38c0-3.05-2.48-5.53-5.53-5.53-5.05-.05-7.45,6.44-3.62,9.71,3.42,3.12,9.27.46,9.16-4.18ZM55.01,51.89c1.92,0,3.5,1.57,3.5,3.5.11,2.9-3.64,4.57-5.79,2.64-2.42-2.04-.89-6.2,2.29-6.14ZM44.63,58.51l1.74.18c.05.15.11.3.18.46l-1.11,1.37c-.5.63-.46,1.54.11,2.13l2.16,2.16c.57.59,1.52.65,2.14.13l1.35-1.11c.15.07.3.13.46.18l.18,1.74c.09.81.78,1.43,1.59,1.43h3.07c.81,0,1.5-.61,1.59-1.44l.18-1.74c.15-.05.31-.13.46-.18l1.35,1.09c.63.54,1.55.48,2.14-.11l2.18-2.18c.57-.59.61-1.52.09-2.13l-1.11-1.35c.07-.15.13-.31.18-.46l1.72-.18c.81-.07,1.46-.76,1.46-1.59v-3.09c0-.81-.61-1.5-1.44-1.59l-1.74-.18c-.05-.15-.13-.31-.18-.46l1.09-1.35c.52-.63.48-1.57-.11-2.14l-2.18-2.18c-.59-.59-1.52-.63-2.14-.11l-1.37,1.11c-.15-.07-.31-.13-.46-.18l-.18-1.74c-.09-.81-.78-1.43-1.59-1.43h-3.07c-.81,0-1.5.61-1.59,1.43l-.18,1.74c-.15.05-.31.13-.46.18l-1.35-1.09c-.65-.54-1.59-.48-2.14.09l-2.18,2.18c-.57.57-.63,1.5-.11,2.14l1.11,1.35c-.07.15-.13.3-.18.46l-1.74.18c-.81.09-1.43.78-1.43,1.59v3.09c.05.85.7,1.55,1.5,1.61h0ZM45.23,54.24l2-.2c.41-.04.76-.33.87-.72.13-.81,1.09-1.66.45-2.48l-1.26-1.55,1.63-1.63,1.55,1.26c.8.65,1.64-.31,2.48-.45.39-.11.68-.46.72-.87l.2-2h2.29l.2,2c.04.41.33.76.72.87.81.13,1.66,1.09,2.46.45l1.55-1.26,1.63,1.63-1.26,1.55c-.65.81.31,1.64.46,2.48.13.39.46.66.87.72l2,.2v2.29l-2,.2c-.85.05-.93,1.04-1.22,1.64-.28.48-.54,1.09-.11,1.57l1.28,1.55-1.63,1.63-1.55-1.28c-.81-.65-1.63.31-2.48.46-.39.13-.66.46-.72.87l-.2,2h-2.29l-.2-2c-.04-.41-.31-.74-.7-.87-.85-.15-1.66-1.11-2.48-.46l-1.55,1.28-1.63-1.63,1.26-1.55c.43-.48.16-1.09-.11-1.55-.33-.68-.33-1.55-1.22-1.64l-2-.2v-2.31Z"/>
</svg>