<?xml version="1.0" encoding="UTF-8"?>
<svg id="Layer_1" xmlns="http://www.w3.org/2000/svg" version="1.1" viewBox="0 0 100 125">
  <!-- Generator: Adobe Illustrator 29.8.2, SVG Export Plug-In . SVG Version: 2.1.1 Build 3)  -->
  <defs>
    <style>
      .st0 {
        stroke: #000;
        stroke-miterlimit: 10;
        stroke-width: .5px;
      }
    </style>
  </defs>
  <path class="st0" d="M76.96,72.06l-2.69-2.68c-.39-.39-1.02-.39-1.41,0s-.39,1.02,0,1.41l4.39,4.39c.2.2.45.29.71.29s.51-.1.71-.29l4.39-4.39c.39-.39.39-1.02,0-1.41s-1.02-.39-1.41,0l-2.69,2.68v-7.38c0-.55-.45-1-1-1h-26.96v-6.66c0-.55-.45-1-1-1s-1,.45-1,1v6.66h-26.96c-.55,0-1,.45-1,1v7.38l-2.69-2.68c-.39-.39-1.02-.39-1.41,0s-.39,1.02,0,1.41l4.39,4.39c.2.2.45.29.71.29s.51-.1.71-.29l4.39-4.39c.39-.39.39-1.02,0-1.41s-1.02-.39-1.41,0l-2.69,2.68v-6.38h25.96v6.38l-2.69-2.68c-.39-.39-1.02-.39-1.41,0s-.39,1.02,0,1.41l4.39,4.39c.2.2.45.29.71.29s.51-.1.71-.29l4.39-4.39c.39-.39.39-1.02,0-1.41s-1.02-.39-1.41,0l-2.69,2.68v-6.38h25.96v6.38Z"/>
  <path class="st0" d="M50,47.31c4.41,0,8-3.59,8-8s-3.59-8-8-8-8,3.59-8,8,3.59,8,8,8ZM50,33.31c3.31,0,6,2.69,6,6s-2.69,6-6,6-6-2.69-6-6,2.69-6,6-6Z"/>
  <path class="st0" d="M34.06,41.73c-.28.03-.54.18-.71.41s-.23.52-.17.8c.44,2.03,1.23,3.95,2.36,5.7.15.24.4.4.68.44.28.05.57-.03.79-.21.97-.78,2.37-.71,3.25.17.88.88.96,2.28.17,3.25-.18.22-.25.51-.21.79.04.28.21.53.44.68,1.75,1.13,3.67,1.93,5.7,2.36.28.06.57,0,.8-.17.23-.17.38-.42.41-.71.13-1.24,1.17-2.18,2.42-2.18s2.29.94,2.42,2.18c.03.28.18.54.41.71.17.12.38.19.59.19.07,0,.14,0,.21-.02,2.03-.44,3.95-1.23,5.7-2.36.24-.15.4-.4.44-.68.04-.28-.03-.57-.21-.79-.78-.97-.71-2.37.17-3.25.88-.88,2.28-.96,3.25-.17.22.18.51.26.79.21.28-.04.53-.21.68-.44,1.13-1.75,1.93-3.67,2.36-5.7.06-.28,0-.57-.17-.8s-.42-.38-.71-.41c-1.24-.13-2.18-1.17-2.18-2.42s.94-2.29,2.18-2.42c.28-.03.54-.18.71-.41s.23-.52.17-.8c-.44-2.03-1.23-3.95-2.36-5.7-.15-.24-.4-.4-.68-.44-.28-.04-.57.03-.79.21-.97.78-2.36.71-3.25-.17-.88-.88-.96-2.28-.17-3.25.18-.22.25-.51.21-.79s-.21-.53-.44-.68c-1.75-1.13-3.67-1.93-5.7-2.36-.27-.06-.57,0-.8.17-.23.17-.38.42-.41.71-.13,1.24-1.17,2.18-2.42,2.18s-2.29-.94-2.42-2.18c-.03-.28-.18-.54-.41-.71-.23-.17-.52-.22-.8-.17-2.03.44-3.95,1.23-5.7,2.36-.24.15-.4.4-.44.68s.03.57.21.79c.78.97.71,2.37-.17,3.25-.88.88-2.28.96-3.25.17-.22-.18-.51-.25-.79-.21-.28.04-.53.21-.68.44-1.13,1.75-1.93,3.67-2.36,5.7-.06.28,0,.57.17.8s.42.38.71.41c1.24.13,2.18,1.17,2.18,2.42s-.94,2.29-2.18,2.42ZM35.38,35.16c.32-1.14.77-2.23,1.35-3.26,1.64.74,3.62.42,4.95-.91,1.33-1.33,1.65-3.31.91-4.95,1.03-.58,2.12-1.03,3.26-1.35.64,1.69,2.26,2.86,4.15,2.86s3.51-1.17,4.15-2.86c1.13.32,2.22.77,3.26,1.35-.74,1.64-.42,3.62.91,4.95,1.33,1.33,3.31,1.65,4.95.91.58,1.03,1.03,2.12,1.35,3.26-1.69.64-2.86,2.26-2.86,4.15s1.17,3.51,2.86,4.15c-.32,1.13-.77,2.23-1.35,3.26-1.64-.74-3.62-.42-4.95.91-1.33,1.33-1.65,3.31-.91,4.95-1.03.58-2.12,1.03-3.26,1.35-.64-1.69-2.26-2.86-4.15-2.86s-3.51,1.17-4.15,2.86c-1.14-.32-2.23-.77-3.26-1.35.74-1.64.42-3.62-.91-4.95-1.33-1.33-3.31-1.65-4.95-.91-.58-1.03-1.03-2.12-1.35-3.26,1.69-.64,2.86-2.26,2.86-4.15s-1.17-3.51-2.86-4.15Z"/>
  <path class="st0" d="M77.96,85.48h0c-1.33,0-2.59.52-3.53,1.46-.94.95-1.46,2.2-1.46,3.54,0,2.76,2.24,5,5,5s5-2.24,5-5-2.24-5-5-5ZM77.96,93.48c-1.65,0-3-1.35-3-3,0-.8.31-1.56.88-2.12.57-.57,1.32-.88,2.12-.88h0c1.65,0,3,1.35,3,3s-1.35,3-3,3Z"/>
  <path class="st0" d="M89.1,89.09c.28-.03.54-.18.7-.41s.23-.52.17-.8c-.31-1.45-.88-2.82-1.69-4.07-.15-.24-.4-.4-.68-.44-.28-.05-.56.03-.79.21-.56.45-1.35.41-1.86-.1-.51-.51-.55-1.31-.1-1.86.18-.22.25-.51.21-.79s-.21-.53-.44-.68c-1.25-.81-2.62-1.38-4.07-1.69-.28-.06-.57,0-.8.17-.23.17-.38.42-.41.71-.07.71-.67,1.25-1.39,1.25s-1.31-.54-1.39-1.25c-.03-.28-.18-.54-.41-.71-.23-.17-.52-.23-.8-.17-1.45.31-2.82.88-4.07,1.69-.24.15-.4.4-.44.68-.04.28.03.57.21.79.45.55.41,1.35-.1,1.86-.51.5-1.3.55-1.86.1-.22-.18-.5-.26-.79-.21-.28.04-.53.21-.68.44-.81,1.25-1.38,2.62-1.69,4.07-.06.28,0,.57.17.8s.42.38.7.41c.71.08,1.25.67,1.25,1.39s-.54,1.31-1.25,1.39c-.28.03-.54.18-.7.41s-.23.52-.17.8c.31,1.45.88,2.82,1.69,4.07.15.24.4.4.68.44.28.05.57-.03.79-.21.56-.45,1.36-.4,1.86.1.51.51.55,1.3.1,1.86-.18.22-.25.51-.21.79.04.28.21.53.44.68,1.25.81,2.62,1.38,4.07,1.69.07.02.14.02.21.02.21,0,.42-.07.59-.19.23-.17.38-.42.41-.71.07-.71.67-1.25,1.39-1.25s1.31.54,1.39,1.25c.03.28.18.54.41.71.23.17.52.23.8.17,1.45-.31,2.82-.88,4.07-1.69.24-.15.4-.4.44-.68s-.03-.57-.21-.79c-.45-.55-.41-1.35.1-1.86.51-.5,1.3-.55,1.86-.1.22.18.51.26.79.21.28-.04.53-.21.68-.44.81-1.25,1.38-2.62,1.69-4.07.06-.28,0-.57-.17-.8s-.42-.38-.7-.41c-.71-.08-1.25-.67-1.25-1.39s.54-1.31,1.25-1.39ZM87.79,93.55c-.18.59-.42,1.17-.71,1.72-1.2-.42-2.58-.15-3.53.8-.95.95-1.23,2.33-.8,3.53-.55.29-1.12.53-1.72.71-.55-1.15-1.72-1.93-3.06-1.93s-2.52.78-3.06,1.93c-.59-.18-1.17-.42-1.72-.71.43-1.2.15-2.58-.8-3.53s-2.33-1.23-3.53-.8c-.29-.55-.53-1.12-.71-1.72,1.15-.55,1.93-1.72,1.93-3.06s-.78-2.52-1.93-3.06c.18-.59.42-1.17.71-1.72,1.2.42,2.58.15,3.53-.8.95-.95,1.23-2.33.8-3.53.55-.29,1.12-.53,1.72-.71.55,1.15,1.72,1.93,3.06,1.93s2.52-.78,3.06-1.93c.59.18,1.17.42,1.72.71-.43,1.2-.15,2.58.8,3.53s2.33,1.23,3.53.8c.29.55.53,1.12.71,1.72-1.15.55-1.93,1.72-1.93,3.06s.78,2.52,1.93,3.06Z"/>
  <path class="st0" d="M50,85.48h0c-1.33,0-2.59.52-3.53,1.46-.94.95-1.46,2.2-1.46,3.54,0,2.76,2.24,5,5,5s5-2.24,5-5-2.24-5-5-5ZM50,93.48c-1.65,0-3-1.35-3-3,0-.8.31-1.56.88-2.12.57-.57,1.32-.88,2.12-.88h0c1.65,0,3,1.35,3,3s-1.35,3-3,3Z"/>
  <path class="st0" d="M61.14,89.09c.28-.03.54-.18.7-.41s.23-.52.17-.8c-.31-1.45-.88-2.82-1.69-4.07-.15-.24-.4-.4-.68-.44-.28-.05-.56.03-.79.21-.56.45-1.35.41-1.86-.1-.51-.51-.55-1.31-.1-1.86.18-.22.25-.51.21-.79-.04-.28-.21-.53-.44-.68-1.25-.81-2.62-1.38-4.07-1.69-.28-.06-.57,0-.8.17-.23.17-.38.42-.41.71-.07.71-.67,1.25-1.39,1.25s-1.31-.54-1.39-1.25c-.03-.28-.18-.54-.41-.71-.23-.17-.52-.23-.8-.17-1.45.31-2.82.88-4.07,1.69-.24.15-.4.4-.44.68-.04.28.03.57.21.79.45.55.41,1.35-.1,1.86-.51.5-1.31.55-1.86.1-.22-.18-.51-.26-.79-.21-.28.04-.53.21-.68.44-.81,1.25-1.38,2.62-1.69,4.07-.06.28,0,.57.17.8s.42.38.7.41c.71.08,1.25.67,1.25,1.39s-.54,1.31-1.25,1.39c-.28.03-.54.18-.7.41s-.23.52-.17.8c.31,1.45.88,2.82,1.69,4.07.15.24.4.4.68.44.28.05.57-.03.79-.21.55-.45,1.35-.41,1.86.1.51.51.55,1.3.1,1.86-.18.22-.25.51-.21.79.04.28.21.53.44.68,1.25.81,2.62,1.38,4.07,1.69.28.06.57,0,.8-.17.23-.17.38-.42.41-.71.07-.71.67-1.25,1.39-1.25s1.31.54,1.39,1.25c.03.28.18.54.41.71.17.12.38.19.59.19.07,0,.14,0,.21-.02,1.45-.31,2.82-.88,4.07-1.69.24-.15.4-.4.44-.68.04-.28-.03-.57-.21-.79-.45-.55-.41-1.35.1-1.86.51-.5,1.31-.55,1.86-.1.22.18.51.26.79.21.28-.04.53-.21.68-.44.81-1.25,1.38-2.62,1.69-4.07.06-.28,0-.57-.17-.8s-.42-.38-.7-.41c-.71-.08-1.25-.67-1.25-1.39s.54-1.31,1.25-1.39ZM59.83,93.55c-.18.59-.42,1.17-.71,1.72-1.2-.42-2.58-.15-3.53.8-.95.95-1.23,2.33-.8,3.53-.55.29-1.12.53-1.72.71-.55-1.15-1.72-1.93-3.06-1.93s-2.52.78-3.06,1.93c-.59-.18-1.17-.42-1.72-.71.43-1.2.15-2.58-.8-3.53-.95-.95-2.33-1.23-3.53-.8-.29-.55-.53-1.12-.71-1.72,1.15-.55,1.93-1.72,1.93-3.06s-.78-2.52-1.93-3.06c.18-.59.42-1.17.71-1.72,1.2.42,2.58.15,3.53-.8s1.23-2.33.8-3.53c.55-.29,1.12-.53,1.72-.71.55,1.15,1.72,1.93,3.06,1.93s2.52-.78,3.06-1.93c.59.18,1.17.42,1.72.71-.43,1.2-.15,2.58.8,3.53s2.33,1.23,3.53.8c.29.55.53,1.12.71,1.72-1.15.55-1.93,1.72-1.93,3.06s.78,2.52,1.93,3.06Z"/>
  <path class="st0" d="M22.04,85.48h0c-1.33,0-2.59.52-3.53,1.46-.94.95-1.46,2.2-1.46,3.54,0,2.76,2.24,5,5,5s5-2.24,5-5-2.24-5-5-5ZM22.04,93.48c-1.65,0-3-1.35-3-3,0-.8.31-1.56.88-2.12.57-.57,1.32-.88,2.12-.88h0c1.65,0,3,1.35,3,3s-1.35,3-3,3Z"/>
  <path class="st0" d="M33.18,89.09c.28-.03.54-.18.7-.41s.23-.52.17-.8c-.31-1.45-.88-2.82-1.69-4.07-.15-.24-.4-.4-.68-.44-.28-.05-.57.03-.79.21-.56.45-1.35.4-1.86-.1-.51-.51-.55-1.31-.1-1.86.18-.22.25-.51.21-.79-.04-.28-.21-.53-.44-.68-1.25-.81-2.62-1.38-4.07-1.69-.28-.06-.57,0-.8.17-.23.17-.38.42-.41.71-.07.71-.67,1.25-1.39,1.25s-1.31-.54-1.39-1.25c-.03-.28-.18-.54-.41-.71-.23-.17-.52-.23-.8-.17-1.45.31-2.82.88-4.07,1.69-.24.15-.4.4-.44.68s.03.57.21.79c.45.55.41,1.35-.1,1.86-.51.5-1.31.55-1.86.1-.22-.18-.51-.26-.79-.21-.28.04-.53.21-.68.44-.81,1.25-1.38,2.62-1.69,4.07-.06.28,0,.57.17.8s.42.38.7.41c.71.08,1.25.67,1.25,1.39s-.54,1.31-1.25,1.39c-.28.03-.54.18-.7.41s-.23.52-.17.8c.31,1.45.88,2.82,1.69,4.07.15.24.4.4.68.44.28.05.57-.03.79-.21.56-.45,1.35-.41,1.86.1.51.51.55,1.3.1,1.86-.18.22-.25.51-.21.79s.21.53.44.68c1.25.81,2.62,1.38,4.07,1.69.28.06.57,0,.8-.17.23-.17.38-.42.41-.71.07-.71.67-1.25,1.39-1.25s1.31.54,1.39,1.25c.03.28.18.54.41.71.17.12.38.19.59.19.07,0,.14,0,.21-.02,1.45-.31,2.82-.88,4.07-1.69.24-.15.4-.4.44-.68.04-.28-.03-.57-.21-.79-.45-.55-.41-1.35.1-1.86s1.3-.55,1.86-.1c.22.18.5.26.79.21.28-.04.53-.21.68-.44.81-1.25,1.38-2.62,1.69-4.07.06-.28,0-.57-.17-.8s-.42-.38-.7-.41c-.71-.08-1.25-.67-1.25-1.39s.54-1.31,1.25-1.39ZM31.87,93.55c-.19.59-.42,1.17-.71,1.72-1.2-.42-2.58-.15-3.53.8s-1.23,2.33-.8,3.53c-.55.29-1.13.53-1.72.71-.55-1.15-1.72-1.93-3.06-1.93s-2.52.78-3.06,1.93c-.59-.18-1.17-.42-1.72-.71.43-1.2.15-2.58-.8-3.53s-2.33-1.23-3.53-.8c-.29-.55-.53-1.12-.71-1.72,1.15-.55,1.93-1.72,1.93-3.06s-.78-2.52-1.93-3.06c.18-.59.42-1.17.71-1.72,1.2.42,2.58.15,3.53-.8.95-.95,1.23-2.33.8-3.53.55-.29,1.12-.53,1.72-.71.55,1.15,1.72,1.93,3.06,1.93s2.52-.78,3.06-1.93c.59.18,1.17.42,1.72.71-.43,1.2-.15,2.58.8,3.53.95.95,2.33,1.23,3.53.8.29.55.53,1.12.71,1.72-1.15.55-1.93,1.72-1.93,3.06s.78,2.52,1.93,3.06Z"/>
</svg>