<?xml version="1.0" encoding="UTF-8"?>
<svg id="Layer_1" xmlns="http://www.w3.org/2000/svg" version="1.1" viewBox="0 0 110 135">
  <!-- Generator: Adobe Illustrator 29.8.2, SVG Export Plug-In . SVG Version: 2.1.1 Build 3)  -->
  <path d="M29.52,50.76c1.36,0,2.58-.82,3.1-2.07.52-1.25.23-2.7-.73-3.66-.96-.96-2.4-1.25-3.65-.73-1.25.52-2.07,1.74-2.07,3.1,0,1.85,1.5,3.35,3.35,3.36h0ZM29.52,46.28c.46,0,.87.27,1.05.7.18.43.08.91-.25,1.23s-.81.42-1.23.25c-.43-.18-.7-.59-.7-1.05,0-.62.51-1.13,1.13-1.13ZM29.52,84.25c-2.65,0-5.04,1.59-6.05,4.04-1.01,2.45-.45,5.27,1.42,7.14,1.87,1.88,4.69,2.43,7.14,1.42,2.45-1.02,4.04-3.4,4.04-6.05,0-3.62-2.93-6.55-6.55-6.55ZM29.52,95.13h0c-1.75,0-3.33-1.06-4-2.68-.67-1.62-.3-3.48.94-4.71,1.24-1.24,3.1-1.61,4.72-.94,1.62.67,2.67,2.25,2.67,4,0,2.39-1.94,4.32-4.33,4.32h0ZM55.42,89.19h0c0,.29-.12.58-.32.79-.21.21-.49.33-.79.33h-5.44c-.61,0-1.11-.5-1.11-1.11s.5-1.11,1.11-1.11h5.44c.61,0,1.11.5,1.11,1.11h0ZM65.07,91.89h5.45c.6.02,1.08.51,1.08,1.11s-.48,1.09-1.08,1.11h-5.44c-.6-.02-1.08-.51-1.08-1.11s.48-1.09,1.08-1.11h0ZM47.03,61.53h4.26,0c.3,0,.58-.12.79-.32.21-.21.33-.49.33-.79v-4.26c0-.29-.12-.57-.33-.79-.21-.21-.49-.32-.79-.32h-4.25c-.61,0-1.11.5-1.11,1.11v4.26c0,.61.5,1.11,1.11,1.11h0ZM48.14,57.28h2.03v2.03h-2.04v-2.03ZM47.03,69.37h4.26,0c.61,0,1.11-.5,1.11-1.11v-4.26c0-.29-.12-.58-.33-.79-.21-.21-.49-.32-.79-.32h-4.25c-.3,0-.58.12-.79.32-.21.21-.33.49-.33.79v4.26c0,.29.12.57.32.79.21.21.49.32.79.32h0ZM48.14,65.11h2.03v2.03h-2.04s0-2.03,0-2.03ZM93.89,48.57h-26.17v-5.19c0-.61-.5-1.11-1.11-1.11h-10.17v-2.14c0-.29-.12-.58-.32-.79-.21-.21-.49-.32-.79-.32h-12.35c-.3,0-.58.12-.79.32-.21.21-.32.49-.32.79v2.14h-6.79c-1.4-1.51-3.35-2.39-5.41-2.43-2.06-.04-4.05.76-5.5,2.21-1.46,1.46-2.26,3.45-2.21,5.51.04,2.06.92,4.01,2.44,5.41v27.57c-.1.05-.2.1-.3.15l-2.07-1.57h0c-.44-.34-1.06-.29-1.46.1l-2.61,2.61c-.39.39-.43,1.01-.1,1.46l1.57,2.07h0c-.37.68-.66,1.39-.88,2.13l-2.57.36c-.55.07-.96.54-.96,1.1v3.7c0,.55.41,1.02.96,1.1l2.57.36c.22.74.52,1.45.88,2.13l-1.57,2.07c-.34.44-.29,1.06.1,1.46l2.61,2.61h0c.39.39,1.01.43,1.45.1l2.07-1.57c.68.37,1.39.66,2.14.89l.36,2.57h0c.07.55.54.96,1.1.96h3.7c.55,0,1.02-.41,1.1-.96l.36-2.57c.74-.22,1.45-.52,2.13-.89l2.07,1.57c.44.34,1.07.29,1.46-.1l2.61-2.61c.31-.32.41-.79.24-1.2h35.44c.35,0,.67-.16.88-.43.21-.28.28-.63.19-.96l-3.62-13.5c-.13-.49-.57-.82-1.07-.82h-1.74v-4.54h22.46c.29,0,.58-.12.79-.33.21-.21.32-.49.32-.79v-27.5c0-.3-.11-.58-.32-.79-.21-.21-.49-.33-.79-.33h0ZM61.26,59.75v-1.8h2.64v1.8h-2.64ZM65.5,55.72h-5.84v-3.17h5.84v3.17ZM44.09,41.24h10.13v1.03h-10.13v-1.03ZM65.5,44.49v5.83h-28.99c.78-1.86.78-3.96,0-5.83h28.99ZM41.4,82.84c.07-.36-.04-.74-.3-1l-2.61-2.61c-.39-.39-1.02-.43-1.46-.1l-2.07,1.57c-.1-.05-.2-.1-.3-.15v-27.58c.14-.13.28-.27.41-.41h6.79v24.64c0,.3.12.58.32.79s.5.33.79.33h10.99v4.54h-12.57ZM54.22,69.75c-.16.2-.25.45-.25.7v5.62h-9.88v-23.52h10.13v17.2ZM29.52,42.06c2.16,0,4.11,1.3,4.94,3.3.83,2,.37,4.3-1.16,5.83-1.53,1.53-3.83,1.99-5.83,1.16-2-.83-3.3-2.78-3.3-4.94,0-2.95,2.4-5.34,5.35-5.35ZM29.52,54.98c1,0,1.99-.2,2.92-.59v22.69c-.13-.48-.57-.81-1.07-.81h-3.7c-.5,0-.93.33-1.07.81v-22.69c.92.39,1.91.59,2.91.59h0ZM37.6,100.12l-1.89-1.43h0c-.37-.28-.87-.3-1.26-.06-.88.56-1.85.96-2.87,1.19-.45.1-.79.47-.85.93l-.33,2.35h-1.75l-.32-2.35h0c-.06-.46-.41-.83-.86-.93-1.02-.23-1.99-.63-2.87-1.19-.39-.25-.89-.22-1.27.05l-1.89,1.43-1.25-1.24,1.43-1.89h0c.28-.37.3-.87.05-1.26-.56-.88-.96-1.86-1.19-2.87-.1-.45-.47-.79-.93-.86l-2.35-.32v-1.76s2.35-.32,2.35-.32h0c.46-.06.83-.4.93-.85.23-1.02.63-1.99,1.19-2.87.25-.39.22-.89-.05-1.27l-1.43-1.89,1.24-1.24,1.89,1.43c.37.28.87.3,1.26.05.88-.56,1.85-.96,2.87-1.19.45-.1.79-.47.86-.93l.32-2.35h1.75l.32,2.35c.06.46.41.83.86.93,1.02.23,1.99.63,2.87,1.19.39.25.89.22,1.27-.05l1.89-1.43,1.24,1.24-1.43,1.89c-.28.37-.3.87-.05,1.26.55.88.96,1.86,1.19,2.87.1.45.47.79.93.86l2.35.32v1.76l-2.35.32h0c-.46.06-.83.4-.93.85-.23,1.02-.63,1.99-1.19,2.87-.25.39-.23.89.05,1.26l1.43,1.89-1.24,1.25ZM75.34,96.33h-35.63l-.07-.1c.37-.68.66-1.39.89-2.13l2.57-.36c.55-.07.96-.54.96-1.1v-3.7c0-.55-.41-1.02-.96-1.1l-2.57-.36c-.22-.74-.52-1.45-.89-2.13l.23-.3h32.45l3.02,11.28ZM56.19,82.83v-11.27h13.01v11.27h-13.01ZM87.16,76.07h-9.71v-14.8h9.71v14.8ZM92.78,76.07h-3.4v-15.91c0-.61-.5-1.11-1.11-1.11h-11.93c-.3,0-.58.12-.79.32-.21.21-.33.49-.33.79v15.91h-3.79v-5.62c0-.61-.5-1.11-1.11-1.11h-13.88v-16.8h1v4.29c0,.62.5,1.11,1.11,1.11h.48v2.91c0,.61.5,1.11,1.11,1.11h1.32v3.37c0,.61.5,1.11,1.11,1.11s1.11-.5,1.11-1.11v-3.37h1.32c.3,0,.58-.12.79-.32.21-.21.32-.49.32-.79v-2.91h.48c.61,0,1.11-.5,1.11-1.11v-6.04h25.06v25.28ZM75.88,57.9h4.25c.29,0,.58-.11.79-.32.21-.21.32-.49.32-.79v-4.26c0-.29-.12-.57-.32-.79-.21-.21-.49-.32-.79-.32h-4.25c-.3,0-.58.12-.79.32-.21.21-.32.49-.32.79v4.26c0,.29.12.58.32.79.21.21.49.32.79.32ZM76.99,53.65h2.03v2.03h-2.03s0-2.03,0-2.03ZM84.08,57.9h4.25c.29,0,.58-.11.79-.32.21-.21.33-.49.32-.79v-4.26c0-.29-.11-.57-.32-.79-.21-.21-.49-.32-.79-.32h-4.25c-.3,0-.58.12-.79.32-.21.21-.32.49-.32.79v4.26c0,.29.12.58.32.79.21.21.49.32.79.32ZM85.19,53.65h2.03v2.03h-2.03s0-2.03,0-2.03ZM83.76,70.23v-3.11c0-.61.5-1.11,1.11-1.11s1.11.5,1.11,1.11v3.11c0,.61-.5,1.11-1.11,1.11s-1.11-.5-1.11-1.11ZM74.52,43.78c.02.29-.09.58-.29.8s-.47.35-.77.37h-.06c-.59,0-1.08-.46-1.11-1.05-.05-.92-.54-1.77-1.32-2.26s-1.75-.59-2.61-.24c-.27.12-.59.12-.86,0-.28-.11-.5-.33-.61-.61-.11-.27-.11-.59,0-.86.12-.27.34-.49.62-.59,1.52-.62,3.25-.47,4.64.41,1.39.88,2.26,2.38,2.35,4.02h0ZM69.45,36.55c-.97,0-1.93.19-2.83.55-.57.23-1.21-.04-1.45-.61-.23-.57.04-1.22.61-1.45,2.91-1.19,6.22-.89,8.88.8,2.66,1.68,4.33,4.55,4.5,7.69.02.29-.08.59-.28.8-.2.22-.47.35-.77.37h-.06c-.59,0-1.08-.46-1.11-1.05-.21-3.98-3.5-7.11-7.49-7.11h0ZM63.42,32.19c-.23-.57.04-1.22.61-1.45,4.3-1.75,9.19-1.31,13.11,1.18,3.92,2.49,6.4,6.72,6.65,11.36.02.29-.09.58-.29.8-.2.22-.47.35-.77.37h-.06c-.59,0-1.08-.46-1.11-1.05-.21-3.92-2.31-7.5-5.62-9.6-3.32-2.11-7.45-2.48-11.08-1-.27.11-.58.11-.85,0-.27-.11-.49-.33-.6-.61h0Z"/>
</svg>