<?xml version="1.0" encoding="UTF-8"?>
<svg id="Layer_1" xmlns="http://www.w3.org/2000/svg" version="1.1" viewBox="0 0 110 135">
  <!-- Generator: Adobe Illustrator 29.8.2, SVG Export Plug-In . SVG Version: 2.1.1 Build 3)  -->
  <defs>
    <style>
      .st0 {
        fill-rule: evenodd;
      }
    </style>
  </defs>
  <path class="st0" d="M16.02,43.63c-.72,0-1.34.51-1.47,1.21-.14.7.23,1.41.9,1.68.66.27,1.43.04,1.82-.55.4-.6.32-1.39-.18-1.9-.28-.29-.67-.44-1.07-.44h0ZM96.14,52.61l1.37,1.37.89-6.1-6.1.89,1.36,1.36c.21.21.32.49.32.79s-.12.57-.32.79l-6.7,6.7c-.38.38-.96.43-1.41.13l-5.65-3.26-10.4,9.04,10.22-6.93h0c.35-.24.81-.26,1.17-.05l5.66,3.27,8-8c.21-.21.49-.32.79-.32s.58.12.79.32h0ZM97.49,57.1l-2.14-2.14-7.82,7.82c-.36.36-.91.43-1.34.18l-.18-.11c1.95,6.35,1.35,13.21-1.68,19.11l.02.02c1.14,1.14.56,2.75.05,4.16-.05.13-.09.26-.14.39l2.5,3.07.42-.41h0c.86-.86,2.25-.86,3.11,0l10.1,10.11c2.61,2.68,2.58,6.97-.07,9.62-2.65,2.65-6.93,2.68-9.62.07l-10.1-10.1c-.86-.86-.86-2.25,0-3.11l.41-.41-3.07-2.5-.38.14c-1.41.51-3.02,1.09-4.16-.05l-.02-.02h0c-7.87,4.05-17.27,3.71-24.83-.89-7.55-4.61-12.16-12.82-12.16-21.66,0-.57.02-1.14.06-1.71h-5.71c-.58,0-1.14-.23-1.55-.64h0c-.41-.42-.64-.98-.64-1.56v-1.49h-1.71c-.58,0-1.14-.23-1.55-.65-.41-.41-.64-.97-.65-1.55v-10.93h-3.3l-6.65,6.65c.86,1.63.39,3.64-1.09,4.73-1.48,1.09-3.54.93-4.84-.37-1.3-1.3-1.46-3.35-.37-4.84,1.09-1.48,3.1-1.95,4.73-1.09l6.74-6.74h0c.36-.36.85-.56,1.36-.56h3.43v-3.36h-5.05c-.55,1.76-2.3,2.85-4.11,2.57s-3.16-1.84-3.16-3.68,1.34-3.4,3.16-3.68,3.57.82,4.11,2.57h5.05v-11.49c0-.3.12-.59.35-.8l7.64-7.27c.21-.23.51-.36.82-.36h18.2c1.21,0,2.2.99,2.2,2.2v1.49h1.71c1.21,0,2.2.99,2.2,2.2v15.3c8.04-1.29,16.21,1.36,21.97,7.11.08.08.21.22.4.41.02.02.04.04.05.06.06.02.11.05.16.08l5.66,3.27,5.31-5.31-2.14-2.14c-.3-.3-.4-.74-.27-1.14.13-.4.48-.69.9-.75l9.73-1.42c.35-.05.7.05.96.3.25.25.37.6.32.95l-1.41,9.7h0c-.04.43-.32.8-.73.95-.41.15-.86.04-1.17-.26h0ZM83.01,61.11c2.66,6.15,2.54,13.15-.33,19.19l-.54-.54c-.25-.25-.61-.37-.97-.31-.35.06-.66.29-.81.61-1.85,3.84-4.94,6.94-8.77,8.81-.35.13-.61.43-.7.8-.08.37.04.75.3,1.02l.54.54c-6.62,3.16-14.35,2.98-20.84-.46-6.48-3.45-10.94-9.76-12.03-17.02-1.09-7.26,1.34-14.6,6.52-19.79.21-.21.43-.42.64-.62,4.38-4.05,10.16-6.25,16.13-6.15,5.96.1,11.66,2.51,15.9,6.71l-3.08,2.68-1.68-1.68c-.32-.32-.75-.5-1.21-.5s-.89.18-1.21.5l-1.86,1.86c-.44-.23-.9-.45-1.37-.64-.47-.2-.94-.36-1.41-.5v-2.65c0-.41-.15-.8-.41-1.11-.03-.04-.06-.07-.09-.11-.32-.32-.76-.5-1.21-.5h-5.51c-.45,0-.89.18-1.21.5-.32.32-.5.75-.5,1.21v2.66c-.46.14-.92.3-1.36.48-.02,0-.04.01-.06.02-.46.19-.92.41-1.36.64l-1.87-1.87c-.67-.67-1.75-.67-2.42,0l-3.89,3.89c-.67.67-.67,1.75,0,2.42l1.87,1.87c-.23.42-.43.86-.62,1.3l-.02.05h0c-.19.47-.36.94-.51,1.42h-2.65c-.45,0-.88.18-1.2.5h0c-.32.33-.5.76-.5,1.21v5.51c0,.45.18.88.5,1.2h0c.32.33.75.51,1.21.51h2.65c.15.48.32.96.51,1.42.2.47.41.92.64,1.36l-1.87,1.87h0c-.67.67-.67,1.75,0,2.42l3.89,3.89c.67.67,1.75.67,2.42,0l1.87-1.87c.42.23.86.43,1.3.62l.06.02h0c.46.19.94.36,1.42.5v2.65c0,.45.18.89.5,1.21.32.32.75.5,1.21.51h5.51c.45,0,.88-.18,1.2-.5h0c.32-.33.5-.76.5-1.21v-2.65c.46-.14.92-.3,1.36-.48l.06-.02c.46-.19.92-.41,1.36-.64l1.87,1.87h0c.63.63,1.64.67,2.32.09.04-.03.07-.06.1-.09l3.89-3.89c.67-.67.67-1.75,0-2.42l-1.85-1.88c.23-.44.45-.9.64-1.37.2-.47.36-.94.5-1.41h2.65c.46,0,.89-.18,1.21-.5.32-.32.5-.75.5-1.21v-5.51c0-.95-.77-1.71-1.71-1.71h-2.65c-.15-.48-.32-.96-.51-1.42-.2-.47-.41-.92-.64-1.36l.21-.21,4.84-3.29,2.62,1.51h0ZM73.46,64.3c.17.33.33.66.47,1h0c.26.63.47,1.28.63,1.94.12.5.57.84,1.07.84h2.98v4.5h-2.98c-.54,0-1.01.39-1.09.93-.32,1.3-.84,2.54-1.54,3.67-.27.44-.2,1,.16,1.36l2.11,2.11-3.18,3.18-2.11-2.1c-.38-.38-.98-.43-1.42-.12-.57.34-1.15.63-1.76.89l-.05.02c-.61.25-1.24.45-1.89.61-.49.12-.84.57-.84,1.07v2.98h-4.5v-2.98c0-.55-.4-1.01-.94-1.1-.63-.16-1.25-.36-1.85-.61-.02,0-.04-.02-.05-.02-.61-.25-1.2-.56-1.77-.9-.44-.27-1-.2-1.36.16l-2.11,2.11-3.18-3.18,2.11-2.11h0c.38-.39.43-.99.12-1.43-.34-.56-.64-1.14-.89-1.75-.26-.63-.47-1.28-.63-1.94-.12-.49-.57-.84-1.07-.84h-2.98v-4.5h2.98c.55,0,1.01-.4,1.1-.94.16-.63.36-1.25.61-1.85l.02-.05c.26-.61.56-1.2.91-1.77.27-.44.2-1-.16-1.36l-2.11-2.11,3.18-3.18,2.11,2.11h0c.38.38.98.44,1.43.12.56-.34,1.15-.64,1.76-.89l.05-.02c.61-.25,1.25-.46,1.89-.61.5-.12.84-.57.84-1.08v-2.99h4.5v2.99c0,.54.39,1.01.93,1.09,1.3.32,2.54.84,3.68,1.54.43.27,1,.2,1.36-.16l2.11-2.11,1.22,1.21-4.93,4.29c-3.95-3.26-9.69-3.15-13.5.27-3.82,3.41-4.58,9.1-1.78,13.39,2.79,4.29,8.3,5.9,12.97,3.79,4.66-2.11,7.09-7.32,5.7-12.25-.16-.57-.37-1.13-.62-1.66l2.32-1.58h0ZM69.28,67.13c.14.33.26.66.36,1,1.08,3.86-.79,7.93-4.42,9.62-3.63,1.69-7.95.51-10.21-2.8-2.26-3.3-1.79-7.76,1.11-10.53,2.9-2.76,7.37-3.02,10.57-.61l-5.66,4.93-.07.07h0c-.32.31-.48.73-.46,1.18.02.39.16.76.42,1.05.03.03.06.06.09.09.29.29.67.45,1.07.46.38.01.76-.1,1.08-.32l6.13-4.16h0ZM11.38,58.68c-.72,0-1.34.51-1.48,1.21-.14.7.24,1.41.9,1.68.66.28,1.43.04,1.83-.55s.32-1.39-.19-1.9c-.28-.28-.66-.44-1.06-.44h0ZM48.72,34.78h-9.1c-.61,0-1.11.5-1.11,1.11s.5,1.11,1.11,1.11h9.1c.61,0,1.11-.5,1.11-1.11s-.5-1.11-1.11-1.11ZM48.72,31.21h-5.41c-.3,0-.59.11-.8.32-.21.21-.34.5-.34.8s.12.59.34.8c.21.21.51.32.8.31h5.41c.3,0,.59-.11.8-.31.22-.21.34-.5.34-.8s-.12-.59-.34-.8c-.21-.21-.5-.32-.8-.31h0ZM39.04,59.06h-9.3c-.6-.02-1.07-.51-1.07-1.11s.48-1.09,1.07-1.11h10.54c.71-1.13,1.51-2.21,2.39-3.21h-12.94c-.61,0-1.11-.5-1.11-1.11s.5-1.11,1.11-1.11h15.13c2-1.79,4.28-3.25,6.74-4.33v-20.77h-17.06v5.12c0,.58-.23,1.14-.65,1.56-.41.41-.97.64-1.55.64h-5.5v29.09h10.72c.39-1.26.89-2.48,1.47-3.66h0ZM45.6,45.99h-15.86c-.61,0-1.11.5-1.11,1.11s.5,1.11,1.11,1.11h15.86c.61,0,1.11-.5,1.11-1.11s-.5-1.11-1.11-1.11h0ZM36.71,66.42c.08-.49.17-.98.27-1.47h-6.21v1.47h5.94ZM53.83,30.01v16.23c.56-.18,1.12-.35,1.7-.49v-15.74h-1.7ZM28.51,31.42h3.81v-3.63l-3.81,3.63ZM82.59,93.76l2.59-2.59-2.98-3.67c-.25-.28-.34-.66-.24-1.02.09-.32.22-.7.36-1.09.29-.79.61-1.7.46-1.85l-1.15-1.15c-1.86,3.25-4.55,5.95-7.8,7.8l1.14,1.14c.15.15,1.05-.17,1.85-.46.37-.13.73-.27,1.06-.35h0c.35-.1.72-.02,1,.21l3.71,3.02h0ZM83.48,98.6l6.54-6.55-1.3-1.3-6.55,6.55,1.3,1.3h0ZM91.6,93.63l-6.55,6.55,7.23,7.23h0c1.83,1.69,4.66,1.63,6.42-.12s1.82-4.6.12-6.43l-7.23-7.22Z"/>
</svg>