<?xml version="1.0" encoding="UTF-8"?>
<svg id="Layer_1" xmlns="http://www.w3.org/2000/svg" version="1.1" viewBox="0 0 450 562.5">
  <!-- Generator: Adobe Illustrator 29.8.2, SVG Export Plug-In . SVG Version: 2.1.1 Build 3)  -->
  <defs>
    <style>
      .st0 {
        stroke: #000;
        stroke-miterlimit: 10;
        stroke-width: .25px;
      }
    </style>
  </defs>
  <path class="st0" d="M62.05,412.95c-11.9,0-23.2-4.7-31.7-13.2-8.6-8.5-13.3-19.9-13.3-31.9V105.35c0-24.8,20.2-45.1,45.1-45.1h325.6c24.8,0,45,20.3,45,45.1,0,15.6,0,41.4.1,71.1.1,83.5.2,187.5-.1,194.1-1.2,20.6-16.2,37.7-36.5,41.6-.3.1-.6.1-.9.1l-26.6.1h0c-2.8,0-5-2.2-5-5s2.2-5,5-5l26.1-.1c15.6-3.2,27-16.4,27.9-32.3.4-6.3.2-114.5.1-193.5,0-29.6-.1-55.5-.1-71.1,0-19.3-15.7-35.1-35.1-35.1H62.15c-19.3,0-35.1,15.7-35.1,35.1v262.6c0,9.3,3.7,18.2,10.3,24.8,6.6,6.6,15.4,10.3,24.7,10.2h19.6c2.8,0,5,2.2,5,5s-2.2,5-5,5h-19.6c.1,0,0,0,0,0Z"/>
  <path class="st0" d="M427.75,131.55H22.05c-2.8,0-5-2.2-5-5s2.2-5,5-5h405.7c2.8,0,5,2.2,5,5s-2.2,5-5,5Z"/>
  <path class="st0" d="M81.95,113.45c-9.6,0-17.5-7.8-17.5-17.5s7.8-17.5,17.5-17.5,17.5,7.8,17.5,17.5-7.8,17.5-17.5,17.5ZM81.95,88.45c-4.1,0-7.5,3.4-7.5,7.5s3.4,7.5,7.5,7.5,7.5-3.4,7.5-7.5-3.3-7.5-7.5-7.5Z"/>
  <path class="st0" d="M129.65,113.45c-9.6,0-17.5-7.8-17.5-17.5s7.8-17.5,17.5-17.5,17.5,7.8,17.5,17.5-7.9,17.5-17.5,17.5ZM129.65,88.45c-4.1,0-7.5,3.4-7.5,7.5s3.4,7.5,7.5,7.5,7.5-3.4,7.5-7.5-3.4-7.5-7.5-7.5Z"/>
  <path class="st0" d="M177.25,113.45c-9.6,0-17.5-7.8-17.5-17.5s7.8-17.5,17.5-17.5,17.5,7.8,17.5,17.5-7.9,17.5-17.5,17.5ZM177.25,88.45c-4.1,0-7.5,3.4-7.5,7.5s3.4,7.5,7.5,7.5,7.5-3.4,7.5-7.5-3.4-7.5-7.5-7.5Z"/>
  <path class="st0" d="M330.95,100.95h-115.7c-2.8,0-5-2.2-5-5s2.2-5,5-5h115.7c2.8,0,5,2.2,5,5s-2.2,5-5,5Z"/>
  <path class="st0" d="M380.35,100.95h-27c-2.8,0-5-2.2-5-5s2.2-5,5-5h27c2.8,0,5,2.2,5,5s-2.2,5-5,5Z"/>
  <path class="st0" d="M238.55,502.25h-27.1c-5.9,0-10.7-4.6-11.5-10.9l-2.5-20.2c-5-1-10-2.4-14.9-4l-12.2,16.3c-3.8,5.1-10.3,6.7-15.4,3.7l-23.6-13.6c-5.1-2.9-7-9.4-4.5-15.2l7.9-18.7c-3.9-3.4-7.5-7.1-11-11l-18.7,8c-5.9,2.5-12.3.6-15.2-4.5l-13.6-23.5c-2.9-5.1-1.4-11.6,3.7-15.4l16.2-12.2c-1.6-4.9-3-9.9-4-15l-20-2.5c-6.3-.8-10.9-5.6-10.9-11.5v-27.1c0-5.9,4.6-10.7,10.9-11.5l20.2-2.5c1.1-5,2.4-10,4-14.9l-16.3-12.2c-5.1-3.8-6.7-10.3-3.7-15.4l13.6-23.5c2.9-5.1,9.4-7,15.2-4.5l18.7,7.9c3.4-3.9,7.1-7.5,11-11l-8-18.7c-2.5-5.9-.6-12.3,4.5-15.2l23.5-13.6c5.1-2.9,11.6-1.4,15.4,3.7l12.2,16.2c4.9-1.6,9.9-3,15-4l2.5-20.2c.8-6.3,5.6-10.9,11.5-10.9h27.1c5.9,0,10.7,4.6,11.5,10.9l2.5,20.2c5,1.1,10,2.4,14.9,4l12.3-16.2c3.8-5.1,10.3-6.7,15.4-3.7l23.5,13.6c5.1,2.9,7,9.4,4.5,15.2l-7.9,18.7c3.9,3.4,7.5,7.1,11,11l18.7-8c5.9-2.5,12.3-.6,15.2,4.5l13.6,23.5c2.9,5.1,1.4,11.6-3.7,15.4l-16.3,12.2c1.6,4.9,3,9.9,4,15l20.2,2.5c6.3.8,10.9,5.6,10.9,11.5v27.1c0,5.9-4.6,10.7-10.9,11.5l-20.2,2.5c-1.1,5-2.4,10-4,14.9l16.3,12.2c5.1,3.8,6.7,10.3,3.7,15.4l-13.6,23.5c-2.9,5.1-9.4,7-15.2,4.5l-18.7-7.9c-3.4,3.9-7.1,7.5-11,11l8,18.7c2.5,5.9.6,12.3-4.5,15.2l-23.5,13.6c-5.1,2.9-11.6,1.4-15.4-3.7l-12.2-16.2c-4.9,1.6-9.9,3-15,4l-2.5,20.2c-.8,6.2-5.7,10.8-11.6,10.8ZM180.75,456.25c.6,0,1.1.1,1.7.3,6.6,2.4,13.5,4.2,20.5,5.5,2.2.4,3.8,2.1,4.1,4.3l2.9,23.8c.1.9.6,2.2,1.6,2.2h27.1c1,0,1.5-1.3,1.6-2.2l2.9-23.8c.3-2.2,1.9-3.9,4.1-4.3,7-1.2,13.9-3.1,20.5-5.5,2.1-.7,4.4-.1,5.7,1.7l14.4,19.1c.5.7,1.6,1.6,2.5,1.1l23.5-13.6c.8-.5.6-1.9.3-2.7l-9.4-22c-.9-2-.3-4.4,1.4-5.8,5.4-4.6,10.5-9.6,15-15,1.4-1.7,3.8-2.2,5.8-1.4l22,9.4c.8.3,2.2.5,2.7-.3l13.6-23.5c.5-.8-.4-1.9-1.1-2.4l-19.4-14.4c-1.8-1.3-2.4-3.6-1.7-5.7,2.4-6.6,4.2-13.5,5.5-20.5.4-2.2,2.1-3.8,4.3-4.1l23.8-2.9c.9-.1,2.2-.6,2.2-1.6v-27.1c0-1-1.3-1.5-2.2-1.6l-23.8-2.9c-2.2-.3-3.9-1.9-4.3-4.1-1.2-7-3.1-13.9-5.5-20.5-.7-2.1-.1-4.4,1.7-5.7l19.1-14.4c.7-.5,1.6-1.6,1.1-2.5l-13.6-23.5c-.5-.8-1.9-.6-2.7-.3l-22,9.4c-2,.9-4.4.3-5.8-1.4-4.5-5.4-9.6-10.4-15-15-1.7-1.4-2.2-3.8-1.4-5.8l9.4-22c.3-.8.5-2.2-.3-2.7l-23.5-13.6c-.8-.5-1.9.4-2.5,1.1l-14.4,19.2c-1.3,1.8-3.6,2.4-5.7,1.7-6.6-2.4-13.5-4.2-20.5-5.5-2.2-.4-3.8-2.1-4.1-4.3l-2.9-23.8c-.1-.9-.6-2.2-1.6-2.2h-27.1c-1,0-1.5,1.3-1.6,2.2l-2.9,23.8c-.3,2.2-1.9,3.9-4.1,4.3-7,1.2-13.8,3.1-20.5,5.5-2.1.7-4.4.1-5.7-1.7l-14.1-19c-.5-.7-1.6-1.6-2.4-1.1l-23.5,13.6c-.8.5-.6,1.9-.3,2.7l9.4,22c.9,2,.3,4.4-1.4,5.8-5.4,4.6-10.5,9.6-15,15-1.4,1.7-3.8,2.2-5.8,1.4l-22-9.4c-.8-.3-2.2-.5-2.7.3l-13.6,23.5c-.5.8.4,1.9,1.1,2.4l19.2,14.4c1.8,1.3,2.4,3.6,1.7,5.7-2.4,6.6-4.2,13.5-5.5,20.5-.4,2.2-2.1,3.8-4.3,4.1l-23.8,2.9c-.9.1-2.2.6-2.2,1.6v27.1c0,1,1.3,1.5,2.2,1.6l23.8,2.9c2.2.3,3.9,1.9,4.3,4.1,1.2,7,3.1,13.9,5.5,20.5.7,2.1.1,4.4-1.7,5.7l-19.1,14.4c-.7.5-1.6,1.6-1.1,2.4l13.6,23.5c.5.8,1.9.6,2.7.3l22-9.4c2-.9,4.4-.3,5.8,1.4,4.6,5.4,9.6,10.5,15,15,1.7,1.4,2.2,3.8,1.4,5.8l-9.4,22c-.3.8-.5,2.2.3,2.7l23.5,13.6c.8.5,1.9-.4,2.4-1.1l14.4-19.2c.8-1.3,2.3-2,3.9-2Z"/>
  <path class="st0" d="M245.15,448.75c-1.1,0-2.2-.4-3.1-1-1.1-.9-1.8-2.2-1.9-3.6l-2.6-42.8c-.2-2.8,1.9-5.1,4.7-5.3,2.7-.2,5.1,1.9,5.3,4.7l2.3,37c26.7-6.7,49.7-23.9,63.6-48,13.9-24,17.4-52.4,9.9-78.8l-33.2,16.3c-2.5,1.2-5.5.2-6.7-2.3s-.2-5.5,2.3-6.7l38.5-18.9c1.3-.6,2.8-.7,4.1-.1,1.3.5,2.4,1.6,2.8,3,10.5,30.6,7.3,64.3-9,92.5-16.4,28.3-44.1,48-76,54.1-.4-.2-.7-.1-1-.1ZM204.85,448.65c-.3,0-.6,0-.9-.1-31.8-6.1-59.5-25.9-75.8-54.2-16.3-28.3-19.6-62.1-9-92.7.5-1.4,1.5-2.4,2.8-3,1.3-.5,2.8-.5,4.1.2l38.4,19.1c2.5,1.2,3.5,4.2,2.2,6.7-1.2,2.5-4.2,3.5-6.7,2.2l-33.1-16.5c-7.5,26.4-4,54.9,9.9,79,13.9,24.1,36.9,41.4,63.5,48.1l2.3-36.9c.2-2.8,2.5-4.9,5.3-4.7,2.8.2,4.9,2.5,4.7,5.3l-2.6,42.8c-.1,1.4-.8,2.8-1.9,3.6-1,.8-2.1,1.1-3.2,1.1ZM179.85,296.95c-1,0-1.9-.3-2.8-.9l-35.6-23.9c-1.2-.8-2-2.1-2.2-3.5s.2-2.9,1.2-3.9c21.3-24.4,52.1-38.4,84.7-38.4h.1c32.4,0,63.1,14,84.4,38.4.9,1.1,1.4,2.5,1.2,3.9-.2,1.4-1,2.7-2.2,3.5l-35.6,23.9c-2.3,1.5-5.4.9-6.9-1.4-1.5-2.3-.9-5.4,1.4-6.9l30.7-20.6c-19.1-19.6-45.4-30.8-73-30.8h-.1c-27.7,0-54.1,11.1-73.3,30.8l30.7,20.6c2.3,1.5,2.9,4.6,1.4,6.9-.9,1.5-2.5,2.3-4.1,2.3Z"/>
  <path class="st0" d="M225.15,408.35c-24.2,0-47.7-12.5-60.6-34.9-19.3-33.4-7.8-76.2,25.6-95.4s76.2-7.8,95.4,25.6h0c19.3,33.4,7.8,76.2-25.6,95.4-11,6.3-23,9.3-34.8,9.3ZM224.95,278.65c-10.1,0-20.4,2.6-29.8,8-28.6,16.5-38.4,53.2-21.9,81.7,16.5,28.6,53.2,38.4,81.7,21.9,28.6-16.5,38.4-53.2,21.9-81.7h0c-11.1-19.2-31.2-29.9-51.9-29.9Z"/>
  <path class="st0" d="M120.45,160.25H49.05c-2.8,0-5-2.2-5-5s2.2-5,5-5h71.4c2.8,0,5,2.2,5,5s-2.2,5-5,5Z"/>
  <path class="st0" d="M120.45,179.05H49.05c-2.8,0-5-2.2-5-5s2.2-5,5-5h71.4c2.8,0,5,2.2,5,5s-2.2,5-5,5Z"/>
  <path class="st0" d="M102.15,197.85h-53.1c-2.8,0-5-2.2-5-5s2.2-5,5-5h53.1c2.8,0,5,2.2,5,5s-2.2,5-5,5Z"/>
  <path class="st0" d="M400.95,160.25h-71.4c-2.8,0-5-2.2-5-5s2.2-5,5-5h71.4c2.8,0,5,2.2,5,5s-2.3,5-5,5Z"/>
  <path class="st0" d="M400.95,179.05h-71.4c-2.8,0-5-2.2-5-5s2.2-5,5-5h71.4c2.8,0,5,2.2,5,5s-2.3,5-5,5Z"/>
  <path class="st0" d="M400.95,197.85h-53.1c-2.8,0-5-2.2-5-5s2.2-5,5-5h53.1c2.8,0,5,2.2,5,5s-2.3,5-5,5Z"/>
  <path class="st0" d="M225.05,375.95c-13,0-25.6-6.7-32.6-18.8-5-8.7-6.3-18.8-3.7-28.5s8.8-17.8,17.5-22.8,18.8-6.3,28.5-3.7,17.8,8.8,22.8,17.5h0c5,8.7,6.3,18.8,3.7,28.5-2.6,9.7-8.8,17.8-17.5,22.8-5.9,3.4-12.3,5-18.7,5ZM224.95,310.95c-4.8,0-9.5,1.3-13.7,3.7-6.4,3.7-10.9,9.6-12.8,16.7-1.9,7.1-.9,14.5,2.8,20.9,7.6,13.1,24.5,17.7,37.6,10.1,6.4-3.7,10.9-9.6,12.8-16.7,1.9-7.1.9-14.5-2.8-20.9h0c-3.7-6.4-9.6-10.9-16.7-12.8-2.4-.7-4.8-1-7.2-1Z"/>
</svg>