<?xml version="1.0" encoding="UTF-8"?>
<svg id="Layer_1" xmlns="http://www.w3.org/2000/svg" version="1.1" viewBox="0 0 95 118.75">
  <!-- Generator: Adobe Illustrator 29.8.2, SVG Export Plug-In . SVG Version: 2.1.1 Build 3)  -->
  <defs>
    <style>
      .st0 {
        fill-rule: evenodd;
        stroke: #000;
        stroke-miterlimit: 10;
        stroke-width: .25px;
      }
    </style>
  </defs>
  <path class="st0" d="M24.2,46.28h10.23c.58-11.02,9.98-19.49,21.01-18.91,10.21.54,18.37,8.7,18.91,18.91h10.23v-2.65c0-.28-.19-.52-.47-.57l-4.62-.89c-.43-.08-.76-.42-.84-.84-.61-2.45-1.58-4.8-2.89-6.96-.21-.35-.2-.8.03-1.14l2.63-3.89c.08-.11.11-.25.1-.38-.01-.13-.08-.26-.17-.35h0l-5.24-5.23c-.09-.1-.22-.16-.35-.17-.14-.01-.27.02-.38.1l-3.89,2.63c-.35.24-.8.24-1.16.01-2.17-1.31-4.53-2.29-6.99-2.89-.4-.1-.71-.42-.79-.82h0l-.89-4.62c-.03-.13-.1-.25-.2-.34-.1-.08-.24-.13-.37-.13h-7.4c-.28,0-.52.19-.57.47l-.89,4.62c-.08.43-.42.76-.85.84-2.45.61-4.8,1.58-6.96,2.89-.35.21-.8.2-1.14-.03l-3.89-2.63c-.23-.16-.54-.13-.74.07l-5.24,5.24-.03.03c-.08.09-.13.2-.14.32-.01.14.02.27.1.38l2.64,3.9c.24.35.24.8.01,1.16-1.32,2.17-2.29,4.53-2.9,6.99-.1.4-.42.71-.82.79h0l-4.62.89c-.28.05-.47.29-.47.57v2.65h0ZM20.52,53.43c-1.18,0-2.13.96-2.13,2.14,0,1.18.96,2.13,2.14,2.13,1.18,0,2.13-.96,2.13-2.14,0-.57-.23-1.11-.63-1.51-.4-.4-.94-.63-1.51-.62ZM17.52,52.56c1.51-1.51,3.91-1.67,5.6-.36l2.23-1.74v-2.07h-2.2c-.58,0-1.06-.47-1.06-1.06h0v-3.7c0-1.29.91-2.4,2.18-2.64l3.97-.76c.6-2.23,1.49-4.37,2.64-6.37l-2.27-3.35c-.71-1.03-.6-2.42.25-3.33.02-.02.04-.05.07-.07l5.24-5.24c.91-.91,2.34-1.05,3.41-.32l3.35,2.27c2-1.15,4.14-2.03,6.37-2.63l.76-3.97c.24-1.27,1.35-2.19,2.64-2.18h7.4c1.29,0,2.4.91,2.64,2.18l.76,3.97c2.23.6,4.37,1.49,6.37,2.64l3.35-2.27c1.06-.72,2.49-.59,3.4.32l5.24,5.24h0c.91.91,1.05,2.34.32,3.4l-2.27,3.34c1.15,2,2.04,4.14,2.64,6.37l3.97.76c1.27.24,2.19,1.35,2.18,2.64v3.7c0,.58-.47,1.05-1.05,1.06h-2.2v2.07l2.23,1.74c1.85-1.43,4.51-1.08,5.94.77,1.43,1.85,1.08,4.51-.77,5.94-1.85,1.43-4.51,1.08-5.94-.77-.94-1.23-1.15-2.87-.52-4.28l-2.64-2.06c-.25-.2-.4-.51-.4-.83h0v-2.58h-3.79v8.36l3.13,3.88c2.13-.98,4.66-.04,5.63,2.1.98,2.13.04,4.66-2.1,5.63-2.13.98-4.66.04-5.63-2.1-.65-1.41-.47-3.06.46-4.31l-3.37-4.17c-.15-.19-.23-.42-.23-.66h0v-8.72h-2.12c-.58,0-1.06-.47-1.06-1.06h0c-.07-9.87-8.14-17.82-18.01-17.74-9.77.07-17.67,7.97-17.74,17.74,0,.58-.47,1.05-1.05,1.06h-2.12v8.73h0c0,.24-.08.47-.23.66l-3.37,4.17c1.4,1.87,1.01,4.53-.87,5.92-1.87,1.4-4.53,1.01-5.92-.87-1.4-1.87-1.01-4.53.87-5.92,1.24-.92,2.88-1.1,4.29-.45l3.13-3.88v-8.36h-3.79v2.58h0c0,.32-.15.63-.4.83l-2.64,2.06c.94,2.15-.04,4.65-2.19,5.59s-4.65-.04-5.59-2.19c-.7-1.6-.35-3.47.89-4.7h0ZM26.35,62.36c-1.18,0-2.13.96-2.13,2.14,0,1.18.96,2.13,2.14,2.13,1.18,0,2.13-.96,2.13-2.14,0-.57-.23-1.11-.63-1.51-.4-.4-.94-.63-1.51-.62ZM89.78,54.06c-.83-.83-2.19-.83-3.02,0-.83.83-.83,2.19,0,3.02.83.83,2.19.83,3.02,0,.4-.4.62-.94.62-1.51,0-.57-.22-1.11-.63-1.51ZM83.95,62.99c-.83-.84-2.19-.84-3.02,0-.84.83-.84,2.19,0,3.02s2.19.84,3.02,0c.4-.4.63-.94.63-1.51,0-.57-.22-1.11-.62-1.51ZM57.91,44.97c.6,0,1.08.48,1.08,1.08,0,.6-.48,1.08-1.08,1.08-.59,0-1.07-.48-1.08-1.07h0c0-.61.49-1.09,1.08-1.08ZM55.65,43.79c-.59.59-.93,1.4-.93,2.24h0v17.05h-.6v-17.05h0c-.01-1.76-1.45-3.18-3.2-3.16-1.76.01-3.18,1.45-3.16,3.2s1.45,3.18,3.2,3.16c.36,0,.72-.07,1.06-.19v14.03h-5.23c-.23-.75-.53-1.48-.92-2.16-.54-.96-1.21-1.83-1.99-2.6-5.85-5.78-5.91-15.22-.13-21.07,5.78-5.85,15.22-5.91,21.07-.13,5.85,5.78,5.91,15.22.13,21.07-.04.04-.09.09-.13.13-.78.77-1.45,1.64-1.99,2.6-.38.69-.69,1.41-.92,2.16h-5.08v-14.03c1.66.6,3.48-.27,4.08-1.92.6-1.66-.27-3.48-1.92-4.08-1.16-.42-2.46-.13-3.33.75ZM51.69,45.28c.2.2.31.47.32.76h0c0,.61-.49,1.09-1.09,1.09s-1.08-.49-1.07-1.09.49-1.08,1.09-1.07c.28,0,.56.12.76.32ZM64,63.43c.19.11.37.25.52.41,1.01,1.02,1.01,2.66,0,3.68-.28.28-.63.5-1.01.62-.37,5.06-4.78,8.87-9.84,8.5-4.57-.33-8.2-3.98-8.5-8.55-1.33-.54-1.97-2.06-1.43-3.39.13-.32.32-.61.57-.86.12-.12.26-.23.4-.33-.18-.54-.4-1.07-.68-1.57-.44-.78-1-1.5-1.64-2.13-6.68-6.6-6.74-17.37-.13-24.04,6.6-6.68,17.37-6.74,24.04-.13,6.68,6.6,6.74,17.37.13,24.04-.04.05-.09.09-.13.13-.64.63-1.2,1.35-1.64,2.13-.27.47-.49.97-.66,1.49h0ZM61.38,68.28h-14.08c.44,3.89,3.95,6.68,7.84,6.24,3.28-.37,5.86-2.96,6.24-6.24ZM62.68,65.19h-16.53c-.27,0-.49.22-.49.49s.22.49.49.49h16.54c.27,0,.49-.22.49-.49s-.22-.49-.49-.49h0ZM14.85,77.45l7.95,18.48c1-.34,2.03-.56,3.08-.64,1.4-.1,2.82.02,4.18.37l8.87,2.18c2.84.74,5.86.29,8.35-1.26l29.87-17.97c.85-.73,1.53-1.64,1.97-2.67.13-.3.12-.64-.04-.92-.32-.38-.74-.64-1.21-.77-2.25-.58-4.58-.73-6.88-.45l-19.89,10.57c-.89,2.5-3.22,4.21-5.88,4.29-.09,0-.19,0-.28-.01l-12.82-2.19c-.57-.11-.94-.67-.83-1.24.11-.55.63-.91,1.18-.84l12.72,2.18c2.4-.1,4.26-2.13,4.16-4.52-.07-1.72-1.15-3.23-2.75-3.86l-17.05-4.85c-2.66-.81-5.54-.53-8,.76l-6.72,3.38h0ZM20.84,96.71l-.9.38-4.21-12.26,5.11,11.88ZM3.87,77.8c-1.05.36-1.6,1.5-1.25,2.55l7.57,22.01c.36,1.05,1.5,1.6,2.55,1.25l6.55-2.25c.94-.32,1.51-1.29,1.32-2.27l2.01-.85c2.18-.95,4.63-1.15,6.93-.54l8.87,2.18c3.38.88,6.97.34,9.93-1.5l29.95-18.02c.08-.04.15-.1.22-.16,1.14-.98,2.03-2.22,2.6-3.62.34-.9.24-1.91-.29-2.73-.56-.77-1.36-1.33-2.27-1.6-2.58-.69-5.28-.88-7.93-.55-.16,0-.31.05-.45.12l-18.73,9.96c-.17-2.52-1.78-4.7-4.14-5.61-.03-.01-.06-.02-.09-.03l-17.1-4.86c-3.17-.95-6.59-.62-9.52.9l-7.98,4.01c-.53-.66-1.42-.92-2.22-.65l-6.54,2.25ZM11.01,77.58l7.5,21.82-6.35,2.18-7.5-21.82,6.35-2.18Z"/>
</svg>