<?xml version="1.0" encoding="UTF-8"?>
<svg id="Layer_1" xmlns="http://www.w3.org/2000/svg" version="1.1" viewBox="0 0 512 640">
  <!-- Generator: Adobe Illustrator 29.8.2, SVG Export Plug-In . SVG Version: 2.1.1 Build 3)  -->
  <defs>
    <style>
      .st0 {
        fill-rule: evenodd;
        stroke: #000;
        stroke-miterlimit: 10;
        stroke-width: 2px;
      }
    </style>
  </defs>
  <path class="st0" d="M278.87,105.94c10.51,2.47,20.48,6.62,29.62,12.29l.57-.07,9.28-9.25c3.45-2.97,8.31-2.78,11.25.27h0s20.31,20.3,20.31,20.3c3.17,3.17,3.2,8.35,0,11.55l-9.13,9.25c-.01.1.01.21.07.31,5.67,9.14,9.83,19.12,12.29,29.63l.44.34h12.7c4.5,0,8.17,3.66,8.17,8.17v28.72c0,2.21-.93,4.35-2.41,5.77h0c-1.48,1.48-3.52,2.39-5.76,2.39-1.36,0-12.75-.17-13.05.13-.04.05-.07.12-.09.21-2.48,10.55-6.61,20.44-12.29,29.62l.07.57,9.25,9.28c2.95,3.42,2.81,8.19-.26,11.26l-20.31,20.31c-3.19,3.19-8.36,3.19-11.55,0l-9.25-9.13c-.1-.01-.21.01-.31.07-9.16,5.67-19.1,9.83-29.63,12.29l-.27.15h0s-.08,12.99-.08,12.99c0,2.21-.93,4.35-2.41,5.77h0c-1.48,1.48-3.52,2.4-5.76,2.4h-28.72c-4.5,0-8.17-3.66-8.17-8.17l-.08-13c-.05-.06-.14-.11-.26-.14-10.5-2.46-20.49-6.62-29.62-12.29l-.57.07-8.99,8.99c-3.19,3.19-8.37,3.19-11.55,0l-20.31-20.31c-3.22-3.22-3.15-8.5,0-11.54h0s9.13-9.25,9.13-9.25c.01-.1-.01-.21-.07-.31-5.67-9.14-9.83-19.12-12.29-29.63l-.15-.27h0s-12.98-.07-12.98-.07c-4.5,0-8.17-3.68-8.17-8.17v-28.72c0-2.24.92-4.28,2.4-5.76h0c1.48-1.49,3.52-2.4,5.77-2.4l12.99-.07h0c.07-.06.13-.16.16-.27,2.47-10.52,6.62-20.48,12.29-29.63l-.06-.58h0s-8.99-8.98-8.99-8.98c-3.18-3.18-3.18-8.36,0-11.55l20.3-20.31c3.2-3.2,8.49-3.16,11.54,0h0s9.25,9.13,9.25,9.13c.1.01.21-.01.31-.07,9.18-5.68,19.08-9.82,29.62-12.29l.34-.44v-12.7c0-4.5,3.66-8.17,8.17-8.17h28.72c2.21,0,4.35.93,5.77,2.41h0c1.48,1.48,2.4,3.52,2.4,5.76,0,1.36-.17,12.75.13,13.05.06.04.13.07.22.09h0ZM252.14,447.08v-31.03c0-5.08,7.72-5.08,7.72,0v31.03h172.19c2.13,0,3.86,1.73,3.86,3.86v31.12c0,5.08-7.72,5.08-7.72,0v-27.26H83.81v27.26c0,5.08-7.72,5.08-7.72,0v-31.12c0-2.13,1.73-3.86,3.86-3.86h172.19ZM147,526.43c-5.08,0-5.08-7.72,0-7.72h41.96c5.08,0,5.08,7.72,0,7.72h-41.96ZM323.04,526.43c-5.08,0-5.08-7.72,0-7.72h41.96c5.08,0,5.08,7.72,0,7.72h-41.96ZM390.08,489.78h83.92c9.56,0,17.36,7.81,17.36,17.36v30.87c0,9.56-7.81,17.36-17.36,17.36h-83.92c-9.56,0-17.36-7.81-17.36-17.36v-30.87c0-9.56,7.8-17.36,17.36-17.36h0ZM474.01,497.49h-83.92c-5.3,0-9.65,4.35-9.65,9.65v30.87c0,5.3,4.35,9.65,9.65,9.65h83.92c5.3,0,9.65-4.35,9.65-9.65v-30.87c0-5.3-4.35-9.65-9.65-9.65h0ZM214.04,489.78h83.92c9.56,0,17.36,7.81,17.36,17.36v30.87c0,9.56-7.81,17.36-17.36,17.36h-83.92c-9.56,0-17.36-7.81-17.36-17.36v-30.87c0-9.56,7.81-17.36,17.36-17.36h0ZM297.96,497.49h-83.92c-5.3,0-9.65,4.35-9.65,9.65v30.87c0,5.3,4.35,9.65,9.65,9.65h83.92c5.3,0,9.65-4.35,9.65-9.65v-30.87c0-5.3-4.35-9.65-9.65-9.65h0ZM37.99,489.78h83.92c9.56,0,17.36,7.81,17.36,17.36v30.87c0,9.56-7.81,17.36-17.36,17.36H37.99c-9.56,0-17.36-7.81-17.36-17.36v-30.87c0-9.56,7.81-17.36,17.36-17.36h0ZM121.92,497.49H37.99c-5.3,0-9.65,4.35-9.65,9.65v30.87c0,5.3,4.35,9.65,9.65,9.65h83.92c5.3,0,9.65-4.35,9.65-9.65v-30.87c0-5.3-4.35-9.65-9.65-9.65h0ZM133.51,373.76c-5.08,0-5.08-7.72,0-7.72h77.07c5.08,0,5.08,7.72,0,7.72h-77.07ZM301.42,373.76c-5.08,0-5.08-7.72,0-7.72h77.07c5.08,0,5.08,7.72,0,7.72h-77.07ZM256,352.6c13.09,0,20.33,15.24,12.11,25.38,5.27,1.74,10.06,4.58,14.13,8.35,12.84-20.46-1.85-47.38-26.24-47.38s-39.07,26.92-26.24,47.38c4.06-3.77,8.85-6.61,14.13-8.35-8.21-10.14-.98-25.38,12.11-25.38h0ZM261.56,362.62c3.07,3.07,3.07,8.05,0,11.12-4.94,4.94-13.42,1.43-13.42-5.56s8.48-10.5,13.42-5.56h0ZM277.36,392.3c-11.96,11.41-30.77,11.41-42.73,0,11.97-11.38,30.76-11.38,42.73,0h0ZM256,383.76h0ZM256,331.24c21.36,0,38.67,17.31,38.67,38.67s-17.31,38.67-38.67,38.67-38.67-17.31-38.67-38.67,17.31-38.67,38.67-38.67h0ZM77.03,310.82c0,5.08-7.72,5.08-7.72,0v-107.75c0-2.13,1.73-3.86,3.86-3.86h57.1c5.08,0,5.08,7.72,0,7.72h-53.24v103.89h0ZM381.73,206.93c-5.08,0-5.08-7.72,0-7.72h57.1c2.13,0,3.86,1.73,3.86,3.86v107.75c0,5.08-7.72,5.08-7.72,0v-103.89h-53.24ZM438.83,336.09c17.95,0,27.17,21.88,14.16,34.73,10.52,2.95,19.84,9.12,26.68,17.57,13.34-29.44-8.16-63.31-40.85-63.31s-54.2,33.85-40.85,63.31c6.85-8.45,16.17-14.62,26.68-17.57-13.01-12.85-3.79-34.73,14.16-34.73h0ZM447.69,347.48c4.89,4.89,4.89,12.83,0,17.73-7.87,7.87-21.4,2.27-21.4-8.86s13.52-16.74,21.4-8.86h0ZM475.52,395.66c-17.85-25.39-55.53-25.39-73.38,0,17.86,25.4,55.52,25.4,73.38,0h0ZM438.83,376.59h0ZM438.83,317.36c-29.02,0-52.54,23.52-52.54,52.54s23.52,52.54,52.54,52.54,52.54-23.52,52.54-52.54-23.52-52.54-52.54-52.54h0ZM73.17,336.09c17.95,0,27.17,21.88,14.16,34.73,10.52,2.95,19.84,9.12,26.68,17.57,13.34-29.44-8.16-63.31-40.85-63.31s-54.2,33.85-40.85,63.31c6.85-8.45,16.17-14.62,26.68-17.57-13.01-12.85-3.79-34.73,14.16-34.73h0ZM82.03,347.48c4.89,4.89,4.89,12.83,0,17.73-7.87,7.87-21.4,2.27-21.4-8.86s13.52-16.74,21.4-8.86h0ZM109.86,395.66c-17.85-25.39-55.53-25.39-73.38,0,17.86,25.4,55.52,25.4,73.38,0h0ZM73.17,376.59h0ZM73.17,317.36c-29.02,0-52.54,23.52-52.54,52.54s23.52,52.54,52.54,52.54,52.54-23.52,52.54-52.54c0-29.02-23.52-52.54-52.54-52.54h0ZM255.95,169.26c17.95,0,27.17,21.88,14.16,34.73,10.52,2.95,19.84,9.12,26.68,17.57,13.34-29.44-8.16-63.31-40.85-63.31s-54.19,33.86-40.85,63.31c6.85-8.45,16.17-14.62,26.68-17.57-13.01-12.85-3.79-34.73,14.16-34.73h0ZM264.81,180.65c-7.87-7.87-21.4-2.27-21.4,8.86s13.52,16.74,21.4,8.86c4.89-4.89,4.89-12.83,0-17.73h0ZM292.64,228.83c-17.85-25.39-55.53-25.39-73.38,0,17.86,25.4,55.52,25.4,73.38,0h0ZM255.95,209.76h0ZM255.95,150.53c-29.02,0-52.54,23.52-52.54,52.54s23.52,52.54,52.54,52.54,52.54-23.52,52.54-52.54c0-29.02-23.52-52.54-52.54-52.54h0ZM189.56,175.62l1.43-.5c-6.44,15.03-7.33,31.32-3.31,46.3,10.54,39.33,52.01,61.78,90.6,49.5,4.83-1.54,2.49-8.86-2.32-7.33-34.39,10.94-71.44-9.1-80.84-44.16-3.48-12.98-2.83-27.05,2.46-40.12,1.83,5.23,8.97,2.36,7.34-2.31l-3.37-9.64c-.7-2.01-2.89-3.07-4.9-2.37l-9.64,3.37c-4.78,1.67-2.25,8.93,2.53,7.26h0ZM317.57,239.84l-.31.07c8.14-13.52,11.41-28.96,9.96-43.92-4.95-51.09-60.86-79.98-105.5-55.09-4.43,2.47-.68,9.18,3.74,6.72,22.71-12.66,50.99-10.37,71.36,6.4,24.81,20.43,30.05,55.67,13.49,82.51l-.34-1.52c-1.1-4.94-8.6-3.28-7.51,1.66l2.19,9.83c.46,2.24,2.54,3.56,4.76,3.02l9.81-2.18c4.94-1.1,3.28-8.6-1.66-7.51h0ZM291.22,117.99c-4.52-1.88-9.24-3.4-14.1-4.54-3.69-.87-6.31-4.14-6.31-7.95v-12.7l-.45-.45h-28.72l-.45.45v12.7c0,3.79-2.6,7.08-6.31,7.95-9.69,2.27-18.95,6.13-27.33,11.33-3.25,2.02-7.38,1.53-10.06-1.16l-8.99-8.99h0s-.65,0-.65,0l-20.31,20.31v.64s8.99,8.99,8.99,8.99h0c2.7,2.71,3.18,6.81,1.17,10.07-5.2,8.38-9.05,17.64-11.33,27.33-.44,1.86-1.47,3.43-2.87,4.54h0c-1.37,1.11-3.22,1.77-5.07,1.77h-12.7c-.12,0-.23.05-.32.13h0s-.13.32-.13.32l.07,28.97.38.2h12.7c1.9,0,3.67.65,5.08,1.77h0c1.41,1.13,2.44,2.7,2.87,4.54,2.28,9.69,6.13,18.95,11.33,27.34,2.02,3.25,1.53,7.38-1.16,10.07l-8.99,8.99h0s0,.64,0,.64l20.3,20.31h.64l8.99-8.99c2.69-2.69,6.81-3.18,10.06-1.16,8.38,5.2,17.64,9.05,27.33,11.33,3.69.87,6.31,4.16,6.31,7.95v12.7l.45.45h28.72l.45-.45v-12.7c0-1.9.65-3.67,1.77-5.08h0c1.12-1.4,2.69-2.44,4.53-2.87,9.7-2.28,18.95-6.13,27.34-11.33,3.25-2.02,7.38-1.53,10.07,1.16l8.99,8.99h.64l20.31-20.31v-.64l-8.99-8.99c-2.69-2.69-3.17-6.81-1.16-10.07,5.2-8.39,9.05-17.64,11.33-27.33.87-3.69,4.14-6.31,7.95-6.31h12.7l.45-.45v-28.72l-.45-.45h-12.7c-3.79,0-7.08-2.6-7.95-6.31-2.27-9.69-6.13-18.96-11.33-27.34-2.02-3.25-1.53-7.38,1.16-10.07l8.99-8.99v-.64l-20.31-20.31h0s-.65,0-.65,0l-8.99,8.99c-2.69,2.69-6.81,3.18-10.07,1.16-4.17-2.59-8.59-4.86-13.23-6.78Z"/>
</svg>