<?xml version="1.0" encoding="UTF-8"?>
<svg id="Layer_1" xmlns="http://www.w3.org/2000/svg" version="1.1" viewBox="0 0 110 135">
  <!-- Generator: Adobe Illustrator 29.8.2, SVG Export Plug-In . SVG Version: 2.1.1 Build 3)  -->
  <defs>
    <style>
      .st0 {
        stroke: #000;
        stroke-miterlimit: 10;
        stroke-width: .5px;
      }
    </style>
  </defs>
  <path class="st0" d="M45.83,31.4c0-.69.56-1.25,1.25-1.25h23.14c.69,0,1.25.56,1.25,1.25s-.56,1.25-1.25,1.25h-23.14c-.69,0-1.25-.56-1.25-1.25ZM86.24,71.28v10.5c0,.69-.56,1.25-1.25,1.25h-4v9.6c0,.69-.56,1.25-1.25,1.25h-8.89c-1.39,2.51-6.97,3.67-12.2,3.67-6.03,0-12.53-1.54-12.53-4.92,0-3.15,5.63-4.7,11.28-4.9v-18.4l-5.53-5.53h-13.05v6.35c3.52.69,5.82,4.11,5.13,7.63-.69,3.52-4.11,5.82-7.63,5.13-3.52-.69-5.82-4.11-5.13-7.63.51-2.59,2.54-4.62,5.13-5.13v-7.6c0-.69.56-1.25,1.25-1.25h14.3l5.54-5.54v-7.98h-7.96c-.69,0-1.25-.56-1.25-1.25v-7.07c0-.69.56-1.25,1.25-1.25h18.43c.69,0,1.25.56,1.25,1.25v7.07c0,.69-.56,1.25-1.25,1.25h-7.97v7.98l5.54,5.54h14.3c.69,0,1.25.56,1.25,1.25v7.48h4c.69,0,1.25.56,1.25,1.25h0ZM50.69,45.28h15.93v-4.57h-15.93v4.57ZM37.56,72.53c-2.21,0-4,1.79-4,4s1.79,4,4,4,4-1.79,4-4c0-2.21-1.79-4-4-4ZM54.15,62.55l4.5,4.5,4.5-4.5-4.5-4.5-4.5,4.5ZM68.68,92.62c-.03-.14-.55-.82-2.65-1.46-2.4-.67-4.88-.99-7.38-.95h0c-2.49-.04-4.97.28-7.38.95-2.1.65-2.62,1.33-2.65,1.47.03.14.56.82,2.65,1.46,2.4.67,4.89.99,7.38.95,2.49.04,4.98-.28,7.38-.95,2.09-.65,2.62-1.33,2.65-1.47ZM78.49,83.03h-4c-.69,0-1.25-.56-1.25-1.25v-10.5c0-.69.56-1.25,1.25-1.25h4v-6.23h-13.05l-5.54,5.53v18.4c4.84.17,9.67,1.34,10.95,3.65h7.64v-8.35ZM83.74,72.53h-8v8h8v-8ZM92.09,37.16v66.78c0,.69-.56,1.25-1.25,1.25h-6.05v6.05c0,.69-.56,1.25-1.25,1.25H19.16c-.69,0-1.25-.56-1.25-1.25V31.05c0-.69.56-1.25,1.25-1.25h6.05v-6.05c0-.69.56-1.25,1.25-1.25h51.16s.05.02.05.02c.03,0,.05.01.07.02s.03,0,.05.01l.07.02s.03.01.05.02l.06.03.05.02.06.03.05.03.07.05s.02.02.03.03c.03.03.06.06.09.09l13.41,13.42s.06.06.08.09c.01.01.02.02.03.04s.03.04.04.06.02.03.03.05.02.03.03.05l.03.05s.02.04.03.06.01.04.02.05.01.04.02.06c0,.02.01.04.01.06,0,.02.01.04.02.06s0,.04.01.07,0,.04,0,.06c0,.04,0,.08,0,.12ZM78.68,35.91h9.14l-9.14-9.15v9.15ZM82.29,105.2H26.46c-.69,0-1.25-.56-1.25-1.25V32.3h-4.8v77.7h61.88v-4.8ZM89.59,102.7V38.41h-12.16c-.69,0-1.25-.56-1.25-1.25v-12.16H27.71v77.7h61.88Z"/>
</svg>