<?xml version="1.0" encoding="UTF-8"?>
<svg id="Layer_1" xmlns="http://www.w3.org/2000/svg" version="1.1" viewBox="0 0 32 40">
  <!-- Generator: Adobe Illustrator 29.8.2, SVG Export Plug-In . SVG Version: 2.1.1 Build 3)  -->
  <path d="M23,20.5c.28,0,.5-.22.5-.5V6c0-.28-.22-.5-.5-.5H7c-.13,0-.26.05-.35.15l-4,4c-.09.09-.15.22-.15.35v18c0,.28.22.5.5.5s.5-.22.5-.5V10.5h3.5c.28,0,.5-.22.5-.5v-3.5h15v13.5c0,.28.22.5.5.5ZM4.21,9.5l2.29-2.29v2.29h-2.29Z"/>
  <path d="M17.5,34c0-.28-.22-.5-.5-.5H3.5v-1.5c0-.28-.22-.5-.5-.5s-.5.22-.5.5v2c0,.28.22.5.5.5h14c.28,0,.5-.22.5-.5Z"/>
  <path d="M29.08,26.65l-.7-.21c-.11-.39-.27-.77-.47-1.15l.35-.64c.09-.17.08-.38-.04-.54-.38-.51-.83-.96-1.33-1.33-.16-.12-.37-.13-.54-.04l-.64.35c-.38-.2-.77-.36-1.15-.47l-.21-.7c-.06-.19-.22-.33-.42-.36-.63-.08-1.24-.08-1.87,0-.2.03-.36.17-.42.36l-.21.7c-.38.11-.77.27-1.15.47l-.64-.35c-.17-.09-.38-.08-.54.04-.51.38-.96.83-1.33,1.33-.12.16-.13.37-.04.54l.35.64c-.21.38-.36.77-.47,1.15l-.7.21c-.19.06-.33.22-.36.42-.08.63-.08,1.24,0,1.87.03.2.17.36.36.42l.7.21c.11.39.27.77.47,1.15l-.35.64c-.09.17-.08.38.04.54.38.51.83.96,1.33,1.33.16.12.37.13.54.04l.64-.35c.38.2.77.36,1.15.47l.21.7c.06.19.22.33.42.36.31.04.62.06.93.06s.62-.02.93-.06c.2-.03.36-.17.42-.36l.21-.7c.38-.11.77-.27,1.15-.47l.64.35c.17.09.38.08.54-.04.51-.38.96-.83,1.33-1.33.12-.16.13-.37.04-.54l-.35-.64c.21-.38.36-.77.47-1.15l.7-.21c.19-.06.33-.22.36-.42.08-.63.08-1.24,0-1.87-.03-.2-.17-.36-.36-.42ZM28.48,28.48l-.65.19c-.18.05-.31.19-.35.37-.1.46-.29.93-.57,1.4-.09.15-.09.34,0,.49l.32.6c-.21.25-.44.48-.69.69l-.6-.32c-.15-.08-.34-.08-.49,0-.47.28-.94.47-1.4.57-.18.04-.32.17-.37.35l-.19.65c-.32.03-.65.03-.97,0l-.19-.65c-.05-.17-.19-.31-.37-.35-.46-.1-.93-.29-1.4-.57-.15-.09-.34-.09-.49,0l-.6.32c-.25-.21-.48-.44-.69-.69l.32-.6c.08-.15.08-.34,0-.49-.28-.47-.47-.94-.57-1.4-.04-.18-.17-.32-.35-.37l-.65-.19c-.03-.32-.03-.64,0-.97l.65-.19c.18-.05.31-.19.35-.37.1-.46.29-.93.57-1.4.09-.15.09-.34,0-.49l-.32-.6c.21-.25.44-.48.69-.69l.6.32c.15.08.34.08.49,0,.47-.28.94-.47,1.4-.57.18-.04.32-.17.37-.35l.19-.65c.32-.03.65-.03.97,0l.19.65c.05.17.19.31.37.35.46.1.93.29,1.4.57.15.09.34.09.49,0l.6-.32c.25.21.48.44.69.69l-.32.6c-.08.15-.08.34,0,.49.28.47.47.94.57,1.4.04.18.17.32.35.37l.65.19c.03.32.03.64,0,.97Z"/>
  <path d="M20.53,25.53c-.66.66-1.03,1.54-1.03,2.47s.36,1.81,1.03,2.47c.66.66,1.54,1.03,2.47,1.03s1.81-.36,2.47-1.03c.66-.66,1.03-1.54,1.03-2.47s-.36-1.81-1.03-2.47c-1.32-1.32-3.63-1.32-4.95,0ZM24.77,29.77c-.94.95-2.59.95-3.54,0-.47-.47-.73-1.1-.73-1.77s.26-1.3.73-1.77c.47-.47,1.1-.73,1.77-.73s1.3.26,1.77.73c.47.47.73,1.1.73,1.77s-.26,1.3-.73,1.77Z"/>
  <path d="M16.5,23v-10c0-.28-.22-.5-.5-.5H6c-.28,0-.5.22-.5.5v10c0,.28.22.5.5.5h10c.28,0,.5-.22.5-.5ZM14.79,22.5h-7.59l3.79-3.79,3.79,3.79ZM13.71,20l1.79-1.79v3.59l-1.79-1.79ZM15.5,13.5v3.29l-2.5,2.5-1.65-1.65c-.2-.2-.51-.2-.71,0l-4.15,4.15v-8.29h9Z"/>
  <path d="M9,17.5c.83,0,1.5-.67,1.5-1.5s-.67-1.5-1.5-1.5-1.5.67-1.5,1.5.67,1.5,1.5,1.5ZM9,15.5c.28,0,.5.22.5.5s-.22.5-.5.5-.5-.22-.5-.5.22-.5.5-.5Z"/>
  <path d="M20,12.5h-1c-.28,0-.5.22-.5.5s.22.5.5.5h1c.28,0,.5-.22.5-.5s-.22-.5-.5-.5Z"/>
  <path d="M20,15.5h-1c-.28,0-.5.22-.5.5s.22.5.5.5h1c.28,0,.5-.22.5-.5s-.22-.5-.5-.5Z"/>
  <path d="M20,18.5h-1c-.28,0-.5.22-.5.5s.22.5.5.5h1c.28,0,.5-.22.5-.5s-.22-.5-.5-.5Z"/>
  <path d="M14,25.5H6c-.28,0-.5.22-.5.5s.22.5.5.5h8c.28,0,.5-.22.5-.5s-.22-.5-.5-.5Z"/>
  <path d="M14,28.5H6c-.28,0-.5.22-.5.5s.22.5.5.5h8c.28,0,.5-.22.5-.5s-.22-.5-.5-.5Z"/>
  <circle cx="3" cy="30" r=".5"/>
</svg>