<?xml version="1.0" encoding="UTF-8"?>
<svg id="Layer_1" xmlns="http://www.w3.org/2000/svg" version="1.1" viewBox="0 0 100 125">
  <!-- Generator: Adobe Illustrator 29.8.2, SVG Export Plug-In . SVG Version: 2.1.1 Build 3)  -->
  <path d="M7.76,23.52v77.96c0,3.05,2.47,5.52,5.52,5.52h73.44c3.05,0,5.52-2.47,5.52-5.52V23.52c0-3.05-2.47-5.52-5.52-5.52H13.28c-3.05,0-5.52,2.47-5.52,5.52ZM90.24,23.52v77.96c0,1.94-1.58,3.52-3.52,3.52h-1.97c.82-.99,1.27-2.23,1.27-3.52V23.52c0-1.29-.45-2.53-1.27-3.52h1.97c1.94,0,3.52,1.58,3.52,3.52ZM80.51,20c1.94,0,3.52,1.58,3.52,3.52v77.96c0,1.94-1.58,3.52-3.52,3.52h-1.97c.82-.99,1.27-2.23,1.27-3.52V23.52c0-1.29-.45-2.53-1.27-3.52h1.97ZM74.29,20c1.94,0,3.52,1.58,3.52,3.52v77.96c0,1.94-1.58,3.52-3.52,3.52H13.28c-1.94,0-3.52-1.58-3.52-3.52V23.52c0-1.94,1.58-3.52,3.52-3.52h61.01Z"/>
  <path d="M16.74,23.51c-1.84,0-3.33,1.49-3.33,3.33v40.82c0,1.84,1.49,3.33,3.33,3.33h54.09c1.84,0,3.33-1.49,3.33-3.33V26.84c0-1.84-1.49-3.33-3.33-3.33H16.74ZM15.41,67.65v-2.19l23.13-16.64,28.05,20.16H16.74c-.73,0-1.33-.6-1.33-1.33ZM70.83,68.99h-.82l-14.92-10.72,8.05-5.79,9.01,6.47v8.71c0,.73-.59,1.33-1.33,1.33ZM72.16,26.84v29.65l-8.43-6.05s-.03,0-.04-.02c-.06-.04-.12-.06-.19-.09-.11-.06-.23-.08-.36-.07-.06,0-.13,0-.19,0-.06.02-.12.04-.17.06-.06.02-.13.05-.18.08-.01,0-.03.01-.04.02l-9.17,6.6-14.26-10.26s-.02,0-.03-.01c-.06-.04-.12-.06-.19-.09-.06-.03-.11-.05-.17-.06-.06,0-.11,0-.17,0-.07,0-.14,0-.21,0-.05.01-.1.03-.15.05-.07.02-.15.06-.21.1,0,0-.02,0-.03.01l-22.55,16.22V26.84c0-.73.6-1.33,1.33-1.33h54.09c.73,0,1.33.6,1.33,1.33Z"/>
  <path d="M54.48,34.99c-3.97,0-7.19,3.22-7.2,7.19,0,3.97,3.22,7.19,7.19,7.2s7.19-3.22,7.2-7.19h0c0-3.97-3.22-7.19-7.19-7.2ZM54.48,47.38c-2.87,0-5.19-2.32-5.2-5.19,0-2.87,2.32-5.19,5.19-5.2,2.87,0,5.19,2.32,5.2,5.19h0c0,2.87-2.33,5.19-5.19,5.2Z"/>
  <path d="M14.41,91.56h10.73c.55,0,1-.45,1-1s-.45-1-1-1h-10.73c-.55,0-1,.45-1,1s.45,1,1,1Z"/>
  <path d="M73.16,94.83H14.41c-.55,0-1,.45-1,1s.45,1,1,1h58.75c.55,0,1-.45,1-1s-.45-1-1-1Z"/>
  <path d="M73.16,89.56H30.98c-.55,0-1,.45-1,1s.45,1,1,1h42.18c.55,0,1-.45,1-1s-.45-1-1-1Z"/>
  <path d="M18.65,85.53c2.89,0,5.24-2.34,5.24-5.24,0-2.89-2.34-5.24-5.24-5.24-2.89,0-5.24,2.34-5.24,5.24,0,0,0,0,0,0,0,2.89,2.35,5.23,5.24,5.23ZM18.65,77.06c1.79,0,3.24,1.45,3.24,3.24,0,1.79-1.45,3.24-3.24,3.24s-3.23-1.45-3.24-3.23c0-1.79,1.45-3.24,3.24-3.24Z"/>
  <path d="M37.6,80.3c0-2.89-2.34-5.24-5.24-5.24s-5.24,2.34-5.24,5.24c0,2.89,2.34,5.24,5.24,5.24h0c2.89,0,5.23-2.35,5.24-5.24ZM29.13,80.3c0-1.79,1.45-3.24,3.24-3.24s3.24,1.45,3.24,3.24-1.45,3.24-3.24,3.24h0c-1.79,0-3.23-1.45-3.24-3.24h0Z"/>
  <path d="M51.31,80.3c0-2.89-2.34-5.24-5.24-5.24s-5.24,2.34-5.24,5.24c0,2.89,2.34,5.24,5.24,5.24h0c2.89,0,5.23-2.35,5.24-5.24ZM42.84,80.3c0-1.79,1.45-3.24,3.24-3.24s3.24,1.45,3.24,3.24c0,1.79-1.45,3.24-3.24,3.24h0c-1.79,0-3.23-1.45-3.24-3.24Z"/>
</svg>