<?xml version="1.0" encoding="UTF-8"?>
<svg id="Layer_1" xmlns="http://www.w3.org/2000/svg" version="1.1" viewBox="0 0 110 135">
  <!-- Generator: Adobe Illustrator 29.8.2, SVG Export Plug-In . SVG Version: 2.1.1 Build 3)  -->
  <defs>
    <style>
      .st0 {
        stroke: #000;
        stroke-miterlimit: 10;
        stroke-width: .25px;
      }
    </style>
  </defs>
  <path class="st0" d="M94.7,96.22H15.3c-3.69,0-6.68-3-6.68-6.69V31.22c0-3.69,2.99-6.68,6.68-6.68h79.41c3.69,0,6.68,3,6.68,6.69v58.31c0,3.69-2.99,6.68-6.68,6.69h0ZM15.3,27.46c-2.07,0-3.75,1.68-3.75,3.76v58.31c0,2.07,1.68,3.75,3.75,3.76h79.41c2.07,0,3.75-1.68,3.75-3.75V31.22c0-2.07-1.68-3.75-3.75-3.76H15.3Z"/>
  <path class="st0" d="M40.9,110.46c-.47,0-.91-.23-1.19-.61-.27-.38-.35-.88-.2-1.32l4.82-14.23h0c.11-.39.38-.71.73-.89.36-.19.77-.22,1.15-.09.38.12.69.4.86.77.17.36.18.78.04,1.15l-4.82,14.23c-.2.6-.76,1-1.39,1h0Z"/>
  <path class="st0" d="M69.1,110.46c-.63,0-1.19-.4-1.39-.99l-4.82-14.24c-.14-.37-.12-.78.05-1.14.17-.36.48-.63.86-.76.38-.12.79-.09,1.14.09.35.18.61.5.73.88l4.82,14.23c.15.45.08.94-.2,1.32-.28.38-.72.61-1.2.61h0Z"/>
  <path class="st0" d="M79.68,110.46H30.32c-.81,0-1.46-.66-1.46-1.46s.66-1.46,1.46-1.46h49.35c.81,0,1.46.66,1.46,1.46s-.66,1.46-1.46,1.46Z"/>
  <path class="st0" d="M57.76,90.46h-5.53c-1.38,0-2.5-1.12-2.51-2.51v-1.79l-.08-.04-1.55.89h0c-1.2.69-2.73.28-3.43-.92l-2.76-4.79c-.69-1.2-.28-2.73.92-3.43l1.55-.9v-.09l-1.55-.9h0c-1.2-.69-1.61-2.22-.92-3.42l2.77-4.79c.69-1.2,2.22-1.61,3.42-.92l1.55.9.08-.05v-1.8c0-1.38,1.12-2.5,2.51-2.51h5.53c1.38,0,2.51,1.12,2.51,2.51v1.79l.08.05,1.55-.9c1.2-.69,2.73-.28,3.43.92l2.76,4.78c.69,1.2.28,2.73-.91,3.43l-1.55.9v.09l1.55.9h0c1.2.69,1.61,2.22.91,3.42l-2.77,4.79h0c-.69,1.2-2.22,1.61-3.42.91l-1.55-.89-.08.04v1.79c0,.66-.26,1.3-.73,1.78-.47.47-1.11.73-1.78.74h0ZM52.66,87.53h4.69v-2.27c0-.57.34-1.09.86-1.33.44-.2.86-.45,1.26-.73.47-.33,1.09-.36,1.58-.07l1.95,1.13,2.34-4.05-1.95-1.13c-.5-.29-.78-.84-.73-1.41.02-.24.04-.49.04-.73s-.01-.49-.04-.73h0c-.05-.57.23-1.12.73-1.41l1.95-1.13-2.34-4.05-1.95,1.13h0c-.5.29-1.11.26-1.58-.07-.39-.29-.82-.53-1.26-.73h0c-.52-.24-.86-.76-.86-1.33v-2.26h-4.69v2.26h0c0,.57-.33,1.09-.85,1.33h0c-.45.2-.87.45-1.26.73-.47.33-1.09.36-1.58.08l-1.95-1.13-2.34,4.05,1.95,1.13h0c.5.28.78.83.73,1.4-.02.24-.04.49-.04.73s.01.48.04.73h0c.05.57-.23,1.13-.73,1.41l-1.95,1.13,2.34,4.05,1.95-1.13c.5-.29,1.12-.26,1.59.08.39.28.82.52,1.26.73.52.24.85.76.85,1.33v2.27Z"/>
  <path class="st0" d="M55,82.28c-2.16,0-4.1-1.3-4.93-3.29-.82-1.99-.37-4.29,1.15-5.81,1.53-1.53,3.82-1.98,5.81-1.16,1.99.82,3.29,2.77,3.29,4.93,0,2.94-2.39,5.32-5.33,5.33ZM55,74.55c-.97,0-1.85.58-2.22,1.48-.37.89-.17,1.93.52,2.62.69.68,1.72.89,2.62.52.9-.38,1.48-1.25,1.48-2.22,0-1.32-1.07-2.4-2.4-2.4h0Z"/>
  <path class="st0" d="M63.4,69.5c-.49,0-.95-.25-1.22-.66s-.32-.94-.12-1.39c.75-1.66,1.59-3.29,2.52-4.86,1.66-2.93,3.09-5.47,3.09-8.78,0-6.98-5.66-12.65-12.65-12.65s-12.65,5.66-12.65,12.65c0,3.32,1.43,5.84,3.08,8.78h0c.93,1.57,1.76,3.2,2.52,4.86h0c.32.74-.02,1.6-.76,1.93-.74.32-1.61-.02-1.93-.76-.71-1.57-1.5-3.1-2.38-4.59-1.78-3.16-3.46-6.14-3.46-10.22h0c0-5.57,2.97-10.71,7.79-13.49,4.82-2.79,10.76-2.79,15.58,0,4.82,2.78,7.79,7.93,7.79,13.49,0,4.08-1.68,7.06-3.46,10.22h0c-.87,1.49-1.67,3.03-2.38,4.6-.23.54-.77.88-1.35.88h0Z"/>
  <path class="st0" d="M55,36.81c-.81,0-1.46-.66-1.46-1.47v-3.59c0-.81.66-1.46,1.46-1.46s1.46.66,1.46,1.46v3.59c0,.39-.16.76-.43,1.04-.27.27-.65.43-1.04.43h0Z"/>
  <path class="st0" d="M43.19,39.93c-.52,0-1.01-.28-1.27-.73l-1.79-3.1h0c-.41-.7-.16-1.6.54-2.01.7-.4,1.59-.16,2,.54l1.79,3.1c.2.34.25.74.14,1.11-.1.38-.34.7-.68.89-.22.13-.48.2-.73.2h0Z"/>
  <path class="st0" d="M34.53,48.53c-.26,0-.51-.06-.73-.2l-3.1-1.79c-.7-.41-.94-1.3-.54-2,.41-.7,1.3-.95,2-.54l3.11,1.79c.57.33.86,1.01.68,1.65s-.75,1.09-1.42,1.08h0Z"/>
  <path class="st0" d="M75.39,48.67c-.66,0-1.25-.45-1.42-1.09-.17-.64.11-1.32.68-1.65l3.1-1.79h0c.7-.41,1.59-.16,2,.54.41.7.16,1.6-.54,2l-3.1,1.79c-.22.13-.47.2-.73.2h0Z"/>
  <path class="st0" d="M66.78,40c-.25,0-.51-.06-.73-.2h0c-.34-.19-.58-.51-.68-.89-.1-.38-.05-.78.15-1.11l1.79-3.1c.2-.34.52-.59.89-.68.38-.1.77-.05,1.11.14.7.41.95,1.3.54,2l-1.79,3.1h0c-.27.46-.75.73-1.27.73h0Z"/>
  <path class="st0" d="M31.31,59.52h-12.38c-.81,0-1.46-.66-1.46-1.46s.66-1.46,1.46-1.46h12.38c.81,0,1.46.66,1.46,1.46s-.66,1.46-1.46,1.46Z"/>
  <path class="st0" d="M35.3,66.8h-16.37c-.81,0-1.46-.66-1.46-1.46s.66-1.46,1.46-1.46h16.38,0c.81,0,1.47.66,1.47,1.46s-.66,1.46-1.47,1.46h0Z"/>
  <path class="st0" d="M27.87,74.09h-8.94c-.81,0-1.46-.65-1.46-1.46s.66-1.47,1.46-1.47h8.95,0c.81,0,1.47.66,1.47,1.47s-.66,1.46-1.47,1.46Z"/>
  <path class="st0" d="M33.52,81.38h-14.59c-.81,0-1.46-.66-1.46-1.47s.66-1.46,1.46-1.46h14.59c.81,0,1.46.65,1.46,1.46s-.66,1.47-1.46,1.47Z"/>
  <path class="st0" d="M31.31,88.66h-12.38c-.81,0-1.46-.65-1.46-1.46s.66-1.47,1.46-1.47h12.38c.81,0,1.46.66,1.46,1.47s-.66,1.46-1.46,1.46Z"/>
  <path class="st0" d="M91.07,59.52h-12.38c-.81,0-1.46-.66-1.46-1.46s.66-1.46,1.46-1.46h12.38c.81,0,1.46.66,1.46,1.46s-.66,1.46-1.46,1.46Z"/>
  <path class="st0" d="M91.07,66.8h-16.37c-.81,0-1.47-.66-1.47-1.46s.66-1.46,1.47-1.46h16.37c.81,0,1.46.66,1.46,1.46s-.66,1.46-1.46,1.46Z"/>
  <path class="st0" d="M91.07,74.09h-8.94c-.81,0-1.47-.65-1.47-1.46s.66-1.47,1.47-1.47h8.94c.81,0,1.46.66,1.46,1.47s-.66,1.46-1.46,1.46Z"/>
  <path class="st0" d="M91.07,81.38h-14.59c-.81,0-1.46-.66-1.46-1.47s.66-1.46,1.46-1.46h14.59c.81,0,1.46.65,1.46,1.46s-.66,1.47-1.46,1.47Z"/>
  <path class="st0" d="M91.07,88.66h-12.38c-.81,0-1.46-.65-1.46-1.46s.66-1.47,1.46-1.47h12.38c.81,0,1.46.66,1.46,1.47s-.66,1.46-1.46,1.46Z"/>
</svg>