<?xml version="1.0" encoding="UTF-8"?>
<svg id="Layer_1" xmlns="http://www.w3.org/2000/svg" version="1.1" viewBox="0 0 110 135">
  <!-- Generator: Adobe Illustrator 29.8.2, SVG Export Plug-In . SVG Version: 2.1.1 Build 3)  -->
  <defs>
    <style>
      .st0 {
        fill-rule: evenodd;
        stroke: #000;
        stroke-miterlimit: 10;
        stroke-width: .25px;
      }
    </style>
  </defs>
  <path class="st0" d="M43.61,81.96c.43.43.43,1.14,0,1.57-.22.22-.5.33-.79.33s-.57-.11-.79-.33l-3.55-3.55c-.69-.69-.8-1.78-.25-2.59l1.21-1.8-1.5-3.62-2.13-.42c-.96-.19-1.65-1.03-1.65-2.01v-5.03c0-.97.69-1.82,1.65-2.01l2.13-.42,1.5-3.62-1.21-1.8c-.54-.81-.44-1.9.25-2.59l3.55-3.55c.69-.69,1.78-.8,2.59-.25l1.8,1.21,3.62-1.5.42-2.13c.19-.96,1.03-1.65,2.01-1.65h5.03c.98,0,1.82.69,2.01,1.65l.42,2.13,3.62,1.5,1.8-1.21c.81-.54,1.9-.44,2.59.25l3.56,3.56c.69.69.8,1.78.25,2.59l-1.21,1.8,1.5,3.62,2.12.42c.96.19,1.65,1.03,1.65,2.01v5.03c0,.97-.69,1.82-1.65,2.01l-2.13.42-1.1,2.66c-.23.57-.88.84-1.45.6-.57-.23-.84-.89-.6-1.45l1.33-3.2c.14-.34.45-.59.81-.66l2.57-.51v-4.74l-2.57-.51c-.36-.07-.67-.32-.81-.66l-1.96-4.72c-.14-.34-.1-.74.1-1.04l1.46-2.18-3.35-3.35-2.18,1.46c-.31.21-.7.25-1.04.1l-4.72-1.95c-.34-.14-.59-.45-.67-.81l-.51-2.57h-4.74l-.51,2.57c-.07.36-.32.67-.66.81l-4.72,1.95c-.34.14-.74.1-1.04-.1l-2.18-1.46-3.35,3.35,1.46,2.18c.21.31.25.7.1,1.04l-1.95,4.72c-.14.34-.45.59-.81.66l-2.57.51v4.74l2.57.51c.36.07.67.32.81.66l1.95,4.72c.14.34.1.74-.1,1.04l-1.45,2.15,3.45,3.46ZM62.97,73.34c.52.33,1.21.17,1.53-.35,1.12-1.78,1.71-3.85,1.71-5.96,0-6.19-5.04-11.22-11.22-11.22s-11.22,5.03-11.22,11.22c0,2.55.84,4.96,2.42,6.96.22.28.54.42.87.42.24,0,.49-.08.69-.24.48-.38.56-1.08.18-1.56-1.28-1.61-1.95-3.54-1.95-5.59,0-4.96,4.04-9,9-9s9,4.04,9,9c0,1.7-.47,3.35-1.37,4.78-.33.53-.17,1.21.35,1.54h0ZM72.97,79.98v13.15c0,1.73-.58,4.43-1.66,6.72.71.35,1.2,1.08,1.2,1.93v3.56c0,1.19-.97,2.16-2.16,2.16h-17.87c-1.19,0-2.16-.96-2.16-2.16v-3.56c0-.69.33-1.31.84-1.7-.24-.79-.7-1.48-1.35-2.08l-2.31-2.1c-1.5-1.36-2.29-3.15-2.29-5.18v-9.43c0-2.26,1.84-4.1,4.11-4.1.68,0,1.32.16,1.88.46v-10.51c0-2.09,1.7-3.79,3.79-3.79s3.79,1.7,3.79,3.79v7.94c.41-.17.87-.26,1.34-.26,1.19,0,2.25.58,2.89,1.48.55-.36,1.21-.58,1.92-.58.92,0,1.79.36,2.45,1.02.12.13.24.26.34.4.54-.36,1.18-.55,1.84-.55,1.89-.01,3.41,1.52,3.41,3.39h0ZM70.28,101.84h-17.73v3.44h17.74v-3.44s0,0,0,0ZM70.75,79.98c0-.64-.53-1.17-1.17-1.17-.31,0-.6.12-.83.34-.22.22-.35.52-.34.83,0,.61-.5,1.11-1.11,1.11s-1.11-.5-1.11-1.11v-.79c0-.33-.13-.64-.36-.88-.24-.24-.55-.37-.88-.37-.69,0-1.24.56-1.24,1.24,0,.61-.5,1.11-1.11,1.11s-1.11-.5-1.11-1.11v-.8c0-.74-.6-1.34-1.34-1.34s-1.34.6-1.34,1.34c0,.61-.5,1.11-1.11,1.11s-1.11-.5-1.11-1.11v-11.23c0-.87-.72-1.57-1.58-1.57s-1.57.71-1.57,1.57v19.29c0,.61-.5,1.11-1.11,1.11s-1.11-.5-1.11-1.11v-5.14c0-1.04-.84-1.88-1.88-1.88s-1.88.84-1.88,1.88v9.43c0,1.4.53,2.59,1.56,3.53l2.31,2.1c1.02.92,1.7,2.02,2.04,3.27h15.58c1.14-2.03,1.82-4.81,1.82-6.49v-13.15h-.03ZM94,76.14c.28,1.04.14,2.12-.4,3.05-.74,1.29-2.1,2.01-3.49,2.01-.68,0-1.37-.18-2.01-.54-.29-.17-.55-.37-.78-.59l-5.42,3.13c-.25.14-.54.19-.82.12l-6.32-1.55c-.35-.09-.64-.34-.77-.68s-.08-.72.12-1.02c2.63-3.85,4.02-8.36,4.02-13.04,0-12.76-10.38-23.14-23.14-23.14-12.76,0-23.14,10.37-23.14,23.13,0,6.97,3.1,13.51,8.5,17.93.48.39.55,1.09.16,1.56-.22.27-.54.41-.86.41-.25,0-.5-.08-.7-.25-2.5-2.05-4.55-4.5-6.08-7.24l-3.12,3.26v5.81c1.01.29,1.85.95,2.37,1.86,1.11,1.92.45,4.39-1.47,5.5-.63.36-1.32.54-2.01.54-1.39,0-2.75-.72-3.49-2.01-1.11-1.92-.45-4.39,1.47-5.5.29-.17.59-.29.9-.38v-6.25c0-.29.11-.56.31-.77l3.98-4.15c-1.42-3.2-2.18-6.7-2.18-10.3v-.32l-4.34,1.26-2.91,5.03c.7.72,1.13,1.71,1.13,2.79,0,2.22-1.81,4.02-4.02,4.02s-4.02-1.81-4.02-4.02,1.81-4.03,4.02-4.03c.34,0,.66.04.97.12l3.13-5.42c.14-.25.38-.43.65-.51l5.53-1.61c.39-3.73,1.6-7.21,3.43-10.28l-4.39-1.08-5.03,2.91c.24.98.12,2.04-.42,2.98-.74,1.29-2.1,2.01-3.49,2.01-.68,0-1.37-.17-2.01-.54-1.92-1.11-2.58-3.58-1.47-5.5,1.11-1.92,3.58-2.58,5.5-1.47.29.17.55.37.78.59l5.42-3.13c.25-.14.54-.19.82-.12l5.6,1.37c2.15-2.94,4.91-5.4,8.1-7.19l-3.27-3.13h-5.81c-.28.97-.91,1.83-1.85,2.37-.63.36-1.32.54-2.01.54-1.39,0-2.75-.72-3.49-2.01-.54-.93-.68-2.02-.4-3.05.28-1.04.94-1.91,1.88-2.44.93-.54,2.02-.68,3.05-.4,1.04.28,1.91.94,2.44,1.88.17.29.29.59.38.9h6.25c.29,0,.56.11.77.31l4.16,3.98c3.15-1.4,6.63-2.18,10.29-2.18h.32l-1.26-4.34-5.03-2.91c-.72.7-1.71,1.13-2.79,1.13-2.22,0-4.02-1.8-4.02-4.02s1.8-4.02,4.02-4.02,4.02,1.81,4.02,4.02c0,.33-.04.66-.12.97l5.42,3.13c.25.14.43.38.51.65l1.61,5.53c3.73.39,7.21,1.6,10.28,3.43l1.08-4.4-2.91-5.03c-.32.08-.65.12-.98.12-.68,0-1.37-.17-2.01-.54-1.92-1.11-2.58-3.58-1.47-5.5.54-.93,1.4-1.6,2.44-1.88,1.04-.28,2.12-.14,3.05.4,1.92,1.11,2.58,3.58,1.47,5.5-.17.29-.37.55-.59.78l3.13,5.42c.14.25.18.54.12.82l-1.37,5.6c2.94,2.15,5.4,4.91,7.19,8.1l3.13-3.27v-5.81c-.97-.28-1.83-.91-2.37-1.85-.54-.93-.68-2.02-.4-3.05.28-1.04.94-1.91,1.87-2.44.93-.54,2.02-.68,3.05-.4,1.04.28,1.91.94,2.44,1.88.54.93.68,2.02.4,3.05-.28,1.04-.94,1.91-1.87,2.44-.29.17-.59.29-.9.38v6.25c0,.29-.11.56-.31.77l-3.98,4.16c1.4,3.15,2.18,6.63,2.18,10.29v.32l4.34-1.26,2.91-5.03c-.7-.72-1.13-1.71-1.13-2.79,0-2.22,1.8-4.02,4.02-4.02s4.03,1.8,4.03,4.02-1.81,4.02-4.03,4.02c-.34,0-.66-.04-.97-.12l-3.13,5.42c-.14.25-.38.43-.65.51l-5.53,1.61c-.38,3.64-1.54,7.14-3.42,10.29l4.38,1.07,5.03-2.91c-.24-.98-.12-2.04.42-2.98.54-.93,1.41-1.6,2.44-1.88,1.04-.28,2.12-.13,3.05.4.94.54,1.61,1.41,1.88,2.44h0ZM88.69,58.26c0,.99.81,1.8,1.8,1.8s1.8-.81,1.8-1.8-.81-1.8-1.8-1.8-1.8.81-1.8,1.8ZM80.89,43.42c.47.12.95.06,1.37-.18.42-.24.71-.63.84-1.09.12-.47.06-.95-.18-1.37-.24-.42-.63-.72-1.09-.84-.16-.04-.31-.06-.47-.06-.31,0-.62.08-.9.24-.42.24-.71.63-.84,1.09-.12.46-.06.95.18,1.37.23.42.62.72,1.09.84h0ZM66.05,30.34c-.86-.5-1.96-.2-2.46.66s-.2,1.96.66,2.46c.42.24.9.3,1.37.18.46-.12.85-.42,1.09-.84.5-.86.2-1.97-.66-2.46ZM48.03,31.52c0-.99-.81-1.8-1.8-1.8s-1.8.81-1.8,1.8.81,1.8,1.8,1.8c.99,0,1.8-.8,1.8-1.8ZM31.21,39.76c-.24-.42-.63-.72-1.09-.84-.16-.04-.31-.06-.47-.06-.31,0-.62.08-.9.24-.86.5-1.16,1.6-.66,2.46.24.42.63.72,1.09.84.47.12.95.06,1.37-.18.42-.24.72-.63.84-1.09.12-.47.06-.95-.18-1.37ZM20.76,55.3c-.42-.24-.9-.3-1.37-.18-.47.12-.85.42-1.09.84-.24.42-.3.9-.18,1.37.12.47.42.85.84,1.09.86.5,1.96.2,2.46-.66.5-.85.2-1.96-.66-2.46h0ZM21.29,75.78c0-.99-.81-1.8-1.8-1.8s-1.8.81-1.8,1.8.81,1.8,1.8,1.8,1.8-.81,1.8-1.8ZM29.09,90.62c-.16-.04-.31-.06-.47-.06-.31,0-.62.08-.9.24-.42.24-.71.63-.84,1.1-.12.46-.06.95.18,1.37s.63.72,1.09.84c.46.12.95.06,1.37-.18.86-.5,1.16-1.6.66-2.46-.23-.43-.62-.73-1.09-.85h0ZM91.86,76.71c-.13-.46-.42-.85-.84-1.09-.28-.16-.59-.24-.9-.24-.16,0-.31.02-.47.06-.46.13-.85.42-1.09.84-.5.86-.2,1.96.66,2.46s1.96.2,2.46-.66c.23-.42.29-.91.18-1.37h0Z"/>
</svg>