<?xml version="1.0" encoding="UTF-8"?>
<svg id="Layer_1" xmlns="http://www.w3.org/2000/svg" version="1.1" viewBox="0 0 110 135">
  <!-- Generator: Adobe Illustrator 29.8.2, SVG Export Plug-In . SVG Version: 2.1.1 Build 3)  -->
  <defs>
    <style>
      .st0 {
        stroke: #000;
        stroke-miterlimit: 10;
        stroke-width: .5px;
      }
    </style>
  </defs>
  <path class="st0" d="M68.26,55.17l-7.39-4.27c-.69-.39-1.51-.39-2.2.01-.68.4-1.09,1.11-1.09,1.9v8.52c0,.79.41,1.5,1.09,1.9.34.2.73.3,1.11.3s.75-.1,1.1-.29l7.38-4.27c.69-.39,1.11-1.11,1.11-1.91s-.41-1.51-1.1-1.9h0ZM67.22,57.17s0,0,0,0l-7.37,4.26s-.07.04-.12,0c-.06-.04-.06-.08-.06-.1v-8.52s0-.07.06-.1c.02-.01.04-.02.06-.02.03,0,.05.01.05.01l7.39,4.27s.05.03.05.09c0,.07-.04.09-.05.09h0ZM87.59,68.23v-4.43c0-.57-.46-1.04-1.04-1.04h-17.25c-.29,0-.56.12-.75.32-1.67,1.75-3.9,2.72-6.3,2.72-.07,0-.13,0-.28-.01-4.74-.14-8.45-3.98-8.45-8.72,0-2.68,1.21-5.17,3.31-6.83,1.54-1.22,3.47-1.89,5.43-1.89,2.4,0,4.63.96,6.3,2.72.2.21.47.32.75.32h17.25c.57,0,1.04-.46,1.04-1.04v-4.43c1.23-.43,2.12-1.6,2.12-2.97,0-1.75-1.42-3.16-3.16-3.16s-3.16,1.42-3.16,3.16c0,1.38.89,2.54,2.12,2.98v3.39h-8.51c-.21-.39-.42-.79-.66-1.16l2.5-2.5c.41-.41.41-1.07,0-1.47l-3.64-3.65c-3.73-5.22-9.37-9.03-15.51-10.47-7.54-1.75-15.67,0-21.77,4.69-1.63,1.25-3.17,2.83-4.49,4.57-4.64.59-9.01,2.35-12.65,5.13-6.12,4.71-9.32,11.99-8.15,18.54.15.83.36,1.68.57,2.5.62,2.48,1.21,4.82.1,6.66-.45.76-.98,1.5-1.53,2.27-.54.75-1.09,1.53-1.57,2.33l-.11.17c-.86,1.41-2.03,3.33-.88,5.08,1.02,1.57,2.76,1.59,4.3,1.35.14,1.25.32,2.58.66,3.86.14.52.64.85,1.18.77.11-.02.25-.02.41-.02-.13.14-.27.29-.39.43-.41.43-.55,1.03-.4,1.6.15.57.59,1.01,1.15,1.18l.59.17s.05.02.08.02c-.57,1.27-.5,2.88.32,4.14.93,1.45,2.67,2.41,4.66,2.56.22.02.43.02.65.02,1.46,0,2.88-.36,4.21-.76,1.2-.37,2.39-.79,3.55-1.25,1.22,2.96,2.44,5.93,3.66,8.88.16.4.55.64.96.64.09,0,.17-.01.25-.03l22.85-5.76c.34-.09.62-.34.73-.67.11-.33.05-.7-.16-.98-.67-.87-1.22-1.82-1.66-2.85l18.27-3.96c.35-.07.64-.32.76-.66s.07-.71-.15-.99c-2.18-2.82-3.14-6.59-2.57-10.1.35-2.16,1.23-4.18,2.15-6.06l3.55-3.56c.41-.41.41-1.07,0-1.47l-2.51-2.51c.25-.39.46-.77.66-1.16h8.51v3.38c-1.23.43-2.12,1.6-2.12,2.98,0,1.75,1.42,3.16,3.16,3.16s3.16-1.42,3.16-3.16c0-1.38-.89-2.54-2.12-2.97h0ZM86.54,41.86c.6,0,1.08.48,1.08,1.08s-.48,1.07-1.06,1.08c0,0,0,0-.01,0,0,0-.01,0-.02,0-.59,0-1.07-.49-1.07-1.08s.48-1.08,1.08-1.08h0ZM26.04,95.34c-1.32.4-2.73.75-4.1.65-1.32-.1-2.5-.71-3.06-1.61-.57-.89-.45-2.18.27-2.75.29-.23.43-.6.38-.96-.05-.37-.29-.68-.64-.82-.51-.21-1.05-.36-1.57-.51.06-.07.13-.14.19-.21.46-.49.93-.99,1.37-1.54.27-.34.3-.8.09-1.18-.22-.37-.64-.58-1.07-.5-.27.04-.77.02-1.21,0-.23-.01-.46-.02-.68-.03-.26-1.25-.4-2.57-.52-3.75v-.11c-.04-.29-.2-.55-.43-.73-.24-.17-.53-.24-.82-.18-2.11.42-2.88.37-3.28-.25-.4-.61.15-1.61.91-2.85l.11-.18c.45-.74.95-1.45,1.49-2.2.55-.78,1.13-1.58,1.62-2.41,1.55-2.58.8-5.59.14-8.24-.21-.82-.4-1.6-.54-2.36-1.04-5.8,1.86-12.28,7.37-16.52,2.86-2.18,6.21-3.68,9.79-4.41-2.37,4.02-3.34,8.36-2.66,12.18.15.83.36,1.68.56,2.5.62,2.48,1.2,4.82.11,6.65-.46.77-.98,1.5-1.54,2.28-.54.75-1.09,1.53-1.59,2.34l-.13.22c-.84,1.39-1.98,3.29-.84,5.03,1.04,1.57,2.77,1.58,4.31,1.35.13,1.21.32,2.56.67,3.87.14.52.64.85,1.17.76.11-.02.25-.02.41-.02l-.41.44c-.4.44-.54,1.04-.38,1.61.16.57.59,1,1.15,1.17.21.06.41.12.62.18.01,0,.03,0,.04.01-.56,1.27-.48,2.86.32,4.14.93,1.45,2.68,2.4,4.66,2.55.18.02.36.02.54.02-3.93,2.83-8.24,4.98-12.84,6.38h0ZM35.43,103.35c-1.11-2.68-2.21-5.38-3.32-8.07,2.99-1.35,5.84-3.02,8.5-5,.46-.34.56-1,.21-1.46,0-.01-.02-.02-.03-.03.84-.15,1.64-.36,2.38-.59,1.2-.37,2.39-.79,3.55-1.25l1.33,3.22c.78,1.89,1.56,3.78,2.34,5.67.16.4.55.64.96.64.07,0,.15,0,.22-.02l3.21-.7c.33.83.7,1.64,1.17,2.39l-20.53,5.18h0ZM71.08,79.28c-.57,3.54.2,7.31,2.07,10.38l-17.93,3.89h0l-3.22.7c-.67-1.62-1.34-3.24-2.01-4.86l-1.34-3.24c3-1.35,5.85-3.02,8.51-5,.46-.34.56-1,.21-1.46-.34-.46-1-.56-1.46-.21-4.04,3-8.53,5.27-13.35,6.73-1.24.39-2.7.76-4.07.65-1.32-.1-2.5-.72-3.07-1.6-.57-.9-.45-2.19.27-2.76.29-.23.43-.6.38-.96-.05-.37-.3-.68-.64-.82-.5-.2-1.04-.35-1.55-.5h0s.13-.14.13-.14c.48-.51.98-1.04,1.45-1.62.27-.34.3-.8.09-1.18-.21-.37-.65-.58-1.07-.5-.28.05-.76.02-1.21,0-.23-.01-.46-.02-.68-.03-.28-1.33-.42-2.71-.53-3.85-.03-.29-.18-.56-.41-.73-.24-.18-.54-.25-.82-.18-2.12.42-2.88.36-3.29-.25-.39-.59.14-1.58.88-2.8l.13-.22c.45-.74.96-1.46,1.5-2.21.55-.77,1.12-1.57,1.63-2.41,1.54-2.58.79-5.58.13-8.23-.2-.82-.4-1.59-.53-2.36-.7-3.91.61-8.51,3.6-12.61,1.26-1.73,2.76-3.29,4.35-4.5,5.61-4.31,13.1-5.92,20.03-4.31,5.41,1.26,10.38,4.54,13.82,9.04l-1.86,1.86c-1.62-1.03-3.39-1.77-5.29-2.19v-3.55c0-.57-.46-1.04-1.04-1.04h-5.21c-.57,0-1.04.46-1.04,1.04v3.55c-1.89.42-3.66,1.15-5.28,2.19l-2.5-2.5c-.39-.39-1.08-.39-1.47,0l-3.69,3.69c-.2.2-.3.46-.3.74s.11.54.3.74l2.51,2.51c-1.04,1.64-1.77,3.41-2.19,5.28h-3.55c-.57,0-1.04.46-1.04,1.04v5.21c0,.57.46,1.04,1.04,1.04h3.55c.42,1.88,1.15,3.64,2.19,5.28l-2.51,2.51c-.41.41-.41,1.07,0,1.47l3.69,3.69c.2.2.46.3.74.3s.54-.11.74-.3l2.5-2.5c1.62,1.03,3.39,1.77,5.28,2.19v3.55c0,.57.46,1.04,1.04,1.04h5.21c.57,0,1.04-.46,1.04-1.04v-3.55c1.89-.42,3.66-1.15,5.29-2.19l2,1.99c-.89,1.88-1.73,3.89-2.09,6.12v-.02ZM76.63,69.25l-2.21,2.21-2.39-2.38c-.36-.36-.93-.41-1.34-.11-1.8,1.28-3.83,2.12-6.02,2.49-.5.09-.87.52-.87,1.03v3.37h-3.13v-3.37c0-.51-.37-.94-.87-1.03-2.2-.37-4.22-1.21-6.02-2.49-.41-.3-.98-.25-1.34.11l-2.38,2.38-2.21-2.22,2.38-2.38c.36-.36.41-.92.11-1.34-1.29-1.82-2.13-3.85-2.5-6.03-.09-.5-.52-.87-1.03-.87h-3.36v-3.13h3.36c.51,0,.94-.37,1.03-.87.37-2.18,1.21-4.21,2.5-6.03.29-.41.24-.98-.11-1.34l-2.38-2.38,2.21-2.21,2.38,2.38c.36.36.93.41,1.34.11,1.8-1.28,3.83-2.12,6.02-2.49.5-.09.87-.52.87-1.03v-3.36h3.13v3.36c0,.51.37.94.87,1.03,2.2.37,4.22,1.21,6.02,2.5.41.29.98.25,1.34-.11l2.39-2.38,2.21,2.21-2.38,2.38c-.36.36-.41.93-.11,1.34.16.23.32.46.46.69h-4.87c-2.02-1.96-4.67-3.04-7.49-3.04-2.43,0-4.81.83-6.72,2.34-2.61,2.06-4.1,5.14-4.1,8.46,0,5.88,4.6,10.62,10.39,10.8.14.02.29.02.43.02,2.82,0,5.46-1.08,7.49-3.04h4.87c-.14.23-.3.46-.46.7-.29.41-.24.98.11,1.34l2.38,2.38h0ZM86.54,72.29c-.6,0-1.08-.48-1.08-1.08s.48-1.07,1.06-1.08c0,0,.02,0,.02,0s.01,0,.02,0c.59.01,1.06.49,1.06,1.07s-.48,1.08-1.08,1.08h0ZM98.11,60c-1.35,0-2.5.86-2.95,2.05h-4.07l-3.8-3.8c-.2-.2-.46-.3-.74-.3h-14.4c-.57,0-1.04.46-1.04,1.04s.46,1.04,1.04,1.04h13.97l3.8,3.8c.2.2.46.3.74.3h4.46c.41,1.27,1.59,2.19,2.99,2.19,1.75,0,3.16-1.42,3.16-3.16s-1.42-3.16-3.16-3.16h0ZM98.11,64.24c-.6,0-1.08-.48-1.08-1.08s.48-1.08,1.08-1.08,1.08.48,1.08,1.08-.48,1.08-1.08,1.08ZM72.13,54.14c-.57,0-1.04.46-1.04,1.04s.46,1.04,1.04,1.04h14.4c.28,0,.54-.11.74-.3l3.8-3.8h4.07c.45,1.2,1.6,2.05,2.95,2.05,1.75,0,3.16-1.42,3.16-3.16s-1.42-3.16-3.16-3.16c-1.4,0-2.58.92-2.99,2.19h-4.46c-.28,0-.54.11-.74.3l-3.8,3.8h-13.97,0ZM98.11,49.92c.6,0,1.08.48,1.08,1.08s-.48,1.08-1.08,1.08-1.08-.48-1.08-1.08.48-1.08,1.08-1.08Z"/>
</svg>