<?xml version="1.0" encoding="UTF-8"?>
<svg id="Layer_1" xmlns="http://www.w3.org/2000/svg" version="1.1" viewBox="0 0 110 135">
  <!-- Generator: Adobe Illustrator 29.8.2, SVG Export Plug-In . SVG Version: 2.1.1 Build 3)  -->
  <defs>
    <style>
      .st0 {
        fill-rule: evenodd;
      }
    </style>
  </defs>
  <path class="st0" d="M76.81,104.92v-2.06c0-.49.2-.96.54-1.3.35-.35.82-.54,1.3-.54h3.06l3.46-17.58h0c-.4-.41-.75-.87-1.04-1.37l-.04-.07c-.57-1.01-.88-2.14-.88-3.3l-8.48-19.91c-.81-.34-1.49-.93-1.95-1.68-.04-.06-.08-.12-.11-.18-.15-.28-.27-.57-.35-.87h-9.37c-.3.01-.59-.1-.81-.31-.21-.21-.34-.5-.34-.8s.12-.59.34-.8c.22-.21.51-.32.81-.31h9.36c.28-1.03.95-1.91,1.86-2.45.05-.04.1-.07.16-.09,1.99-1.09,4.48-.39,5.62,1.57.02.02.03.05.04.07.43.77.6,1.66.49,2.54l13.01,17.29c1.02.6,1.87,1.45,2.46,2.48.02.02.02.05.04.07h0c1.46,2.59,1.08,5.82-.95,8l1.44,17.71h.56c.49,0,.96.2,1.31.54.03.03.06.06.08.09.29.34.46.77.45,1.21v2.06h1.62c1.02,0,1.85.82,1.85,1.84v3.8c0,1.02-.83,1.85-1.85,1.85h-25.33c-1.02,0-1.85-.83-1.85-1.85v-3.8c0-1.02.83-1.85,1.85-1.85h1.62ZM19.51,77.78s-.06.04-.09.05h0c-.43.28-.57.85-.32,1.3.27.46.86.62,1.32.35.22-.13.38-.34.45-.59.06-.23.04-.46-.06-.68-.02-.04-.04-.07-.06-.11-.27-.41-.81-.56-1.25-.34h0ZM18.44,75.84h0c1.49-.8,3.34-.3,4.22,1.14.04.06.08.12.11.2.78,1.47.29,3.29-1.12,4.17-.06.04-.12.08-.19.11-1.48.79-3.31.31-4.2-1.11-.05-.07-.09-.14-.12-.22-.78-1.48-.28-3.31,1.14-4.19.05-.04.11-.07.16-.09h0ZM89.61,77.78h0s-.06.04-.09.05c-.43.29-.56.85-.31,1.3.27.46.86.62,1.32.35.44-.26.61-.8.39-1.26-.02-.04-.04-.07-.06-.11-.27-.41-.81-.56-1.25-.34h0ZM88.54,75.84h0c-.06.03-.12.06-.17.1-1.43.88-1.93,2.71-1.14,4.19.04.08.08.15.13.22.89,1.42,2.73,1.9,4.2,1.11.07-.04.13-.07.19-.12,1.41-.88,1.89-2.7,1.12-4.17-.03-.07-.06-.13-.11-.2-.88-1.43-2.73-1.93-4.21-1.13h0ZM56.57,32.4c-.29-.07-.54-.24-.7-.49s-.21-.55-.14-.84c.07-.29.25-.54.5-.69s.55-.2.84-.14c3.41.8,6.05,3.49,6.8,6.91.12.59-.26,1.17-.85,1.29-.59.13-1.18-.24-1.32-.83-.56-2.58-2.56-4.61-5.14-5.21h0ZM61.67,40.74c.14-.59.75-.96,1.34-.81s.96.75.81,1.34c-.82,3.33-3.45,5.92-6.79,6.69-.59.12-1.16-.25-1.3-.84-.13-.58.22-1.17.8-1.32,2.52-.58,4.51-2.54,5.13-5.05h0ZM53.46,45.79h0c.58.15.94.74.8,1.32-.13.58-.71.96-1.3.84-3.34-.77-5.96-3.36-6.79-6.69-.15-.59.21-1.19.81-1.34.59-.14,1.2.22,1.34.81.62,2.52,2.61,4.47,5.13,5.05h0ZM48.29,37.62h0c-.14.59-.72.96-1.31.83-.59-.13-.97-.7-.86-1.3.75-3.42,3.4-6.11,6.81-6.91.29-.07.59-.02.84.13.25.16.43.41.5.69.07.29.02.59-.14.84s-.41.43-.7.49c-2.57.61-4.57,2.64-5.14,5.22h0ZM56.71,27.44l-.39-2.64h-2.63l-.4,2.69h0c-.06.45-.4.82-.84.92-1.13.27-2.21.72-3.2,1.33-.41.25-.94.21-1.31-.11l-2.12-1.57-1.86,1.86,1.62,2.18h0c.28.38.29.89.03,1.28-.6.98-1.04,2.05-1.3,3.16-.11.46-.5.8-.96.85l-2.64.39v2.63l2.69.4c.45.07.82.4.92.84.27,1.13.71,2.21,1.33,3.2.25.41.21.94-.11,1.31l-1.57,2.12,1.86,1.86,2.18-1.62c.38-.28.89-.29,1.28-.03.98.6,2.05,1.04,3.16,1.3.46.11.8.5.85.96l.39,2.64h2.63l.4-2.69h0c.07-.45.4-.81.84-.92.56-.13,1.11-.31,1.65-.53.54-.22,1.05-.49,1.55-.79.41-.25.94-.21,1.31.11l2.11,1.57,1.86-1.86-1.62-2.18c-.28-.38-.29-.89-.03-1.28.59-.98,1.04-2.04,1.3-3.16.11-.46.5-.8.97-.85l2.64-.39v-2.63l-2.69-.4c-.45-.07-.82-.4-.92-.84-.27-1.13-.71-2.21-1.32-3.2-.25-.41-.21-.94.11-1.31l1.57-2.12-1.86-1.86-2.18,1.62h0c-.36.27-.85.29-1.24.05-.99-.61-2.07-1.06-3.2-1.32-.46-.11-.8-.5-.85-.97h0ZM58.39,23.7c-.1-.64-.65-1.12-1.3-1.12h-4.18c-.65,0-1.2.48-1.3,1.12l-.41,2.75c-.43.12-.84.27-1.25.45-.41.17-.82.36-1.21.57l-2.23-1.65c-.52-.39-1.25-.34-1.71.12l-2.96,2.95c-.46.46-.52,1.19-.12,1.71l1.65,2.23h0c-.21.39-.4.79-.57,1.2s-.32.83-.45,1.25l-2.74.41h0c-.64.1-1.12.65-1.12,1.3v4.19c0,.65.48,1.2,1.12,1.3l2.74.41c.13.43.28.84.45,1.25.17.41.36.81.57,1.2l-1.65,2.23c-.39.52-.34,1.25.12,1.71l2.96,2.96h0c.46.46,1.19.52,1.71.12l2.23-1.65h0c.39.21.79.4,1.21.57.41.17.83.32,1.25.45l.41,2.74h0c.1.64.65,1.12,1.3,1.13h4.19c.65,0,1.2-.48,1.3-1.12l.41-2.74c.85-.25,1.67-.6,2.46-1.02l2.23,1.65c.25.19.56.28.88.26.32-.02.62-.16.84-.38l2.96-2.96c.46-.46.52-1.19.12-1.71l-1.65-2.23h0c.21-.39.4-.79.57-1.2.17-.41.32-.83.45-1.25l2.74-.41c.64-.1,1.12-.65,1.12-1.3v-4.19c0-.65-.48-1.2-1.12-1.3l-2.74-.41c-.13-.42-.28-.84-.45-1.25-.17-.41-.36-.81-.57-1.2l1.65-2.23c.19-.25.28-.56.26-.88-.02-.32-.16-.62-.38-.84l-2.96-2.96c-.23-.22-.52-.36-.84-.38-.32-.02-.62.07-.88.25l-2.22,1.65c-.39-.21-.79-.4-1.21-.57-.41-.17-.82-.32-1.25-.44l-.41-2.74h0ZM29.74,83.16c-.76,0-1.41.54-1.56,1.28-.15.74.25,1.49.95,1.78.7.29,1.51.05,1.93-.59.42-.63.34-1.47-.2-2-.3-.3-.7-.46-1.12-.46h0ZM27.04,82.05c-.83.83-1.23,2-1.08,3.16.14,1.16.81,2.2,1.82,2.8,1,.6,2.23.71,3.32.29s1.93-1.32,2.28-2.44h5.27v3.64h-2.53c-.61,0-1.11.5-1.11,1.11v2.56c0,.68.5,1.25,1.17,1.35l3.52.53c.16.57.36,1.12.59,1.66.22.54.48,1.07.77,1.59l-2.12,2.86h0c-.2.26-.29.59-.27.91,0,.02,0,.05,0,.07.04.3.18.58.39.79l3.63,3.63s.09.09.15.12c.48.36,1.14.36,1.62,0l2.86-2.12c1.03.57,2.12,1.03,3.25,1.35l.53,3.52h0c.1.67.67,1.16,1.35,1.17h5.13c.68,0,1.25-.5,1.35-1.16l.53-3.52c1.13-.33,2.22-.79,3.25-1.35l2.86,2.12h0c.26.2.58.29.91.27.32-.03.63-.16.86-.39l3.63-3.63h0s.08-.09.12-.14c.37-.48.38-1.15.01-1.64l-2.12-2.86h0c.29-.52.54-1.05.77-1.59.22-.54.42-1.1.59-1.66l3.52-.53c.67-.1,1.16-.67,1.16-1.35v-2.55c0-.61-.5-1.11-1.11-1.11h-2.54v-3.64h5.27c.55,1.8,2.34,2.93,4.2,2.65,1.86-.28,3.24-1.88,3.24-3.76s-1.38-3.49-3.24-3.77c-1.87-.28-3.65.85-4.2,2.65h-5.84c-.44,0-.86.18-1.17.49-.31.31-.48.73-.48,1.17v4.21h-2.53c-.3,0-.58.12-.79.32-.21.21-.32.49-.32.79,0,5.79-4.7,10.48-10.48,10.48s-10.48-4.7-10.48-10.48c0-.29-.12-.57-.32-.79-.21-.21-.49-.32-.79-.32h-2.53v-4.21c0-.91-.74-1.65-1.65-1.65h-5.84c-.39-1.28-1.43-2.26-2.72-2.59-1.3-.32-2.67.06-3.61,1h0ZM40.11,75.75c-.76,0-1.41.54-1.56,1.28-.15.74.25,1.49.95,1.78.7.29,1.51.04,1.93-.59s.34-1.47-.2-2c-.3-.3-.7-.47-1.12-.47h0ZM37.42,74.65c-1.29,1.28-1.49,3.3-.48,4.81,1.01,1.52,2.94,2.11,4.62,1.41l3.15,3.84v5.9c0,5.68,4.61,10.29,10.29,10.29s10.29-4.61,10.29-10.29v-5.89l3.15-3.85c1.74.72,3.75.05,4.72-1.57.96-1.62.6-3.71-.86-4.9-1.46-1.2-3.57-1.14-4.97.12-1.4,1.27-1.66,3.37-.61,4.94l-3.28,4c-.24.29-.38.66-.38,1.05v4.98h-2.37v-6.57c0-.3-.11-.59-.31-.81-.21-.21-.5-.34-.8-.34s-.59.12-.8.34c-.21.22-.32.51-.31.81v6.57h-2.37v-9.98c1.94-.55,3.18-2.46,2.9-4.46-.28-2-1.99-3.49-4.01-3.49s-3.73,1.49-4.01,3.49c-.28,2,.96,3.9,2.9,4.46v9.98h-2.36v-6.57c0-.3-.11-.59-.31-.81-.21-.21-.5-.34-.8-.34s-.59.12-.8.34c-.21.22-.32.51-.31.81v6.57h-2.37v-4.98c0-.19-.03-.38-.09-.55-.07-.18-.16-.34-.28-.49l-3.28-4c1.11-1.63.79-3.84-.73-5.09-1.52-1.25-3.75-1.13-5.13.27h0ZM81.39,83.62h0c-.54-.54-1.38-.62-2-.2-.63.42-.88,1.23-.59,1.93.29.7,1.04,1.1,1.78.95.74-.15,1.28-.8,1.28-1.55,0-.42-.16-.83-.46-1.12h0ZM71.01,76.22h0c-.54-.54-1.38-.62-2-.2-.63.42-.88,1.23-.59,1.93.29.7,1.03,1.1,1.78.95.74-.15,1.28-.8,1.28-1.56,0-.42-.17-.82-.47-1.12h0ZM56.3,74.32c.62.62.71,1.59.23,2.32-.48.73-1.42,1.01-2.23.67-.81-.33-1.27-1.19-1.1-2.05.17-.86.93-1.48,1.8-1.48.49,0,.95.19,1.3.54h0ZM37.23,91.71v.72l3.51.53h0c.45.06.81.39.92.84.34,1.41.9,2.75,1.66,3.98.25.41.21.94-.11,1.31l-2.06,2.79,2.59,2.59,2.84-2.12c.38-.28.89-.29,1.28-.03,1.23.75,2.56,1.3,3.95,1.63.46.11.8.5.85.96l.52,3.46h3.66l.52-3.51c.07-.45.4-.81.84-.92,1.41-.34,2.76-.89,3.99-1.66.41-.25.94-.21,1.31.11l2.78,2.06,2.59-2.59-2.11-2.85c-.28-.38-.29-.89-.03-1.28.75-1.22,1.3-2.56,1.62-3.95.11-.46.5-.8.97-.85l3.46-.52v-.71h-5.11c-.58,6.56-6.07,11.59-12.66,11.59s-12.08-5.03-12.66-11.59h-5.11ZM62.99,91.71h-15.98c.56,3.99,3.97,6.95,7.99,6.95s7.43-2.96,7.99-6.95h0ZM34.44,107.14v3.06H9.85v-3.06h24.59ZM9.48,104.92h1.62v-2.06c0-.45.16-.88.46-1.21.03-.04.05-.07.09-.09.35-.35.82-.54,1.31-.54h.56l1.44-17.71c-2.02-2.17-2.41-5.38-.97-7.97.03-.06.06-.12.09-.17.59-1,1.43-1.82,2.42-2.41l13-17.29c-.11-.86.05-1.73.47-2.5.04-.07.07-.14.12-.21,1.16-1.88,3.58-2.53,5.53-1.48.06.03.12.06.18.11.91.55,1.57,1.43,1.86,2.45h9.36c.3,0,.59.11.81.31.21.21.34.5.34.8s-.12.59-.34.8c-.22.21-.51.32-.81.31h-9.36c-.09.34-.23.67-.41.97-.45.79-1.15,1.41-1.99,1.76l-8.48,19.91c0,1.16-.31,2.29-.88,3.3l-.04.07h0c-.29.5-.64.95-1.04,1.37l3.46,17.58h3.05c.49,0,.96.2,1.3.54.35.34.54.81.54,1.3v2.06h1.62,0c.49,0,.97.19,1.32.54.35.35.55.82.55,1.31v3.8c0,1.02-.83,1.85-1.85,1.85H9.48c-1.02,0-1.84-.83-1.85-1.85v-3.81c0-1.02.83-1.85,1.85-1.85h0ZM13.32,104.92v-1.68h17.65v1.68H13.32ZM17.05,84.83c1.46.68,3.11.83,4.66.41.38-.11.76-.24,1.12-.41l3.18,16.18h-10.28l1.32-16.18ZM30.55,57.74l-10.58,14.07c1.16,0,2.29.3,3.3.86.06.02.12.06.17.09,1,.59,1.84,1.43,2.42,2.44l6.9-16.2h0c-.42-.09-.82-.25-1.2-.46-.38-.21-.71-.48-1-.8h0ZM34.57,53.22h0c-.93-.5-2.09-.17-2.62.74-.54.93-.22,2.12.71,2.66h0,0c.45.27.99.35,1.5.21.5-.13.94-.46,1.2-.91s.33-.99.19-1.5c-.14-.5-.47-.93-.93-1.19l-.05-.03h0ZM22.2,74.62l.05.03c2.19,1.27,2.95,4.05,1.72,6.25-.01.02-.02.04-.03.05-1.27,2.19-4.07,2.95-6.27,1.7-2.2-1.25-2.98-4.05-1.75-6.26l.03-.05c1.26-2.18,4.04-2.95,6.25-1.72h0ZM96.68,104.92v-1.68h-17.65v1.68h17.65ZM100.15,107.14h-24.59s0,3.06,0,3.06h24.59v-3.06h0ZM92.95,84.83h0c-1.46.68-3.11.83-4.66.41-.38-.1-.76-.24-1.12-.41l-3.19,16.18h10.29l-1.32-16.18h0ZM90.03,71.82l-10.58-14.07c-.29.32-.63.59-1,.8-.37.21-.78.37-1.2.46l6.89,16.2h0c.6-1.03,1.46-1.89,2.49-2.48.02-.02.05-.02.07-.04h0c1.02-.57,2.16-.88,3.33-.88h0ZM76.88,53.05h0c-.5-.13-1.03-.07-1.48.2-.91.52-1.24,1.67-.76,2.6.03.04.05.08.07.12.55.87,1.68,1.18,2.58.69l.13-.07c.86-.55,1.15-1.68.67-2.58l-.03-.04c-.26-.45-.68-.78-1.19-.91h0ZM91.24,74.19c-1.16-.32-2.4-.16-3.45.43l-.05.03h0c-2.19,1.27-2.95,4.05-1.72,6.25.01.02.02.04.03.05,1.27,2.21,4.09,2.96,6.3,1.69h.01c2.18-1.27,2.94-4.05,1.71-6.25l-.03-.05c-.61-1.06-1.62-1.84-2.8-2.15h0Z"/>
</svg>