<?xml version="1.0" encoding="UTF-8"?>
<svg id="Layer_1" xmlns="http://www.w3.org/2000/svg" version="1.1" viewBox="0 0 110 135">
  <!-- Generator: Adobe Illustrator 29.8.2, SVG Export Plug-In . SVG Version: 2.1.1 Build 3)  -->
  <defs>
    <style>
      .st0 {
        fill-rule: evenodd;
      }
    </style>
  </defs>
  <path class="st0" d="M39.3,67.03h6.54c.45,0,.88.18,1.2.5h0c.32.32.5.76.5,1.21v3.39h0c1.48.41,2.9,1,4.24,1.75l2.39-2.39c.67-.66,1.75-.66,2.41,0l4.62,4.62s.06.06.09.1c.58.68.54,1.69-.09,2.32l-2.4,2.39c.38.66.71,1.36,1.01,2.06.29.71.54,1.44.75,2.18h3.39,0c.45,0,.89.18,1.21.5.32.32.5.75.5,1.2v2.16h6.88,0c.48,0,.95.2,1.29.54h0c.34.35.53.81.54,1.3v13.85c2.07.56,3.41,2.56,3.12,4.69s-2.09,3.71-4.23,3.71-3.96-1.59-4.24-3.71,1.05-4.13,3.12-4.69v-13.46h-6.5v2.16h0c0,.45-.18.88-.5,1.2h0c-.32.32-.75.5-1.2.5h-3.38c-.41,1.48-1,2.9-1.76,4.24l2.4,2.4s.06.07.09.1c.58.68.54,1.68-.09,2.31l-4.62,4.62c-.32.32-.75.5-1.2.5s-.88-.18-1.2-.5l-2.4-2.39c-1.33.76-2.76,1.35-4.24,1.75v3.39c0,.45-.18.88-.5,1.2h0c-.32.32-.75.5-1.2.5h-6.54c-.45,0-.88-.18-1.2-.5h0s0,0,0,0c-.32-.32-.49-.75-.49-1.2v-3.38c-.74-.2-1.46-.45-2.17-.75-.71-.3-1.4-.63-2.07-1.01l-2.4,2.39c-.32.32-.75.5-1.2.5s-.89-.18-1.21-.5l-4.62-4.62h0s-.07-.07-.09-.11c-.57-.67-.54-1.68.09-2.3l2.39-2.39c-.23-.4-.44-.81-.64-1.23h-7.06c-.56,2.07-2.56,3.41-4.69,3.13-2.13-.28-3.71-2.09-3.71-4.24s1.59-3.96,3.71-4.24c2.12-.28,4.13,1.06,4.69,3.13h6.18c-.09-.26-.16-.52-.23-.79h-3.39c-.45,0-.89-.18-1.21-.5-.03-.03-.06-.07-.09-.11-.26-.3-.41-.7-.41-1.1v-2.16h-6.85c-1.02,0-1.84-.82-1.84-1.84v-17.83c-2.07-.56-3.41-2.56-3.12-4.69.28-2.12,2.09-3.71,4.23-3.71s3.96,1.59,4.24,3.71-1.05,4.13-3.12,4.69v17.44h6.47v-2.16c0-.45.18-.88.5-1.2.32-.32.75-.5,1.2-.5h3.39c.2-.74.45-1.46.75-2.17.29-.71.63-1.4,1.01-2.06l-2.39-2.39s-.07-.07-.09-.11c-.57-.68-.54-1.68.09-2.3l4.62-4.62c.66-.66,1.74-.66,2.41,0l2.39,2.39c1.33-.76,2.76-1.35,4.24-1.75v-3.39c0-.45.18-.89.5-1.21.03-.03.07-.06.11-.09.3-.26.7-.4,1.1-.4h0ZM98.15,90.93h0c-1.05,0-2.06.41-2.82,1.14l-3.97-2.29v-4.45l.18-.09,1.66,1.67c.29.29.69.46,1.11.46s.81-.16,1.11-.46l3.5-3.5h0c.57-.57.61-1.48.1-2.1-.03-.04-.06-.07-.1-.11l-1.67-1.67c.25-.46.48-.93.68-1.41.2-.48.37-.98.52-1.48h2.36c.41,0,.81-.16,1.1-.45.29-.29.46-.69.46-1.1v-4.95c0-.41-.16-.82-.45-1.11-.29-.3-.7-.46-1.11-.46h-2.36c-.29-1-.7-1.97-1.2-2.89l1.67-1.67c.29-.29.46-.69.46-1.1s-.16-.81-.46-1.1l-3.5-3.5c-.29-.29-.69-.46-1.11-.46s-.81.16-1.11.46l-1.67,1.67h0c-.92-.5-1.89-.91-2.89-1.2v-2.36c0-.41-.16-.81-.46-1.11-.29-.29-.69-.46-1.1-.46h-4.95,0c-.36,0-.71.13-.99.36-.04.03-.08.07-.12.11-.29.29-.46.69-.46,1.1v2.36c-1,.29-1.98.7-2.89,1.2l-1.67-1.67h0c-.29-.29-.69-.46-1.1-.46s-.81.16-1.1.46l-3.5,3.5c-.57.57-.61,1.48-.1,2.09.03.04.06.07.1.11l1.67,1.67h0c-.25.46-.48.93-.68,1.42-.2.48-.37.97-.52,1.47h-2.36c-.41,0-.81.16-1.1.45-.29.29-.46.69-.46,1.11v4.95h0c0,.36.12.7.36.98.03.04.07.08.11.11.29.29.69.46,1.1.45h2.36c.29,1.01.7,1.98,1.2,2.89l-1.67,1.69c-.29.29-.46.69-.46,1.1s.16.81.46,1.1l3.5,3.5c.57.57,1.48.61,2.09.1.04-.03.07-.06.11-.1l1.67-1.67c.46.25.93.48,1.41.68.48.2.97.37,1.48.52v2.36c0,.41.16.81.45,1.1.29.29.69.46,1.1.46h1.37v5.86c-1.94.55-3.17,2.45-2.89,4.45.28,2,1.98,3.48,4,3.48s3.72-1.48,4-3.48c.28-2-.95-3.89-2.89-4.45v-5.86h1.37c.36,0,.71-.13.98-.36.04-.04.08-.07.12-.11.29-.29.45-.69.45-1.11v-2.36c.17-.05.33-.1.5-.15v3.72h0c0,.65.36,1.25.92,1.58l4.17,2.41h0c-.43,1.67.26,3.43,1.71,4.37,1.45.95,3.33.87,4.7-.2s1.9-2.87,1.34-4.5c-.56-1.63-2.1-2.73-3.83-2.73h.01ZM99.44,93.68h0c.61.61.71,1.58.23,2.3s-1.41,1-2.21.67c-.8-.33-1.26-1.19-1.09-2.04.17-.85.92-1.47,1.79-1.47.48,0,.95.19,1.29.54h0ZM74.71,107.37h0c-.7-.7-1.78-.8-2.6-.26-.82.55-1.13,1.59-.76,2.5s1.34,1.42,2.3,1.23c.96-.19,1.66-1.04,1.66-2.02,0-.55-.21-1.07-.6-1.45h0ZM85.9,98.81h0c.61.61.71,1.58.22,2.3-.48.72-1.41,1-2.21.67-.8-.33-1.26-1.19-1.09-2.04s.92-1.46,1.79-1.46c.48,0,.95.19,1.29.54h0ZM13.36,65.98c-.69-.7-1.78-.8-2.59-.26-.82.55-1.13,1.59-.76,2.5s1.34,1.42,2.3,1.23c.96-.19,1.66-1.04,1.66-2.02,0-.55-.22-1.07-.61-1.45h0ZM15.95,95.53c-.69-.7-1.78-.8-2.59-.26-.82.55-1.13,1.59-.76,2.5s1.34,1.42,2.3,1.23c.96-.19,1.66-1.04,1.66-2.02,0-.55-.22-1.07-.61-1.45h0ZM17.08,35.07h0c-.61,0-1.11-.5-1.11-1.11s.5-1.11,1.11-1.11h5.11v-2.03c0-1.53,1.24-2.76,2.76-2.76h2.03v-5.11c0-.3.11-.59.32-.81.21-.21.5-.34.8-.34s.59.12.8.34c.21.21.32.51.31.81v5.11h3.26v-5.11c0-.3.11-.59.31-.81.21-.21.5-.34.8-.34s.59.12.8.34c.21.21.32.51.32.81v5.11h3.26v-5.11c0-.61.5-1.11,1.11-1.11s1.11.5,1.11,1.11v5.11h3.25v-5.11c0-.61.5-1.11,1.11-1.11s1.11.5,1.11,1.11v5.11h2.04c1.52,0,2.76,1.24,2.76,2.76v2.03h5.11c.61,0,1.11.5,1.11,1.11s-.5,1.11-1.11,1.11h-5.11v3.26h5.11c.61,0,1.11.5,1.11,1.11s-.5,1.11-1.11,1.11h-5.11v3.26h5.11c.61,0,1.11.5,1.11,1.11s-.5,1.11-1.11,1.11h-5.11v3.26h5.11c.3,0,.59.11.81.31.21.21.34.5.34.8s-.12.59-.34.8c-.21.21-.51.32-.81.31h-5.11v2.04c0,1.52-1.24,2.76-2.76,2.76h-2.03v5.11c0,.61-.5,1.11-1.11,1.11s-1.11-.5-1.11-1.11v-5.11h-3.26v5.11c0,.61-.5,1.11-1.11,1.11s-1.11-.5-1.11-1.11v-5.11h-3.25v5.11c.01.3-.1.59-.31.81-.21.21-.5.34-.8.34s-.59-.12-.8-.34c-.21-.21-.32-.51-.31-.81v-5.11h-3.25v5.11c0,.3-.11.59-.31.81-.21.21-.5.34-.8.34s-.59-.12-.8-.34c-.21-.21-.32-.51-.31-.81v-5.11h-2.04c-1.52,0-2.76-1.24-2.76-2.76v-2.04h-5.11c-.3.01-.59-.1-.81-.31-.21-.21-.34-.5-.34-.8s.12-.59.34-.8c.21-.21.51-.32.81-.31h5.11v-3.26h-5.11c-.61,0-1.11-.5-1.11-1.11s.5-1.11,1.11-1.11h5.11v-3.26h-5.11c-.61,0-1.11-.5-1.11-1.11s.5-1.11,1.11-1.11h5.11v-3.25h-5.11ZM27.22,31.15c-.47,0-.92.17-1.27.48-.04.03-.07.05-.1.09-.36.36-.57.86-.57,1.37v18.18c0,.51.2,1,.57,1.37.36.36.86.57,1.37.57h18.18c1.07,0,1.93-.87,1.94-1.93v-18.18c0-1.07-.87-1.93-1.94-1.93h-18.18ZM45.12,33.37h-17.61v17.61h17.61v-17.61ZM47.67,30.27h-22.72c-.3,0-.54.24-.54.54v22.72c0,.3.25.54.54.54h22.72c.3,0,.54-.25.54-.54v-22.72c0-.3-.24-.54-.54-.54ZM64.69,39.59h0c-.38.02-.73.22-.92.55l-7.94,13.68c-.2.35-.2.78,0,1.13.21.34.59.55.99.54l5.49-.22-5.94,12c-.24.48-.09,1.07.34,1.39.44.31,1.04.27,1.42-.11l19.07-18.77c.36-.3.49-.79.32-1.23-.16-.44-.57-.73-1.04-.73h-7.16l4.4-7.25c.23-.36.24-.81.02-1.18-.22-.36-.62-.57-1.05-.54l-8.03.73ZM70.74,41.26l-4.31,7.1h0c-.21.34-.21.77-.02,1.12.2.35.56.56.96.56h6.41l-12.51,12.32,3.86-7.79h0c.18-.36.15-.78-.07-1.11-.22-.33-.61-.52-1-.48l-5.3.21,6.65-11.44,5.34-.48h0ZM84.61,63.32c-4.43,0-8.24,3.13-9.1,7.47s1.46,8.69,5.55,10.39c4.09,1.7,8.81.26,11.27-3.42,2.46-3.68,1.98-8.59-1.16-11.72-1.74-1.74-4.1-2.72-6.57-2.72h0ZM89.61,67.61c2.38,2.38,2.75,6.12.88,8.92-1.87,2.8-5.46,3.89-8.57,2.6s-4.88-4.6-4.23-7.9c.66-3.3,3.56-5.69,6.93-5.69,1.88,0,3.68.74,5,2.07h0ZM86.43,57.08h-3.63v2.56h0c0,.52-.36.96-.86,1.08-1.34.3-2.62.83-3.79,1.57-.44.3-1.04.25-1.41-.13l-1.81-1.81-2.57,2.57,1.81,1.81h0c.36.36.43.93.16,1.36-.73,1.16-1.26,2.43-1.57,3.75-.08.54-.55.95-1.1.95h-2.57v3.62h2.56c.52,0,.96.36,1.08.86.3,1.34.83,2.62,1.57,3.79.3.44.25,1.04-.13,1.42l-1.81,1.81,2.57,2.56,1.81-1.81c.36-.36.93-.43,1.37-.15,1.15.73,2.42,1.26,3.75,1.57.54.08.95.55.95,1.1v2.56h3.62v-2.54c0-.52.36-.97.87-1.08,1.34-.3,2.62-.83,3.79-1.57.44-.3,1.04-.25,1.41.13l1.81,1.81,2.56-2.56-1.81-1.81h0c-.36-.37-.43-.93-.16-1.37.73-1.15,1.26-2.42,1.57-3.75.08-.54.55-.95,1.1-.95h2.56v-3.63h-2.56c-.52,0-.96-.36-1.08-.86-.3-1.34-.84-2.62-1.57-3.79-.3-.44-.25-1.04.13-1.41l1.81-1.81-2.56-2.57-1.79,1.8c-.36.36-.93.43-1.37.15-1.16-.73-2.42-1.26-3.75-1.57-.54-.08-.95-.55-.95-1.1v-2.56h0ZM42.57,78.21c-5.68,0-10.57,4.01-11.68,9.58-1.11,5.57,1.87,11.15,7.12,13.32,5.25,2.17,11.3.34,14.45-4.39,3.16-4.72,2.54-11.02-1.48-15.03-2.23-2.23-5.26-3.49-8.42-3.48h0ZM49.42,83.27c-3.27-3.27-8.39-3.77-12.23-1.2-3.84,2.57-5.33,7.49-3.56,11.76,1.77,4.27,6.31,6.69,10.84,5.79,4.53-.91,7.79-4.88,7.79-9.5,0-2.57-1.02-5.04-2.84-6.85h0ZM45.32,69.25h-5.5v3.73c0,.52-.36.96-.86,1.08-1.82.41-3.55,1.12-5.13,2.12-.44.3-1.04.25-1.42-.12l-2.64-2.64-3.89,3.89,2.64,2.64c.36.36.43.93.16,1.37-.99,1.57-1.71,3.29-2.13,5.09-.08.55-.55.95-1.1.95h-3.73v5.5h3.73c.52,0,.96.36,1.08.86.41,1.82,1.13,3.55,2.12,5.13.3.44.25,1.04-.12,1.42l-2.64,2.64,3.89,3.89,2.64-2.64c.36-.36.93-.43,1.37-.16,1.57.99,3.29,1.71,5.09,2.13.54.08.95.55.95,1.1v3.73h5.5v-3.73c0-.52.36-.97.86-1.08,1.82-.41,3.56-1.13,5.14-2.12.44-.3,1.04-.25,1.42.13l2.64,2.64,3.89-3.89-2.64-2.63c-.36-.37-.43-.93-.16-1.37.5-.79.94-1.63,1.3-2.5.35-.84.62-1.71.83-2.59.08-.55.55-.95,1.1-.95h3.73v-5.51h-3.73c-.52,0-.97-.36-1.08-.86-.41-1.82-1.13-3.55-2.12-5.13-.3-.44-.25-1.04.13-1.42l2.64-2.64-3.89-3.89-2.64,2.64c-.37.36-.93.43-1.37.16-.8-.5-1.63-.94-2.5-1.3-.84-.35-1.71-.63-2.59-.83-.54-.08-.95-.55-.95-1.1v-3.73Z"/>
</svg>