<?xml version="1.0" encoding="UTF-8"?>
<svg id="Layer_1" xmlns="http://www.w3.org/2000/svg" version="1.1" viewBox="0 0 96 120">
  <!-- Generator: Adobe Illustrator 29.8.2, SVG Export Plug-In . SVG Version: 2.1.1 Build 3)  -->
  <defs>
    <style>
      .st0 {
        stroke: #000;
        stroke-miterlimit: 10;
        stroke-width: .75px;
      }
    </style>
  </defs>
  <path class="st0" d="M23.15,72.8c.4.24.89.22,1.27-.05.38-.26.56-.73.48-1.18l-1.55-8.05,5.8-5.07c.35-.3.48-.78.35-1.22s-.52-.76-.97-.82l-8.14-1.01-3.03-7.08c-.18-.42-.59-.7-1.06-.71-.46,0-.88.26-1.08.67l-3.48,7.43-7.67.7c-.46.04-.85.35-1,.78s-.03.92.31,1.23l5.99,5.6-1.71,7.51c-.1.45.07.92.44,1.19.21.16.45.24.7.24.19,0,.39-.05.56-.15l7.18-3.97,6.62,3.94ZM10.51,69.51l1.28-5.62c.09-.4-.04-.83-.34-1.11l-4.57-4.28,5.74-.52c.41-.04.78-.29.95-.67l2.65-5.67,2.27,5.3c.16.38.52.65.93.7l6.21.77-4.34,3.8c-.31.27-.46.69-.38,1.1l1.19,6.15-4.95-2.95c-.36-.21-.8-.22-1.16-.02l-5.48,3.03ZM92.53,83.87l-.24-.53c-1.29-2.81-4.88-4.13-8.01-2.95l-22.84,8.59-7.56-1.98c.05-.03.1-.07.15-.11,1.71-1.21,2.71-2.94,2.91-5.02l.13-1.34c.05-.56-.3-1.08-.85-1.24l-15.61-4.38c-1.62-.45-3.06-.17-4.37.21l-12.17,3.49v-1.73c0-.64-.52-1.17-1.17-1.17h-12.17c-.65,0-1.17.52-1.17,1.17v26c0,.64.52,1.17,1.17,1.17h12.17c.65,0,1.17-.52,1.17-1.17v-3.13l4.1-1.92,20.93,5.27c.16.04.32.05.48.02l14.43-2.43c.07-.01.15-.03.22-.06l24.87-9.33c1.61-.6,2.89-1.81,3.5-3.3.56-1.35.53-2.82-.07-4.13ZM21.73,80.14v21.58h-9.83v-23.67h9.83v2.08ZM90.44,87.11c-.37.89-1.16,1.62-2.16,2l-24.77,9.29-14.08,2.37-21.09-5.31c-.09-.02-.19-.04-.28-.04-.17,0-.34.04-.5.11l-3.49,1.64v-16.13l12.81-3.68c1.17-.33,2.09-.49,3.09-.2l14.67,4.11-.03.37c-.13,1.4-.78,2.53-1.94,3.34-1.15.81-2.42,1.05-3.79.71,0,0,0,0-.01,0l-4.79-1.2c-.63-.16-1.26.22-1.42.85-.16.63.22,1.26.85,1.42l4.79,1.2,12.89,3.37c.23.06.48.05.71-.04l23.19-8.72c1.97-.74,4.29.05,5.07,1.74l.24.53c.33.72.34,1.52.03,2.27ZM82.79,77.51c.56.33.74,1.04.42,1.6-.33.56-1.04.74-1.6.42-1.32-.77-2.48-.87-3.9-.34l-18.34,6.9c-.13.05-.28.07-.41.07-.47,0-.92-.29-1.09-.76-.23-.6.08-1.28.68-1.5l18.34-6.9c2.09-.79,3.97-.62,5.91.51ZM9.36,32.36l-1.71,7.51c-.1.45.07.92.44,1.19.21.16.45.24.7.24.19,0,.39-.05.56-.15l7.18-3.97,6.62,3.94c.4.24.89.22,1.27-.05.38-.26.56-.73.48-1.18l-1.55-8.05,5.8-5.07c.35-.3.48-.78.35-1.22-.14-.44-.52-.76-.97-.82l-8.14-1.01-3.03-7.08c-.18-.42-.59-.7-1.06-.71-.47,0-.88.26-1.08.67l-3.48,7.43-7.67.7c-.46.04-.85.35-1,.78s-.03.92.31,1.23l5.99,5.6ZM12.61,26.31c.41-.04.78-.29.95-.67l2.65-5.67,2.27,5.3c.16.38.52.65.93.7l6.21.77-4.34,3.8c-.31.27-.46.69-.38,1.1l1.19,6.15-4.95-2.95c-.36-.21-.8-.22-1.16-.02l-5.48,3.03,1.28-5.62c.09-.41-.04-.83-.34-1.11l-4.57-4.28,5.74-.52ZM31.6,51.78l4.95,1.26c.56,2.05,1.37,4.01,2.43,5.86l-2.62,4.39c-.27.46-.2,1.05.18,1.42l6.02,6.02c.38.38.97.45,1.42.18l4.39-2.62c1.85,1.06,3.81,1.87,5.86,2.43l1.26,4.95c.13.52.6.88,1.13.88h8.51c.54,0,1-.36,1.13-.88l1.25-4.95c2.05-.56,4.01-1.37,5.86-2.43l4.39,2.62c.46.27,1.05.2,1.42-.18l6.02-6.02c.38-.38.45-.97.18-1.42l-2.62-4.39c1.06-1.85,1.87-3.81,2.43-5.86l4.95-1.26c.52-.13.88-.6.88-1.13v-8.51c0-.53-.36-1-.88-1.13l-4.95-1.25c-.56-2.05-1.37-4.01-2.43-5.86l2.61-4.39c.27-.46.2-1.05-.18-1.42l-6.02-6.02c-.38-.38-.96-.45-1.42-.18l-4.39,2.62c-1.85-1.06-3.81-1.87-5.86-2.43l-1.25-4.95c-.13-.52-.6-.88-1.13-.88h-8.51c-.53,0-1,.36-1.13.88l-1.26,4.95c-2.05.56-4.01,1.37-5.86,2.43l-4.39-2.62c-.46-.27-1.05-.2-1.42.18l-6.02,6.02c-.38.38-.45.97-.18,1.42l2.62,4.39c-1.06,1.85-1.87,3.81-2.43,5.86l-4.95,1.25c-.52.13-.88.6-.88,1.13v8.51c0,.53.36,1,.88,1.13ZM33.05,43.05l4.74-1.2c.42-.11.75-.44.85-.86.56-2.29,1.46-4.47,2.69-6.49.23-.37.23-.83,0-1.21l-2.5-4.2,4.73-4.73,4.21,2.51c.37.22.84.22,1.21,0,2.02-1.23,4.2-2.14,6.49-2.69.42-.1.75-.43.86-.85l1.2-4.74h6.69l1.2,4.74c.11.42.44.75.86.85,2.29.55,4.47,1.46,6.49,2.69.37.23.83.23,1.21,0l4.21-2.51,4.73,4.73-2.5,4.2c-.22.37-.22.84,0,1.21,1.23,2.02,2.14,4.2,2.69,6.49.1.42.43.75.85.86l4.74,1.2v6.69l-4.74,1.2c-.42.11-.75.44-.85.86-.55,2.29-1.46,4.47-2.69,6.49-.23.37-.23.83,0,1.21l2.5,4.21-4.73,4.73-4.21-2.5c-.37-.22-.84-.22-1.21,0-2.02,1.23-4.2,2.14-6.49,2.69-.42.1-.75.43-.86.85l-1.2,4.74h-6.69l-1.2-4.74c-.11-.42-.44-.75-.86-.85-2.29-.55-4.47-1.46-6.49-2.69-.37-.23-.83-.23-1.21,0l-4.21,2.51-4.73-4.73,2.5-4.21c.22-.37.22-.84,0-1.21-1.23-2.02-2.14-4.2-2.69-6.49-.1-.42-.43-.75-.85-.86l-4.74-1.2s0-6.69,0-6.69ZM60.88,63.2c9.27,0,16.81-7.54,16.81-16.81s-7.54-16.81-16.81-16.81-16.81,7.54-16.81,16.81,7.54,16.81,16.81,16.81ZM60.88,31.92c7.98,0,14.47,6.49,14.47,14.47s-6.49,14.47-14.47,14.47-14.47-6.49-14.47-14.47,6.49-14.47,14.47-14.47ZM53.02,46.89c-.46-.45-.47-1.19-.03-1.65.45-.46,1.19-.47,1.65-.03l4.62,4.48,7.77-9.07c.42-.49,1.16-.55,1.65-.13.49.42.55,1.16.13,1.65l-8.58,10.02c-.21.24-.51.39-.83.41-.02,0-.04,0-.05,0-.3,0-.6-.12-.81-.33l-5.51-5.35Z"/>
</svg>