<?xml version="1.0" encoding="UTF-8"?>
<svg id="Layer_1" xmlns="http://www.w3.org/2000/svg" version="1.1" viewBox="0 0 100 125">
  <!-- Generator: Adobe Illustrator 29.8.2, SVG Export Plug-In . SVG Version: 2.1.1 Build 3)  -->
  <defs>
    <style>
      .st0 {
        stroke: #000;
        stroke-miterlimit: 10;
        stroke-width: .5px;
      }
    </style>
  </defs>
  <path class="st0" d="M93.81,67.96c-.99-1.51-2.57-2.54-4.35-2.85-1.89-.34-3.84.1-5.4,1.23l-16.4,11.98c-.87-1.04-2.05-1.78-3.37-2.11l-15.69-3.93c-.6-.14-1.16-.41-1.65-.79-8.52-6.47-17.75-5.32-27.45,3.39l-.76-1.28c-.35-.59-1.12-.79-1.71-.44,0,0,0,0,0,0l-11.41,6.8c-.59.35-.79,1.12-.44,1.71l14.82,25.05c.35.59,1.12.79,1.71.44,0,0,0,0,0,0l11.41-6.8c.59-.35.79-1.12.44-1.71l-.55-.93,2.4-1.42c.89-.55,1.95-.77,2.98-.6l24.28,3.48c.35.05.71.08,1.06.08,1.64,0,3.22-.58,4.47-1.64l24.08-20.04c2.92-2.33,3.59-6.49,1.54-9.61ZM21.5,104.37l-13.54-22.9,9.26-5.52,13.54,22.9-9.26,5.52ZM90.68,75.65l-24.08,20.04c-.98.85-2.29,1.22-3.58,1.01l-24.28-3.47c-1.6-.25-3.23.08-4.62.92l-2.4,1.43-10.94-18.49c8.94-8.21,17.01-9.39,24.64-3.6.76.58,1.63,1,2.56,1.23l15.69,3.93c1.04.27,1.93.94,2.47,1.86.03.05.06.11.09.16v.03c.5.91.63,1.97.38,2.97-.56,2.18-2.78,3.49-4.96,2.94l-7.77-1.98c-.67-.17-1.35.23-1.52.9-.17.67.23,1.35.9,1.52l7.77,1.98c3.52.89,7.1-1.23,8-4.75.31-1.25.26-2.55-.16-3.77l16.64-12.15c1-.73,2.26-1.01,3.47-.79,1.11.19,2.09.82,2.71,1.76,1.34,2.06.88,4.8-1.05,6.32ZM37.6,49.3l5.48.76c.47,1.73,1.16,3.39,2.05,4.94l-3.34,4.41c-.38.5-.33,1.2.11,1.64l4.99,4.99c.44.44,1.14.49,1.64.11l4.41-3.34c1.55.89,3.21,1.58,4.94,2.05l.75,5.47c.08.62.61,1.08,1.24,1.08h7.06c.62,0,1.15-.46,1.24-1.08l.75-5.48c1.73-.47,3.39-1.16,4.94-2.05l4.41,3.34c.5.38,1.2.33,1.64-.11l4.99-4.99c.44-.44.49-1.14.11-1.64l-3.34-4.41c.89-1.55,1.58-3.21,2.05-4.94l5.48-.76c.62-.08,1.08-.61,1.08-1.24v-7.06c0-.62-.46-1.15-1.08-1.24l-5.48-.75c-.47-1.73-1.16-3.39-2.05-4.94l3.34-4.41c.38-.5.33-1.2-.11-1.64l-4.99-4.99c-.44-.44-1.14-.49-1.64-.11l-4.41,3.34c-1.55-.89-3.21-1.58-4.94-2.05l-.75-5.48c-.09-.62-.61-1.08-1.24-1.08h-7.06c-.62,0-1.15.46-1.24,1.08l-.75,5.48c-1.73.47-3.39,1.16-4.94,2.05l-4.41-3.34c-.5-.38-1.2-.33-1.64.11l-4.99,4.99c-.44.44-.49,1.14-.11,1.64l3.34,4.41c-.89,1.55-1.58,3.21-2.05,4.94l-5.48.75c-.62.08-1.08.61-1.08,1.24v7.06c0,.63.46,1.16,1.08,1.24ZM39.02,42.09l5.23-.72c.52-.07.93-.45,1.05-.96.46-2.04,1.27-3.98,2.38-5.75.28-.44.25-1.01-.06-1.42l-3.19-4.21,3.45-3.45,4.21,3.19c.41.31.98.34,1.42.06,1.77-1.12,3.71-1.92,5.75-2.38.51-.12.89-.53.96-1.05l.72-5.23h4.88l.72,5.23c.07.52.45.93.96,1.05,2.04.46,3.98,1.27,5.75,2.38.44.28,1.01.25,1.42-.06l4.21-3.19,3.45,3.45-3.19,4.21c-.31.42-.34.98-.06,1.42,1.12,1.77,1.92,3.71,2.38,5.75.12.51.53.89,1.05.96l5.24.72v4.88l-5.24.72c-.52.07-.93.45-1.05.96-.46,2.04-1.27,3.98-2.39,5.74-.28.44-.25,1.01.06,1.42l3.19,4.21-3.45,3.45-4.21-3.18c-.41-.31-.98-.34-1.42-.06-1.77,1.12-3.71,1.92-5.75,2.38-.51.12-.89.53-.96,1.05l-.72,5.23h-4.88l-.72-5.23c-.07-.52-.45-.93-.96-1.05-2.04-.46-3.98-1.27-5.75-2.38-.44-.28-1.01-.25-1.42.06l-4.21,3.19-3.45-3.45,3.19-4.21c.31-.41.34-.98.06-1.42-1.11-1.77-1.92-3.71-2.38-5.75-.12-.51-.53-.89-1.05-.96l-5.24-.72v-4.87ZM61.72,52.18c.91,0,1.79-.36,2.43-1.01l8.42-8.42c1.34-1.34,1.34-3.52,0-4.87-1.34-1.34-3.52-1.34-4.87,0h0l-5.99,5.99-2.65-2.65c-1.34-1.34-3.52-1.34-4.87,0s-1.34,3.52,0,4.87l5.08,5.08c.65.64,1.52,1.01,2.43,1h0ZM55.97,43c.37-.36.96-.36,1.33,0l3.53,3.53c.49.49,1.28.49,1.77,0l6.87-6.88c.36-.38.95-.39,1.33-.03s.39.95.03,1.33c-.01.01-.02.02-.03.03l-8.42,8.42c-.37.37-.96.37-1.33,0l-5.08-5.08c-.37-.37-.37-.96,0-1.33ZM63.39,59.46c8.25,0,14.93-6.68,14.93-14.93,0-8.25-6.68-14.93-14.93-14.93-8.25,0-14.93,6.68-14.93,14.93h0c0,8.24,6.69,14.92,14.93,14.93ZM63.39,32.1c6.86,0,12.43,5.56,12.43,12.43,0,6.86-5.56,12.43-12.43,12.43-6.86,0-12.43-5.56-12.43-12.43h0c0-6.86,5.57-12.42,12.43-12.43h0Z"/>
</svg>