<?xml version="1.0" encoding="UTF-8"?>
<svg id="Layer_1" xmlns="http://www.w3.org/2000/svg" version="1.1" viewBox="0 0 110 135">
  <!-- Generator: Adobe Illustrator 29.8.2, SVG Export Plug-In . SVG Version: 2.1.1 Build 3)  -->
  <defs>
    <style>
      .st0 {
        stroke: #000;
        stroke-miterlimit: 10;
        stroke-width: .5px;
      }
    </style>
  </defs>
  <path class="st0" d="M35.47,45.43c2.01,0,3.78-1.32,4.36-3.24h4.52v1.29c0,.62.43,1.15,1.03,1.28l4.67,1.01c.17.48.36.94.58,1.4l-2.59,4.02c-.34.52-.26,1.2.17,1.63l.16.16-1.91.93c-.51.25-.8.8-.72,1.37l.37,2.4-2.14,1.04h0c-1.09-1.04-2.63-1.46-4.1-1.14-1.47.32-2.69,1.36-3.25,2.75-.56,1.4-.39,2.99.46,4.23s2.25,2,3.76,2c.23,0,.46-.02.69-.05,2.48-.38,4.18-2.7,3.81-5.18-.02-.12-.04-.23-.07-.34l2.85-1.38h0c.52-.25.81-.8.72-1.37l-.37-2.4,1.86-.9,1.7,1.71c.44.44,1.12.51,1.63.17l4.02-2.59h0c.45.22.92.41,1.39.58l1.01,4.67h0c.13.6.66,1.03,1.28,1.03h5.41c.61,0,1.15-.43,1.28-1.03l1.01-4.67h0c.48-.17.95-.36,1.4-.58l4.02,2.59h0c.52.33,1.2.26,1.63-.18l1.7-1.7,1.86.9-.37,2.4c-.09.57.21,1.12.72,1.37l2.85,1.38c-.03.11-.05.23-.07.34-.38,2.48,1.33,4.8,3.81,5.18.23.04.46.05.69.05,1.46,0,2.83-.7,3.68-1.89.85-1.18,1.09-2.7.63-4.08-.46-1.39-1.55-2.47-2.94-2.91-1.39-.45-2.91-.2-4.08.67-.15.11-.3.23-.43.36l-2.14-1.04.37-2.41c.09-.56-.21-1.12-.72-1.37l-1.91-.93.16-.16c.44-.43.51-1.12.18-1.63l-2.59-4.02c.22-.46.41-.92.58-1.4l4.67-1c.6-.13,1.03-.66,1.03-1.28v-1.29h4.52c.65,2.16,2.78,3.52,5.02,3.19,2.23-.32,3.89-2.24,3.89-4.5s-1.65-4.17-3.89-4.5c-2.23-.33-4.37,1.03-5.02,3.19h-4.52v-1.5c0-.62-.43-1.15-1.04-1.28l-4.67-1.01h0c-.17-.47-.36-.94-.58-1.4l2.59-4.02h0c.34-.52.27-1.2-.17-1.63l-1.2-1.21.7-.7,2.28,2.28h0c.41.41,1.04.5,1.55.23l3.39-1.84c1.67,1.5,4.19,1.55,5.92.11,1.73-1.43,2.14-3.92.97-5.84-1.17-1.92-3.56-2.69-5.63-1.82-2.07.88-3.18,3.13-2.62,5.3l-2.42,1.32-2.51-2.51h0c-.51-.51-1.34-.51-1.85,0l-1.63,1.62-.77-.77c-.43-.44-1.11-.51-1.63-.17l-4.02,2.59c-.46-.21-.92-.41-1.4-.58l-1.01-4.67h0c-.13-.6-.66-1.03-1.28-1.03h-5.41c-.61,0-1.15.43-1.28,1.03l-1,4.67c-.48.17-.94.36-1.4.58l-4.01-2.59c-.52-.34-1.2-.27-1.63.17l-.77.77-1.62-1.62c-.51-.51-1.34-.51-1.85,0l-2.51,2.51-2.41-1.32c.57-2.19-.55-4.46-2.63-5.35-2.08-.88-4.5-.11-5.67,1.83-1.18,1.93-.76,4.44.98,5.88,1.75,1.44,4.28,1.39,5.96-.12l3.39,1.84c.51.28,1.14.19,1.55-.22l2.28-2.28.7.7-1.21,1.21h0c-.44.43-.51,1.11-.18,1.63l2.59,4.02c-.22.46-.41.93-.58,1.4l-4.67,1.01h0c-.6.13-1.03.66-1.03,1.27v1.51h-4.52c-.5-1.65-1.88-2.88-3.57-3.18-1.69-.3-3.41.39-4.43,1.77s-1.19,3.22-.42,4.75c.77,1.54,2.34,2.51,4.06,2.51h0ZM41.13,63.92h0c-.77.12-1.55-.24-1.95-.91-.41-.67-.37-1.52.1-2.15.46-.63,1.26-.92,2.02-.73.77.19,1.34.82,1.45,1.59.16,1.05-.56,2.04-1.62,2.2h0ZM87.29,60.06c.1,0,.2,0,.29.02,1.02.16,1.74,1.09,1.62,2.12-.12,1.03-1.03,1.78-2.06,1.7-1.03-.08-1.82-.96-1.78-1.99.04-1.04.89-1.86,1.92-1.86h0ZM92.67,38.94h0c.79,0,1.49.47,1.79,1.2.3.73.13,1.56-.42,2.11-.55.55-1.39.72-2.11.42-.72-.3-1.2-1.01-1.2-1.79,0-1.07.87-1.93,1.94-1.93h0ZM89.67,22.18c.79,0,1.49.47,1.79,1.2.3.72.14,1.56-.42,2.11-.55.55-1.39.72-2.11.42-.73-.3-1.2-1.01-1.2-1.79,0-.52.2-1.01.57-1.37s.86-.57,1.37-.57h0ZM38.47,26.05c-.79,0-1.49-.47-1.79-1.2-.3-.72-.14-1.56.42-2.11.55-.55,1.39-.72,2.11-.42.73.3,1.2,1,1.2,1.79,0,1.07-.87,1.94-1.94,1.94h0ZM46.97,39.12l4.38-.94c.46-.1.84-.45.98-.9.24-.81.57-1.6.97-2.35.23-.42.21-.93-.05-1.32l-2.43-3.76,2.33-2.34,3.76,2.43h0c.4.26.91.28,1.33.05.75-.41,1.53-.73,2.35-.97.46-.14.8-.51.91-.98l.94-4.38h3.29l.94,4.38c.1.46.45.84.91.98.81.24,1.6.57,2.34.97.42.23.93.21,1.33-.05l3.77-2.43,2.33,2.33-2.43,3.76h0c-.26.4-.28.91-.05,1.32.41.75.73,1.53.97,2.35.14.46.51.8.98.9l4.38.94v3.29l-4.38.94h0c-.46.11-.84.45-.98.91-.24.81-.57,1.6-.97,2.35-.23.42-.21.93.05,1.32l2.43,3.76-2.33,2.34-3.76-2.43c-.4-.26-.91-.28-1.33-.05-.75.4-1.53.73-2.35.97-.46.13-.8.51-.9.98l-.94,4.38h-3.29l-.94-4.38c-.1-.47-.45-.84-.91-.98-.81-.24-1.6-.57-2.34-.97-.42-.23-.93-.21-1.33.05l-3.76,2.43-2.33-2.33,2.43-3.76h0c.26-.4.28-.91.05-1.33-.4-.75-.73-1.53-.97-2.34-.13-.46-.51-.8-.98-.91l-4.38-.94v-3.3ZM35.48,38.94h0c.78,0,1.49.48,1.79,1.2.3.73.14,1.56-.42,2.11-.55.55-1.39.72-2.11.42-.73-.3-1.2-1.01-1.2-1.79,0-1.07.87-1.94,1.94-1.94h0ZM64.08,48.34h0c3.06,0,5.82-1.84,7-4.67,1.18-2.83.53-6.09-1.64-8.25-2.16-2.17-5.42-2.82-8.25-1.64-2.83,1.17-4.68,3.93-4.68,7,0,4.18,3.39,7.57,7.57,7.57h0ZM64.08,35.81h0c2.01,0,3.82,1.21,4.58,3.07.77,1.85.34,3.98-1.07,5.41-1.42,1.42-3.55,1.84-5.41,1.07-1.85-.77-3.06-2.58-3.06-4.59,0-2.73,2.22-4.95,4.96-4.96h0ZM99.65,77.3c-2.24-3.1-6.55-3.84-9.69-1.66l-1.55,1.04h0c-1.02-1.75-2.7-3.01-4.66-3.49-1.96-.48-4.04-.15-5.75.93l-11.08,6.93h0c-.35-.18-.71-.34-1.09-.48l-18.1-6.62-.05-.02c-5.02-1.36-10.39-.43-14.66,2.55-1.59,1.2-3.05,2.56-4.35,4.08-.76.83-1.53,1.67-2.39,2.48h0c-1.07-.79-2.51-.86-3.65-.18l-1.86,1.12h0c-.22-.13-.46-.23-.71-.31-1-.3-2.08-.17-2.98.36l-6.3,3.8c-1.68,1.02-2.22,3.2-1.21,4.89l12.75,21.05c.65,1.06,1.81,1.7,3.05,1.69.62,0,1.23-.16,1.78-.45l4.01-2.15c1.22-.69,1.9-2.06,1.7-3.45l4.27-2.57h0c.75-.45,1.28-1.18,1.48-2.02.08-.33.11-.68.09-1.02.49.03.98.08,1.47.16l15.43,6.26h0c1.75.7,3.63,1.05,5.51,1.03,3.58-.01,7.08-1.09,10.04-3.09.02-.01.04-.03.05-.04l26.8-21.13c3.11-2.23,3.83-6.56,1.62-9.69h0ZM79.38,76.32c1.13-.71,2.52-.93,3.81-.58s2.39,1.21,3.02,2.39l-15.68,10.48c.39-2.07-.14-4.2-1.45-5.85l10.29-6.44ZM29.94,110.55l-4.01,2.15c-.46.29-1.06.16-1.36-.29l-12.75-21.05c-.27-.45-.12-1.03.33-1.3l6.3-3.79h0c.26-.15.57-.19.86-.1.16.04.3.15.38.3l10.45,22.69c.23.5.24,1.16-.2,1.39h0ZM36.1,104.19c-.04.17-.15.32-.3.41l-3.83,2.3-9.6-20.84,1.61-.97c.32-.18.72-.09.92.23l11.12,18.38c.09.15.12.33.07.5h0ZM98.26,82.05c-.19,1.14-.83,2.16-1.77,2.82l-.05.04-26.79,21.13c-3.16,2.22-8.64,3.54-13.04,1.75l-15.56-6.31c-.09-.04-.18-.06-.27-.08-1.05-.2-2.13-.27-3.2-.21l-9.72-16.05c1.02-.93,1.9-1.89,2.75-2.82,1.17-1.38,2.48-2.62,3.92-3.71,3.6-2.49,8.1-3.3,12.34-2.21l18.08,6.62c3.25,1.16,3.5,4.1,2.73,6.26-.28.82-.75,1.55-1.38,2.15l-.42.28-.02.02h0c-.32.2-.67.34-1.04.4-.16.02-.32.04-.46.04h0c-.18-.02-.35-.05-.52-.11l-10.93-3.88-.06-.02h-.08c-.05-.01-.1-.02-.16-.03h-.11c-.18,0-.36.04-.52.11l-4.61,1.9h0c-.53.34-.73,1.01-.49,1.59.24.58.87.91,1.48.77l4.14-1.71,10.47,3.79s.04.02.06.02h0c.39.12.8.18,1.21.18,1.38.08,2.73-.4,3.75-1.33l23.43-15.65c1.97-1.39,4.69-.94,6.12,1.01.67.94.93,2.1.74,3.24h0Z"/>
</svg>