<?xml version="1.0" encoding="UTF-8"?>
<svg id="Layer_1" xmlns="http://www.w3.org/2000/svg" version="1.1" viewBox="0 0 110 135">
  <!-- Generator: Adobe Illustrator 29.8.2, SVG Export Plug-In . SVG Version: 2.1.1 Build 3)  -->
  <defs>
    <style>
      .st0 {
        stroke: #000;
        stroke-miterlimit: 10;
        stroke-width: .5px;
      }
    </style>
  </defs>
  <path class="st0" d="M33.18,64.59h-5.82c-.8,0-1.45-.65-1.45-1.45v-3.46c-1.59-.41-3.09-1.03-4.5-1.87l-2.45,2.45c-.57.57-1.49.57-2.06,0l-4.11-4.11c-.57-.57-.57-1.49,0-2.06l2.45-2.45c-.84-1.41-1.46-2.92-1.87-4.5h-3.46c-.8,0-1.45-.65-1.45-1.45v-5.82c0-.8.65-1.45,1.45-1.45h3.46c.41-1.59,1.03-3.09,1.87-4.5l-2.45-2.45c-.57-.57-.57-1.49,0-2.06l4.11-4.11c.57-.57,1.49-.57,2.06,0l2.45,2.45c1.41-.84,2.92-1.46,4.5-1.87v-3.46c0-.8.65-1.45,1.45-1.45h5.82c.8,0,1.45.65,1.45,1.45v3.46c1.59.41,3.09,1.03,4.5,1.87l2.45-2.45c.57-.57,1.49-.57,2.06,0l4.11,4.11c.57.57.57,1.49,0,2.06l-2.45,2.45c.84,1.41,1.46,2.92,1.87,4.5h3.46c.8,0,1.45.65,1.45,1.45v5.82c0,.8-.65,1.45-1.45,1.45h-3.46c-.41,1.59-1.03,3.09-1.87,4.5l2.45,2.45c.57.57.57,1.49,0,2.06l-4.11,4.11c-.57.57-1.49.57-2.06,0l-2.45-2.45c-1.41.84-2.92,1.46-4.5,1.87v3.46c0,.8-.65,1.45-1.45,1.45ZM28.82,61.68h2.91v-3.17c0-.7.5-1.3,1.19-1.43,2.02-.37,3.9-1.15,5.6-2.32.58-.4,1.36-.33,1.86.17l2.25,2.25,2.06-2.06-2.25-2.25c-.5-.5-.57-1.28-.17-1.86,1.17-1.7,1.95-3.58,2.32-5.6.12-.69.73-1.19,1.43-1.19h3.17v-2.91h-3.17c-.7,0-1.3-.5-1.43-1.19-.37-2.02-1.15-3.9-2.32-5.6-.4-.58-.33-1.36.17-1.86l2.25-2.25-2.06-2.06-2.25,2.25c-.5.5-1.28.57-1.86.17-1.7-1.17-3.58-1.95-5.6-2.32-.69-.12-1.19-.73-1.19-1.43v-3.17h-2.91v3.17c0,.7-.5,1.3-1.19,1.43-2.02.37-3.9,1.15-5.6,2.32-.58.4-1.36.33-1.86-.17l-2.25-2.25-2.05,2.06,2.25,2.25c.5.5.57,1.28.17,1.86-1.17,1.7-1.95,3.58-2.32,5.6-.12.69-.73,1.19-1.43,1.19h-3.18v2.91h3.17c.7,0,1.3.5,1.43,1.19.37,2.02,1.15,3.9,2.32,5.6.4.58.33,1.36-.17,1.86l-2.25,2.25,2.06,2.06,2.25-2.25c.5-.5,1.28-.57,1.86-.17,1.7,1.17,3.58,1.95,5.6,2.32.69.12,1.19.73,1.19,1.43v3.17h0Z"/>
  <path class="st0" d="M30.27,54.41c-6.42,0-11.64-5.22-11.64-11.64s5.22-11.64,11.64-11.64,11.64,5.22,11.64,11.64-5.22,11.64-11.64,11.64ZM30.27,34.04c-4.81,0-8.73,3.91-8.73,8.73s3.91,8.73,8.73,8.73,8.73-3.91,8.73-8.73-3.91-8.73-8.73-8.73Z"/>
  <path class="st0" d="M73.91,100.95h-21.82c-.8,0-1.45-.65-1.45-1.45s.65-1.45,1.45-1.45h21.82c.8,0,1.45.65,1.45,1.45,0,.8-.65,1.45-1.45,1.45h0Z"/>
  <path class="st0" d="M100.09,73.31h-37.82c-.8,0-1.45-.65-1.45-1.45s.65-1.45,1.45-1.45h36.36v-26.18h-10.18c-.8,0-1.45-.65-1.45-1.45s.65-1.45,1.45-1.45h11.64c.8,0,1.45.65,1.45,1.45v29.09c0,.8-.65,1.45-1.45,1.45h0Z"/>
  <path class="st0" d="M62.27,44.22h-11.64c-.8,0-1.45-.65-1.45-1.45s.65-1.45,1.45-1.45h11.64c.8,0,1.45.65,1.45,1.45s-.65,1.45-1.45,1.45Z"/>
  <path class="st0" d="M25.91,100.95H9.91c-.8,0-1.45-.65-1.45-1.45v-27.64c0-.8.65-1.45,1.45-1.45h26.18c.8,0,1.45.65,1.45,1.45s-.65,1.45-1.45,1.45H11.36v24.73h14.55c.8,0,1.45.65,1.45,1.45s-.65,1.46-1.45,1.46h0Z"/>
  <path class="st0" d="M87,114.04c-8.02,0-14.55-6.52-14.55-14.55s6.52-14.55,14.55-14.55,14.55,6.52,14.55,14.55-6.53,14.55-14.55,14.55ZM87,87.86c-6.42,0-11.64,5.22-11.64,11.64s5.22,11.64,11.64,11.64,11.64-5.22,11.64-11.64-5.22-11.64-11.64-11.64Z"/>
  <path class="st0" d="M85.72,103.86c-.37,0-.75-.14-1.03-.43l-3.09-3.09c-.57-.57-.57-1.49,0-2.06.57-.57,1.49-.57,2.06,0l2.06,2.06,5.14-5.14c.57-.57,1.49-.57,2.06,0,.57.57.57,1.49,0,2.06l-6.17,6.17c-.29.29-.66.43-1.03.43h0Z"/>
  <path class="st0" d="M87,48.59h-26.18c-.47,0-.91-.23-1.18-.61-.27-.38-.35-.87-.2-1.31l2.91-8.73c.2-.59.75-1,1.38-1h26.18c.47,0,.91.23,1.18.61.27.38.35.87.2,1.31l-2.91,8.73c-.2.6-.75,1-1.38,1ZM62.84,45.68h23.12l1.94-5.82h-23.11s-1.94,5.82-1.94,5.82Z"/>
  <path class="st0" d="M60.82,77.68h-26.18c-.47,0-.91-.23-1.18-.61-.27-.38-.35-.87-.2-1.31l2.91-8.73c.2-.59.75-1,1.38-1h26.18c.47,0,.91.23,1.18.61.27.38.35.87.2,1.31l-2.91,8.73c-.2.59-.75,1-1.38,1h0ZM36.66,74.77h23.12l1.94-5.82h-23.12s-1.94,5.82-1.94,5.82Z"/>
  <path class="st0" d="M50.64,105.31h-26.18c-.47,0-.91-.23-1.18-.61-.27-.38-.35-.87-.2-1.31l2.91-8.73c.2-.59.75-1,1.38-1h26.18c.47,0,.91.23,1.18.61.27.38.35.87.2,1.31l-2.91,8.73c-.2.6-.75,1-1.38,1ZM26.47,102.41h23.12l1.94-5.82h-23.12s-1.94,5.82-1.94,5.82Z"/>
</svg>