<?xml version="1.0" encoding="UTF-8"?>
<svg id="Layer_1" xmlns="http://www.w3.org/2000/svg" version="1.1" viewBox="0 0 512 640">
  <!-- Generator: Adobe Illustrator 29.8.2, SVG Export Plug-In . SVG Version: 2.1.1 Build 3)  -->
  <path d="M360.9,491.95c22.2,0,40.1-17.9,40.1-40.1s-17.9-40.1-40.1-40.1-40.1,17.9-40.1,40.1,17.9,40.1,40.1,40.1h0ZM346.6,352.55h19.5v-117.7h-38.4v141.9c4.2-1.8,8.5-3.3,12.9-4.5v-13.8c0-3.2,2.7-5.9,6-5.9h0ZM378.1,353.35c1.8,1,3.1,3,3.1,5.2v13.8c7.6,1.9,14.9,5,21.6,9l9.8-9.8c2.3-2.3,6.1-2.3,8.5,0l20.2,20.2c2.4,2.3,2.4,6.1,0,8.5l-9.7,9.8c4,6.7,7,14,9,21.6h13.8c3.3,0,6,2.7,6,6v28.5c0,3.3-2.7,6-6,6h-13.8c-.9,3.6-2.3,7.7-3.7,11.1h0c-1.5,3.6-3.3,7.1-5.2,10.5l9.7,9.7c2.4,2.4,2.4,6.2,0,8.5l-20.2,20.2c-2.4,2.4-6.2,2.4-8.5,0l-9.8-9.8c-6.7,4-14,7-21.7,9v13.7c0,3.3-2.7,6-6,6h-28.5c-3.3,0-6-2.7-6-6v-13.7c-7.6-2-14.9-5-21.6-9l-9.8,9.8c-2.3,2.4-6.1,2.4-8.5,0l-20.2-20.2H57.6c-3.3,0-6-2.7-6-6v-23.7c0-3.3,2.7-6,6-6h224.9c-.4-1.4-.8-2.8-1.2-4.2h-13.8c-.8,0-1.6-.2-2.3-.5h-20.5c-3.3,0-6-2.7-6-6v-156.7c0-3.3,2.7-6,6-6h50.4c3.3,0,6,2.7,6,6v62.4c2.4-2,5.8-1.8,8.1.4l6.5,6.5v-149.3c0-3.3,2.7-6,6-6h50.4c3.3,0,6,2.7,6,6v124.5ZM284.1,499.95l6.2-6.2c-1-1.8-2-3.6-2.9-5.4H63.7v11.7h220.4v-.1ZM261.6,459.65v-22.1c0-3.3,2.7-6,6-6h13.8c1-3.8,2.2-7.5,3.7-11.1,1.2-2.9,2.6-5.8,4.1-8.5v-3.1l-8.6-8.6c-2.4-2.4-2.4-6.2,0-8.5l8.6-8.6v-68.3h-38.4v144.8h10.8ZM369.1,364.55h-16.5v12.6h0c0,2.8-2,5.4-4.9,5.9-8.8,1.6-18.6,5.5-25.9,10.7-2.4,1.8-5.8,1.6-7.9-.5l-8.9-8.9-11.7,11.7,8.9,8.9h0c2,2,2.4,5.2.7,7.6-2.6,3.9-5,8.2-6.8,12.5-1.8,4.2-3.1,8.7-4,13.3-.3,3-2.9,5.3-6,5.3h-12.6v16.5h12.2c2.9-.1,5.6,1.9,6.2,4.9,1.6,8.4,5.6,18.9,10.7,25.9,1.8,2.4,1.6,5.8-.5,7.9l-8.9,8.9,11.7,11.7,8.9-8.9h0c2-2,5.2-2.4,7.6-.7,3.9,2.7,8.1,5,12.5,6.8,4.2,1.8,8.7,3.1,13.3,4,3,.4,5.3,2.9,5.3,6v12.6h16.6v-12.2c-.2-2.9,1.9-5.6,4.9-6.2,8.5-1.6,18.9-5.6,25.9-10.7,2.4-1.8,5.8-1.7,7.9.5l8.9,8.9,11.7-11.7-8.9-8.9h0c-2-2-2.4-5.2-.7-7.6,2.7-3.9,4.9-8.1,6.8-12.6h0c1.8-4.2,3.1-8.7,4-13.3.4-3,2.9-5.3,6-5.3h12.6v-16.5h-12.6c-2.8,0-5.4-2-5.9-4.9-1.6-8.5-5.6-19-10.7-25.9-1.8-2.4-1.7-5.8.5-7.9l8.9-8.9-11.7-11.8-8.9,8.9h0c-2,2-5.2,2.4-7.6.7-3.9-2.7-8.1-5-12.5-6.8-4.3-1.7-8.7-3.1-13.3-4-3-.3-5.3-2.9-5.3-6v-12.5h0ZM360.9,398.35c29.6,0,53.5,24,53.5,53.5s-24,53.5-53.5,53.5-53.5-24-53.5-53.5,23.9-53.5,53.5-53.5h0ZM167.9,368.65h50.4c3.3,0,6,2.7,6,6v91c0,3.3-2.7,6-6,6h-50.4c-3.3,0-6-2.7-6-6v-91c.1-3.4,2.7-6,6-6h0ZM212.3,380.55h-38.4v79h38.4v-79ZM91.1,404.85h50.4c3.3,0,6,2.7,6,6v54.8c0,3.3-2.7,6-6,6h-50.4c-3.3,0-6-2.7-6-6v-54.8c0-3.3,2.7-6,6-6h0ZM135.4,416.85h-38.3v42.8h38.4v-42.8h-.1ZM267.2,268.05l15.2-1.1,1.1-15.2-33.6-33.7-16.4,16.3,33.7,33.7ZM288.4,278.45l-22.8,1.7c-1.8.2-3.6-.3-5-1.7l-35.6-35.6c-4.4,4.4-7.4,8.2-14.3,8.2-9,0-15.9-8.1-14.5-17-16.7-2.6-34.4-5.6-47.4-17.7,1.2,2.3.9,5.2-1,7.1l-11.5,11.5c-2.4,2.4-6.2,2.4-8.5,0-2.3-2.3-2.3-6.1,0-8.5l11.6-11.5c1.9-1.9,4.8-2.3,7.1-1.1-9.3-9.8-14.2-22.3-15-35.1-1,1.5-2.8,2.5-4.7,2.6l-15.9.5c-3.3.1-6-2.5-6.1-5.8s2.5-6,5.8-6.2l15.8-.5c2.1-.1,4,1,5.1,2.6.8-12.6,5.6-25.2,14.5-35.5-1.4-.1-2.9-.7-4-1.8l-10.9-10.9c-2.4-2.4-2.4-6.2,0-8.5,2.4-2.4,6.2-2.4,8.5,0l10.9,10.9c1.1,1.1,1.7,2.6,1.8,4,10.3-8.9,22.8-13.8,35.5-14.5-1.6-1.1-2.6-3-2.6-5.1l.5-15.8c.1-3.3,2.8-5.9,6.1-5.8s5.9,2.8,5.8,6.1l-.5,15.9c-.1,2-1.1,3.7-2.6,4.7,12.8.7,25.3,5.7,35.1,15-1.2-2.3-.9-5.2,1-7.1l11.5-11.6c2.4-2.4,6.2-2.4,8.5,0,2.4,2.4,2.4,6.2,0,8.5l-11.5,11.6c-1.9,1.9-4.8,2.3-7.1,1,12,12.9,15.2,30.7,17.8,47.4,14-2,22.5,15,12.5,24.9l-3.9,3.9,35.6,35.6h0c1.2,1.2,1.8,2.9,1.7,4.6l-1.7,23.1c-.2,3.3-2.6,5.7-5.6,5.9h0ZM220.8,230.15l33-33c2.5-2.5-1.3-6.3-3.8-3.8l-41.2,41.2c-2.5,2.5,1.3,6.3,3.8,3.8l8.2-8.2ZM190.8,181.85l4.5-4.5c-5-5-9.2-8.5-9.2-16.6,0-9.9,8.9-18.7,18.7-18.7,15.8,0,23.6,19.2,12.6,30.2l-5.1,5.1,18.3,18.3,8.1-8.1c-2.6-16.7-5-35.6-16.5-47.1-17.9-17.9-46.9-16.6-64.8,1.4-18,18-19.3,47-1.4,64.8,11.6,11.6,30.4,13.7,47.3,16.4l6-6-18.3-18.3c-5.4,5.4-9.1,10.3-17.6,10.3-15.8,0-23.6-19.2-12.5-30.3,4-4,7.9-6.2,13.5-6.2,7.9,0,11.5,4.3,16.4,9.3h0ZM222.2,204.15l-18.3-18.4-4.5,4.5,18.4,18.3,4.4-4.4ZM200.8,155.65c-1.5,1.5-2.7,2.6-2.7,5.1,0,1.5.5,2.9,1.7,4.1l4.1,4.1,5.1-5.1c3.5-3.5,1.1-9.8-4.1-9.8-1.6-.1-3,.5-4.1,1.6h0ZM170.2,186.25c-1.5,1.5-2.7,2.6-2.7,5,0,5.2,6.3,7.6,9.8,4.1l5.1-5.1-4.1-4.1c-2.2-2.1-5.9-2.1-8.1.1h0Z"/>
</svg>