<?xml version="1.0" encoding="UTF-8"?>
<svg id="Layer_1" xmlns="http://www.w3.org/2000/svg" version="1.1" viewBox="0 0 110 135">
  <!-- Generator: Adobe Illustrator 29.8.2, SVG Export Plug-In . SVG Version: 2.1.1 Build 3)  -->
  <defs>
    <style>
      .st0 {
        stroke: #000;
        stroke-miterlimit: 10;
        stroke-width: .25px;
      }
    </style>
  </defs>
  <path class="st0" d="M96.13,47.31h-.72v-7.94c0-.58-.36-1.15-.94-1.37l-38.97-15.15c-.36-.14-.72-.14-1.01,0l-38.97,15.15c-.58.22-.94.72-.94,1.37v7.94h-.72c-1.59,0-2.89,1.3-2.89,2.89v5.77c0,1.59,1.3,2.89,2.89,2.89h.72v2.16c0,2.38,1.95,4.33,4.33,4.33v28.14c-2.38,0-4.33,1.95-4.33,4.33v2.16h-.72c-1.59,0-2.89,1.3-2.89,2.89v6.49c0,1.59,1.3,2.89,2.89,2.89h82.27c1.59,0,2.89-1.3,2.89-2.89v-6.49c0-1.59-1.3-2.89-2.89-2.89h-.72v-2.16c0-2.38-1.95-4.33-4.33-4.33v-28.14c2.38,0,4.33-1.95,4.33-4.33v-2.16h.72c1.59,0,2.89-1.3,2.89-2.89v-5.77c0-1.59-1.3-2.89-2.89-2.89ZM17.47,40.38l37.53-14.58,37.53,14.58v6.93H17.47v-6.93ZM77.37,65.35v28.14c-2.38,0-4.33,1.95-4.33,4.33v2.16h-36.08v-2.16c0-2.38-1.95-4.33-4.33-4.33v-28.14c2.38,0,4.33-1.95,4.33-4.33v-2.16h36.08v2.16c0,2.38,1.95,4.33,4.33,4.33ZM17.47,61.02v-2.16h16.6v2.16c0,.79-.65,1.44-1.44,1.44h-13.71c-.79,0-1.44-.65-1.44-1.44ZM21.8,65.35h7.94v28.14h-7.94v-28.14ZM17.47,97.83c0-.79.65-1.44,1.44-1.44h13.71c.79,0,1.44.65,1.44,1.44v2.16h-16.6v-2.16ZM96.13,109.37H13.87v-6.49h82.27v6.49ZM92.53,97.83v2.16h-16.6v-2.16c0-.79.65-1.44,1.44-1.44h13.71c.79,0,1.44.65,1.44,1.44ZM88.2,93.5h-7.94v-28.14h7.94v28.14ZM92.53,61.02c0,.79-.65,1.44-1.44,1.44h-13.71c-.79,0-1.44-.65-1.44-1.44v-2.16h16.6v2.16ZM13.87,55.97v-5.77h82.27v5.77H13.87Z"/>
  <path class="st0" d="M86.75,41.54h-49.79c-.79,0-1.44.65-1.44,1.44s.65,1.44,1.44,1.44h49.79c.79,0,1.44-.65,1.44-1.44s-.65-1.44-1.44-1.44Z"/>
  <path class="st0" d="M71.81,38.65c.72.29,1.59-.07,1.88-.79s-.07-1.59-.79-1.88l-17.39-6.78c-.36-.14-.72-.14-1.08,0l-31.75,12.48c-.72.29-1.08,1.15-.79,1.88.22.58.79.94,1.37.94.14,0,.36,0,.51-.07l31.25-12.27,16.81,6.5Z"/>
  <path class="st0" d="M46.34,81.23c-.58.58-.58,1.44,0,2.02s1.44.58,2.02,0c3.68-3.68,9.6-3.68,13.28,0,.29.29.65.43,1.01.43s.72-.14,1.01-.43c.58-.58.58-1.44,0-2.02-4.76-4.76-12.56-4.76-17.32,0Z"/>
  <path class="st0" d="M55,71.13c-4.98,0-9.74,1.95-13.28,5.48-.58.58-.58,1.44,0,2.02.29.29.65.43,1.01.43s.72-.14,1.01-.43c3.03-2.96,7-4.62,11.26-4.62s8.23,1.66,11.26,4.62c.58.58,1.44.58,2.02,0s.58-1.44,0-2.02c-3.54-3.54-8.23-5.48-13.28-5.48Z"/>
  <path class="st0" d="M37.17,72.07c-.58.58-.58,1.44,0,2.02s1.44.58,2.02,0c8.73-8.73,22.95-8.73,31.61,0,.29.29.65.43,1.01.43s.72-.14,1.01-.43c.58-.58.58-1.44,0-2.02-9.81-9.89-25.84-9.89-35.65,0Z"/>
  <path class="st0" d="M50.89,85.78c-2.24,2.24-2.24,5.92,0,8.15,1.15,1.15,2.6,1.66,4.11,1.66s2.96-.58,4.11-1.66c2.24-2.24,2.24-5.92,0-8.15-2.31-2.24-5.92-2.24-8.23,0ZM57.02,91.91c-1.15,1.15-2.96,1.15-4.11,0s-1.15-2.96,0-4.11c.65-.51,1.37-.79,2.09-.79s1.44.29,2.02.87c1.15,1.08,1.15,2.96,0,4.04Z"/>
</svg>