<?xml version="1.0" encoding="UTF-8"?>
<svg id="Layer_1" xmlns="http://www.w3.org/2000/svg" version="1.1" viewBox="0 0 110 135">
  <!-- Generator: Adobe Illustrator 29.8.2, SVG Export Plug-In . SVG Version: 2.1.1 Build 3)  -->
  <path d="M77.85,30.42h3.87c1.46,0,2.65-1.19,2.65-2.65v-3.87c0-1.46-1.19-2.65-2.65-2.65h-3.87c-1.46,0-2.65,1.19-2.65,2.65v3.87c0,1.46,1.19,2.65,2.65,2.65ZM77.92,23.98h3.72v3.72h-3.72v-3.72ZM98.29,39.06h-2.92c-1.28,0-2.33,1.05-2.33,2.33v2.92c0,1.28,1.05,2.33,2.33,2.33h2.92c1.28,0,2.33-1.05,2.33-2.34v-2.92c0-1.28-1.05-2.33-2.33-2.33h0ZM97.89,43.92h-2.14v-2.14h2.14v2.14ZM93.65,33.29h4.2c1.52,0,2.76-1.24,2.76-2.76v-4.2c0-1.52-1.24-2.76-2.76-2.76h-4.2c-1.52,0-2.76,1.24-2.76,2.76v4.2c0,1.52,1.24,2.76,2.76,2.76ZM93.61,26.33s.02-.04.04-.04h4.2s.04.02.04.04v4.2s-.02.04-.04.04h-4.2s-.04-.02-.04-.04v-4.2ZM91.42,95.34c0-1.69-1.38-3.07-3.07-3.07h-5.13c-.79,0-1.51.31-2.06.8l-7.02-7.02c3.47-3.82,5.8-8.55,6.71-13.63h2.89c1.49,0,2.71-1.22,2.71-2.71v-4.06c0-1.49-1.22-2.71-2.71-2.71h-2.84c-.09-.52-.19-1.04-.31-1.55.16-.32.26-.69.26-1.07v-3.06c0-1.31-1.06-2.38-2.38-2.38h-.25c-1.1-2.14-2.48-4.12-4.09-5.9l7.05-7.05c.54.5,1.27.8,2.06.8h5.13c1.69,0,3.07-1.38,3.07-3.07v-5.13c0-1.69-1.38-3.07-3.07-3.07h-5.13c-1.69,0-3.07,1.38-3.07,3.07v4.57l-7.96,7.96c-1.12-1.01-2.32-1.94-3.6-2.76-4.12-2.65-8.84-4.14-13.73-4.35v-15.2c0-.75-.6-1.36-1.36-1.36h-4.66c-1.57,0-2.9,1.02-3.3,2.54l-1.87,7.1c-2.64.75-5.2,1.81-7.61,3.16l-6.35-3.7c-1.36-.79-3.02-.58-4.13.53l-6.59,6.59c-1.11,1.11-1.33,2.77-.53,4.13l3.7,6.35c-1.34,2.41-2.4,4.96-3.16,7.61l-7.1,1.87c-1.52.4-2.54,1.73-2.54,3.3v9.32c0,1.57,1.02,2.9,2.54,3.3l7.1,1.87c.75,2.64,1.81,5.2,3.16,7.61l-3.7,6.35c-.79,1.36-.58,3.02.53,4.13l6.59,6.59c1.11,1.11,2.77,1.33,4.13.53l6.35-3.7c2.41,1.34,4.96,2.4,7.61,3.16l1.87,7.1c.4,1.52,1.73,2.54,3.3,2.54h4.66c.75,0,1.36-.61,1.36-1.36v-15.2c6.29-.27,12.3-2.68,17.04-6.86.1-.09.2-.18.29-.26l7.94,7.94v4.57c0,1.69,1.38,3.07,3.07,3.07h5.13c1.69,0,3.07-1.38,3.07-3.07v-5.13ZM69.85,81.76c.26-.53.4-1.13.4-1.76,0-1.43-.74-2.69-1.86-3.42.5-2.56.77-5.24.83-7.97,2.61.2,5.19.44,7.75.74v.35c0,.94.48,1.76,1.2,2.25-.84,4.65-2.96,8.81-5.97,12.16l-2.34-2.34ZM50.83,70.89c-.3,0-.53-.24-.53-.53v-5.69c0-.3.24-.53.53-.53h5.69c.3,0,.53.24.53.53v5.69c0,.3-.24.53-.53.53h-5.69ZM57.64,61.62c-.35-.13-.73-.21-1.13-.21h-.76c0-.12,0-.24,0-.36.97-.08,1.93-.22,2.87-.41l-.98.98ZM51.67,42.95c.6,5.19,1.02,10.36,1.25,15.46-3.69-.12-7.22-1.16-10.43-3.01.77-2.63,1.79-4.99,3.02-6.97,1.79-2.88,3.92-4.76,6.15-5.48h0ZM53.03,61.13c0,.1,0,.19,0,.28h-2.21c-1.8,0-3.26,1.46-3.26,3.26v.75c-1.35.04-2.72.1-4.08.17-.26-1.35-1.18-2.46-2.41-2.99.16-1.54.4-3.03.71-4.47,3.47,1.87,7.27,2.9,11.22,3h0ZM39.49,64.99c.75,0,1.36.61,1.36,1.36s-.61,1.36-1.36,1.36-1.36-.61-1.36-1.36.61-1.36,1.36-1.36ZM40.92,70.18c.92-.34,1.68-1,2.15-1.85,1.51-.08,3.02-.14,4.52-.19v2.21c0,1.8,1.46,3.26,3.26,3.26h2.23c0,.1,0,.19,0,.28-3.92.1-7.76,1.14-11.25,3.02-.46-2.13-.76-4.4-.89-6.73h0ZM52.96,76.61c-.22,5.21-.65,10.39-1.28,15.47-2.42-.76-4.7-2.89-6.58-6.18-1.06-1.84-1.92-3.96-2.6-6.26,3.23-1.86,6.8-2.9,10.46-3.03h0ZM55.79,73.61h.73c.4,0,.77-.08,1.13-.21l.98.98c-.94-.19-1.89-.33-2.85-.41,0-.12,0-.24,0-.36h0ZM65.74,75.94c-.47.05-.92.18-1.34.38l-4.84-4.84c.13-.35.21-.73.21-1.13v-2.23c2.25.06,4.49.16,6.73.3-.05,2.58-.3,5.1-.76,7.52h0ZM59.77,65.39v-.73c0-.4-.08-.77-.21-1.13l4.84-4.84c.41.2.86.33,1.34.38.41,2.13.65,4.34.74,6.61-2.23-.13-4.46-.23-6.7-.3h0ZM67.53,55.02c0,.75-.61,1.36-1.36,1.36s-1.36-.61-1.36-1.36.61-1.36,1.36-1.36,1.36.61,1.36,1.36ZM62.08,55.02c0,.56.11,1.1.32,1.59-2.18.94-4.44,1.51-6.76,1.72-.23-5.16-.66-10.41-1.27-15.67,3.55.39,6.91,3.74,9.22,9.19-.93.75-1.52,1.9-1.52,3.17h0ZM40.12,53.83c-1.47-1.09-2.84-2.38-4.1-3.84,2.62-2.64,5.81-4.69,9.39-5.95-2.19,2.41-4.01,5.76-5.28,9.79ZM34.19,52.04c1.58,1.78,3.3,3.31,5.15,4.58-.43,1.83-.76,3.78-.97,5.81-1.65.47-2.87,1.94-2.96,3.71-2.19.19-4.4.41-6.62.67.16-5.57,2.15-10.69,5.39-14.77h0ZM36.23,68.8c.49.65,1.17,1.16,1.97,1.42.15,2.85.55,5.6,1.16,8.18-1.04.71-2.04,1.51-3,2.38-.52-.23-1.08-.37-1.69-.37-.71,0-1.38.18-1.96.51-2.21-3.43-3.51-7.31-3.84-11.38,2.46-.28,4.93-.53,7.36-.74h0ZM34.68,83.14c.75,0,1.36.61,1.36,1.36s-.61,1.36-1.36,1.36-1.36-.61-1.36-1.36.61-1.36,1.36-1.36ZM38.33,82.67c.58-.53,1.18-1.02,1.8-1.48.7,2.21,1.58,4.25,2.61,6.06.82,1.43,1.71,2.68,2.67,3.73-2.67-.94-5.17-2.33-7.39-4.14.47-.66.74-1.48.74-2.35,0-.66-.16-1.28-.43-1.83h0ZM54.39,92.35c.63-5.14,1.06-10.38,1.29-15.66,2.31.21,4.56.78,6.73,1.71-.21.49-.32,1.03-.32,1.59,0,1.28.59,2.42,1.51,3.17-2.3,5.44-5.66,8.79-9.2,9.19h0ZM66.17,81.36c-.75,0-1.36-.61-1.36-1.36s.61-1.36,1.36-1.36,1.36.61,1.36,1.36-.61,1.36-1.36,1.36ZM75.76,57.6h2.37v2.37h-2.37v-2.37ZM83.73,69.69h-4.05s0-4.04,0-4.04h4.05s0,4.04,0,4.04ZM75.13,54.89c-1.17.14-2.09,1.15-2.09,2.36v3.06c0,1.31,1.06,2.38,2.38,2.38h2.67c.04.22.09.45.12.68-.75.48-1.25,1.32-1.25,2.28v.97c-2.56-.3-5.16-.54-7.76-.74-.08-2.55-.35-5.04-.82-7.43,1.12-.73,1.86-1.99,1.86-3.42,0-.63-.14-1.23-.4-1.76l2.35-2.35c1.09,1.23,2.08,2.56,2.92,3.99h0ZM83.24,34.18h5.13c.19,0,.35.16.35.35v5.13c0,.19-.16.35-.35.35h-5.13c-.19,0-.35-.16-.35-.35v-5.14c0-.19.16-.35.35-.35ZM70.27,48.99l-2.35,2.35c-.53-.26-1.13-.4-1.76-.4h0c-1.16-2.77-2.6-5.1-4.22-6.88,3.08,1.09,5.91,2.77,8.34,4.94h0ZM48.86,108.92c-.33,0-.58-.2-.67-.52l-2.07-7.86c-.12-.47-.5-.84-.97-.97-2.93-.76-5.75-1.93-8.38-3.48-.42-.25-.95-.25-1.37,0l-7.03,4.1c-.28.17-.61.12-.84-.11l-6.59-6.59c-.23-.23-.27-.55-.11-.84l4.1-7.03c.25-.42.25-.95,0-1.37-1.54-2.63-2.71-5.44-3.48-8.38-.12-.47-.5-.85-.97-.97l-7.86-2.07c-.32-.09-.52-.34-.52-.67v-9.32c0-.33.2-.58.52-.67l7.86-2.07c.47-.12.85-.5.97-.97.76-2.94,1.93-5.76,3.48-8.38.25-.42.25-.95,0-1.37l-4.1-7.03c-.17-.28-.12-.61.11-.84l6.59-6.59c.23-.23.55-.27.84-.11l7.03,4.1c.42.25.95.25,1.37,0,2.63-1.54,5.45-2.71,8.38-3.48.48-.12.85-.49.97-.97l2.07-7.86c.09-.32.34-.52.67-.52h3.3v13.85c-14.52.82-26.09,12.88-26.09,27.58,0,5.6,1.66,10.96,4.79,15.54-.17.45-.26.94-.26,1.44,0,2.25,1.83,4.08,4.08,4.08.35,0,.69-.04,1.02-.13,4.62,3.97,10.39,6.29,16.46,6.62v13.85h-3.3ZM61.93,90.98c1.63-1.79,3.07-4.12,4.24-6.9h0c.63,0,1.23-.14,1.76-.4l2.34,2.34c-2.42,2.17-5.26,3.86-8.35,4.96h0ZM88.7,100.48c0,.19-.16.35-.35.35h-5.13c-.19,0-.35-.16-.35-.35v-5.13c0-.19.16-.35.35-.35h5.13c.19,0,.35.16.35.35v5.13ZM81.7,104.58h-3.87c-1.46,0-2.65,1.19-2.65,2.65v3.87c0,1.46,1.19,2.65,2.65,2.65h3.87c1.46,0,2.65-1.19,2.65-2.65v-3.87c0-1.46-1.19-2.65-2.65-2.65ZM81.62,111.02h-3.72v-3.72h3.72v3.72ZM98.27,88.36h-2.92c-1.28,0-2.33,1.05-2.33,2.33v2.92c0,1.28,1.05,2.33,2.33,2.33h2.92c1.28,0,2.33-1.05,2.33-2.33v-2.92c0-1.29-1.05-2.33-2.33-2.33ZM97.88,93.22h-2.14v-2.14h2.14v2.14ZM97.83,101.71h-4.2c-1.52,0-2.76,1.24-2.76,2.76v4.2c0,1.52,1.24,2.76,2.76,2.76h4.2c1.52,0,2.76-1.24,2.76-2.76v-4.2c0-1.52-1.24-2.76-2.76-2.76ZM97.87,108.67s-.02.04-.04.04h-4.2s-.04-.02-.04-.04v-4.2s.02-.04.04-.04h4.2s.04.02.04.04v4.2ZM91.57,68.94h-2.31c-1.17,0-2.13.95-2.13,2.13v2.31c0,1.17.95,2.13,2.13,2.13h2.31c1.17,0,2.13-.95,2.13-2.13v-2.31c0-1.17-.95-2.13-2.13-2.13ZM90.98,72.78h-1.12v-1.12h1.12v1.12ZM91.23,56.7h-3.32c-1.36,0-2.47,1.11-2.47,2.47v3.32c0,1.36,1.11,2.47,2.47,2.47h3.32c1.36,0,2.47-1.11,2.47-2.47v-3.32c0-1.36-1.11-2.47-2.47-2.47ZM90.97,62.23h-2.81v-2.81h2.81v2.81Z"/>
</svg>