<?xml version="1.0" encoding="UTF-8"?>
<svg id="Layer_1" xmlns="http://www.w3.org/2000/svg" version="1.1" xmlns:x="http://ns.adobe.com/Extensibility/1.0/" viewBox="0 0 100 125">
  <!-- Generator: Adobe Illustrator 29.8.2, SVG Export Plug-In . SVG Version: 2.1.1 Build 3)  -->
  <defs>
    <style>
      .st0 {
        stroke: #000;
        stroke-miterlimit: 10;
        stroke-width: .75px;
      }
    </style>
  </defs>
  <path class="st0" d="M7.38,36.63h16.29c.6,0,1.09-.49,1.09-1.09v-16.29c0-.6-.49-1.09-1.09-1.09H7.38c-.6,0-1.09.49-1.09,1.09v16.29c0,.6.49,1.09,1.09,1.09ZM8.47,20.34h14.11v14.11h-14.11v-14.11ZM75.06,36.63h18.8s.01,0,.02,0c.6,0,1.09-.49,1.09-1.09,0-.26-.09-.5-.24-.69l-9.32-16.15c-.19-.34-.56-.55-.94-.55h0c-.39,0-.75.21-.94.55l-9.4,16.29c-.2.34-.2.75,0,1.09.19.34.55.55.94.55ZM84.46,21.43l7.51,13.02h-15.02l7.51-13.02ZM85.71,88.37c-5.08,0-9.22,4.14-9.22,9.24s4.13,9.24,9.22,9.24,9.24-4.14,9.24-9.24c0-5.09-4.14-9.24-9.24-9.24ZM85.71,104.66c-3.88,0-7.03-3.17-7.03-7.06s3.15-7.05,7.03-7.05,7.06,3.17,7.06,7.05-3.17,7.06-7.06,7.06ZM16.32,85.12c-.43-.43-1.12-.43-1.54,0l-9.42,9.42c-.2.21-.32.48-.32.77s.12.57.32.77l9.42,9.4c.21.21.49.32.77.32s.56-.11.77-.32l9.42-9.4c.21-.21.32-.48.32-.77s-.11-.57-.32-.77l-9.42-9.42ZM15.55,103.17l-7.88-7.86,7.88-7.88,7.88,7.88-7.88,7.86ZM65.26,78.68l.36.36h0s10.98,10.98,10.98,10.98c.21.21.49.32.77.32s.56-.11.77-.32c.43-.43.43-1.12,0-1.54l-10.66-10.66v-1.47c3.1-3.77,4.97-8.6,4.97-13.85,0-6.13-2.62-11.84-6.91-15.89l6.64-6.64c.43-.43.43-1.12,0-1.54-.43-.43-1.12-.43-1.54,0l-6.76,6.76c-2.02-1.56-4.32-2.78-6.84-3.55-1.6-1.73-3.88-2.82-6.42-2.82s-4.83,1.09-6.43,2.83c-3.1.96-5.87,2.59-8.19,4.69l-7.91-7.89c-.43-.42-1.12-.42-1.54,0-.43.43-.42,1.12,0,1.54l7.91,7.89c-3.55,3.93-5.68,9.1-5.68,14.61,0,4.99,1.69,9.59,4.51,13.27l-11.35,11.35c-.43.43-.43,1.12,0,1.54.21.21.49.32.77.32s.56-.11.77-.32l11.22-11.22c1.66,1.77,3.62,3.26,5.78,4.4.08.06.17.1.27.14,2.96,1.5,6.31,2.36,9.85,2.36s6.86-.85,9.82-2.34c.13-.04.25-.1.36-.18,1.62-.86,3.12-1.91,4.47-3.12ZM50.62,41c3.63,0,6.58,2.95,6.58,6.58s-2.95,6.58-6.58,6.58-6.58-2.95-6.58-6.58c0-1.64.6-3.13,1.6-4.29,0,0,0,0,.01-.01,1.21-1.4,2.98-2.28,4.97-2.28ZM42.36,44.69c-.32.91-.5,1.88-.5,2.89,0,4.83,3.93,8.76,8.76,8.76s8.76-3.93,8.76-8.76c0-1.02-.18-1.99-.51-2.9,6.83,3.18,11.4,10.14,11.4,17.82,0,3.68-1.02,7.13-2.79,10.08v-.55c0-8.11-6.6-14.7-14.71-14.7h-4.32c-8.11,0-14.71,6.6-14.71,14.7v.55c-1.77-2.95-2.79-6.4-2.79-10.08,0-7.67,4.56-14.62,11.39-17.8ZM42.22,80.26v-11.39c0-.6-.49-1.09-1.09-1.09s-1.09.49-1.09,1.09v10.18c-1.52-.98-2.91-2.16-4.11-3.51v-3.52c0-6.9,5.62-12.52,12.52-12.52h4.32c6.9,0,12.52,5.62,12.52,12.52v3.52c-1.19,1.34-2.57,2.52-4.08,3.49v-10.16c0-.6-.49-1.09-1.09-1.09s-1.09.49-1.09,1.09v11.38c-2.55,1.22-5.41,1.9-8.42,1.9-3,0-5.85-.68-8.39-1.89Z"/>
</svg>