<?xml version="1.0" encoding="UTF-8"?>
<svg id="Layer_1" xmlns="http://www.w3.org/2000/svg" version="1.1" viewBox="0 0 64 80">
  <!-- Generator: Adobe Illustrator 29.8.2, SVG Export Plug-In . SVG Version: 2.1.1 Build 3)  -->
  <defs>
    <style>
      .st0 {
        stroke: #000;
        stroke-miterlimit: 10;
        stroke-width: .25px;
      }
    </style>
  </defs>
  <path class="st0" d="M32.89,45.33h-1.78c-.49,0-.89.4-.89.89s.4.89.89.89h1.78c.49,0,.89-.4.89-.89s-.4-.89-.89-.89Z"/>
  <path class="st0" d="M47.58,40.14l-15.1-9.77c-.29-.19-.67-.19-.97,0l-15.1,9.77c-.25.16-.41.44-.41.75v4.44c0,.49.4.89.89.89h2.66v10.66h-.89c-.49,0-.89.4-.89.89v3.55c0,.49.4.89.89.89h26.65c.49,0,.89-.4.89-.89v-3.55c0-.49-.4-.89-.89-.89h-.89v-10.66h2.66c.49,0,.89-.4.89-.89v-4.44c0-.3-.15-.58-.41-.75ZM44.43,60.43h-24.87v-1.78h24.87v1.78ZM33.78,56.88h-3.55v-7.11h3.55v7.11ZM35.55,56.88v-7.99c0-.49-.4-.89-.89-.89h-5.33c-.49,0-.89.4-.89.89v7.99h-7.11v-13.72l10.66-6.68,10.66,6.68v13.72h-7.11ZM46.21,44.44h-1.78v-1.78c0-.31-.16-.59-.42-.75l-11.55-7.24c-.29-.18-.65-.18-.94,0l-11.55,7.24c-.26.16-.42.45-.42.75v1.78h-1.78v-3.07l14.21-9.2,14.21,9.2v3.07Z"/>
  <path class="st0" d="M26.67,48.88h-3.55c-.49,0-.89.4-.89.89v3.55c0,.49.4.89.89.89h3.55c.49,0,.89-.4.89-.89v-3.55c0-.49-.4-.89-.89-.89ZM25.78,52.43h-1.78v-1.78h1.78v1.78Z"/>
  <path class="st0" d="M40.88,48.88h-3.55c-.49,0-.89.4-.89.89v3.55c0,.49.4.89.89.89h3.55c.49,0,.89-.4.89-.89v-3.55c0-.49-.4-.89-.89-.89ZM39.99,52.43h-1.78v-1.78h1.78v1.78Z"/>
  <path class="st0" d="M57.76,38.22c-1.16,0-2.13.74-2.5,1.78h-4.6c-.49,0-.89.4-.89.89s.4.89.89.89h4.61c.37,1.03,1.34,1.78,2.5,1.78,1.47,0,2.66-1.2,2.66-2.66s-1.2-2.66-2.66-2.66ZM57.76,41.78c-.49,0-.89-.4-.89-.89s.4-.89.89-.89.89.4.89.89-.4.89-.89.89Z"/>
  <path class="st0" d="M31.11,22.96v4.61c0,.49.4.89.89.89s.89-.4.89-.89v-4.6c1.03-.37,1.78-1.34,1.78-2.5,0-1.47-1.2-2.66-2.66-2.66s-2.66,1.2-2.66,2.66c0,1.16.74,2.13,1.78,2.5ZM32,19.57c.49,0,.89.4.89.89s-.4.89-.89.89-.89-.4-.89-.89.4-.89.89-.89Z"/>
  <path class="st0" d="M49.76,29.34c1.47,0,2.66-1.2,2.66-2.66s-1.2-2.66-2.66-2.66-2.66,1.2-2.66,2.66c0,.41.1.8.27,1.14,0,0,0,0,0,0l-3.55,3.55c-.35.35-.35.91,0,1.26.17.17.4.26.63.26s.45-.09.63-.26l3.55-3.55s0,0,0,0c.35.17.73.27,1.14.27ZM49.76,25.79c.49,0,.89.4.89.89s-.4.89-.89.89-.89-.4-.89-.89.4-.89.89-.89Z"/>
  <path class="st0" d="M13.35,40h-4.6c-.37-1.03-1.34-1.78-2.5-1.78-1.47,0-2.66,1.2-2.66,2.66s1.2,2.66,2.66,2.66c1.16,0,2.13-.75,2.5-1.78h4.6c.49,0,.89-.4.89-.89s-.4-.89-.89-.89ZM6.24,41.78c-.49,0-.89-.4-.89-.89s.4-.89.89-.89.89.4.89.89-.4.89-.89.89Z"/>
  <path class="st0" d="M18.94,32.63c.17.17.4.26.63.26s.45-.09.63-.26c.35-.35.35-.91,0-1.26l-3.55-3.55s0,0,0,0c.17-.35.27-.73.27-1.14,0-1.47-1.2-2.66-2.66-2.66s-2.66,1.2-2.66,2.66,1.2,2.66,2.66,2.66c.41,0,.8-.1,1.14-.27,0,0,0,0,0,0l3.55,3.55ZM14.24,27.57c-.49,0-.89-.4-.89-.89s.4-.89.89-.89.89.4.89.89-.4.89-.89.89Z"/>
</svg>