<?xml version="1.0" encoding="UTF-8"?>
<svg id="Layer_1" xmlns="http://www.w3.org/2000/svg" version="1.1" viewBox="0 0 110 135">
  <!-- Generator: Adobe Illustrator 29.8.2, SVG Export Plug-In . SVG Version: 2.1.1 Build 3)  -->
  <defs>
    <style>
      .st0 {
        fill-rule: evenodd;
        stroke: #000;
        stroke-miterlimit: 10;
        stroke-width: .5px;
      }
    </style>
  </defs>
  <path class="st0" d="M23.69,72.83l-9.67,2.59c-.44.11-.81.39-1.04.79s-.29.86-.18,1.29l3,11.07c.24.9,1.17,1.43,2.07,1.2l9.69-2.6-3.87-14.34ZM28.46,89.73l7,14.42c.09.19.19.37.31.54.5.58,1.06,1.1,1.67,1.56.16.13.26.32.28.53.02.21-.05.41-.18.57l-2.61,2c-.18.13-.4.19-.62.15-.22-.04-.41-.17-.52-.36l-7.69-12.54c-.36-.6-.9-1.07-1.54-1.36-.37-.16-2.66-1.16-2.81-1.29-.15-.13-1.18-1.74-1.39-2l8.1-2.17v-.05ZM13.29,72.79l2.32-.62h0c-.3-.57-.45-1.2-.45-1.85v-10.17c0-1.49.83-2.85,2.16-3.52l1.79-.93c.75-.39,1.58-.59,2.42-.59h3.49c.62-2,1.42-3.93,2.39-5.78l-2.44-2.44h0c-.59-.59-1.04-1.32-1.29-2.12l-.66-1.92c-.45-1.42-.06-2.96,1-4l7.19-7.19c1.04-1.06,2.58-1.45,4-1l1.93.62c.8.25,1.53.69,2.12,1.29l2.44,2.44c1.85-.98,3.79-1.78,5.78-2.4v-3.44c-.02-.84.16-1.66.54-2.41l1-1.8c.67-1.33,2.04-2.16,3.53-2.15h10.12c1.49-.01,2.86.82,3.53,2.15l.93,1.8c.39.74.59,1.57.58,2.41v3.45c2,.62,3.93,1.42,5.78,2.4l2.44-2.44c.58-.59,1.3-1.04,2.09-1.29l2-.62c1.41-.45,2.96-.06,4,1l7.19,7.19h0c1.06,1.04,1.45,2.58,1,4l-.62,1.92c-.25.8-.69,1.53-1.29,2.12l-2.44,2.44c.98,1.85,1.78,3.78,2.39,5.78h3.46c.84,0,1.66.2,2.41.59l1.8.93h0c1.3.68,2.12,2.04,2.1,3.51v10.17c.01,1.49-.82,2.86-2.15,3.53l-1.8.92h0c-.75.38-1.57.59-2.41.59h-3.46c-.61,2-1.41,3.93-2.39,5.78l2.44,2.44h0c.6.59,1.04,1.32,1.29,2.12l.62,1.93c.45,1.42.06,2.96-1,4l-7.14,7.2c-1.04,1.06-2.59,1.45-4,1l-2-.65c-.8-.25-1.53-.69-2.12-1.28l-2.41-2.4c-1.84.98-3.78,1.79-5.78,2.4v3.4c0,.84-.2,1.66-.58,2.41l-.93,1.79c-.67,1.33-2.04,2.16-3.53,2.15h-10.16c-1.47,0-2.82-.83-3.49-2.15l-1-1.79c-.39-.74-.59-1.57-.59-2.41v-3.45c-1.98-.61-3.9-1.39-5.74-2.35l-2.44,2.4c-.84.79-1.88,1.33-3,1.57l1.77,3.68c.6.51,1.18,1.05,1.73,1.61.55.75.79,1.68.65,2.6-.14.92-.64,1.75-1.38,2.3l-2.44,1.84c-.79.58-1.79.81-2.75.62-.96-.19-1.8-.78-2.32-1.62l-7.73-12.5h0c-.07-.14-.2-.24-.34-.3l-2.62-1.15c-.61-.27-1.12-.71-1.49-1.27l-1.8-2.78c-2.04.05-3.86-1.3-4.39-3.27l-3-11.07c-.63-2.36.77-4.78,3.12-5.41l.03.04ZM34.57,89.5h-3.21l1.81,3.72,1.24-.33c.11-.08.17-.21.18-.34v-3l-.02-.05ZM52.95,89.5c.45.68,1.05,1.24,1.75,1.65,1.71.99,3.84.91,5.48-.19,1.64-1.11,2.51-3.05,2.25-5.01,5.07-1.18,9.54-4.2,12.54-8.45,3-4.26,4.33-9.48,3.74-14.65-.59-5.18-3.06-9.96-6.95-13.43-3.88-3.47-8.91-5.39-14.12-5.41-5.21-.01-10.24,1.89-14.14,5.35-3.9,3.46-6.39,8.23-7,13.4l-12.35,7.12-5.64,1.52c-.18-.1-.33-.25-.44-.43-.11-.2-.17-.42-.17-.65v-10.17c-.02-.47.25-.9.67-1.11l1.8-.92h0c.36-.19.76-.29,1.17-.28h4.49c.65,0,1.21-.46,1.34-1.1.34-1.2.75-2.38,1.22-3.53.49-1.18,1.06-2.34,1.69-3.45.29-.54.19-1.21-.25-1.63l-3.16-3.17h0c-.15-.14-.27-.29-.38-.47-.34-.8-.64-1.62-.87-2.47-.16-.45-.04-.94.31-1.26l7.19-7.19c.32-.34.82-.46,1.26-.31l1.93.62h0c.38.12.72.33,1,.62l3.16,3.17c.46.45,1.18.53,1.72.17,1.09-.62,2.21-1.16,3.37-1.64,1.18-.49,2.39-.91,3.62-1.25.59-.16,1-.7,1-1.31v-4.47c0-.2.02-.41.07-.6.33-.81.71-1.6,1.14-2.36.2-.45.64-.73,1.13-.71h10.16c.47-.02.91.25,1.11.68l.93,1.8c.21.36.31.77.31,1.19v4.47c0,.65.46,1.21,1.1,1.34,1.2.33,2.37.74,3.52,1.22,1.18.49,2.34,1.05,3.46,1.68.53.31,1.2.22,1.63-.22l3.13-3.16c.14-.14.3-.27.47-.38.81-.34,1.64-.62,2.48-.86.45-.16.94-.04,1.26.31l7.19,7.19h0c.34.32.46.81.31,1.26l-.62,1.92c-.12.38-.33.73-.63,1l-3.16,3.17h0c-.46.46-.52,1.2-.14,1.74.61,1.09,1.16,2.21,1.64,3.36.48,1.18.9,2.39,1.25,3.63.16.59.7,1,1.31,1h4.47c.2,0,.4.02.6.06.81.33,1.6.71,2.36,1.14.43.21.69.64.67,1.11v10.17c.02.47-.25.91-.67,1.11l-1.8.92c-.35.2-.75.29-1.16.28h-4.5c-.66,0-1.22.46-1.34,1.1-.34,1.2-.75,2.38-1.22,3.53-.49,1.18-1.05,2.34-1.69,3.45-.3.53-.21,1.2.22,1.63l3.16,3.16c.15.14.27.3.38.47.35.82.64,1.67.87,2.53.16.44.04.93-.31,1.25l-7.19,7.15c-.32.35-.82.47-1.26.31l-1.93-.62c-.38-.12-.72-.33-1-.62l-3.16-3.16c-.45-.45-1.16-.52-1.7-.17-1.09.61-2.21,1.15-3.36,1.63-1.19.48-2.4.89-3.64,1.23-.59.16-1,.7-1,1.31v4.49c0,.2-.02.4-.07.6-.32.81-.71,1.6-1.14,2.36-.2.43-.64.7-1.11.68h-10.19c-.47.02-.91-.25-1.11-.68l-.93-1.76c-.19-.36-.29-.76-.28-1.17v-4.5c0-.64-.47-1.2-1.1-1.33-1.2-.33-2.38-.74-3.52-1.22-1.18-.49-2.34-1.05-3.45-1.68-.54-.3-1.21-.21-1.64.22l-3.16,3.15c-.14.14-.3.27-.47.38-.59.27-1.2.48-1.83.65l-.63-1.31.73-.19c1.32-.39,2.22-1.62,2.2-3v-3h15.63ZM30.23,86.77l-4-15,18.78-10.82,6.92,25.82h-21.7ZM16.43,79.31h0c-.73.2-1.47-.24-1.67-.96-.19-.73.24-1.47.96-1.66l2.26-.6c.36-.09.73-.04,1.05.15.31.19.54.5.62.85.09.36.04.73-.15,1.05-.19.31-.5.54-.85.62l-2.26.6.03-.04ZM17.57,83.55h0c-.35.1-.73.04-1.04-.14-.32-.19-.54-.5-.62-.85-.09-.36-.04-.73.15-1.04.19-.32.49-.54.85-.63l2.26-.6h0c.73-.19,1.47.24,1.67.97.19.73-.24,1.47-.96,1.66l-2.26.6-.03.04ZM18.71,87.8c-.7.12-1.38-.31-1.57-1-.18-.69.2-1.41.87-1.64l2.26-.6c.72-.19,1.47.24,1.66.96.19.73-.24,1.47-.96,1.67l-2.25.61h-.01ZM67.82,67.27l-2.81.75c-.73.2-1.16.94-.96,1.66.19.73.94,1.16,1.66.96l2.79-.75c.73-.2,1.16-.94.96-1.67-.2-.73-.94-1.16-1.67-.96h.03ZM69.82,75.4l-2.5-1.44h0c-.64-.3-1.4-.05-1.75.56-.35.61-.18,1.39.41,1.79l2.5,1.44c.64.3,1.4.06,1.75-.55.35-.61.18-1.39-.41-1.8ZM63.8,60.5l-1.45,2.5c-.35.65-.11,1.46.52,1.82.64.37,1.45.16,1.84-.47l1.44-2.5c.21-.31.29-.7.21-1.07-.08-.37-.32-.69-.65-.88-.33-.19-.72-.23-1.09-.12-.36.12-.66.38-.82.72h0ZM60.12,77.18c.91-.77,1.3-1.99,1-3.14l-1.79-6.53c-.18-.85-.71-1.58-1.47-2-.31-.18-.65-.3-1-.36l3.21,12,.05.03ZM56.12,62.41h0c1.07-.03,2.14.25,3.07.79,1.34.77,2.31,2.05,2.72,3.54l1.77,6.6h0c.68,2.6-.49,5.34-2.85,6.63l.89,3.34c4.31-1,8.13-3.5,10.75-7.06s3.89-7.95,3.56-12.36c-.33-4.41-2.22-8.56-5.34-11.7-3.12-3.14-7.27-5.05-11.68-5.4-4.41-.35-8.8.89-12.38,3.5-3.58,2.61-6.1,6.41-7.12,10.72l5-2.88c.04-.81.28-1.6.69-2.3.68-1.19,1.81-2.06,3.14-2.41,1.32-.36,2.74-.17,3.93.52,1.19.69,2.06,1.82,2.42,3.14l1.43,5.36h0ZM53.82,64.34v-.14l-1.72-6.44h0c-.17-.63-.59-1.16-1.15-1.49-1.18-.67-2.68-.27-3.36.91-.32.56-.41,1.23-.25,1.86l7.58,28.26c.26.96,1.07,1.66,2.05,1.79.98.13,1.95-.34,2.45-1.2.34-.56.43-1.24.25-1.87l-5.85-21.68Z"/>
</svg>