<?xml version="1.0" encoding="UTF-8"?>
<svg id="Layer_1" xmlns="http://www.w3.org/2000/svg" version="1.1" viewBox="0 0 100 125">
  <!-- Generator: Adobe Illustrator 29.8.2, SVG Export Plug-In . SVG Version: 2.1.1 Build 3)  -->
  <defs>
    <style>
      .st0 {
        fill-rule: evenodd;
        stroke: #000;
        stroke-miterlimit: 10;
        stroke-width: .25px;
      }
    </style>
  </defs>
  <path class="st0" d="M59.74,63.77h-19.48v4.78h19.48v-4.78h0ZM40.26,61.23h19.48v-4.78h-19.48v4.78h0ZM58.16,57.56c1.68,0,1.68,2.55,0,2.55h-2.3c-1.68,0-1.68-2.55,0-2.55h2.3ZM52.53,57.56c1.68,0,1.68,2.55,0,2.55h-10.69c-1.68,0-1.68-2.55,0-2.55h10.69ZM38.99,53.89h22.03c.7,0,1.27.57,1.27,1.27v14.66c0,.7-.57,1.27-1.27,1.27h-22.03c-.7,0-1.27-.57-1.27-1.27v-14.66c0-.7.57-1.27,1.27-1.27h0ZM58.16,64.89c1.68,0,1.68,2.55,0,2.55h-2.3c-1.68,0-1.68-2.55,0-2.55h2.3ZM52.53,64.89c1.68,0,1.68,2.55,0,2.55h-10.69c-1.68,0-1.68-2.55,0-2.55h10.69ZM62.26,41.07l2.47-2.47c.5-.5,1.3-.5,1.8,0l7.37,7.37c.5.5.5,1.3,0,1.8l-2.47,2.47c1.04,1.82,1.84,3.74,2.39,5.77h3.49c.7,0,1.27.57,1.27,1.27v10.42c0,.7-.57,1.27-1.27,1.27h-3.49c-.55,2.03-1.35,3.96-2.39,5.77l2.47,2.47c.5.5.5,1.3,0,1.8l-7.37,7.37c-.5.5-1.3.5-1.8,0l-2.47-2.47c-1.82,1.04-3.74,1.84-5.77,2.39v3.49c0,.7-.57,1.27-1.27,1.27h-10.42c-.7,0-1.27-.57-1.27-1.27v-3.49c-2.03-.55-3.96-1.35-5.77-2.39l-2.47,2.47c-.5.5-1.3.5-1.8,0l-7.37-7.37c-.5-.5-.5-1.3,0-1.8l2.47-2.47c-1.04-1.82-1.85-3.75-2.39-5.77h-3.49c-.7,0-1.27-.57-1.27-1.27v-10.42c0-.7.57-1.27,1.27-1.27h3.49c.55-2.02,1.35-3.96,2.39-5.77l-2.47-2.47c-.5-.5-.5-1.3,0-1.8l7.37-7.37c.5-.5,1.3-.5,1.8,0l2.47,2.47c1.82-1.04,3.75-1.85,5.77-2.39v-3.49c0-.7.57-1.27,1.27-1.27h10.42c.7,0,1.27.57,1.27,1.27v3.49c2.02.55,3.96,1.35,5.77,2.39h0ZM65.63,41.3l5.57,5.57c-4.04,4.04-2.81,2.15-.73,7.16,2.08,5.02-.12,4.53,5.58,4.53v7.87c-5.71,0-3.5-.48-5.58,4.53-2.07,4.99-3.31,3.12.73,7.16l-5.57,5.57c-4.04-4.04-2.15-2.81-7.16-.73-5.02,2.08-4.54-.12-4.54,5.58h-7.87c0-5.71.48-3.5-4.53-5.58-4.99-2.07-3.12-3.31-7.16.73l-5.57-5.57,2.27-2.27c1.35-1.35-1.33-2.51-2.67-8.43-.13-.58-.65-1-1.24-1h-3.21v-7.87h3.21c1.91,0,.83-2.68,4.08-7.85.32-.5.25-1.16-.17-1.58l-2.27-2.27,5.57-5.57,2.27,2.27c1.35,1.35,2.5-1.33,8.43-2.67.58-.13,1-.65,1-1.24v-3.21h7.87v3.21c0,1.91,2.68.83,7.85,4.08.5.32,1.16.25,1.58-.17l2.27-2.27h0ZM50,43.72c16.67,0,25.08,20.25,13.28,32.05-11.8,11.8-32.05,3.4-32.05-13.28,0-10.37,8.41-18.78,18.78-18.78h0ZM61.47,51.03c6.34,6.34,6.34,16.61,0,22.95-10.2,10.2-27.7,2.94-27.7-11.47s17.51-21.67,27.7-11.47h0ZM21.85,50.79c-3.28,0-3.46-.9-5.54-2.98-1.11-1.02-1.94-1.27-3.43-1.27-1.44-4.3-7.85-3.24-7.85,1.27s6.41,5.58,7.85,1.27c.65,0,1.07-.01,1.58.47,2.63,2.63,3.37,3.78,7.4,3.78,1.68,0,1.68-2.55,0-2.55h0ZM10.09,46.76c1.38,1.38-.72,3.48-2.09,2.1-1.38-1.38.72-3.47,2.09-2.1h0ZM19.08,61.23c1.68,0,1.68,2.55,0,2.55h-4.96c-1.44,4.3-7.85,3.26-7.85-1.27s6.41-5.57,7.85-1.27h4.96ZM10.3,61.02c-1.95,0-1.95,2.96,0,2.96s1.95-2.96,0-2.96h0ZM9.05,78.67c1.95,0,1.95-2.96,0-2.96s-1.95,2.96,0,2.96h0ZM9.05,81.22c1.74,0,3.27-1.13,3.82-2.75,1.48,0,2.33-.26,3.43-1.27,2.08-2.08,2.26-2.98,5.54-2.98,1.68,0,1.68-2.55,0-2.55-6.75,0-5.6,4.25-8.98,4.25-1.43-4.29-7.85-3.27-7.85,1.27,0,2.22,1.81,4.03,4.03,4.03h0ZM78.15,53.34c.55,0,1.78-.12,2.82-.35,2.16-.49,3.01-1.86,4.53-3.38.53-.53.94-.52,1.63-.52,1.45,4.31,7.85,3.25,7.85-1.27s-6.41-5.57-7.85-1.27c-5,0-3.24,4.25-8.98,4.25-1.68,0-1.68,2.55,0,2.55h0ZM90.95,46.33c1.94,0,1.96,2.96,0,2.96s-1.95-2.96,0-2.96h0ZM80.92,63.77c-1.68,0-1.68-2.55,0-2.55h4.96c1.45-4.31,7.85-3.25,7.85,1.27s-6.4,5.58-7.85,1.27h-4.96ZM88.22,62.49c0,1.97,2.96,1.96,2.96.01s-2.94-1.95-2.96-.01h0ZM90.95,81.22c2.22,0,4.03-1.81,4.03-4.03,0-4.54-6.42-5.57-7.85-1.27-.7,0-1.11,0-1.63-.52-1.52-1.52-2.37-2.89-4.53-3.38-1.04-.23-2.26-.35-2.82-.35-1.68,0-1.68,2.55,0,2.55,5.73,0,3.99,4.25,8.98,4.25.55,1.63,2.08,2.75,3.82,2.75h0ZM90.95,78.67c-1.95,0-1.94-2.96,0-2.96s1.95,2.96,0,2.96h0ZM38.1,94.86h-16.71c-2.07,0-3.75-1.68-3.75-3.75v-11.17c0-1.68-2.55-1.68-2.55,0v11.17c0,3.46,2.84,6.3,6.3,6.3h16.71c1.68,0,1.68-2.55,0-2.55h0ZM51.95,94.86c1.68,0,1.68,2.55,0,2.55h-3.9c-1.68,0-1.68-2.55,0-2.55h3.9ZM82.36,79.94v11.17c0,2.06-1.69,3.75-3.75,3.75h-16.71c-1.68,0-1.68,2.55,0,2.55h16.71c3.46,0,6.3-2.84,6.3-6.3v-11.17c0-1.68-2.55-1.68-2.55,0h0ZM61.9,30.14h16.71c2.07,0,3.75,1.68,3.75,3.75v11.17c0,1.68,2.55,1.68,2.55,0v-11.17c0-3.46-2.84-6.3-6.3-6.3h-16.71c-1.68,0-1.68,2.55,0,2.55h0ZM48.05,30.14c-1.68,0-1.68-2.55,0-2.55h3.9c1.68,0,1.68,2.55,0,2.55h-3.9ZM17.64,45.06v-11.17c0-2.06,1.69-3.75,3.75-3.75h16.71c1.68,0,1.68-2.55,0-2.55h-16.71c-3.46,0-6.3,2.84-6.3,6.3v11.17c0,1.68,2.55,1.68,2.55,0Z"/>
</svg>