<?xml version="1.0" encoding="UTF-8"?>
<svg id="Layer_1" xmlns="http://www.w3.org/2000/svg" version="1.1" viewBox="0 0 110 135">
  <!-- Generator: Adobe Illustrator 29.8.2, SVG Export Plug-In . SVG Version: 2.1.1 Build 3)  -->
  <path d="M25.03,98.94c-.16,0-.29-.12-.29-.29,0-.83-.67-1.5-1.5-1.5s-1.5.67-1.5,1.5c0,1.81,1.48,3.29,3.29,3.29h1.25v1.02c0,.83.67,1.5,1.5,1.5s1.5-.67,1.5-1.5v-1.02h1.22c1.83,0,3.31-1.47,3.31-3.29v-1.47c0-1.55-1.1-2.91-2.59-3.22l-1.95-.44v-3.04h1.22c.17,0,.31.13.31.29,0,.83.67,1.5,1.5,1.5s1.5-.67,1.5-1.5c0-1.81-1.49-3.29-3.31-3.29h-1.22v-1.02c0-.83-.67-1.5-1.5-1.5s-1.5.67-1.5,1.5v1.02h-1.25c-1.81,0-3.29,1.47-3.29,3.29v1.5c0,1.57,1.06,2.88,2.56,3.19l1.98.45v3.03h-1.25ZM29.28,96.6l1.31.3c.12.03.22.15.22.29v1.47c0,.16-.14.29-.31.29h-1.22v-2.34ZM24.94,92.54c-.18-.04-.19-.2-.19-.26v-1.5c0-.16.12-.29.29-.29h1.25v2.35l-1.34-.3ZM27.78,109.6c8.19,0,14.85-6.68,14.85-14.88s-6.66-14.85-14.85-14.85-14.88,6.66-14.88,14.85,6.67,14.88,14.88,14.88ZM27.78,82.87c6.54,0,11.85,5.32,11.85,11.85s-5.32,11.88-11.85,11.88-11.88-5.33-11.88-11.88,5.33-11.85,11.88-11.85ZM27.78,116.49c11.68,0,21.23-9.24,21.74-20.79,1.8.35,3.63.53,5.47.53,11.65,0,21.68-6.97,26.18-16.96.09-.13.15-.28.2-.43,1.5-3.48,2.33-7.3,2.33-11.32,0-1.82-.18-3.65-.52-5.47,11.56-.52,20.81-10.07,20.81-21.74s-9.78-21.8-21.8-21.8-21.23,9.25-21.74,20.81c-1.82-.34-3.65-.52-5.47-.52-11.65,0-21.68,6.97-26.19,16.96-.09.13-.15.28-.2.43-1.5,3.48-2.33,7.3-2.33,11.32,0,1.83.18,3.66.52,5.47-11.56.52-20.81,10.07-20.81,21.74s9.78,21.77,21.8,21.77h0ZM31.07,58.09h12.17c-.36,2.49-.59,5.14-.64,7.91h-13.27c.16-2.78.77-5.44,1.75-7.91h0ZM78.91,76.92h-12.17c.36-2.49.59-5.14.64-7.91h13.27c-.16,2.78-.77,5.44-1.74,7.91h0ZM53.49,79.92v12.91c-2.62-1.33-5.21-6.02-6.68-12.91h6.68ZM46.26,76.92c-.37-2.44-.61-5.09-.67-7.91h7.89v7.91h-7.23ZM56.49,92.83v-12.91h6.68c-1.47,6.88-4.06,11.57-6.68,12.91ZM56.49,76.92v-7.91h7.89c-.06,2.82-.3,5.48-.67,7.91h-7.23ZM63.72,58.09c.37,2.44.61,5.09.67,7.91h-7.89v-7.91s7.23,0,7.23,0ZM56.49,55.09v-12.91c2.62,1.33,5.21,6.02,6.68,12.91h-6.68ZM80.1,61.96c.29,1.34.48,2.7.55,4.05h-13.27c-.06-2.77-.28-5.42-.64-7.91h2.95c3,2.12,6.56,3.5,10.41,3.86h0ZM66.23,55.09s0-.03,0-.05c.02.02.03.03.04.05h-.04ZM53.49,42.19v12.91h-6.68c1.47-6.88,4.06-11.58,6.68-12.91ZM53.49,58.09v7.91h-7.89c.06-2.82.3-5.48.67-7.91h7.23ZM29.88,73.05c-.29-1.34-.48-2.69-.55-4.05h13.27c.06,2.77.28,5.42.64,7.91h-2.95c-3-2.12-6.56-3.5-10.41-3.87h0ZM43.76,79.92v.05s-.02-.03-.04-.05h.04ZM61.22,92.45c2.18-2.88,3.93-7.23,5-12.53h11.27c-3.41,6.16-9.28,10.78-16.28,12.53h0ZM82.21,21.5c10.36,0,18.8,8.43,18.8,18.8s-8.43,18.77-18.8,18.77-18.77-8.42-18.77-18.77,8.42-18.8,18.77-18.8ZM48.76,42.56c-2.18,2.88-3.93,7.23-5,12.53h-11.27c3.41-6.16,9.28-10.78,16.28-12.53h0ZM27.78,75.95c10.35,0,18.77,8.42,18.77,18.77s-8.42,18.77-18.77,18.77-18.8-8.42-18.8-18.77,8.43-18.77,18.8-18.77ZM79.48,44.52c-.16,0-.31-.15-.31-.31,0-.83-.67-1.5-1.5-1.5s-1.5.67-1.5,1.5c0,1.83,1.48,3.31,3.31,3.31h1.22v1c0,.83.67,1.5,1.5,1.5s1.5-.67,1.5-1.5v-1h1.25c1.81,0,3.29-1.49,3.29-3.31v-1.47c0-1.53-1.04-2.86-2.57-3.22l-1.96-.43v-3.04h1.25c.16,0,.29.14.29.31,0,.83.67,1.5,1.5,1.5s1.5-.67,1.5-1.5c0-1.83-1.48-3.31-3.29-3.31h-1.25v-1c0-.83-.67-1.5-1.5-1.5s-1.5.67-1.5,1.5v1h-1.22c-1.83,0-3.31,1.49-3.31,3.31v1.47c0,1.53,1.05,2.85,2.59,3.22l1.95.44v3.03h-1.22ZM83.71,42.15l1.29.28c.15.04.24.14.24.3v1.47c0,.17-.13.31-.29.31h-1.25v-2.37ZM79.44,38.13c-.12-.03-.27-.12-.27-.3v-1.47c0-.16.15-.31.31-.31h1.22v2.38l-1.27-.29ZM82.21,55.14c8.2,0,14.88-6.66,14.88-14.85s-6.68-14.88-14.88-14.88-14.85,6.68-14.85,14.88,6.66,14.85,14.85,14.85ZM82.21,28.41c6.55,0,11.88,5.33,11.88,11.88s-5.33,11.85-11.88,11.85-11.85-5.32-11.85-11.85,5.32-11.88,11.85-11.88ZM11.36,49.05c.19.41.54.71.98.83.13.04.26.05.39.05.31,0,.61-.1.87-.28l10.35-7.4c.47-.34.71-.92.61-1.49-.11-.57-.53-1.03-1.09-1.18l-2.21-.59c3.08-9.07,11.65-15.28,21.32-15.28.64,0,1.3.03,1.94.09.73.07,1.39-.4,1.58-1.1.19-.7-.14-1.44-.8-1.75-1.41-.68-2.85-1.2-4.26-1.57-2.16-.58-4.39-.87-6.61-.87-11.04,0-20.81,7.14-24.24,17.53l-2.31-.62c-.56-.15-1.16.04-1.53.48-.38.44-.46,1.06-.22,1.59l5.25,11.57ZM10.81,39.3c.8.21,1.62-.26,1.84-1.06,2.63-9.86,11.59-16.75,21.77-16.75.54,0,1.08.02,1.61.06-8.68,2.31-15.72,9.11-18.12,18.09-.1.38-.05.79.15,1.14s.53.6.91.7l.64.17-6.27,4.49-3.18-7.02.66.18ZM98.62,85.96c-.19-.41-.55-.71-.98-.83-.43-.11-.89-.03-1.26.23l-10.32,7.4c-.47.34-.7.92-.6,1.49s.53,1.03,1.09,1.18l2.19.59c-3.09,9.07-11.66,15.29-21.34,15.29-.64,0-1.29-.03-1.94-.09-.73-.07-1.39.4-1.58,1.1-.19.7.14,1.44.8,1.75,1.29.62,2.72,1.14,4.25,1.54,2.18.59,4.42.89,6.65.89h0c11.02,0,20.77-7.13,24.23-17.52l2.28.61c.13.04.26.05.39.05h.02c.83,0,1.5-.67,1.5-1.5,0-.3-.09-.59-.25-.82l-5.15-11.36ZM99.21,95.71c-.8-.22-1.62.26-1.84,1.06-2.65,9.85-11.61,16.73-21.77,16.73-.53,0-1.07-.02-1.6-.06,8.65-2.32,15.67-9.11,18.07-18.08.21-.8-.26-1.62-1.06-1.84l-.63-.17,6.26-4.49,3.18,7.01-.61-.17Z"/>
</svg>