<?xml version="1.0" encoding="UTF-8"?>
<svg id="Layer_1" xmlns="http://www.w3.org/2000/svg" version="1.1" viewBox="0 0 110 135">
  <!-- Generator: Adobe Illustrator 29.8.2, SVG Export Plug-In . SVG Version: 2.1.1 Build 3)  -->
  <defs>
    <style>
      .st0 {
        fill-rule: evenodd;
        stroke: #000;
        stroke-miterlimit: 10;
        stroke-width: .3px;
      }
    </style>
  </defs>
  <path class="st0" d="M97.6,38.98h-5.77v12.94h5.77v-12.94ZM89.43,38.84c0-.55-.66-1.03-1.43-1.59-2.05-1.49-4.61-3.36-3.44-9.11h0c.22-1.33-.02-2.13-.47-2.47-.21-.16-.49-.24-.79-.23-.37,0-.78.12-1.19.34-1.17.63-2.2,2.08-2.2,4.18v6.87c0,.66-.54,1.2-1.2,1.2h-7.98c-.12,0-.22,0-.3.02-.51.09-.94.43-1.24.84-.31.41-.48.85-.48,1.16,0,.04,0,.04,0,.05l1.83,10.14c.11.63.4,1.2.83,1.59.36.32.83.53,1.4.53h14.31c.66,0,1.28-.23,1.72-.61.38-.32.61-.75.61-1.22v-11.68h0ZM90.16,53.72c-.84.64-1.93,1.02-3.07,1.02h-14.31c-1.21,0-2.23-.44-3.01-1.16-.82-.75-1.36-1.8-1.57-2.94l-1.83-10.14c-.03-.16-.05-.32-.05-.46,0-.77.34-1.77.96-2.59.62-.84,1.55-1.54,2.73-1.75.25-.05.48-.07.71-.07h6.79v-5.68c0-3.11,1.62-5.3,3.46-6.29.75-.4,1.55-.61,2.31-.62.83,0,1.61.23,2.25.72,1.11.86,1.76,2.42,1.38,4.75,0,.03-.01.05-.02.08-.87,4.26,1,5.63,2.5,6.72.61.45,1.18.86,1.62,1.36.21-.07.43-.1.66-.1h6.05c.62,0,1.19.25,1.6.66.41.41.66.97.66,1.6v13.22c0,.62-.25,1.18-.66,1.59h0s0,0,0,0c-.41.41-.97.66-1.6.66h-6.05c-.59,0-1.12-.23-1.53-.6h0ZM68.93,87.11s-.02.07-.02.1c-.06.31-.23.59-.48.79-.24.2-.55.32-.88.32H26.81c-.06,0-.11,0-.17.01-.64.06-1.17.26-1.61.55-.53.36-.9.85-1.12,1.4-.09.22-.16.46-.2.71-.05.26-.07.5-.07.74s.02.48.07.74.11.49.2.71c.24.59.65,1.11,1.25,1.48.51.31,1.13.49,1.86.49h36.5c.38,0,.73.16.98.41s.41.6.41.98-.16.73-.41.98-.6.41-.98.41H27.02c-1.41,0-2.57-.36-3.48-.96-1.02-.67-1.75-1.64-2.19-2.75-.16-.39-.28-.8-.36-1.21s-.12-.84-.12-1.27.04-.85.12-1.27c.08-.41.2-.82.36-1.21.29-.71.69-1.36,1.21-1.92.48-.52,1.07-.95,1.75-1.25.51-.23.78-.76.69-1.29l-5.58-32.74c-.08-.49-.45-.86-.91-.97l-5.14-1.57c-.36-.11-.65-.36-.82-.67-.17-.31-.21-.69-.11-1.05.11-.36.36-.65.67-.82.31-.17.69-.21,1.05-.11l6.73,2.05c.25.07.46.22.63.41.17.2.29.43.33.68h0s1.46,8.58,1.46,8.58c.11.61.66,1.04,1.27.99l49.89-.1c.23,0,.43.04.61.13.17.09.33.22.47.39.14.18.23.36.26.55.04.19.03.4-.03.62l-6.86,25.91h0ZM78.1,61.81l-6.85,25.88c-.18.86-.64,1.62-1.29,2.16-.66.54-1.49.87-2.41.87H26.83c-.2.02-.35.07-.46.15-.12.08-.2.18-.25.3-.03.08-.05.16-.07.25s-.02.19-.02.32,0,.23.02.32.04.16.07.25c.05.13.14.25.27.32.14.09.35.14.62.14h36.5c1.04,0,1.99.42,2.67,1.11.68.68,1.11,1.63,1.11,2.67s-.42,1.99-1.11,2.67c-.68.68-1.63,1.11-2.67,1.11H27.02c-1.9,0-3.5-.51-4.79-1.36-1.45-.95-2.48-2.32-3.1-3.86-.22-.54-.38-1.09-.49-1.65-.11-.57-.17-1.15-.17-1.71s.05-1.14.17-1.71c.11-.56.27-1.11.49-1.65.39-.98.95-1.89,1.68-2.67.48-.52,1.05-.98,1.68-1.36l-5.31-31.16-4.5-1.37c-1-.3-1.77-.98-2.23-1.83-.45-.85-.59-1.87-.28-2.87.3-1,.98-1.77,1.83-2.23.85-.45,1.87-.59,2.87-.28l6.73,2.05c.7.21,1.29.61,1.73,1.11.46.52.77,1.17.89,1.87l1.29,7.58,48.97-.1c.59,0,1.15.12,1.65.37.51.25.95.61,1.31,1.08.36.47.6.99.71,1.54.11.55.09,1.12-.06,1.7h0ZM32.21,105.19c-.46-.46-1.1-.75-1.8-.75s-1.34.29-1.8.75c-.46.46-.75,1.1-.75,1.8s.29,1.34.75,1.8c.46.46,1.1.75,1.8.75s1.34-.29,1.8-.75c.46-.46.75-1.1.75-1.8s-.29-1.34-.75-1.8ZM30.41,102.05c1.37,0,2.6.55,3.5,1.45.89.89,1.45,2.13,1.45,3.5s-.55,2.6-1.45,3.5c-.89.89-2.13,1.45-3.5,1.45s-2.6-.55-3.5-1.45c-.89-.89-1.45-2.13-1.45-3.5s.55-2.6,1.45-3.5c.89-.89,2.13-1.45,3.5-1.45ZM59.18,105.19c-.46-.46-1.1-.75-1.8-.75s-1.34.29-1.8.75c-.46.46-.75,1.1-.75,1.8s.29,1.34.75,1.8c.46.46,1.1.75,1.8.75s1.34-.29,1.8-.75c.46-.46.75-1.1.75-1.8s-.29-1.34-.75-1.8ZM57.38,102.05c1.37,0,2.6.55,3.5,1.45.89.89,1.45,2.13,1.45,3.5s-.55,2.6-1.45,3.5c-.89.89-2.13,1.45-3.5,1.45s-2.6-.55-3.5-1.45c-.89-.89-1.45-2.13-1.45-3.5s.55-2.6,1.45-3.5c.89-.89,2.13-1.45,3.5-1.45ZM58.07,78.59l-1.19,4.56h7.77l1.2-4.56h-7.79ZM59.88,71.63l-1.19,4.56h7.79l1.2-4.56h-7.8ZM61.7,64.66l-1.2,4.57h7.8l1.21-4.59-7.82.02ZM34.85,69.24l-.77-4.51-7.28.02.77,4.49h7.28ZM36.03,76.2l-.78-4.56h-7.28l.78,4.56h7.28ZM37.22,83.15l-.78-4.56h-7.28l.78,4.56h7.28ZM46.01,69.24v-4.54l-9.51.02.77,4.52h8.74ZM46.01,76.2v-4.56h-8.33l.78,4.56h7.55,0ZM46.01,83.15v-4.56h-7.14l.78,4.56h6.37ZM48.4,78.59v4.56h6l1.19-4.56h-7.2ZM48.4,71.63v4.56h7.82l1.19-4.56h-9.01ZM48.4,64.69v4.54h9.64l1.19-4.57-10.83.02h0ZM46.94,62.31l-21.56.05c-.66,0-1.19.54-1.19,1.19,0,.07,0,.13.02.2h0l3.54,20.8c.1.59.61,1,1.18,1h0s36.64,0,36.64,0c.59,0,1.07-.42,1.18-.97l5.49-20.83c.17-.64-.21-1.29-.85-1.46-.13-.03-.25-.05-.38-.04l-10.18.02h-.1l-13.27.03c-.08-.02-.17-.03-.26-.03s-.18.01-.26.03h0ZM37.99,44.22l-1.01-2.48-.98,2.39c-.14.46-.55.8-1.06.84l-2.66.2,2.04,1.72c.33.28.5.74.39,1.19l-.64,2.6,2.25-1.39c.38-.24.87-.26,1.27-.01l2.27,1.41-.62-2.54c-.13-.44,0-.94.37-1.25l2.04-1.72-2.66-.2h0c-.44-.04-.84-.31-1.02-.74h0ZM38.08,38.14c-.12-.29-.34-.53-.66-.66-.61-.25-1.3.05-1.55.66l-1.84,4.49-4.84.36c-.31.02-.61.16-.83.42-.43.5-.36,1.26.14,1.68l3.71,3.14-1.16,4.72c-.07.3-.03.62.14.91.35.56,1.08.73,1.64.39l4.13-2.56,4.1,2.54c.27.18.6.25.94.16.64-.16,1.04-.8.88-1.44l-1.16-4.72,3.67-3.11c.26-.2.43-.51.46-.86.05-.66-.45-1.23-1.11-1.28l-4.84-.36-1.84-4.49h.02ZM57.96,44.22l-1.01-2.48-.98,2.39c-.14.46-.55.8-1.06.84l-2.66.2,2.04,1.72c.33.28.5.74.39,1.19l-.64,2.6,2.25-1.39c.38-.24.87-.26,1.27-.01l2.27,1.41-.62-2.54c-.13-.44,0-.94.37-1.25l2.04-1.72-2.66-.2h0c-.44-.04-.84-.31-1.02-.74h0ZM58.05,38.14c-.12-.29-.34-.53-.66-.66-.61-.25-1.3.05-1.55.66l-1.84,4.49-4.84.36c-.31.02-.61.16-.83.42-.43.5-.36,1.26.14,1.68l3.71,3.14-1.16,4.72c-.07.3-.03.62.14.91.35.56,1.08.73,1.64.39l4.13-2.56,4.1,2.54c.27.18.6.25.94.16.64-.16,1.04-.8.88-1.44l-1.16-4.72,3.67-3.11c.26-.2.43-.51.46-.86.05-.66-.45-1.23-1.11-1.28l-4.84-.36-1.84-4.49h.02Z"/>
</svg>