<?xml version="1.0" encoding="UTF-8"?>
<svg id="Layer_1" xmlns="http://www.w3.org/2000/svg" version="1.1" viewBox="0 0 110 135">
  <!-- Generator: Adobe Illustrator 29.8.2, SVG Export Plug-In . SVG Version: 2.1.1 Build 3)  -->
  <defs>
    <style>
      .st0 {
        fill-rule: evenodd;
        stroke: #000;
        stroke-miterlimit: 10;
        stroke-width: .5px;
      }
    </style>
  </defs>
  <path class="st0" d="M12.66,93.12l1.82-1.27c2.07-1.45,4.92-.91,6.36,1.17l.41.6,11.88-8.72c1.87-1.37,4.02-1.73,6.27-1.27,2.1.44,4.09.88,5.96,1.3,4.62,1.03,8.44,1.89,11.96,2.15,3.38.28,5.97,2.97,4.89,6.07,4.06-1.78,8.51-4.24,11.64-6.27,2.5-1.7,4.37-3.13,5.8-4.22,4.22-3.23,5.2-3.98,7.83-1.24l.02.02.06.08c6.17,7.2-23.67,24.32-23.76,24.36-.05.03-.1.05-.16.08-3.77,1.75-9.38,1.63-18.17,1.45-2.79-.06-5.91-.12-9.37-.13-.66,0-1.33.05-1.84.47l-2.06,1.66.55.79h0c1.45,2.09.89,5.01-1.14,6.41l-1.89,1.32c-2.07,1.45-4.92.91-6.36-1.17l-11.91-17.18h0c-1.43-2.08-.91-4.99,1.14-6.41h0s.08-.05.08-.05ZM20.49,71.06c1.97,0,2.97-2.42,1.57-3.83s-3.79-.41-3.79,1.59c0,1.24.99,2.24,2.22,2.24ZM23.52,71.88c2.37-2.4,1.22-6.47-2-7.28v-7.46h7.66v2.65c-.01.47.28.9.75,1.03l6.33,1.85c.37,1.16.83,2.27,1.38,3.37l-3.16,5.77c-.25.4-.2.95.14,1.3l5.86,5.92c.32.32.82.4,1.23.18l5.77-3.22c1.08.56,2.18,1.02,3.33,1.4l1.83,6.4c.12.43.52.75.99.75h8.25c.46.01.89-.28,1.02-.75l1.83-6.39c1.15-.37,2.25-.84,3.33-1.4l5.71,3.19c.4.25.94.21,1.28-.14l5.86-5.92c.32-.32.4-.83.18-1.24l-3.19-5.83c.56-1.09,1.01-2.2,1.38-3.37l6.24-1.82c.48-.1.84-.52.84-1.03v-2.68h7.66v7.45c-1.88.48-3.25,2.2-3.25,4.21,0,3.85,4.63,5.79,7.33,3.06,2.37-2.4,1.22-6.47-2-7.28v-8.51c0-.58-.46-1.05-1.04-1.05h-8.69v-2.68h0c0-.58-.46-1.04-1.03-1.04h-6.28s0-7.73,0-7.73h7.38c.47,1.91,2.17,3.29,4.16,3.29,3.81,0,5.73-4.68,3.03-7.4-2.37-2.4-6.4-1.23-7.2,2.02h-8.42c-.57,0-1.04.47-1.04,1.05v8.79h-6.2c-.78-.03-1.25.66-1.07,1.31,2.1,7.91-3.77,15.74-11.93,15.74s-14.03-7.87-11.93-15.74c.18-.66-.31-1.31-1-1.31h-6.28v-8.79c0-.58-.46-1.05-1.04-1.05h-8.42c-.47-1.91-2.17-3.29-4.16-3.29-3.81,0-5.73,4.68-3.03,7.4,2.37,2.4,6.4,1.23,7.2-2.02h7.38v7.74h-6.28c-.57,0-1.03.47-1.03,1.04v2.68h-8.7c-.57,0-1.04.47-1.04,1.05v8.5c-1.89.48-3.25,2.2-3.25,4.21,0,3.86,4.63,5.8,7.33,3.07h0ZM31.25,56.01v3.04l6.07,1.77c.35.08.65.35.75.72.34,1.16,1.03,2.93,1.62,3.96.19.31.22.72.03,1.06l-3.08,5.63,4.76,4.81,5.58-3.11c.3-.16.67-.18.99,0,1.25.69,2.61,1.26,3.97,1.67.33.1.6.36.7.71l1.77,6.18h6.73l1.75-6.13c.08-.35.35-.65.71-.76,1.15-.34,2.9-1.03,3.92-1.63.31-.19.7-.22,1.05-.03l5.58,3.11,4.76-4.81-3.08-5.63c-.16-.3-.18-.68,0-1,.68-1.26,1.25-2.64,1.65-4.02.1-.33.35-.61.7-.71l6.12-1.79v-5.63h-12.31c1.51,8.96-5.29,17.06-14.21,17.06s-15.73-8.11-14.21-17.06h-12.32v2.59ZM93.51,70.41c-.87-.88-.87-2.3,0-3.17,1.4-1.41,3.79-.41,3.79,1.59s-2.4,3-3.79,1.59h0ZM22.73,42.55c0-1.24.99-2.24,2.22-2.24,1.97,0,2.97,2.42,1.57,3.83-1.39,1.41-3.79.4-3.79-1.59ZM92.19,44.13c-.87.87-2.28.87-3.14,0-1.4-1.41-.4-3.83,1.57-3.83s2.97,2.43,1.57,3.83h0ZM53.09,51.69c-.77-2-1.81-4-3.45-5.59-4.89-4.73-5.02-12.43-.27-17.24,4.64-4.69,12.17-4.69,16.81,0,4.74,4.79,4.63,12.57-.26,17.23-1.59,1.52-2.71,3.67-3.46,5.6h-1.72v-11.82c1.29,0,2.36.16,3.36-.85,1.81-1.83.5-4.94-2.03-4.94-1.01,0-1.77.03-2.59.85-.89.9-.84,1.75-.84,2.85h-1.75c0-1.1.05-1.95-.84-2.85-.81-.82-1.58-.85-2.59-.85-2.53,0-3.84,3.11-2.03,4.94,1,1.01,2.08.85,3.38.85v11.82h-1.75ZM56.91,51.69v-11.82h1.78v11.82h-1.78ZM64.67,51.76c2.2.47,3.06,3.23,1.44,4.87-.44.45-1.03.75-1.68.83.46,1.56-.46,3.18-1.99,3.61.61,1.86-.77,3.79-2.72,3.79h-3.87c-1.94,0-3.32-1.94-2.72-3.79-1.53-.42-2.45-2.05-1.99-3.61-2.34-.28-3.38-3.19-1.68-4.91.39-.39.88-.67,1.44-.79-.63-1.48-1.47-2.97-2.68-4.14-5.7-5.52-5.89-14.58-.3-20.22,5.45-5.5,14.28-5.5,19.73,0,5.57,5.62,5.45,14.65-.3,20.23-1.19,1.14-2.06,2.69-2.68,4.14h0ZM64.09,53.78c1.04,0,1.04,1.6,0,1.6h-12.61c-1.04,0-1.04-1.6,0-1.6h12.61ZM66.7,22.95l1.27-2.43c.27-.51.07-1.14-.43-1.41-.5-.27-1.13-.07-1.39.44l-1.27,2.43c-.27.51-.07,1.14.43,1.41.5.27,1.13.08,1.39-.44ZM50.69,21.98l-1.27-2.43c-.27-.51-.89-.71-1.39-.44-.5.27-.7.9-.43,1.41l1.27,2.43c.27.51.89.71,1.39.44.5-.26.7-.9.43-1.41ZM58.82,20.09c0,1.38-2.07,1.38-2.07,0v-2.8c0-1.38,2.08-1.38,2.08,0v2.8ZM54.04,36.17c.22,0,.42.09.56.24.32.33.23.82.23,1.37h-1.36c-.69,0-1.07-.85-.56-1.37.3-.3.67-.24,1.13-.24ZM62.09,36.17c1.05,0,1.05,1.61,0,1.61h-1.36c0-.55-.09-1.05.23-1.37.3-.31.67-.24,1.13-.24h0ZM55.85,61.16h3.87c1.04,0,1.04,1.6,0,1.6h-3.87c-1.04,0-1.04-1.6,0-1.6ZM61.69,57.47c1.04,0,1.04,1.6,0,1.6h-7.81c-1.04,0-1.04-1.6,0-1.6h7.81ZM72.2,29.83l2.2-1.4c.48-.31.63-.95.32-1.44-.3-.49-.94-.63-1.42-.33l-2.2,1.4c-.48.31-.63.95-.32,1.44.3.49.94.63,1.42.33h0ZM43.77,28.07l-2.2-1.4c-.48-.31-1.12-.16-1.42.33-.3.49-.16,1.13.32,1.44l2.2,1.4c.48.31,1.12.16,1.42-.33.3-.49.16-1.13-.32-1.44h0ZM22.43,95.33l8.58,12.36,1.97-1.59c.95-.75,1.97-.91,3.13-.91,3.5.01,6.62.08,9.41.13,8.5.18,13.92.29,17.27-1.26.49-.28,27.84-16.05,23.19-21.21-1.35-1.38-2.05-.84-5.08,1.47-1.22.94-3.6,2.78-5.96,4.34-3.68,2.44-12.53,7.24-16.94,8.19-6.02,1.3-9.43.49-15.77-.92-1.33-.3-.88-2.33.45-2.04,5.39,1.2,9.05,2.07,13.97,1.1,1.96-.39,3.73-1.63,3.74-3.22.01-1.47-1.53-2.44-3.26-2.61-3.62-.26-7.52-1.14-12.22-2.2-1.83-.41-3.77-.85-5.93-1.3-1.68-.35-3.25-.11-4.64.91l-11.9,8.74ZM15.65,93.56l-1.89,1.32h0c-1.12.79-1.41,2.4-.62,3.5h0l11.91,17.17c.79,1.14,2.36,1.44,3.49.64l1.89-1.32c1.12-.8,1.4-2.41.62-3.51h0l-11.91-17.17c-.79-1.13-2.36-1.43-3.49-.64Z"/>
</svg>