<?xml version="1.0" encoding="UTF-8"?>
<svg id="Layer_1" xmlns="http://www.w3.org/2000/svg" version="1.1" viewBox="0 0 512 640">
  <!-- Generator: Adobe Illustrator 29.8.2, SVG Export Plug-In . SVG Version: 2.1.1 Build 3)  -->
  <path d="M84.7,320.66l116.37,14.29c3.36-16.29,12.5-30.59,25.33-40.51l-38.34-64.31c-26.79,14.35-59.72,9.29-81.07-12.03-26.86-26.89-26.86-70.45,0-97.31,26.86-26.86,70.42-26.86,97.31,0,29.5,29.5,26.14,78.16-7.01,103.4l38.3,64.22c21.79-11.88,48.42-11.04,69.38,2.11l44.13-59.3c-31.76-25.7-34.34-73.23-5.42-102.18,26.86-26.86,70.45-26.86,97.31,0,26.86,26.89,26.86,70.45,0,97.31-21.89,21.89-55.84,26.55-82.81,11.09l-44.39,59.64c12.94,11.32,21.5,27.33,23.2,45.27l90.57-15.78c-2.89-19.34,12.05-36.74,31.6-36.74,17.62,0,31.94,14.29,31.94,31.94s-14.32,31.94-31.94,31.94c-11.92,0-22.52-6.56-28.04-16.6l-94.01,16.4c-2.81,42.27-43.04,71.98-84.35,62.35l-15.72,42.9c25.46,13.3,30.9,47.62,10.47,68.08-16.69,16.66-43.71,16.66-60.39,0-16.66-16.69-16.66-43.71,0-60.39,10.2-10.18,25.05-14.73,39.59-11.45l15.57-42.51c-26.37-10.86-43.79-37.18-42.54-66.62l-116.33-14.29c-6.87,22.96-36.03,30.56-53.19,13.41-12.47-12.47-12.47-32.7,0-45.17,12.47-12.47,32.7-12.47,45.17,0,5.39,5.39,8.88,12.7,9.29,20.83h0ZM239.71,474.28c-12.36-12.36-32.41-12.36-44.8,0-12.36,12.36-12.36,32.41,0,44.8,12.39,12.36,32.44,12.36,44.8,0,12.36-12.39,12.36-32.43,0-44.8h0ZM473.96,307.02c-13.14-13.15-35.72-3.8-35.72,14.79s22.57,27.94,35.72,14.79c8.17-8.17,8.17-21.43,0-29.57h0ZM67.63,307.62c-13.15-13.15-35.72-3.77-35.72,14.79s22.57,27.96,35.72,14.81c8.15-8.17,8.15-21.43,0-29.6h0ZM376.86,217.12c-3.05,0-5.49-2.47-5.49-5.52s2.44-5.52,5.49-5.52h2.06c3.05,0,5.49,2.47,5.49,5.52s-2.44,5.52-5.49,5.52h-2.06ZM411.98,154.94l2.87-6.64c.91-2.06,2.94-3.28,5.05-3.28v-.03h10.78c3.05,0,5.52,2.47,5.52,5.52s-2.47,5.49-5.52,5.49h-7.18l-3.28,7.55-6.22,32.41c-.5,2.63-2.81,4.48-5.42,4.48h-41.96c-2.87,0-5.23-2.21-5.49-5.02l-6.14-34c-.6-3.36,2.03-6.46,5.39-6.46v-.03s51.61,0,51.61,0ZM396.67,217.12c-3.05,0-5.52-2.47-5.52-5.52s2.47-5.52,5.52-5.52h2.03c3.05,0,5.52,2.47,5.52,5.52s-2.47,5.52-5.52,5.52h-2.03ZM408.54,165.95h-41.6l4.24,23.48h32.85l4.51-23.48ZM433.22,136.86c-22.57-22.57-59.17-22.57-81.72,0-22.57,22.55-22.57,59.15,0,81.72,22.55,22.55,59.15,22.55,81.72,0,22.55-22.57,22.55-59.17,0-81.72h0ZM140.15,208.85c-3.05,0-5.52-2.45-5.52-5.49s2.47-5.52,5.52-5.52h2.03c3.05,0,5.52,2.47,5.52,5.52s-2.47,5.49-5.52,5.49h-2.03ZM175.27,146.65l2.87-6.58c.91-2.08,2.91-3.33,5.05-3.33h10.78c3.05,0,5.49,2.44,5.49,5.49s-2.44,5.52-5.49,5.52h-7.18l-3.28,7.49-6.22,32.44c-.52,2.65-2.81,4.48-5.42,4.48h-41.96c-2.89,0-5.23-2.19-5.49-5l-6.14-34.03c-.62-3.33,2.03-6.46,5.39-6.46v-.03s51.61,0,51.61,0ZM159.95,208.85c-3.02,0-5.49-2.45-5.49-5.49s2.47-5.52,5.49-5.52h2.06c3.05,0,5.52,2.47,5.52,5.52s-2.47,5.49-5.52,5.49h-2.06ZM171.84,157.69h-41.6l4.24,23.46h32.85l4.51-23.46ZM196.49,128.59c-22.55-22.57-59.15-22.57-81.72,0-22.55,22.57-22.55,59.15,0,81.72,22.57,22.57,59.17,22.57,81.72,0,22.57-22.57,22.57-59.15,0-81.72h0ZM252.99,388.29c-3.02,0-5.49-2.47-5.49-5.52s2.47-5.52,5.49-5.52h2.06c3.05,0,5.52,2.47,5.52,5.52s-2.47,5.52-5.52,5.52h-2.06ZM288.1,326.07l2.89-6.61c.88-2.06,2.91-3.31,5.02-3.31h10.78c3.05,0,5.52,2.47,5.52,5.49s-2.47,5.52-5.52,5.52h-7.18l-3.28,7.55-6.22,32.41c-.5,2.63-2.81,4.45-5.39,4.45v.03h-41.99c-2.87,0-5.23-2.21-5.49-5.02l-6.14-34.03c-.6-3.33,2.03-6.46,5.39-6.46v-.03h51.61ZM272.8,388.29c-3.05,0-5.52-2.47-5.52-5.52s2.47-5.52,5.52-5.52h2.03c3.05,0,5.52,2.47,5.52,5.52s-2.47,5.52-5.52,5.52h-2.03ZM284.67,337.11h-41.6l4.24,23.46h32.85l4.51-23.46ZM309.35,308.01c-22.57-22.55-59.15-22.55-81.72,0-22.57,22.57-22.57,59.17,0,81.72,22.57,22.57,59.15,22.57,81.72,0,22.57-22.55,22.57-59.15,0-81.72h0Z"/>
</svg>