<?xml version="1.0" encoding="UTF-8"?>
<svg id="Layer_1" xmlns="http://www.w3.org/2000/svg" version="1.1" viewBox="0 0 66 82.5">
  <!-- Generator: Adobe Illustrator 29.8.2, SVG Export Plug-In . SVG Version: 2.1.1 Build 3)  -->
  <defs>
    <style>
      .st0 {
        stroke: #000;
        stroke-miterlimit: 10;
        stroke-width: .5px;
      }
    </style>
  </defs>
  <path class="st0" d="M33.69,14.92h12.57c.41,0,.75-.34.75-.75s-.34-.75-.75-.75h-12.57c-.41,0-.75.34-.75.75s.34.75.75.75Z"/>
  <path class="st0" d="M33.69,20.73h12.57c.41,0,.75-.34.75-.75s-.34-.75-.75-.75h-12.57c-.41,0-.75.34-.75.75s.34.75.75.75Z"/>
  <path class="st0" d="M47.01,25.8c0-.41-.34-.75-.75-.75h-12.57c-.41,0-.75.34-.75.75s.34.75.75.75h12.57c.41,0,.75-.34.75-.75Z"/>
  <path class="st0" d="M24.67,71.41h37.84c.41,0,.75-.34.75-.75V15.8c0-.41-.34-.75-.75-.75h-11.34v-5.05c0-.41-.34-.75-.75-.75h-24.09c-.24-.02-.5.1-.62.24,0,0-13.67,15.24-13.68,15.24-.14.16-.21.36-.21.52v35.37l-7.87,6.61c-1.44,1.21-1.63,3.36-.42,4.8,1.22,1.45,3.37,1.62,4.8.42l8.15-6.85h7.43v5.05c0,.42.34.75.75.75ZM50.43,65.6h.08c.41,0,.75-.34.75-.75V16.55h10.49v53.35H25.42v-4.3h25.01s0,0,0,0ZM25.52,11.96v12.55h-11.26l11.26-12.55ZM15.75,64.27l-8.38,7.03c-.78.65-2.04.54-2.68-.24-.68-.81-.57-2.01.24-2.69.35-.3,8.04-6.75,8.38-7.03.81-.68,2.01-.57,2.69.23.67.81.57,2.01-.23,2.69ZM17.65,64.11c.38-.92.35-1.97-.12-2.88l1.93-1.75c3.27,3.27,8.47,3.48,11.99.53.88-.74,1.58-1.62,2.11-2.59,3.53.13,6.74-1.45,8.78-4.17,1.67-2.24,2.38-4.99,1.98-7.76-.45-3.13-2.26-5.85-4.97-7.47-.33-.2-.75-.11-.98.19l-4.75,6.34-6.33-4.75c-.31-.23-.74-.19-1,.09-1.21,1.31-2.04,2.9-2.46,4.63-1.39.31-2.7.94-3.8,1.86-3.56,2.99-4.21,8.19-1.53,11.95l-1.94,1.76c-.91-.68-2.11-.88-3.24-.46V26.01h12.94c.41,0,.75-.34.75-.75v-14.51h22.65v53.35h-25.01s-.02,0-.02,0h-6.99ZM32.56,47.48s0,0,0-.01c-1.83-2.18-4.51-3.28-7.14-3.17.33-1.05.85-2.03,1.53-2.89l6.37,4.78c.33.25.8.18,1.05-.15l4.78-6.38c2.01,1.41,3.34,3.57,3.69,6.03.34,2.37-.26,4.73-1.69,6.65-1.67,2.23-4.21,3.51-6.95,3.58.97-3.06.22-6.21-1.64-8.44ZM31.39,48.42s.01.01.02.02c0,0,0,0,0,0,2.6,3.1,2.21,7.78-.92,10.4-3.12,2.62-7.78,2.22-10.41-.91-2.63-3.13-2.22-7.79.91-10.41,3.12-2.62,7.79-2.19,10.39.89Z"/>
  <path class="st0" d="M38.78,33.72c-4.46-2.27-9.88-1.42-13.45,1.97-.16.15-.25.37-.23.59.01.22.12.42.3.56l7.19,5.38c.33.25.8.18,1.05-.15l5.41-7.23c.13-.18.18-.4.13-.62-.05-.21-.19-.4-.39-.5ZM32.88,40.57l-5.85-4.38c2.79-2.22,6.71-2.92,10.25-1.5l-4.4,5.88Z"/>
  <path class="st0" d="M22.69,49.55c2.01-1.69,5.01-1.42,6.7.58.27.32.74.36,1.06.09.32-.27.36-.74.09-1.06-1.07-1.28-2.58-2.06-4.25-2.21-1.67-.15-3.29.37-4.57,1.44-.32.27-.36.74-.09,1.06.26.32.74.36,1.06.09Z"/>
  <circle class="st0" cx="30.54" cy="14.17" r="1.37"/>
  <circle class="st0" cx="30.54" cy="19.78" r="1.37"/>
  <circle class="st0" cx="30.54" cy="25.4" r="1.37"/>
</svg>