<?xml version="1.0" encoding="UTF-8"?>
<svg id="Layer_1" xmlns="http://www.w3.org/2000/svg" version="1.1" viewBox="0 0 100 125">
  <!-- Generator: Adobe Illustrator 29.8.2, SVG Export Plug-In . SVG Version: 2.1.1 Build 3)  -->
  <defs>
    <style>
      .st0 {
        fill-rule: evenodd;
        stroke: #000;
        stroke-miterlimit: 10;
        stroke-width: .25px;
      }
    </style>
  </defs>
  <path class="st0" d="M21.13,46.31v47.88h57.62v-47.88H21.13ZM52.67,31.81c-1.51-1.51-3.95-1.51-5.46,0-1.51,1.51-1.51,3.95,0,5.46,1.51,1.51,3.95,1.51,5.46,0,1.51-1.51,1.51-3.95,0-5.46,0,0,0,0,0,0ZM49.94,28.28c3.46,0,6.26,2.8,6.26,6.26,0,3.46-2.8,6.26-6.26,6.26-3.46,0-6.26-2.8-6.26-6.26,0-.01,0-.03,0-.04,0-3.46,2.8-6.26,6.26-6.26h0v.04ZM89.12,101.93c-.73-.73-1.9-.73-2.63,0-.73.73-.73,1.9,0,2.63.73.73,1.9.73,2.63,0h0c.73-.73.73-1.9,0-2.63ZM20.86,42.13l29.08-17.94,32,19.72H18l2.51-1.55c.14-.05.27-.13.38-.23h-.03ZM10.86,23.07c.73.73,1.9.73,2.63,0s.73-1.9,0-2.63-1.9-.73-2.63,0c0,0,0,0,0,0-.73.73-.73,1.9,0,2.63ZM13.49,104.56c.73-.73.73-1.9,0-2.63-.73-.73-1.9-.73-2.63,0s-.73,1.9,0,2.63c0,0,0,0,0,0,.73.73,1.9.73,2.63,0ZM86.49,20.44c-.73.73-.73,1.9,0,2.63.73.73,1.9.73,2.63,0,.73-.73.73-1.9,0-2.63,0,0,0,0,0,0-.73-.73-1.9-.73-2.63,0ZM83.72,20.56c.66-2.26,3.03-3.55,5.28-2.89s3.55,3.03,2.89,5.28-3.03,3.55-5.28,2.89c-1.4-.41-2.49-1.5-2.89-2.89h-21.25v6.16l24.28,15c.56.35.73,1.08.38,1.64-.22.35-.59.56-1,.56h-5v29.19h6.67c.66,0,1.2.54,1.2,1.2v22.46c2.26.66,3.55,3.03,2.89,5.28s-3.03,3.55-5.28,2.89-3.55-3.03-2.89-5.28c.41-1.4,1.5-2.49,2.89-2.89v-21.25h-5.47v17.47c0,.66-.52,1.19-1.18,1.2,0,0-.01,0-.02,0h-40v6.66c0,.66-.54,1.2-1.2,1.2h-22.46c-.66,2.26-3.03,3.55-5.28,2.89s-3.55-3.03-2.89-5.28c.66-2.26,3.03-3.55,5.28-2.89,1.4.41,2.49,1.5,2.89,2.89h21.25v-5.47h-17.59c-.66,0-1.19-.52-1.2-1.18,0,0,0-.01,0-.02v-49.07h-5c-.66,0-1.19-.55-1.19-1.21,0-.45.26-.85.66-1.06l2.59-1.6h-3.6c-.66,0-1.2-.54-1.2-1.2h0v-15.4c-2.26-.66-3.55-3.03-2.89-5.28.66-2.26,3.03-3.55,5.28-2.89,2.26.66,3.55,3.03,2.89,5.28-.41,1.4-1.5,2.49-2.89,2.89v14.2h6.3l29.62-18.27c.39-.25.89-.25,1.28,0l9.48,5.85v-5.86c0-.66.54-1.2,1.2-1.2h22.45ZM49.81,52.43c4.76,2,4.76,4.62,0,6.64-5.43,2.31-14.42,2.31-19.85,0-4.76-2-4.76-4.62,0-6.64,5.43-2.31,14.42-2.31,19.85,0ZM53.39,65.43c0,1.22-1.35,2.38-3.58,3.33-5.43,2.31-14.42,2.31-19.85,0-2.21-.94-3.58-2.12-3.58-3.32v-5.65c6.06,4.54,21,4.54,27,0v5.64ZM53.39,75.1c0,1.21-1.35,2.37-3.58,3.32-5.43,2.31-14.42,2.31-19.85,0-2.21-.94-3.58-2.12-3.58-3.32v-5.6c6.06,4.54,21,4.54,27,0v5.63-.03ZM43.35,65.5c.65-.07,1.24.4,1.31,1.06s-.4,1.24-1.06,1.31c-1.24.13-2.48.2-3.72.2-.66.06-1.24-.43-1.3-1.09-.06-.66.43-1.24,1.09-1.3.07,0,.15,0,.22,0,1.16,0,2.31-.06,3.46-.18ZM50.13,63.8c.59-.3,1.31-.06,1.61.53.3.59.06,1.31-.53,1.61-.03.01-.05.03-.08.04-1.24.55-2.53.98-3.86,1.28-.66.1-1.26-.36-1.36-1.01-.08-.58.26-1.14.82-1.32,1.17-.26,2.32-.64,3.42-1.13h-.02ZM43.35,75.12c.66-.03,1.22.49,1.25,1.15.02.6-.4,1.12-.99,1.23-1.2.12-2.53.2-3.72.2-.66,0-1.2-.54-1.2-1.2s.54-1.2,1.2-1.2c1.16,0,2.31-.05,3.46-.18ZM50.13,73.43c.59-.3,1.31-.06,1.61.53.3.59.06,1.31-.53,1.61-.03.01-.05.03-.08.04-1.24.55-2.53.98-3.86,1.28-.66.1-1.26-.36-1.36-1.01-.08-.58.26-1.14.82-1.32,1.17-.27,2.32-.65,3.42-1.13h-.02ZM53.39,84.74c0,1.2-1.37,2.38-3.58,3.32-5.43,2.31-14.42,2.31-19.85,0-2.21-.94-3.58-2.12-3.58-3.32v-5.62c6.05,4.54,21,4.54,27,0v5.62h0ZM43.39,84.79c.65-.07,1.24.4,1.32,1.06.07.65-.4,1.24-1.06,1.32-1.24.13-2.48.2-3.72.2-.66,0-1.2-.54-1.2-1.2s.54-1.2,1.2-1.2c1.16,0,2.31-.05,3.46-.17ZM50.17,83.09c.59-.3,1.31-.06,1.61.53.3.59.06,1.31-.53,1.61-.03.01-.05.03-.08.04-1.24.55-2.53.98-3.86,1.28-.66.1-1.26-.36-1.36-1.01-.08-.58.26-1.14.82-1.32,1.17-.26,2.32-.64,3.42-1.13h-.02ZM71.94,54.09c-.72.73-1.9.73-2.63.01-.73-.72-.73-1.9-.01-2.63.35-.35.82-.55,1.32-.55,1.02-.01,1.86.8,1.87,1.83,0,.5-.19.99-.55,1.34ZM72.48,87.72c0,1.03-.83,1.86-1.86,1.86-1.03,0-1.86-.83-1.86-1.86,0-.5.2-.97.55-1.32.72-.73,1.89-.74,2.62-.02.36.35.56.84.55,1.34ZM70.32,68.93c.73-.72,1.91-.72,2.63,0,.72.73.72,1.91,0,2.63-.35.34-.81.54-1.3.54-1.03,0-1.86-.85-1.86-1.88,0-.48.2-.95.54-1.3ZM67.55,69.05c.66-2.25,3.03-3.54,5.28-2.88,2.25.66,3.54,3.03,2.88,5.28s-3.03,3.54-5.28,2.88c-1.39-.41-2.47-1.49-2.88-2.88h-11.77v5.26h14.8c.66,0,1.2.54,1.2,1.2v5.72c2.26.66,3.55,3.03,2.89,5.28s-3.03,3.55-5.28,2.89-3.55-3.03-2.89-5.28c.41-1.4,1.5-2.49,2.89-2.89v-4.52h-13.61v5.63c0,2.26-1.93,4.2-5,5.52-6,2.57-15.68,2.57-21.73,0-3.1-1.32-5-3.26-5-5.52v-29c0-2.25,1.93-4.2,5-5.52,6.05-2.57,15.68-2.57,21.73,0,3.1,1.32,5,3.27,5,5.52v5.64h13.61v-4.52c-2.26-.66-3.55-3.03-2.89-5.28s3.03-3.55,5.28-2.89c2.26.66,3.55,3.03,2.89,5.28-.41,1.4-1.5,2.49-2.89,2.89v5.73c0,.66-.53,1.19-1.19,1.19,0,0,0,0-.01,0h-14.8v5.27h11.77Z"/>
</svg>