<?xml version="1.0" encoding="UTF-8"?>
<svg id="Layer_1" xmlns="http://www.w3.org/2000/svg" version="1.1" viewBox="0 0 110 135">
  <!-- Generator: Adobe Illustrator 29.8.2, SVG Export Plug-In . SVG Version: 2.1.1 Build 3)  -->
  <defs>
    <style>
      .st0 {
        fill-rule: evenodd;
        stroke: #000;
        stroke-miterlimit: 10;
      }
    </style>
  </defs>
  <path class="st0" d="M20.62,100.68c.96.2,1.82.48,2.5.82,1.33.65,2.12,1.55,2.12,2.61,0,1.23-1.08,2.25-2.83,2.91-1.47.55-3.47.9-5.67.9s-4.2-.34-5.67-.9c-1.75-.66-2.83-1.68-2.83-2.91,0-1.06.79-1.96,2.12-2.61.68-.33,1.54-.61,2.5-.82l-1.46-1.46c-1.46-1.46-2.2-3.4-2.2-5.33s.73-3.86,2.2-5.33c1.2-1.2,2.7-1.9,4.25-2.12v-14.65c-.87-.18-1.64-.59-2.26-1.18-.84-.79-1.36-1.9-1.36-3.12s.52-2.32,1.36-3.12c.61-.58,1.39-1,2.26-1.18v-14.6c-1.82-.08-3.46-.4-4.71-.88-1.75-.66-2.83-1.68-2.83-2.91,0-1.06.79-1.96,2.13-2.61.68-.33,1.54-.61,2.5-.82l-1.46-1.46c-1.46-1.46-2.2-3.4-2.2-5.33s.73-3.86,2.2-5.33,3.4-2.2,5.33-2.2,3.86.73,5.33,2.2,2.2,3.4,2.2,5.33-.73,3.86-2.2,5.33l-1.46,1.46c.96.2,1.82.48,2.5.82,1.33.65,2.12,1.55,2.12,2.61,0,1.23-1.08,2.25-2.83,2.91-1.25.47-2.89.79-4.71.88v14.6c.87.18,1.65.59,2.26,1.18.61.58,1.05,1.33,1.25,2.16l6.43-.04v-3.41c0-.46.32-.84.75-.93l5.92-1.84c.21-.67.45-1.32.71-1.95.27-.64.56-1.27.88-1.89l-2.92-5.55c-.2-.38-.12-.83.17-1.12l6.23-6.23c.32-.32.81-.37,1.18-.14l5.49,2.89c.62-.32,1.25-.61,1.89-.88.63-.26,1.29-.5,1.95-.71l1.86-5.98c.12-.41.5-.68.91-.68h0s3.52,0,3.52,0l.08-8.07c0-.52.43-.95.95-.95h0s17.13,0,17.13,0c.18-.83.6-1.57,1.18-2.15.79-.79,1.89-1.29,3.11-1.29s2.31.49,3.11,1.29c.79.79,1.29,1.89,1.29,3.11s-.49,2.31-1.29,3.11c-.79.79-1.89,1.29-3.11,1.29s-2.31-.49-3.11-1.29c-.58-.58-1-1.32-1.18-2.15h-16.19l-.07,7.1h3.39c.46,0,.84.32.93.75l1.84,5.92c.67.21,1.32.45,1.95.71.64.27,1.27.56,1.89.88l5.55-2.92c.38-.2.83-.12,1.12.17l6.23,6.23c.32.32.37.81.14,1.18l-2.89,5.49c.32.62.61,1.25.88,1.89.26.63.5,1.29.71,1.95l5.98,1.86c.41.12.68.5.68.91h0v3.45l6.43-.04c.19-.84.64-1.59,1.25-2.17.83-.79,1.96-1.27,3.22-1.27s2.39.48,3.22,1.27c.84.8,1.36,1.9,1.36,3.12s-.52,2.32-1.36,3.12c-.83.79-1.96,1.27-3.22,1.27s-2.39-.48-3.22-1.27c-.61-.58-1.05-1.33-1.25-2.16l-6.43.04v3.46c0,.46-.32.84-.75.93l-5.92,1.84c-.21.67-.45,1.32-.71,1.95-.27.64-.56,1.27-.88,1.89l2.92,5.55c.2.38.12.83-.17,1.12l-6.23,6.23c-.32.32-.81.37-1.18.14l-5.49-2.89c-.62.32-1.25.61-1.89.88-.63.26-1.29.5-1.95.71l-1.86,5.98c-.12.41-.5.68-.91.68h0s-3.39,0-3.39,0l.07,7.1h16.19c.18-.83.6-1.57,1.18-2.15.79-.79,1.89-1.29,3.11-1.29s2.31.49,3.11,1.29c.79.79,1.29,1.89,1.29,3.11s-.49,2.31-1.29,3.11c-.79.79-1.89,1.29-3.11,1.29s-2.31-.49-3.11-1.29c-.58-.58-1-1.32-1.18-2.15h-17.13c-.52-.01-.95-.43-.95-.96l-.08-8.07h-3.52c-.46,0-.84-.32-.93-.75l-1.84-5.92c-.67-.21-1.32-.45-1.95-.71-.64-.27-1.27-.56-1.89-.88l-5.55,2.92c-.38.2-.83.12-1.12-.17l-6.23-6.23c-.32-.32-.37-.81-.14-1.18l2.89-5.49c-.32-.62-.61-1.25-.88-1.89-.26-.63-.5-1.29-.71-1.95l-5.98-1.86c-.41-.12-.68-.5-.68-.91h0v-3.5l-6.43.04c-.19.84-.64,1.59-1.25,2.17-.61.58-1.39,1-2.26,1.18v14.62c1.64.18,3.23.9,4.49,2.15,1.46,1.46,2.2,3.4,2.2,5.33s-.73,3.86-2.2,5.33l-1.45,1.46ZM19.3,67.5c0-.68-.29-1.29-.76-1.74-.48-.46-1.16-.74-1.9-.74s-1.42.29-1.9.74c-.48.45-.77,1.06-.77,1.74s.29,1.29.76,1.74c.48.46,1.16.74,1.9.74s1.42-.29,1.9-.74c.47-.45.77-1.06.77-1.74ZM99.95,67.45c0-.68-.29-1.29-.76-1.74-.48-.46-1.16-.74-1.9-.74s-1.42.28-1.9.74c-.47.45-.76,1.06-.76,1.74s.29,1.29.76,1.74c.48.46,1.16.74,1.9.74s1.42-.28,1.9-.74c.47-.45.76-1.06.76-1.74ZM51.3,68.88l3.84,3.24c.4.34,1,.29,1.34-.11l6.25-7.8c.33-.41.27-1.01-.14-1.34-.41-.33-1.01-.27-1.34.14l-5.63,7.02-3.09-2.61c-.4-.34-1-.29-1.34.11s-.29,1,.11,1.35h0ZM56.96,51.47c-4.43,0-8.43,1.79-11.33,4.69-2.9,2.9-4.69,6.91-4.69,11.33s1.79,8.43,4.69,11.33c2.9,2.9,6.91,4.69,11.33,4.69s8.43-1.79,11.33-4.69c2.9-2.9,4.69-6.91,4.69-11.33s-1.79-8.43-4.69-11.33c-2.9-2.9-6.91-4.69-11.33-4.69ZM66.94,57.52c-2.55-2.55-6.08-4.13-9.98-4.13s-7.43,1.58-9.98,4.13c-2.55,2.55-4.13,6.08-4.13,9.98s1.58,7.43,4.13,9.98c2.55,2.55,6.08,4.13,9.98,4.13s7.43-1.58,9.98-4.13c2.55-2.55,4.13-6.08,4.13-9.98s-1.58-7.43-4.13-9.98ZM53.25,39.99l-1.8,5.79c-.09.3-.32.54-.64.64-.75.22-1.5.48-2.25.79-.73.3-1.46.65-2.15,1.04-.27.15-.61.16-.9,0l-5.38-2.83-5.24,5.24,2.81,5.34c.16.28.18.63,0,.93-.38.7-.73,1.42-1.04,2.15-.3.73-.57,1.47-.78,2.21-.08.31-.31.58-.64.68l-5.79,1.8v7.41l5.79,1.8c.3.09.54.32.64.64.22.75.48,1.5.79,2.25.3.73.65,1.46,1.04,2.15.15.27.16.61,0,.9l-2.83,5.37,5.24,5.24,5.34-2.81c.28-.16.63-.18.93,0,.7.38,1.42.73,2.15,1.04.73.3,1.47.57,2.21.79.31.08.58.31.68.64l1.8,5.79h7.41l1.8-5.79c.09-.3.32-.54.64-.64.75-.22,1.5-.48,2.25-.79.73-.3,1.45-.65,2.15-1.04.27-.15.61-.16.9,0l5.38,2.83,5.24-5.24-2.81-5.34c-.16-.28-.18-.63,0-.93.38-.7.73-1.42,1.04-2.15.3-.73.57-1.47.79-2.21.08-.31.31-.58.64-.68l5.79-1.8v-7.41l-5.79-1.8c-.3-.09-.54-.32-.64-.64-.22-.75-.48-1.5-.79-2.25-.3-.73-.65-1.46-1.04-2.15-.15-.27-.16-.61,0-.9l2.83-5.38-5.24-5.24-5.34,2.81c-.28.16-.63.18-.93,0-.7-.38-1.42-.73-2.15-1.04-.73-.3-1.47-.57-2.21-.78-.31-.08-.58-.31-.68-.64l-1.8-5.79h-7.41s0,0,0,0ZM80.27,28.27c-.45-.45-1.07-.73-1.75-.73s-1.3.28-1.75.73-.73,1.07-.73,1.75.28,1.3.73,1.75c.45.45,1.07.73,1.75.73s1.3-.28,1.75-.73c.45-.45.73-1.07.73-1.75s-.28-1.31-.73-1.75ZM78.51,107.46c.68,0,1.3-.28,1.75-.73.45-.45.73-1.07.73-1.75s-.28-1.3-.73-1.75c-.45-.45-1.07-.73-1.75-.73s-1.3.28-1.75.73c-.45.45-.73,1.07-.73,1.75s.28,1.3.73,1.75c.45.45,1.07.73,1.75.73ZM18.85,43.06l-1.54,1.54c-.37.37-.98.37-1.35,0l-1.54-1.54c-1.34.16-2.5.47-3.33.88-.65.32-1.04.63-1.04.89,0,.35.61.75,1.59,1.12,1.26.48,3.02.77,5,.77s3.73-.29,5-.77c.98-.37,1.59-.77,1.59-1.12,0-.26-.39-.57-1.04-.89-.83-.41-1.99-.71-3.33-.88h0ZM16.64,42.56l3.98-3.98c1.09-1.09,1.64-2.54,1.64-3.98s-.55-2.88-1.64-3.98c-1.09-1.09-2.54-1.64-3.98-1.64s-2.88.55-3.98,1.64c-1.09,1.09-1.64,2.54-1.64,3.98s.55,2.88,1.64,3.98l3.98,3.98ZM14.54,102.33c-1.34.16-2.5.47-3.33.88-.65.32-1.04.63-1.04.89,0,.35.61.75,1.59,1.12,1.26.48,3.03.77,5,.77s3.73-.29,5-.77c.98-.37,1.59-.77,1.59-1.12,0-.26-.39-.57-1.04-.89-.83-.4-1.98-.71-3.33-.88l-1.54,1.54c-.38.38-.98.38-1.35,0l-1.54-1.54ZM16.75,101.85l3.98-3.98c1.09-1.09,1.64-2.54,1.64-3.98s-.55-2.88-1.64-3.98c-1.09-1.09-2.54-1.64-3.98-1.64s-2.88.55-3.98,1.64c-1.09,1.09-1.64,2.54-1.64,3.98s.55,2.88,1.64,3.98l3.98,3.98Z"/>
</svg>