<?xml version="1.0" encoding="UTF-8"?>
<svg id="Layer_1" xmlns="http://www.w3.org/2000/svg" version="1.1" viewBox="0 0 110 135">
  <!-- Generator: Adobe Illustrator 29.8.2, SVG Export Plug-In . SVG Version: 2.1.1 Build 3)  -->
  <path d="M82.72,47.07c.05-3.6-1.31-6.98-3.86-9.52-2.54-2.54-5.93-3.91-9.52-3.85h-.02c-.84,0-1.52-.67-1.53-1.51-.01-.84.66-1.54,1.51-1.55,4.43-.06,8.59,1.62,11.73,4.74,3.13,3.13,4.82,7.3,4.75,11.73-.01.84-.7,1.51-1.53,1.51h-.02c-.84,0-1.52-.7-1.51-1.55h0ZM69.56,50.42c1.96,0,3.57-1.6,3.57-3.57s-1.6-3.57-3.57-3.57-3.57,1.6-3.57,3.57,1.6,3.57,3.57,3.57ZM77.88,48.62h.04c.82,0,1.51-.66,1.53-1.49.07-2.71-.98-5.36-2.89-7.27-1.95-1.95-4.53-2.97-7.27-2.89-.84.02-1.51.73-1.48,1.57s.73,1.51,1.57,1.48c1.89-.06,3.68.65,5.02,1.99,1.34,1.34,2.05,3.12,2,5.02-.02.85.64,1.55,1.49,1.57h0ZM69.34,27.37c5.29-.05,10.26,1.97,14,5.71,3.74,3.74,5.76,8.71,5.7,14,0,.84.67,1.54,1.51,1.55h.02c.84,0,1.52-.68,1.53-1.51.07-6.12-2.28-11.87-6.6-16.19-4.33-4.33-10.07-6.68-16.2-6.61-.84,0-1.52.7-1.51,1.55.02.84.71,1.52,1.55,1.51h0ZM104,82.09v13.49c0,2.3-1.87,4.17-4.17,4.17h-5.06c.1.54.15,1.09.15,1.66,0,5.12-4.16,9.28-9.28,9.28s-9.28-4.16-9.28-9.28c0-.57.05-1.12.15-1.66h-38.16c.1.54.15,1.09.15,1.66,0,5.12-4.16,9.28-9.28,9.28s-9.28-4.16-9.28-9.28c0-.57.05-1.12.15-1.66h-9.93c-2.3,0-4.17-1.87-4.17-4.17v-45.11c0-.84.68-1.53,1.53-1.53h5.6v-3.28c0-.55.29-1.05.77-1.32l19.68-11.37c.47-.27,1.06-.27,1.53,0l7.14,4.12s.07.04.11.06l12.44,7.18c.47.27.77.78.77,1.32v3.28h5.59c.84,0,1.53.68,1.53,1.53v5.36c.51-.19,1.05-.29,1.63-.29h16.97c2.9,0,4.02,2.74,4.56,4.08l8.24,18.3h5.74c2.3,0,4.17,1.86,4.17,4.17h0ZM46.84,43.27l-16.63,9.6,4.13,2.39,16.63-9.6-4.13-2.38ZM35.87,57.9v19.19l16.63-9.6v-19.19l-16.63,9.6ZM41.53,40.21c-3.06,1.77-6.12,3.54-9.18,5.3-2.99,1.73-5.98,3.45-8.97,5.18v10.64l2.25,1.28v-9.76c0-.06,0-.12.01-.19,0,0,0,0,0-.01,0-.05.02-.11.04-.17v-.05s.04-.09.06-.13c0-.02.01-.03.02-.05.02-.05.05-.11.08-.16h0c.03-.06.07-.11.1-.16,0-.01.02-.02.03-.04.03-.04.06-.07.09-.11.01-.01.02-.02.03-.03.04-.04.09-.08.13-.11,0,0,0,0,0,0,.05-.04.1-.07.16-.11,0,0,0,0,.01,0l17.39-10.04-2.24-1.29ZM17.72,45.65l4.13,2.39c2.99-1.73,5.98-3.45,8.97-5.18,2.55-1.47,5.1-2.95,7.65-4.42l-4.13-2.39-16.62,9.6ZM16.19,67.5l16.62,9.6v-19.2l-4.13-2.39v9.73c0,.55-.29,1.05-.76,1.32-.24.14-.5.21-.77.21s-.52-.07-.76-.2l-5.3-3.03c-.48-.27-.77-.78-.77-1.33v-11.53l-4.13-2.39v19.2ZM35.45,101.41c0-3.43-2.79-6.22-6.22-6.22s-6.22,2.79-6.22,6.22,2.79,6.22,6.22,6.22,6.22-2.79,6.22-6.22ZM59.63,52h-4.06v16.39c0,.55-.29,1.05-.77,1.32l-19.69,11.37c-.24.14-.5.2-.77.2s-.53-.07-.77-.2l-19.68-11.37c-.47-.27-.77-.78-.77-1.32v-16.39h-4.07v35.31h34.91c.84,0,1.53.68,1.53,1.53s-.68,1.53-1.53,1.53H9.06s0,5.21,0,5.21c0,.61.5,1.11,1.11,1.11h11.07c1.62-2.73,4.59-4.56,7.98-4.56s6.36,1.83,7.98,4.56h22.42v-6.32h-9.57c-.84,0-1.53-.68-1.53-1.53s.68-1.53,1.53-1.53h9.57v-35.31ZM91.86,101.41c0-3.43-2.79-6.22-6.22-6.22s-6.22,2.79-6.22,6.22,2.79,6.22,6.22,6.22,6.22-2.79,6.22-6.22ZM100.94,82.09c0-.61-.5-1.11-1.11-1.11h-6.73c-.6,0-1.15-.35-1.39-.9l-8.66-19.23-.02-.06c-.74-1.84-1.18-2.19-1.73-2.19h-16.97c-.9,0-1.63.73-1.63,1.62v36.48h14.97c1.62-2.73,4.59-4.56,7.98-4.56s6.36,1.83,7.98,4.56h6.2c.61,0,1.11-.5,1.11-1.11v-13.49s0,0,0,0ZM85.64,98.13c-1.81,0-3.28,1.47-3.28,3.28s1.47,3.29,3.28,3.29,3.28-1.48,3.28-3.29-1.47-3.28-3.28-3.28ZM29.23,98.13c-1.81,0-3.28,1.47-3.28,3.28s1.47,3.29,3.28,3.29,3.29-1.48,3.29-3.29-1.48-3.28-3.29-3.28ZM87.5,76.72c.19.47.13,1.01-.15,1.43-.29.42-.76.67-1.27.67h-19.57c-.84,0-1.53-.68-1.53-1.53v-14.74c0-.84.68-1.53,1.53-1.53h13.64c.64,0,1.21.4,1.43,1,.01.03.02.05.03.08l5.88,14.62ZM83.82,75.76l-4.7-11.68h-11.08v11.68h15.78Z"/>
</svg>