<?xml version="1.0" encoding="UTF-8"?>
<svg id="Layer_1" xmlns="http://www.w3.org/2000/svg" version="1.1" viewBox="0 0 110 135">
  <!-- Generator: Adobe Illustrator 29.8.2, SVG Export Plug-In . SVG Version: 2.1.1 Build 3)  -->
  <path d="M54.98,58.59c-4.91,0-8.91,4-8.91,8.91s3.98,8.91,8.91,8.91,8.91-4,8.91-8.91-3.98-8.91-8.91-8.91ZM54.98,73.27c-3.19,0-5.78-2.59-5.78-5.78s2.59-5.78,5.78-5.78,5.78,2.59,5.78,5.78-2.59,5.78-5.78,5.78Z"/>
  <path d="M92.48,84.68c-.92,0-1.77.28-2.48.73l-2.48-1.95c-.28-.22-.61-.33-.97-.33h-13.73l-2.36-2.36,1.44-1.44c.3-.3.45-.69.45-1.11s-.17-.81-.45-1.11l-2.02-2.02c.39-.78.73-1.58,1-2.42h2.86c.86,0,1.56-.7,1.56-1.56v-2.05h8.09c.64,1.81,2.36,3.12,4.41,3.12,2.58,0,4.69-2.11,4.69-4.69s-2.11-4.69-4.69-4.69c-2.03,0-3.75,1.31-4.41,3.12h-8.09v-2.05c0-.86-.7-1.56-1.56-1.56h-2.86c-.27-.83-.61-1.64-1-2.42l2.02-2.02c.3-.3.45-.69.45-1.11s-.17-.81-.45-1.11l-1.44-1.44,2.83-2.83c.3-.3.45-.69.45-1.11v-9.38h7.81v10.94c0,.86.7,1.56,1.56,1.56h4.97c.64,1.81,2.36,3.12,4.41,3.12,2.58,0,4.69-2.11,4.69-4.69s-2.11-4.69-4.69-4.69c-2.03,0-3.75,1.31-4.41,3.12h-3.41v-10.94c0-.86-.7-1.56-1.56-1.56h-9.38v-1.33l1.62-2.06c.47.16.97.27,1.5.27,2.58,0,4.69-2.11,4.69-4.69s-2.11-4.69-4.69-4.69-4.69,2.11-4.69,4.69c0,.92.28,1.77.73,2.48l-1.95,2.48c-.22.28-.33.62-.33.97v13.73l-2.36,2.38-1.45-1.45c-.59-.59-1.62-.59-2.2,0l-2.02,2.02c-.78-.39-1.58-.73-2.42-1v-2.86c0-.86-.7-1.56-1.56-1.56h-2.05v-8.09c1.81-.64,3.12-2.36,3.12-4.41,0-2.58-2.11-4.69-4.69-4.69s-4.69,2.11-4.69,4.69c0,2.03,1.31,3.75,3.12,4.41v8.09h-2.05c-.86,0-1.56.7-1.56,1.56v2.86c-.83.27-1.64.61-2.42,1l-2.02-2.02c-.3-.3-.69-.45-1.11-.45s-.81.17-1.11.45l-1.44,1.44-2.83-2.83c-.3-.3-.69-.45-1.11-.45h-9.38v-7.81h10.94c.86,0,1.56-.7,1.56-1.56v-4.97c1.81-.64,3.12-2.36,3.12-4.41,0-2.58-2.11-4.69-4.69-4.69s-4.69,2.11-4.69,4.69c0,2.03,1.31,3.75,3.12,4.41v3.41h-10.94c-.86,0-1.56.7-1.56,1.56v9.38h-1.33l-2.06-1.62c.16-.47.27-.97.27-1.5,0-2.58-2.11-4.69-4.69-4.69s-4.69,2.11-4.69,4.69,2.11,4.69,4.69,4.69c.92,0,1.77-.28,2.48-.73l2.48,1.95c.28.22.61.33.97.33h13.73l2.36,2.36-1.44,1.44c-.3.3-.45.69-.45,1.11s.17.81.45,1.11l2.02,2.02c-.39.78-.73,1.58-1,2.42h-2.86c-.86,0-1.56.7-1.56,1.56v2.05h-8.09c-.64-1.81-2.36-3.12-4.41-3.12-2.58,0-4.69,2.11-4.69,4.69s2.11,4.69,4.69,4.69c2.03,0,3.75-1.31,4.41-3.12h8.09v2.05c0,.86.7,1.56,1.56,1.56h2.86c.27.83.61,1.64,1,2.42l-2.02,2.02c-.3.3-.45.69-.45,1.11s.17.81.45,1.11l1.45,1.45-2.83,2.81c-.3.3-.45.69-.45,1.11v9.38h-7.81v-10.94c0-.86-.7-1.56-1.56-1.56h-4.97c-.64-1.81-2.36-3.12-4.41-3.12-2.58,0-4.69,2.11-4.69,4.69s2.11,4.69,4.69,4.69c2.03,0,3.75-1.31,4.41-3.12h3.41v10.94c0,.86.7,1.56,1.56,1.56h9.38v1.33l-1.62,2.06c-.47-.16-.97-.27-1.5-.27-2.58,0-4.69,2.11-4.69,4.69s2.11,4.69,4.69,4.69,4.69-2.11,4.69-4.69c0-.92-.28-1.77-.73-2.48l1.95-2.48c.22-.28.33-.62.33-.97v-13.72l2.38-2.36,1.44,1.44c.3.3.69.45,1.11.45s.81-.17,1.11-.45l2.02-2.02c.78.39,1.58.73,2.42,1v2.86c0,.86.7,1.56,1.56,1.56h2.05v8.09c-1.81.64-3.12,2.36-3.12,4.41,0,2.58,2.11,4.69,4.69,4.69s4.69-2.11,4.69-4.69c0-2.03-1.31-3.75-3.12-4.41v-8.09h2.05c.86,0,1.56-.7,1.56-1.56v-2.86c.83-.27,1.64-.61,2.42-1l2.02,2.02c.3.3.69.45,1.11.45s.81-.17,1.11-.45l1.44-1.44,2.83,2.83c.3.3.69.45,1.11.45h9.38v7.81h-10.94c-.86,0-1.56.7-1.56,1.56v4.97c-1.81.64-3.12,2.36-3.12,4.41,0,2.58,2.11,4.69,4.69,4.69s4.69-2.11,4.69-4.69c0-2.03-1.31-3.75-3.12-4.41v-3.41h10.94c.86,0,1.56-.7,1.56-1.56v-9.38h1.33l2.06,1.62c-.16.47-.27.97-.27,1.5,0,2.58,2.11,4.69,4.69,4.69s4.69-2.11,4.69-4.69-2.11-4.69-4.69-4.69l-.03-.02ZM87.8,65.93c.86,0,1.56.7,1.56,1.56s-.7,1.56-1.56,1.56-1.56-.7-1.56-1.56.7-1.56,1.56-1.56ZM92.48,50.31c.86,0,1.56.7,1.56,1.56s-.7,1.56-1.56,1.56-1.56-.7-1.56-1.56.7-1.56,1.56-1.56ZM76.86,28.43c.86,0,1.56.7,1.56,1.56s-.7,1.56-1.56,1.56-1.56-.7-1.56-1.56.7-1.56,1.56-1.56ZM54.98,33.12c.86,0,1.56.7,1.56,1.56s-.7,1.56-1.56,1.56-1.56-.7-1.56-1.56.7-1.56,1.56-1.56ZM39.36,28.43c.86,0,1.56.7,1.56,1.56s-.7,1.56-1.56,1.56-1.56-.7-1.56-1.56.7-1.56,1.56-1.56ZM15.92,45.62c0-.86.7-1.56,1.56-1.56s1.56.7,1.56,1.56-.7,1.56-1.56,1.56-1.56-.7-1.56-1.56ZM22.17,69.06c-.86,0-1.56-.7-1.56-1.56s.7-1.56,1.56-1.56,1.56.7,1.56,1.56-.7,1.56-1.56,1.56ZM17.48,84.68c-.86,0-1.56-.7-1.56-1.56s.7-1.56,1.56-1.56,1.56.7,1.56,1.56-.7,1.56-1.56,1.56ZM33.11,106.56c-.86,0-1.56-.7-1.56-1.56s.7-1.56,1.56-1.56,1.56.7,1.56,1.56-.7,1.56-1.56,1.56ZM54.98,101.87c-.86,0-1.56-.7-1.56-1.56s.7-1.56,1.56-1.56,1.56.7,1.56,1.56-.7,1.56-1.56,1.56ZM63.94,79.34s-.06-.05-.11-.06c-.08-.08-.17-.12-.27-.19-.08-.05-.17-.09-.25-.11-.09-.03-.2-.05-.3-.06-.09,0-.19-.02-.28,0-.09,0-.19.03-.3.06-.09.03-.19.06-.3.11-.05.02-.08.02-.12.05-1.17.72-2.45,1.25-3.8,1.58-.05,0-.08.05-.11.05-.11.03-.19.08-.28.14-.08.05-.17.09-.23.16-.08.06-.14.14-.2.22s-.12.16-.16.25c-.05.09-.08.17-.11.28-.03.09-.05.2-.06.31,0,.05-.03.08-.03.12v2.47h-4.09v-2.47s-.02-.08-.03-.12c0-.11-.03-.2-.06-.31-.03-.09-.06-.19-.11-.28s-.11-.16-.16-.25c-.06-.08-.12-.16-.2-.22s-.16-.11-.23-.16l-.28-.14s-.08-.05-.11-.05c-1.34-.33-2.62-.86-3.8-1.58-.03-.03-.08-.03-.12-.05-.09-.05-.19-.08-.3-.11-.09-.03-.19-.05-.3-.06h-.28c-.11,0-.2.03-.3.06s-.17.08-.25.11c-.09.05-.19.11-.27.19-.03.03-.08.03-.11.06l-1.75,1.75-2.89-2.89,1.75-1.75s.05-.06.06-.11c.08-.08.12-.17.19-.27.05-.08.09-.17.11-.25.03-.09.05-.19.06-.3,0-.09.02-.19,0-.3,0-.09-.03-.19-.06-.28-.03-.11-.06-.2-.11-.3-.02-.03-.02-.08-.05-.12-.72-1.17-1.25-2.45-1.58-3.8,0-.05-.03-.08-.05-.11-.03-.11-.08-.2-.14-.3-.05-.08-.09-.16-.16-.22-.08-.08-.16-.16-.23-.22-.08-.05-.14-.11-.22-.14-.09-.05-.19-.08-.3-.11-.09-.03-.19-.05-.3-.06-.05,0-.08-.03-.12-.03h-2.47v-4.09h2.47c.2,0,.39-.05.56-.11.06-.03.11-.06.17-.09.11-.06.2-.12.3-.2.05-.05.09-.11.14-.16.08-.09.14-.17.19-.28.03-.08.06-.14.09-.22,0-.05.05-.08.06-.12.33-1.34.86-2.62,1.58-3.8.02-.03.03-.08.05-.12.05-.09.08-.19.11-.3.03-.09.05-.19.06-.28v-.3c0-.11-.03-.2-.06-.3s-.08-.17-.11-.25c-.05-.09-.11-.19-.19-.27-.03-.03-.03-.08-.06-.11l-1.75-1.75,1.41-1.41s.03-.02.05-.03.02-.03.03-.05l1.41-1.41,1.75,1.75c.14.12.3.23.45.31.03.02.08.03.11.05.17.06.34.11.53.11s.34-.05.52-.11c.05-.02.09-.03.12-.06.05-.03.11-.03.16-.06,1.17-.72,2.45-1.25,3.8-1.58.05,0,.08-.05.11-.05.11-.03.19-.08.28-.14.08-.05.17-.09.23-.16.08-.06.14-.14.2-.22s.12-.16.16-.25c.05-.09.08-.17.11-.28.03-.09.05-.2.06-.31,0-.05.03-.08.03-.12v-2.47h4.09v2.47s.02.08.03.12c0,.11.03.2.06.31.03.09.06.19.11.28s.11.17.16.25c.06.08.12.16.2.22s.16.11.23.16l.28.14s.08.05.11.05c1.34.33,2.62.86,3.8,1.58.05.03.11.05.16.06s.08.05.12.06c.17.06.34.11.52.11s.36-.05.53-.11c.03,0,.08-.03.11-.05.17-.08.33-.17.45-.31l1.75-1.75,2.89,2.89-1.75,1.75s-.05.06-.06.11c-.08.08-.12.17-.19.27-.05.08-.09.17-.11.25-.03.09-.05.19-.06.3,0,.09-.02.19,0,.3,0,.09.03.19.06.28.03.11.06.2.11.3.02.03.02.08.05.12.72,1.17,1.25,2.45,1.58,3.8,0,.05.05.08.06.12.03.08.06.14.09.22.05.11.11.19.19.28.05.06.09.11.14.16.09.08.19.14.3.2.06.03.11.06.17.09.17.06.36.11.56.11h2.47v4.09h-2.47s-.08.02-.12.03c-.11,0-.2.03-.3.06-.11.03-.2.06-.3.11-.08.05-.16.09-.22.16-.09.06-.17.14-.23.22-.06.06-.11.14-.16.22-.06.09-.11.19-.14.3,0,.05-.05.06-.05.11-.33,1.34-.86,2.62-1.58,3.8-.02.03-.03.08-.05.12-.05.09-.08.19-.11.3-.03.09-.05.19-.06.28v.3c0,.11.03.2.06.3s.08.17.11.25c.05.09.11.19.19.27.03.03.03.08.06.11l1.75,1.75-2.89,2.89-1.75-1.75.06-.02ZM70.61,106.56c-.86,0-1.56-.7-1.56-1.56s.7-1.56,1.56-1.56,1.56.7,1.56,1.56-.7,1.56-1.56,1.56ZM92.48,90.93c-.86,0-1.56-.7-1.56-1.56s.7-1.56,1.56-1.56,1.56.7,1.56,1.56-.7,1.56-1.56,1.56Z"/>
</svg>