<?xml version="1.0" encoding="UTF-8"?>
<svg id="Layer_1" xmlns="http://www.w3.org/2000/svg" version="1.1" viewBox="0 0 110 135">
  <!-- Generator: Adobe Illustrator 29.8.2, SVG Export Plug-In . SVG Version: 2.1.1 Build 3)  -->
  <path d="M92.53,66.21c6.02,0,10.91-4.9,10.91-10.91,0-4.3-2.53-8.14-6.34-9.91,2.16-4.96,1.97-11.34-.61-15.84-1.83-3.2-5.62-7.01-13.33-7.01s-11.5,3.81-13.34,7.01c-2.57,4.5-2.77,10.88-.61,15.84-3.81,1.76-6.34,5.61-6.34,9.91,0,6.02,4.89,10.91,10.91,10.91h7.8v9.71l-3.39-1.84c-.76-.41-1.71-.13-2.12.63-.41.76-.13,1.71.63,2.12l4.88,2.65v13.66h-19.2v-22.53c0-2.19-1.78-3.96-3.96-3.96H14.13c-2.18,0-3.96,1.78-3.96,3.96v27.86c-2.02.21-3.61,1.91-3.61,3.99v3.21c0,3.75,3.05,6.8,6.8,6.8h45.84c3.63,0,6.58-2.86,6.77-6.44h18.52c.86,0,1.56-.7,1.56-1.56s-.7-1.56-1.56-1.56h-18.49v-.45c0-2.08-1.59-3.77-3.61-3.98v-2.2h35.42c.86,0,1.56-.7,1.56-1.56s-.7-1.56-1.56-1.56h-13.09v-26.93h7.81ZM14.13,69.76h44.3c.45,0,.84.38.84.84v27.82H13.3v-27.82c0-.45.38-.84.84-.84h0ZM62.88,102.45v3.21c0,2.03-1.65,3.68-3.68,3.68H13.37c-2.03,0-3.68-1.65-3.68-3.68v-3.21c0-.49.41-.9.9-.9h51.39c.49,0,.91.41.91.9h0ZM73.79,63.08c-4.29,0-7.78-3.49-7.78-7.79,0-3.52,2.38-6.62,5.8-7.53.47-.12.86-.46,1.04-.91.19-.45.15-.96-.1-1.39-2.12-3.61-2.88-9.7-.21-14.36,2.03-3.55,5.71-5.43,10.62-5.43s8.58,1.88,10.61,5.43c2.66,4.66,1.91,10.75-.21,14.37-.25.42-.29.93-.1,1.39.19.45.57.79,1.04.91,3.42.91,5.81,4,5.81,7.53,0,4.3-3.49,7.79-7.79,7.79h-7.8v-14.79l4.2-4.08c.62-.6.63-1.59.03-2.21-.6-.62-1.59-.63-2.21-.03l-2.03,1.97v-4.64c0-.86-.7-1.56-1.56-1.56s-1.56.7-1.56,1.56v14.41l-4.58-4.44c-.62-.6-1.61-.59-2.21.03-.6.62-.59,1.61.03,2.21l6.75,6.55v5.02h-7.8s0,0,0,0Z"/>
  <path d="M40.7,103.88h-8.83c-.86,0-1.56.7-1.56,1.56s.7,1.56,1.56,1.56h8.83c.86,0,1.56-.7,1.56-1.56s-.7-1.56-1.56-1.56Z"/>
  <path d="M34.97,45.4c3.53,0,6.41-2.88,6.41-6.41s-2.88-6.41-6.41-6.41-6.41,2.88-6.41,6.41c0,3.54,2.87,6.41,6.41,6.41ZM34.97,35.7c1.81,0,3.28,1.47,3.28,3.29s-1.47,3.29-3.28,3.29-3.28-1.47-3.28-3.29c0-1.81,1.47-3.29,3.28-3.29Z"/>
  <path d="M34.97,30.83c.86,0,1.56-.7,1.56-1.56v-1.93c0-.86-.7-1.56-1.56-1.56s-1.56.7-1.56,1.56v1.93c0,.86.7,1.56,1.56,1.56Z"/>
  <path d="M33.41,48.71v1.93c0,.86.7,1.56,1.56,1.56s1.56-.7,1.56-1.56v-1.93c0-.86-.7-1.56-1.56-1.56s-1.56.7-1.56,1.56Z"/>
  <path d="M43.12,38.98c0,.86.7,1.56,1.56,1.56h1.93c.86,0,1.56-.7,1.56-1.56s-.7-1.56-1.56-1.56h-1.93c-.86,0-1.56.7-1.56,1.56Z"/>
  <path d="M23.33,40.55h1.93c.86,0,1.56-.7,1.56-1.56s-.7-1.56-1.56-1.56h-1.93c-.86,0-1.56.7-1.56,1.56s.7,1.56,1.56,1.56Z"/>
  <path d="M41.84,33.68c.4,0,.8-.15,1.11-.46l1.36-1.36c.61-.61.61-1.6,0-2.21-.61-.61-1.6-.61-2.21,0l-1.36,1.36c-.61.61-.61,1.6,0,2.21.31.3.71.46,1.11.46h0Z"/>
  <path d="M26.99,44.76l-1.36,1.36c-.61.61-.61,1.6,0,2.21.3.3.7.46,1.11.46s.8-.15,1.11-.46l1.36-1.36c.61-.61.61-1.6,0-2.21-.61-.61-1.6-.61-2.21,0h0Z"/>
  <path d="M42.95,44.76c-.61-.61-1.6-.61-2.21,0-.61.61-.61,1.6,0,2.21l1.36,1.36c.3.3.7.46,1.11.46s.8-.15,1.11-.46c.61-.61.61-1.6,0-2.21l-1.36-1.36Z"/>
  <path d="M26.99,33.22c.3.3.7.46,1.11.46s.8-.15,1.11-.46c.61-.61.61-1.6,0-2.21l-1.36-1.36c-.61-.61-1.6-.61-2.21,0-.61.61-.61,1.6,0,2.21l1.36,1.36Z"/>
  <path d="M24.34,90.39c.29,0,.58-.08.84-.24l8.67-5.52,5.2,2.73c.54.29,1.2.23,1.69-.15l5.32-4.18c.12.6.6,1.09,1.24,1.21.1.02.2.03.29.03.74,0,1.39-.52,1.54-1.27l.63-3.35c.08-.45-.03-.91-.31-1.26-.28-.36-.7-.57-1.16-.59l-3.41-.15c-.87-.07-1.59.63-1.63,1.49-.03.63.33,1.19.86,1.45l-4.5,3.53-5.11-2.68c-.5-.26-1.09-.23-1.57.06l-9.44,6.01c-.73.46-.94,1.43-.48,2.16.31.46.81.72,1.33.72h0Z"/>
</svg>