<?xml version="1.0" encoding="UTF-8"?>
<svg id="Layer_1" xmlns="http://www.w3.org/2000/svg" version="1.1" viewBox="0 0 110 135">
  <!-- Generator: Adobe Illustrator 29.8.2, SVG Export Plug-In . SVG Version: 2.1.1 Build 3)  -->
  <defs>
    <style>
      .st0 {
        fill-rule: evenodd;
        stroke: #000;
        stroke-miterlimit: 10;
        stroke-width: .5px;
      }
    </style>
  </defs>
  <path class="st0" d="M83.68,67.38c.1-.18.22-.35.37-.5h0c.37-.38.89-.61,1.46-.61h6.42c.57,0,1.09.23,1.46.61h0c.37.38.61.9.61,1.46v1.98h5.48c.64,0,1.21.26,1.64.68.02.02.05.05.07.08.38.41.61.96.61,1.55v28.58c0,.64-.26,1.21-.68,1.64-.42.42-1,.68-1.64.68h-1.87c.19.43.31.92.31,1.42,0,.95-.39,1.82-1.02,2.45h0c-.63.63-1.5,1.02-2.45,1.02s-1.82-.39-2.45-1.02h0c-.63-.63-1.02-1.5-1.02-2.46,0-.51.11-.99.31-1.42h-5.09c.19.43.31.92.31,1.42,0,.95-.39,1.82-1.02,2.45h0c-.63.63-1.5,1.02-2.45,1.02s-1.82-.39-2.45-1.02h0c-.63-.63-1.02-1.5-1.02-2.46,0-.51.11-.99.31-1.42h-1.87c-.63,0-1.21-.26-1.63-.68h0s0,0,0,0c-.42-.42-.68-1-.68-1.64v-3.44c-2.79,3-6.12,5.48-9.84,7.29-4.4,2.15-9.35,3.35-14.58,3.35-9.21,0-17.55-3.73-23.58-9.77-6.03-6.03-9.76-14.36-9.77-23.55v-.06c0-3.53.56-6.93,1.58-10.13.87-2.72,2.08-5.29,3.57-7.66-1.67-.36-2.98-.99-3.92-1.88-1.03-.97-1.59-2.21-1.7-3.72l-8.86-7.14c-.12-.09-.23-.22-.3-.37-.25-.51-.03-1.12.48-1.37l7.86-3.81c.27-.13.6-.14.89,0l11.48,5.62,15.55-7.15-7.93-3.63c-.25-.09-.46-.27-.58-.53-.24-.52-.01-1.12.5-1.37l7.93-3.7h0c.18-.08.38-.11.59-.08l14.34,2.33c4.61-2.45,8.99-3.75,13.14-3.88,4.66-.15,9,1.18,13.01,3.96,3.25,1.88.94,4.64-4.49,7.84-3.62,2.14-8.75,4.57-14.43,7.08,4.51,2.35,8.42,5.7,11.43,9.77,2.62,3.57,4.57,7.68,5.62,12.14h0ZM80.11,75.45v22.96c0,.57.46,1.03,1.03,1.03s1.03-.46,1.03-1.03v-22.96c0-.57-.45-1.03-1.02-1.03s-1.03.46-1.03,1.03ZM85.17,75.45v22.96c0,.57.46,1.03,1.03,1.03s1.03-.46,1.03-1.03v-22.96c0-.57-.45-1.03-1.02-1.03s-1.03.46-1.03,1.03ZM90.22,75.45v22.96c0,.57.46,1.03,1.03,1.03s1.03-.46,1.03-1.03v-22.96c0-.57-.45-1.03-1.02-1.03s-1.03.46-1.03,1.03ZM95.29,75.45v22.96c0,.57.46,1.03,1.03,1.03s1.03-.46,1.03-1.03v-22.96c0-.57-.46-1.03-1.03-1.03s-1.03.46-1.03,1.03ZM83.02,103.53h-.04c-.39,0-.74.16-.99.42-.26.26-.41.61-.41,1.01s.16.75.41,1.01c.26.26.61.41,1.01.41s.75-.16,1.01-.41.42-.61.42-1.01-.16-.75-.42-1.01c-.25-.26-.6-.41-.99-.42ZM94.46,103.53h-.04c-.39,0-.74.16-.99.42-.26.26-.42.61-.42,1.01s.16.75.42,1.01.61.41,1.01.41.75-.16,1.01-.41.42-.61.42-1.01-.16-.75-.42-1.01c-.25-.26-.6-.41-.99-.42ZM91.95,70.33v-1.98s0,0,0-.01h-6.44s0,0-.01,0,0,0,0,.01v1.98h6.46ZM82.17,70.33c-.77-5.02-2.72-9.65-5.57-13.59-2.45,1.24-5.4,2.3-8.71,3.11,1.22,4.28,1.95,9.1,2.03,14.2h5.74v-1.41c0-.63.26-1.21.68-1.63h0c.42-.43,1-.68,1.63-.68h4.2ZM75.65,76.1h-5.74c-.09,5.1-.81,9.92-2.03,14.2,2.9.71,5.51,1.62,7.77,2.66v-16.85ZM99.49,72.38h-21.53c-.07,0-.14.03-.18.07h0c-.04.05-.07.11-.07.18v28.58c0,.07.03.13.08.18h0c.05.05.11.08.18.08h21.53c.07,0,.13-.03.18-.08.05-.05.08-.11.08-.18v-28.58c0-.06-.02-.11-.05-.16l-.02-.02s-.11-.08-.18-.08ZM101.19,71.08l-.07,1.38c.38-.37.4-.97.07-1.38ZM25.46,57.31c-1.73,2.5-3.1,5.27-4.05,8.23-.86,2.69-1.37,5.54-1.46,8.51h12.59c.06-3.51.42-6.88,1.03-10.04.28-1.43.61-2.83,1-4.16-.23-.06-.46-.12-.69-.17-2.63-.69-5.01-1.52-7.08-2.48-.45.04-.9.09-1.35.12h0ZM26.89,55.13h.02c2.95-.29,5.85-.69,8.68-1.19.59-.1,1.17-.21,1.75-.33h.05c3.02-.61,6-1.34,8.92-2.2l3.45-6.39c.1-.19.26-.35.47-.44l12.48-5.77c.3-.15.67-.15.98.03.49.29.65.92.36,1.4l-3.32,5.6c.18-.09.35-.17.5-.25l.05-.02c7.36-3.15,14.24-6.28,18.72-8.92,3.6-2.12,5.53-3.71,4.47-4.31-.03-.01-.06-.03-.09-.05-1.42-.99-2.88-1.78-4.39-2.36l-7.69,3.75c-.51.25-1.12.04-1.37-.47-.25-.51-.04-1.12.47-1.37l5.69-2.77c-1.47-.31-2.98-.44-4.53-.4-4.27.13-8.86,1.64-13.77,4.5-.05.03-.11.06-.17.08l-29.25,13.43c-.3.14-.63.12-.9-.02l-5.48-2.68-7.33,3.68,3.38,2.73c.26.21.39.52.38.84.01,1.14.38,2.04,1.08,2.71.75.71,1.91,1.2,3.48,1.46.96-.08,1.92-.16,2.88-.25h0ZM31.11,56.71c1.04.36,2.14.69,3.29.99.26.07.52.13.78.2.22-.66.45-1.3.7-1.93-1.58.28-3.17.53-4.77.74h0ZM38.28,55.5c-.39.91-.75,1.85-1.09,2.84,1.57.33,3.22.6,4.93.81l2.82-5.23c-2.18.6-4.4,1.12-6.66,1.58h0ZM61.85,47.57c2.2,2.7,4.05,6.22,5.43,10.33,3.05-.75,5.76-1.7,8.04-2.8-3.01-3.62-6.82-6.55-11.17-8.53-.69.3-1.38.59-2.07.89l-.24.11ZM20.7,42.83l-3.66-1.79-5.96,2.89,2.85,2.3,6.77-3.4ZM47.92,52.72s-.02.04-.03.06l-4.27,7.92s-.03.05-.04.08l-.9,1.66,7.91-3.57,6.67-11.23.02-.04,3.31-5.57-9.2,4.25-3.47,6.44ZM46.99,36.33l9.3-4.27-11.26-1.82-5.63,2.62,7.59,3.47ZM59.94,48.47c-.38.17-.74.34-1.07.49l-6.37,10.73c4.58-.08,8.9-.55,12.77-1.35-1.36-3.99-3.18-7.37-5.33-9.87h0ZM41.09,61.08c-1.55-.21-3.06-.47-4.51-.78-.38,1.31-.71,2.68-.98,4.1-.59,3.02-.94,6.27-.99,9.65h15.6v-12.31h-.08c-.3,0-.59,0-.86-.01l-8.49,3.83c-.28.13-.61.12-.91-.03-.5-.27-.69-.89-.42-1.39l1.64-3.06ZM19.96,76.1c.21,6.46,2.37,12.41,5.92,17.31,2.45-1.24,5.4-2.29,8.71-3.11-1.22-4.28-1.95-9.1-2.03-14.2h-12.59ZM27.15,95.06c.62.74,1.27,1.46,1.95,2.14,3.88,3.88,8.78,6.75,14.25,8.17-2.07-1.71-3.94-4.07-5.51-6.95-1.01-1.85-1.9-3.92-2.66-6.16-3.04.74-5.76,1.69-8.03,2.8h0ZM59.11,105.37c2.02-.52,3.96-1.24,5.81-2.14,4.03-1.96,7.57-4.76,10.4-8.16-2.27-1.11-4.99-2.06-8.04-2.8-.75,2.24-1.64,4.31-2.66,6.16-1.57,2.87-3.44,5.24-5.51,6.95h0ZM52.26,61.75v12.3h15.6c-.09-4.96-.79-9.63-1.98-13.74l-.16.03c-4.1.85-8.66,1.34-13.47,1.41h0ZM52.26,76.1v12.3c4.75.06,9.26.55,13.31,1.38l.31.07c1.19-4.12,1.89-8.79,1.98-13.74h-15.59ZM52.26,90.46v15.85c4.07-.48,7.78-3.78,10.56-8.87.93-1.7,1.75-3.58,2.44-5.63l-.11-.02c-3.9-.8-8.27-1.27-12.9-1.33h0ZM50.2,106.31v-15.85c-4.67.06-9.07.54-13.01,1.35.69,2.05,1.52,3.94,2.44,5.63,2.78,5.09,6.49,8.39,10.57,8.87h0ZM50.2,88.4v-12.3h-15.6c.09,4.96.79,9.62,1.98,13.74l.16-.03c4.09-.85,8.65-1.35,13.46-1.41h0Z"/>
</svg>