<?xml version="1.0" encoding="UTF-8"?>
<svg id="Layer_1" xmlns="http://www.w3.org/2000/svg" version="1.1" viewBox="0 0 64 80">
  <!-- Generator: Adobe Illustrator 29.8.2, SVG Export Plug-In . SVG Version: 2.1.1 Build 3)  -->
  <defs>
    <style>
      .st0 {
        stroke-dasharray: 2 1;
      }

      .st0, .st1 {
        fill: none;
        stroke: #000;
        stroke-miterlimit: 10;
        stroke-width: 2px;
      }
    </style>
  </defs>
  <path class="st1" d="M56.88,25.34c0,.94-.24,1.85-.71,2.67l-3.38,5.9-1.24,2.18-1.26-2.2-3.39-5.87c-1.43-2.57-.51-5.82,2.06-7.25,2.57-1.43,5.82-.51,7.25,2.06.43.77.66,1.64.67,2.53Z"/>
  <circle class="st1" cx="51.53" cy="25.34" r="1.78"/>
  <line class="st1" x1="32" y1="13.79" x2="32" y2="26.23"/>
  <line class="st1" x1="44.44" y1="40.44" x2="58.66" y2="40.44"/>
  <line class="st1" x1="5.34" y1="40.44" x2="18.67" y2="40.44"/>
  <path class="st1" d="M33.78,44.89v-.89c0-.98-.8-1.78-1.78-1.78h0c-.98,0-1.78.8-1.78,1.78v.89l-5.33,2.67,7.11-15.1,7.11,15.1-5.33-2.67Z"/>
  <path class="st1" d="M10.75,42.22c-.05-.59-.07-1.18-.07-1.78-.02-11.78,9.51-21.34,21.29-21.36,2.12,0,4.23.31,6.26.93"/>
  <path class="st1" d="M53.25,38.67c.05.59.07,1.18.07,1.78,0,6.87-3.3,13.31-8.89,17.31v-5.76c0-.98-.8-1.78-1.78-1.78h-8.89v-6.22c0-.98-.8-1.78-1.78-1.78h0c-.98,0-1.78.8-1.78,1.78v9.77h-1.09c-.98,0-1.77.8-1.77,1.78,0,.19.03.37.09.55l.11.33.89,2.67.83,2.49c-4.27-.55-8.28-2.38-11.49-5.26"/>
  <path class="st1" d="M44.44,51.99v14.22h-14.22v-1.78l-.6-1.78-.36-1.07-.83-2.49-.89-2.67-.11-.33c-.31-.93.2-1.94,1.13-2.25.18-.06.36-.09.55-.09h1.09v-9.77c0-.98.8-1.78,1.78-1.78h0c.98,0,1.78.8,1.78,1.78v6.22h8.89c.98,0,1.78.8,1.78,1.78Z"/>
  <line class="st1" x1="37.33" y1="50.22" x2="37.33" y2="53.77"/>
  <line class="st1" x1="40.89" y1="50.22" x2="40.89" y2="53.77"/>
  <line class="st1" x1="33.78" y1="50.22" x2="33.78" y2="53.77"/>
  <polyline class="st0" points="13.34 48.44 16.9 48.44 16.9 51.11 22.23 51.11 22.23 40.44 25.78 40.44"/>
  <polyline class="st0" points="49.77 36.89 43.55 36.89 43.52 26.23 38.22 26.23 38.22 31.56 33.78 31.56"/>
  <polyline class="st1" points="5.34 51.11 7.12 51.11 7.12 48.44 10.68 48.44 10.68 51.11 12.45 51.11"/>
</svg>