<?xml version="1.0" encoding="UTF-8"?>
<svg id="Layer_1" xmlns="http://www.w3.org/2000/svg" version="1.1" viewBox="0 0 110 135">
  <!-- Generator: Adobe Illustrator 29.8.2, SVG Export Plug-In . SVG Version: 2.1.1 Build 3)  -->
  <path d="M54.99,58.34c6.48,0,11.76-5.28,11.76-11.76s-5.28-11.76-11.76-11.76-11.73,5.28-11.73,11.76,5.27,11.76,11.73,11.76ZM54.99,37.81c4.83,0,8.76,3.93,8.76,8.76s-3.93,8.76-8.76,8.76-8.73-3.93-8.73-8.76,3.92-8.76,8.73-8.76ZM64.49,27.15l2.49-4.34c.41-.72,1.33-.96,2.05-.55.72.41.96,1.33.55,2.05l-2.49,4.34c-.28.48-.78.75-1.3.75-.25,0-.51-.06-.75-.2-.71-.42-.96-1.34-.55-2.05h0ZM53.49,25.01v-5.02c0-.83.67-1.5,1.5-1.5s1.5.67,1.5,1.5v5.02c0,.83-.67,1.5-1.5,1.5s-1.5-.67-1.5-1.5ZM40.42,24.31c-.41-.72-.16-1.64.55-2.05.72-.41,1.64-.16,2.05.55l2.5,4.34c.41.72.16,1.64-.55,2.05-.23.14-.49.2-.75.2-.52,0-1.02-.27-1.3-.75l-2.5-4.33ZM37.61,56.63c.41.72.16,1.64-.55,2.05l-4.34,2.5c-.23.14-.49.2-.75.2-.52,0-1.02-.27-1.3-.75-.41-.72-.16-1.64.55-2.05l4.34-2.5c.72-.41,1.63-.16,2.05.55ZM26.93,46.58c0-.83.67-1.5,1.5-1.5h4.99c.83,0,1.5.67,1.5,1.5s-.67,1.5-1.5,1.5h-4.99c-.83,0-1.5-.67-1.5-1.5ZM72.4,36.52c-.41-.72-.16-1.64.55-2.05l4.34-2.49c.72-.41,1.64-.16,2.05.55.41.72.16,1.64-.55,2.05l-4.34,2.49c-.23.14-.49.2-.75.2-.52,0-1.03-.27-1.3-.75ZM30.67,32.53c.41-.72,1.33-.96,2.05-.55l4.34,2.49c.72.41.96,1.33.55,2.05-.28.48-.78.75-1.3.75-.25,0-.51-.06-.75-.2l-4.34-2.49c-.72-.41-.97-1.33-.55-2.05h0ZM78.78,58.57c.72.41.96,1.33.55,2.05-.28.48-.78.75-1.3.75-.25,0-.51-.06-.75-.2l-4.34-2.5c-.72-.41-.96-1.33-.55-2.05.41-.72,1.33-.96,2.05-.55l4.34,2.49ZM76.59,45.08h4.99c.83,0,1.5.67,1.5,1.5s-.67,1.5-1.5,1.5h-4.99c-.83,0-1.5-.67-1.5-1.5s.67-1.5,1.5-1.5ZM7.03,104.78l1.47.49c.22.67.48,1.31.79,1.91l-.7,1.36c-.3.58-.19,1.29.27,1.75l3.34,3.34c.46.46,1.16.57,1.74.28l1.38-.7c.65.32,1.29.59,1.92.8l.47,1.45c.2.62.78,1.04,1.43,1.04h.02l2.32-.03,2.35.03c.67-.02,1.23-.41,1.44-1.02l.49-1.47c.64-.21,1.28-.48,1.91-.8l1.37.7c.58.29,1.28.18,1.74-.28l3.34-3.34c.46-.46.57-1.16.28-1.74l-.7-1.37c.31-.62.58-1.27.8-1.91l1.47-.49c.61-.2,1.03-.78,1.03-1.42v-4.71c0-.65-.42-1.23-1.04-1.43l-1.45-.46c-.21-.63-.47-1.27-.8-1.92l.7-1.38c.29-.58.18-1.28-.28-1.74l-3.34-3.34c-.46-.46-1.17-.57-1.75-.27l-1.36.7c-.6-.31-1.24-.57-1.91-.79l-.49-1.47c-.2-.61-.78-1.02-1.42-1.02h-4.7c-.65,0-1.23.42-1.43,1.04l-.46,1.45c-.66.21-1.3.48-1.92.79l-1.36-.71c-.58-.3-1.29-.19-1.75.27l-3.34,3.34c-.47.46-.58,1.16-.28,1.75l.71,1.36c-.32.62-.58,1.26-.79,1.92l-1.45.46c-.62.2-1.04.78-1.04,1.43v4.71c0,.64.41,1.21,1.03,1.42h0ZM9,99.74l1.17-.38c.49-.16.87-.55,1-1.05.25-.96.61-1.84,1.11-2.7.26-.45.28-.99.04-1.45l-.57-1.09,1.79-1.79,1.09.57c.46.24,1.01.23,1.45-.04.86-.5,1.74-.87,2.7-1.12.5-.13.9-.5,1.05-1l.38-1.17h2.53l.39,1.19c.16.48.55.85,1.04.98.98.26,1.88.63,2.66,1.11.45.27,1,.29,1.47.05l1.09-.57,1.8,1.8-.56,1.1c-.23.45-.21.97.03,1.41.54.96.91,1.86,1.13,2.73.13.5.5.9,1,1.05l1.17.38v2.53l-1.18.39c-.48.16-.85.55-.98,1.04-.23.89-.62,1.82-1.12,2.7-.25.44-.27.98-.04,1.43l.56,1.1-1.81,1.81-1.1-.56c-.45-.23-.99-.21-1.43.04-.87.5-1.8.89-2.7,1.12-.49.13-.88.5-1.04.98l-.39,1.17-1.29-.02-1.25.02-.37-1.16c-.16-.49-.55-.87-1.05-1-.88-.23-1.77-.6-2.73-1.13-.44-.24-.96-.25-1.41-.03l-1.09.56-1.8-1.8.57-1.09c.24-.46.22-1.02-.05-1.47-.48-.79-.85-1.68-1.11-2.66-.13-.49-.5-.88-.98-1.04l-1.19-.39v-2.53ZM21.48,108.85c4.33,0,7.85-3.52,7.85-7.85s-3.52-7.82-7.85-7.82-7.82,3.51-7.82,7.82c0,4.33,3.51,7.85,7.82,7.85ZM21.48,96.18c2.68,0,4.85,2.16,4.85,4.82s-2.18,4.85-4.85,4.85-4.82-2.18-4.82-4.85c0-2.66,2.16-4.82,4.82-4.82ZM73.13,101.06c0,3.98,1.53,7.59,4.01,10.33.11.19.26.35.43.48,2.8,2.84,6.68,4.61,10.98,4.61s8.18-1.76,10.98-4.59c.2-.13.36-.31.47-.52,2.47-2.73,4-6.34,4-10.31,0-8.52-6.93-15.44-15.44-15.44s-15.42,6.93-15.42,15.45h0ZM79.93,109.98v-1.83c0-1.3,1.04-2.36,2.33-2.36h12.59c1.3,0,2.36,1.06,2.36,2.36v1.82c-2.24,2.16-5.29,3.51-8.65,3.51s-6.38-1.34-8.62-3.5h0ZM83.55,97.8c0-2.75,2.24-4.99,4.99-4.99s5.02,2.24,5.02,4.99-2.25,4.99-5.02,4.99-4.99-2.24-4.99-4.99ZM100.99,101.06c0,1.86-.42,3.62-1.16,5.2-.77-2.02-2.71-3.47-4.99-3.47h-.04c1.1-1.37,1.77-3.11,1.77-4.99,0-4.41-3.6-7.99-8.02-7.99s-7.99,3.59-7.99,7.99c0,1.89.66,3.62,1.76,4.99h-.06c-2.27,0-4.21,1.45-4.97,3.47-.73-1.59-1.16-3.34-1.16-5.2,0-6.86,5.57-12.44,12.42-12.44,6.86,0,12.44,5.58,12.44,12.44h0ZM45.12,86.38c-.83,0-1.5.67-1.5,1.5v27.13c0,.83.67,1.5,1.5,1.5h13.15c.4,0,.78-.16,1.06-.44l6.66-6.66c.28-.28.44-.66.44-1.06v-20.47c0-.83-.67-1.5-1.5-1.5h-19.81ZM63.43,107.72l-5.78,5.78h-11.03v-24.13h16.81v18.35ZM58.55,107.21c0,.83-.67,1.5-1.5,1.5h-4.05c-.83,0-1.5-.67-1.5-1.5s.67-1.5,1.5-1.5h4.05c.83,0,1.5.67,1.5,1.5ZM48.27,102.79c0-.83.67-1.5,1.5-1.5h10.49c.83,0,1.5.67,1.5,1.5s-.67,1.5-1.5,1.5h-10.49c-.83,0-1.5-.67-1.5-1.5ZM48.27,98.36c0-.83.67-1.5,1.5-1.5h10.49c.83,0,1.5.67,1.5,1.5s-.67,1.5-1.5,1.5h-10.49c-.83,0-1.5-.67-1.5-1.5ZM48.27,93.94c0-.83.67-1.5,1.5-1.5h10.49c.83,0,1.5.67,1.5,1.5s-.67,1.5-1.5,1.5h-10.49c-.83,0-1.5-.67-1.5-1.5ZM21.48,84.08c.83,0,1.5-.67,1.5-1.5v-3.01h30.53v3.01c0,.83.67,1.5,1.5,1.5s1.5-.67,1.5-1.5v-3.01h30.54v3.01c0,.83.67,1.5,1.5,1.5s1.5-.67,1.5-1.5v-4.51c0-.83-.67-1.5-1.5-1.5h-32.04v-4.23h4.23c1.64,0,2.97-1.34,2.97-2.97v-1.93c1.51-.14,2.69-1.41,2.69-2.97v-4.83c3.77-3.3,5.93-8.02,5.93-13.06,0-9.56-7.78-17.35-17.35-17.35s-17.32,7.78-17.32,17.35c0,5.04,2.15,9.76,5.93,13.06v4.83c0,1.56,1.19,2.83,2.69,2.97v1.93c0,1.64,1.34,2.97,2.97,2.97h4.25v4.23H21.48c-.83,0-1.5.67-1.5,1.5v4.51c0,.83.67,1.5,1.5,1.5h0ZM40.67,46.58c0-7.91,6.42-14.35,14.32-14.35s14.35,6.44,14.35,14.35c0,4.37-1.96,8.45-5.36,11.19-.36.29-.56.71-.56,1.17v5.53s-16.82,0-16.82,0v-5.53c0-.45-.21-.88-.56-1.17-3.41-2.74-5.37-6.82-5.37-11.19h0ZM49.29,67.47h11.43v1.88s-11.43.03-11.43.03v-1.9Z"/>
</svg>