<svg height="481pt" viewBox="-29 0 481 481.6362" width="481pt" xmlns="http://www.w3.org/2000/svg"><path d="m1.351562 324.035156c1.433594 2.484375 4.089844 4.011719 6.957032 4h32v112c0 4.417969 3.582031 8 8 8h65.441406l6.558594 33.601563 16-3.199219-8-40c-.769532-3.785156-4.136719-6.480469-8-6.402344h-64v-112c0-4.417968-3.578125-8-8-8h-26.078125l48.960937-84-13.761718-8-56 96c-1.4531255 2.460938-1.4843755 5.511719-.078126 8zm0 0"/><path d="m384.308594 240.757812c.050781 30.714844-9.394532 60.695313-27.039063 85.839844l-27.519531 39.277344c-.964844 1.324219-1.46875 2.925781-1.441406 4.5625v109.597656h16v-107.039062l26.082031-36.960938c19.617187-27.886718 30.074219-61.183594 29.917969-95.277344v-16.722656h-16zm0 0"/><path d="m88.308594 200.035156c-4.417969 0-8 3.582032-8 8v72c0 4.417969 3.582031 8 8 8h32c4.421875 0 8-3.582031 8-8v-72c0-4.417968-3.578125-8-8-8zm24 72h-16v-56h16zm0 0"/><path d="m160.308594 176.035156c-4.417969 0-8 3.582032-8 8v96c0 4.417969 3.582031 8 8 8h32c4.421875 0 8-3.582031 8-8v-96c0-4.417968-3.578125-8-8-8zm24 96h-16v-80h16zm0 0"/><path d="m232.308594 152.035156c-4.417969 0-8 3.582032-8 8v120c0 4.417969 3.582031 8 8 8h32c4.421875 0 8-3.582031 8-8v-120c0-4.417968-3.578125-8-8-8zm24 120h-16v-104h16zm0 0"/><path d="m304.308594 128.035156c-4.417969 0-8 3.582032-8 8v144c0 4.417969 3.582031 8 8 8h32c4.421875 0 8-3.582031 8-8v-144c0-4.417968-3.578125-8-8-8zm24 144h-16v-128h16zm0 0"/><path d="m360.308594 29.476562-8-24v-.878906c-1.433594-3.058594-4.636719-4.882812-8-4.5624998h-24v15.9999998h6.960937l-14.960937 17.601563c-5.957032-2.226563-12.558594-1.949219-18.3125.761719-5.753906 2.710937-10.167969 7.628906-12.246094 13.636718h-34.878906c-3.964844-10.917968-15.175782-17.433594-26.625-15.464844-11.449219 1.964844-19.84375 11.851563-19.9375 23.464844-.011719 4.9375 1.527344 9.75 4.402344 13.761719l-13.839844 19.28125c-2.121094-.675781-4.335938-1.027344-6.5625-1.042969-8.261719.011719-15.9375 4.273438-20.316406 11.28125l-27.683594-6.238281c-.816406-13.257813-12.222656-23.339844-25.476563-22.523437-13.257812.820312-23.339843 12.226562-22.523437 25.480468.027344 4.722656 1.417968 9.332032 4 13.28125l-20.878906 27.917969c-2.296876-.765625-4.699219-1.171875-7.121094-1.199219-13.253906 0-24 10.746094-24 24 0 13.257813 10.746094 24 24 24 13.257812 0 24-10.742187 24-24-.023438-4.71875-1.414063-9.332031-4-13.277344l20.882812-27.921874c2.296875.769531 4.699219 1.171874 7.117188 1.199218 8.265625-.011718 15.941406-4.269531 20.320312-11.277344l28 6.238282c1.964844 12.191406 12.859375 20.90625 25.183594 20.140625s22.058594-10.757813 22.496094-23.101563c.015625-4.933594-1.523438-9.746094-4.398438-13.757812l13.839844-19.28125c2.121094.675781 4.332031 1.027344 6.558594 1.039062 10.148437-.027344 19.179687-6.433594 22.5625-16h34.878906c3.960938 10.921875 15.175781 17.433594 26.625 15.46875 11.449219-1.96875 19.84375-11.851562 19.933594-23.46875-.007813-4.292968-1.195313-8.5-3.4375-12.160156l16-19.679688 3.4375 10.402344zm-296 138.558594c-4.417969 0-8-3.582031-8-8 0-4.417968 3.582031-8 8-8 4.421875 0 8 3.582032 8 8 0 4.417969-3.578125 8-8 8zm48-64c-4.417969 0-8-3.582031-8-8 0-4.417968 3.582031-8 8-8 4.421875 0 8 3.582032 8 8 0 4.417969-3.578125 8-8 8zm72 16c-4.417969 0-8-3.582031-8-8 0-4.417968 3.582031-8 8-8 4.421875 0 8 3.582032 8 8 0 4.417969-3.578125 8-8 8zm40-56c-4.417969 0-8-3.582031-8-8 0-4.417968 3.582031-8 8-8 4.421875 0 8 3.582032 8 8 0 4.417969-3.578125 8-8 8zm80 0c-4.417969 0-8-3.582031-8-8 0-4.417968 3.582031-8 8-8 4.421875 0 8 3.582032 8 8 0 4.417969-3.578125 8-8 8zm0 0"/><path d="m56.308594 8.035156v8h-8v16h8v8h16v-8h8v-16h-8v-8zm0 0"/><path d="m416.308594 96.035156h-16v8h-8v16h8v8h16v-8h8v-16h-8zm0 0"/></svg>