<svg id="Outline" enable-background="new 0 0 64 64" viewBox="0 0 64 64" xmlns="http://www.w3.org/2000/svg"><g><path d="m42.89465 37h5.10535c4.96289 0 9-4.0376 9-9 0-3.01172-1.52246-5.83105-4.00879-7.49072-.25976-7.49317-6.43555-13.50928-13.99121-13.50928-4.35059 0-8.43652 2.01953-11.07812 5.43848-.93946-.29102-1.91895-.43848-2.92188-.43848-4.43457 0-8.25391 2.84717-9.54883 7.0166-4.70801.28418-8.45117 4.20508-8.45117 8.9834 0 4.9624 4.03711 9 9 9h5.10535c.49017 1.06366 1.12982 2.04175 1.89465 2.91083v10.08917c0 .55127-.44824 1-1 1h-3.18427c-.41412-1.1615-1.51379-2-2.81573-2-1.6543 0-3 1.3457-3 3s1.3457 3 3 3c1.30194 0 2.40161-.8385 2.81573-2h3.18427c1.6543 0 3-1.3457 3-3v-8.27313c1.71802 1.23999 3.771 2.03729 6 2.22247v7.23492c-1.1615.41413-2 1.5138-2 2.81574 0 1.6543 1.3457 3 3 3s3-1.3457 3-3c0-1.30194-.8385-2.40161-2-2.81573v-7.23492c2.229-.18518 4.28198-.98248 6-2.22247v8.27312c0 1.6543 1.3457 3 3 3h3.18433c.41412 1.1615 1.51373 2 2.81567 2 1.6543 0 3-1.3457 3-3s-1.3457-3-3-3c-1.30194 0-2.40161.8385-2.81573 2h-3.18427c-.55176 0-1-.44873-1-1v-10.08917c.76483-.86908 1.40448-1.84717 1.89465-2.91083zm-26.89465 16c-.55176 0-1-.44873-1-1s.44824-1 1-1 1 .44873 1 1-.44824 1-1 1zm32-2c.55176 0 1 .44873 1 1s-.44824 1-1 1-1-.44873-1-1 .44824-1 1-1zm-32-16c-3.85938 0-7-3.14014-7-7s3.14062-7 7.08008-7c.50586.0752 1-.26123 1.11523-.76904.83203-3.66846 4.04199-6.23096 7.80469-6.23096 1.01367 0 1.99512.1875 2.91797.55811.43262.17188.93066.0249 1.19629-.36133 2.23926-3.25391 5.93457-5.19678 9.88574-5.19678 6.61719 0 12 5.3833 12 12.06982 0 .35742.19043.68701.5.86572 2.15918 1.24757 3.5 3.57081 3.5 6.06446 0 3.85986-3.14062 7-7 7h-4.3949c.24872-.96088.3949-1.96252.3949-3 0-4.95264-3.10059-9.45557-7.71582-11.20508-.5166-.1958-1.09375.06396-1.28906.58057-.19629.5166.06348 1.09375.58008 1.28955 3.84277 1.45703 6.4248 5.2085 6.4248 9.33496 0 5.51416-4.48633 10-10 10s-10-4.48584-10-10c0-4.12646 2.58203-7.87793 6.4248-9.33496.5166-.1958.77637-.77295.58008-1.28955-.19531-.5166-.77539-.77637-1.28906-.58057-4.61523 1.74951-7.71582 6.25244-7.71582 11.20508 0 1.03748.14618 2.03912.3949 3zm16 20c-.55176 0-1-.44873-1-1s.44824-1 1-1 1 .44873 1 1-.44824 1-1 1z"/><path d="m32.29297 33.29297c-.39062.39062-.39062 1.02344 0 1.41406 0 0 3 3 3.00005 3.00005.3897.38964 1.02653.38743 1.41401-.00005l3-3c.39062-.39062.39062-1.02344 0-1.41406s-1.02344-.39062-1.41406 0l-1.29297 1.29297v-7.58594c0-.55225-.44727-1-1-1s-1 .44775-1 1v7.58594l-1.29297-1.29297c-.39062-.39063-1.02344-.39063-1.41406 0z"/><path d="m27.29297 26.29297-3 3c-.39062.39062-.39062 1.02344 0 1.41406s1.02344.39062 1.41406 0l1.29297-1.29297v7.58594c0 .55225.44727 1 1 1s1-.44775 1-1v-7.58594s1.29297 1.29297 1.2931 1.2931c.38874.3886 1.02476.38905 1.41393-.00013.39062-.39062.39062-1.02344 0-1.41406l-3-3c-.39062-.39063-1.02344-.39063-1.41406 0z"/><circle cx="32" cy="21" r="1"/></g></svg>