<svg id="Layer_1" viewBox="0 0 512 512" xmlns="http://www.w3.org/2000/svg" data-name="Layer 1"><path d="m499.85 175.71-119.99-79-120.02-79c-2.34-1.54-5.36-1.54-7.7 0l-239.99 158c-2.58 1.7-3.74 4.89-2.86 7.86s3.61 4.99 6.71 4.99h52.38v27.72c0 3.87 3.13 7 7 7h34.82l-13.08 224.81c-10.06 2.92-17.43 12.21-17.43 23.19v17.15c0 3.87 3.13 7 7 7h85.38c3.87 0 7-3.13 7-7v-17.15c0-10.97-7.36-20.26-17.4-23.18l-13.08-224.82h30.74c1.14 3.19 2.47 6.33 4.01 9.38l-8.09 18.32c-1.17 2.65-.59 5.74 1.46 7.78l16.53 16.5c2.04 2.04 5.13 2.62 7.78 1.45l18.31-8.09c3.65 1.85 7.41 3.42 11.24 4.67l7.24 18.67c1.04 2.69 3.64 4.47 6.53 4.47h23.33c2.89 0 5.49-1.78 6.53-4.48l7.21-18.67c3.84-1.25 7.61-2.82 11.27-4.68l18.31 8.09c2.64 1.17 5.73.59 7.78-1.45l16.53-16.5c2.05-2.04 2.63-5.14 1.46-7.78l-8.09-18.32c1.54-3.05 2.87-6.18 4.01-9.38h30.74l-13.08 224.82c-10.04 2.93-17.4 12.21-17.4 23.19v17.15c0 3.87 3.13 7 7 7h85.35c3.87 0 7-3.13 7-7v-17.15c0-10.97-7.36-20.26-17.4-23.19l-13.08-224.82h34.82c3.87 0 7-3.13 7-7v-27.72h52.38c3.09 0 5.82-2.03 6.71-4.99s-.27-6.16-2.86-7.86zm-417.45 12.85h73.16v19.11c0 .55.08 1.09.21 1.62h-73.37v-20.72zm82.69 282.73v10.15h-71.38v-10.15c0-5.6 4.55-10.15 10.15-10.15h51.08c5.6 0 10.15 4.55 10.15 10.15zm-17.48-24.15h-36.38l13.02-223.85h10.34zm164.66-185.17-17.05-7.53c-2.02-.89-4.35-.78-6.27.31-4.7 2.65-9.64 4.7-14.69 6.1-2.14.59-3.87 2.16-4.67 4.22l-6.72 17.38h-13.74l-6.74-17.38c-.8-2.06-2.53-3.62-4.66-4.22-5.05-1.4-9.98-3.45-14.67-6.1-1.92-1.09-4.25-1.2-6.27-.31l-17.05 7.53-9.74-9.72 7.53-17.04c.89-2.01.78-4.32-.29-6.24-2.59-4.63-4.63-9.53-6.06-14.56-.06-.23-.14-.45-.22-.67-.68-1.9-2.15-3.42-4.05-4.16l-17.35-6.72v-13.76l2.24-.87c.26-.08.52-.19.77-.3l14.35-5.55c2.05-.79 3.61-2.51 4.21-4.63 1.45-5.14 3.51-10.1 6.11-14.75 1.08-1.92 1.19-4.24.3-6.26l-7.53-17.04 9.74-9.72 17.05 7.53c2.02.89 4.34.78 6.27-.31 4.6-2.6 9.55-4.65 14.7-6.11 2.12-.6 3.83-2.15 4.62-4.2l6.74-17.36h13.74l6.72 17.35c.8 2.06 2.51 3.62 4.64 4.21 5.16 1.45 10.11 3.5 14.72 6.1 1.92 1.09 4.25 1.2 6.27.31l17.05-7.53 9.74 9.72-7.53 17.04c-.89 2.01-.78 4.31.28 6.23 2.64 4.75 4.71 9.72 6.13 14.77.6 2.12 2.16 3.83 4.21 4.63l14.2 5.49c.32.15.65.28.99.38l2.17.84v13.76l-17.35 6.72c-1.88.73-3.34 2.23-4.03 4.11-.1.24-.18.49-.25.74-1.44 5.02-3.47 9.91-6.06 14.54-1.07 1.92-1.18 4.23-.29 6.24l7.53 17.04-9.74 9.72zm106.01 209.32v10.15h-71.35v-10.15c0-5.6 4.55-10.15 10.15-10.15h51.05c5.6 0 10.15 4.55 10.15 10.15zm-17.48-24.15h-36.38l13.02-223.85h10.34zm28.82-237.86h-73.37c.12-.52.21-1.06.21-1.62v-19.11h73.16v20.72zm-85.96-34.72-10.33-4c-1.26-3.82-2.83-7.58-4.67-11.24l8.1-18.33c1.17-2.65.59-5.74-1.46-7.78l-16.53-16.5c-2.04-2.04-5.13-2.62-7.78-1.45l-18.31 8.09c-3.62-1.83-7.38-3.39-11.26-4.67l-7.22-18.65c-1.04-2.7-3.64-4.47-6.53-4.47h-23.33c-2.89 0-5.48 1.77-6.53 4.47l-7.25 18.66c-3.87 1.28-7.63 2.84-11.24 4.66l-18.31-8.09c-2.64-1.17-5.73-.59-7.78 1.45l-16.53 16.5c-2.05 2.04-2.63 5.14-1.46 7.78l8.09 18.32c-1.83 3.62-3.39 7.39-4.67 11.25l-10.33 4h-128.96l216.62-142.62 116.17 76.47 100.48 66.15zm-87.66-28.57c-27.57 0-50 22.43-50 50s22.43 50.03 50 50.03 50.03-22.44 50.03-50.03-22.44-50-50.03-50zm0 86.03c-19.85 0-36-16.16-36-36.03s16.15-36 36-36 36.03 16.15 36.03 36-16.16 36.03-36.03 36.03zm32.05 143.75c2.73 2.73 2.73 7.17 0 9.9l-34.27 34.27c-1.37 1.37-3.16 2.05-4.95 2.05s-3.58-.68-4.95-2.05l-19.93-19.9c-2.74-2.73-2.74-7.17 0-9.9s7.17-2.74 9.9 0l14.98 14.96 29.32-29.32c2.73-2.73 7.17-2.73 9.9 0zm-32.05-46.81c-37.98 0-68.88 30.9-68.88 68.88s30.9 68.91 68.88 68.91 68.91-30.91 68.91-68.91-30.91-68.88-68.91-68.88zm0 123.79c-30.26 0-54.88-24.63-54.88-54.91s24.62-54.88 54.88-54.88 54.91 24.62 54.91 54.88-24.63 54.91-54.91 54.91z"/></svg>