<svg id="Layer_1" enable-background="new 0 0 53 53" height="512" viewBox="0 0 53 53" width="512" xmlns="http://www.w3.org/2000/svg"><g id="_x34_3"><path d="m13.5983887 16.8586426c.5522461 0 1-.4477539 1-1s-.4477539-1-1-1h-5.1000977c-1.1030273 0-2 .8969727-2 2v5.4799805c0 1.1030273.8969727 2 2 2h4.7202148c.5522461 0 1-.4477539 1-1s-.4477539-1-1-1h-4.7202148v-5.4799805z"/><path d="m39.7883301 22.338623c-.5522461 0-1 .4477539-1 1s.4477539 1 1 1h4.7099609c1.1030273 0 2-.8969727 2-2v-5.4799805c0-1.1030273-.8969727-2-2-2h-5.0898438c-.5522461 0-1 .4477539-1 1s.4477539 1 1 1h5.0898438v5.4799805z"/><path d="m6.498291 33.8186035c0 1.1030273.8969727 2 2 2h1.9902344c.5522461 0 1-.4477539 1-1s-.4477539-1-1-1h-1.9902344v-5.4799805h7.6801758c.5522461 0 1-.4477539 1-1s-.4477539-1-1-1h-7.6801758c-1.1030273 0-2 .8969727-2 2z"/><path d="m35.8586426 27.338623c0 .5522461.4477539 1 1 1h7.6396484v5.4799805h-1.9697266c-.5522461 0-1 .4477539-1 1s.4477539 1 1 1h1.9697266c1.1030273 0 2-.8969727 2-2v-5.4799805c0-1.1030273-.8969727-2-2-2h-7.6396484c-.5522461 0-1 .447754-1 1z"/><path d="m45.501709 2.498291h-.003418-37.996582-.003418c-2.7568359 0-5 2.2431641-5 5v29.1601563c0 2.7568359 2.2431641 5 5 5h1.8203125c.5522461 0 1-.4477539 1-1s-.4477539-1-1-1h-1.8203125c-1.6542969 0-3-1.3457031-3-3v-23.7998047h15.7524414c.6918945 0 1.3461914-.3671875 1.7070313-.9575195l.7651367-1.2524414h7.5478516l.7651367 1.2524414c.3608398.590332 1.0151367.9575195 1.7070313.9575195h.987793c.6918945 0 1.3461914-.3671875 1.7070313-.9575195l.7651367-1.2524414h7.5576172l.7651367 1.2524414c.3608398.590332 1.0151367.9575195 1.7070313.9575195h2.265625v23.7998047c0 1.6542969-1.3457031 3-3 3h-1.8198242c-.5522461 0-1 .4477539-1 1s.4477539 1 1 1h1.8198242c2.7568359 0 5-2.2431641 5-5 .000351-2.9820404-.0012665 10.8010559.003418-29.1601563-.0000002-2.7568359-2.2431643-5-5.0000002-5zm2.996582 8.3603516-2.265625-.0004883-.7651367-1.2524414c-.3608398-.590332-1.0146484-.9570313-1.706543-.9570313h-7.5581055c-.6923828 0-1.3461914.3666992-1.7070313.9570313l-.7651367 1.2529297-.987793-.0004883-.7651367-1.2524414c-.3608398-.590332-1.0146484-.9570313-1.7070313-.9570313h-7.5478516c-.6923828 0-1.3461914.3666992-1.7070313.9570313l-.7651367 1.2529297h-15.7490232v-3.3603516c0-1.6542969 1.3457031-3 3-3h37.996582c1.6542969 0 3 1.3457031 3 3z"/><path d="m10.1179199 6.6828613h-.3955078c-.5522461 0-1 .4477539-1 1s.4477539 1 1 1h.3955078c.5522461 0 1-.4477539 1-1s-.4477539-1-1-1z"/><path d="m14.0290527 6.6828613h-.3955078c-.5522461 0-1 .4477539-1 1s.4477539 1 1 1h.3955078c.5522461 0 1-.4477539 1-1s-.4477539-1-1-1z"/><path d="m17.9401855 6.6828613h-.3959961c-.5522461 0-1 .4477539-1 1s.4477539 1 1 1h.3959961c.5522461 0 1-.4477539 1-1s-.4477539-1-1-1z"/><path d="m29.0646973 27.0998535c-8.8080673-1.550745-16.7548828 5.1624985-16.7548828 13.9648438 0 2.7246094.7792969 5.3735352 2.2529297 7.6611328.7167969 1.1118164 1.9614258 1.7758789 3.3295898 1.7758789h17.2182617c1.3666992 0 2.6103516-.6621094 3.3256836-1.7709961 2.0117188-3.1196289 2.7084961-6.8774414 1.9628906-10.5820313-1.1293945-5.6113281-5.684082-10.0512695-11.3344726-11.0488281zm7.6909179 20.546875c-.340332.5273438-.9707031.8549805-1.6450195.8549805h-17.2182617c-.675293 0-1.3066406-.3291016-1.6479492-.8588867-1.265625-1.9643555-1.9345703-4.2387695-1.9345703-6.578125 0-7.4940491 6.7629528-13.347723 14.4072266-11.9951172 4.8466797.8554688 8.753418 4.6625977 9.7211914 9.4736328.642578 3.1914062.0449218 6.4243164-1.6826173 9.1035156z"/><path d="m26.5012207 30.8729248c-.0001831 0-.0003052-.0001221-.0004883-.0001221-.0001221 0-.0001831.000061-.0003052.000061-.0003662 0-.0007935-.000061-.0011597-.000061-5.5720387 0-10.1904297 4.5643578-10.1904297 10.1899414 0 1.7915039.4716797 3.5551758 1.3642578 5.1000977.2558899.4443588.8979797.6422691 1.3779297.3652344l1.5-.8701172c.4775391-.2773438.6401367-.8891602.3632813-1.3671875-.2773438-.4785156-.8891602-.6401367-1.3671875-.3632813l-.5839844.3387451c-.2973022-.7020264-.4954224-1.4428101-.588562-2.2015381h.6793823c.5522461 0 1-.4477539 1-1s-.4477539-1-1-1h-.6779785c.0941772-.7703857.289978-1.5097656.5834351-2.1992188l.5921021.3417969c.4817352.2774086 1.0914803.1087837 1.3662109-.3662109.2758789-.4785156.1118164-1.0898438-.3662109-1.3662109l-.5817261-.3358154c.4588623-.6068726.9985962-1.1466064 1.6055298-1.6054077l.3355713.5813599c.2751236.4756737.8853016.6431427 1.3662109.3662109.4780273-.2763672.6420898-.8876953.3662109-1.3662109l-.3414917-.5916138c.6893921-.293457 1.4286499-.4891357 2.1989136-.583374v.6774292c0 .5522461.4477539 1 1 1s1-.4477539 1-1v-.677002c.7702026.0945435 1.5094604.2905884 2.1987915.5843506l-.3408813.59021c-.2763672.4780273-.112793 1.0898438.3657227 1.3657227.4731712.2747917 1.0879669.1157684 1.3657227-.3657227l.3349609-.579895c.6065674.4588623 1.1459961.9986572 1.6045532 1.6054688l-.5791626.3342896c-.4780273.2763672-.6420898.8876953-.3662109 1.3662109.2751236.4756737.8852997.6431427 1.3662109.3662109l.5890503-.3400269c.2930908.6889648.4884644 1.4277344.5825806 2.1974487h-.6740724c-.5522461 0-1 .4477539-1 1s.4477539 1 1 1h.6755371c-.0931396.758728-.2912598 1.4995728-.588562 2.2015991l-.5840454-.3388062c-.4780273-.2753906-1.0893555-.1142578-1.3671875.3632813-.2768555.4780273-.1142578 1.0898438.3632813 1.3671875l1.5.8701172c.4658089.2688484 1.0924568.1296387 1.3779297-.3652344.8878784-1.5368652 1.3574829-3.2904053 1.3624268-5.0721436.0002441-.0091553.005249-.0167847.005249-.026001 0-.0077515-.0042725-.0141602-.0044556-.0219116-.0111122-5.6277504-4.631321-10.1687526-10.1869507-10.1698608z"/><path d="m27.4992676 43.1077271v-4.5840454c0-.5522461-.4477539-1-1-1s-1 .4477539-1 1v4.585144c-1.0164795.4023438-1.7402344 1.392395-1.7402344 2.5540161 0 .5522461.4477539 1 1 1s1-.4477539 1-1c0-.4135742.3320313-.75.7402344-.75.4135742 0 .75.3364258.75.75 0 .5522461.4477539 1 1 1s1-.4477539 1-1c0-1.1629028-.7280884-2.1536255-1.75-2.5551147z"/><path d="m32.6115723 15.0266113c-1.9885254 0-4.7487183 2.2958984-6.1102295 3.552124-1.3615723-1.2559204-4.1222534-3.552124-6.1104736-3.552124-2.7216797 0-4.9360352 2.2143555-4.9360352 4.9360352s2.2143555 4.9360352 4.9360352 4.9360352c1.9882202 0 4.7489014-2.2962036 6.1104736-3.552124 1.3615112 1.2562256 4.1217041 3.552124 6.1102295 3.552124 2.7216797 0 4.9360352-2.2143555 4.9360352-4.9360352s-2.2143555-4.9360352-4.9360352-4.9360352zm-12.2207032 7.8720703c-1.6191406 0-2.9360352-1.3168945-2.9360352-2.9360352s1.3168945-2.9360352 2.9360352-2.9360352c1.0297852 0 3.1240234 1.5439453 4.6586914 2.9365234-1.5332031 1.39209-3.6264648 2.935547-4.6586914 2.935547zm12.2207032 0c-1.0302734 0-3.1235352-1.543457-4.6586914-2.9360352 1.5351563-1.3925781 3.628418-2.9360352 4.6586914-2.9360352 1.6191406 0 2.9360352 1.3168945 2.9360352 2.9360352s-1.3168946 2.9360352-2.9360352 2.9360352z"/></g></svg>