<svg id="Layer_1" viewBox="0 0 512 512" xmlns="http://www.w3.org/2000/svg" data-name="Layer 1"><path d="m111.052 289.375c26.733 0 48.482-21.749 48.482-48.482s-21.749-48.482-48.482-48.482-48.482 21.749-48.482 48.482 21.749 48.482 48.482 48.482zm0-80.965c17.911 0 32.482 14.571 32.482 32.482s-14.571 32.482-32.482 32.482-32.482-14.571-32.482-32.482 14.571-32.482 32.482-32.482zm381.532 100.732c-10.499-11.101-25.225-17.215-41.464-17.215h-72.753c-14.186 0-25.959-4.877-35.99-14.909l-47.541-47.54c-10.703-10.701-28.117-10.701-38.82 0-.006.006-.011.012-.017.018-.005-.006-.01-.011-.016-.017-5.169-5.17-12.062-8.017-19.41-8.017s-14.24 2.847-19.41 8.016l-47.54 47.54c-10.031 10.032-21.805 14.909-35.991 14.909h-72.754c-16.239 0-30.965 6.114-41.463 17.215-10.739 11.355-16.415 26.863-16.415 44.85v108.128c0 7.311 2.861 14.198 8.057 19.394s12.082 8.057 19.393 8.056c12.354 0 22.829-8.203 26.262-19.449h115.492c4.418 0 8-3.582 8-8v-118.042l75.78-75.779c.006-.006.01-.011.016-.017.006.006.01.011.016.017l75.78 75.779v118.042c0 4.418 3.582 8 8 8h115.492c3.433 11.246 13.907 19.449 26.261 19.449h.003c7.31 0 14.196-2.861 19.391-8.056s8.057-12.083 8.057-19.394v-108.128c0-17.986-5.677-33.494-16.415-44.85zm-247.915-52.158-78.123 78.123c-1.5 1.501-2.343 3.535-2.343 5.657v113.355h-106.303v-83.913c0-4.418-3.582-8-8-8s-8 3.582-8 8v91.913c0 6.313-5.137 11.449-11.451 11.449-3.036 0-5.905-1.196-8.078-3.369s-3.37-5.043-3.37-8.08v-108.128c0-27.553 16.829-46.064 41.878-46.064h72.753c18.387 0 34.303-6.593 47.306-19.595l47.54-47.54c2.147-2.147 5.022-3.331 8.096-3.331s5.949 1.183 8.097 3.331c2.115 2.115 3.288 4.936 3.323 7.957v.279c-.035 3.02-1.209 5.841-3.323 7.956zm248.33 205.136c0 3.037-1.196 5.906-3.37 8.08s-5.041 3.369-8.078 3.369c-6.313 0-11.45-5.136-11.45-11.449v-91.913c0-4.418-3.582-8-8-8s-8 3.582-8 8v83.913h-106.304v-113.355c0-2.122-.843-4.156-2.343-5.657l-78.123-78.123c-2.17-2.17-3.276-5.001-3.337-7.851 0-.082.006-.163.006-.245s-.005-.163-.006-.245c.06-2.85 1.167-5.681 3.337-7.851 4.464-4.466 11.73-4.464 16.192 0l47.54 47.54c13.003 13.002 28.918 19.595 47.305 19.595h72.753c25.049 0 41.879 18.512 41.879 46.064v108.128zm-92.052-172.745c26.733 0 48.482-21.749 48.482-48.482s-21.749-48.482-48.482-48.482-48.482 21.749-48.482 48.482 21.749 48.482 48.482 48.482zm0-80.965c17.911 0 32.482 14.571 32.482 32.482s-14.571 32.482-32.482 32.482-32.482-14.571-32.482-32.482 14.571-32.482 32.482-32.482zm-134.103 110.505c-2.804-3.114-6.655-4.83-10.845-4.83s-8.042 1.716-10.848 4.832l-51.467 57.2c-3.91 4.343-4.862 10.358-2.483 15.698 2.378 5.339 7.485 8.655 13.329 8.655h13.87v94.48c0 7.746 6.303 14.049 14.049 14.049h47.099c7.746 0 14.049-6.304 14.049-14.05v-94.479h13.871c5.844 0 10.95-3.316 13.328-8.655 2.378-5.338 1.427-11.353-2.481-15.696zm18.753 65.556c-4.418 0-8 3.582-8 8v100.528h-43.196s0-100.528 0-100.528c0-4.418-3.582-8-8-8h-18.709l48.307-53.688 48.308 53.688h-18.709zm-121.073-254.322 10.601 1.713c1.388 4.285 3.116 8.453 5.17 12.468l-6.287 8.711c-3.843 5.326-3.263 12.563 1.382 17.211l16.027 16.027c4.645 4.643 11.882 5.227 17.211 1.382l8.711-6.286c4.016 2.055 8.184 3.783 12.468 5.17l1.713 10.601c1.049 6.485 6.578 11.192 13.147 11.192h22.665c6.569 0 12.099-4.707 13.147-11.193l1.714-10.601c4.285-1.388 8.452-3.116 12.467-5.17l8.711 6.287c5.327 3.844 12.564 3.262 17.211-1.382l16.027-16.027c4.645-4.646 5.226-11.884 1.382-17.211l-6.286-8.71c2.056-4.017 3.784-8.185 5.171-12.469l10.601-1.713c6.484-1.049 11.191-6.578 11.191-13.147v-22.665c0-6.569-4.707-12.099-11.192-13.147l-10.603-1.714c-1.387-4.283-3.115-8.451-5.169-12.466l6.287-8.712c3.845-5.328 3.263-12.566-1.383-17.212l-16.025-16.024c-4.646-4.649-11.884-5.23-17.212-1.384l-8.712 6.287c-4.014-2.055-8.181-3.782-12.466-5.17l-1.714-10.603c-1.049-6.484-6.578-11.191-13.147-11.191h-22.665c-6.569 0-12.099 4.707-13.147 11.192l-1.714 10.602c-4.284 1.387-8.452 3.115-12.467 5.169l-8.71-6.287c-5.327-3.843-12.566-3.263-17.211 1.383l-16.029 16.028c-4.644 4.646-5.225 11.884-1.381 17.21l6.286 8.711c-2.055 4.015-3.783 8.183-5.171 12.467l-10.6 1.714c-6.485 1.049-11.192 6.578-11.192 13.147v22.665c0 6.569 4.707 12.099 11.193 13.147zm4.807-33.529 13.342-2.157c3.145-.509 5.687-2.833 6.475-5.918 1.616-6.326 4.132-12.392 7.477-18.027 1.626-2.739 1.473-6.183-.392-8.766l-7.914-10.966 12.799-12.799 10.965 7.914c2.583 1.866 6.025 2.019 8.765.394 5.635-3.345 11.701-5.86 18.028-7.477 3.086-.788 5.41-3.331 5.918-6.475l2.157-13.343h18.099l2.157 13.343c.508 3.144 2.832 5.687 5.917 6.475 6.331 1.618 12.396 4.133 18.027 7.476 2.741 1.628 6.184 1.473 8.766-.392l10.967-7.914 12.798 12.798-7.914 10.967c-1.863 2.583-2.018 6.025-.393 8.765 3.345 5.635 5.859 11.7 7.476 18.027.788 3.086 3.331 5.41 6.475 5.918l13.344 2.157v18.099l-13.342 2.156c-3.145.508-5.688 2.833-6.476 5.919-1.614 6.326-4.129 12.392-7.475 18.027-1.626 2.739-1.473 6.183.392 8.766l7.913 10.966-12.798 12.798-10.966-7.914c-2.582-1.863-6.026-2.019-8.765-.393-5.633 3.344-11.698 5.858-18.029 7.477-3.085.788-5.409 3.331-5.917 6.475l-2.157 13.343h-18.099l-2.156-13.343c-.508-3.145-2.833-5.688-5.919-6.476-6.326-1.614-12.392-4.129-18.027-7.475-2.739-1.627-6.183-1.472-8.766.392l-10.966 7.914-12.798-12.798 7.914-10.966c1.864-2.583 2.018-6.025.393-8.765-3.344-5.633-5.858-11.699-7.477-18.03-.788-3.085-3.331-5.409-6.475-5.917l-13.343-2.156zm86.668 63.753c30.164 0 54.704-24.54 54.704-54.704s-24.54-54.704-54.704-54.704-54.703 24.54-54.703 54.704 24.54 54.704 54.703 54.704zm0-93.408c21.342 0 38.704 17.362 38.704 38.704s-17.362 38.704-38.704 38.704-38.703-17.362-38.703-38.704 17.362-38.704 38.703-38.704z"/></svg>